<svg xmlns="http://www.w3.org/2000/svg" viewBox="0 0 1280 360" width="1280" height="360" role="img" aria-label="Legal-Skills-Chinese 中文法律推理技能库">
  <defs>
    <linearGradient id="bg" x1="0" y1="0" x2="1" y2="1">
      <stop offset="0" stop-color="#15171c"/><stop offset="0.55" stop-color="#1f232b"/><stop offset="1" stop-color="#2b313c"/>
    </linearGradient>
    <radialGradient id="glow" cx="0.78" cy="0.28" r="0.72">
      <stop offset="0" stop-color="#c0392b" stop-opacity="0.32"/><stop offset="1" stop-color="#c0392b" stop-opacity="0"/>
    </radialGradient>
    <linearGradient id="bronze" x1="0" y1="0" x2="1" y2="0">
      <stop offset="0" stop-color="#b08d57"/><stop offset="0.5" stop-color="#d8b988"/><stop offset="1" stop-color="#b08d57"/>
    </linearGradient>
    <pattern id="grid" width="34" height="34" patternUnits="userSpaceOnUse">
      <path d="M34 0H0V34" fill="none" stroke="#b08d57" stroke-opacity="0.06" stroke-width="1"/>
    </pattern>
  </defs>
  <rect width="1280" height="360" fill="url(#bg)"/>
  <rect width="1280" height="360" fill="url(#grid)"/>
  <rect width="1280" height="360" fill="url(#glow)"/>
  <rect x="14" y="14" width="1252" height="332" fill="none" stroke="url(#bronze)" stroke-opacity="0.55" stroke-width="1.5"/>
  <rect x="22" y="22" width="1236" height="316" fill="none" stroke="url(#bronze)" stroke-opacity="0.22" stroke-width="1"/>
  <!-- scales of justice -->
  <g transform="translate(1018,176)" stroke="url(#bronze)" stroke-opacity="0.85" fill="none" stroke-width="2.2" stroke-linecap="round">
    <line x1="0" y1="-92" x2="0" y2="78"/>
    <line x1="-86" y1="-72" x2="86" y2="-72"/>
    <circle cx="0" cy="-88" r="5" fill="url(#bronze)" stroke="none"/>
    <line x1="-86" y1="-72" x2="-86" y2="-40"/><path d="M-118 -40 A 32 26 0 0 0 -54 -40 Z"/>
    <line x1="86" y1="-72" x2="86" y2="-40"/><path d="M54 -40 A 32 26 0 0 0 118 -40 Z"/>
    <path d="M-40 78 L40 78 L26 96 L-26 96 Z"/>
  </g>
  <!-- seal -->
  <g transform="translate(150,90)">
    <rect x="-2" y="-2" width="92" height="92" rx="10" fill="#c0392b" opacity="0.94"/>
    <rect x="6" y="6" width="76" height="76" rx="6" fill="none" stroke="#f4ede0" stroke-opacity="0.85" stroke-width="2"/>
    <g fill="#f4ede0"><path d="M32.4,15.0 L32.2,15.2 Q33.4,16.3 34.1,17.2 Q34.8,18.1 35.4,19.7 Q38.7,21.4 39.8,18.4 Q40.8,15.4 32.4,15.0 Z M30.0,22.0 L29.8,22.2 Q31.0,23.2 31.6,24.0 Q32.3,24.8 32.7,26.3 Q35.9,28.2 37.0,25.3 Q38.2,22.4 30.0,22.0 Z M32.0,34.4 Q31.7,34.4 31.1,34.4 Q30.6,34.4 30.6,34.4 L30.6,35.0 Q31.3,35.1 31.5,35.1 Q31.8,35.2 32.2,35.5 Q32.9,36.0 33.0,37.4 Q33.0,38.8 32.5,42.0 Q32.7,43.1 33.1,43.4 Q33.5,43.6 34.2,43.6 Q35.7,43.6 36.2,43.0 Q36.7,42.5 36.7,41.0 Q36.8,38.3 36.2,37.8 Q35.6,37.2 35.5,35.6 Q35.5,34.8 35.6,34.2 Q35.7,33.6 36.0,32.4 Q36.5,30.5 37.6,26.7 Q38.8,22.9 40.1,19.0 L39.6,18.9 Q33.6,32.4 33.6,32.4 Q33.6,32.4 32.9,33.7 Q32.6,34.4 32.5,34.4 Q32.5,34.4 32.0,34.4 Z M37.8,38.6 L39.6,43.0 Q40.0,43.0 40.2,42.8 Q40.4,42.7 40.5,42.3 Q46.2,41.1 48.2,40.5 Q50.3,39.9 53.3,38.9 Q53.8,40.1 54.1,40.7 Q54.3,41.3 54.6,42.5 Q58.5,45.5 59.9,41.4 Q61.3,37.3 50.1,32.3 L49.8,32.5 Q50.8,34.2 51.3,35.1 Q51.9,36.1 52.8,38.0 Q49.3,38.2 47.6,38.3 Q46.0,38.4 43.2,38.5 Q45.4,36.0 46.6,34.2 Q47.7,32.4 49.4,29.0 L57.5,29.0 Q57.9,29.0 58.1,28.9 Q58.2,28.9 58.3,28.5 Q57.1,27.3 56.0,26.4 Q54.9,25.5 54.9,25.5 L53.0,28.2 L49.4,28.2 L49.4,22.0 L56.7,22.0 Q57.1,22.0 57.3,21.9 Q57.4,21.9 57.5,21.5 Q56.3,20.4 55.2,19.6 Q54.2,18.7 54.2,18.7 L52.3,21.1 L49.4,21.1 L49.4,16.0 Q50.2,15.9 50.3,15.7 Q50.4,15.6 50.5,15.1 L45.7,14.7 L45.7,21.1 L39.4,21.1 L39.7,22.0 L45.7,22.0 L45.7,28.2 L38.1,28.2 L38.4,29.0 L44.7,29.0 Q44.0,32.0 43.5,34.0 Q43.0,35.9 42.0,38.4 L37.8,38.6 Z"/></g>
    <g fill="#f4ede0"><path d="M33.7,48.5 Q33.3,51.4 32.9,52.7 Q32.4,54.0 31.4,55.7 L31.8,55.9 Q33.0,55.2 33.6,54.7 Q34.2,54.2 35.2,53.0 L36.4,53.0 Q36.4,54.1 36.4,54.7 Q36.3,55.2 36.2,56.2 L30.2,56.2 L30.4,57.0 L36.1,57.0 Q35.6,60.1 34.9,61.4 Q34.2,62.6 30.1,64.8 L30.4,65.2 Q35.0,63.8 36.1,62.8 Q37.3,61.8 38.5,59.4 Q39.8,60.5 40.5,61.3 Q41.2,62.1 41.8,63.5 Q44.8,64.9 45.5,62.0 Q46.2,59.1 38.8,58.6 Q39.0,58.0 39.1,57.8 Q39.2,57.5 39.3,57.0 L44.6,57.0 Q45.0,57.0 45.2,56.9 Q45.3,56.9 45.4,56.5 Q44.3,55.5 43.3,54.7 Q42.4,54.0 42.4,54.0 L40.7,56.2 L39.4,56.2 Q39.6,55.5 39.7,54.9 Q39.7,54.3 39.8,53.0 L44.2,53.0 Q44.6,53.0 44.8,52.9 Q44.9,52.9 45.0,52.5 Q43.8,51.4 42.9,50.6 Q41.9,49.9 41.9,49.9 L40.2,52.2 L35.8,52.2 Q36.2,51.6 36.3,51.3 Q36.5,51.0 36.8,50.4 Q37.5,50.4 37.6,50.2 Q37.8,50.1 37.9,49.7 L33.7,48.5 Z M49.6,70.9 L49.6,75.0 L39.0,75.0 L39.0,70.9 L49.6,70.9 Z M49.6,70.0 L39.0,70.0 L39.0,66.0 L49.6,66.0 L49.6,70.0 Z M45.7,52.0 L45.7,63.8 L46.2,63.8 Q47.6,63.8 48.3,63.4 Q49.0,63.0 49.0,62.6 L49.0,61.0 L53.3,61.0 L53.3,63.1 L53.9,63.1 Q55.0,63.1 55.8,62.8 Q56.7,62.5 56.7,62.2 L56.7,53.5 Q57.3,53.3 57.5,53.2 Q57.7,53.1 57.9,52.8 L54.6,50.2 L53.0,52.0 L49.1,52.0 L45.7,50.5 L45.7,52.0 Z M53.3,60.2 L49.0,60.2 L49.0,52.9 L53.3,52.9 L53.3,60.2 Z M35.5,65.3 L35.5,77.7 L36.0,77.7 Q37.5,77.7 38.2,77.3 Q39.0,77.0 39.0,76.6 L39.0,75.9 L49.6,75.9 L49.6,77.5 L50.2,77.5 Q51.3,77.5 52.2,77.2 Q53.0,77.0 53.1,76.7 L53.1,66.6 Q53.7,66.5 53.9,66.4 Q54.1,66.2 54.2,66.0 L50.9,63.3 L49.3,65.2 L39.2,65.2 L35.5,63.7 L35.5,65.3 Z"/></g>
  </g>
  <g fill="#f4ede0"><path d="M155.3,228.0 L184.4,228.0 L184.4,218.7 L166.4,218.7 L166.4,182.0 L155.3,182.0 L155.3,228.0 Z"/><path d="M208.5,229.0 Q212.5,229.0 215.0,228.3 Q217.4,227.6 221.0,225.0 L217.4,218.4 Q214.8,219.9 213.7,220.2 Q212.5,220.6 209.9,220.6 Q205.5,220.6 203.8,219.6 Q202.1,218.7 201.1,214.0 L221.8,214.0 Q222.1,213.1 222.2,212.2 Q222.3,211.2 222.3,209.2 Q222.3,199.4 219.9,195.7 Q217.4,192.0 207.2,192.0 Q198.7,192.0 194.6,195.5 Q190.5,199.1 190.5,210.7 Q190.5,222.2 194.4,225.6 Q198.3,229.0 208.5,229.0 Z M201.0,206.8 Q201.7,202.4 203.0,201.4 Q204.4,200.4 207.4,200.4 Q211.4,200.4 212.2,201.8 Q213.0,203.1 213.0,206.8 L201.0,206.8 Z"/><path d="M243.1,242.9 Q255.4,242.9 259.2,240.3 Q263.1,237.6 263.1,230.1 Q263.1,223.7 260.6,222.3 Q258.2,221.0 249.5,221.0 L243.9,221.0 Q240.1,221.0 239.4,220.6 Q238.7,220.3 238.7,218.8 Q238.7,217.6 238.9,217.4 Q239.1,217.1 239.8,216.4 Q241.4,216.8 242.1,216.9 Q242.8,217.0 244.0,217.0 Q251.8,217.0 254.9,215.2 Q258.0,213.4 258.0,205.2 Q258.0,203.6 257.8,202.8 Q257.6,202.0 257.1,201.0 L262.5,201.0 L262.5,193.0 L249.5,193.0 Q247.9,192.3 247.0,192.2 Q246.0,192.0 244.0,192.0 Q236.3,192.0 232.8,194.1 Q229.2,196.2 229.2,204.8 Q229.2,209.0 230.4,210.6 Q231.5,212.2 234.0,214.0 L234.0,214.2 Q231.7,215.8 230.9,217.0 Q230.1,218.2 230.1,220.6 Q230.1,223.5 230.8,224.5 Q231.5,225.4 233.3,226.7 L233.3,227.0 Q230.0,228.6 229.2,229.8 Q228.3,231.0 228.3,234.0 Q228.3,240.3 231.7,241.6 Q235.0,242.9 243.1,242.9 Z M244.0,210.4 Q241.4,210.4 240.5,209.4 Q239.5,208.5 239.5,204.8 Q239.5,201.2 240.5,200.3 Q241.4,199.4 244.0,199.4 Q246.6,199.4 247.5,200.3 Q248.5,201.2 248.5,204.8 Q248.5,208.5 247.5,209.4 Q246.6,210.4 244.0,210.4 Z M244.8,236.0 Q240.4,236.0 238.9,235.4 Q237.4,234.8 237.4,232.2 Q237.4,231.0 237.6,230.5 Q237.9,230.0 239.0,229.0 Q240.1,229.3 240.8,229.4 Q241.5,229.4 244.0,229.4 L247.4,229.4 Q250.7,229.4 251.6,229.7 Q252.5,229.9 252.5,232.0 Q252.5,234.3 250.9,235.1 Q249.4,236.0 244.8,236.0 Z"/><path d="M278.4,229.0 Q282.3,229.0 283.9,228.1 Q285.6,227.2 288.5,224.6 L288.8,224.6 L289.5,228.0 L298.5,228.0 L298.5,208.1 Q298.5,197.1 296.0,194.5 Q293.4,192.0 284.3,192.0 Q278.8,192.0 276.2,192.9 Q273.7,193.9 269.1,196.7 L272.9,203.9 Q276.5,201.9 277.9,201.4 Q279.4,200.8 282.2,200.8 Q285.8,200.8 286.5,201.6 Q287.2,202.5 287.5,205.3 Q273.7,206.8 270.8,208.8 Q267.9,210.8 267.9,218.2 Q267.9,224.2 269.9,226.6 Q271.9,229.0 278.4,229.0 Z M282.2,220.5 Q279.9,220.5 279.1,220.0 Q278.4,219.5 278.4,217.4 Q278.4,214.9 279.5,213.9 Q280.6,212.9 287.5,212.0 L287.5,217.7 Q285.9,219.4 285.1,219.9 Q284.4,220.5 282.2,220.5 Z"/><path d="M318.5,229.0 Q321.0,229.0 321.9,228.8 Q322.8,228.6 324.0,228.1 L322.7,220.0 Q322.0,220.1 321.9,220.1 Q321.8,220.1 321.4,220.1 Q320.5,220.1 320.0,219.7 Q319.5,219.4 319.5,217.0 L319.5,178.6 L308.5,178.6 L308.5,216.7 Q308.5,224.0 309.7,226.5 Q310.9,229.0 318.5,229.0 Z"/><path d="M329.1,214.0 L346.6,214.0 L346.6,206.3 L329.1,206.3 L329.1,214.0 Z"/><path d="M370.6,229.0 Q381.8,229.0 385.0,225.6 Q388.2,222.2 388.2,214.5 Q388.2,208.0 386.5,206.1 Q384.8,204.1 379.1,201.8 L373.4,199.5 Q369.3,197.9 367.9,197.4 Q366.4,196.9 366.4,194.3 Q366.4,191.9 367.4,191.2 Q368.5,190.5 371.9,190.5 Q375.5,190.5 376.9,191.1 Q378.3,191.7 381.4,194.0 L386.9,187.1 Q382.9,183.0 380.0,182.0 Q377.2,181.0 371.9,181.0 Q362.1,181.0 358.6,184.1 Q355.1,187.2 355.1,195.0 Q355.1,201.7 357.4,203.7 Q359.7,205.8 364.5,207.7 L370.4,210.2 Q374.4,211.9 375.6,212.3 Q376.9,212.7 376.9,215.4 Q376.9,217.9 375.9,218.7 Q375.0,219.5 370.9,219.5 Q367.2,219.5 365.1,218.5 Q363.0,217.5 359.7,214.7 L353.4,222.4 Q358.2,226.8 361.4,227.9 Q364.6,229.0 370.6,229.0 Z"/><path d="M396.5,228.0 L407.3,228.0 L407.3,219.3 L411.4,214.7 L419.0,228.0 L431.0,228.0 L417.8,207.6 L430.1,193.0 L418.0,193.0 L407.6,206.2 L407.3,206.2 L407.3,178.8 L396.5,178.8 L396.5,228.0 Z"/><path d="M436.5,228.0 L447.5,228.0 L447.5,193.0 L436.5,193.0 L436.5,228.0 Z M442.0,188.0 Q445.6,188.0 446.9,186.9 Q448.1,185.8 448.1,182.3 Q448.1,178.9 446.9,177.8 Q445.6,176.7 442.0,176.7 Q438.2,176.7 437.0,177.8 Q435.8,178.9 435.8,182.3 Q435.8,185.8 437.0,186.9 Q438.2,188.0 442.0,188.0 Z"/><path d="M467.5,229.0 Q470.0,229.0 470.9,228.8 Q471.8,228.6 473.0,228.1 L471.7,220.0 Q471.0,220.1 470.9,220.1 Q470.8,220.1 470.4,220.1 Q469.5,220.1 469.0,219.7 Q468.5,219.4 468.5,217.0 L468.5,178.6 L457.5,178.6 L457.5,216.7 Q457.5,224.0 458.7,226.5 Q459.9,229.0 467.5,229.0 Z"/><path d="M489.5,229.0 Q492.0,229.0 492.9,228.8 Q493.8,228.6 495.0,228.1 L493.7,220.0 Q493.0,220.1 492.9,220.1 Q492.8,220.1 492.4,220.1 Q491.5,220.1 491.0,219.7 Q490.5,219.4 490.5,217.0 L490.5,178.6 L479.5,178.6 L479.5,216.7 Q479.5,224.0 480.7,226.5 Q481.9,229.0 489.5,229.0 Z"/><path d="M512.0,229.0 Q521.6,229.0 524.1,226.5 Q526.7,224.0 526.7,217.5 Q526.7,211.1 524.2,209.8 Q521.8,208.6 517.4,206.9 Q513.7,205.6 512.2,205.2 Q510.7,204.8 510.7,202.7 Q510.7,201.0 511.3,200.6 Q511.9,200.1 514.4,200.1 Q516.7,200.1 517.9,200.7 Q519.2,201.3 521.7,203.1 L526.6,196.5 Q523.7,194.2 521.6,193.1 Q519.6,192.0 514.0,192.0 Q505.8,192.0 503.1,194.3 Q500.4,196.5 500.4,203.2 Q500.4,209.0 502.8,210.5 Q505.2,211.9 509.4,213.6 Q513.0,215.0 514.7,215.5 Q516.4,216.0 516.4,218.1 Q516.4,219.8 515.8,220.4 Q515.2,220.9 512.2,220.9 Q509.5,220.9 508.0,220.2 Q506.5,219.6 503.3,217.2 L498.4,224.0 Q502.0,227.0 504.7,228.0 Q507.4,229.0 512.0,229.0 Z"/><path d="M533.1,214.0 L550.6,214.0 L550.6,206.3 L533.1,206.3 L533.1,214.0 Z"/><path d="M579.9,229.0 Q585.9,229.0 588.4,227.9 Q591.0,226.7 594.9,222.2 L589.1,215.2 Q586.9,217.6 585.5,218.5 Q584.0,219.5 580.3,219.5 Q573.8,219.5 571.7,216.8 Q569.6,214.1 569.6,204.9 Q569.6,195.8 572.0,193.2 Q574.5,190.5 580.4,190.5 Q583.7,190.5 584.9,191.2 Q586.1,192.0 588.5,194.1 L594.2,187.0 Q591.1,183.8 588.7,182.4 Q586.2,181.0 580.2,181.0 Q568.5,181.0 563.4,185.4 Q558.2,189.8 558.2,205.2 Q558.2,221.0 563.2,225.0 Q568.1,229.0 579.9,229.0 Z"/><path d="M601.5,228.0 L612.5,228.0 L612.5,204.6 Q614.6,202.5 615.3,202.0 Q616.1,201.4 618.6,201.4 Q621.4,201.4 622.0,202.1 Q622.7,202.8 622.7,207.7 L622.7,228.0 L633.7,228.0 L633.7,206.3 Q633.7,197.5 632.0,194.8 Q630.4,192.0 622.7,192.0 Q618.0,192.0 616.2,193.2 Q614.5,194.4 611.9,196.8 L612.5,190.5 L612.5,178.6 L601.5,178.6 L601.5,228.0 Z"/><path d="M643.5,228.0 L654.5,228.0 L654.5,193.0 L643.5,193.0 L643.5,228.0 Z M649.0,188.0 Q652.6,188.0 653.9,186.9 Q655.1,185.8 655.1,182.3 Q655.1,178.9 653.9,177.8 Q652.6,176.7 649.0,176.7 Q645.2,176.7 644.0,177.8 Q642.8,178.9 642.8,182.3 Q642.8,185.8 644.0,186.9 Q645.2,188.0 649.0,188.0 Z"/><path d="M664.5,228.0 L675.5,228.0 L675.5,204.6 Q677.6,202.5 678.3,202.0 Q679.1,201.4 681.6,201.4 Q684.4,201.4 685.0,202.1 Q685.7,202.8 685.7,207.7 L685.7,228.0 L696.7,228.0 L696.7,206.3 Q696.7,197.5 695.0,194.8 Q693.4,192.0 685.7,192.0 Q681.0,192.0 679.1,193.2 Q677.3,194.4 674.4,197.3 L674.2,197.3 L673.5,193.0 L664.5,193.0 L664.5,228.0 Z"/><path d="M722.5,229.0 Q726.5,229.0 729.0,228.3 Q731.4,227.6 735.0,225.0 L731.4,218.4 Q728.8,219.9 727.7,220.2 Q726.5,220.6 723.9,220.6 Q719.5,220.6 717.8,219.6 Q716.1,218.7 715.1,214.0 L735.8,214.0 Q736.1,213.1 736.2,212.2 Q736.3,211.2 736.3,209.2 Q736.3,199.4 733.9,195.7 Q731.4,192.0 721.2,192.0 Q712.7,192.0 708.6,195.5 Q704.5,199.1 704.5,210.7 Q704.5,222.2 708.4,225.6 Q712.3,229.0 722.5,229.0 Z M715.0,206.8 Q715.7,202.4 717.0,201.4 Q718.4,200.4 721.4,200.4 Q725.4,200.4 726.2,201.8 Q727.0,203.1 727.0,206.8 L715.0,206.8 Z"/><path d="M755.0,229.0 Q764.6,229.0 767.1,226.5 Q769.7,224.0 769.7,217.5 Q769.7,211.1 767.2,209.8 Q764.8,208.6 760.4,206.9 Q756.7,205.6 755.2,205.2 Q753.7,204.8 753.7,202.7 Q753.7,201.0 754.3,200.6 Q754.9,200.1 757.4,200.1 Q759.7,200.1 760.9,200.7 Q762.2,201.3 764.7,203.1 L769.6,196.5 Q766.7,194.2 764.6,193.1 Q762.6,192.0 757.0,192.0 Q748.8,192.0 746.1,194.3 Q743.4,196.5 743.4,203.2 Q743.4,209.0 745.8,210.5 Q748.2,211.9 752.4,213.6 Q756.0,215.0 757.7,215.5 Q759.4,216.0 759.4,218.1 Q759.4,219.8 758.8,220.4 Q758.2,220.9 755.2,220.9 Q752.5,220.9 751.0,220.2 Q749.5,219.6 746.3,217.2 L741.4,224.0 Q745.0,227.0 747.7,228.0 Q750.4,229.0 755.0,229.0 Z"/><path d="M793.5,229.0 Q797.5,229.0 800.0,228.3 Q802.4,227.6 806.0,225.0 L802.4,218.4 Q799.8,219.9 798.7,220.2 Q797.5,220.6 794.9,220.6 Q790.5,220.6 788.8,219.6 Q787.1,218.7 786.1,214.0 L806.8,214.0 Q807.1,213.1 807.2,212.2 Q807.3,211.2 807.3,209.2 Q807.3,199.4 804.9,195.7 Q802.4,192.0 792.2,192.0 Q783.7,192.0 779.6,195.5 Q775.5,199.1 775.5,210.7 Q775.5,222.2 779.4,225.6 Q783.3,229.0 793.5,229.0 Z M786.0,206.8 Q786.7,202.4 788.0,201.4 Q789.4,200.4 792.4,200.4 Q796.4,200.4 797.2,201.8 Q798.0,203.1 798.0,206.8 L786.0,206.8 Z"/></g>
  <g fill="#d8b988"><path d="M175.6,262.1 L168.8,262.1 L168.8,254.0 L175.6,254.0 L175.6,262.1 Z M169.9,246.9 L165.1,246.5 L165.1,253.1 L158.7,253.1 L154.7,251.6 L154.7,266.2 L155.2,266.2 Q156.8,266.2 157.6,265.7 Q158.4,265.3 158.4,264.9 L158.4,263.0 L165.1,263.0 L165.1,275.5 L165.8,275.5 Q167.2,275.5 168.0,275.0 Q168.8,274.6 168.8,274.1 L168.8,263.0 L175.6,263.0 L175.6,265.7 L176.2,265.7 Q177.4,265.7 178.4,265.3 Q179.3,265.0 179.3,264.7 L179.3,254.6 Q179.9,254.5 180.1,254.4 Q180.3,254.2 180.5,254.0 L177.0,251.2 L175.3,253.1 L168.8,253.1 L168.8,247.8 Q169.6,247.7 169.8,247.5 Q169.9,247.4 169.9,246.9 Z M158.4,262.1 L158.4,254.0 L165.1,254.0 L165.1,262.1 L158.4,262.1 Z"/><path d="M189.2,253.2 L189.5,254.0 L195.9,254.0 Q196.9,259.5 197.8,261.6 Q198.6,263.8 201.1,267.1 Q198.2,270.4 196.1,271.7 Q194.1,273.1 188.9,275.2 L189.1,275.5 Q194.8,274.1 197.1,273.0 Q199.3,271.9 202.8,269.1 Q205.6,272.0 207.3,273.1 Q209.1,274.1 213.1,275.6 Q213.8,273.8 214.5,273.2 Q215.1,272.6 216.9,272.4 L217.0,272.0 Q212.6,270.9 210.6,270.1 Q208.6,269.3 205.2,266.9 Q208.6,263.3 209.7,261.1 Q210.7,259.0 211.9,254.0 L216.0,254.0 Q216.4,254.0 216.6,253.9 Q216.7,253.9 216.8,253.5 Q215.4,252.3 214.2,251.4 Q213.0,250.4 213.0,250.4 L210.9,253.2 L204.8,253.2 L204.8,248.0 Q205.6,247.9 205.7,247.8 Q205.8,247.6 205.9,247.2 L201.2,246.8 L201.2,253.2 L189.2,253.2 Z M196.4,254.0 L207.5,254.0 Q206.8,258.0 206.0,259.9 Q205.3,261.7 202.9,265.0 Q199.9,262.2 198.8,260.5 Q197.7,258.7 196.4,254.0 Z"/><path d="M227.4,247.0 L227.2,247.2 Q228.4,248.3 229.1,249.2 Q229.8,250.1 230.4,251.7 Q233.7,253.4 234.8,250.4 Q235.8,247.4 227.4,247.0 Z M225.0,254.0 L224.8,254.2 Q226.0,255.2 226.6,256.0 Q227.3,256.8 227.7,258.3 Q230.9,260.2 232.0,257.3 Q233.2,254.4 225.0,254.0 Z M227.0,266.4 Q226.7,266.4 226.1,266.4 Q225.6,266.4 225.6,266.4 L225.6,267.0 Q226.3,267.1 226.5,267.1 Q226.8,267.2 227.2,267.5 Q227.9,268.0 228.0,269.4 Q228.0,270.8 227.5,274.0 Q227.7,275.1 228.1,275.4 Q228.5,275.6 229.2,275.6 Q230.7,275.6 231.2,275.0 Q231.7,274.5 231.7,273.0 Q231.8,270.3 231.2,269.8 Q230.6,269.2 230.5,267.6 Q230.5,266.8 230.6,266.2 Q230.7,265.6 231.0,264.4 Q231.5,262.5 232.6,258.7 Q233.8,254.9 235.1,251.0 L234.6,250.9 Q228.6,264.4 228.6,264.4 Q228.6,264.4 227.9,265.7 Q227.6,266.4 227.5,266.4 Q227.5,266.4 227.0,266.4 Z M232.8,270.6 L234.6,275.0 Q235.0,275.0 235.2,274.8 Q235.4,274.7 235.5,274.3 Q241.2,273.1 243.2,272.5 Q245.3,271.9 248.3,270.9 Q248.8,272.1 249.1,272.7 Q249.3,273.3 249.6,274.5 Q253.5,277.5 254.9,273.4 Q256.3,269.3 245.1,264.3 L244.8,264.5 Q245.8,266.2 246.3,267.1 Q246.9,268.1 247.8,270.0 Q244.3,270.2 242.6,270.3 Q241.0,270.4 238.2,270.5 Q240.4,268.0 241.6,266.2 Q242.7,264.4 244.4,261.0 L252.5,261.0 Q252.9,261.0 253.1,260.9 Q253.2,260.9 253.3,260.5 Q252.1,259.3 251.0,258.4 Q249.9,257.5 249.9,257.5 L248.0,260.2 L244.4,260.2 L244.4,254.0 L251.7,254.0 Q252.1,254.0 252.3,253.9 Q252.4,253.9 252.5,253.5 Q251.3,252.4 250.2,251.6 Q249.2,250.7 249.2,250.7 L247.3,253.1 L244.4,253.1 L244.4,248.0 Q245.2,247.9 245.3,247.7 Q245.4,247.6 245.5,247.1 L240.7,246.7 L240.7,253.1 L234.4,253.1 L234.7,254.0 L240.7,254.0 L240.7,260.2 L233.1,260.2 L233.4,261.0 L239.7,261.0 Q239.0,264.0 238.5,266.0 Q238.0,267.9 237.0,270.4 L232.8,270.6 Z"/><path d="M266.3,246.6 Q265.2,248.9 264.1,250.7 Q262.9,252.5 260.8,255.1 L261.0,255.4 Q264.2,253.7 265.8,252.3 Q267.5,250.9 269.4,249.1 Q270.1,249.2 270.2,249.1 Q270.3,249.0 270.5,248.8 L266.3,246.6 Z M282.5,255.8 L282.5,260.0 L279.5,260.0 L279.5,255.8 L282.5,255.8 Z M267.0,252.4 Q265.9,255.8 264.7,258.5 Q263.4,261.2 260.7,264.1 L261.0,264.4 Q262.3,263.7 262.9,263.2 Q263.5,262.8 264.6,261.9 L264.6,275.6 L265.3,275.6 Q266.7,275.6 267.3,275.1 Q268.0,274.7 268.1,274.4 L268.1,259.7 Q268.6,259.6 268.7,259.5 Q268.9,259.4 269.0,259.1 L267.8,258.6 Q268.5,257.7 268.8,257.2 Q269.1,256.7 269.7,255.8 L276.0,255.8 L276.0,260.0 L270.3,260.0 L270.5,260.8 L276.0,260.8 L276.0,264.2 L269.6,264.2 L269.8,265.0 L276.0,265.0 L276.0,269.0 L268.8,269.0 L269.0,269.8 L276.0,269.8 L276.0,275.5 L276.7,275.5 Q278.0,275.5 278.7,275.1 Q279.5,274.7 279.5,274.3 L279.5,269.8 L288.3,269.8 Q288.8,269.8 288.9,269.8 Q289.1,269.7 289.2,269.4 Q287.9,268.2 286.8,267.3 Q285.8,266.4 285.8,266.4 L283.9,269.0 L279.5,269.0 L279.5,265.0 L287.1,265.0 Q287.5,265.0 287.7,264.9 Q287.9,264.9 288.0,264.5 Q286.7,263.5 285.7,262.8 Q284.7,262.0 284.7,262.0 L282.9,264.2 L279.5,264.2 L279.5,260.8 L282.5,260.8 L282.5,261.8 L283.1,261.8 Q284.2,261.8 285.1,261.5 Q285.9,261.2 286.0,261.0 L286.0,255.8 L288.8,255.8 Q289.2,255.8 289.3,255.8 Q289.5,255.7 289.5,255.4 Q288.8,254.4 288.1,253.6 Q287.3,252.8 287.3,252.8 L286.1,255.0 L286.0,255.0 L286.0,251.7 Q286.6,251.5 286.8,251.4 Q287.0,251.2 287.2,251.0 L283.8,248.7 L282.2,250.2 L279.5,250.2 L279.5,248.0 Q280.3,247.9 280.4,247.7 Q280.5,247.6 280.6,247.1 L276.0,246.6 L276.0,250.2 L270.5,250.2 L270.7,251.0 L276.0,251.0 L276.0,255.0 L271.1,255.0 Q271.2,255.0 271.2,254.9 Q271.2,254.9 271.3,254.8 L267.0,252.4 Z M282.5,255.0 L279.5,255.0 L279.5,251.0 L282.5,251.0 L282.5,255.0 Z"/><path d="M317.2,247.0 Q316.8,248.8 316.5,250.0 Q316.2,251.3 315.8,253.0 L312.6,253.0 L312.4,252.9 Q313.0,251.5 313.3,250.8 Q313.5,250.0 314.0,248.5 Q314.7,248.4 314.9,248.3 Q315.1,248.2 315.2,247.8 L310.6,246.5 Q309.6,252.3 308.6,255.3 Q307.5,258.2 305.2,261.9 L305.6,262.1 Q306.7,261.2 307.3,260.7 Q307.8,260.2 308.8,259.0 L308.8,275.5 L309.4,275.5 Q311.1,275.5 311.6,275.1 Q312.2,274.7 312.2,274.5 L312.2,273.0 L324.7,273.0 Q325.2,273.0 325.3,272.9 Q325.5,272.9 325.6,272.5 Q324.4,271.2 323.4,270.2 Q322.3,269.2 322.3,269.2 L320.5,272.2 L318.8,272.2 L318.8,266.0 L323.7,266.0 Q324.1,266.0 324.3,265.9 Q324.4,265.9 324.5,265.5 Q323.4,264.5 322.5,263.7 Q321.6,262.9 321.6,262.9 L320.0,265.2 L318.8,265.2 L318.8,260.0 L323.7,260.0 Q324.1,260.0 324.2,259.9 Q324.4,259.9 324.4,259.5 Q323.4,258.4 322.5,257.6 Q321.6,256.7 321.6,256.7 L320.0,259.2 L318.8,259.2 L318.8,253.8 L324.2,253.8 Q324.6,253.8 324.8,253.8 Q325.0,253.7 325.0,253.4 Q323.8,252.2 322.8,251.3 Q321.8,250.5 321.8,250.5 L320.0,253.0 L316.7,253.0 Q317.9,251.7 318.7,250.9 Q319.5,250.0 320.5,248.9 Q321.2,248.9 321.4,248.8 Q321.6,248.7 321.8,248.2 L317.2,247.0 Z M312.2,253.8 L315.4,253.8 L315.4,259.2 L312.2,259.2 L312.2,253.8 Z M312.2,260.0 L315.4,260.0 L315.4,265.2 L312.2,265.2 L312.2,260.0 Z M312.2,266.0 L315.4,266.0 L315.4,272.2 L312.2,272.2 L312.2,266.0 Z M296.6,261.3 L298.0,265.3 Q298.4,265.1 298.5,265.0 Q298.7,264.8 298.8,264.4 L300.6,263.1 L300.6,271.2 Q300.6,271.6 300.6,271.7 Q300.5,271.7 300.1,271.7 Q299.5,271.7 298.3,271.7 Q297.1,271.6 297.1,271.6 L297.1,272.0 Q298.3,272.2 298.6,272.4 Q298.9,272.6 299.3,273.1 Q299.7,273.7 299.7,274.1 Q299.8,274.5 299.8,275.6 Q303.5,275.2 303.7,274.6 Q304.0,273.9 304.0,271.5 L304.0,260.6 L307.0,258.2 L306.9,257.9 L304.0,258.9 L304.0,254.8 L307.6,254.8 Q308.0,254.8 308.2,254.8 Q308.3,254.7 308.4,254.4 Q307.5,253.3 306.6,252.4 Q305.7,251.6 305.7,251.6 L304.2,254.0 L304.0,254.0 L304.0,248.0 Q304.7,247.9 304.9,247.7 Q305.0,247.6 305.1,247.1 L300.6,246.7 L300.6,254.0 L296.9,254.0 L297.2,254.8 L300.6,254.8 L300.6,260.1 Q298.9,260.7 298.1,260.9 Q297.4,261.1 296.6,261.3 Z"/><path d="M332.5,268.7 L334.1,272.5 Q334.4,272.4 334.6,272.2 Q334.7,272.1 334.8,271.7 Q339.0,269.3 340.4,268.3 Q341.9,267.3 343.8,265.8 L343.7,265.5 L339.6,266.8 L339.6,259.0 L342.9,259.0 Q343.3,259.0 343.4,259.0 Q343.5,258.9 343.6,258.7 L343.6,264.1 L344.2,264.1 Q345.6,264.1 346.3,263.7 Q347.0,263.3 347.0,262.9 L347.0,262.0 L349.8,262.0 L349.8,267.2 L343.5,267.2 L343.7,268.0 L349.8,268.0 L349.8,273.2 L340.8,273.2 L341.0,274.0 L360.9,274.0 Q361.3,274.0 361.5,273.9 Q361.6,273.9 361.7,273.5 Q360.5,272.3 359.4,271.5 Q358.3,270.6 358.3,270.6 L356.4,273.2 L353.3,273.2 L353.3,268.0 L359.6,268.0 Q360.1,268.0 360.2,267.9 Q360.4,267.9 360.5,267.5 Q359.3,266.3 358.3,265.4 Q357.3,264.4 357.3,264.4 L355.5,267.2 L353.3,267.2 L353.3,262.0 L356.2,262.0 L356.2,263.4 L356.8,263.4 Q358.0,263.4 358.9,263.0 Q359.7,262.6 359.7,262.3 L359.7,250.5 Q360.3,250.3 360.5,250.2 Q360.7,250.0 360.9,249.8 L357.6,247.1 L355.9,249.0 L347.2,249.0 L343.6,247.5 L343.6,249.8 Q342.5,248.6 341.8,247.9 Q341.0,247.3 341.0,247.3 L339.2,250.0 L332.8,250.0 L333.1,250.8 L336.1,250.8 L336.1,258.2 L332.9,258.2 L333.1,259.0 L336.1,259.0 L336.1,267.8 Q334.6,268.2 333.9,268.4 Q333.3,268.6 332.5,268.7 Z M349.8,256.0 L349.8,261.1 L347.0,261.1 L347.0,256.0 L349.8,256.0 Z M353.3,256.0 L356.2,256.0 L356.2,261.1 L353.3,261.1 L353.3,256.0 Z M349.8,255.2 L347.0,255.2 L347.0,249.8 L349.8,249.8 L349.8,255.2 Z M353.3,255.2 L353.3,249.8 L356.2,249.8 L356.2,255.2 L353.3,255.2 Z M343.6,250.8 L343.6,258.5 Q342.7,257.4 341.9,256.6 Q341.1,255.9 341.1,255.9 L339.7,258.2 L339.6,258.2 L339.6,250.8 L343.5,250.8 L343.6,250.8 Z"/><path d="M379.9,259.0 L380.1,259.8 L382.0,259.8 Q382.8,263.5 383.4,264.9 Q384.1,266.3 385.8,268.7 Q383.3,271.3 381.8,272.5 Q380.2,273.6 376.3,275.1 L376.5,275.5 Q381.0,274.5 382.8,273.6 Q384.6,272.8 387.4,270.6 Q389.3,272.7 390.5,273.5 Q391.7,274.2 394.4,275.5 Q395.0,273.8 395.5,273.2 Q396.1,272.7 397.7,272.4 L397.7,272.0 Q394.8,271.3 393.5,270.7 Q392.1,270.2 389.7,268.6 Q391.9,266.3 392.7,264.9 Q393.5,263.6 394.7,260.5 Q395.4,260.5 395.6,260.4 Q395.7,260.4 396.0,260.0 L392.6,256.8 L390.5,259.0 L389.1,259.0 L389.1,253.0 L396.4,253.0 Q396.8,253.0 397.0,252.9 Q397.1,252.9 397.2,252.6 Q395.9,251.4 394.9,250.6 Q393.8,249.8 393.8,249.8 L391.9,252.2 L389.1,252.2 L389.1,248.0 Q389.9,247.9 390.0,247.7 Q390.1,247.6 390.2,247.1 L385.6,246.7 L385.6,252.2 L379.3,252.2 L379.6,253.0 L385.6,253.0 L385.6,259.0 L379.9,259.0 Z M390.7,259.8 Q390.0,262.4 389.4,263.5 Q388.8,264.7 387.3,266.8 Q385.2,265.0 384.4,263.9 Q383.6,262.7 382.6,259.8 L390.7,259.8 Z M368.6,261.9 L370.1,266.0 Q370.5,265.9 370.6,265.7 Q370.8,265.5 370.8,265.1 L372.6,263.9 L372.6,271.2 Q372.6,271.6 372.6,271.7 Q372.5,271.7 372.1,271.7 Q371.5,271.7 370.3,271.7 Q369.1,271.6 369.1,271.6 L369.1,272.0 Q370.3,272.2 370.6,272.4 Q370.9,272.6 371.3,273.1 Q371.7,273.7 371.7,274.1 Q371.8,274.5 371.8,275.6 Q375.5,275.2 375.7,274.6 Q376.0,273.9 376.0,271.5 L376.0,261.6 Q377.6,260.5 378.2,260.0 Q378.8,259.5 379.8,258.7 L379.7,258.3 L376.0,259.6 L376.0,254.8 L379.6,254.8 Q380.0,254.8 380.2,254.8 Q380.3,254.7 380.4,254.4 Q379.5,253.0 378.6,252.1 Q377.7,251.3 377.7,251.3 L376.2,254.0 L376.0,254.0 L376.0,248.0 Q376.7,247.9 376.9,247.7 Q377.0,247.6 377.1,247.1 L372.6,246.7 L372.6,254.0 L368.9,254.0 L369.2,254.8 L372.6,254.8 L372.6,260.7 Q370.9,261.3 370.1,261.5 Q369.4,261.7 368.6,261.9 Z"/><path d="M404.6,253.0 L405.9,256.8 Q406.2,256.7 406.4,256.6 Q406.6,256.5 406.8,256.1 Q410.8,255.0 412.3,254.5 Q413.7,254.1 415.9,253.4 Q416.2,254.1 416.4,254.5 Q416.5,254.9 416.6,255.5 Q419.8,257.9 421.1,254.7 Q422.5,251.4 413.9,249.6 L413.6,249.8 Q414.3,250.6 414.6,251.1 Q415.0,251.6 415.5,252.7 L410.0,252.9 Q411.4,251.3 412.0,250.5 Q412.7,249.6 413.5,248.3 Q414.2,248.3 414.4,248.1 Q414.5,248.0 414.7,247.6 L409.8,246.5 Q409.5,248.3 409.3,249.6 Q409.1,250.8 408.6,253.0 L404.6,253.0 Z M410.1,263.0 L414.5,263.0 L414.5,266.1 L410.1,266.1 L410.1,263.0 Z M410.1,262.1 L410.1,258.9 L414.5,258.9 L414.5,262.1 L410.1,262.1 Z M406.8,258.0 L406.8,275.5 L407.3,275.5 Q408.7,275.5 409.4,275.1 Q410.1,274.8 410.1,274.4 L410.1,267.0 L414.5,267.0 L414.5,271.1 Q414.5,271.5 414.4,271.6 Q414.3,271.7 414.0,271.7 Q413.4,271.7 412.5,271.6 Q411.6,271.6 411.6,271.6 L411.6,272.0 Q412.6,272.2 412.9,272.4 Q413.1,272.6 413.4,273.1 Q413.7,273.6 413.8,274.0 Q413.8,274.5 413.9,275.5 Q417.5,275.2 417.7,274.6 Q417.9,273.9 417.9,271.5 L417.9,259.4 Q418.5,259.3 418.8,259.2 Q419.0,259.0 419.1,258.8 L415.7,255.9 L414.2,258.0 L410.2,258.0 L406.8,256.3 L406.8,258.0 Z M429.0,248.2 Q427.9,249.4 426.9,250.3 Q425.9,251.2 424.0,252.4 L424.0,248.0 Q424.7,247.9 424.8,247.8 Q424.9,247.6 425.0,247.2 L420.6,246.8 L420.6,257.2 Q420.6,259.5 420.9,259.8 Q421.2,260.2 424.1,260.2 L426.8,260.2 Q431.3,260.2 432.0,259.9 Q432.6,259.6 432.6,258.1 Q432.6,257.5 432.5,257.3 Q432.4,257.2 431.5,256.8 L431.4,253.5 L431.0,253.5 Q430.6,255.0 430.4,255.6 Q430.1,256.2 429.8,256.7 Q429.6,256.9 429.5,256.9 Q429.4,257.0 429.1,257.0 Q428.7,257.0 428.4,257.0 Q428.0,257.0 427.2,257.0 L425.0,257.0 Q424.2,257.0 424.1,256.9 Q424.0,256.9 424.0,256.4 L424.0,253.0 Q426.5,252.5 427.7,252.1 Q428.9,251.7 430.6,251.1 Q431.4,251.3 431.7,251.3 Q432.0,251.3 432.3,251.0 L429.0,248.2 Z M429.0,262.0 Q427.9,263.0 426.9,263.9 Q426.0,264.8 424.1,266.2 L424.1,262.0 Q424.7,261.9 424.9,261.8 Q425.0,261.6 425.0,261.2 L420.6,260.9 L420.6,272.0 Q420.6,274.4 420.9,274.7 Q421.2,275.0 424.2,275.0 L427.0,275.0 Q431.6,275.0 432.3,274.7 Q432.9,274.4 432.9,273.0 Q432.9,272.3 432.8,272.1 Q432.7,272.0 431.8,271.5 L431.7,267.7 L431.4,267.7 Q430.9,269.5 430.6,270.2 Q430.4,270.9 430.1,271.4 Q429.9,271.7 429.8,271.7 Q429.7,271.8 429.3,271.8 Q429.0,271.8 428.6,271.8 Q428.2,271.8 427.4,271.8 L425.0,271.8 Q424.2,271.8 424.2,271.8 Q424.1,271.7 424.1,271.2 L424.1,267.6 Q426.7,266.9 427.9,266.4 Q429.2,266.0 430.9,265.2 Q431.9,265.4 432.1,265.4 Q432.4,265.3 432.7,265.0 L429.0,262.0 Z"/><path d="M457.7,252.4 L453.3,251.0 Q453.0,252.0 452.8,252.8 Q452.5,253.5 451.9,255.2 L447.5,255.2 L447.8,256.0 L451.5,256.0 Q450.8,258.0 450.3,259.0 Q449.9,260.0 449.2,261.5 Q448.8,261.7 448.5,261.8 Q448.3,262.0 447.9,262.2 L451.2,264.4 L452.5,263.0 L456.3,263.0 L456.3,267.2 L446.8,267.2 L447.0,268.0 L456.3,268.0 L456.3,275.5 L456.9,275.5 Q458.7,275.5 459.3,275.1 Q459.8,274.8 459.8,274.6 L459.8,268.0 L468.0,268.0 Q468.5,268.0 468.6,267.9 Q468.8,267.9 468.9,267.5 Q467.5,266.4 466.3,265.5 Q465.2,264.7 465.2,264.7 L463.2,267.2 L459.8,267.2 L459.8,263.0 L466.1,263.0 Q466.5,263.0 466.6,262.9 Q466.8,262.9 466.9,262.5 Q465.6,261.3 464.6,260.4 Q463.6,259.6 463.6,259.6 L461.8,262.1 L459.8,262.1 L459.8,258.1 Q460.6,258.0 460.7,257.8 Q460.8,257.6 460.9,257.2 L456.3,256.7 L456.3,262.1 L452.7,262.1 Q453.4,260.4 453.9,259.3 Q454.4,258.1 455.2,256.0 L467.1,256.0 Q467.5,256.0 467.7,255.9 Q467.9,255.9 467.9,255.5 Q466.5,254.4 465.4,253.5 Q464.3,252.6 464.3,252.6 L462.2,255.2 L455.6,255.2 L456.4,253.0 Q457.2,253.0 457.4,252.9 Q457.6,252.7 457.7,252.4 Z M466.0,247.7 L464.2,250.1 L458.0,250.1 Q459.7,249.2 459.6,247.6 Q459.5,246.0 453.8,246.2 L453.5,246.4 Q454.5,247.3 455.0,248.0 Q455.6,248.8 456.0,250.0 L456.1,250.1 L447.5,250.1 L443.5,248.8 L443.5,258.7 Q443.5,264.3 443.4,267.3 Q443.3,270.3 440.7,275.1 L441.0,275.4 Q446.6,270.8 446.7,267.4 Q446.9,264.1 446.9,258.7 L446.9,251.0 L468.5,251.0 Q468.9,251.0 469.1,250.9 Q469.2,250.9 469.3,250.5 Q468.1,249.4 467.0,248.6 Q466.0,247.7 466.0,247.7 Z"/></g>
  <g fill="#9aa3b2"><path d="M156.5,306.0 Q158.7,306.0 159.6,305.3 Q160.5,304.7 160.5,302.5 Q160.5,300.8 159.9,300.3 Q159.3,299.8 157.8,299.4 L157.8,299.3 Q159.2,298.9 159.6,298.3 Q160.0,297.8 160.0,296.2 Q160.0,294.1 159.3,293.6 Q158.5,293.0 156.4,293.0 Q155.0,293.0 154.4,293.3 Q153.9,293.6 152.9,294.5 L153.8,295.5 Q154.5,294.8 154.9,294.5 Q155.4,294.3 156.4,294.3 Q157.7,294.3 158.1,294.7 Q158.5,295.1 158.5,296.3 Q158.5,297.7 158.0,298.3 Q157.6,298.8 155.0,298.8 L155.0,300.0 Q157.9,300.0 158.4,300.5 Q158.9,301.0 158.9,302.5 Q158.9,303.8 158.4,304.3 Q157.9,304.7 156.4,304.7 Q155.0,304.7 154.5,304.4 Q154.0,304.0 153.3,303.3 L152.5,304.3 Q153.3,305.2 153.9,305.6 Q154.5,306.0 156.5,306.0 Z"/><path d="M165.8,306.0 Q168.1,306.0 168.9,305.3 Q169.6,304.6 169.6,302.8 Q169.6,301.0 169.1,300.6 Q168.6,300.1 167.5,299.5 L167.5,299.4 Q168.3,298.8 168.7,298.2 Q169.2,297.6 169.2,296.3 Q169.2,294.4 168.6,293.7 Q167.9,293.0 165.8,293.0 Q163.8,293.0 163.1,293.6 Q162.4,294.3 162.4,296.2 Q162.4,297.5 162.8,298.0 Q163.2,298.5 164.0,299.1 L164.0,299.2 Q162.9,299.8 162.3,300.4 Q161.8,301.0 161.8,302.7 Q161.8,304.6 162.6,305.3 Q163.4,306.0 165.8,306.0 Z M166.6,299.0 Q165.1,298.4 164.5,298.0 Q163.8,297.7 163.8,296.2 Q163.8,295.0 164.2,294.6 Q164.6,294.2 165.8,294.2 Q167.1,294.2 167.5,294.6 Q167.9,295.1 167.9,296.4 Q167.9,297.3 167.7,297.8 Q167.4,298.2 166.6,299.0 Z M165.8,304.9 Q164.3,304.9 163.7,304.4 Q163.2,303.9 163.2,302.5 Q163.2,301.3 163.5,300.8 Q163.9,300.3 164.9,299.7 Q166.6,300.4 167.4,300.7 Q168.2,301.0 168.2,302.7 Q168.2,304.0 167.7,304.4 Q167.2,304.9 165.8,304.9 Z"/><path d="M182.4,293.3 Q184.0,295.5 185.6,296.9 Q187.1,298.2 189.9,299.8 Q190.1,299.5 190.3,299.2 Q190.4,299.0 190.8,298.7 Q188.0,297.3 186.4,296.0 Q184.9,294.6 183.0,292.0 L181.7,292.0 Q180.3,294.3 178.9,295.7 Q177.4,297.2 174.3,298.9 Q174.6,299.2 174.8,299.4 Q174.9,299.6 175.1,300.0 Q178.1,298.2 179.6,296.8 Q181.0,295.5 182.4,293.3 Z M181.8,297.6 L181.8,307.6 L183.1,307.6 L183.1,297.6 L181.8,297.6 Z"/><path d="M194.0,291.2 L194.0,295.0 L191.8,295.0 L191.8,296.2 L194.0,296.2 L194.0,300.2 L191.5,300.9 L191.9,302.3 L194.0,301.5 L194.0,306.5 Q194.0,306.7 193.9,306.7 Q193.9,306.8 193.7,306.8 Q193.5,306.8 193.1,306.8 Q192.8,306.8 192.1,306.8 Q192.2,307.1 192.3,307.4 Q192.4,307.7 192.4,308.0 Q193.5,308.0 193.9,308.0 Q194.2,308.0 194.6,307.8 Q195.0,307.5 195.1,307.4 Q195.2,307.2 195.2,306.5 L195.2,301.1 L197.2,300.4 L197.0,299.1 L195.2,299.7 L195.2,296.2 L196.9,296.2 L196.9,295.0 L195.2,295.0 L195.2,291.2 L194.0,291.2 Z M199.9,291.2 Q200.0,292.6 200.0,293.2 Q200.0,293.8 200.0,295.0 L197.3,295.0 L197.3,296.2 L199.9,296.2 Q199.9,297.5 199.9,298.0 Q199.8,298.6 199.7,299.7 L198.1,298.7 L197.3,299.7 Q198.0,300.1 198.4,300.3 Q198.7,300.6 199.4,301.1 Q198.9,303.7 198.3,304.7 Q197.8,305.7 195.7,307.0 Q195.9,307.3 196.2,307.6 Q196.4,307.8 196.6,308.1 Q198.7,306.6 199.3,305.6 Q199.9,304.6 200.5,301.8 Q201.4,302.5 201.8,302.8 Q202.2,303.1 202.8,303.6 L203.5,302.5 Q202.9,301.9 202.4,301.5 Q201.9,301.2 200.8,300.5 Q201.0,299.2 201.0,298.5 Q201.1,297.8 201.1,296.2 L203.7,296.2 Q203.7,303.7 203.6,305.8 Q203.5,308.0 205.7,308.0 Q206.8,308.0 207.0,307.7 Q207.2,307.4 207.4,304.9 Q207.0,304.8 206.8,304.7 Q206.6,304.5 206.3,304.3 Q206.2,306.2 206.2,306.5 Q206.1,306.8 205.8,306.8 Q204.8,306.8 204.8,304.7 Q204.9,302.7 205.0,295.0 L201.2,295.0 Q201.2,293.8 201.2,293.2 Q201.2,292.6 201.2,291.2 L199.9,291.2 Z"/><path d="M222.5,295.5 Q221.8,297.5 221.2,298.8 Q220.6,300.2 219.7,301.8 L220.7,302.4 Q221.7,300.7 222.3,299.5 Q222.8,298.2 223.7,296.1 L222.5,295.5 Z M209.4,295.8 Q210.3,297.9 210.8,299.3 Q211.3,300.7 211.7,302.3 L213.0,301.8 Q212.5,300.2 212.0,298.8 Q211.5,297.5 210.6,295.4 L209.4,295.8 Z M217.9,291.5 L217.9,305.8 L215.1,305.8 L215.1,291.5 L213.8,291.5 L213.8,305.8 L209.0,305.8 L209.0,307.0 L224.0,307.0 L224.0,305.8 L219.2,305.8 L219.2,291.5 L217.9,291.5 Z"/><path d="M226.6,292.3 Q227.7,292.7 228.5,293.1 Q229.2,293.5 229.9,294.1 L230.6,293.1 Q229.9,292.5 229.2,292.1 Q228.4,291.8 227.2,291.3 L226.6,292.3 Z M225.7,297.2 Q226.8,297.7 227.6,298.1 Q228.3,298.5 229.0,299.1 L229.7,297.9 Q229.0,297.3 228.2,296.9 Q227.5,296.5 226.3,296.1 L225.7,297.2 Z M226.2,306.7 L227.3,307.6 Q228.3,306.0 228.9,304.8 Q229.4,303.7 230.3,301.7 L229.3,300.8 Q228.4,302.9 227.8,304.2 Q227.1,305.4 226.2,306.7 Z M237.1,302.5 Q237.7,303.3 238.0,303.8 Q238.3,304.3 238.9,305.2 L233.0,305.6 Q233.8,304.0 234.2,302.9 Q234.6,301.8 235.2,300.0 L241.1,300.0 L241.1,298.8 L236.3,298.8 L236.3,295.2 L240.3,295.2 L240.3,294.0 L236.3,294.0 L236.3,291.2 L235.0,291.2 L235.0,294.0 L231.1,294.0 L231.1,295.2 L235.0,295.2 L235.0,298.8 L230.2,298.8 L230.2,300.0 L233.7,300.0 Q233.2,301.8 232.8,302.9 Q232.4,304.1 231.7,305.6 L230.2,305.7 L230.4,307.0 Q232.8,306.9 234.5,306.7 Q236.2,306.6 239.5,306.4 Q239.8,306.9 239.9,307.1 Q240.1,307.4 240.2,307.8 L241.4,307.2 Q240.9,305.8 240.2,304.7 Q239.5,303.5 238.2,301.9 L237.1,302.5 Z"/><path d="M246.3,291.2 Q245.6,292.5 244.8,293.2 Q244.1,293.9 242.7,294.9 Q243.0,295.2 243.1,295.5 Q243.3,295.9 243.4,296.2 Q244.9,295.0 245.7,294.1 Q246.5,293.2 247.5,291.7 L246.3,291.2 Z M248.2,301.0 L248.2,302.1 L252.0,302.1 L252.0,303.9 L247.4,303.9 L247.4,305.0 L252.0,305.0 L252.0,307.8 L253.3,307.8 L253.3,305.0 L258.1,305.0 L258.1,303.9 L253.3,303.9 L253.3,302.1 L257.3,302.1 L257.3,301.0 L253.3,301.0 L253.3,300.0 L257.1,300.0 L257.1,297.0 L258.3,297.0 L258.3,295.9 L257.1,295.9 L257.1,293.0 L253.3,293.0 L253.3,291.1 L252.0,291.1 L252.0,293.0 L248.5,293.0 L248.5,294.1 L252.0,294.1 L252.0,295.9 L247.7,295.9 L247.7,297.0 L252.0,297.0 L252.0,298.9 L248.4,298.9 L248.4,300.0 L252.0,300.0 L252.0,301.0 L248.2,301.0 Z M253.3,294.1 L255.8,294.1 L255.8,295.9 L253.3,295.9 L253.3,294.1 Z M253.3,298.9 L253.3,297.0 L255.8,297.0 L255.8,298.9 L253.3,298.9 Z M246.6,295.2 Q245.6,297.1 244.8,298.2 Q244.0,299.3 242.5,300.3 Q242.7,300.5 242.9,300.8 Q243.1,301.0 243.2,301.3 Q243.8,300.8 244.1,300.6 Q244.5,300.4 245.1,299.8 L245.1,307.8 L246.3,307.8 L246.3,298.1 Q246.8,297.2 247.1,296.9 Q247.3,296.5 247.7,295.8 L246.6,295.2 Z"/><path d="M266.6,292.0 Q266.5,294.3 266.5,298.4 Q266.5,302.5 259.5,306.0 Q260.0,306.3 260.2,306.5 Q260.4,306.7 260.6,307.0 Q264.9,304.7 265.8,302.6 Q266.7,300.5 267.4,297.1 Q268.2,300.5 269.2,302.7 Q270.2,304.9 274.5,307.0 Q274.8,306.7 274.9,306.4 Q275.1,306.2 275.5,305.9 Q269.0,303.0 268.6,299.0 Q268.1,295.0 268.0,292.8 L268.0,292.0 L266.6,292.0 Z"/><path d="M276.8,300.8 L276.8,302.0 L283.9,302.0 L283.9,306.2 Q283.9,306.6 283.8,306.7 Q283.7,306.8 283.3,306.8 Q282.9,306.8 282.3,306.8 Q281.6,306.8 280.2,306.8 Q280.4,307.1 280.5,307.4 Q280.6,307.7 280.7,308.0 Q282.5,308.0 283.1,308.0 Q283.6,308.0 284.3,307.8 Q284.9,307.6 285.0,307.4 Q285.2,307.2 285.2,306.2 L285.2,302.0 L292.2,302.0 L292.2,300.8 L285.2,300.8 L285.2,297.2 L291.2,297.2 L291.2,296.0 L285.2,296.0 L285.2,293.5 Q287.2,293.2 288.1,293.1 Q289.0,292.9 290.5,292.4 L289.6,291.3 Q287.0,292.2 284.5,292.4 Q282.0,292.7 278.0,292.9 Q278.1,293.2 278.2,293.4 Q278.2,293.7 278.3,294.0 Q280.0,293.9 281.0,293.9 Q282.0,293.8 283.9,293.6 L283.9,296.0 L278.0,296.0 L278.0,297.2 L283.9,297.2 L283.9,300.8 L276.8,300.8 Z"/><path d="M294.3,292.0 L294.3,296.0 L295.6,296.0 L295.6,293.2 L307.4,293.2 L307.4,296.0 L308.7,296.0 L308.7,292.0 L294.3,292.0 Z M298.1,293.4 Q297.7,296.0 297.4,297.4 Q297.1,298.9 296.6,300.8 L297.9,300.9 L298.0,300.1 L304.6,300.1 L304.4,302.8 L293.9,302.8 L293.9,304.0 L304.2,304.0 Q304.0,305.6 303.9,306.0 Q303.7,306.4 303.4,306.7 Q303.2,306.9 303.1,306.9 Q303.0,306.9 302.6,306.9 Q302.2,306.9 301.6,306.9 Q301.0,306.9 299.8,306.8 Q300.0,307.1 300.1,307.4 Q300.2,307.7 300.2,308.0 Q301.4,308.0 301.9,308.1 Q302.4,308.1 303.0,308.0 Q303.7,308.0 303.9,308.0 Q304.1,307.9 304.5,307.5 Q304.9,307.1 305.1,306.6 Q305.2,306.1 305.5,304.0 L309.1,304.0 L309.1,302.8 L305.7,302.8 Q305.8,301.8 305.8,301.3 Q305.9,300.7 305.9,299.6 Q306.0,299.4 306.0,299.2 Q306.0,299.0 306.0,299.0 L298.3,299.0 L298.8,297.0 L306.2,297.0 L306.2,295.9 L299.0,295.9 L299.4,293.5 L298.1,293.4 Z"/><path d="M322.0,291.2 Q321.7,292.2 321.3,292.9 Q320.9,293.6 320.3,294.5 L321.4,294.9 Q322.0,294.1 322.4,293.5 Q322.8,292.8 323.5,291.7 L322.0,291.2 Z M320.9,296.2 L320.9,300.0 L316.1,300.0 L316.1,299.6 L316.1,296.2 L320.9,296.2 Z M310.9,300.0 L310.9,301.2 L314.8,301.2 Q314.5,303.3 314.1,304.3 Q313.6,305.3 310.9,306.8 Q311.2,307.1 311.4,307.3 Q311.6,307.6 311.8,307.9 Q314.9,306.2 315.4,304.9 Q315.8,303.7 316.0,301.2 L320.9,301.2 L320.9,307.8 L322.2,307.8 L322.2,301.2 L326.1,301.2 L326.1,300.0 L322.2,300.0 L322.2,296.2 L325.6,296.2 L325.6,295.0 L311.5,295.0 L311.5,296.2 L314.8,296.2 L314.8,299.6 L314.8,300.0 L310.9,300.0 Z M313.7,291.7 Q314.4,292.7 314.8,293.4 Q315.2,294.1 315.5,295.0 L316.7,294.4 Q316.3,293.5 315.9,292.9 Q315.5,292.2 314.8,291.2 L313.7,291.7 Z"/><path d="M327.5,303.9 L327.8,305.0 Q329.1,304.6 329.8,304.4 Q330.6,304.2 332.2,303.7 L332.0,302.7 Q330.4,303.2 329.5,303.4 Q328.7,303.6 327.5,303.9 Z M336.0,296.9 L336.0,298.0 L341.1,298.0 L341.1,296.9 L336.0,296.9 Z M334.9,300.1 Q335.4,301.5 335.6,302.3 Q335.9,303.2 336.0,304.4 L337.1,304.1 Q336.9,302.9 336.7,302.1 Q336.4,301.2 335.9,299.9 L334.9,300.1 Z M337.9,299.7 Q338.2,301.0 338.4,301.9 Q338.5,302.8 338.6,303.9 L339.7,303.7 Q339.6,302.6 339.4,301.7 Q339.3,300.9 338.9,299.5 L337.9,299.7 Z M328.8,294.5 Q328.7,296.6 328.6,298.0 Q328.5,299.4 328.3,301.0 L332.8,301.0 Q332.6,304.9 332.5,305.6 Q332.3,306.4 332.0,306.8 Q331.9,307.0 331.8,307.0 Q331.7,307.0 331.4,307.0 Q331.1,307.0 330.7,307.0 Q330.3,307.0 329.5,306.9 Q329.6,307.2 329.7,307.4 Q329.8,307.7 329.8,308.0 Q330.6,308.0 331.0,308.0 Q331.4,308.0 331.8,308.0 Q332.3,308.0 332.5,307.9 Q332.7,307.9 332.9,307.5 Q333.5,307.0 333.6,306.1 Q333.7,305.2 334.0,300.5 Q334.0,300.3 334.0,300.1 Q334.0,300.0 334.0,300.0 L332.9,300.0 L332.7,300.0 Q332.9,297.9 333.0,296.2 Q333.1,294.5 333.3,292.0 L328.1,292.0 L328.1,293.1 L332.1,293.1 Q332.0,295.4 331.9,296.8 Q331.8,298.1 331.6,300.0 L329.5,300.0 Q329.6,298.4 329.7,297.4 Q329.8,296.4 329.9,294.8 L328.8,294.5 Z M338.3,291.1 Q337.3,293.7 336.3,294.9 Q335.4,296.0 333.4,297.4 Q333.6,297.7 333.8,298.0 Q334.0,298.3 334.1,298.6 Q335.7,297.3 336.5,296.5 Q337.3,295.6 338.5,293.5 Q339.6,295.3 340.5,296.3 Q341.4,297.3 342.9,298.5 Q343.0,298.1 343.2,297.8 Q343.3,297.5 343.5,297.2 Q342.0,296.1 341.0,295.1 Q340.1,294.1 339.1,292.3 L339.4,291.5 L338.3,291.1 Z M334.4,305.9 L334.4,307.0 L343.1,307.0 L343.1,305.9 L340.5,305.9 Q341.3,304.3 341.8,303.1 Q342.2,301.9 342.9,300.1 L341.8,299.8 Q341.2,301.6 340.7,302.9 Q340.2,304.2 339.3,305.9 L334.4,305.9 Z"/><path d="M345.7,292.7 Q346.6,293.5 347.2,294.1 Q347.8,294.7 348.4,295.4 L349.2,294.5 Q348.7,293.8 348.1,293.2 Q347.5,292.7 346.6,291.8 L345.7,292.7 Z M350.0,305.8 L350.0,307.0 L360.3,307.0 L360.3,305.8 L356.3,305.8 L356.3,300.0 L359.7,300.0 L359.7,298.8 L356.3,298.8 L356.3,294.0 L360.0,294.0 L360.0,292.8 L350.5,292.8 L350.5,294.0 L355.0,294.0 L355.0,305.8 L352.7,305.8 L352.7,297.3 L351.4,297.3 L351.4,305.8 L350.0,305.8 Z M344.8,297.0 L344.8,298.2 L347.2,298.2 L347.2,304.5 Q347.2,305.4 346.9,305.7 Q346.6,306.1 346.3,306.3 Q346.5,306.5 346.7,306.7 Q346.9,307.0 347.1,307.2 Q347.3,306.9 347.6,306.7 Q347.8,306.5 350.7,304.2 Q350.5,303.9 350.4,303.6 Q350.3,303.4 350.2,303.0 L348.5,304.4 L348.5,297.0 L344.8,297.0 Z"/><path d="M370.4,298.6 Q371.3,299.9 371.9,300.8 Q372.5,301.8 373.0,303.0 L374.1,302.2 Q373.5,301.0 372.9,300.2 Q372.3,299.3 371.4,298.0 L370.4,298.6 Z M365.1,291.2 Q364.9,292.0 364.8,292.6 Q364.6,293.2 364.4,294.0 L362.5,294.0 L362.5,307.4 L363.6,307.4 L363.6,306.0 L368.4,306.0 L368.4,294.0 L365.5,294.0 Q365.8,293.3 366.0,292.8 Q366.2,292.3 366.5,291.4 L365.1,291.2 Z M363.6,295.1 L367.2,295.1 L367.2,299.0 L363.6,299.0 L363.6,295.1 Z M363.6,304.9 L363.6,300.1 L367.2,300.1 L367.2,304.9 L363.6,304.9 Z M371.2,291.1 Q370.6,293.5 370.2,294.7 Q369.7,296.0 368.5,297.6 Q368.8,297.8 369.1,298.0 Q369.4,298.1 369.6,298.4 Q370.2,297.5 370.4,297.0 Q370.7,296.4 371.2,295.2 L375.5,295.2 Q375.3,302.5 375.2,304.0 Q375.1,305.5 374.5,306.1 Q374.3,306.7 374.2,306.8 Q374.1,306.9 373.8,306.9 Q373.4,306.9 372.9,306.9 Q372.4,306.8 371.3,306.6 Q371.5,307.1 371.6,307.4 Q371.7,307.7 371.7,308.0 Q372.6,308.0 373.1,308.0 Q373.6,308.0 374.2,308.0 Q374.8,308.0 375.0,307.9 Q375.2,307.8 375.6,307.3 Q376.3,305.9 376.4,304.5 Q376.5,303.1 376.8,294.7 Q376.8,294.5 376.8,294.2 Q376.8,294.0 376.8,294.0 L371.7,294.0 Q371.9,293.2 372.0,292.7 Q372.2,292.3 372.4,291.4 L371.2,291.1 Z"/><path d="M382.1,306.0 L383.6,306.0 L384.8,302.0 L389.4,302.0 L390.6,306.0 L392.3,306.0 L388.0,293.0 L386.3,293.0 L382.1,306.0 Z M385.2,300.8 L385.8,298.7 Q386.3,297.2 386.5,296.5 Q386.7,295.8 387.1,294.3 L387.2,294.3 Q387.6,295.8 387.8,296.5 Q388.0,297.2 388.4,298.7 L389.0,300.8 L385.2,300.8 Z"/><path d="M396.7,310.0 Q399.5,310.0 400.4,309.3 Q401.3,308.5 401.3,306.9 Q401.3,305.4 400.8,305.1 Q400.2,304.7 398.1,304.7 L396.3,304.7 Q395.1,304.7 394.9,304.5 Q394.7,304.3 394.7,303.8 Q394.7,303.3 394.8,303.1 Q395.0,303.0 395.3,302.7 Q395.7,302.9 396.0,302.9 Q396.2,303.0 396.7,303.0 Q398.5,303.0 399.3,302.4 Q400.0,301.7 400.0,299.4 Q400.0,298.5 399.9,298.1 Q399.7,297.7 399.3,297.2 L401.2,297.2 L401.2,296.0 L398.0,296.0 Q397.6,296.1 397.4,296.1 Q397.2,296.0 396.7,296.0 Q394.8,296.0 394.0,296.6 Q393.2,297.3 393.2,299.5 Q393.2,300.8 393.5,301.2 Q393.8,301.8 394.4,302.2 L394.4,302.3 Q393.9,302.7 393.6,303.0 Q393.4,303.3 393.4,304.0 Q393.4,304.8 393.6,305.1 Q393.8,305.3 394.2,305.6 L394.2,305.7 Q393.4,306.2 393.1,306.6 Q392.9,306.9 392.9,307.7 Q392.9,309.1 393.6,309.6 Q394.4,310.0 396.7,310.0 Z M396.7,302.0 Q395.6,302.0 395.1,301.5 Q394.7,301.0 394.7,299.5 Q394.7,298.0 395.1,297.6 Q395.6,297.1 396.7,297.1 Q397.8,297.1 398.2,297.6 Q398.6,298.0 398.6,299.5 Q398.6,301.0 398.2,301.5 Q397.7,302.0 396.7,302.0 Z M396.9,308.9 Q395.2,308.9 394.7,308.6 Q394.2,308.4 394.2,307.5 Q394.2,307.0 394.4,306.7 Q394.5,306.4 395.2,306.0 Q395.6,306.0 395.8,306.0 Q396.0,306.0 396.3,306.0 L397.9,306.0 Q399.2,306.0 399.5,306.1 Q399.8,306.3 399.8,307.1 Q399.8,308.1 399.2,308.5 Q398.7,308.9 396.9,308.9 Z"/><path d="M407.3,306.0 Q408.5,306.0 409.0,305.8 Q409.5,305.6 410.3,305.1 L409.8,303.9 Q409.1,304.5 408.7,304.6 Q408.4,304.8 407.5,304.8 Q405.7,304.8 405.1,304.1 Q404.5,303.3 404.4,301.1 L410.6,301.1 Q410.7,300.9 410.7,300.7 Q410.7,300.6 410.7,300.2 Q410.7,297.7 410.0,296.8 Q409.4,296.0 407.0,296.0 Q404.9,296.0 403.9,296.9 Q402.9,297.8 402.9,300.8 Q402.9,304.2 403.9,305.1 Q404.8,306.0 407.3,306.0 Z M404.4,300.0 Q404.6,298.2 405.2,297.8 Q405.7,297.2 407.0,297.2 Q408.5,297.2 408.9,297.7 Q409.3,298.2 409.3,300.0 L404.4,300.0 Z"/><path d="M412.6,306.0 L414.1,306.0 L414.1,298.9 Q415.0,297.9 415.4,297.6 Q415.7,297.4 416.6,297.4 Q417.9,297.4 418.1,297.8 Q418.4,298.1 418.4,300.0 L418.4,306.0 L419.9,306.0 L419.9,299.8 Q419.9,297.3 419.5,296.6 Q419.0,296.0 417.1,296.0 Q415.9,296.0 415.4,296.4 Q414.9,296.7 414.0,297.6 L414.0,297.6 L413.8,296.0 L412.6,296.0 L412.6,306.0 Z"/><path d="M425.5,306.0 Q426.0,306.0 426.3,305.9 Q426.6,305.8 427.2,305.7 L426.9,304.5 Q426.5,304.6 426.3,304.7 Q426.1,304.8 425.8,304.8 Q424.7,304.8 424.6,304.4 Q424.4,304.0 424.4,302.8 L424.4,297.3 L426.9,297.3 L426.9,296.0 L424.4,296.0 L424.4,293.4 L423.1,293.4 L422.9,296.0 L421.5,296.1 L421.5,297.3 L422.8,297.3 L422.8,302.8 Q422.8,304.8 423.2,305.4 Q423.5,306.0 425.5,306.0 Z"/><path d="M436.2,306.0 Q438.8,306.0 439.6,305.2 Q440.4,304.4 440.4,302.5 Q440.4,300.6 439.8,300.1 Q439.3,299.7 437.8,299.1 L436.1,298.3 Q435.1,297.9 434.5,297.7 Q434.0,297.4 434.0,296.2 Q434.0,295.1 434.4,294.7 Q434.9,294.4 436.3,294.4 Q437.5,294.4 437.9,294.6 Q438.4,294.8 439.2,295.5 L440.0,294.5 Q439.1,293.6 438.4,293.3 Q437.8,293.0 436.3,293.0 Q434.0,293.0 433.2,293.7 Q432.4,294.4 432.4,296.3 Q432.4,298.2 433.1,298.6 Q433.8,299.0 434.9,299.5 L436.7,300.3 Q437.9,300.9 438.3,301.1 Q438.8,301.3 438.8,302.6 Q438.8,303.8 438.3,304.2 Q437.8,304.6 436.2,304.6 Q434.9,304.6 434.3,304.3 Q433.6,304.0 432.8,303.1 L431.8,304.2 Q432.9,305.3 433.6,305.6 Q434.4,306.0 436.2,306.0 Z"/><path d="M442.6,306.0 L444.1,306.0 L444.1,303.4 L445.8,301.2 L448.5,306.0 L450.2,306.0 L446.7,300.0 L449.8,296.0 L448.1,296.0 L444.2,301.3 L444.1,301.3 L444.1,291.7 L442.6,291.7 L442.6,306.0 Z"/><path d="M451.6,306.0 L453.1,306.0 L453.1,296.0 L451.6,296.0 L451.6,306.0 Z M452.3,294.0 Q453.0,294.0 453.2,293.8 Q453.4,293.6 453.4,293.0 Q453.4,292.4 453.2,292.2 Q453.0,292.0 452.3,292.0 Q451.7,292.0 451.5,292.2 Q451.3,292.4 451.3,293.0 Q451.3,293.6 451.5,293.8 Q451.7,294.0 452.3,294.0 Z"/><path d="M458.2,306.0 Q458.6,306.0 458.7,306.0 Q458.9,305.9 459.1,305.9 L458.9,304.7 Q458.7,304.7 458.7,304.7 Q458.6,304.7 458.5,304.7 Q458.3,304.7 458.2,304.6 Q458.1,304.5 458.1,304.0 L458.1,292.2 L456.6,292.2 L456.6,304.0 Q456.6,305.3 456.8,305.6 Q457.0,306.0 458.2,306.0 Z"/><path d="M463.2,306.0 Q463.6,306.0 463.7,306.0 Q463.9,305.9 464.1,305.9 L463.9,304.7 Q463.7,304.7 463.7,304.7 Q463.6,304.7 463.5,304.7 Q463.3,304.7 463.2,304.6 Q463.1,304.5 463.1,304.0 L463.1,292.2 L461.6,292.2 L461.6,304.0 Q461.6,305.3 461.8,305.6 Q462.0,306.0 463.2,306.0 Z"/><path d="M469.0,306.0 Q471.1,306.0 471.7,305.4 Q472.3,304.8 472.3,303.2 Q472.3,301.4 471.6,301.1 Q470.9,300.8 469.5,300.3 Q468.5,299.9 468.0,299.7 Q467.5,299.5 467.5,298.6 Q467.5,297.8 467.8,297.5 Q468.1,297.2 469.2,297.2 Q470.1,297.2 470.4,297.4 Q470.7,297.6 471.3,298.1 L472.1,297.1 Q471.4,296.5 470.9,296.2 Q470.4,296.0 469.2,296.0 Q467.2,296.0 466.6,296.6 Q466.0,297.2 466.0,298.7 Q466.0,300.3 466.7,300.6 Q467.4,301.0 468.7,301.5 Q469.8,301.9 470.3,302.1 Q470.8,302.3 470.8,303.3 Q470.8,304.1 470.5,304.5 Q470.2,304.8 469.0,304.8 Q467.9,304.8 467.5,304.6 Q467.1,304.3 466.3,303.6 L465.5,304.7 Q466.4,305.5 467.0,305.7 Q467.7,306.0 469.0,306.0 Z"/><path d="M481.7,301.0 Q482.3,301.0 482.6,300.8 Q482.8,300.5 482.8,299.8 Q482.8,299.1 482.6,298.9 Q482.3,298.6 481.7,298.6 Q481.1,298.6 480.8,298.9 Q480.6,299.1 480.6,299.8 Q480.6,300.5 480.8,300.8 Q481.1,301.0 481.7,301.0 Z"/><path d="M499.0,296.9 L499.0,298.0 L504.7,298.0 L504.7,296.9 L499.0,296.9 Z M497.7,300.0 Q498.2,301.4 498.5,302.3 Q498.7,303.2 498.8,304.4 L499.9,304.1 Q499.7,302.9 499.5,302.0 Q499.2,301.1 498.8,299.8 L497.7,300.0 Z M501.0,299.5 Q501.3,300.9 501.5,301.8 Q501.6,302.7 501.7,303.9 L502.8,303.7 Q502.7,302.5 502.5,301.6 Q502.4,300.8 502.0,299.4 L501.0,299.5 Z M494.0,291.2 L494.0,294.8 L491.8,294.8 L491.8,296.0 L493.9,296.0 Q493.5,298.3 493.0,299.7 Q492.5,301.2 491.5,302.7 Q491.8,303.0 491.9,303.3 Q492.1,303.6 492.2,304.0 Q492.9,302.9 493.2,301.9 Q493.5,301.0 494.0,299.1 L494.0,307.8 L495.2,307.8 L495.2,298.4 Q495.7,299.3 495.9,299.9 Q496.1,300.4 496.4,301.0 L497.1,300.0 Q496.9,299.4 496.2,298.4 Q495.6,297.3 495.2,296.7 L495.2,296.0 L497.0,296.0 L497.0,294.8 L495.2,294.8 L495.2,291.2 L494.0,291.2 Z M501.6,291.1 Q500.4,293.8 499.4,294.9 Q498.4,296.0 496.3,297.4 Q496.5,297.6 496.7,297.9 Q496.9,298.2 497.0,298.5 Q498.8,297.2 499.6,296.4 Q500.5,295.5 501.8,293.4 Q503.1,295.2 504.1,296.2 Q505.0,297.1 506.8,298.3 Q506.9,297.9 507.0,297.6 Q507.2,297.4 507.4,297.1 Q505.7,296.0 504.6,295.1 Q503.5,294.1 502.4,292.3 L502.7,291.6 L501.6,291.1 Z M496.8,305.9 L496.8,307.0 L506.9,307.0 L506.9,305.9 L503.8,305.9 Q504.7,304.2 505.2,302.9 Q505.7,301.7 506.4,299.7 L505.3,299.4 Q504.7,301.3 504.2,302.7 Q503.6,304.1 502.7,305.9 L496.8,305.9 Z"/><path d="M518.7,304.4 Q520.2,305.3 521.1,305.9 Q522.1,306.6 522.9,307.5 L524.0,306.7 Q523.0,305.7 522.1,305.1 Q521.2,304.5 519.7,303.7 L518.7,304.4 Z M512.9,303.7 Q511.9,304.8 511.1,305.3 Q510.3,305.9 508.7,306.6 Q509.0,306.8 509.3,307.0 Q509.5,307.3 509.8,307.5 Q511.2,306.8 512.1,306.1 Q513.0,305.5 514.1,304.2 L512.9,303.7 Z M509.2,295.9 L509.2,299.0 L510.5,299.0 L510.5,297.0 L514.9,297.0 Q514.3,297.7 513.9,298.0 Q513.5,298.4 512.7,299.0 L511.8,298.5 L511.0,299.3 Q512.1,299.8 512.7,300.2 Q513.3,300.6 514.2,301.3 L513.0,302.0 L509.1,302.0 L509.2,303.2 L515.8,303.0 L515.8,307.8 L517.1,307.8 L517.1,303.1 L522.0,302.9 Q522.3,303.3 522.5,303.5 Q522.7,303.6 523.0,303.9 L523.9,303.1 Q522.9,302.2 522.0,301.5 Q521.0,300.8 519.5,300.0 L518.7,300.6 Q519.3,301.0 519.7,301.3 Q520.0,301.5 520.7,302.0 L515.0,302.0 Q516.7,301.0 517.6,300.3 Q518.5,299.6 520.0,298.4 L518.9,297.8 Q517.9,298.7 517.3,299.2 Q516.6,299.7 515.2,300.6 Q514.8,300.3 514.5,300.1 Q514.2,299.9 513.6,299.6 Q514.5,298.9 515.0,298.5 Q515.5,298.1 516.4,297.3 L515.8,297.0 L522.6,297.0 L522.6,299.0 L523.8,299.0 L523.8,295.9 L517.1,295.9 L517.1,294.0 L523.7,294.0 L523.7,292.9 L517.1,292.9 L517.1,291.2 L515.8,291.2 L515.8,292.9 L509.3,292.9 L509.3,294.0 L515.8,294.0 L515.8,295.9 L509.2,295.9 Z"/><path d="M542.8,298.9 L529.7,298.9 L529.7,300.0 L542.8,300.0 Q541.9,300.7 541.3,301.3 Q540.8,301.9 540.0,303.0 L541.0,303.6 Q542.2,302.0 543.0,301.2 Q543.9,300.4 545.4,299.4 Q543.9,298.4 543.0,297.6 Q542.2,296.9 541.0,295.3 L540.0,295.9 Q540.8,297.0 541.3,297.6 Q541.9,298.2 542.8,298.9 Z"/><path d="M561.3,299.1 L561.3,301.9 L558.6,301.9 L558.6,299.1 L561.3,299.1 Z M558.6,291.2 Q557.9,294.0 557.3,295.2 Q556.7,296.4 555.2,297.7 Q555.5,297.9 555.7,298.2 Q555.9,298.5 556.1,298.7 Q556.5,298.2 556.8,298.0 Q557.0,297.7 557.4,297.2 L557.4,307.8 L558.6,307.8 L558.6,307.0 L566.3,307.0 L566.3,305.8 L562.5,305.8 L562.5,303.0 L565.6,303.0 L565.6,301.9 L562.5,301.9 L562.5,299.1 L565.6,299.1 L565.6,298.0 L562.5,298.0 L562.5,296.0 L566.0,296.0 L566.0,294.9 L562.6,294.9 Q563.0,293.9 563.3,293.3 Q563.5,292.7 563.9,291.7 L562.5,291.3 Q562.3,292.4 562.0,293.1 Q561.8,293.8 561.4,294.9 L558.8,294.9 Q559.2,293.8 559.4,293.3 Q559.5,292.7 559.8,291.6 L558.6,291.2 Z M561.3,298.0 L558.6,298.0 L558.6,296.0 L561.3,296.0 L561.3,298.0 Z M561.3,303.0 L561.3,305.8 L558.6,305.8 L558.6,303.0 L561.3,303.0 Z M553.0,291.3 L553.0,294.8 L550.7,294.8 L550.7,296.0 L553.0,296.0 L553.0,299.8 L550.5,300.7 L550.8,302.1 L553.0,301.3 L553.0,306.4 Q553.0,306.7 553.0,306.8 Q553.0,306.8 552.8,306.8 Q552.5,306.8 552.2,306.8 Q551.8,306.8 551.0,306.8 Q551.2,307.1 551.3,307.4 Q551.4,307.7 551.4,308.0 Q552.6,308.0 552.9,308.0 Q553.2,308.0 553.7,307.8 Q554.1,307.6 554.2,307.4 Q554.3,307.2 554.3,306.4 L554.3,300.8 L556.1,300.2 L555.9,298.9 L554.3,299.4 L554.3,296.0 L555.9,296.0 L555.9,294.8 L554.3,294.8 L554.3,291.2 L553.0,291.3 Z"/><path d="M575.1,297.0 L577.7,297.0 L577.7,299.0 L575.1,299.0 L575.1,297.0 Z M578.8,297.0 L581.4,297.0 L581.4,299.0 L578.8,299.0 L578.8,297.0 Z M575.1,293.1 L577.7,293.1 L577.7,296.0 L575.1,296.0 L575.1,293.1 Z M578.8,293.1 L581.4,293.1 L581.4,296.0 L578.8,296.0 L578.8,293.1 Z M572.4,306.0 L572.4,307.2 L583.4,307.2 L583.4,306.0 L578.9,306.0 L578.9,303.2 L582.9,303.2 L582.9,302.0 L578.9,302.0 L578.9,300.1 L582.6,300.1 L582.6,292.0 L573.9,292.0 L573.9,300.1 L577.6,300.1 L577.6,302.0 L573.7,302.0 L573.7,303.2 L577.6,303.2 L577.6,306.0 L572.4,306.0 Z M567.6,304.4 L567.9,306.0 Q569.4,305.4 570.4,305.0 Q571.4,304.6 573.2,303.8 L573.0,302.5 L571.1,303.1 L571.1,299.0 L572.8,299.0 L572.8,297.8 L571.1,297.8 L571.1,294.0 L573.1,294.0 L573.1,292.8 L567.8,292.8 L567.8,294.0 L569.9,294.0 L569.9,297.8 L567.9,297.8 L567.9,299.0 L569.9,299.0 L569.9,303.9 Q569.0,303.9 568.6,304.0 Q568.2,304.2 567.6,304.4 Z"/><path d="M601.8,298.9 L588.7,298.9 L588.7,300.0 L601.8,300.0 Q600.9,300.7 600.3,301.3 Q599.8,301.9 599.0,303.0 L600.0,303.6 Q601.2,302.0 602.0,301.2 Q602.9,300.4 604.4,299.4 Q602.9,298.4 602.0,297.6 Q601.2,296.9 600.0,295.3 L599.0,295.9 Q599.8,297.0 600.3,297.6 Q600.9,298.2 601.8,298.9 Z"/><path d="M610.8,292.6 Q611.8,293.5 612.5,294.1 Q613.2,294.8 613.8,295.6 L614.6,294.6 Q614.0,293.8 613.3,293.1 Q612.6,292.5 611.6,291.6 L610.8,292.6 Z M619.6,291.2 Q618.7,293.4 617.9,294.8 Q617.0,296.1 614.3,297.9 Q614.6,298.1 614.8,298.4 Q615.0,298.6 615.2,298.9 Q617.3,297.4 618.1,296.4 Q618.9,295.4 620.0,293.4 Q621.3,295.5 622.2,296.6 Q623.1,297.6 624.7,298.8 Q624.9,298.4 625.1,298.2 Q625.3,298.0 625.6,297.7 Q623.8,296.6 622.8,295.5 Q621.8,294.3 620.6,292.1 L620.9,291.5 L619.6,291.2 Z M622.7,298.7 Q621.5,299.6 620.6,300.2 Q619.6,300.7 618.1,301.5 L618.1,297.9 L616.8,297.9 L616.8,305.2 Q616.8,306.8 617.1,307.0 Q617.3,307.2 619.2,307.2 Q619.5,307.2 620.9,307.2 Q622.3,307.2 622.7,307.2 Q624.3,307.2 624.5,306.8 Q624.7,306.5 624.9,304.1 Q624.5,304.0 624.3,303.9 Q624.0,303.8 623.7,303.5 Q623.6,305.6 623.5,305.8 Q623.5,306.0 622.6,306.0 Q622.0,306.0 620.9,306.0 Q619.7,306.0 619.2,306.0 Q618.2,306.0 618.2,305.9 Q618.1,305.9 618.1,305.2 L618.1,302.9 Q619.8,302.1 620.9,301.5 Q622.0,300.9 623.5,299.8 L622.7,298.7 Z M612.2,307.3 L612.2,307.3 Q612.5,306.9 612.7,306.7 Q612.9,306.5 615.7,304.2 Q615.6,304.0 615.5,303.7 Q615.4,303.5 615.2,303.1 L613.6,304.5 L613.6,297.0 L609.7,297.0 L609.7,298.2 L612.3,298.2 L612.3,304.7 Q612.3,305.5 612.1,305.8 Q611.8,306.1 611.5,306.4 Q611.7,306.5 611.9,306.8 Q612.1,307.0 612.2,307.3 Z"/><path d="M627.7,292.7 Q628.6,293.5 629.2,294.1 Q629.8,294.7 630.4,295.4 L631.2,294.5 Q630.7,293.8 630.1,293.2 Q629.5,292.7 628.6,291.8 L627.7,292.7 Z M632.0,305.8 L632.0,307.0 L642.3,307.0 L642.3,305.8 L638.3,305.8 L638.3,300.0 L641.7,300.0 L641.7,298.8 L638.3,298.8 L638.3,294.0 L642.0,294.0 L642.0,292.8 L632.5,292.8 L632.5,294.0 L637.0,294.0 L637.0,305.8 L634.7,305.8 L634.7,297.3 L633.4,297.3 L633.4,305.8 L632.0,305.8 Z M626.8,297.0 L626.8,298.2 L629.2,298.2 L629.2,304.5 Q629.2,305.4 628.9,305.7 Q628.6,306.1 628.3,306.3 Q628.5,306.5 628.7,306.7 Q628.9,307.0 629.1,307.2 Q629.3,306.9 629.6,306.7 Q629.8,306.5 632.7,304.2 Q632.5,303.9 632.4,303.6 Q632.3,303.4 632.2,303.0 L630.5,304.4 L630.5,297.0 L626.8,297.0 Z"/><path d="M660.8,298.9 L647.7,298.9 L647.7,300.0 L660.8,300.0 Q659.9,300.7 659.3,301.3 Q658.8,301.9 658.0,303.0 L659.0,303.6 Q660.2,302.0 661.0,301.2 Q661.9,300.4 663.4,299.4 Q661.9,298.4 661.0,297.6 Q660.2,296.9 659.0,295.3 L658.0,295.9 Q658.8,297.0 659.3,297.6 Q659.9,298.2 660.8,298.9 Z"/><path d="M675.8,291.2 L675.8,294.0 L668.8,294.0 L668.8,295.2 L671.4,295.2 Q672.3,298.2 673.0,299.5 Q673.7,300.7 675.4,302.8 Q673.6,304.4 672.5,305.0 Q671.4,305.6 668.7,306.5 Q668.9,306.8 669.1,307.1 Q669.3,307.5 669.5,307.8 Q672.2,306.8 673.4,306.2 Q674.5,305.5 676.4,303.8 Q678.3,305.6 679.5,306.3 Q680.6,307.0 683.5,307.8 Q683.7,307.4 683.9,307.1 Q684.1,306.7 684.4,306.4 Q681.6,305.7 680.5,305.1 Q679.3,304.4 677.4,302.7 Q679.2,300.8 679.9,299.5 Q680.6,298.3 681.6,295.2 L684.2,295.2 L684.2,294.0 L677.1,294.0 L677.1,291.2 L675.8,291.2 Z M676.5,301.7 Q674.8,299.9 674.2,298.9 Q673.6,297.8 672.8,295.2 L680.1,295.2 Q679.2,297.9 678.6,298.9 Q678.0,300.0 676.5,301.7 Z"/><path d="M697.2,292.9 Q698.3,293.7 699.0,294.3 Q699.7,294.9 700.4,295.6 L701.2,294.6 Q700.4,293.9 699.7,293.3 Q699.0,292.7 697.9,291.9 L697.2,292.9 Z M687.1,294.8 L687.1,296.0 L692.1,296.0 L692.1,299.0 L686.0,299.0 L686.0,300.2 L692.1,300.2 L692.1,307.8 L693.4,307.8 L693.4,300.2 L699.7,300.2 Q699.5,303.1 699.4,303.7 Q699.2,304.3 698.9,304.7 Q698.8,304.9 698.7,304.9 Q698.6,304.9 698.2,304.9 Q697.8,304.9 697.3,304.9 Q696.7,304.9 695.6,304.8 Q695.9,305.1 696.0,305.4 Q696.0,305.6 696.1,306.0 Q697.1,306.1 697.6,306.1 Q698.1,306.1 698.7,306.0 Q699.2,306.0 699.4,305.9 Q699.6,305.9 700.0,305.5 Q700.5,305.0 700.6,304.2 Q700.8,303.5 701.0,299.6 Q701.0,299.4 701.1,299.2 Q701.1,299.0 701.1,299.0 L698.6,299.0 L698.6,294.8 L693.4,294.8 L693.4,291.4 L692.1,291.4 L692.1,294.8 L687.1,294.8 Z M693.4,299.0 L693.4,296.0 L697.3,296.0 L697.3,299.0 L693.4,299.0 Z"/></g>
  <g transform="translate(1030,250)">
    <rect x="0" y="0" width="206" height="64" rx="8" fill="#15171c" stroke="url(#bronze)" stroke-opacity="0.5"/>
    <g fill="#e05a4a"><path d="M29.2,47.0 Q35.1,47.0 37.6,45.4 Q40.2,43.9 40.2,38.0 Q40.2,33.8 38.9,32.6 Q37.7,31.4 34.4,30.4 L34.4,30.2 Q37.6,28.9 38.4,27.7 Q39.2,26.5 39.2,23.4 Q39.2,17.9 37.2,16.4 Q35.2,15.0 29.0,15.0 Q25.5,15.0 24.0,15.7 Q22.5,16.4 19.8,18.7 L23.3,23.2 Q25.2,21.5 25.9,21.0 Q26.7,20.6 28.7,20.6 Q30.9,20.6 31.5,21.2 Q32.1,21.8 32.1,23.9 Q32.1,26.4 31.3,27.2 Q30.5,28.0 25.4,28.0 L25.4,33.0 Q31.6,33.0 32.3,33.9 Q33.0,34.7 33.0,37.5 Q33.0,40.0 32.1,40.6 Q31.2,41.2 28.4,41.2 Q26.1,41.2 25.1,40.6 Q24.0,39.9 22.2,38.1 L19.0,42.8 Q21.1,45.4 22.8,46.2 Q24.4,47.0 29.2,47.0 Z"/><path d="M54.1,47.0 Q60.3,47.0 62.4,45.3 Q64.5,43.5 64.5,38.8 Q64.5,34.5 63.4,33.2 Q62.3,31.9 59.5,30.3 L59.5,30.1 Q61.5,28.6 62.4,27.4 Q63.3,26.1 63.3,23.1 Q63.3,18.1 61.5,16.6 Q59.7,15.0 54.3,15.0 Q48.9,15.0 46.9,16.5 Q44.9,18.1 44.9,23.2 Q44.9,26.5 45.7,27.8 Q46.5,29.0 48.8,30.8 L48.8,31.0 Q46.0,32.5 45.0,33.7 Q43.9,35.0 43.9,38.9 Q43.9,43.8 46.1,45.4 Q48.3,47.0 54.1,47.0 Z M55.9,28.3 Q53.0,27.0 52.1,26.4 Q51.2,25.7 51.2,23.2 Q51.2,21.0 51.9,20.5 Q52.5,19.9 54.2,19.9 Q56.3,19.9 56.9,20.6 Q57.5,21.4 57.5,23.6 Q57.5,25.2 57.3,26.0 Q57.0,26.8 55.9,28.3 Z M54.3,42.0 Q52.0,42.0 51.0,41.3 Q50.0,40.6 50.0,38.0 Q50.0,36.0 50.4,35.1 Q50.8,34.1 52.0,32.9 Q55.6,34.5 56.8,35.1 Q57.9,35.7 57.9,38.5 Q57.9,41.0 57.1,41.5 Q56.3,42.0 54.3,42.0 Z"/></g>
    <g fill="#9aa3b2"><path d="M85.9,28.0 Q87.9,28.0 88.6,27.4 Q89.2,26.8 89.2,25.3 Q89.2,23.8 88.8,23.5 Q88.3,23.2 87.2,22.7 L85.9,22.1 Q85.1,21.8 84.7,21.6 Q84.3,21.4 84.3,20.5 Q84.3,19.6 84.6,19.3 Q85.0,19.1 86.1,19.1 Q87.0,19.1 87.3,19.2 Q87.6,19.4 88.2,20.0 L88.9,19.2 Q88.2,18.5 87.7,18.2 Q87.2,18.0 86.1,18.0 Q84.3,18.0 83.7,18.5 Q83.1,19.1 83.1,20.5 Q83.1,22.0 83.6,22.3 Q84.1,22.7 85.0,23.0 L86.4,23.6 Q87.3,24.1 87.6,24.2 Q88.0,24.4 88.0,25.4 Q88.0,26.3 87.6,26.6 Q87.2,27.0 86.0,27.0 Q85.0,27.0 84.5,26.7 Q84.0,26.5 83.3,25.8 L82.6,26.6 Q83.4,27.5 84.0,27.7 Q84.6,28.0 85.9,28.0 Z"/><path d="M92.3,28.0 L93.5,28.0 L93.5,24.8 L95.1,22.8 L98.0,28.0 L99.3,28.0 L95.9,21.8 L98.9,18.0 L97.5,18.0 L93.5,23.0 L93.5,23.0 L93.5,18.0 L92.3,18.0 L92.3,28.0 Z"/><path d="M101.3,28.0 L102.5,28.0 L102.5,18.0 L101.3,18.0 L101.3,28.0 Z"/><path d="M106.3,28.0 L111.7,28.0 L111.7,27.0 L107.5,27.0 L107.5,18.0 L106.3,18.0 L106.3,28.0 Z"/><path d="M114.3,28.0 L119.7,28.0 L119.7,27.0 L115.5,27.0 L115.5,18.0 L114.3,18.0 L114.3,28.0 Z"/><path d="M124.9,28.0 Q126.9,28.0 127.6,27.4 Q128.2,26.8 128.2,25.3 Q128.2,23.8 127.8,23.5 Q127.3,23.2 126.2,22.7 L124.9,22.1 Q124.1,21.8 123.7,21.6 Q123.3,21.4 123.3,20.5 Q123.3,19.6 123.6,19.3 Q124.0,19.1 125.1,19.1 Q126.0,19.1 126.3,19.2 Q126.6,19.4 127.2,20.0 L127.9,19.2 Q127.2,18.5 126.7,18.2 Q126.2,18.0 125.1,18.0 Q123.3,18.0 122.7,18.5 Q122.1,19.1 122.1,20.5 Q122.1,22.0 122.6,22.3 Q123.1,22.7 124.0,23.0 L125.4,23.6 Q126.3,24.1 126.6,24.2 Q127.0,24.4 127.0,25.4 Q127.0,26.3 126.6,26.6 Q126.2,27.0 125.0,27.0 Q124.0,27.0 123.5,26.7 Q123.0,26.5 122.3,25.8 L121.6,26.6 Q122.4,27.5 123.0,27.7 Q123.6,28.0 124.9,28.0 Z"/></g>
    <g fill="#9aa3b2"><path d="M84.6,50.0 L85.8,50.0 Q86.0,46.1 86.2,44.9 Q86.4,43.7 88.6,40.7 L88.6,40.0 L82.6,40.0 L82.6,41.0 L87.2,41.0 Q85.4,43.8 85.1,45.0 Q84.7,46.2 84.6,50.0 Z"/><path d="M94.4,40.0 Q94.9,40.6 95.2,41.0 Q95.5,41.4 95.7,42.0 L93.0,42.0 L93.0,42.9 L97.2,42.9 Q96.1,44.0 95.2,44.4 Q94.4,44.8 92.7,45.2 Q92.9,45.4 93.0,45.6 Q93.2,45.8 93.3,46.0 Q95.1,45.5 96.0,45.0 Q96.8,44.5 98.0,43.3 L98.0,45.4 L99.0,45.4 L99.0,43.2 Q100.1,44.5 101.0,45.0 Q101.8,45.5 103.7,45.9 Q103.8,45.6 104.0,45.5 Q104.1,45.3 104.3,45.1 Q102.5,44.7 101.7,44.3 Q100.8,43.9 99.8,42.9 L104.1,42.9 L104.1,42.0 L101.1,42.0 Q101.6,41.4 101.9,41.0 Q102.2,40.6 102.7,39.8 L101.7,39.4 Q101.3,40.1 101.0,40.6 Q100.7,41.1 100.2,41.7 L100.9,42.0 L99.0,42.0 L99.0,39.1 L98.0,39.1 L98.0,42.0 L96.0,42.0 L96.6,41.6 Q96.4,41.0 96.1,40.6 Q95.8,40.1 95.2,39.5 L94.4,40.0 Z M98.0,46.0 Q98.0,46.2 97.9,46.4 Q97.9,46.7 97.8,47.1 L92.9,47.1 L92.9,48.0 L97.5,48.0 Q96.8,49.5 96.2,49.9 Q95.5,50.4 92.6,50.9 Q92.8,51.1 92.9,51.4 Q93.0,51.6 93.1,51.9 Q96.4,51.3 97.1,50.7 Q97.8,50.1 98.5,48.2 Q99.4,50.4 100.3,50.9 Q101.2,51.5 103.9,51.9 Q104.0,51.6 104.2,51.3 Q104.3,51.1 104.5,50.8 Q102.0,50.6 101.1,50.1 Q100.3,49.7 99.4,48.0 L104.2,48.0 L104.2,47.1 L102.1,47.1 L102.6,46.6 Q102.1,46.3 101.6,46.1 Q101.1,45.8 100.4,45.5 L99.8,46.0 Q100.5,46.3 101.0,46.5 Q101.5,46.8 102.0,47.1 L98.8,47.1 Q98.9,47.0 99.0,46.8 Q99.0,46.5 99.0,46.0 L98.0,46.0 Z"/><path d="M111.6,46.0 Q112.0,46.0 112.2,45.8 Q112.5,45.6 112.5,45.1 Q112.5,44.5 112.2,44.4 Q112.0,44.2 111.6,44.2 Q111.1,44.2 110.9,44.4 Q110.7,44.5 110.7,45.1 Q110.7,45.6 110.9,45.8 Q111.1,46.0 111.6,46.0 Z"/><path d="M121.4,50.0 Q123.1,50.0 123.8,49.5 Q124.5,49.0 124.5,47.1 Q124.5,45.7 124.0,45.3 Q123.6,44.8 122.5,44.5 L122.5,44.5 Q123.5,44.1 123.8,43.8 Q124.2,43.4 124.2,42.3 Q124.2,40.9 123.6,40.4 Q123.0,40.0 121.4,40.0 Q120.3,40.0 119.9,40.2 Q119.4,40.5 118.7,41.1 L119.4,41.8 Q119.9,41.3 120.2,41.1 Q120.6,41.0 121.3,41.0 Q122.3,41.0 122.6,41.2 Q123.0,41.5 123.0,42.4 Q123.0,43.4 122.6,43.7 Q122.3,44.1 120.3,44.1 L120.3,45.0 Q122.5,45.0 122.9,45.4 Q123.3,45.8 123.3,47.1 Q123.3,48.3 122.9,48.6 Q122.5,49.0 121.3,49.0 Q120.2,49.0 119.9,48.7 Q119.5,48.5 119.0,47.8 L118.4,48.7 Q119.0,49.4 119.5,49.7 Q119.9,50.0 121.4,50.0 Z"/><path d="M128.9,50.0 Q130.4,50.0 131.0,49.4 Q131.7,48.8 131.7,47.0 Q131.7,45.0 131.1,44.5 Q130.6,44.0 129.0,44.0 Q128.2,44.0 127.8,44.2 Q127.4,44.4 126.8,45.1 Q126.9,42.1 127.4,41.5 Q128.0,41.0 129.3,41.0 Q129.9,41.0 130.2,41.1 Q130.4,41.3 130.8,41.8 L131.5,41.0 Q131.0,40.4 130.6,40.2 Q130.2,40.0 129.2,40.0 Q127.4,40.0 126.6,40.7 Q125.7,41.5 125.7,45.4 Q125.7,48.5 126.4,49.2 Q127.1,50.0 128.9,50.0 Z M126.9,46.1 Q127.5,45.2 127.9,45.1 Q128.2,44.9 128.8,44.9 Q130.0,44.9 130.2,45.3 Q130.5,45.7 130.5,47.0 Q130.5,48.2 130.2,48.7 Q129.8,49.1 128.9,49.1 Q127.7,49.1 127.4,48.5 Q127.0,48.0 126.9,46.1 Z"/><path d="M135.1,48.7 L136.1,48.7 L136.1,45.9 L138.7,45.9 L138.7,45.0 L136.1,45.0 L136.1,42.2 L135.1,42.2 L135.1,45.0 L132.5,45.0 L132.5,45.9 L135.1,45.9 L135.1,48.7 Z"/><path d="M139.6,50.0 L145.6,50.0 L145.6,49.0 L142.9,49.0 Q142.4,49.0 142.1,49.0 Q141.9,49.0 141.4,49.1 Q143.6,46.9 144.4,45.9 Q145.1,44.9 145.1,42.9 Q145.1,41.1 144.6,40.6 Q144.0,40.0 142.3,40.0 Q141.1,40.0 140.7,40.3 Q140.3,40.5 139.5,41.4 L140.2,42.1 Q140.7,41.5 141.1,41.2 Q141.4,41.0 142.2,41.0 Q143.4,41.0 143.6,41.4 Q143.9,41.8 143.9,42.9 Q143.9,44.6 143.2,45.6 Q142.5,46.6 139.6,49.3 L139.6,50.0 Z"/></g>
  </g>
</svg>
