<svg xmlns="http://www.w3.org/2000/svg" viewBox="0 0 470 72" width="470" height="72" role="img" aria-label="信息检索">
  <defs><linearGradient id="cb" x1="0" y1="0" x2="0" y2="1"><stop offset="0" stop-color="#2b313c"/><stop offset="1" stop-color="#1f232b"/></linearGradient></defs>
  <rect x="1" y="1" width="468" height="70" rx="12" fill="url(#cb)" stroke="#b08d57" stroke-opacity="0.4"/>
  <path d="M13 1 H46 V71 H13 a12 12 0 0 1 -12 -12 V13 a12 12 0 0 1 12 -12 Z" fill="#c0392b" opacity="0.94"/>
  <g fill="#f4ede0"><path d="M33.5,46.7 L31.5,49.2 L8.9,49.2 L9.1,50.0 L36.3,50.0 Q36.7,50.0 36.9,49.9 Q37.0,49.9 37.1,49.5 Q35.7,48.3 34.6,47.5 Q33.5,46.7 33.5,46.7 Z M28.0,38.0 L28.0,41.1 L18.0,41.1 L18.0,38.0 L28.0,38.0 Z M18.0,47.0 L18.0,46.0 L28.0,46.0 L28.0,48.0 L28.6,48.0 Q29.9,48.0 30.7,47.5 Q31.5,47.1 31.5,46.8 L31.5,38.5 Q32.0,38.4 32.2,38.3 Q32.4,38.2 32.6,38.0 L29.3,35.4 L27.7,37.1 L18.2,37.1 L14.5,35.6 L14.5,48.2 L15.0,48.2 Q16.5,48.2 17.2,47.8 Q18.0,47.4 18.0,47.0 Z M18.0,45.1 L18.0,42.0 L28.0,42.0 L28.0,45.1 L18.0,45.1 Z M33.3,24.8 L31.5,27.1 L24.7,27.1 L24.7,24.0 Q25.5,23.9 25.6,23.7 Q25.7,23.6 25.8,23.2 L21.2,22.7 L21.2,27.1 L9.3,27.1 L9.6,28.0 L18.8,28.0 Q16.7,31.4 14.9,33.1 Q13.1,34.8 8.9,37.0 L9.1,37.4 Q14.0,35.9 16.1,34.7 Q18.2,33.5 21.2,30.6 L21.2,36.3 L21.8,36.3 Q23.1,36.3 23.9,36.0 Q24.7,35.7 24.7,35.4 L24.7,28.0 L25.0,28.0 Q27.0,32.2 28.7,33.7 Q30.5,35.2 34.4,37.3 Q34.8,35.5 35.3,35.0 Q35.7,34.4 37.1,34.1 L37.1,33.8 Q33.2,32.8 30.8,31.9 Q28.4,30.9 25.8,28.0 L35.9,28.0 Q36.4,28.0 36.5,27.9 Q36.7,27.9 36.8,27.5 Q35.5,26.4 34.4,25.6 Q33.3,24.8 33.3,24.8 Z"/></g>
  <g fill="#f4ede0"><path d="M80.7,14.8 L80.7,17.0 L89.9,17.0 L89.9,14.8 L80.7,14.8 Z M80.3,21.0 L80.3,23.2 L90.2,23.2 L90.2,21.0 L80.3,21.0 Z M80.3,24.0 L80.3,26.2 L90.1,26.2 L90.1,24.0 L80.3,24.0 Z M78.8,18.0 L78.8,20.3 L91.6,20.3 L91.6,18.0 L78.8,18.0 Z M79.9,27.0 L79.9,34.0 L82.7,34.0 L82.7,33.3 L87.6,33.3 L87.6,33.9 L90.6,33.9 L90.6,27.0 L79.9,27.0 Z M82.7,31.0 L82.7,29.2 L87.6,29.2 L87.6,31.0 L82.7,31.0 Z M76.8,14.1 Q75.8,16.9 74.9,18.4 Q74.0,20.0 72.2,21.7 Q72.6,22.5 73.0,23.3 Q73.4,24.1 73.6,24.8 Q74.1,24.4 74.3,24.1 Q74.5,23.9 75.0,23.2 L75.0,33.9 L77.8,33.9 L77.8,19.0 Q78.4,17.7 78.7,17.0 Q79.0,16.2 79.5,15.0 L76.8,14.1 Z"/><path d="M106.0,28.5 Q107.3,30.1 108.0,31.1 Q108.7,32.1 109.2,33.4 L111.7,31.8 Q111.2,30.3 110.4,29.3 Q109.7,28.3 108.3,26.8 L106.0,28.5 Z M94.5,27.2 Q94.0,28.9 93.7,29.7 Q93.3,30.6 92.3,31.6 L94.7,33.3 Q95.9,32.1 96.2,31.2 Q96.6,30.2 97.0,28.5 L94.5,27.2 Z M98.4,20.6 L105.8,20.6 L105.8,21.4 L98.4,21.4 L98.4,20.6 Z M98.4,23.4 L105.8,23.4 L105.8,24.0 L98.4,24.0 L98.4,23.4 Z M98.4,18.0 L105.8,18.0 L105.8,18.6 L98.4,18.6 L98.4,18.0 Z M100.5,13.8 Q100.4,14.4 100.3,14.8 Q100.3,15.1 100.1,15.8 L95.5,15.8 L95.5,26.2 L101.4,26.2 L99.9,27.5 L100.2,27.8 L97.5,27.8 L97.5,30.8 Q97.5,33.2 97.9,33.6 Q98.2,34.0 101.1,34.0 Q101.7,34.0 102.6,34.0 Q103.4,34.0 104.0,34.0 Q106.1,34.0 106.5,33.7 Q106.9,33.4 107.2,30.8 Q106.5,30.6 105.9,30.4 Q105.2,30.2 104.7,29.7 Q104.6,31.2 104.5,31.3 Q104.4,31.5 103.7,31.5 Q103.2,31.5 102.6,31.5 Q101.9,31.5 101.5,31.5 Q100.6,31.5 100.5,31.4 Q100.4,31.4 100.4,30.7 L100.4,28.0 Q101.2,28.9 101.6,29.4 Q102.0,30.0 102.4,30.8 L104.7,29.0 Q104.2,28.2 103.8,27.7 Q103.3,27.1 102.5,26.2 L108.7,26.2 L108.7,15.8 L103.4,15.8 Q103.6,15.4 103.7,15.1 Q103.8,14.9 104.0,14.3 L100.5,13.8 Z"/><path d="M119.8,24.8 Q120.2,26.4 120.4,27.4 Q120.6,28.4 120.8,29.8 L123.1,29.1 Q122.9,27.8 122.7,26.8 Q122.5,25.8 122.0,24.2 L119.8,24.8 Z M124.0,13.8 Q122.8,16.1 121.8,17.3 Q120.8,18.4 118.8,19.9 L118.8,18.0 L117.5,18.0 L117.5,14.1 L114.9,14.1 L114.9,18.0 L112.6,18.0 L112.6,20.7 L114.7,20.7 Q114.2,22.8 113.8,24.1 Q113.4,25.3 112.5,26.8 Q112.9,27.6 113.2,28.3 Q113.5,29.0 113.7,29.9 Q114.1,29.2 114.3,28.7 Q114.5,28.3 114.9,27.2 L114.9,34.0 L117.5,34.0 L117.5,25.0 Q117.7,25.7 117.9,26.0 Q118.0,26.2 118.1,26.7 L119.8,24.7 Q119.5,24.1 118.7,23.1 Q118.0,22.0 117.5,21.3 L117.5,20.7 L117.9,20.7 Q118.4,20.9 118.7,21.5 Q119.1,22.1 119.4,22.6 Q120.0,22.2 120.3,21.9 Q120.7,21.6 121.3,21.0 L121.3,23.0 L128.6,23.0 L128.6,21.0 Q129.2,21.5 129.5,21.7 Q129.9,21.9 130.5,22.3 Q130.7,21.5 131.0,20.8 Q131.3,20.1 131.8,19.4 Q129.8,18.5 128.7,17.7 Q127.6,16.9 126.1,15.4 L126.5,14.7 L124.0,13.8 Z M124.6,17.5 Q125.5,18.7 126.0,19.2 Q126.5,19.7 127.6,20.6 L122.2,20.6 Q123.0,19.4 123.4,19.0 Q123.9,18.5 124.6,17.5 Z M118.9,30.5 L118.9,33.0 L130.8,33.0 L130.8,30.5 L128.2,30.5 Q129.0,28.8 129.5,27.6 Q130.0,26.5 130.8,24.4 L128.3,23.8 Q127.9,25.3 127.6,26.2 Q127.3,27.1 126.6,28.6 Q126.5,27.3 126.3,26.4 Q126.2,25.4 125.8,23.9 L123.6,24.2 Q123.9,25.7 124.0,26.7 Q124.2,27.7 124.3,29.0 L126.6,28.7 Q126.3,29.3 126.2,29.6 Q126.1,30.0 125.8,30.5 L118.9,30.5 Z"/><path d="M144.1,30.6 Q145.6,31.6 146.7,32.2 Q147.8,32.9 148.7,33.8 L151.1,32.2 Q150.0,31.3 148.9,30.6 Q147.8,30.0 146.3,29.2 L144.1,30.6 Z M133.2,19.0 L133.2,23.4 L135.8,23.4 L135.1,24.2 Q136.1,24.8 136.7,25.3 Q137.3,25.7 138.2,26.6 L137.6,27.0 L133.2,27.0 L133.3,29.6 L136.8,29.5 Q135.8,30.4 135.0,30.9 Q134.2,31.3 132.6,31.8 Q133.2,32.3 133.8,32.8 Q134.3,33.3 134.8,33.9 Q136.5,33.0 137.5,32.2 Q138.5,31.5 139.8,30.0 L137.5,29.1 L140.5,29.0 L140.5,33.9 L143.4,33.9 L143.4,29.1 L148.2,28.9 Q148.6,29.2 148.7,29.4 Q148.9,29.5 149.1,29.8 L151.1,28.1 Q150.1,27.1 149.1,26.3 Q148.0,25.5 146.6,24.4 L144.7,26.0 L145.6,26.8 L142.0,26.8 Q143.7,25.7 144.6,25.1 Q145.5,24.5 147.0,23.3 L144.4,21.8 Q143.4,22.7 142.7,23.3 Q142.0,23.8 140.6,24.8 L139.8,24.2 Q140.7,23.5 141.2,23.1 Q141.7,22.6 142.7,21.7 L142.0,21.4 L148.0,21.4 L148.0,23.6 L150.8,23.6 L150.8,19.0 L143.3,19.0 L143.3,18.0 L150.5,18.0 L150.5,15.5 L143.3,15.5 L143.3,14.0 L140.5,14.0 L140.5,15.5 L133.4,15.5 L133.4,18.0 L140.5,18.0 L140.5,19.0 L133.2,19.0 Z M137.7,23.0 L137.0,22.5 L135.9,23.6 L135.9,21.4 L139.2,21.4 Q138.7,21.9 138.5,22.2 Q138.2,22.5 137.7,23.0 Z"/></g>
  <g fill="#9aa3b2"><path d="M73.2,54.0 L74.3,54.0 L74.3,45.0 L73.2,45.0 L73.2,54.0 Z"/><path d="M78.2,54.0 L79.2,54.0 L79.2,49.3 Q79.2,48.3 79.2,47.8 Q79.2,47.3 79.1,46.4 L79.2,46.4 L80.1,48.3 L83.3,54.0 L84.5,54.0 L84.5,45.0 L83.4,45.0 L83.4,49.7 Q83.4,50.6 83.4,51.2 Q83.5,51.7 83.5,52.6 L83.5,52.6 L82.5,50.7 L79.3,45.0 L78.2,45.0 L78.2,54.0 Z"/><path d="M88.2,54.0 L89.3,54.0 L89.3,49.9 L92.7,49.9 L92.7,49.0 L89.3,49.0 L89.3,45.9 L93.3,45.9 L93.3,45.0 L88.2,45.0 L88.2,54.0 Z"/><path d="M99.4,54.0 Q101.7,54.0 102.4,53.1 Q103.2,52.2 103.2,49.5 Q103.2,46.7 102.4,45.9 Q101.7,45.0 99.4,45.0 Q97.2,45.0 96.5,45.9 Q95.7,46.7 95.7,49.5 Q95.7,52.2 96.5,53.1 Q97.2,54.0 99.4,54.0 Z M99.4,53.0 Q97.9,53.0 97.3,52.3 Q96.8,51.6 96.8,49.5 Q96.8,47.3 97.3,46.6 Q97.9,46.0 99.4,46.0 Q101.0,46.0 101.5,46.6 Q102.1,47.3 102.1,49.5 Q102.1,51.6 101.5,52.3 Q101.0,53.0 99.4,53.0 Z"/><path d="M107.3,49.1 L107.3,45.9 L108.8,45.9 Q110.2,45.9 110.5,46.1 Q110.9,46.3 110.9,47.4 Q110.9,48.6 110.5,48.8 Q110.2,49.1 108.8,49.1 L107.3,49.1 Z M111.0,54.0 L112.3,54.0 L110.0,49.9 Q111.2,49.6 111.6,49.2 Q112.0,48.8 112.0,47.4 Q112.0,45.6 111.4,45.3 Q110.7,45.0 109.0,45.0 L106.2,45.0 L106.2,54.0 L107.3,54.0 L107.3,50.0 L108.9,50.0 L111.0,54.0 Z"/><path d="M115.2,54.0 L116.2,54.0 L116.2,49.0 Q116.2,48.2 116.2,47.7 Q116.1,47.1 116.1,46.3 L116.1,46.3 L116.8,48.4 L118.5,53.0 L119.2,53.0 L120.9,48.4 L121.6,46.3 L121.6,46.3 Q121.6,47.1 121.5,47.7 Q121.5,48.2 121.5,49.0 L121.5,54.0 L122.5,54.0 L122.5,45.0 L121.2,45.0 L119.5,49.8 Q119.3,50.4 119.2,50.7 Q119.1,51.0 118.9,51.6 L118.8,51.6 Q118.6,51.0 118.5,50.7 Q118.4,50.4 118.2,49.8 L116.5,45.0 L115.2,45.0 L115.2,54.0 Z"/><path d="M125.0,54.0 L126.2,54.0 L127.0,51.0 L130.2,51.0 L131.1,54.0 L132.2,54.0 L129.2,45.0 L128.0,45.0 L125.0,54.0 Z M127.3,50.1 L127.7,48.8 Q128.0,47.8 128.2,47.4 Q128.3,46.9 128.6,45.9 L128.6,45.9 Q128.9,46.9 129.1,47.4 Q129.2,47.8 129.5,48.8 L130.0,50.1 L127.3,50.1 Z"/><path d="M136.0,54.0 L137.1,54.0 L137.1,45.9 L139.8,45.9 L139.8,45.0 L133.4,45.0 L133.4,45.9 L136.0,45.9 L136.0,54.0 Z"/><path d="M142.2,54.0 L143.3,54.0 L143.3,45.0 L142.2,45.0 L142.2,54.0 Z"/><path d="M150.4,54.0 Q152.7,54.0 153.4,53.1 Q154.2,52.2 154.2,49.5 Q154.2,46.7 153.4,45.9 Q152.7,45.0 150.4,45.0 Q148.2,45.0 147.5,45.9 Q146.7,46.7 146.7,49.5 Q146.7,52.2 147.5,53.1 Q148.2,54.0 150.4,54.0 Z M150.4,53.0 Q148.9,53.0 148.3,52.3 Q147.8,51.6 147.8,49.5 Q147.8,47.3 148.3,46.6 Q148.9,46.0 150.4,46.0 Q152.0,46.0 152.5,46.6 Q153.1,47.3 153.1,49.5 Q153.1,51.6 152.5,52.3 Q152.0,53.0 150.4,53.0 Z"/><path d="M157.2,54.0 L158.2,54.0 L158.2,49.3 Q158.2,48.3 158.2,47.8 Q158.2,47.3 158.1,46.4 L158.2,46.4 L159.1,48.3 L162.3,54.0 L163.5,54.0 L163.5,45.0 L162.4,45.0 L162.4,49.7 Q162.4,50.6 162.4,51.2 Q162.5,51.7 162.5,52.6 L162.5,52.6 L161.5,50.7 L158.3,45.0 L157.2,45.0 L157.2,54.0 Z"/><path d="M172.3,49.1 L172.3,45.9 L173.8,45.9 Q175.2,45.9 175.5,46.1 Q175.9,46.3 175.9,47.4 Q175.9,48.6 175.5,48.8 Q175.2,49.1 173.8,49.1 L172.3,49.1 Z M176.0,54.0 L177.3,54.0 L175.0,49.9 Q176.2,49.6 176.6,49.2 Q177.0,48.8 177.0,47.4 Q177.0,45.6 176.4,45.3 Q175.7,45.0 174.0,45.0 L171.2,45.0 L171.2,54.0 L172.3,54.0 L172.3,50.0 L173.9,50.0 L176.0,54.0 Z"/><path d="M180.2,54.0 L185.4,54.0 L185.4,53.1 L181.3,53.1 L181.3,50.0 L184.6,50.0 L184.6,49.0 L181.3,49.0 L181.3,45.9 L185.3,45.9 L185.3,45.0 L180.2,45.0 L180.2,54.0 Z"/><path d="M190.0,54.0 L191.1,54.0 L191.1,45.9 L193.8,45.9 L193.8,45.0 L187.4,45.0 L187.4,45.9 L190.0,45.9 L190.0,54.0 Z"/><path d="M197.3,49.1 L197.3,45.9 L198.8,45.9 Q200.2,45.9 200.5,46.1 Q200.9,46.3 200.9,47.4 Q200.9,48.6 200.5,48.8 Q200.2,49.1 198.8,49.1 L197.3,49.1 Z M201.0,54.0 L202.3,54.0 L200.0,49.9 Q201.2,49.6 201.6,49.2 Q202.0,48.8 202.0,47.4 Q202.0,45.6 201.4,45.3 Q200.7,45.0 199.0,45.0 L196.2,45.0 L196.2,54.0 L197.3,54.0 L197.3,50.0 L198.9,50.0 L201.0,54.0 Z"/><path d="M205.2,54.0 L206.3,54.0 L206.3,45.0 L205.2,45.0 L205.2,54.0 Z"/><path d="M210.2,54.0 L215.4,54.0 L215.4,53.1 L211.3,53.1 L211.3,50.0 L214.6,50.0 L214.6,49.0 L211.3,49.0 L211.3,45.9 L215.3,45.9 L215.3,45.0 L210.2,45.0 L210.2,54.0 Z"/><path d="M219.8,54.0 L221.1,54.0 L223.9,45.0 L222.8,45.0 L221.3,49.9 Q221.0,51.0 220.9,51.4 Q220.8,51.8 220.5,52.9 L220.5,52.9 Q220.1,51.8 220.0,51.4 Q219.9,51.0 219.6,49.9 L218.2,45.0 L217.0,45.0 L219.8,54.0 Z"/><path d="M225.0,54.0 L226.2,54.0 L227.0,51.0 L230.2,51.0 L231.1,54.0 L232.2,54.0 L229.2,45.0 L228.0,45.0 L225.0,54.0 Z M227.3,50.1 L227.7,48.8 Q228.0,47.8 228.2,47.4 Q228.3,46.9 228.6,45.9 L228.6,45.9 Q228.9,46.9 229.1,47.4 Q229.2,47.8 229.5,48.8 L230.0,50.1 L227.3,50.1 Z"/><path d="M234.2,54.0 L239.2,54.0 L239.2,53.1 L235.3,53.1 L235.3,45.0 L234.2,45.0 L234.2,54.0 Z"/></g>
  <g transform="translate(410,21)">
    <rect x="0" y="0" width="44" height="30" rx="8" fill="#15171c" stroke="#b08d57" stroke-opacity="0.4"/>
    <g fill="#d8b988"><path d="M21.5,21.0 Q23.8,21.0 24.9,20.2 Q25.9,19.5 25.9,16.8 Q25.9,14.2 25.0,13.6 Q24.2,13.0 22.1,13.0 Q21.7,13.0 21.5,13.1 Q21.3,13.1 20.9,13.3 L21.1,11.4 L25.3,11.4 L25.3,9.0 L18.6,9.0 L18.3,14.8 L19.6,15.6 Q20.3,15.1 20.5,15.1 Q20.6,15.0 21.3,15.0 Q22.3,15.0 22.7,15.3 Q23.0,15.7 23.0,16.8 Q23.0,18.1 22.7,18.4 Q22.3,18.7 21.1,18.7 Q20.2,18.7 19.8,18.5 Q19.4,18.2 18.7,17.6 L17.4,19.4 Q18.3,20.3 19.0,20.6 Q19.7,21.0 21.5,21.0 Z"/></g>
  </g>
</svg>
