<svg xmlns="http://www.w3.org/2000/svg" viewBox="0 0 470 72" width="470" height="72" role="img" aria-label="文书与事务管理">
  <defs><linearGradient id="cb" x1="0" y1="0" x2="0" y2="1"><stop offset="0" stop-color="#2b313c"/><stop offset="1" stop-color="#1f232b"/></linearGradient></defs>
  <rect x="1" y="1" width="468" height="70" rx="12" fill="url(#cb)" stroke="#b08d57" stroke-opacity="0.4"/>
  <path d="M13 1 H46 V71 H13 a12 12 0 0 1 -12 -12 V13 a12 12 0 0 1 12 -12 Z" fill="#c0392b" opacity="0.94"/>
  <g fill="#f4ede0"><path d="M28.2,23.8 L28.0,24.0 Q29.8,25.3 31.0,26.4 Q32.1,27.5 33.1,29.4 Q37.0,31.2 37.8,27.6 Q38.5,24.0 28.2,23.8 Z M24.3,23.2 L19.5,22.7 L19.5,29.2 L11.7,29.2 L12.0,30.0 L19.5,30.0 L19.5,37.1 L9.5,37.1 L9.8,38.0 L19.5,38.0 L19.5,51.6 L20.3,51.6 Q21.6,51.6 22.5,51.1 Q23.3,50.7 23.3,50.3 L23.3,38.0 L31.9,38.0 Q31.8,42.5 31.6,43.8 Q31.4,45.2 30.8,45.8 Q30.6,45.9 30.5,46.0 Q30.4,46.0 29.9,46.0 Q29.3,46.0 28.3,45.9 Q27.2,45.9 26.0,45.8 L26.0,46.2 Q27.2,46.4 27.8,46.6 Q28.4,46.8 28.9,47.4 Q29.4,47.9 29.5,48.3 Q29.5,48.8 29.5,49.8 Q31.3,49.8 31.9,49.6 Q32.5,49.5 33.4,48.8 Q34.8,47.7 35.1,46.2 Q35.3,44.8 35.6,38.6 Q36.2,38.6 36.4,38.4 Q36.5,38.3 36.8,38.1 L33.5,35.2 L31.6,37.1 L30.9,37.1 L31.4,30.5 Q32.0,30.4 32.1,30.4 Q32.2,30.3 32.4,30.0 L29.1,27.6 L27.7,29.2 L23.3,29.2 L23.3,24.0 Q24.0,23.9 24.1,23.8 Q24.2,23.6 24.3,23.2 Z M23.3,37.1 L23.3,30.0 L27.9,30.0 L27.4,37.1 L23.3,37.1 Z"/></g>
  <g fill="#f4ede0"><path d="M80.5,14.0 L80.5,17.2 L72.8,17.2 L72.8,20.0 L75.6,20.0 Q76.7,23.0 77.3,24.2 Q78.0,25.5 79.6,27.6 Q77.7,29.2 76.4,29.7 Q75.2,30.3 72.4,31.0 Q73.0,31.8 73.4,32.5 Q73.9,33.3 74.2,34.1 Q77.2,33.1 78.4,32.4 Q79.7,31.8 81.9,30.0 Q83.9,31.8 85.2,32.5 Q86.5,33.1 89.6,34.0 Q90.1,33.1 90.5,32.4 Q91.0,31.6 91.7,30.9 Q88.8,30.2 87.5,29.6 Q86.3,29.1 84.3,27.5 Q86.1,25.4 86.8,24.2 Q87.4,23.0 88.5,20.0 L91.3,20.0 L91.3,17.2 L83.5,17.2 L83.5,14.0 L80.5,14.0 Z M82.0,25.3 Q80.7,23.8 80.2,22.9 Q79.7,22.0 78.9,20.0 L85.0,20.0 Q84.3,22.1 83.8,23.0 Q83.3,23.8 82.0,25.3 Z"/><path d="M94.0,17.2 L94.0,20.0 L99.3,20.0 L99.3,23.3 L93.1,23.3 L93.1,26.0 L99.3,26.0 L99.3,33.8 L102.3,33.8 L102.3,26.0 L108.2,26.0 Q108.0,27.9 107.9,28.4 Q107.7,28.8 107.4,29.1 Q107.1,29.3 107.0,29.3 Q106.9,29.3 106.5,29.3 Q105.9,29.3 105.2,29.3 Q104.6,29.3 103.4,29.2 Q104.0,30.0 104.2,30.6 Q104.4,31.2 104.4,32.0 Q105.7,32.0 106.3,32.0 Q106.9,32.0 107.7,32.0 Q108.6,31.9 108.9,31.8 Q109.3,31.7 109.9,31.0 Q110.6,30.2 110.8,29.3 Q111.0,28.4 111.2,24.4 Q111.3,24.0 111.3,23.7 Q111.3,23.3 111.3,23.3 L108.4,23.3 L108.4,18.1 Q108.9,18.5 109.1,18.6 Q109.3,18.8 109.6,19.0 L111.4,16.8 Q110.4,16.1 109.4,15.5 Q108.4,14.9 107.0,14.2 L105.4,16.1 L107.1,17.2 L102.3,17.2 L102.3,14.1 L99.3,14.1 L99.3,17.2 L94.0,17.2 Z M102.3,23.3 L102.3,20.0 L105.5,20.0 L105.5,23.3 L102.3,23.3 Z"/><path d="M117.2,14.0 Q116.7,17.1 116.3,19.5 Q116.0,21.9 115.3,24.6 L118.4,24.9 L118.5,24.0 L124.7,24.0 L124.6,26.0 L112.9,26.0 L112.9,28.8 L124.2,28.8 Q124.0,29.8 123.8,30.2 Q123.7,30.5 123.4,30.7 Q123.1,31.0 123.0,31.0 Q122.9,31.0 122.5,31.0 Q121.9,31.0 121.2,31.0 Q120.6,31.0 119.3,30.9 Q119.9,31.7 120.1,32.3 Q120.3,33.0 120.4,33.8 Q121.6,33.9 122.2,33.9 Q122.9,33.9 123.7,33.8 Q124.6,33.6 125.0,33.5 Q125.3,33.4 126.0,32.6 Q126.5,32.0 126.7,31.5 Q126.9,30.9 127.2,28.8 L131.2,28.8 L131.2,26.0 L127.5,26.0 L127.8,22.6 Q127.8,22.2 127.8,21.8 Q127.9,21.3 127.9,21.3 L119.1,21.3 L119.4,19.0 L128.9,19.0 L128.9,16.2 L119.9,16.2 L120.2,14.2 L117.2,14.0 Z"/><path d="M134.6,29.0 L134.6,31.0 L140.4,31.0 L140.4,31.3 Q140.4,31.7 140.4,31.7 Q140.3,31.8 139.9,31.8 Q139.6,31.8 139.0,31.8 Q138.4,31.8 137.6,31.8 Q138.0,32.3 138.2,32.8 Q138.4,33.3 138.5,34.0 Q140.3,34.0 140.8,34.0 Q141.4,34.0 142.2,33.6 Q143.1,33.2 143.2,32.9 Q143.4,32.6 143.4,31.3 L143.4,31.0 L146.3,31.0 L146.3,31.9 L149.3,31.9 L149.3,28.2 L151.4,28.2 L151.4,26.0 L149.3,26.0 L149.3,23.4 L143.4,23.4 L143.4,22.8 L148.9,22.8 L148.9,18.2 L143.4,18.2 L143.4,17.3 L150.9,17.3 L150.9,15.0 L143.4,15.0 L143.4,14.0 L140.4,14.0 L140.4,15.0 L133.1,15.0 L133.1,17.3 L140.4,17.3 L140.4,18.2 L135.2,18.2 L135.2,22.8 L140.4,22.8 L140.4,23.4 L134.7,23.4 L134.7,25.3 L140.4,25.3 L140.4,26.0 L132.6,26.0 L132.6,28.2 L140.4,28.2 L140.4,29.0 L134.6,29.0 Z M137.9,20.0 L140.4,20.0 L140.4,21.0 L137.9,21.0 L137.9,20.0 Z M143.4,20.0 L145.9,20.0 L145.9,21.0 L143.4,21.0 L143.4,20.0 Z M143.4,25.3 L146.3,25.3 L146.3,26.0 L143.4,26.0 L143.4,25.3 Z M143.4,28.2 L146.3,28.2 L146.3,29.0 L143.4,29.0 L143.4,28.2 Z"/><path d="M160.0,24.1 Q160.0,24.6 159.9,24.9 Q159.9,25.1 159.7,25.5 L154.2,25.5 L154.2,28.0 L158.5,28.0 Q157.4,29.6 156.4,30.1 Q155.5,30.6 153.0,31.2 Q153.5,31.8 153.9,32.4 Q154.4,33.0 154.7,33.7 Q158.1,32.6 159.3,31.8 Q160.4,30.9 161.8,28.0 L166.8,28.0 Q166.5,29.6 166.3,30.0 Q166.2,30.5 165.8,30.8 Q165.5,31.0 165.3,31.0 Q165.2,31.0 164.8,31.0 Q164.1,31.0 163.3,31.0 Q162.6,31.0 161.2,30.9 Q161.7,31.5 161.9,32.1 Q162.1,32.6 162.1,33.3 Q163.5,33.4 164.2,33.4 Q164.9,33.4 165.7,33.3 Q166.7,33.3 167.1,33.2 Q167.4,33.1 168.1,32.5 Q168.9,31.8 169.2,31.0 Q169.4,30.1 169.9,26.7 Q169.9,26.3 170.0,25.9 Q170.0,25.5 170.0,25.5 L162.8,25.5 Q162.9,25.2 162.9,25.0 Q163.0,24.8 163.0,24.3 L160.0,24.1 Z M165.5,18.4 Q164.5,19.2 163.9,19.5 Q163.2,19.8 161.9,20.4 Q160.6,19.9 160.1,19.5 Q159.6,19.2 158.8,18.4 L158.9,18.4 L165.5,18.4 Z M159.0,14.0 Q158.0,15.8 157.0,16.7 Q156.1,17.5 153.3,18.7 Q153.8,19.3 154.2,19.9 Q154.6,20.5 154.9,21.2 Q155.7,20.8 156.0,20.6 Q156.3,20.4 156.9,20.0 Q157.4,20.5 157.7,20.7 Q158.0,21.0 158.5,21.4 Q156.7,21.8 155.7,22.0 Q154.8,22.1 152.8,22.2 Q153.2,22.9 153.5,23.5 Q153.7,24.0 153.9,24.8 Q156.7,24.5 158.1,24.2 Q159.5,23.9 161.9,23.1 Q164.2,23.9 165.6,24.1 Q166.9,24.3 170.0,24.5 Q170.3,23.8 170.6,23.2 Q171.0,22.6 171.6,22.0 Q169.5,21.9 168.5,21.8 Q167.5,21.8 165.7,21.4 Q167.7,20.2 168.5,19.5 Q169.3,18.8 170.5,17.0 L168.7,15.9 L168.2,16.0 L161.1,16.0 Q161.4,15.6 161.5,15.4 Q161.6,15.1 161.9,14.7 L159.0,14.0 Z"/><path d="M176.5,23.0 L176.5,34.3 L179.2,34.3 L179.2,34.0 L186.4,34.0 L186.4,34.3 L189.3,34.3 L189.3,28.9 L179.2,28.9 L179.2,28.0 L187.6,28.0 L187.6,23.0 L176.5,23.0 Z M186.4,31.9 L179.2,31.9 L179.2,31.0 L186.4,31.0 L186.4,31.9 Z M183.7,13.9 Q183.3,15.2 182.9,15.8 Q182.5,16.4 181.7,17.2 L181.7,15.8 L177.7,15.8 L178.1,14.8 L175.4,13.9 Q174.8,15.7 174.2,16.5 Q173.6,17.3 172.4,18.2 Q173.0,18.5 173.6,18.9 Q174.2,19.2 174.8,19.7 Q175.2,19.2 175.5,18.9 Q175.8,18.6 176.3,18.0 L176.3,18.0 Q176.7,18.5 176.9,18.9 Q177.1,19.3 177.2,19.8 L179.8,19.0 Q179.7,18.7 179.6,18.5 Q179.5,18.3 179.2,18.0 L180.8,18.0 Q181.2,18.1 181.5,18.2 Q181.8,18.4 182.3,18.6 L180.5,18.6 L180.5,19.9 L173.2,19.9 L173.2,24.0 L176.0,24.0 L176.0,22.0 L188.1,22.0 L188.1,24.0 L190.9,24.0 L190.9,19.9 L183.3,19.9 L183.3,19.2 Q183.8,18.8 184.0,18.6 Q184.2,18.4 184.6,18.0 L185.5,18.0 Q186.0,18.5 186.2,18.9 Q186.4,19.3 186.6,19.8 L189.3,19.0 Q189.2,18.7 189.0,18.5 Q188.9,18.4 188.6,18.0 L191.3,18.0 L191.3,15.8 L186.1,15.8 L186.5,14.7 L183.7,13.9 Z M179.2,25.0 L184.7,25.0 L184.7,26.0 L179.2,26.0 L179.2,25.0 Z"/><path d="M202.7,21.0 L204.2,21.0 L204.2,22.6 L202.7,22.6 L202.7,21.0 Z M206.6,21.0 L208.0,21.0 L208.0,22.6 L206.6,22.6 L206.6,21.0 Z M202.7,17.5 L204.2,17.5 L204.2,18.8 L202.7,18.8 L202.7,17.5 Z M206.6,17.5 L208.0,17.5 L208.0,18.8 L206.6,18.8 L206.6,17.5 Z M198.7,30.4 L198.7,33.0 L211.6,33.0 L211.6,30.4 L206.9,30.4 L206.9,29.0 L210.9,29.0 L210.9,26.4 L206.9,26.4 L206.9,25.0 L210.7,25.0 L210.7,15.0 L200.1,15.0 L200.1,25.0 L203.9,25.0 L203.9,26.4 L200.0,26.4 L200.0,29.0 L203.9,29.0 L203.9,30.4 L198.7,30.4 Z M192.4,29.0 L193.0,31.9 Q195.0,31.3 196.2,30.9 Q197.5,30.5 199.7,29.7 L199.2,27.0 L197.4,27.6 L197.4,24.0 L199.1,24.0 L199.1,21.3 L197.4,21.3 L197.4,18.0 L199.5,18.0 L199.5,15.3 L192.6,15.3 L192.6,18.0 L194.7,18.0 L194.7,21.3 L192.8,21.3 L192.8,24.0 L194.7,24.0 L194.7,28.5 Q193.8,28.6 193.4,28.8 Q193.0,28.9 192.4,29.0 Z"/></g>
  <g fill="#9aa3b2"><path d="M73.2,54.0 L75.5,54.0 Q78.1,54.0 78.8,53.2 Q79.5,52.3 79.5,49.5 Q79.5,46.6 78.8,45.8 Q78.1,45.0 75.4,45.0 L73.2,45.0 L73.2,54.0 Z M74.3,53.1 L74.3,45.9 L75.3,45.9 Q77.4,45.9 77.9,46.5 Q78.4,47.2 78.4,49.5 Q78.4,51.8 77.9,52.4 Q77.4,53.1 75.3,53.1 L74.3,53.1 Z"/><path d="M85.4,54.0 Q87.7,54.0 88.4,53.1 Q89.2,52.2 89.2,49.5 Q89.2,46.7 88.4,45.9 Q87.7,45.0 85.4,45.0 Q83.2,45.0 82.5,45.9 Q81.7,46.7 81.7,49.5 Q81.7,52.2 82.5,53.1 Q83.2,54.0 85.4,54.0 Z M85.4,53.0 Q83.9,53.0 83.3,52.3 Q82.8,51.6 82.8,49.5 Q82.8,47.3 83.3,46.6 Q83.9,46.0 85.4,46.0 Q87.0,46.0 87.5,46.6 Q88.1,47.3 88.1,49.5 Q88.1,51.6 87.5,52.3 Q87.0,53.0 85.4,53.0 Z"/><path d="M95.5,54.0 Q96.7,54.0 97.1,53.8 Q97.5,53.5 98.2,52.8 L97.6,52.1 Q97.0,52.7 96.7,52.9 Q96.4,53.0 95.6,53.0 Q93.9,53.0 93.4,52.4 Q92.8,51.7 92.8,49.5 Q92.8,47.3 93.4,46.6 Q93.9,46.0 95.6,46.0 Q96.4,46.0 96.6,46.1 Q96.9,46.3 97.4,46.8 L98.0,46.1 Q97.5,45.5 97.1,45.3 Q96.7,45.0 95.6,45.0 Q93.4,45.0 92.5,45.9 Q91.7,46.7 91.7,49.5 Q91.7,52.3 92.5,53.2 Q93.3,54.0 95.5,54.0 Z"/><path d="M104.3,54.0 Q106.1,54.0 106.8,53.5 Q107.5,53.0 107.5,50.2 L107.5,45.0 L106.4,45.0 L106.4,50.2 Q106.4,52.4 105.9,52.7 Q105.5,53.0 104.3,53.0 Q103.2,53.0 102.7,52.7 Q102.3,52.4 102.3,50.2 L102.3,45.0 L101.2,45.0 L101.2,50.2 Q101.2,53.0 101.8,53.5 Q102.5,54.0 104.3,54.0 Z"/><path d="M111.2,54.0 L112.2,54.0 L112.2,49.0 Q112.2,48.2 112.2,47.7 Q112.1,47.1 112.1,46.3 L112.1,46.3 L112.8,48.4 L114.5,53.0 L115.2,53.0 L116.9,48.4 L117.6,46.3 L117.6,46.3 Q117.6,47.1 117.5,47.7 Q117.5,48.2 117.5,49.0 L117.5,54.0 L118.5,54.0 L118.5,45.0 L117.2,45.0 L115.5,49.8 Q115.3,50.4 115.2,50.7 Q115.1,51.0 114.9,51.6 L114.8,51.6 Q114.6,51.0 114.5,50.7 Q114.4,50.4 114.2,49.8 L112.5,45.0 L111.2,45.0 L111.2,54.0 Z"/><path d="M122.2,54.0 L127.4,54.0 L127.4,53.1 L123.3,53.1 L123.3,50.0 L126.6,50.0 L126.6,49.0 L123.3,49.0 L123.3,45.9 L127.3,45.9 L127.3,45.0 L122.2,45.0 L122.2,54.0 Z"/><path d="M130.2,54.0 L131.2,54.0 L131.2,49.3 Q131.2,48.3 131.2,47.8 Q131.2,47.3 131.1,46.4 L131.2,46.4 L132.1,48.3 L135.3,54.0 L136.5,54.0 L136.5,45.0 L135.4,45.0 L135.4,49.7 Q135.4,50.6 135.4,51.2 Q135.5,51.7 135.5,52.6 L135.5,52.6 L134.5,50.7 L131.3,45.0 L130.2,45.0 L130.2,54.0 Z"/><path d="M142.0,54.0 L143.1,54.0 L143.1,45.9 L145.8,45.9 L145.8,45.0 L139.4,45.0 L139.4,45.9 L142.0,45.9 L142.0,54.0 Z"/><path d="M150.6,54.0 Q152.5,54.0 153.0,53.5 Q153.6,52.9 153.6,51.5 Q153.6,50.2 153.2,50.0 Q152.8,49.7 151.8,49.2 L150.6,48.7 Q149.9,48.4 149.5,48.2 Q149.1,48.1 149.1,47.2 Q149.1,46.5 149.4,46.2 Q149.8,46.0 150.8,46.0 Q151.6,46.0 151.9,46.1 Q152.2,46.3 152.8,46.8 L153.3,46.1 Q152.7,45.5 152.3,45.2 Q151.8,45.0 150.8,45.0 Q149.2,45.0 148.6,45.5 Q148.0,46.0 148.0,47.3 Q148.0,48.6 148.5,48.9 Q149.0,49.2 149.8,49.5 L151.0,50.1 Q151.9,50.5 152.2,50.6 Q152.5,50.7 152.5,51.6 Q152.5,52.5 152.2,52.8 Q151.8,53.0 150.7,53.0 Q149.7,53.0 149.3,52.8 Q148.8,52.6 148.2,52.0 L147.6,52.7 Q148.3,53.5 148.9,53.8 Q149.4,54.0 150.6,54.0 Z"/><path d="M162.1,54.0 Q163.1,54.0 163.5,53.8 Q164.0,53.6 164.6,53.0 Q165.3,53.5 165.7,53.7 Q166.0,53.9 166.7,54.0 L166.9,53.1 Q166.5,53.0 166.2,52.8 Q165.9,52.7 165.3,52.3 Q166.0,51.4 166.2,50.8 Q166.5,50.3 166.8,49.2 L165.8,49.2 Q165.5,50.2 165.3,50.6 Q165.1,51.0 164.6,51.7 Q163.8,51.0 163.3,50.6 Q162.9,50.2 162.3,49.3 Q163.3,48.6 163.8,48.2 Q164.3,47.9 164.3,46.7 Q164.3,45.7 164.0,45.4 Q163.7,45.0 162.6,45.0 Q161.4,45.0 161.0,45.5 Q160.6,45.9 160.6,47.0 Q160.6,47.7 160.7,48.0 Q160.8,48.4 161.2,49.1 Q160.2,49.7 159.8,50.1 Q159.4,50.4 159.4,51.6 Q159.4,53.0 160.0,53.5 Q160.5,54.0 162.1,54.0 Z M163.9,52.4 Q163.4,52.9 163.1,53.0 Q162.8,53.1 162.2,53.1 Q161.2,53.1 160.9,52.8 Q160.5,52.5 160.5,51.5 Q160.5,50.9 160.7,50.6 Q161.0,50.3 161.6,49.8 Q162.2,50.8 162.6,51.2 Q163.0,51.7 163.9,52.4 Z M161.9,48.6 Q161.7,48.0 161.6,47.8 Q161.5,47.5 161.5,47.0 Q161.5,46.3 161.7,46.1 Q161.9,45.8 162.6,45.8 Q163.2,45.8 163.3,46.0 Q163.4,46.2 163.4,46.8 Q163.4,47.5 163.1,47.8 Q162.8,48.0 161.9,48.6 Z"/><path d="M174.2,54.0 L175.5,54.0 L176.8,48.6 Q176.9,47.8 177.0,47.5 Q177.1,47.2 177.2,46.5 L177.3,46.5 Q177.4,47.2 177.5,47.5 Q177.6,47.8 177.7,48.6 L179.0,54.0 L180.4,54.0 L182.2,45.0 L181.1,45.0 L180.2,49.9 Q180.0,50.9 180.0,51.4 Q179.9,51.9 179.7,52.9 L179.6,52.9 Q179.4,51.9 179.3,51.4 Q179.2,50.9 179.0,49.9 L177.8,45.0 L176.8,45.0 L175.6,49.9 Q175.3,50.9 175.2,51.4 Q175.1,51.9 174.9,52.9 L174.9,52.9 Q174.7,51.9 174.6,51.4 Q174.5,50.9 174.4,49.9 L173.4,45.0 L172.3,45.0 L174.2,54.0 Z"/><path d="M188.4,54.0 Q190.7,54.0 191.4,53.1 Q192.2,52.2 192.2,49.5 Q192.2,46.7 191.4,45.9 Q190.7,45.0 188.4,45.0 Q186.2,45.0 185.5,45.9 Q184.7,46.7 184.7,49.5 Q184.7,52.2 185.5,53.1 Q186.2,54.0 188.4,54.0 Z M188.4,53.0 Q186.9,53.0 186.3,52.3 Q185.8,51.6 185.8,49.5 Q185.8,47.3 186.3,46.6 Q186.9,46.0 188.4,46.0 Q190.0,46.0 190.5,46.6 Q191.1,47.3 191.1,49.5 Q191.1,51.6 190.5,52.3 Q190.0,53.0 188.4,53.0 Z"/><path d="M196.3,49.1 L196.3,45.9 L197.8,45.9 Q199.2,45.9 199.5,46.1 Q199.9,46.3 199.9,47.4 Q199.9,48.6 199.5,48.8 Q199.2,49.1 197.8,49.1 L196.3,49.1 Z M200.0,54.0 L201.3,54.0 L199.0,49.9 Q200.2,49.6 200.6,49.2 Q201.0,48.8 201.0,47.4 Q201.0,45.6 200.4,45.3 Q199.7,45.0 198.0,45.0 L195.2,45.0 L195.2,54.0 L196.3,54.0 L196.3,50.0 L197.9,50.0 L200.0,54.0 Z"/><path d="M204.2,54.0 L205.3,54.0 L205.3,51.2 L206.8,49.3 L209.5,54.0 L210.7,54.0 L207.5,48.4 L210.3,45.0 L209.0,45.0 L205.3,49.5 L205.3,49.5 L205.3,45.0 L204.2,45.0 L204.2,54.0 Z"/><path d="M213.2,54.0 L214.3,54.0 L214.3,49.9 L217.7,49.9 L217.7,49.0 L214.3,49.0 L214.3,45.9 L218.3,45.9 L218.3,45.0 L213.2,45.0 L213.2,54.0 Z"/><path d="M221.2,54.0 L226.2,54.0 L226.2,53.1 L222.3,53.1 L222.3,45.0 L221.2,45.0 L221.2,54.0 Z"/><path d="M232.4,54.0 Q234.7,54.0 235.4,53.1 Q236.2,52.2 236.2,49.5 Q236.2,46.7 235.4,45.9 Q234.7,45.0 232.4,45.0 Q230.2,45.0 229.5,45.9 Q228.7,46.7 228.7,49.5 Q228.7,52.2 229.5,53.1 Q230.2,54.0 232.4,54.0 Z M232.4,53.0 Q230.9,53.0 230.3,52.3 Q229.8,51.6 229.8,49.5 Q229.8,47.3 230.3,46.6 Q230.9,46.0 232.4,46.0 Q234.0,46.0 234.5,46.6 Q235.1,47.3 235.1,49.5 Q235.1,51.6 234.5,52.3 Q234.0,53.0 232.4,53.0 Z"/><path d="M240.2,54.0 L241.5,54.0 L242.8,48.6 Q242.9,47.8 243.0,47.5 Q243.1,47.2 243.2,46.5 L243.3,46.5 Q243.4,47.2 243.5,47.5 Q243.6,47.8 243.7,48.6 L245.0,54.0 L246.4,54.0 L248.2,45.0 L247.1,45.0 L246.2,49.9 Q246.0,50.9 246.0,51.4 Q245.9,51.9 245.7,52.9 L245.6,52.9 Q245.4,51.9 245.3,51.4 Q245.2,50.9 245.0,49.9 L243.8,45.0 L242.8,45.0 L241.6,49.9 Q241.3,50.9 241.2,51.4 Q241.1,51.9 240.9,52.9 L240.9,52.9 Q240.7,51.9 240.6,51.4 Q240.5,50.9 240.4,49.9 L239.4,45.0 L238.3,45.0 L240.2,54.0 Z"/></g>
  <g transform="translate(410,21)">
    <rect x="0" y="0" width="44" height="30" rx="8" fill="#15171c" stroke="#b08d57" stroke-opacity="0.4"/>
    <g fill="#d8b988"><path d="M21.8,21.0 Q24.3,21.0 25.2,20.3 Q26.0,19.6 26.0,17.8 Q26.0,16.3 25.6,15.8 Q25.1,15.3 24.0,14.8 L24.0,14.7 Q24.8,14.1 25.2,13.7 Q25.5,13.2 25.5,12.1 Q25.5,10.2 24.8,9.6 Q24.1,9.0 21.9,9.0 Q19.8,9.0 19.0,9.6 Q18.2,10.2 18.2,12.2 Q18.2,13.4 18.5,13.8 Q18.8,14.3 19.7,14.9 L19.7,15.0 Q18.6,15.5 18.2,16.0 Q17.8,16.5 17.8,17.9 Q17.8,19.7 18.6,20.4 Q19.5,21.0 21.8,21.0 Z M22.6,14.0 Q21.4,13.6 21.0,13.3 Q20.7,13.1 20.7,12.2 Q20.7,11.4 20.9,11.2 Q21.2,11.0 21.9,11.0 Q22.7,11.0 23.0,11.2 Q23.2,11.5 23.2,12.3 Q23.2,12.9 23.1,13.2 Q23.0,13.5 22.6,14.0 Z M21.9,19.0 Q21.0,19.0 20.6,18.8 Q20.2,18.5 20.2,17.5 Q20.2,16.8 20.4,16.5 Q20.5,16.1 21.0,15.7 Q22.5,16.3 22.9,16.5 Q23.4,16.7 23.4,17.7 Q23.4,18.6 23.0,18.8 Q22.7,19.0 21.9,19.0 Z"/></g>
  </g>
</svg>
