<svg xmlns="http://www.w3.org/2000/svg" viewBox="0 0 470 56" width="470" height="56" role="img" aria-label="法律解释">
  <rect x="0.5" y="0.5" width="469" height="55" rx="6" fill="#ece6f3"/>
  <rect x="0" y="0" width="4" height="56" rx="2" fill="#6f5a9c"/>
  <g fill="#6f5a9c"><path d="M17.6,36.0 Q19.9,36.0 20.7,35.0 Q21.5,34.0 21.5,30.0 Q21.5,25.9 20.7,25.0 Q19.9,24.0 17.6,24.0 Q15.2,24.0 14.4,24.9 Q13.6,25.9 13.6,30.0 Q13.6,34.0 14.4,35.0 Q15.2,36.0 17.6,36.0 Z M17.6,33.9 Q16.8,33.9 16.4,33.6 Q16.1,33.2 16.1,30.0 Q16.1,26.7 16.4,26.4 Q16.8,26.0 17.6,26.0 Q18.4,26.0 18.7,26.4 Q19.0,26.7 19.0,30.0 Q19.0,33.2 18.7,33.6 Q18.4,33.9 17.6,33.9 Z"/><path d="M26.2,36.0 Q28.4,36.0 29.3,35.4 Q30.3,34.8 30.3,32.7 Q30.3,31.2 29.8,30.7 Q29.4,30.3 28.2,29.9 L28.2,29.8 Q29.3,29.3 29.6,28.9 Q29.9,28.4 29.9,27.2 Q29.9,25.1 29.2,24.5 Q28.4,24.0 26.1,24.0 Q24.8,24.0 24.2,24.3 Q23.7,24.5 22.7,25.4 L24.0,27.1 Q24.7,26.5 25.0,26.3 Q25.2,26.1 26.0,26.1 Q26.8,26.1 27.0,26.3 Q27.3,26.6 27.3,27.4 Q27.3,28.4 27.0,28.7 Q26.7,29.0 24.8,29.0 L24.8,30.9 Q27.1,30.9 27.4,31.2 Q27.6,31.5 27.6,32.5 Q27.6,33.4 27.3,33.6 Q26.9,33.8 25.9,33.8 Q25.0,33.8 24.6,33.6 Q24.2,33.4 23.6,32.7 L22.4,34.5 Q23.2,35.4 23.8,35.7 Q24.4,36.0 26.2,36.0 Z"/></g>
  <g fill="#2a2d34"><path d="M45.5,15.5 Q46.8,16.1 47.5,16.5 Q48.3,17.0 49.0,17.7 L50.7,15.4 Q49.9,14.6 49.1,14.1 Q48.3,13.6 47.1,13.1 L45.5,15.5 Z M44.4,20.8 Q45.6,21.3 46.4,21.8 Q47.2,22.2 47.9,22.8 L49.5,20.5 Q48.7,19.8 47.9,19.4 Q47.0,19.0 45.9,18.6 L44.4,20.8 Z M44.9,29.7 L47.3,31.5 Q48.3,29.5 48.9,28.5 Q49.4,27.5 50.3,25.5 L48.2,23.7 Q47.1,25.9 46.5,27.1 Q45.8,28.2 44.9,29.7 Z M57.0,25.9 Q57.4,26.5 57.6,26.8 Q57.8,27.1 58.2,27.8 L54.2,28.0 Q54.9,26.7 55.2,26.0 Q55.5,25.2 56.1,23.7 L55.8,23.6 L62.3,23.6 L62.3,21.0 L57.4,21.0 L57.4,18.6 L61.4,18.6 L61.4,16.0 L57.4,16.0 L57.4,13.1 L54.6,13.1 L54.6,16.0 L50.8,16.0 L50.8,18.6 L54.6,18.6 L54.6,21.0 L49.9,21.0 L49.9,23.6 L52.8,23.6 Q52.4,25.1 52.1,26.0 Q51.8,26.8 51.2,28.2 L49.9,28.2 L50.2,31.0 Q52.8,30.8 54.5,30.7 Q56.3,30.5 59.6,30.2 Q59.8,30.8 59.9,31.0 Q60.0,31.3 60.2,31.9 L62.8,30.2 Q62.2,28.6 61.5,27.5 Q60.7,26.3 59.3,24.6 L57.0,25.9 Z"/><path d="M67.2,13.0 Q66.4,14.3 65.6,15.1 Q64.8,15.9 63.4,16.7 Q63.8,17.3 64.1,17.9 Q64.4,18.5 64.7,19.1 Q66.5,18.0 67.5,17.0 Q68.5,16.0 69.8,14.1 L67.2,13.0 Z M67.7,17.3 Q66.6,19.1 65.7,20.2 Q64.8,21.3 63.3,22.5 Q63.6,23.2 64.0,24.0 Q64.3,24.9 64.5,25.5 Q64.9,25.1 65.1,24.9 Q65.3,24.7 65.8,24.2 L65.8,32.0 L68.4,32.0 L68.4,21.1 Q68.8,20.6 69.0,20.3 Q69.2,20.0 69.5,19.5 L69.5,20.0 L73.7,20.0 L73.7,21.0 L70.1,21.0 L70.1,23.2 L73.7,23.2 L73.7,24.0 L69.8,24.0 L69.8,26.2 L73.7,26.2 L73.7,27.0 L69.1,27.0 L69.1,29.4 L73.7,29.4 L73.7,32.0 L76.4,32.0 L76.4,29.4 L81.3,29.4 L81.3,27.0 L76.4,27.0 L76.4,26.2 L80.7,26.2 L80.7,24.0 L76.4,24.0 L76.4,23.2 L80.5,23.2 L80.5,20.0 L81.5,20.0 L81.5,17.7 L80.5,17.7 L80.5,14.8 L76.4,14.8 L76.4,13.0 L73.7,13.0 L73.7,14.8 L70.2,14.8 L70.2,17.0 L73.7,17.0 L73.7,17.7 L69.5,17.7 L69.5,18.2 L67.7,17.3 Z M76.4,17.0 L77.9,17.0 L77.9,17.7 L76.4,17.7 L76.4,17.0 Z M76.4,21.0 L76.4,20.0 L77.9,20.0 L77.9,21.0 L76.4,21.0 Z"/><path d="M86.6,20.0 L86.6,21.1 L85.9,21.1 L85.9,20.0 L86.6,20.0 Z M88.4,20.0 L89.1,20.0 L89.1,21.1 L88.4,21.1 L88.4,20.0 Z M85.8,18.0 L86.2,17.0 L87.5,17.0 L87.1,18.0 L85.8,18.0 Z M85.0,13.0 Q84.5,15.4 84.0,16.4 Q83.5,17.5 82.2,18.9 Q82.6,19.1 83.0,19.4 Q83.3,19.7 83.7,20.1 L83.7,23.1 Q83.7,26.0 83.7,27.4 Q83.6,28.9 82.4,30.8 Q82.9,31.1 83.4,31.4 Q83.9,31.7 84.2,32.1 Q85.1,30.7 85.4,29.8 Q85.6,28.8 85.8,27.0 L89.1,27.0 L89.1,29.4 Q89.1,29.7 89.1,29.7 Q89.1,29.7 88.8,29.7 Q88.6,29.7 88.3,29.7 Q87.9,29.7 87.3,29.7 Q87.6,30.3 87.8,30.8 Q88.0,31.4 88.1,32.0 Q89.2,32.0 89.5,32.0 Q89.9,32.0 90.6,31.6 Q91.2,31.2 91.3,30.8 Q91.4,30.5 91.4,29.5 L91.4,25.5 Q91.9,25.8 92.3,26.0 Q92.6,26.2 93.0,26.5 Q93.2,26.1 93.3,25.8 Q93.5,25.6 93.6,25.0 L94.9,25.0 L94.9,26.7 L91.6,26.7 L91.6,29.0 L94.9,29.0 L94.9,32.0 L97.5,32.0 L97.5,29.0 L100.5,29.0 L100.5,26.7 L97.5,26.7 L97.5,25.0 L100.2,25.0 L100.2,22.7 L97.5,22.7 L97.5,21.0 L97.2,21.0 Q97.6,21.0 97.8,21.0 Q97.9,21.0 98.2,20.9 Q98.7,20.8 98.9,20.8 Q99.0,20.7 99.4,20.2 Q99.8,19.7 99.9,19.0 Q100.0,18.2 100.0,14.8 Q100.1,14.6 100.1,14.3 Q100.1,14.0 100.1,14.0 L91.5,14.0 L91.5,16.2 L93.4,16.2 Q93.2,17.5 92.9,17.9 Q92.7,18.3 91.4,19.0 L91.4,18.0 L89.4,18.0 Q89.7,17.3 89.9,16.9 Q90.1,16.5 90.3,15.8 L88.8,14.9 L88.4,15.0 L87.0,15.0 L87.4,13.6 L85.0,13.0 Z M86.6,23.0 L86.6,25.0 L85.9,25.0 L85.9,23.1 L85.9,23.0 L86.6,23.0 Z M88.4,23.0 L89.1,23.0 L89.1,25.0 L88.4,25.0 L88.4,23.0 Z M94.9,21.0 L94.9,22.7 L94.4,22.7 L94.6,21.6 L93.0,21.2 Q94.9,20.2 95.2,19.4 Q95.6,18.6 95.8,16.2 L97.6,16.2 Q97.5,17.8 97.5,18.1 Q97.4,18.4 97.3,18.6 Q97.2,18.8 97.1,18.9 Q97.0,18.9 96.8,18.9 Q96.6,18.9 96.4,18.9 Q96.2,18.9 95.7,18.8 Q96.0,19.3 96.1,19.8 Q96.2,20.3 96.3,21.0 L94.9,21.0 Z M91.4,24.6 L91.4,20.0 Q91.8,20.5 92.0,20.8 Q92.1,21.1 92.3,21.5 Q92.1,22.6 92.0,23.2 Q91.8,23.7 91.4,24.6 Z"/><path d="M109.6,14.0 L109.6,16.4 L110.5,16.4 Q111.0,17.3 111.3,17.7 Q111.6,18.1 112.2,18.8 Q111.2,19.3 110.7,19.6 Q110.1,19.8 109.0,20.1 L109.0,20.0 L106.7,20.0 L106.7,16.1 Q107.7,16.0 108.1,15.9 Q108.6,15.8 109.5,15.6 L108.3,13.2 Q106.4,13.5 105.1,13.7 Q103.8,13.8 101.5,14.0 Q101.8,14.6 101.9,15.0 Q102.0,15.4 102.1,16.0 Q102.8,16.0 103.2,16.0 Q103.5,15.9 104.2,15.9 L104.2,18.9 Q104.0,18.1 103.8,17.6 Q103.6,17.1 103.2,16.3 L101.4,17.0 Q101.8,17.9 102.1,18.4 Q102.3,19.0 102.4,19.7 L104.2,18.9 L104.2,20.0 L101.6,20.0 L101.6,22.3 L103.8,22.3 Q103.2,24.3 102.7,25.0 Q102.2,25.7 101.3,26.6 Q101.7,27.4 102.0,28.0 Q102.3,28.7 102.5,29.5 Q103.1,28.8 103.4,28.3 Q103.7,27.8 104.2,26.7 L104.2,32.0 L106.7,32.0 L106.7,25.9 Q107.1,26.5 107.3,26.7 Q107.5,27.0 107.7,27.4 L109.5,25.5 Q109.0,25.1 108.2,24.2 Q107.3,23.3 106.7,22.3 L109.0,22.3 L109.0,21.0 Q109.3,21.6 109.5,22.0 Q109.7,22.4 109.8,22.9 Q111.4,22.3 112.1,21.9 Q112.8,21.4 114.2,20.5 Q115.4,21.5 116.1,22.0 Q116.9,22.4 118.5,23.0 Q118.8,22.1 119.1,21.5 Q119.4,20.8 119.9,20.2 Q118.6,20.0 118.0,19.8 Q117.4,19.5 116.3,19.0 Q117.7,17.8 118.2,17.1 Q118.8,16.5 119.5,14.8 L117.9,13.9 L117.4,14.0 L109.6,14.0 Z M107.7,16.7 Q107.5,17.4 107.3,18.0 Q107.0,18.5 106.7,19.2 L108.6,19.6 Q108.9,19.0 109.1,18.5 Q109.3,18.1 109.8,17.1 L107.7,16.7 Z M115.6,16.4 Q115.2,16.9 114.9,17.1 Q114.7,17.3 114.2,17.7 Q113.7,17.3 113.5,17.1 Q113.2,16.9 112.9,16.4 L115.6,16.4 Z M112.7,21.8 L112.7,23.6 L109.8,23.6 L109.8,26.0 L112.7,26.0 L112.7,27.0 L109.0,27.0 L109.0,29.4 L112.7,29.4 L112.7,32.0 L115.5,32.0 L115.5,29.4 L119.2,29.4 L119.2,27.0 L115.5,27.0 L115.5,26.0 L118.3,26.0 L118.3,23.6 L115.5,23.6 L115.5,21.8 L112.7,21.8 Z"/></g>
  <g fill="#5b606b"><path d="M45.1,46.0 L49.6,46.0 L49.6,45.1 L46.1,45.1 L46.1,38.0 L45.1,38.0 L45.1,46.0 Z"/><path d="M52.6,46.0 L57.4,46.0 L57.4,45.1 L53.6,45.1 L53.6,42.0 L56.7,42.0 L56.7,41.1 L53.6,41.1 L53.6,38.9 L57.2,38.9 L57.2,38.0 L52.6,38.0 L52.6,46.0 Z"/><path d="M63.3,46.0 Q64.3,46.0 64.8,45.8 Q65.2,45.6 65.8,45.1 L65.8,42.0 L63.1,42.0 L63.1,42.9 L64.8,42.9 L64.8,44.7 Q64.5,45.0 64.2,45.0 Q63.9,45.1 63.4,45.1 Q61.6,45.1 61.2,44.6 Q60.7,44.0 60.7,42.1 Q60.7,40.1 61.2,39.5 Q61.7,38.9 63.4,38.9 Q64.2,38.9 64.4,39.1 Q64.7,39.2 65.1,39.7 L65.6,39.0 Q65.2,38.5 64.8,38.3 Q64.5,38.0 63.3,38.0 Q61.2,38.0 60.4,38.8 Q59.6,39.6 59.6,42.2 Q59.6,44.5 60.4,45.3 Q61.2,46.0 63.3,46.0 Z"/><path d="M68.5,46.0 L69.6,46.0 L70.3,43.8 L73.3,43.8 L74.1,46.0 L75.1,46.0 L72.4,38.0 L71.3,38.0 L68.5,46.0 Z M70.6,43.0 L71.0,41.7 Q71.3,40.7 71.4,40.3 Q71.5,39.8 71.8,38.8 L71.8,38.8 Q72.1,39.8 72.2,40.3 Q72.4,40.7 72.7,41.7 L73.0,43.0 L70.6,43.0 Z"/><path d="M78.1,46.0 L82.6,46.0 L82.6,45.1 L79.1,45.1 L79.1,38.0 L78.1,38.0 L78.1,46.0 Z"/><path d="M89.1,46.0 L90.1,46.0 L90.1,38.0 L89.1,38.0 L89.1,46.0 Z"/><path d="M93.6,46.0 L94.6,46.0 L94.6,41.8 Q94.6,41.0 94.5,40.5 Q94.5,40.1 94.4,39.3 L94.5,39.3 L95.4,41.0 L98.3,46.0 L99.3,46.0 L99.3,38.0 L98.4,38.0 L98.4,42.2 Q98.4,43.0 98.4,43.4 Q98.4,43.9 98.5,44.7 L98.5,44.7 L97.6,43.0 L94.6,38.0 L93.6,38.0 L93.6,46.0 Z"/><path d="M104.8,46.0 L105.8,46.0 L105.8,38.9 L108.2,38.9 L108.2,38.0 L102.3,38.0 L102.3,38.9 L104.8,38.9 L104.8,46.0 Z"/><path d="M111.6,46.0 L116.4,46.0 L116.4,45.1 L112.6,45.1 L112.6,42.0 L115.7,42.0 L115.7,41.1 L112.6,41.1 L112.6,38.9 L116.2,38.9 L116.2,38.0 L111.6,38.0 L111.6,46.0 Z"/><path d="M120.1,42.0 L120.1,38.8 L121.5,38.8 Q122.7,38.8 123.1,39.0 Q123.4,39.2 123.4,40.3 Q123.4,41.5 123.1,41.7 Q122.7,42.0 121.5,42.0 L120.1,42.0 Z M123.5,46.0 L124.7,46.0 L122.6,42.7 Q123.7,42.5 124.1,42.1 Q124.4,41.7 124.4,40.3 Q124.4,38.6 123.9,38.3 Q123.3,38.0 121.6,38.0 L119.1,38.0 L119.1,46.0 L120.1,46.0 L120.1,42.8 L121.6,42.8 L123.5,46.0 Z"/><path d="M127.6,46.0 L128.6,46.0 L128.6,42.8 L130.0,42.8 Q131.7,42.8 132.3,42.4 Q132.9,42.0 132.9,40.4 Q132.9,38.6 132.3,38.3 Q131.7,38.0 129.9,38.0 L127.6,38.0 L127.6,46.0 Z M128.6,42.0 L128.6,38.8 L129.8,38.8 Q131.2,38.8 131.5,39.0 Q131.9,39.2 131.9,40.4 Q131.9,41.5 131.6,41.8 Q131.2,42.0 129.8,42.0 L128.6,42.0 Z"/><path d="M137.1,42.0 L137.1,38.8 L138.5,38.8 Q139.7,38.8 140.1,39.0 Q140.4,39.2 140.4,40.3 Q140.4,41.5 140.1,41.7 Q139.7,42.0 138.5,42.0 L137.1,42.0 Z M140.5,46.0 L141.7,46.0 L139.6,42.7 Q140.7,42.5 141.1,42.1 Q141.4,41.7 141.4,40.3 Q141.4,38.6 140.9,38.3 Q140.3,38.0 138.6,38.0 L136.1,38.0 L136.1,46.0 L137.1,46.0 L137.1,42.8 L138.6,42.8 L140.5,46.0 Z"/><path d="M144.6,46.0 L149.4,46.0 L149.4,45.1 L145.6,45.1 L145.6,42.0 L148.7,42.0 L148.7,41.1 L145.6,41.1 L145.6,38.9 L149.2,38.9 L149.2,38.0 L144.6,38.0 L144.6,46.0 Z"/><path d="M153.8,46.0 L154.8,46.0 L154.8,38.9 L157.2,38.9 L157.2,38.0 L151.3,38.0 L151.3,38.9 L153.8,38.9 L153.8,46.0 Z"/><path d="M159.5,46.0 L160.6,46.0 L161.3,43.8 L164.3,43.8 L165.1,46.0 L166.1,46.0 L163.4,38.0 L162.3,38.0 L159.5,46.0 Z M161.6,43.0 L162.0,41.7 Q162.3,40.7 162.4,40.3 Q162.5,39.8 162.8,38.8 L162.8,38.8 Q163.1,39.8 163.2,40.3 Q163.4,40.7 163.7,41.7 L164.0,43.0 L161.6,43.0 Z"/><path d="M170.8,46.0 L171.8,46.0 L171.8,38.9 L174.2,38.9 L174.2,38.0 L168.3,38.0 L168.3,38.9 L170.8,38.9 L170.8,46.0 Z"/><path d="M177.6,46.0 L178.6,46.0 L178.6,38.0 L177.6,38.0 L177.6,46.0 Z"/><path d="M185.1,46.0 Q187.1,46.0 187.8,45.2 Q188.5,44.4 188.5,42.0 Q188.5,39.5 187.8,38.8 Q187.1,38.0 185.1,38.0 Q183.0,38.0 182.3,38.8 Q181.6,39.5 181.6,42.0 Q181.6,44.4 182.3,45.2 Q183.0,46.0 185.1,46.0 Z M185.1,45.1 Q183.6,45.1 183.1,44.5 Q182.7,43.9 182.7,42.0 Q182.7,40.1 183.1,39.5 Q183.6,38.9 185.1,38.9 Q186.5,38.9 187.0,39.5 Q187.5,40.1 187.5,42.0 Q187.5,43.9 187.0,44.5 Q186.5,45.1 185.1,45.1 Z"/><path d="M191.6,46.0 L192.6,46.0 L192.6,41.8 Q192.6,41.0 192.5,40.5 Q192.5,40.1 192.4,39.3 L192.5,39.3 L193.4,41.0 L196.3,46.0 L197.3,46.0 L197.3,38.0 L196.4,38.0 L196.4,42.2 Q196.4,43.0 196.4,43.4 Q196.4,43.9 196.5,44.7 L196.5,44.7 L195.6,43.0 L192.6,38.0 L191.6,38.0 L191.6,46.0 Z"/></g>
  <g fill="#6f5a9c"><path d="M414.6,35.0 L415.6,35.0 L415.6,32.9 L416.8,32.9 L416.8,32.0 L415.6,32.0 L415.6,26.0 L414.4,26.0 L410.7,32.2 L410.7,32.9 L414.6,32.9 L414.6,35.0 Z M414.6,32.0 L411.9,32.0 L413.9,28.7 Q414.1,28.2 414.2,27.9 Q414.4,27.7 414.6,27.2 L414.6,27.2 Q414.6,27.7 414.6,28.1 Q414.6,28.5 414.6,29.0 L414.6,32.0 Z"/><path d="M424.3,35.0 Q425.8,35.0 426.2,34.6 Q426.7,34.1 426.7,33.0 Q426.7,31.8 426.1,31.6 Q425.6,31.4 424.7,31.0 Q424.0,30.7 423.6,30.6 Q423.3,30.5 423.3,29.8 Q423.3,29.3 423.5,29.1 Q423.7,28.9 424.5,28.9 Q425.1,28.9 425.3,29.0 Q425.5,29.1 426.0,29.5 L426.5,28.8 Q426.0,28.3 425.6,28.2 Q425.3,28.0 424.5,28.0 Q423.0,28.0 422.6,28.4 Q422.2,28.8 422.2,29.9 Q422.2,31.0 422.7,31.3 Q423.2,31.5 424.1,31.8 Q424.8,32.1 425.2,32.3 Q425.6,32.4 425.6,33.1 Q425.6,33.7 425.4,33.9 Q425.2,34.2 424.3,34.2 Q423.6,34.2 423.3,34.0 Q423.0,33.8 422.4,33.4 L421.9,34.1 Q422.5,34.6 422.9,34.8 Q423.4,35.0 424.3,35.0 Z"/><path d="M429.1,35.0 L430.2,35.0 L430.2,33.2 L431.4,31.6 L433.3,35.0 L434.5,35.0 L432.0,30.8 L434.2,28.0 L433.0,28.0 L430.2,31.7 L430.2,31.7 L430.2,25.0 L429.1,25.0 L429.1,35.0 Z"/><path d="M436.6,35.0 L437.7,35.0 L437.7,28.0 L436.6,28.0 L436.6,35.0 Z M437.1,26.5 Q437.6,26.5 437.7,26.3 Q437.9,26.2 437.9,25.7 Q437.9,25.3 437.7,25.1 Q437.6,25.0 437.1,25.0 Q436.7,25.0 436.6,25.1 Q436.4,25.3 436.4,25.7 Q436.4,26.2 436.6,26.3 Q436.7,26.5 437.1,26.5 Z"/><path d="M441.2,35.0 Q441.5,35.0 441.6,35.0 Q441.7,35.0 441.9,34.9 L441.7,34.1 Q441.6,34.1 441.6,34.1 Q441.6,34.1 441.5,34.1 Q441.3,34.1 441.3,34.0 Q441.2,34.0 441.2,33.6 L441.2,25.3 L440.1,25.3 L440.1,33.6 Q440.1,34.5 440.3,34.7 Q440.4,35.0 441.2,35.0 Z"/><path d="M444.8,35.0 Q445.0,35.0 445.1,35.0 Q445.2,35.0 445.4,34.9 L445.2,34.1 Q445.1,34.1 445.1,34.1 Q445.1,34.1 445.0,34.1 Q444.8,34.1 444.8,34.0 Q444.7,34.0 444.7,33.6 L444.7,25.3 L443.6,25.3 L443.6,33.6 Q443.6,34.5 443.8,34.7 Q443.9,35.0 444.8,35.0 Z"/><path d="M448.8,35.0 Q450.3,35.0 450.7,34.6 Q451.2,34.1 451.2,33.0 Q451.2,31.8 450.6,31.6 Q450.1,31.4 449.2,31.0 Q448.5,30.7 448.1,30.6 Q447.8,30.5 447.8,29.8 Q447.8,29.3 448.0,29.1 Q448.2,28.9 449.0,28.9 Q449.6,28.9 449.8,29.0 Q450.0,29.1 450.5,29.5 L451.0,28.8 Q450.5,28.3 450.1,28.2 Q449.8,28.0 449.0,28.0 Q447.5,28.0 447.1,28.4 Q446.7,28.8 446.7,29.9 Q446.7,31.0 447.2,31.3 Q447.7,31.5 448.6,31.8 Q449.3,32.1 449.7,32.3 Q450.1,32.4 450.1,33.1 Q450.1,33.7 449.9,33.9 Q449.7,34.2 448.8,34.2 Q448.1,34.2 447.8,34.0 Q447.5,33.8 446.9,33.4 L446.4,34.1 Q447.0,34.6 447.4,34.8 Q447.9,35.0 448.8,35.0 Z"/></g>
</svg>
