<svg xmlns="http://www.w3.org/2000/svg" viewBox="0 0 470 56" width="470" height="56" role="img" aria-label="论证组织与评估">
  <rect x="0.5" y="0.5" width="469" height="55" rx="6" fill="#f4e9d6"/>
  <rect x="0" y="0" width="4" height="56" rx="2" fill="#a8702a"/>
  <g fill="#a8702a"><path d="M17.6,36.0 Q19.9,36.0 20.7,35.0 Q21.5,34.0 21.5,30.0 Q21.5,25.9 20.7,25.0 Q19.9,24.0 17.6,24.0 Q15.2,24.0 14.4,24.9 Q13.6,25.9 13.6,30.0 Q13.6,34.0 14.4,35.0 Q15.2,36.0 17.6,36.0 Z M17.6,33.9 Q16.8,33.9 16.4,33.6 Q16.1,33.2 16.1,30.0 Q16.1,26.7 16.4,26.4 Q16.8,26.0 17.6,26.0 Q18.4,26.0 18.7,26.4 Q19.0,26.7 19.0,30.0 Q19.0,33.2 18.7,33.6 Q18.4,33.9 17.6,33.9 Z"/><path d="M26.3,36.0 Q28.4,36.0 29.4,35.3 Q30.3,34.5 30.3,31.9 Q30.3,29.3 29.5,28.7 Q28.7,28.1 26.8,28.1 Q26.4,28.1 26.2,28.2 Q26.1,28.2 25.7,28.4 L25.8,26.2 L29.8,26.2 L29.8,24.0 L23.5,24.0 L23.2,29.8 L24.4,30.6 Q25.1,30.1 25.2,30.1 Q25.4,30.0 26.0,30.0 Q27.0,30.0 27.3,30.3 Q27.6,30.7 27.6,31.9 Q27.6,33.2 27.3,33.5 Q27.0,33.8 25.9,33.8 Q25.0,33.8 24.6,33.6 Q24.2,33.3 23.6,32.7 L22.4,34.5 Q23.2,35.3 23.9,35.7 Q24.5,36.0 26.3,36.0 Z"/></g>
  <g fill="#2a2d34"><path d="M45.4,15.0 Q46.6,15.9 47.4,16.6 Q48.2,17.3 49.0,18.2 L50.8,16.1 Q50.0,15.2 49.1,14.6 Q48.2,13.9 47.0,13.1 L45.4,15.0 Z M59.0,21.0 Q57.9,21.8 57.2,22.3 Q56.4,22.8 54.9,23.5 L54.9,20.5 L53.6,20.5 Q54.8,19.3 55.3,18.7 Q55.8,18.0 56.6,16.7 Q57.9,18.8 58.6,19.8 Q59.4,20.8 61.1,22.1 Q61.5,21.4 62.0,20.9 Q62.4,20.4 63.0,19.9 Q61.1,18.6 60.1,17.4 Q59.1,16.3 58.1,14.0 L58.3,13.5 L55.4,12.9 Q54.4,15.4 53.5,16.7 Q52.6,18.1 49.8,20.1 Q50.4,20.6 50.8,21.2 Q51.2,21.8 51.6,22.5 L52.2,22.0 L52.2,28.0 Q52.2,30.7 52.6,31.1 Q52.9,31.5 55.8,31.5 Q56.3,31.5 57.3,31.5 Q58.3,31.5 58.9,31.5 Q61.3,31.5 61.7,31.0 Q62.1,30.5 62.4,27.2 Q61.6,27.0 61.1,26.8 Q60.5,26.5 59.9,26.1 Q59.7,28.6 59.7,28.8 Q59.6,29.0 58.7,29.0 Q58.2,29.0 57.3,29.0 Q56.5,29.0 56.1,29.0 Q55.1,29.0 55.0,28.9 Q54.9,28.9 54.9,28.0 L54.9,26.7 Q56.8,25.9 57.9,25.3 Q59.0,24.8 60.8,23.7 L59.0,21.0 Z M44.5,19.0 L44.5,21.6 L47.0,21.6 L47.0,27.8 Q47.0,29.0 46.7,29.4 Q46.5,29.8 46.0,30.2 Q46.4,30.5 46.8,31.0 Q47.1,31.5 47.4,32.1 Q47.7,31.5 48.1,31.2 Q48.4,31.0 51.9,27.9 Q51.6,27.3 51.4,26.7 Q51.2,26.1 50.9,25.3 L49.6,26.5 L49.6,19.0 L44.5,19.0 Z"/><path d="M64.3,14.8 Q65.3,15.8 66.0,16.5 Q66.8,17.2 67.4,18.1 L69.2,16.1 Q68.6,15.2 67.8,14.6 Q67.1,14.0 66.1,13.2 L64.3,14.8 Z M69.8,28.4 L69.8,31.0 L81.5,31.0 L81.5,28.4 L78.0,28.4 L78.0,23.6 L80.8,23.6 L80.8,21.0 L78.0,21.0 L78.0,16.6 L81.2,16.6 L81.2,14.0 L70.2,14.0 L70.2,16.6 L75.2,16.6 L75.2,28.4 L73.8,28.4 L73.8,19.8 L71.0,19.8 L71.0,28.4 L69.8,28.4 Z M63.6,19.0 L63.6,21.6 L65.6,21.6 L65.6,26.9 Q65.6,28.2 65.3,28.7 Q64.9,29.2 64.4,29.7 Q64.8,30.1 65.3,30.5 Q65.7,31.0 66.0,31.6 Q66.4,31.0 66.8,30.6 Q67.1,30.3 70.7,27.0 Q70.4,26.4 70.1,25.8 Q69.8,25.2 69.6,24.4 L68.3,25.6 L68.3,19.0 L63.6,19.0 Z"/><path d="M82.8,28.2 L83.3,31.1 Q85.1,30.5 86.2,30.2 Q87.3,29.9 89.4,29.2 L89.4,31.5 L100.5,31.5 L100.5,29.0 L99.0,29.0 L99.0,14.0 L91.0,14.0 L91.0,29.0 L89.7,29.0 L89.4,26.7 Q87.0,27.3 85.7,27.6 Q84.5,27.9 82.8,28.2 Z M93.6,29.0 L93.6,26.4 L96.3,26.4 L96.3,29.0 L93.6,29.0 Z M93.6,21.5 L96.3,21.5 L96.3,24.0 L93.6,24.0 L93.6,21.5 Z M93.6,19.0 L93.6,16.5 L96.3,16.5 L96.3,19.0 L93.6,19.0 Z M83.4,21.7 Q83.7,21.5 83.9,21.5 Q84.1,21.4 85.6,21.2 Q85.0,22.1 84.8,22.5 Q84.6,22.8 84.3,23.1 Q83.7,23.9 83.5,24.1 Q83.2,24.3 82.7,24.5 Q83.0,25.1 83.2,25.7 Q83.4,26.2 83.5,26.7 Q84.1,26.4 84.5,26.3 Q84.9,26.2 89.8,25.2 Q89.8,24.7 89.8,24.2 Q89.8,23.7 89.9,22.9 L86.9,23.4 Q88.1,21.7 88.7,20.9 Q89.3,20.0 90.2,18.4 L88.1,17.0 Q87.8,17.7 87.6,18.0 Q87.5,18.3 87.1,19.0 L85.7,19.0 Q86.8,17.5 87.2,16.6 Q87.7,15.8 88.4,14.1 L86.0,12.9 Q85.3,15.1 84.7,16.3 Q84.1,17.5 83.7,18.1 Q83.3,18.7 83.1,18.9 Q82.9,19.1 82.5,19.2 Q82.8,19.9 83.0,20.5 Q83.2,21.2 83.4,21.7 Z"/><path d="M111.8,17.0 L115.5,17.0 L115.5,21.4 L111.8,21.4 L111.8,17.0 Z M114.4,26.3 Q115.4,28.1 115.9,29.3 Q116.4,30.4 116.8,31.9 L119.5,30.8 Q119.2,29.3 118.6,28.2 Q118.0,27.0 117.0,25.3 L114.4,26.3 Z M109.0,14.4 L109.0,18.8 L107.0,17.3 Q106.6,18.2 106.4,18.6 Q106.2,19.0 105.8,19.7 L104.6,19.8 Q105.7,18.1 106.2,17.1 Q106.8,16.2 107.5,14.5 L104.8,13.1 Q104.2,15.4 103.5,16.7 Q102.9,17.9 102.5,18.6 Q102.1,19.3 101.9,19.5 Q101.7,19.7 101.3,19.9 Q101.6,20.6 101.8,21.2 Q102.1,21.9 102.2,22.4 Q102.5,22.3 102.7,22.2 Q103.0,22.2 104.3,22.0 Q103.8,22.8 103.6,23.0 Q103.4,23.3 103.1,23.6 Q102.5,24.3 102.3,24.5 Q102.1,24.7 101.5,24.8 Q101.8,25.5 102.0,26.1 Q102.2,26.8 102.3,27.3 Q102.9,26.9 103.3,26.8 Q103.8,26.7 108.5,25.8 Q108.4,25.2 108.4,24.6 Q108.5,24.1 108.5,23.3 L106.0,23.8 Q107.1,22.3 107.6,21.6 Q108.2,20.8 109.0,19.2 L109.0,24.0 L118.4,24.0 L118.4,14.4 L109.0,14.4 Z M110.2,25.5 Q109.8,26.8 109.5,27.4 Q109.2,28.1 108.5,29.2 L108.2,27.1 Q105.8,27.6 104.5,27.9 Q103.2,28.2 101.5,28.5 L102.0,31.4 L108.0,29.8 Q107.9,29.9 107.8,30.0 Q107.7,30.1 107.5,30.3 Q108.2,30.7 108.9,31.1 Q109.5,31.5 110.0,32.0 Q111.2,30.6 111.8,29.5 Q112.4,28.3 113.1,26.1 L110.2,25.5 Z"/><path d="M124.9,13.0 Q124.5,16.2 124.1,18.4 Q123.8,20.6 123.1,23.1 L126.0,23.4 L126.2,22.5 L132.1,22.5 L131.9,24.4 L120.8,24.4 L120.8,27.0 L131.5,27.0 Q131.4,28.1 131.2,28.5 Q131.1,28.8 130.9,29.0 Q130.6,29.3 130.5,29.3 Q130.3,29.3 129.9,29.3 Q129.4,29.3 128.8,29.3 Q128.2,29.3 126.9,29.2 Q127.5,30.0 127.7,30.6 Q127.9,31.2 127.9,32.0 Q129.1,32.0 129.7,32.1 Q130.3,32.1 131.1,32.0 Q132.0,31.8 132.3,31.7 Q132.6,31.6 133.3,30.9 Q133.8,30.3 133.9,29.8 Q134.1,29.2 134.4,27.0 L138.2,27.0 L138.2,24.4 L134.7,24.4 L135.0,21.2 Q135.0,20.8 135.0,20.4 Q135.1,20.0 135.1,20.0 L126.7,20.0 L127.0,18.0 L136.0,18.0 L136.0,15.4 L127.5,15.4 L127.8,13.3 L124.9,13.0 Z"/><path d="M154.6,17.2 Q154.4,18.6 154.2,19.5 Q154.0,20.4 153.7,21.6 L155.8,22.2 Q156.2,21.0 156.5,20.2 Q156.7,19.3 157.2,17.7 L154.6,17.2 Z M146.0,17.7 Q146.4,19.1 146.6,20.0 Q146.8,20.9 146.9,22.2 L149.3,21.4 Q149.2,20.3 149.0,19.4 Q148.8,18.5 148.4,17.2 L146.0,17.7 Z M140.2,15.0 Q141.2,16.0 141.9,16.7 Q142.6,17.3 143.2,18.2 L145.0,16.3 Q144.4,15.5 143.7,14.8 Q142.9,14.2 142.0,13.3 L140.2,15.0 Z M145.8,14.0 L145.8,16.6 L150.1,16.6 L150.1,23.0 L145.5,23.0 L145.5,25.6 L150.1,25.6 L150.1,32.0 L152.9,32.0 L152.9,25.6 L157.5,25.6 L157.5,23.0 L152.9,23.0 L152.9,16.6 L156.9,16.6 L156.9,14.0 L145.8,14.0 Z M139.6,19.0 L139.6,21.6 L141.5,21.6 L141.5,27.4 Q141.5,28.4 141.3,28.7 Q141.1,29.0 140.6,29.4 Q141.0,29.9 141.3,30.5 Q141.6,31.1 141.8,31.8 Q142.2,31.3 142.5,31.0 Q142.8,30.7 146.2,27.5 Q145.8,27.0 145.6,26.4 Q145.4,25.8 145.2,25.0 L144.1,26.0 L144.1,19.0 L139.6,19.0 Z"/><path d="M162.3,13.1 Q161.4,15.9 160.6,17.3 Q159.8,18.6 158.2,20.3 Q158.7,21.1 159.0,22.0 Q159.4,22.8 159.6,23.5 Q159.9,23.2 160.1,23.1 Q160.2,22.9 160.5,22.5 L160.5,31.9 L163.1,31.9 L163.1,18.2 Q163.8,16.9 164.1,16.1 Q164.4,15.4 164.9,14.0 L162.3,13.1 Z M164.3,17.0 L164.3,19.7 L168.8,19.7 L168.8,23.0 L165.0,23.0 L165.0,32.0 L167.8,32.0 L167.8,31.0 L172.7,31.0 L172.7,31.9 L175.5,31.9 L175.5,23.0 L171.7,23.0 L171.7,19.7 L176.5,19.7 L176.5,17.0 L171.7,17.0 L171.7,13.0 L168.8,13.0 L168.8,17.0 L164.3,17.0 Z M167.8,28.4 L167.8,25.6 L172.7,25.6 L172.7,28.4 L167.8,28.4 Z"/></g>
  <g fill="#5b606b"><path d="M44.0,46.0 L45.1,46.0 L45.8,43.8 L48.8,43.8 L49.6,46.0 L50.6,46.0 L47.9,38.0 L46.8,38.0 L44.0,46.0 Z M46.1,43.0 L46.5,41.7 Q46.8,40.7 46.9,40.3 Q47.0,39.8 47.3,38.8 L47.3,38.8 Q47.6,39.8 47.7,40.3 Q47.9,40.7 48.2,41.7 L48.5,43.0 L46.1,43.0 Z"/><path d="M54.6,42.0 L54.6,38.8 L56.0,38.8 Q57.2,38.8 57.6,39.0 Q57.9,39.2 57.9,40.3 Q57.9,41.5 57.6,41.7 Q57.2,42.0 56.0,42.0 L54.6,42.0 Z M58.0,46.0 L59.2,46.0 L57.1,42.7 Q58.2,42.5 58.6,42.1 Q58.9,41.7 58.9,40.3 Q58.9,38.6 58.4,38.3 Q57.8,38.0 56.1,38.0 L53.6,38.0 L53.6,46.0 L54.6,46.0 L54.6,42.8 L56.1,42.8 L58.0,46.0 Z"/><path d="M65.3,46.0 Q66.3,46.0 66.8,45.8 Q67.2,45.6 67.8,45.1 L67.8,42.0 L65.1,42.0 L65.1,42.9 L66.8,42.9 L66.8,44.7 Q66.5,45.0 66.2,45.0 Q65.9,45.1 65.4,45.1 Q63.6,45.1 63.2,44.6 Q62.7,44.0 62.7,42.1 Q62.7,40.1 63.2,39.5 Q63.7,38.9 65.4,38.9 Q66.2,38.9 66.4,39.1 Q66.7,39.2 67.1,39.7 L67.6,39.0 Q67.2,38.5 66.8,38.3 Q66.5,38.0 65.3,38.0 Q63.2,38.0 62.4,38.8 Q61.6,39.6 61.6,42.2 Q61.6,44.5 62.4,45.3 Q63.2,46.0 65.3,46.0 Z"/><path d="M74.5,46.0 Q76.1,46.0 76.7,45.6 Q77.4,45.1 77.4,42.6 L77.4,38.0 L76.4,38.0 L76.4,42.6 Q76.4,44.5 76.0,44.8 Q75.5,45.1 74.5,45.1 Q73.4,45.1 73.0,44.8 Q72.6,44.5 72.6,42.6 L72.6,38.0 L71.6,38.0 L71.6,42.6 Q71.6,45.1 72.2,45.6 Q72.8,46.0 74.5,46.0 Z"/><path d="M81.1,46.0 L82.0,46.0 L82.0,41.6 Q82.0,40.9 82.0,40.4 Q82.0,39.9 81.9,39.2 L81.9,39.2 L82.6,41.1 L84.1,45.3 L84.8,45.3 L86.3,41.1 L87.0,39.2 L87.0,39.2 Q86.9,39.9 86.9,40.4 Q86.9,40.9 86.9,41.6 L86.9,46.0 L87.8,46.0 L87.8,38.0 L86.6,38.0 L85.0,42.3 Q84.9,42.9 84.8,43.2 Q84.7,43.5 84.5,44.0 L84.5,44.0 Q84.2,43.5 84.2,43.2 Q84.1,42.9 83.9,42.3 L82.3,38.0 L81.1,38.0 L81.1,46.0 Z"/><path d="M91.6,46.0 L96.4,46.0 L96.4,45.1 L92.6,45.1 L92.6,42.0 L95.7,42.0 L95.7,41.1 L92.6,41.1 L92.6,38.9 L96.2,38.9 L96.2,38.0 L91.6,38.0 L91.6,46.0 Z"/><path d="M99.1,46.0 L100.1,46.0 L100.1,41.8 Q100.1,41.0 100.0,40.5 Q100.0,40.1 99.9,39.3 L100.0,39.3 L100.9,41.0 L103.8,46.0 L104.8,46.0 L104.8,38.0 L103.9,38.0 L103.9,42.2 Q103.9,43.0 103.9,43.4 Q103.9,43.9 104.0,44.7 L104.0,44.7 L103.1,43.0 L100.1,38.0 L99.1,38.0 L99.1,46.0 Z"/><path d="M110.3,46.0 L111.3,46.0 L111.3,38.9 L113.7,38.9 L113.7,38.0 L107.8,38.0 L107.8,38.9 L110.3,38.9 L110.3,46.0 Z"/><path d="M116.0,46.0 L117.1,46.0 L117.8,43.8 L120.8,43.8 L121.6,46.0 L122.6,46.0 L119.9,38.0 L118.8,38.0 L116.0,46.0 Z M118.1,43.0 L118.5,41.7 Q118.8,40.7 118.9,40.3 Q119.0,39.8 119.3,38.8 L119.3,38.8 Q119.6,39.8 119.7,40.3 Q119.9,40.7 120.2,41.7 L120.5,43.0 L118.1,43.0 Z"/><path d="M127.3,46.0 L128.3,46.0 L128.3,38.9 L130.7,38.9 L130.7,38.0 L124.8,38.0 L124.8,38.9 L127.3,38.9 L127.3,46.0 Z"/><path d="M134.1,46.0 L135.1,46.0 L135.1,38.0 L134.1,38.0 L134.1,46.0 Z"/><path d="M141.6,46.0 Q143.6,46.0 144.3,45.2 Q145.0,44.4 145.0,42.0 Q145.0,39.5 144.3,38.8 Q143.6,38.0 141.6,38.0 Q139.5,38.0 138.8,38.8 Q138.1,39.5 138.1,42.0 Q138.1,44.4 138.8,45.2 Q139.5,46.0 141.6,46.0 Z M141.6,45.1 Q140.1,45.1 139.6,44.5 Q139.2,43.9 139.2,42.0 Q139.2,40.1 139.6,39.5 Q140.1,38.9 141.6,38.9 Q143.0,38.9 143.5,39.5 Q144.0,40.1 144.0,42.0 Q144.0,43.9 143.5,44.5 Q143.0,45.1 141.6,45.1 Z"/><path d="M148.1,46.0 L149.1,46.0 L149.1,41.8 Q149.1,41.0 149.0,40.5 Q149.0,40.1 148.9,39.3 L149.0,39.3 L149.9,41.0 L152.8,46.0 L153.8,46.0 L153.8,38.0 L152.9,38.0 L152.9,42.2 Q152.9,43.0 152.9,43.4 Q152.9,43.9 153.0,44.7 L153.0,44.7 L152.1,43.0 L149.1,38.0 L148.1,38.0 L148.1,46.0 Z"/><path d="M162.8,46.0 Q163.8,46.0 164.2,45.8 Q164.5,45.6 165.2,45.1 Q165.8,45.5 166.1,45.7 Q166.5,45.9 167.0,46.0 L167.3,45.2 Q166.8,45.1 166.6,44.9 Q166.3,44.8 165.8,44.4 Q166.4,43.7 166.6,43.2 Q166.9,42.7 167.2,41.7 L166.2,41.7 Q166.0,42.6 165.8,43.0 Q165.6,43.3 165.1,44.0 Q164.4,43.4 164.0,43.0 Q163.6,42.6 163.1,41.8 Q164.0,41.2 164.4,40.9 Q164.9,40.5 164.9,39.5 Q164.9,38.7 164.6,38.3 Q164.3,38.0 163.3,38.0 Q162.2,38.0 161.8,38.4 Q161.5,38.8 161.5,39.8 Q161.5,40.4 161.6,40.7 Q161.7,41.0 162.0,41.6 Q161.1,42.2 160.8,42.5 Q160.4,42.8 160.4,43.8 Q160.4,45.1 160.9,45.5 Q161.4,46.0 162.8,46.0 Z M164.5,44.6 Q164.0,45.0 163.8,45.1 Q163.5,45.2 163.0,45.2 Q162.1,45.2 161.7,44.9 Q161.4,44.7 161.4,43.8 Q161.4,43.2 161.6,43.0 Q161.8,42.7 162.4,42.3 Q163.0,43.1 163.3,43.5 Q163.7,43.9 164.5,44.6 Z M162.7,41.2 Q162.5,40.7 162.4,40.5 Q162.3,40.2 162.3,39.8 Q162.3,39.2 162.5,39.0 Q162.7,38.7 163.3,38.7 Q163.9,38.7 164.0,38.9 Q164.1,39.1 164.1,39.6 Q164.1,40.2 163.8,40.5 Q163.4,40.7 162.7,41.2 Z"/><path d="M173.1,46.0 L177.9,46.0 L177.9,45.1 L174.1,45.1 L174.1,42.0 L177.2,42.0 L177.2,41.1 L174.1,41.1 L174.1,38.9 L177.8,38.9 L177.8,38.0 L173.1,38.0 L173.1,46.0 Z"/><path d="M182.1,46.0 L183.2,46.0 L185.8,38.0 L184.8,38.0 L183.5,42.3 Q183.2,43.3 183.1,43.7 Q183.0,44.0 182.7,45.0 L182.7,45.0 Q182.4,44.0 182.3,43.7 Q182.2,43.3 181.9,42.3 L180.6,38.0 L179.5,38.0 L182.1,46.0 Z"/><path d="M187.0,46.0 L188.1,46.0 L188.8,43.8 L191.8,43.8 L192.6,46.0 L193.6,46.0 L190.9,38.0 L189.8,38.0 L187.0,46.0 Z M189.1,43.0 L189.5,41.7 Q189.8,40.7 189.9,40.3 Q190.0,39.8 190.3,38.8 L190.3,38.8 Q190.6,39.8 190.7,40.3 Q190.9,40.7 191.2,41.7 L191.5,43.0 L189.1,43.0 Z"/><path d="M196.6,46.0 L201.1,46.0 L201.1,45.1 L197.6,45.1 L197.6,38.0 L196.6,38.0 L196.6,46.0 Z"/><path d="M207.0,46.0 Q208.6,46.0 209.2,45.6 Q209.9,45.1 209.9,42.6 L209.9,38.0 L208.9,38.0 L208.9,42.6 Q208.9,44.5 208.5,44.8 Q208.0,45.1 207.0,45.1 Q205.9,45.1 205.5,44.8 Q205.1,44.5 205.1,42.6 L205.1,38.0 L204.1,38.0 L204.1,42.6 Q204.1,45.1 204.7,45.6 Q205.3,46.0 207.0,46.0 Z"/><path d="M212.5,46.0 L213.6,46.0 L214.3,43.8 L217.3,43.8 L218.1,46.0 L219.1,46.0 L216.4,38.0 L215.3,38.0 L212.5,46.0 Z M214.6,43.0 L215.0,41.7 Q215.3,40.7 215.4,40.3 Q215.5,39.8 215.8,38.8 L215.8,38.8 Q216.1,39.8 216.2,40.3 Q216.4,40.7 216.7,41.7 L217.0,43.0 L214.6,43.0 Z"/><path d="M223.8,46.0 L224.8,46.0 L224.8,38.9 L227.2,38.9 L227.2,38.0 L221.3,38.0 L221.3,38.9 L223.8,38.9 L223.8,46.0 Z"/><path d="M230.6,46.0 L231.6,46.0 L231.6,38.0 L230.6,38.0 L230.6,46.0 Z"/><path d="M238.1,46.0 Q240.1,46.0 240.8,45.2 Q241.5,44.4 241.5,42.0 Q241.5,39.5 240.8,38.8 Q240.1,38.0 238.1,38.0 Q236.0,38.0 235.3,38.8 Q234.6,39.5 234.6,42.0 Q234.6,44.4 235.3,45.2 Q236.0,46.0 238.1,46.0 Z M238.1,45.1 Q236.6,45.1 236.1,44.5 Q235.7,43.9 235.7,42.0 Q235.7,40.1 236.1,39.5 Q236.6,38.9 238.1,38.9 Q239.5,38.9 240.0,39.5 Q240.5,40.1 240.5,42.0 Q240.5,43.9 240.0,44.5 Q239.5,45.1 238.1,45.1 Z"/><path d="M244.6,46.0 L245.6,46.0 L245.6,41.8 Q245.6,41.0 245.5,40.5 Q245.5,40.1 245.4,39.3 L245.5,39.3 L246.4,41.0 L249.3,46.0 L250.3,46.0 L250.3,38.0 L249.4,38.0 L249.4,42.2 Q249.4,43.0 249.4,43.4 Q249.4,43.9 249.5,44.7 L249.5,44.7 L248.6,43.0 L245.6,38.0 L244.6,38.0 L244.6,46.0 Z"/></g>
  <g fill="#a8702a"><path d="M414.6,35.0 L415.6,35.0 L415.6,32.9 L416.8,32.9 L416.8,32.0 L415.6,32.0 L415.6,26.0 L414.4,26.0 L410.7,32.2 L410.7,32.9 L414.6,32.9 L414.6,35.0 Z M414.6,32.0 L411.9,32.0 L413.9,28.7 Q414.1,28.2 414.2,27.9 Q414.4,27.7 414.6,27.2 L414.6,27.2 Q414.6,27.7 414.6,28.1 Q414.6,28.5 414.6,29.0 L414.6,32.0 Z"/><path d="M424.3,35.0 Q425.8,35.0 426.2,34.6 Q426.7,34.1 426.7,33.0 Q426.7,31.8 426.1,31.6 Q425.6,31.4 424.7,31.0 Q424.0,30.7 423.6,30.6 Q423.3,30.5 423.3,29.8 Q423.3,29.3 423.5,29.1 Q423.7,28.9 424.5,28.9 Q425.1,28.9 425.3,29.0 Q425.5,29.1 426.0,29.5 L426.5,28.8 Q426.0,28.3 425.6,28.2 Q425.3,28.0 424.5,28.0 Q423.0,28.0 422.6,28.4 Q422.2,28.8 422.2,29.9 Q422.2,31.0 422.7,31.3 Q423.2,31.5 424.1,31.8 Q424.8,32.1 425.2,32.3 Q425.6,32.4 425.6,33.1 Q425.6,33.7 425.4,33.9 Q425.2,34.2 424.3,34.2 Q423.6,34.2 423.3,34.0 Q423.0,33.8 422.4,33.4 L421.9,34.1 Q422.5,34.6 422.9,34.8 Q423.4,35.0 424.3,35.0 Z"/><path d="M429.1,35.0 L430.2,35.0 L430.2,33.2 L431.4,31.6 L433.3,35.0 L434.5,35.0 L432.0,30.8 L434.2,28.0 L433.0,28.0 L430.2,31.7 L430.2,31.7 L430.2,25.0 L429.1,25.0 L429.1,35.0 Z"/><path d="M436.6,35.0 L437.7,35.0 L437.7,28.0 L436.6,28.0 L436.6,35.0 Z M437.1,26.5 Q437.6,26.5 437.7,26.3 Q437.9,26.2 437.9,25.7 Q437.9,25.3 437.7,25.1 Q437.6,25.0 437.1,25.0 Q436.7,25.0 436.6,25.1 Q436.4,25.3 436.4,25.7 Q436.4,26.2 436.6,26.3 Q436.7,26.5 437.1,26.5 Z"/><path d="M441.2,35.0 Q441.5,35.0 441.6,35.0 Q441.7,35.0 441.9,34.9 L441.7,34.1 Q441.6,34.1 441.6,34.1 Q441.6,34.1 441.5,34.1 Q441.3,34.1 441.3,34.0 Q441.2,34.0 441.2,33.6 L441.2,25.3 L440.1,25.3 L440.1,33.6 Q440.1,34.5 440.3,34.7 Q440.4,35.0 441.2,35.0 Z"/><path d="M444.8,35.0 Q445.0,35.0 445.1,35.0 Q445.2,35.0 445.4,34.9 L445.2,34.1 Q445.1,34.1 445.1,34.1 Q445.1,34.1 445.0,34.1 Q444.8,34.1 444.8,34.0 Q444.7,34.0 444.7,33.6 L444.7,25.3 L443.6,25.3 L443.6,33.6 Q443.6,34.5 443.8,34.7 Q443.9,35.0 444.8,35.0 Z"/><path d="M448.8,35.0 Q450.3,35.0 450.7,34.6 Q451.2,34.1 451.2,33.0 Q451.2,31.8 450.6,31.6 Q450.1,31.4 449.2,31.0 Q448.5,30.7 448.1,30.6 Q447.8,30.5 447.8,29.8 Q447.8,29.3 448.0,29.1 Q448.2,28.9 449.0,28.9 Q449.6,28.9 449.8,29.0 Q450.0,29.1 450.5,29.5 L451.0,28.8 Q450.5,28.3 450.1,28.2 Q449.8,28.0 449.0,28.0 Q447.5,28.0 447.1,28.4 Q446.7,28.8 446.7,29.9 Q446.7,31.0 447.2,31.3 Q447.7,31.5 448.6,31.8 Q449.3,32.1 449.7,32.3 Q450.1,32.4 450.1,33.1 Q450.1,33.7 449.9,33.9 Q449.7,34.2 448.8,34.2 Q448.1,34.2 447.8,34.0 Q447.5,33.8 446.9,33.4 L446.4,34.1 Q447.0,34.6 447.4,34.8 Q447.9,35.0 448.8,35.0 Z"/></g>
</svg>
