<svg xmlns="http://www.w3.org/2000/svg" viewBox="0 0 470 72" width="470" height="72" role="img" aria-label="论证组织与评估">
  <defs><linearGradient id="cb" x1="0" y1="0" x2="0" y2="1"><stop offset="0" stop-color="#2b313c"/><stop offset="1" stop-color="#1f232b"/></linearGradient></defs>
  <rect x="1" y="1" width="468" height="70" rx="12" fill="url(#cb)" stroke="#b08d57" stroke-opacity="0.4"/>
  <path d="M13 1 H46 V71 H13 a12 12 0 0 1 -12 -12 V13 a12 12 0 0 1 12 -12 Z" fill="#c0392b" opacity="0.94"/>
  <g fill="#f4ede0"><path d="M19.5,22.9 L19.2,23.0 Q20.2,24.5 20.7,25.6 Q21.3,26.7 21.5,28.6 Q24.2,30.8 25.4,28.2 Q26.7,25.5 19.5,22.9 Z M26.6,28.3 L26.2,28.5 Q26.9,29.9 27.2,31.0 Q27.5,32.1 27.4,34.0 Q29.6,36.3 31.1,33.9 Q32.6,31.5 26.6,28.3 Z M10.9,28.6 L10.5,28.7 Q11.1,30.1 11.4,31.2 Q11.7,32.2 11.6,34.0 Q13.7,36.3 15.1,34.0 Q16.6,31.8 10.9,28.6 Z M24.1,33.4 Q24.8,33.3 24.9,33.2 Q25.1,33.1 25.3,32.9 L22.8,30.5 L21.5,32.0 L18.6,32.0 L18.9,32.9 L21.1,32.9 L21.1,45.0 Q21.1,45.5 21.0,45.7 Q21.0,45.8 19.8,46.5 L22.0,50.0 Q22.3,49.8 22.5,49.5 Q22.7,49.3 22.9,48.6 Q24.9,46.2 25.7,45.1 Q26.5,44.0 27.3,42.9 L27.1,42.6 L24.1,44.4 L24.1,33.4 Z M18.1,33.1 L16.7,35.0 L15.5,35.0 Q16.8,33.7 17.4,32.9 Q18.0,32.0 18.7,30.6 Q19.4,30.6 19.6,30.5 Q19.8,30.4 19.8,30.0 L15.9,28.8 Q15.7,30.8 15.5,32.0 Q15.3,33.3 14.8,35.0 L8.8,35.0 L9.0,35.8 L12.9,35.8 L12.9,39.9 L12.9,40.1 L9.2,40.1 L9.4,41.0 L12.9,41.0 Q12.9,44.4 12.6,46.3 Q12.3,48.2 9.5,51.2 L9.8,51.6 Q14.8,48.8 15.3,46.7 Q15.8,44.6 15.9,41.0 L19.7,41.0 Q20.1,41.0 20.3,40.9 Q20.4,40.9 20.5,40.5 Q19.5,39.5 18.7,38.7 Q17.9,38.0 17.9,38.0 L16.4,40.1 L15.9,40.1 L15.9,39.9 L15.9,35.8 L19.9,35.8 Q20.3,35.8 20.5,35.8 Q20.6,35.7 20.7,35.4 Q19.8,34.4 18.9,33.8 Q18.1,33.1 18.1,33.1 Z M18.1,25.1 L16.6,27.2 L15.3,27.2 Q16.7,26.5 16.8,25.1 Q16.9,23.7 12.2,22.5 L12.0,22.7 Q12.7,23.7 13.0,24.5 Q13.3,25.4 13.3,26.8 Q13.5,27.0 13.5,27.0 Q13.6,27.1 13.8,27.2 L9.0,27.2 L9.2,28.0 L20.1,28.0 Q20.5,28.0 20.6,27.9 Q20.8,27.9 20.9,27.5 Q19.8,26.5 19.0,25.8 Q18.1,25.1 18.1,25.1 Z M34.2,25.1 L32.7,27.2 L30.8,27.2 Q32.6,26.9 33.0,25.2 Q33.4,23.6 28.1,22.4 L27.8,22.6 Q28.5,23.6 28.8,24.4 Q29.1,25.2 29.1,26.6 Q29.5,26.9 29.6,27.0 Q29.8,27.1 30.2,27.2 L24.8,27.2 L25.0,28.0 L36.1,28.0 Q36.5,28.0 36.7,27.9 Q36.8,27.9 36.9,27.5 Q35.9,26.5 35.1,25.8 Q34.2,25.1 34.2,25.1 Z M34.6,32.8 L33.1,35.0 L31.5,35.0 Q32.9,33.4 33.5,32.5 Q34.2,31.5 34.9,30.0 Q35.6,30.1 35.7,29.9 Q35.9,29.8 36.0,29.4 L32.1,28.3 Q31.9,30.3 31.6,31.6 Q31.4,33.0 30.8,35.0 L24.5,35.0 L24.8,35.9 L29.0,35.9 L29.0,41.0 L25.4,41.0 L25.6,41.8 L29.0,41.8 L29.0,51.6 L29.5,51.6 Q31.2,51.6 31.6,51.3 Q32.1,51.0 32.1,50.8 L32.1,41.8 L35.9,41.8 Q36.3,41.8 36.5,41.8 Q36.6,41.7 36.7,41.4 Q35.7,40.3 34.9,39.4 Q34.0,38.6 34.0,38.6 L32.5,41.0 L32.1,41.0 L32.1,35.9 L36.4,35.9 Q36.8,35.9 37.0,35.8 Q37.1,35.7 37.2,35.4 Q36.2,34.4 35.4,33.6 Q34.6,32.8 34.6,32.8 Z"/></g>
  <g fill="#f4ede0"><path d="M73.4,16.0 Q74.7,17.0 75.6,17.8 Q76.5,18.5 77.2,19.4 L79.2,17.2 Q78.3,16.3 77.4,15.6 Q76.5,15.0 75.2,14.1 L73.4,16.0 Z M87.8,22.3 Q86.7,23.2 85.9,23.7 Q85.1,24.1 83.5,24.9 L83.5,21.8 L82.2,21.8 Q83.4,20.5 83.9,19.9 Q84.4,19.2 85.3,17.8 Q86.6,20.1 87.4,21.1 Q88.2,22.1 90.0,23.5 Q90.5,22.8 90.9,22.2 Q91.4,21.7 92.1,21.2 Q90.0,19.8 89.0,18.6 Q87.9,17.4 86.8,15.1 L87.1,14.5 L84.0,13.9 Q82.9,16.7 82.0,18.3 Q81.0,19.8 78.1,22.0 Q78.7,22.5 79.2,23.0 Q79.6,23.6 80.0,24.2 L80.6,23.8 L80.6,29.4 Q80.6,32.2 81.0,32.6 Q81.4,33.0 84.4,33.0 Q85.0,33.0 86.0,33.0 Q87.1,33.0 87.7,33.0 Q90.2,33.0 90.6,32.5 Q91.0,32.0 91.3,28.7 Q90.6,28.6 90.0,28.3 Q89.4,28.1 88.7,27.6 Q88.6,30.0 88.5,30.2 Q88.4,30.4 87.5,30.4 Q86.9,30.4 86.0,30.4 Q85.2,30.4 84.7,30.4 Q83.7,30.4 83.6,30.4 Q83.5,30.3 83.5,29.4 L83.5,28.2 Q85.5,27.5 86.6,27.0 Q87.8,26.4 89.7,25.4 L87.8,22.3 Z M72.5,20.2 L72.5,23.0 L75.1,23.0 L75.1,29.2 Q75.1,30.4 74.9,30.8 Q74.6,31.2 74.1,31.6 Q74.5,32.0 74.9,32.5 Q75.3,33.1 75.5,33.9 Q75.9,33.1 76.3,32.8 Q76.7,32.5 80.3,29.3 Q80.0,28.7 79.8,28.1 Q79.5,27.5 79.3,26.7 L77.9,27.9 L77.9,20.2 L72.5,20.2 Z"/><path d="M93.4,16.2 Q94.5,17.2 95.2,17.9 Q96.0,18.5 96.6,19.4 L98.6,17.5 Q97.9,16.6 97.1,16.0 Q96.3,15.3 95.2,14.3 L93.4,16.2 Z M99.2,30.3 L99.2,33.0 L111.5,33.0 L111.5,30.3 L107.8,30.3 L107.8,25.0 L110.7,25.0 L110.7,22.3 L107.8,22.3 L107.8,18.0 L111.1,18.0 L111.1,15.3 L99.6,15.3 L99.6,18.0 L104.8,18.0 L104.8,30.3 L103.4,30.3 L103.4,21.1 L100.5,21.1 L100.5,30.3 L99.2,30.3 Z M92.7,20.2 L92.7,23.0 L94.8,23.0 L94.8,28.6 Q94.8,30.1 94.4,30.6 Q94.0,31.1 93.5,31.7 Q93.9,32.0 94.4,32.5 Q94.9,33.0 95.2,33.6 Q95.6,33.0 96.0,32.6 Q96.3,32.3 100.1,28.7 Q99.8,28.1 99.5,27.5 Q99.2,26.8 99.0,25.9 L97.6,27.2 L97.6,20.2 L92.7,20.2 Z"/><path d="M112.9,30.1 L113.4,33.1 Q115.2,32.5 116.4,32.2 Q117.6,31.9 119.8,31.2 L119.8,33.6 L131.4,33.6 L131.4,31.0 L129.9,31.0 L129.9,15.0 L121.4,15.0 L121.4,31.0 L120.1,31.0 L119.8,28.3 Q117.2,29.0 115.9,29.4 Q114.6,29.7 112.9,30.1 Z M124.2,31.0 L124.2,28.0 L127.0,28.0 L127.0,31.0 L124.2,31.0 Z M124.2,23.0 L127.0,23.0 L127.0,25.5 L124.2,25.5 L124.2,23.0 Z M124.2,20.4 L124.2,17.6 L127.0,17.6 L127.0,20.4 L124.2,20.4 Z M113.4,23.5 Q113.8,23.3 114.0,23.2 Q114.2,23.2 115.8,23.0 Q115.2,23.8 115.0,24.1 Q114.7,24.4 114.4,24.7 Q113.8,25.4 113.5,25.6 Q113.3,25.8 112.8,26.0 Q113.0,26.6 113.3,27.2 Q113.5,27.8 113.6,28.4 Q114.2,28.0 114.6,27.9 Q115.1,27.7 120.2,26.8 Q120.2,26.2 120.2,25.7 Q120.2,25.2 120.3,24.5 L117.2,24.9 Q118.5,23.5 119.1,22.6 Q119.7,21.8 120.7,19.9 L118.5,18.2 Q118.1,19.0 117.9,19.4 Q117.8,19.8 117.4,20.6 L115.9,20.7 Q117.0,18.9 117.5,17.9 Q118.0,16.8 118.8,15.1 L116.2,13.9 Q115.5,16.2 114.9,17.5 Q114.2,18.9 113.8,19.6 Q113.3,20.4 113.2,20.6 Q113.0,20.8 112.5,20.9 Q112.9,21.6 113.1,22.3 Q113.3,23.0 113.4,23.5 Z"/><path d="M143.4,18.0 L147.3,18.0 L147.3,23.0 L143.4,23.0 L143.4,18.0 Z M146.1,28.1 Q147.2,30.0 147.7,31.2 Q148.2,32.4 148.6,33.9 L151.5,32.8 Q151.1,31.2 150.5,30.0 Q149.9,28.9 148.9,27.1 L146.1,28.1 Z M140.5,15.2 L140.5,20.0 L138.3,18.4 Q137.9,19.3 137.7,19.7 Q137.5,20.2 137.1,21.0 L135.8,21.0 Q136.9,19.2 137.5,18.2 Q138.0,17.1 138.8,15.3 L136.0,14.0 Q135.4,16.3 134.7,17.7 Q134.0,19.0 133.6,19.7 Q133.1,20.5 132.9,20.7 Q132.8,20.9 132.3,21.1 Q132.6,21.8 132.9,22.5 Q133.1,23.2 133.2,23.8 Q133.6,23.6 133.8,23.6 Q134.0,23.5 135.5,23.3 Q135.0,24.1 134.7,24.4 Q134.5,24.8 134.2,25.0 Q133.5,25.8 133.3,26.0 Q133.1,26.2 132.5,26.4 Q132.9,27.1 133.1,27.8 Q133.3,28.4 133.4,29.0 Q134.0,28.6 134.5,28.5 Q134.9,28.3 139.9,27.4 Q139.8,26.7 139.8,26.1 Q139.9,25.5 140.0,24.8 L137.2,25.2 Q138.4,23.7 139.0,22.9 Q139.5,22.1 140.5,20.4 L140.5,25.8 L150.3,25.8 L150.3,15.2 L140.5,15.2 Z M141.6,27.2 Q141.2,28.6 140.9,29.3 Q140.6,30.0 139.9,31.1 L139.6,28.9 Q137.0,29.5 135.7,29.8 Q134.3,30.1 132.5,30.4 L133.0,33.4 L139.4,31.7 Q139.2,31.9 139.1,32.0 Q139.0,32.0 138.9,32.2 Q139.6,32.6 140.3,33.0 Q140.9,33.5 141.5,34.0 Q142.8,32.5 143.4,31.4 Q144.0,30.2 144.7,27.9 L141.6,27.2 Z"/><path d="M157.2,14.0 Q156.7,17.1 156.3,19.5 Q156.0,21.9 155.3,24.6 L158.4,24.9 L158.5,24.0 L164.7,24.0 L164.6,26.0 L152.9,26.0 L152.9,28.8 L164.2,28.8 Q164.0,29.8 163.8,30.2 Q163.7,30.5 163.4,30.7 Q163.1,31.0 163.0,31.0 Q162.9,31.0 162.5,31.0 Q161.9,31.0 161.2,31.0 Q160.6,31.0 159.3,30.9 Q159.9,31.7 160.1,32.3 Q160.3,33.0 160.4,33.8 Q161.6,33.9 162.2,33.9 Q162.9,33.9 163.7,33.8 Q164.6,33.6 165.0,33.5 Q165.3,33.4 166.0,32.6 Q166.5,32.0 166.7,31.5 Q166.9,30.9 167.2,28.8 L171.2,28.8 L171.2,26.0 L167.5,26.0 L167.8,22.6 Q167.8,22.2 167.8,21.8 Q167.9,21.3 167.9,21.3 L159.1,21.3 L159.4,19.0 L168.9,19.0 L168.9,16.2 L159.9,16.2 L160.2,14.2 L157.2,14.0 Z"/><path d="M188.4,18.3 Q188.2,19.8 188.0,20.7 Q187.8,21.7 187.4,23.0 L189.7,23.6 Q190.2,22.3 190.4,21.5 Q190.7,20.6 191.2,18.9 L188.4,18.3 Z M179.4,18.9 Q179.8,20.3 180.0,21.3 Q180.2,22.2 180.3,23.5 L182.9,22.8 Q182.7,21.6 182.5,20.7 Q182.3,19.8 181.9,18.3 L179.4,18.9 Z M173.3,16.1 Q174.3,17.1 175.1,17.8 Q175.8,18.5 176.4,19.4 L178.4,17.4 Q177.7,16.5 176.9,15.9 Q176.2,15.2 175.1,14.3 L173.3,16.1 Z M179.2,15.0 L179.2,17.8 L183.7,17.8 L183.7,24.2 L178.8,24.2 L178.8,27.0 L183.7,27.0 L183.7,33.9 L186.7,33.9 L186.7,27.0 L191.5,27.0 L191.5,24.2 L186.7,24.2 L186.7,17.8 L190.8,17.8 L190.8,15.0 L179.2,15.0 Z M172.6,20.2 L172.6,23.0 L174.7,23.0 L174.7,29.0 Q174.7,30.0 174.4,30.4 Q174.2,30.7 173.7,31.1 Q174.2,31.7 174.5,32.3 Q174.8,33.0 175.0,33.8 Q175.3,33.2 175.7,32.8 Q176.0,32.5 179.5,29.1 Q179.2,28.5 178.9,27.8 Q178.7,27.2 178.5,26.4 L177.4,27.4 L177.4,20.2 L172.6,20.2 Z"/><path d="M196.5,14.1 Q195.6,17.1 194.8,18.5 Q193.9,19.9 192.2,21.7 Q192.7,22.4 193.1,23.2 Q193.5,24.1 193.7,24.8 Q194.0,24.5 194.2,24.3 Q194.3,24.2 194.6,23.8 L194.6,33.9 L197.4,33.9 L197.4,19.5 Q198.1,18.1 198.4,17.3 Q198.8,16.5 199.3,15.0 L196.5,14.1 Z M198.6,18.2 L198.6,21.0 L203.4,21.0 L203.4,24.3 L199.4,24.3 L199.4,34.0 L202.3,34.0 L202.3,33.0 L207.4,33.0 L207.4,33.9 L210.5,33.9 L210.5,24.3 L206.4,24.3 L206.4,21.0 L211.5,21.0 L211.5,18.2 L206.4,18.2 L206.4,14.0 L203.4,14.0 L203.4,18.2 L198.6,18.2 Z M202.3,30.3 L202.3,27.0 L207.4,27.0 L207.4,30.3 L202.3,30.3 Z"/></g>
  <g fill="#9aa3b2"><path d="M72.0,54.0 L73.2,54.0 L74.0,51.0 L77.2,51.0 L78.1,54.0 L79.2,54.0 L76.2,45.0 L75.0,45.0 L72.0,54.0 Z M74.3,50.1 L74.7,48.8 Q75.0,47.8 75.2,47.4 Q75.3,46.9 75.6,45.9 L75.6,45.9 Q75.9,46.9 76.1,47.4 Q76.2,47.8 76.5,48.8 L77.0,50.1 L74.3,50.1 Z"/><path d="M82.3,49.1 L82.3,45.9 L83.8,45.9 Q85.2,45.9 85.5,46.1 Q85.9,46.3 85.9,47.4 Q85.9,48.6 85.5,48.8 Q85.2,49.1 83.8,49.1 L82.3,49.1 Z M86.0,54.0 L87.3,54.0 L85.0,49.9 Q86.2,49.6 86.6,49.2 Q87.0,48.8 87.0,47.4 Q87.0,45.6 86.4,45.3 Q85.7,45.0 84.0,45.0 L81.2,45.0 L81.2,54.0 L82.3,54.0 L82.3,50.0 L83.9,50.0 L86.0,54.0 Z"/><path d="M93.7,54.0 Q94.8,54.0 95.3,53.8 Q95.8,53.6 96.4,53.0 L96.4,49.1 L93.5,49.1 L93.5,50.0 L95.3,50.0 L95.3,52.5 Q95.0,52.8 94.7,52.9 Q94.4,53.0 93.8,53.0 Q91.9,53.0 91.4,52.3 Q90.8,51.5 90.8,49.2 Q90.8,47.2 91.4,46.6 Q92.0,46.0 93.8,46.0 Q94.6,46.0 94.9,46.1 Q95.2,46.3 95.7,46.7 L96.2,46.1 Q95.8,45.6 95.3,45.3 Q94.9,45.0 93.7,45.0 Q91.4,45.0 90.5,45.8 Q89.7,46.7 89.7,49.2 Q89.7,52.3 90.5,53.1 Q91.3,54.0 93.7,54.0 Z"/><path d="M102.3,54.0 Q104.1,54.0 104.8,53.5 Q105.5,53.0 105.5,50.2 L105.5,45.0 L104.4,45.0 L104.4,50.2 Q104.4,52.4 103.9,52.7 Q103.5,53.0 102.3,53.0 Q101.2,53.0 100.7,52.7 Q100.3,52.4 100.3,50.2 L100.3,45.0 L99.2,45.0 L99.2,50.2 Q99.2,53.0 99.8,53.5 Q100.5,54.0 102.3,54.0 Z"/><path d="M109.2,54.0 L110.2,54.0 L110.2,49.0 Q110.2,48.2 110.2,47.7 Q110.1,47.1 110.1,46.3 L110.1,46.3 L110.8,48.4 L112.5,53.0 L113.2,53.0 L114.9,48.4 L115.6,46.3 L115.6,46.3 Q115.6,47.1 115.5,47.7 Q115.5,48.2 115.5,49.0 L115.5,54.0 L116.5,54.0 L116.5,45.0 L115.2,45.0 L113.5,49.8 Q113.3,50.4 113.2,50.7 Q113.1,51.0 112.9,51.6 L112.8,51.6 Q112.6,51.0 112.5,50.7 Q112.4,50.4 112.2,49.8 L110.5,45.0 L109.2,45.0 L109.2,54.0 Z"/><path d="M120.2,54.0 L125.4,54.0 L125.4,53.1 L121.3,53.1 L121.3,50.0 L124.6,50.0 L124.6,49.0 L121.3,49.0 L121.3,45.9 L125.3,45.9 L125.3,45.0 L120.2,45.0 L120.2,54.0 Z"/><path d="M128.2,54.0 L129.2,54.0 L129.2,49.3 Q129.2,48.3 129.2,47.8 Q129.2,47.3 129.1,46.4 L129.2,46.4 L130.1,48.3 L133.3,54.0 L134.5,54.0 L134.5,45.0 L133.4,45.0 L133.4,49.7 Q133.4,50.6 133.4,51.2 Q133.5,51.7 133.5,52.6 L133.5,52.6 L132.5,50.7 L129.3,45.0 L128.2,45.0 L128.2,54.0 Z"/><path d="M140.0,54.0 L141.1,54.0 L141.1,45.9 L143.8,45.9 L143.8,45.0 L137.4,45.0 L137.4,45.9 L140.0,45.9 L140.0,54.0 Z"/><path d="M145.0,54.0 L146.2,54.0 L147.0,51.0 L150.2,51.0 L151.1,54.0 L152.2,54.0 L149.2,45.0 L148.0,45.0 L145.0,54.0 Z M147.3,50.1 L147.7,48.8 Q148.0,47.8 148.2,47.4 Q148.3,46.9 148.6,45.9 L148.6,45.9 Q148.9,46.9 149.1,47.4 Q149.2,47.8 149.5,48.8 L150.0,50.1 L147.3,50.1 Z"/><path d="M156.0,54.0 L157.1,54.0 L157.1,45.9 L159.8,45.9 L159.8,45.0 L153.4,45.0 L153.4,45.9 L156.0,45.9 L156.0,54.0 Z"/><path d="M162.2,54.0 L163.3,54.0 L163.3,45.0 L162.2,45.0 L162.2,54.0 Z"/><path d="M170.4,54.0 Q172.7,54.0 173.4,53.1 Q174.2,52.2 174.2,49.5 Q174.2,46.7 173.4,45.9 Q172.7,45.0 170.4,45.0 Q168.2,45.0 167.5,45.9 Q166.7,46.7 166.7,49.5 Q166.7,52.2 167.5,53.1 Q168.2,54.0 170.4,54.0 Z M170.4,53.0 Q168.9,53.0 168.3,52.3 Q167.8,51.6 167.8,49.5 Q167.8,47.3 168.3,46.6 Q168.9,46.0 170.4,46.0 Q172.0,46.0 172.5,46.6 Q173.1,47.3 173.1,49.5 Q173.1,51.6 172.5,52.3 Q172.0,53.0 170.4,53.0 Z"/><path d="M177.2,54.0 L178.2,54.0 L178.2,49.3 Q178.2,48.3 178.2,47.8 Q178.2,47.3 178.1,46.4 L178.2,46.4 L179.1,48.3 L182.3,54.0 L183.5,54.0 L183.5,45.0 L182.4,45.0 L182.4,49.7 Q182.4,50.6 182.4,51.2 Q182.5,51.7 182.5,52.6 L182.5,52.6 L181.5,50.7 L178.3,45.0 L177.2,45.0 L177.2,54.0 Z"/><path d="M193.1,54.0 Q194.1,54.0 194.5,53.8 Q195.0,53.6 195.6,53.0 Q196.3,53.5 196.7,53.7 Q197.0,53.9 197.7,54.0 L197.9,53.1 Q197.5,53.0 197.2,52.8 Q196.9,52.7 196.3,52.3 Q197.0,51.4 197.2,50.8 Q197.5,50.3 197.8,49.2 L196.8,49.2 Q196.5,50.2 196.3,50.6 Q196.1,51.0 195.6,51.7 Q194.8,51.0 194.3,50.6 Q193.9,50.2 193.3,49.3 Q194.3,48.6 194.8,48.2 Q195.3,47.9 195.3,46.7 Q195.3,45.7 195.0,45.4 Q194.7,45.0 193.6,45.0 Q192.4,45.0 192.0,45.5 Q191.6,45.9 191.6,47.0 Q191.6,47.7 191.7,48.0 Q191.8,48.4 192.2,49.1 Q191.2,49.7 190.8,50.1 Q190.4,50.4 190.4,51.6 Q190.4,53.0 191.0,53.5 Q191.5,54.0 193.1,54.0 Z M194.9,52.4 Q194.4,52.9 194.1,53.0 Q193.8,53.1 193.2,53.1 Q192.2,53.1 191.9,52.8 Q191.5,52.5 191.5,51.5 Q191.5,50.9 191.7,50.6 Q192.0,50.3 192.6,49.8 Q193.2,50.8 193.6,51.2 Q194.0,51.7 194.9,52.4 Z M192.9,48.6 Q192.7,48.0 192.6,47.8 Q192.5,47.5 192.5,47.0 Q192.5,46.3 192.7,46.1 Q192.9,45.8 193.6,45.8 Q194.2,45.8 194.3,46.0 Q194.4,46.2 194.4,46.8 Q194.4,47.5 194.1,47.8 Q193.8,48.0 192.9,48.6 Z"/><path d="M204.2,54.0 L209.4,54.0 L209.4,53.1 L205.3,53.1 L205.3,50.0 L208.6,50.0 L208.6,49.0 L205.3,49.0 L205.3,45.9 L209.3,45.9 L209.3,45.0 L204.2,45.0 L204.2,54.0 Z"/><path d="M213.8,54.0 L215.1,54.0 L217.9,45.0 L216.8,45.0 L215.3,49.9 Q215.0,51.0 214.9,51.4 Q214.8,51.8 214.5,52.9 L214.5,52.9 Q214.1,51.8 214.0,51.4 Q213.9,51.0 213.6,49.9 L212.2,45.0 L211.0,45.0 L213.8,54.0 Z"/><path d="M219.0,54.0 L220.2,54.0 L221.0,51.0 L224.2,51.0 L225.1,54.0 L226.2,54.0 L223.2,45.0 L222.0,45.0 L219.0,54.0 Z M221.3,50.1 L221.7,48.8 Q222.0,47.8 222.2,47.4 Q222.3,46.9 222.6,45.9 L222.6,45.9 Q222.9,46.9 223.1,47.4 Q223.2,47.8 223.5,48.8 L224.0,50.1 L221.3,50.1 Z"/><path d="M228.2,54.0 L233.2,54.0 L233.2,53.1 L229.3,53.1 L229.3,45.0 L228.2,45.0 L228.2,54.0 Z"/><path d="M239.3,54.0 Q241.1,54.0 241.8,53.5 Q242.5,53.0 242.5,50.2 L242.5,45.0 L241.4,45.0 L241.4,50.2 Q241.4,52.4 240.9,52.7 Q240.5,53.0 239.3,53.0 Q238.2,53.0 237.7,52.7 Q237.3,52.4 237.3,50.2 L237.3,45.0 L236.2,45.0 L236.2,50.2 Q236.2,53.0 236.8,53.5 Q237.5,54.0 239.3,54.0 Z"/><path d="M245.0,54.0 L246.2,54.0 L247.0,51.0 L250.2,51.0 L251.1,54.0 L252.2,54.0 L249.2,45.0 L248.0,45.0 L245.0,54.0 Z M247.3,50.1 L247.7,48.8 Q248.0,47.8 248.2,47.4 Q248.3,46.9 248.6,45.9 L248.6,45.9 Q248.9,46.9 249.1,47.4 Q249.2,47.8 249.5,48.8 L250.0,50.1 L247.3,50.1 Z"/><path d="M256.0,54.0 L257.1,54.0 L257.1,45.9 L259.8,45.9 L259.8,45.0 L253.4,45.0 L253.4,45.9 L256.0,45.9 L256.0,54.0 Z"/><path d="M262.2,54.0 L263.3,54.0 L263.3,45.0 L262.2,45.0 L262.2,54.0 Z"/><path d="M270.4,54.0 Q272.7,54.0 273.4,53.1 Q274.2,52.2 274.2,49.5 Q274.2,46.7 273.4,45.9 Q272.7,45.0 270.4,45.0 Q268.2,45.0 267.5,45.9 Q266.7,46.7 266.7,49.5 Q266.7,52.2 267.5,53.1 Q268.2,54.0 270.4,54.0 Z M270.4,53.0 Q268.9,53.0 268.3,52.3 Q267.8,51.6 267.8,49.5 Q267.8,47.3 268.3,46.6 Q268.9,46.0 270.4,46.0 Q272.0,46.0 272.5,46.6 Q273.1,47.3 273.1,49.5 Q273.1,51.6 272.5,52.3 Q272.0,53.0 270.4,53.0 Z"/><path d="M277.2,54.0 L278.2,54.0 L278.2,49.3 Q278.2,48.3 278.2,47.8 Q278.2,47.3 278.1,46.4 L278.2,46.4 L279.1,48.3 L282.3,54.0 L283.5,54.0 L283.5,45.0 L282.4,45.0 L282.4,49.7 Q282.4,50.6 282.4,51.2 Q282.5,51.7 282.5,52.6 L282.5,52.6 L281.5,50.7 L278.3,45.0 L277.2,45.0 L277.2,54.0 Z"/></g>
  <g transform="translate(410,21)">
    <rect x="0" y="0" width="44" height="30" rx="8" fill="#15171c" stroke="#b08d57" stroke-opacity="0.4"/>
    <g fill="#d8b988"><path d="M22.4,21.0 L25.0,21.0 L25.0,18.0 L26.3,18.0 L26.3,15.8 L25.0,15.8 L25.0,9.0 L21.5,9.0 L17.3,16.0 L17.3,18.0 L22.4,18.0 L22.4,21.0 Z M22.4,15.8 L20.1,15.8 L21.4,13.5 Q21.8,12.8 21.9,12.4 Q22.1,12.1 22.4,11.4 L22.5,11.4 Q22.4,12.2 22.4,12.8 Q22.4,13.3 22.4,14.1 L22.4,15.8 Z"/></g>
  </g>
</svg>
