<svg xmlns="http://www.w3.org/2000/svg" viewBox="0 0 470 72" width="470" height="72" role="img" aria-label="法律解释">
  <defs><linearGradient id="cb" x1="0" y1="0" x2="0" y2="1"><stop offset="0" stop-color="#2b313c"/><stop offset="1" stop-color="#1f232b"/></linearGradient></defs>
  <rect x="1" y="1" width="468" height="70" rx="12" fill="url(#cb)" stroke="#b08d57" stroke-opacity="0.4"/>
  <path d="M13 1 H46 V71 H13 a12 12 0 0 1 -12 -12 V13 a12 12 0 0 1 12 -12 Z" fill="#c0392b" opacity="0.94"/>
  <g fill="#f4ede0"><path d="M21.8,28.7 L18.1,27.5 Q18.0,28.9 17.7,30.5 Q17.4,32.0 17.0,33.9 L17.3,34.1 Q18.6,32.5 19.3,31.5 Q20.0,30.5 20.7,29.3 Q21.3,29.3 21.5,29.1 Q21.7,29.0 21.8,28.7 Z M10.2,27.9 L9.8,28.1 Q10.3,29.5 10.5,30.6 Q10.7,31.6 10.6,33.4 Q12.6,35.3 14.1,33.3 Q15.6,31.3 10.2,27.9 Z M31.7,36.2 L30.0,39.0 L28.8,39.0 L28.8,36.0 Q29.6,35.9 29.7,35.8 Q29.8,35.6 29.9,35.3 L25.4,34.9 L25.4,39.0 L20.4,39.0 L20.6,39.9 L25.4,39.9 L25.4,44.0 L18.9,44.0 L19.1,44.8 L25.4,44.8 L25.4,51.6 L26.0,51.6 Q27.3,51.6 28.1,51.3 Q28.8,51.0 28.8,50.7 L28.8,44.8 L36.1,44.8 Q36.5,44.8 36.7,44.8 Q36.8,44.7 36.9,44.4 Q35.7,43.1 34.6,42.2 Q33.5,41.3 33.5,41.3 L31.6,44.0 L28.8,44.0 L28.8,39.9 L33.9,39.9 Q34.3,39.9 34.5,39.8 Q34.7,39.7 34.8,39.4 Q33.6,38.1 32.6,37.2 Q31.7,36.2 31.7,36.2 Z M19.0,33.2 L17.7,35.0 L16.6,35.0 L16.6,26.3 Q17.6,26.1 18.1,26.0 Q18.5,25.9 19.3,25.7 Q20.0,26.0 20.3,26.0 Q20.6,26.0 20.9,25.8 L22.1,25.8 Q23.0,28.6 23.6,29.7 Q24.3,30.7 25.9,32.4 Q24.6,33.6 23.8,34.2 Q23.0,34.7 21.3,35.6 Q21.4,35.6 21.4,35.5 Q21.4,35.5 21.5,35.4 Q20.5,34.5 19.8,33.8 Q19.0,33.2 19.0,33.2 Z M16.6,50.7 L16.6,38.0 Q17.3,39.3 17.7,40.1 Q18.0,40.8 18.1,42.2 Q20.6,44.3 22.0,41.9 Q23.4,39.5 16.6,37.0 L16.6,35.9 L20.7,35.9 L20.8,35.9 Q20.3,36.2 20.0,36.3 Q19.7,36.4 19.1,36.7 L19.3,37.1 Q22.5,36.3 23.9,35.8 Q25.3,35.2 27.5,33.7 Q29.5,35.2 30.7,35.6 Q31.9,36.1 34.7,36.9 Q35.0,35.4 35.4,34.9 Q35.9,34.4 37.2,34.0 L37.2,33.7 Q34.5,33.3 33.3,33.0 Q32.1,32.8 29.9,31.9 Q31.7,30.3 32.4,29.4 Q33.1,28.5 34.2,26.4 Q34.8,26.3 35.0,26.3 Q35.1,26.2 35.3,25.9 L32.3,23.0 L30.4,25.0 L20.2,25.0 L17.9,22.5 Q16.0,23.9 14.1,24.8 Q12.2,25.8 9.2,26.7 L9.2,27.1 Q10.7,27.0 11.5,27.0 Q12.2,26.9 13.8,26.7 L13.8,35.0 L9.0,35.0 L9.3,35.9 L13.1,35.9 Q12.3,40.0 11.6,42.0 Q10.9,44.0 8.8,47.1 L9.1,47.5 Q11.0,45.9 11.8,44.9 Q12.5,44.0 13.8,42.0 L13.8,51.6 L14.3,51.6 Q15.7,51.6 16.1,51.3 Q16.6,50.9 16.6,50.7 Z M27.5,30.8 Q25.5,29.6 24.6,28.8 Q23.8,28.0 22.8,25.8 L30.4,25.8 Q29.7,27.6 29.2,28.4 Q28.7,29.3 27.5,30.8 Z"/></g>
  <g fill="#f4ede0"><path d="M73.6,16.5 Q74.9,17.1 75.7,17.6 Q76.5,18.1 77.3,18.8 L79.0,16.4 Q78.2,15.6 77.3,15.1 Q76.5,14.6 75.2,14.1 L73.6,16.5 Z M72.5,22.0 Q73.7,22.6 74.6,23.0 Q75.4,23.5 76.2,24.2 L77.8,21.7 Q76.9,21.0 76.1,20.6 Q75.2,20.2 74.0,19.8 L72.5,22.0 Z M72.9,31.6 L75.5,33.5 Q76.6,31.5 77.1,30.4 Q77.7,29.3 78.6,27.0 L76.4,25.1 Q75.3,27.5 74.6,28.8 Q73.9,30.1 72.9,31.6 Z M85.6,27.5 Q86.1,28.2 86.3,28.5 Q86.6,28.9 87.0,29.6 L82.8,29.9 Q83.4,28.4 83.8,27.6 Q84.1,26.7 84.7,25.1 L84.5,25.0 L91.2,25.0 L91.2,22.2 L86.2,22.2 L86.2,19.8 L90.3,19.8 L90.3,17.0 L86.2,17.0 L86.2,14.1 L83.1,14.1 L83.1,17.0 L79.2,17.0 L79.2,19.8 L83.1,19.8 L83.1,22.2 L78.2,22.2 L78.2,25.0 L81.2,25.0 Q80.9,26.7 80.5,27.6 Q80.2,28.5 79.6,30.0 L78.2,30.1 L78.6,33.0 Q81.3,32.8 83.1,32.6 Q84.9,32.5 88.4,32.2 Q88.7,32.8 88.8,33.0 Q88.9,33.3 89.0,33.9 L91.8,32.2 Q91.2,30.5 90.4,29.2 Q89.6,28.0 88.2,26.1 L85.6,27.5 Z"/><path d="M96.4,14.1 Q95.6,15.5 94.7,16.3 Q93.9,17.1 92.4,18.0 Q92.8,18.7 93.2,19.3 Q93.5,19.9 93.8,20.5 Q95.7,19.3 96.7,18.3 Q97.8,17.2 99.1,15.3 L96.4,14.1 Z M96.9,18.7 Q95.8,20.5 94.8,21.5 Q93.9,22.4 92.3,23.6 Q92.7,24.3 93.0,25.4 Q93.4,26.6 93.5,27.2 Q94.0,26.8 94.2,26.6 Q94.5,26.4 95.0,25.9 L95.0,34.0 L97.7,34.0 L97.7,22.1 Q98.1,21.6 98.3,21.3 Q98.5,21.1 98.9,20.5 L98.9,21.5 L103.3,21.5 L103.3,22.0 L99.5,22.0 L99.5,24.3 L103.3,24.3 L103.3,25.6 L99.2,25.6 L99.2,28.0 L103.3,28.0 L103.3,28.5 L98.5,28.5 L98.5,31.0 L103.3,31.0 L103.3,33.9 L106.1,33.9 L106.1,31.0 L111.3,31.0 L111.3,28.5 L106.1,28.5 L106.1,28.0 L110.6,28.0 L110.6,25.6 L106.1,25.6 L106.1,24.3 L110.4,24.3 L110.4,21.5 L111.5,21.5 L111.5,19.0 L110.4,19.0 L110.4,16.0 L106.1,16.0 L106.1,14.0 L103.3,14.0 L103.3,16.0 L99.6,16.0 L99.6,18.3 L103.3,18.3 L103.3,19.0 L98.9,19.0 L98.9,19.5 L96.9,18.7 Z M106.1,18.3 L107.7,18.3 L107.7,19.0 L106.1,19.0 L106.1,18.3 Z M106.1,22.0 L106.1,21.5 L107.7,21.5 L107.7,22.0 L106.1,22.0 Z"/><path d="M116.9,22.0 L116.9,23.0 L116.1,23.0 L116.1,22.0 L116.9,22.0 Z M118.8,22.0 L119.5,22.0 L119.5,23.0 L118.8,23.0 L118.8,22.0 Z M116.0,19.9 L116.5,18.2 L117.8,18.2 L117.4,19.9 L116.0,19.9 Z M115.1,14.0 Q114.6,16.4 114.1,17.7 Q113.6,19.1 112.2,20.8 Q112.7,21.1 113.0,21.4 Q113.3,21.6 113.8,22.1 L113.8,25.1 Q113.8,27.1 113.8,28.8 Q113.7,30.5 112.4,32.8 Q112.9,33.0 113.4,33.4 Q114.0,33.7 114.4,34.1 Q115.3,32.6 115.5,31.6 Q115.8,30.5 116.0,28.1 L119.5,28.1 L119.5,31.2 Q119.5,31.5 119.5,31.6 Q119.4,31.6 119.2,31.6 Q119.0,31.6 118.6,31.6 Q118.2,31.6 117.6,31.6 Q117.9,32.2 118.1,32.8 Q118.3,33.3 118.4,34.0 Q119.5,34.0 119.9,34.0 Q120.4,34.0 121.0,33.5 Q121.7,33.1 121.8,32.8 Q121.9,32.4 121.9,31.3 L121.9,26.9 Q122.4,27.2 122.8,27.4 Q123.2,27.6 123.6,27.9 Q123.8,27.5 123.9,27.2 Q124.1,27.0 124.2,26.4 L125.6,26.4 L125.6,28.0 L122.2,28.0 L122.2,30.5 L125.6,30.5 L125.6,33.9 L128.4,33.9 L128.4,30.5 L131.5,30.5 L131.5,28.0 L128.4,28.0 L128.4,26.4 L131.1,26.4 L131.1,24.0 L128.4,24.0 L128.4,22.2 L128.1,22.2 Q128.4,22.2 128.6,22.2 Q128.8,22.2 129.0,22.2 Q129.5,22.1 129.7,22.0 Q130.0,21.9 130.3,21.4 Q130.8,20.9 130.8,20.1 Q130.9,19.3 131.0,15.9 Q131.0,15.6 131.0,15.3 Q131.0,15.0 131.0,15.0 L122.0,15.0 L122.0,17.4 L124.0,17.4 Q123.8,18.9 123.5,19.6 Q123.2,20.2 121.9,20.9 L121.9,19.9 L119.8,19.9 Q120.1,18.7 120.3,18.2 Q120.5,17.6 120.8,16.9 L119.1,15.9 L118.8,16.0 L117.3,16.0 L117.7,14.6 L115.1,14.0 Z M116.9,25.0 L116.9,26.0 L116.1,26.0 L116.1,25.1 L116.1,25.0 L116.9,25.0 Z M118.8,25.0 L119.5,25.0 L119.5,26.0 L118.8,26.0 L118.8,25.0 Z M125.6,22.4 L125.6,24.0 L125.1,24.0 L125.3,23.0 L123.5,22.7 Q125.6,21.4 125.9,20.6 Q126.3,19.8 126.6,17.4 L128.4,17.4 Q128.4,18.9 128.3,19.2 Q128.2,19.5 128.1,19.8 Q128.0,20.0 127.9,20.0 Q127.8,20.0 127.6,20.0 Q127.3,20.0 127.1,20.0 Q126.9,20.0 126.4,19.9 Q126.7,20.6 126.9,21.1 Q127.0,21.7 127.0,22.4 L125.6,22.4 Z M121.9,26.2 L121.9,21.4 Q122.3,21.9 122.5,22.2 Q122.7,22.5 122.9,23.0 Q122.7,24.1 122.5,24.7 Q122.3,25.3 121.9,26.2 Z"/><path d="M141.1,15.0 L141.1,17.5 L142.0,17.5 Q142.5,18.5 142.8,19.0 Q143.1,19.5 143.9,20.3 Q142.8,20.9 142.2,21.1 Q141.6,21.4 140.4,21.7 L140.4,21.6 L138.0,21.6 L138.0,17.2 Q139.0,17.1 139.5,17.0 Q140.0,16.9 141.0,16.7 L139.7,14.5 Q137.7,15.1 136.4,15.4 Q135.0,15.6 132.5,15.9 Q132.8,16.5 132.9,16.9 Q133.1,17.4 133.2,18.0 Q133.9,18.0 134.3,18.0 Q134.7,17.9 135.4,17.9 L135.4,20.6 Q135.2,19.9 135.0,19.5 Q134.8,19.0 134.3,18.3 L132.4,18.9 Q132.9,19.7 133.1,20.2 Q133.3,20.7 133.5,21.4 L135.4,20.6 L135.4,21.6 L132.7,21.6 L132.7,24.0 L135.0,24.0 Q134.3,25.7 133.8,26.4 Q133.3,27.2 132.3,28.1 Q132.7,28.8 133.0,29.5 Q133.3,30.2 133.6,31.1 Q134.2,30.3 134.6,29.8 Q134.9,29.2 135.4,28.1 L135.4,34.0 L138.0,34.0 L138.0,27.5 Q138.4,27.9 138.6,28.2 Q138.8,28.4 139.1,28.8 L140.9,27.0 Q140.5,26.6 139.6,25.7 Q138.7,24.8 138.0,24.0 L140.4,24.0 L140.4,23.0 Q140.8,23.5 140.9,23.8 Q141.1,24.1 141.3,24.5 Q142.9,24.0 143.7,23.7 Q144.5,23.3 145.9,22.5 Q147.2,23.4 148.0,23.8 Q148.7,24.1 150.4,24.5 Q150.7,23.9 151.1,23.3 Q151.4,22.8 151.9,22.2 Q150.5,21.9 149.9,21.6 Q149.2,21.4 148.1,20.7 Q149.5,19.3 150.1,18.4 Q150.7,17.6 151.5,15.8 L149.8,14.9 L149.3,15.0 L141.1,15.0 Z M139.1,17.8 Q138.8,18.8 138.6,19.4 Q138.4,20.1 138.0,21.0 L140.0,21.5 Q140.4,20.7 140.6,20.1 Q140.8,19.6 141.2,18.4 L139.1,17.8 Z M147.4,17.5 Q146.9,18.1 146.7,18.3 Q146.4,18.6 145.9,19.1 Q145.4,18.6 145.1,18.4 Q144.9,18.1 144.5,17.5 L147.4,17.5 Z M144.3,23.6 L144.3,25.0 L141.3,25.0 L141.3,27.5 L144.3,27.5 L144.3,28.5 L140.4,28.5 L140.4,31.0 L144.3,31.0 L144.3,34.0 L147.2,34.0 L147.2,31.0 L151.2,31.0 L151.2,28.5 L147.2,28.5 L147.2,27.5 L150.2,27.5 L150.2,25.0 L147.2,25.0 L147.2,23.6 L144.3,23.6 Z"/></g>
  <g fill="#9aa3b2"><path d="M73.2,54.0 L78.2,54.0 L78.2,53.1 L74.3,53.1 L74.3,45.0 L73.2,45.0 L73.2,54.0 Z"/><path d="M81.2,54.0 L86.4,54.0 L86.4,53.1 L82.3,53.1 L82.3,50.0 L85.6,50.0 L85.6,49.0 L82.3,49.0 L82.3,45.9 L86.3,45.9 L86.3,45.0 L81.2,45.0 L81.2,54.0 Z"/><path d="M92.7,54.0 Q93.8,54.0 94.3,53.8 Q94.8,53.6 95.4,53.0 L95.4,49.1 L92.5,49.1 L92.5,50.0 L94.3,50.0 L94.3,52.5 Q94.0,52.8 93.7,52.9 Q93.4,53.0 92.8,53.0 Q90.9,53.0 90.4,52.3 Q89.8,51.5 89.8,49.2 Q89.8,47.2 90.4,46.6 Q91.0,46.0 92.8,46.0 Q93.6,46.0 93.9,46.1 Q94.2,46.3 94.7,46.7 L95.2,46.1 Q94.8,45.6 94.3,45.3 Q93.9,45.0 92.7,45.0 Q90.4,45.0 89.5,45.8 Q88.7,46.7 88.7,49.2 Q88.7,52.3 89.5,53.1 Q90.3,54.0 92.7,54.0 Z"/><path d="M97.0,54.0 L98.2,54.0 L99.0,51.0 L102.2,51.0 L103.1,54.0 L104.2,54.0 L101.2,45.0 L100.0,45.0 L97.0,54.0 Z M99.3,50.1 L99.7,48.8 Q100.0,47.8 100.2,47.4 Q100.3,46.9 100.6,45.9 L100.6,45.9 Q100.9,46.9 101.1,47.4 Q101.2,47.8 101.5,48.8 L102.0,50.1 L99.3,50.1 Z"/><path d="M106.2,54.0 L111.2,54.0 L111.2,53.1 L107.3,53.1 L107.3,45.0 L106.2,45.0 L106.2,54.0 Z"/><path d="M118.2,54.0 L119.3,54.0 L119.3,45.0 L118.2,45.0 L118.2,54.0 Z"/><path d="M123.2,54.0 L124.2,54.0 L124.2,49.3 Q124.2,48.3 124.2,47.8 Q124.2,47.3 124.1,46.4 L124.2,46.4 L125.1,48.3 L128.3,54.0 L129.5,54.0 L129.5,45.0 L128.4,45.0 L128.4,49.7 Q128.4,50.6 128.4,51.2 Q128.5,51.7 128.5,52.6 L128.5,52.6 L127.5,50.7 L124.3,45.0 L123.2,45.0 L123.2,54.0 Z"/><path d="M135.0,54.0 L136.1,54.0 L136.1,45.9 L138.8,45.9 L138.8,45.0 L132.4,45.0 L132.4,45.9 L135.0,45.9 L135.0,54.0 Z"/><path d="M141.2,54.0 L146.4,54.0 L146.4,53.1 L142.3,53.1 L142.3,50.0 L145.6,50.0 L145.6,49.0 L142.3,49.0 L142.3,45.9 L146.3,45.9 L146.3,45.0 L141.2,45.0 L141.2,54.0 Z"/><path d="M150.3,49.1 L150.3,45.9 L151.8,45.9 Q153.2,45.9 153.5,46.1 Q153.9,46.3 153.9,47.4 Q153.9,48.6 153.5,48.8 Q153.2,49.1 151.8,49.1 L150.3,49.1 Z M154.0,54.0 L155.3,54.0 L153.0,49.9 Q154.2,49.6 154.6,49.2 Q155.0,48.8 155.0,47.4 Q155.0,45.6 154.4,45.3 Q153.7,45.0 152.0,45.0 L149.2,45.0 L149.2,54.0 L150.3,54.0 L150.3,50.0 L151.9,50.0 L154.0,54.0 Z"/><path d="M158.2,54.0 L159.3,54.0 L159.3,50.0 L160.8,50.0 Q162.7,50.0 163.3,49.6 Q164.0,49.2 164.0,47.5 Q164.0,45.7 163.3,45.3 Q162.7,45.0 160.7,45.0 L158.2,45.0 L158.2,54.0 Z M159.3,49.1 L159.3,45.9 L160.6,45.9 Q162.1,45.9 162.5,46.1 Q162.9,46.3 162.9,47.5 Q162.9,48.6 162.5,48.9 Q162.2,49.1 160.6,49.1 L159.3,49.1 Z"/><path d="M168.3,49.1 L168.3,45.9 L169.8,45.9 Q171.2,45.9 171.5,46.1 Q171.9,46.3 171.9,47.4 Q171.9,48.6 171.5,48.8 Q171.2,49.1 169.8,49.1 L168.3,49.1 Z M172.0,54.0 L173.3,54.0 L171.0,49.9 Q172.2,49.6 172.6,49.2 Q173.0,48.8 173.0,47.4 Q173.0,45.6 172.4,45.3 Q171.7,45.0 170.0,45.0 L167.2,45.0 L167.2,54.0 L168.3,54.0 L168.3,50.0 L169.9,50.0 L172.0,54.0 Z"/><path d="M176.2,54.0 L181.4,54.0 L181.4,53.1 L177.3,53.1 L177.3,50.0 L180.6,50.0 L180.6,49.0 L177.3,49.0 L177.3,45.9 L181.3,45.9 L181.3,45.0 L176.2,45.0 L176.2,54.0 Z"/><path d="M186.0,54.0 L187.1,54.0 L187.1,45.9 L189.8,45.9 L189.8,45.0 L183.4,45.0 L183.4,45.9 L186.0,45.9 L186.0,54.0 Z"/><path d="M191.0,54.0 L192.2,54.0 L193.0,51.0 L196.2,51.0 L197.1,54.0 L198.2,54.0 L195.2,45.0 L194.0,45.0 L191.0,54.0 Z M193.3,50.1 L193.7,48.8 Q194.0,47.8 194.2,47.4 Q194.3,46.9 194.6,45.9 L194.6,45.9 Q194.9,46.9 195.1,47.4 Q195.2,47.8 195.5,48.8 L196.0,50.1 L193.3,50.1 Z"/><path d="M202.0,54.0 L203.1,54.0 L203.1,45.9 L205.8,45.9 L205.8,45.0 L199.4,45.0 L199.4,45.9 L202.0,45.9 L202.0,54.0 Z"/><path d="M208.2,54.0 L209.3,54.0 L209.3,45.0 L208.2,45.0 L208.2,54.0 Z"/><path d="M216.4,54.0 Q218.7,54.0 219.4,53.1 Q220.2,52.2 220.2,49.5 Q220.2,46.7 219.4,45.9 Q218.7,45.0 216.4,45.0 Q214.2,45.0 213.5,45.9 Q212.7,46.7 212.7,49.5 Q212.7,52.2 213.5,53.1 Q214.2,54.0 216.4,54.0 Z M216.4,53.0 Q214.9,53.0 214.3,52.3 Q213.8,51.6 213.8,49.5 Q213.8,47.3 214.3,46.6 Q214.9,46.0 216.4,46.0 Q218.0,46.0 218.5,46.6 Q219.1,47.3 219.1,49.5 Q219.1,51.6 218.5,52.3 Q218.0,53.0 216.4,53.0 Z"/><path d="M223.2,54.0 L224.2,54.0 L224.2,49.3 Q224.2,48.3 224.2,47.8 Q224.2,47.3 224.1,46.4 L224.2,46.4 L225.1,48.3 L228.3,54.0 L229.5,54.0 L229.5,45.0 L228.4,45.0 L228.4,49.7 Q228.4,50.6 228.4,51.2 Q228.5,51.7 228.5,52.6 L228.5,52.6 L227.5,50.7 L224.3,45.0 L223.2,45.0 L223.2,54.0 Z"/></g>
  <g transform="translate(410,21)">
    <rect x="0" y="0" width="44" height="30" rx="8" fill="#15171c" stroke="#b08d57" stroke-opacity="0.4"/>
    <g fill="#d8b988"><path d="M22.4,21.0 L25.0,21.0 L25.0,18.0 L26.3,18.0 L26.3,15.8 L25.0,15.8 L25.0,9.0 L21.5,9.0 L17.3,16.0 L17.3,18.0 L22.4,18.0 L22.4,21.0 Z M22.4,15.8 L20.1,15.8 L21.4,13.5 Q21.8,12.8 21.9,12.4 Q22.1,12.1 22.4,11.4 L22.5,11.4 Q22.4,12.2 22.4,12.8 Q22.4,13.3 22.4,14.1 L22.4,15.8 Z"/></g>
  </g>
</svg>
