<svg xmlns="http://www.w3.org/2000/svg" viewBox="0 0 470 56" width="470" height="56" role="img" aria-label="信息检索">
  <rect x="0.5" y="0.5" width="469" height="55" rx="6" fill="#e3e9f1"/>
  <rect x="0" y="0" width="4" height="56" rx="2" fill="#3a5a8c"/>
  <g fill="#3a5a8c"><path d="M17.6,36.0 Q19.9,36.0 20.7,35.0 Q21.5,34.0 21.5,30.0 Q21.5,25.9 20.7,25.0 Q19.9,24.0 17.6,24.0 Q15.2,24.0 14.4,24.9 Q13.6,25.9 13.6,30.0 Q13.6,34.0 14.4,35.0 Q15.2,36.0 17.6,36.0 Z M17.6,33.9 Q16.8,33.9 16.4,33.6 Q16.1,33.2 16.1,30.0 Q16.1,26.7 16.4,26.4 Q16.8,26.0 17.6,26.0 Q18.4,26.0 18.7,26.4 Q19.0,26.7 19.0,30.0 Q19.0,33.2 18.7,33.6 Q18.4,33.9 17.6,33.9 Z"/><path d="M23.2,36.0 L30.2,36.0 L30.2,33.8 L28.2,33.8 L28.2,24.0 L26.2,24.0 Q25.5,24.5 25.1,24.6 Q24.7,24.8 23.5,25.0 L23.5,26.7 L25.5,26.7 L25.5,33.8 L23.2,33.8 L23.2,36.0 Z"/></g>
  <g fill="#2a2d34"><path d="M52.2,13.9 L52.2,16.0 L61.0,16.0 L61.0,13.9 L52.2,13.9 Z M51.9,19.9 L51.9,22.0 L61.3,22.0 L61.3,19.9 L51.9,19.9 Z M51.9,22.9 L51.9,25.0 L61.2,25.0 L61.2,22.9 L51.9,22.9 Z M50.4,16.8 L50.4,19.0 L62.6,19.0 L62.6,16.8 L50.4,16.8 Z M51.5,25.9 L51.5,31.9 L54.2,31.9 L54.2,31.2 L58.8,31.2 L58.8,31.9 L61.6,31.9 L61.6,25.9 L51.5,25.9 Z M54.2,29.0 L54.2,28.0 L58.8,28.0 L58.8,29.0 L54.2,29.0 Z M48.6,13.1 Q47.6,15.9 46.8,17.3 Q45.9,18.7 44.1,20.6 Q44.6,21.2 45.0,22.1 Q45.3,23.0 45.5,23.7 Q46.0,23.2 46.2,23.0 Q46.4,22.7 46.8,22.0 L46.8,31.9 L49.5,31.9 L49.5,17.8 Q50.1,16.6 50.4,15.9 Q50.7,15.2 51.2,14.1 L48.6,13.1 Z"/><path d="M76.2,26.7 Q77.5,28.2 78.2,29.2 Q78.9,30.2 79.3,31.4 L81.8,29.9 Q81.2,28.4 80.5,27.5 Q79.8,26.5 78.5,25.4 L76.2,26.7 Z M65.3,25.6 Q65.0,27.1 64.6,27.9 Q64.2,28.7 63.3,29.8 L65.6,31.4 Q66.7,30.2 67.0,29.2 Q67.3,28.3 67.8,26.4 L65.3,25.6 Z M69.0,19.0 L76.1,19.0 L76.1,20.0 L69.0,20.0 L69.0,19.0 Z M69.0,22.0 L76.1,22.0 L76.1,22.9 L69.0,22.9 L69.0,22.0 Z M69.0,16.1 L76.1,16.1 L76.1,17.1 L69.0,17.1 L69.0,16.1 Z M71.0,12.7 Q71.0,13.1 70.9,13.3 Q70.9,13.6 70.7,14.0 L66.4,14.0 L66.4,25.0 L71.9,25.0 L70.5,25.7 L70.8,26.0 L68.3,26.0 L68.3,28.9 Q68.3,31.2 68.6,31.6 Q68.9,32.0 71.7,32.0 Q72.2,32.0 73.0,32.0 Q73.8,32.0 74.4,32.0 Q76.4,32.0 76.8,31.7 Q77.2,31.4 77.5,28.9 Q76.8,28.8 76.2,28.5 Q75.6,28.3 75.0,27.9 Q74.9,29.4 74.9,29.5 Q74.8,29.6 74.1,29.6 Q73.7,29.6 73.0,29.6 Q72.4,29.6 72.0,29.6 Q71.1,29.6 71.1,29.5 Q71.0,29.5 71.0,28.9 L71.0,26.2 Q71.8,27.1 72.1,27.6 Q72.5,28.1 72.9,28.9 L75.0,27.2 Q74.6,26.4 74.2,26.0 Q73.8,25.6 73.0,25.0 L78.9,25.0 L78.9,14.0 L73.8,14.0 Q74.0,13.7 74.1,13.5 Q74.2,13.4 74.4,13.0 L71.0,12.7 Z"/><path d="M89.4,23.2 Q89.8,24.8 90.0,25.8 Q90.2,26.9 90.3,28.2 L92.5,27.5 Q92.4,26.2 92.1,25.2 Q91.9,24.2 91.5,22.6 L89.4,23.2 Z M93.4,12.7 Q92.2,14.8 91.3,15.8 Q90.3,16.8 88.4,18.2 L88.4,16.5 L87.2,16.5 L87.2,13.0 L84.7,13.0 L84.7,16.5 L82.6,16.5 L82.6,19.0 L84.5,19.0 Q84.1,21.1 83.8,22.3 Q83.4,23.6 82.4,25.0 Q82.8,25.8 83.1,26.5 Q83.4,27.2 83.6,28.1 Q84.0,27.4 84.2,26.9 Q84.4,26.5 84.7,25.5 L84.7,32.0 L87.2,32.0 L87.2,23.3 Q87.4,23.9 87.6,24.2 Q87.7,24.5 87.8,24.9 L89.4,22.9 Q89.1,22.4 88.4,21.3 Q87.7,20.3 87.2,19.6 L87.2,19.0 L87.6,19.0 Q88.0,19.7 88.4,20.2 Q88.7,20.8 89.0,21.4 Q89.6,20.9 89.9,20.7 Q90.2,20.4 90.8,19.8 L90.8,21.3 L97.7,21.3 L97.7,19.7 Q98.3,20.2 98.6,20.4 Q99.0,20.6 99.5,21.0 Q99.8,20.2 100.1,19.5 Q100.3,18.9 100.8,18.1 Q98.9,17.3 97.9,16.5 Q96.8,15.7 95.4,14.3 L95.8,13.7 L93.4,12.7 Z M94.0,16.4 Q94.8,17.3 95.3,17.7 Q95.8,18.2 96.8,19.0 L91.7,19.0 Q92.5,18.2 92.9,17.7 Q93.2,17.3 94.0,16.4 Z M88.6,29.0 L88.6,31.4 L99.9,31.4 L99.9,29.0 L97.3,29.0 Q98.2,27.2 98.6,26.0 Q99.1,24.9 99.8,22.7 L97.5,22.2 Q97.1,23.6 96.8,24.6 Q96.5,25.5 95.9,27.1 Q95.8,25.7 95.6,24.8 Q95.4,23.8 95.1,22.2 L93.0,22.5 Q93.3,24.1 93.4,25.1 Q93.6,26.2 93.7,27.5 L95.9,27.1 Q95.6,27.8 95.5,28.1 Q95.4,28.5 95.1,29.0 L88.6,29.0 Z"/><path d="M112.5,28.5 Q114.0,29.5 115.0,30.2 Q116.0,30.9 116.9,31.8 L119.2,30.1 Q118.1,29.2 117.0,28.5 Q116.0,27.9 114.6,27.1 L112.5,28.5 Z M102.1,17.7 L102.1,22.0 L104.6,22.0 L104.0,22.6 Q104.9,23.2 105.5,23.6 Q106.0,24.0 106.9,24.7 L106.3,25.0 L102.1,25.0 L102.2,27.5 L105.6,27.4 Q104.6,28.3 103.8,28.8 Q103.0,29.2 101.6,29.8 Q102.2,30.2 102.7,30.8 Q103.2,31.3 103.7,31.9 Q105.3,31.1 106.2,30.4 Q107.2,29.7 108.4,28.2 L106.3,27.4 L109.0,27.3 L109.0,32.0 L111.8,32.0 L111.8,27.2 L116.4,27.0 Q116.7,27.3 116.9,27.5 Q117.0,27.6 117.2,27.9 L119.2,26.3 Q118.2,25.3 117.2,24.5 Q116.2,23.8 114.8,22.8 L113.0,24.3 L113.9,25.0 L110.5,25.0 Q112.1,24.0 113.0,23.5 Q113.8,22.9 115.2,21.8 L112.8,20.3 Q111.8,21.2 111.2,21.7 Q110.5,22.2 109.2,23.2 L108.4,22.6 Q109.2,22.0 109.7,21.5 Q110.2,21.1 111.1,20.3 L110.5,20.0 L116.2,20.0 L116.2,22.0 L118.9,22.0 L118.9,17.7 L111.8,17.7 L111.8,17.0 L118.6,17.0 L118.6,14.7 L111.8,14.7 L111.8,13.1 L109.0,13.1 L109.0,14.7 L102.3,14.7 L102.3,17.0 L109.0,17.0 L109.0,17.7 L102.1,17.7 Z M106.4,21.4 L105.7,21.0 L104.7,22.0 L104.7,20.0 L107.8,20.0 Q107.4,20.5 107.2,20.7 Q106.9,21.0 106.4,21.4 Z"/></g>
  <g fill="#5b606b"><path d="M45.1,46.0 L46.1,46.0 L46.1,38.0 L45.1,38.0 L45.1,46.0 Z"/><path d="M49.6,46.0 L50.6,46.0 L50.6,41.8 Q50.6,41.0 50.5,40.5 Q50.5,40.1 50.4,39.3 L50.5,39.3 L51.4,41.0 L54.3,46.0 L55.3,46.0 L55.3,38.0 L54.4,38.0 L54.4,42.2 Q54.4,43.0 54.4,43.4 Q54.4,43.9 54.5,44.7 L54.5,44.7 L53.6,43.0 L50.6,38.0 L49.6,38.0 L49.6,46.0 Z"/><path d="M59.1,46.0 L60.1,46.0 L60.1,42.0 L63.2,42.0 L63.2,41.2 L60.1,41.2 L60.1,38.9 L63.8,38.9 L63.8,38.0 L59.1,38.0 L59.1,46.0 Z"/><path d="M69.6,46.0 Q71.6,46.0 72.3,45.2 Q73.0,44.4 73.0,42.0 Q73.0,39.5 72.3,38.8 Q71.6,38.0 69.6,38.0 Q67.5,38.0 66.8,38.8 Q66.1,39.5 66.1,42.0 Q66.1,44.4 66.8,45.2 Q67.5,46.0 69.6,46.0 Z M69.6,45.1 Q68.1,45.1 67.6,44.5 Q67.2,43.9 67.2,42.0 Q67.2,40.1 67.6,39.5 Q68.1,38.9 69.6,38.9 Q71.0,38.9 71.5,39.5 Q72.0,40.1 72.0,42.0 Q72.0,43.9 71.5,44.5 Q71.0,45.1 69.6,45.1 Z"/><path d="M77.1,42.0 L77.1,38.8 L78.5,38.8 Q79.7,38.8 80.1,39.0 Q80.4,39.2 80.4,40.3 Q80.4,41.5 80.1,41.7 Q79.7,42.0 78.5,42.0 L77.1,42.0 Z M80.5,46.0 L81.7,46.0 L79.6,42.7 Q80.7,42.5 81.1,42.1 Q81.4,41.7 81.4,40.3 Q81.4,38.6 80.9,38.3 Q80.3,38.0 78.6,38.0 L76.1,38.0 L76.1,46.0 L77.1,46.0 L77.1,42.8 L78.6,42.8 L80.5,46.0 Z"/><path d="M84.6,46.0 L85.5,46.0 L85.5,41.6 Q85.5,40.9 85.5,40.4 Q85.5,39.9 85.4,39.2 L85.4,39.2 L86.1,41.1 L87.6,45.3 L88.3,45.3 L89.8,41.1 L90.5,39.2 L90.5,39.2 Q90.4,39.9 90.4,40.4 Q90.4,40.9 90.4,41.6 L90.4,46.0 L91.3,46.0 L91.3,38.0 L90.1,38.0 L88.5,42.3 Q88.4,42.9 88.3,43.2 Q88.2,43.5 88.0,44.0 L88.0,44.0 Q87.8,43.5 87.7,43.2 Q87.6,42.9 87.4,42.3 L85.8,38.0 L84.6,38.0 L84.6,46.0 Z"/><path d="M94.0,46.0 L95.1,46.0 L95.8,43.8 L98.8,43.8 L99.6,46.0 L100.6,46.0 L97.9,38.0 L96.8,38.0 L94.0,46.0 Z M96.1,43.0 L96.5,41.7 Q96.8,40.7 96.9,40.3 Q97.0,39.8 97.3,38.8 L97.3,38.8 Q97.6,39.8 97.7,40.3 Q97.9,40.7 98.2,41.7 L98.5,43.0 L96.1,43.0 Z"/><path d="M105.3,46.0 L106.3,46.0 L106.3,38.9 L108.7,38.9 L108.7,38.0 L102.8,38.0 L102.8,38.9 L105.3,38.9 L105.3,46.0 Z"/><path d="M112.1,46.0 L113.1,46.0 L113.1,38.0 L112.1,38.0 L112.1,46.0 Z"/><path d="M119.6,46.0 Q121.6,46.0 122.3,45.2 Q123.0,44.4 123.0,42.0 Q123.0,39.5 122.3,38.8 Q121.6,38.0 119.6,38.0 Q117.5,38.0 116.8,38.8 Q116.1,39.5 116.1,42.0 Q116.1,44.4 116.8,45.2 Q117.5,46.0 119.6,46.0 Z M119.6,45.1 Q118.1,45.1 117.6,44.5 Q117.2,43.9 117.2,42.0 Q117.2,40.1 117.6,39.5 Q118.1,38.9 119.6,38.9 Q121.0,38.9 121.5,39.5 Q122.0,40.1 122.0,42.0 Q122.0,43.9 121.5,44.5 Q121.0,45.1 119.6,45.1 Z"/><path d="M126.1,46.0 L127.1,46.0 L127.1,41.8 Q127.1,41.0 127.0,40.5 Q127.0,40.1 126.9,39.3 L127.0,39.3 L127.9,41.0 L130.8,46.0 L131.8,46.0 L131.8,38.0 L130.9,38.0 L130.9,42.2 Q130.9,43.0 130.9,43.4 Q130.9,43.9 131.0,44.7 L131.0,44.7 L130.1,43.0 L127.1,38.0 L126.1,38.0 L126.1,46.0 Z"/><path d="M140.1,42.0 L140.1,38.8 L141.5,38.8 Q142.7,38.8 143.1,39.0 Q143.4,39.2 143.4,40.3 Q143.4,41.5 143.1,41.7 Q142.7,42.0 141.5,42.0 L140.1,42.0 Z M143.5,46.0 L144.7,46.0 L142.6,42.7 Q143.7,42.5 144.1,42.1 Q144.4,41.7 144.4,40.3 Q144.4,38.6 143.9,38.3 Q143.3,38.0 141.6,38.0 L139.1,38.0 L139.1,46.0 L140.1,46.0 L140.1,42.8 L141.6,42.8 L143.5,46.0 Z"/><path d="M147.6,46.0 L152.4,46.0 L152.4,45.1 L148.6,45.1 L148.6,42.0 L151.7,42.0 L151.7,41.1 L148.6,41.1 L148.6,38.9 L152.2,38.9 L152.2,38.0 L147.6,38.0 L147.6,46.0 Z"/><path d="M156.8,46.0 L157.8,46.0 L157.8,38.9 L160.2,38.9 L160.2,38.0 L154.3,38.0 L154.3,38.9 L156.8,38.9 L156.8,46.0 Z"/><path d="M164.6,42.0 L164.6,38.8 L166.0,38.8 Q167.2,38.8 167.6,39.0 Q167.9,39.2 167.9,40.3 Q167.9,41.5 167.6,41.7 Q167.2,42.0 166.0,42.0 L164.6,42.0 Z M168.0,46.0 L169.2,46.0 L167.1,42.7 Q168.2,42.5 168.6,42.1 Q168.9,41.7 168.9,40.3 Q168.9,38.6 168.4,38.3 Q167.8,38.0 166.1,38.0 L163.6,38.0 L163.6,46.0 L164.6,46.0 L164.6,42.8 L166.1,42.8 L168.0,46.0 Z"/><path d="M172.1,46.0 L173.1,46.0 L173.1,38.0 L172.1,38.0 L172.1,46.0 Z"/><path d="M176.6,46.0 L181.4,46.0 L181.4,45.1 L177.6,45.1 L177.6,42.0 L180.7,42.0 L180.7,41.1 L177.6,41.1 L177.6,38.9 L181.2,38.9 L181.2,38.0 L176.6,38.0 L176.6,46.0 Z"/><path d="M185.6,46.0 L186.8,46.0 L189.3,38.0 L188.3,38.0 L187.0,42.3 Q186.7,43.3 186.6,43.7 Q186.5,44.0 186.2,45.0 L186.2,45.0 Q185.9,44.0 185.8,43.7 Q185.7,43.3 185.4,42.3 L184.1,38.0 L183.0,38.0 L185.6,46.0 Z"/><path d="M190.5,46.0 L191.6,46.0 L192.3,43.8 L195.3,43.8 L196.1,46.0 L197.1,46.0 L194.4,38.0 L193.3,38.0 L190.5,46.0 Z M192.6,43.0 L193.0,41.7 Q193.3,40.7 193.4,40.3 Q193.5,39.8 193.8,38.8 L193.8,38.8 Q194.1,39.8 194.2,40.3 Q194.4,40.7 194.7,41.7 L195.0,43.0 L192.6,43.0 Z"/><path d="M200.1,46.0 L204.6,46.0 L204.6,45.1 L201.1,45.1 L201.1,38.0 L200.1,38.0 L200.1,46.0 Z"/></g>
  <g fill="#3a5a8c"><path d="M413.6,35.0 Q415.1,35.0 415.8,34.5 Q416.5,33.9 416.5,32.0 Q416.5,30.0 415.9,29.6 Q415.3,29.2 413.9,29.2 Q413.3,29.2 413.1,29.2 Q412.9,29.3 412.5,29.5 L412.8,26.9 L416.1,26.9 L416.1,26.0 L411.8,26.0 L411.5,30.2 L412.1,30.5 Q412.6,30.2 412.8,30.1 Q413.0,30.0 413.6,30.0 Q414.7,30.0 415.0,30.4 Q415.4,30.8 415.4,32.0 Q415.4,33.3 415.0,33.7 Q414.6,34.1 413.5,34.1 Q412.5,34.1 412.2,33.9 Q411.9,33.6 411.4,33.1 L410.8,33.8 Q411.4,34.4 411.8,34.7 Q412.2,35.0 413.6,35.0 Z"/><path d="M424.3,35.0 Q425.8,35.0 426.2,34.6 Q426.7,34.1 426.7,33.0 Q426.7,31.8 426.1,31.6 Q425.6,31.4 424.7,31.0 Q424.0,30.7 423.6,30.6 Q423.3,30.5 423.3,29.8 Q423.3,29.3 423.5,29.1 Q423.7,28.9 424.5,28.9 Q425.1,28.9 425.3,29.0 Q425.5,29.1 426.0,29.5 L426.5,28.8 Q426.0,28.3 425.6,28.2 Q425.3,28.0 424.5,28.0 Q423.0,28.0 422.6,28.4 Q422.2,28.8 422.2,29.9 Q422.2,31.0 422.7,31.3 Q423.2,31.5 424.1,31.8 Q424.8,32.1 425.2,32.3 Q425.6,32.4 425.6,33.1 Q425.6,33.7 425.4,33.9 Q425.2,34.2 424.3,34.2 Q423.6,34.2 423.3,34.0 Q423.0,33.8 422.4,33.4 L421.9,34.1 Q422.5,34.6 422.9,34.8 Q423.4,35.0 424.3,35.0 Z"/><path d="M429.1,35.0 L430.2,35.0 L430.2,33.2 L431.4,31.6 L433.3,35.0 L434.5,35.0 L432.0,30.8 L434.2,28.0 L433.0,28.0 L430.2,31.7 L430.2,31.7 L430.2,25.0 L429.1,25.0 L429.1,35.0 Z"/><path d="M436.6,35.0 L437.7,35.0 L437.7,28.0 L436.6,28.0 L436.6,35.0 Z M437.1,26.5 Q437.6,26.5 437.7,26.3 Q437.9,26.2 437.9,25.7 Q437.9,25.3 437.7,25.1 Q437.6,25.0 437.1,25.0 Q436.7,25.0 436.6,25.1 Q436.4,25.3 436.4,25.7 Q436.4,26.2 436.6,26.3 Q436.7,26.5 437.1,26.5 Z"/><path d="M441.2,35.0 Q441.5,35.0 441.6,35.0 Q441.7,35.0 441.9,34.9 L441.7,34.1 Q441.6,34.1 441.6,34.1 Q441.6,34.1 441.5,34.1 Q441.3,34.1 441.3,34.0 Q441.2,34.0 441.2,33.6 L441.2,25.3 L440.1,25.3 L440.1,33.6 Q440.1,34.5 440.3,34.7 Q440.4,35.0 441.2,35.0 Z"/><path d="M444.8,35.0 Q445.0,35.0 445.1,35.0 Q445.2,35.0 445.4,34.9 L445.2,34.1 Q445.1,34.1 445.1,34.1 Q445.1,34.1 445.0,34.1 Q444.8,34.1 444.8,34.0 Q444.7,34.0 444.7,33.6 L444.7,25.3 L443.6,25.3 L443.6,33.6 Q443.6,34.5 443.8,34.7 Q443.9,35.0 444.8,35.0 Z"/><path d="M448.8,35.0 Q450.3,35.0 450.7,34.6 Q451.2,34.1 451.2,33.0 Q451.2,31.8 450.6,31.6 Q450.1,31.4 449.2,31.0 Q448.5,30.7 448.1,30.6 Q447.8,30.5 447.8,29.8 Q447.8,29.3 448.0,29.1 Q448.2,28.9 449.0,28.9 Q449.6,28.9 449.8,29.0 Q450.0,29.1 450.5,29.5 L451.0,28.8 Q450.5,28.3 450.1,28.2 Q449.8,28.0 449.0,28.0 Q447.5,28.0 447.1,28.4 Q446.7,28.8 446.7,29.9 Q446.7,31.0 447.2,31.3 Q447.7,31.5 448.6,31.8 Q449.3,32.1 449.7,32.3 Q450.1,32.4 450.1,33.1 Q450.1,33.7 449.9,33.9 Q449.7,34.2 448.8,34.2 Q448.1,34.2 447.8,34.0 Q447.5,33.8 446.9,33.4 L446.4,34.1 Q447.0,34.6 447.4,34.8 Q447.9,35.0 448.8,35.0 Z"/></g>
</svg>
