<svg xmlns="http://www.w3.org/2000/svg" viewBox="0 0 470 72" width="470" height="72" role="img" aria-label="风险与价值判断">
  <defs><linearGradient id="cb" x1="0" y1="0" x2="0" y2="1"><stop offset="0" stop-color="#2b313c"/><stop offset="1" stop-color="#1f232b"/></linearGradient></defs>
  <rect x="1" y="1" width="468" height="70" rx="12" fill="url(#cb)" stroke="#b08d57" stroke-opacity="0.4"/>
  <path d="M13 1 H46 V71 H13 a12 12 0 0 1 -12 -12 V13 a12 12 0 0 1 12 -12 Z" fill="#c0392b" opacity="0.94"/>
  <g fill="#f4ede0"><path d="M13.6,22.5 Q12.7,24.6 11.7,26.4 Q10.8,28.1 8.8,30.4 L9.1,30.7 Q12.0,29.2 13.4,28.0 Q14.8,26.8 16.5,24.9 Q17.2,24.9 17.3,24.8 Q17.5,24.7 17.6,24.4 L13.6,22.5 Z M28.3,25.1 L28.6,26.0 L35.9,26.0 Q36.3,26.0 36.5,25.9 Q36.6,25.9 36.7,25.5 Q35.5,24.4 34.5,23.6 Q33.5,22.8 33.5,22.8 L31.8,25.1 L28.3,25.1 Z M20.2,22.4 Q19.6,25.1 19.1,26.4 Q18.6,27.8 17.6,30.0 L13.8,28.1 Q12.9,31.1 11.8,33.4 Q10.7,35.7 8.4,38.6 L8.8,39.0 Q9.8,38.2 10.3,37.7 Q10.8,37.3 11.8,36.4 L11.8,51.5 L12.4,51.5 Q13.6,51.5 14.3,51.2 Q15.0,50.8 15.0,50.6 L15.0,35.2 Q15.5,35.1 15.7,35.0 Q15.8,34.9 15.9,34.7 L14.1,34.0 Q15.1,32.9 15.5,32.3 Q15.9,31.7 16.6,30.5 Q16.9,30.6 17.0,30.6 Q17.1,30.6 17.3,30.5 Q16.8,31.6 16.6,32.0 Q16.3,32.4 15.9,33.2 L16.2,33.4 L17.4,32.6 L17.4,40.8 L17.9,40.8 Q19.3,40.8 19.8,40.3 Q20.2,39.7 20.2,39.4 L20.2,39.0 L26.1,39.0 L26.1,40.2 L26.6,40.2 Q27.5,40.2 28.3,39.8 Q29.0,39.4 29.0,39.1 L29.0,33.0 L31.6,33.0 L31.6,47.5 Q31.6,47.8 31.5,47.9 Q31.5,48.0 31.0,48.0 L28.6,47.9 Q28.5,46.7 27.9,46.0 Q27.2,45.2 23.9,44.6 L24.0,43.9 L29.9,43.9 Q30.3,43.9 30.5,43.8 Q30.7,43.7 30.7,43.4 Q29.6,42.2 28.6,41.3 Q27.7,40.3 27.7,40.3 L26.0,43.0 L24.2,43.0 L24.4,41.0 Q25.1,41.0 25.2,40.8 Q25.4,40.6 25.4,40.2 L21.3,39.9 Q21.2,40.9 21.2,41.4 Q21.2,42.0 21.1,43.0 L15.9,43.0 L16.2,43.9 L21.0,43.9 Q20.4,46.6 19.8,47.8 Q19.1,48.9 15.3,51.0 L15.6,51.6 Q20.7,50.0 21.7,48.9 Q22.8,47.8 23.7,45.3 Q24.5,46.4 25.0,47.2 Q25.5,47.9 25.8,49.2 Q27.1,50.2 27.7,49.9 Q28.3,49.6 28.6,48.5 Q29.3,48.7 29.5,48.8 Q29.7,49.0 30.0,49.3 Q30.4,49.8 30.5,50.2 Q30.6,50.6 30.6,51.6 Q34.4,51.3 34.6,50.5 Q34.9,49.8 34.9,47.5 L34.9,33.0 L36.8,33.0 Q37.2,33.0 37.3,32.9 Q37.5,32.9 37.6,32.5 Q36.3,31.4 35.3,30.6 Q34.3,29.8 34.3,29.8 L32.5,32.1 L29.0,32.1 L29.0,31.2 Q29.4,31.1 29.5,31.1 Q29.7,31.0 29.8,30.8 L27.1,28.7 L25.9,30.2 L23.7,30.2 Q24.8,29.3 25.4,28.8 Q26.0,28.2 26.9,27.4 Q27.5,27.4 27.6,27.4 Q27.8,27.3 28.0,27.1 L25.2,24.5 L23.7,26.1 L22.4,26.1 Q22.7,25.6 22.8,25.3 Q23.0,25.0 23.2,24.5 Q23.9,24.5 24.1,24.4 Q24.2,24.2 24.4,23.9 L20.2,22.4 Z M26.1,35.0 L26.1,38.1 L24.3,38.1 L24.3,35.0 L26.1,35.0 Z M26.1,34.1 L24.3,34.1 L24.3,31.0 L26.1,31.0 L26.1,34.1 Z M21.9,35.0 L21.9,38.1 L20.2,38.1 L20.2,35.0 L21.9,35.0 Z M21.9,34.1 L20.2,34.1 L20.2,31.0 L21.9,31.0 L21.9,34.1 Z M23.0,30.2 L20.6,30.2 L20.0,29.9 Q20.7,29.0 21.0,28.5 Q21.3,28.0 21.9,27.0 L23.8,27.0 L23.0,30.2 Z"/></g>
  <g fill="#f4ede0"><path d="M83.4,18.9 Q83.0,20.0 82.8,20.6 Q82.6,21.2 82.0,22.4 Q81.3,21.4 81.0,20.9 Q80.6,20.4 79.9,19.5 L77.8,20.7 L77.8,20.6 L77.8,17.8 L86.1,17.8 Q86.0,28.9 86.1,31.4 Q86.2,34.0 89.6,34.0 Q91.1,34.0 91.3,33.4 Q91.6,32.8 91.8,30.2 Q91.3,29.7 91.0,29.1 Q90.6,28.6 90.1,27.8 Q90.1,29.4 90.0,30.1 Q90.0,30.9 89.8,30.9 Q88.8,30.9 88.8,28.4 Q88.8,25.9 89.0,15.0 L74.8,15.0 L74.8,20.6 Q74.8,24.1 74.7,26.6 Q74.6,29.1 72.4,32.3 Q73.0,32.7 73.7,33.2 Q74.4,33.8 74.9,34.2 Q75.8,33.0 76.1,32.2 Q76.4,31.4 76.9,29.6 Q77.5,26.6 77.6,25.0 Q77.8,23.4 77.8,21.0 Q78.7,22.3 79.2,23.1 Q79.7,23.8 80.5,25.2 Q79.5,27.0 78.8,27.7 Q78.2,28.5 76.9,29.6 Q77.5,30.1 78.0,30.7 Q78.4,31.2 78.9,31.9 Q80.1,30.8 80.6,30.2 Q81.2,29.5 82.2,27.9 Q82.9,29.2 83.2,29.8 Q83.4,30.4 83.8,31.3 L86.5,29.8 Q85.9,28.4 85.4,27.6 Q84.9,26.7 83.8,25.0 Q84.6,23.4 85.0,22.4 Q85.4,21.5 85.9,19.6 L83.4,18.9 Z"/><path d="M100.2,24.8 Q100.5,26.3 100.8,27.3 Q101.0,28.3 101.1,29.7 L103.5,28.9 Q103.3,27.6 103.0,26.7 Q102.8,25.7 102.4,24.2 L100.2,24.8 Z M95.7,26.5 L95.7,17.6 L96.9,17.6 Q96.6,19.0 96.4,19.9 Q96.2,20.7 96.0,21.8 Q96.9,23.1 97.0,23.8 Q97.1,24.4 97.1,25.3 Q97.1,25.9 97.0,26.1 Q97.0,26.2 96.8,26.4 Q96.7,26.5 96.6,26.5 Q96.5,26.5 96.3,26.5 L95.7,26.5 Z M104.2,13.8 Q103.0,16.2 101.9,17.3 Q100.9,18.5 98.8,20.0 Q99.2,18.7 99.4,17.9 Q99.6,17.2 100.0,16.0 L98.0,14.9 L97.7,15.0 L93.2,15.0 L93.2,33.8 L95.7,33.8 L95.7,26.6 Q96.0,27.3 96.1,27.8 Q96.2,28.3 96.2,29.0 Q96.7,29.0 96.9,29.0 Q97.1,29.0 97.5,29.0 Q97.9,28.9 98.1,28.8 Q98.3,28.7 98.7,28.5 Q99.4,28.0 99.5,27.5 Q99.6,27.1 99.6,25.6 Q99.6,24.5 99.5,23.8 Q99.4,23.1 98.4,21.5 L98.6,20.7 Q99.1,21.3 99.4,21.8 Q99.8,22.3 100.0,22.8 Q100.4,22.5 100.6,22.3 Q100.9,22.1 101.3,21.8 L101.3,23.0 L108.6,23.0 L108.6,21.0 Q109.2,21.5 109.5,21.8 Q109.9,22.0 110.5,22.4 Q110.8,21.6 111.1,20.9 Q111.4,20.2 111.9,19.5 Q109.9,18.6 108.8,17.7 Q107.8,16.9 106.4,15.4 L106.7,14.9 L104.2,13.8 Z M104.9,17.6 Q105.8,18.6 106.2,19.1 Q106.8,19.6 107.8,20.6 L102.5,20.6 Q103.3,19.5 103.7,19.0 Q104.1,18.6 104.9,17.6 Z M99.6,30.5 L99.6,33.0 L111.1,33.0 L111.1,30.5 L108.3,30.5 Q109.2,28.6 109.6,27.5 Q110.1,26.4 110.9,24.4 L108.4,23.8 Q108.0,25.1 107.8,25.9 Q107.5,26.7 106.9,28.1 Q106.8,26.9 106.6,26.1 Q106.4,25.2 106.1,23.8 L103.9,24.1 Q104.2,25.6 104.4,26.6 Q104.5,27.6 104.6,28.9 L106.7,28.6 Q106.5,29.2 106.3,29.6 Q106.2,29.9 105.9,30.5 L99.6,30.5 Z"/><path d="M117.2,14.0 Q116.7,17.1 116.3,19.5 Q116.0,21.9 115.3,24.6 L118.4,24.9 L118.5,24.0 L124.7,24.0 L124.6,26.0 L112.9,26.0 L112.9,28.8 L124.2,28.8 Q124.0,29.8 123.8,30.2 Q123.7,30.5 123.4,30.7 Q123.1,31.0 123.0,31.0 Q122.9,31.0 122.5,31.0 Q121.9,31.0 121.2,31.0 Q120.6,31.0 119.3,30.9 Q119.9,31.7 120.1,32.3 Q120.3,33.0 120.4,33.8 Q121.6,33.9 122.2,33.9 Q122.9,33.9 123.7,33.8 Q124.6,33.6 125.0,33.5 Q125.3,33.4 126.0,32.6 Q126.5,32.0 126.7,31.5 Q126.9,30.9 127.2,28.8 L131.2,28.8 L131.2,26.0 L127.5,26.0 L127.8,22.6 Q127.8,22.2 127.8,21.8 Q127.9,21.3 127.9,21.3 L119.1,21.3 L119.4,19.0 L128.9,19.0 L128.9,16.2 L119.9,16.2 L120.2,14.2 L117.2,14.0 Z"/><path d="M136.4,14.1 Q135.5,17.0 134.6,18.4 Q133.8,19.8 132.1,21.6 Q132.6,22.3 133.0,23.2 Q133.4,24.1 133.6,24.8 Q133.9,24.4 134.1,24.2 Q134.3,24.0 134.6,23.6 L134.6,34.0 L137.4,34.0 L137.4,21.4 Q137.9,22.1 138.2,22.6 Q138.5,23.1 138.8,23.9 Q139.5,23.4 139.8,23.1 Q140.1,22.8 140.7,22.2 L140.7,25.1 Q140.7,26.9 140.6,28.5 Q140.5,30.1 137.9,32.1 Q138.5,32.6 139.0,33.1 Q139.5,33.5 139.9,34.1 Q143.0,31.5 143.2,29.7 Q143.5,27.8 143.5,25.1 L143.5,22.0 L141.0,22.0 Q142.4,20.6 143.0,19.7 Q143.6,18.9 144.5,17.5 Q145.2,18.9 145.9,19.7 Q146.5,20.6 148.0,22.0 L145.7,22.0 L145.7,33.7 L148.7,33.7 L148.7,22.6 Q149.2,23.1 149.4,23.3 Q149.7,23.5 150.2,23.9 Q150.6,23.0 150.9,22.4 Q151.2,21.9 151.9,21.1 Q149.6,19.8 148.4,18.5 Q147.3,17.1 145.7,14.4 L143.0,14.4 Q141.9,16.6 140.8,18.1 Q139.7,19.6 137.4,21.2 L137.4,19.2 Q138.0,17.8 138.4,17.1 Q138.7,16.4 139.2,15.0 L136.4,14.1 Z"/><path d="M156.4,14.2 Q155.5,17.1 154.7,18.7 Q153.9,20.2 152.3,22.0 Q152.7,22.6 153.1,23.4 Q153.5,24.2 153.8,24.8 L154.5,24.0 L154.5,33.8 L157.2,33.8 L157.2,19.8 Q157.8,18.4 158.0,17.8 Q158.3,17.2 158.8,16.1 L158.8,18.5 L163.1,18.5 L163.0,19.9 L159.5,19.9 L159.5,31.0 L157.9,31.0 L157.9,33.4 L171.5,33.4 L171.5,31.0 L170.1,31.0 L170.1,19.9 L165.6,19.9 L165.9,18.5 L171.1,18.5 L171.1,16.0 L166.4,16.0 L166.6,14.2 L163.5,14.1 L163.4,16.0 L158.8,16.0 L159.1,15.1 L156.4,14.2 Z M162.0,31.0 L162.0,30.0 L167.4,30.0 L167.4,31.0 L162.0,31.0 Z M162.0,24.5 L167.4,24.5 L167.4,25.1 L162.0,25.1 L162.0,24.5 Z M162.0,22.6 L162.0,22.0 L167.4,22.0 L167.4,22.6 L162.0,22.6 Z M162.0,27.0 L167.4,27.0 L167.4,28.1 L162.0,28.1 L162.0,27.0 Z"/><path d="M187.8,14.5 L187.8,30.4 Q187.8,30.9 187.8,30.9 Q187.7,31.0 187.3,31.0 Q186.9,31.0 186.2,31.0 Q185.5,31.0 184.3,30.9 Q184.7,31.8 184.9,32.4 Q185.2,33.1 185.3,34.0 Q187.1,34.0 187.8,33.9 Q188.6,33.9 189.5,33.4 Q190.4,32.9 190.6,32.5 Q190.7,32.1 190.7,30.5 L190.7,14.5 L187.8,14.5 Z M183.2,16.6 L183.2,28.5 L186.0,28.5 L186.0,16.6 L183.2,16.6 Z M180.3,14.9 Q180.1,16.2 179.8,17.1 Q179.6,18.0 179.1,19.1 L179.1,14.0 L176.3,14.0 L176.3,18.9 Q176.0,17.8 175.8,17.0 Q175.6,16.3 175.0,15.1 L172.7,15.8 Q173.2,17.2 173.5,18.1 Q173.7,19.0 173.9,20.1 L176.3,19.3 L176.3,20.3 L172.9,20.3 L172.9,23.0 L176.3,23.0 L176.3,25.0 L172.5,25.0 L172.5,27.8 L176.3,27.8 L176.3,34.0 L179.1,34.0 L179.1,27.8 L182.8,27.8 L182.8,25.0 L179.1,25.0 L179.1,23.0 L182.5,23.0 L182.5,20.3 L179.1,20.3 L179.1,19.4 L181.3,20.0 Q181.9,18.9 182.2,18.1 Q182.5,17.2 183.2,15.6 L180.3,14.9 Z"/><path d="M209.2,14.2 Q208.1,14.9 207.2,15.3 Q206.4,15.6 204.7,16.1 L203.1,15.6 L203.1,23.0 Q203.1,25.0 203.1,26.2 Q203.0,27.5 202.1,29.6 L202.1,29.5 L195.5,29.5 L195.5,26.4 Q195.9,27.1 196.0,27.5 Q196.2,27.9 196.4,28.6 Q197.0,28.0 197.2,27.6 Q197.5,27.2 198.0,26.4 L198.0,29.2 L200.4,29.2 L200.4,25.4 Q200.7,25.9 200.9,26.2 Q201.0,26.5 201.2,26.9 L202.8,24.9 Q202.4,24.4 201.6,23.6 Q200.9,22.9 200.4,22.5 L200.4,22.4 L202.5,22.4 L202.5,20.0 L200.4,20.0 L200.4,19.4 L201.7,19.8 Q202.1,18.9 202.4,18.2 Q202.6,17.4 203.1,16.1 L200.9,15.6 Q200.8,16.4 200.7,16.9 Q200.6,17.4 200.4,18.3 L200.4,14.3 L198.0,14.3 L198.0,17.8 Q197.9,17.1 197.8,16.7 Q197.7,16.3 197.5,15.6 L195.8,16.2 Q196.1,17.3 196.2,18.1 Q196.3,18.8 196.3,19.8 L198.0,19.2 L198.0,20.0 L195.8,20.0 L195.8,22.4 L197.8,22.4 Q197.2,23.7 196.8,24.4 Q196.4,25.0 195.5,25.8 L195.5,14.8 L193.0,14.8 L193.0,33.5 L195.5,33.5 L195.5,32.0 L201.1,32.0 Q201.7,32.5 202.1,32.9 Q202.5,33.3 202.8,33.9 Q205.3,31.1 205.5,29.0 Q205.8,26.8 205.9,23.7 L207.2,23.7 L207.2,33.9 L210.0,33.9 L210.0,23.7 L211.5,23.7 L211.5,21.0 L205.9,21.0 L205.9,18.4 Q207.8,17.9 208.8,17.6 Q209.8,17.3 211.5,16.5 L209.2,14.2 Z"/></g>
  <g fill="#9aa3b2"><path d="M74.3,49.1 L74.3,45.9 L75.8,45.9 Q77.2,45.9 77.5,46.1 Q77.9,46.3 77.9,47.4 Q77.9,48.6 77.5,48.8 Q77.2,49.1 75.8,49.1 L74.3,49.1 Z M78.0,54.0 L79.3,54.0 L77.0,49.9 Q78.2,49.6 78.6,49.2 Q79.0,48.8 79.0,47.4 Q79.0,45.6 78.4,45.3 Q77.7,45.0 76.0,45.0 L73.2,45.0 L73.2,54.0 L74.3,54.0 L74.3,50.0 L75.9,50.0 L78.0,54.0 Z"/><path d="M82.2,54.0 L83.3,54.0 L83.3,45.0 L82.2,45.0 L82.2,54.0 Z"/><path d="M89.6,54.0 Q91.5,54.0 92.0,53.5 Q92.6,52.9 92.6,51.5 Q92.6,50.2 92.2,50.0 Q91.8,49.7 90.8,49.2 L89.6,48.7 Q88.9,48.4 88.5,48.2 Q88.1,48.1 88.1,47.2 Q88.1,46.5 88.4,46.2 Q88.8,46.0 89.8,46.0 Q90.6,46.0 90.9,46.1 Q91.2,46.3 91.8,46.8 L92.3,46.1 Q91.7,45.5 91.3,45.2 Q90.8,45.0 89.8,45.0 Q88.2,45.0 87.6,45.5 Q87.0,46.0 87.0,47.3 Q87.0,48.6 87.5,48.9 Q88.0,49.2 88.8,49.5 L90.0,50.1 Q90.9,50.5 91.2,50.6 Q91.5,50.7 91.5,51.6 Q91.5,52.5 91.2,52.8 Q90.8,53.0 89.7,53.0 Q88.7,53.0 88.3,52.8 Q87.8,52.6 87.2,52.0 L86.6,52.7 Q87.3,53.5 87.9,53.8 Q88.4,54.0 89.6,54.0 Z"/><path d="M95.2,54.0 L96.3,54.0 L96.3,51.2 L97.8,49.3 L100.5,54.0 L101.7,54.0 L98.5,48.4 L101.3,45.0 L100.0,45.0 L96.3,49.5 L96.3,49.5 L96.3,45.0 L95.2,45.0 L95.2,54.0 Z"/><path d="M110.1,54.0 Q111.1,54.0 111.5,53.8 Q112.0,53.6 112.6,53.0 Q113.3,53.5 113.7,53.7 Q114.0,53.9 114.7,54.0 L114.9,53.1 Q114.5,53.0 114.2,52.8 Q113.9,52.7 113.3,52.3 Q114.0,51.4 114.2,50.8 Q114.5,50.3 114.8,49.2 L113.8,49.2 Q113.5,50.2 113.3,50.6 Q113.1,51.0 112.6,51.7 Q111.8,51.0 111.3,50.6 Q110.9,50.2 110.3,49.3 Q111.3,48.6 111.8,48.2 Q112.3,47.9 112.3,46.7 Q112.3,45.7 112.0,45.4 Q111.7,45.0 110.6,45.0 Q109.4,45.0 109.0,45.5 Q108.6,45.9 108.6,47.0 Q108.6,47.7 108.7,48.0 Q108.8,48.4 109.2,49.1 Q108.2,49.7 107.8,50.1 Q107.4,50.4 107.4,51.6 Q107.4,53.0 108.0,53.5 Q108.5,54.0 110.1,54.0 Z M111.9,52.4 Q111.4,52.9 111.1,53.0 Q110.8,53.1 110.2,53.1 Q109.2,53.1 108.9,52.8 Q108.5,52.5 108.5,51.5 Q108.5,50.9 108.7,50.6 Q109.0,50.3 109.6,49.8 Q110.2,50.8 110.6,51.2 Q111.0,51.7 111.9,52.4 Z M109.9,48.6 Q109.7,48.0 109.6,47.8 Q109.5,47.5 109.5,47.0 Q109.5,46.3 109.7,46.1 Q109.9,45.8 110.6,45.8 Q111.2,45.8 111.3,46.0 Q111.4,46.2 111.4,46.8 Q111.4,47.5 111.1,47.8 Q110.8,48.0 109.9,48.6 Z"/><path d="M122.8,54.0 L124.1,54.0 L126.9,45.0 L125.8,45.0 L124.3,49.9 Q124.0,51.0 123.9,51.4 Q123.8,51.8 123.5,52.9 L123.5,52.9 Q123.1,51.8 123.0,51.4 Q122.9,51.0 122.6,49.9 L121.2,45.0 L120.0,45.0 L122.8,54.0 Z"/><path d="M128.0,54.0 L129.2,54.0 L130.0,51.0 L133.2,51.0 L134.1,54.0 L135.2,54.0 L132.2,45.0 L131.0,45.0 L128.0,54.0 Z M130.3,50.1 L130.7,48.8 Q131.0,47.8 131.2,47.4 Q131.3,46.9 131.6,45.9 L131.6,45.9 Q131.9,46.9 132.1,47.4 Q132.2,47.8 132.5,48.8 L133.0,50.1 L130.3,50.1 Z"/><path d="M137.2,54.0 L142.2,54.0 L142.2,53.1 L138.3,53.1 L138.3,45.0 L137.2,45.0 L137.2,54.0 Z"/><path d="M148.3,54.0 Q150.1,54.0 150.8,53.5 Q151.5,53.0 151.5,50.2 L151.5,45.0 L150.4,45.0 L150.4,50.2 Q150.4,52.4 149.9,52.7 Q149.5,53.0 148.3,53.0 Q147.2,53.0 146.7,52.7 Q146.3,52.4 146.3,50.2 L146.3,45.0 L145.2,45.0 L145.2,50.2 Q145.2,53.0 145.8,53.5 Q146.5,54.0 148.3,54.0 Z"/><path d="M155.2,54.0 L160.4,54.0 L160.4,53.1 L156.3,53.1 L156.3,50.0 L159.6,50.0 L159.6,49.0 L156.3,49.0 L156.3,45.9 L160.3,45.9 L160.3,45.0 L155.2,45.0 L155.2,54.0 Z"/><path d="M168.8,54.0 Q170.5,54.0 170.9,53.4 Q171.2,52.8 171.2,51.3 L171.2,45.0 L170.1,45.0 L170.1,51.2 Q170.1,52.5 169.9,52.8 Q169.7,53.0 168.7,53.0 Q168.1,53.0 167.8,52.9 Q167.6,52.8 167.2,52.0 L166.4,52.6 Q166.9,53.5 167.3,53.8 Q167.7,54.0 168.8,54.0 Z"/><path d="M177.3,54.0 Q179.1,54.0 179.8,53.5 Q180.5,53.0 180.5,50.2 L180.5,45.0 L179.4,45.0 L179.4,50.2 Q179.4,52.4 178.9,52.7 Q178.5,53.0 177.3,53.0 Q176.2,53.0 175.7,52.7 Q175.3,52.4 175.3,50.2 L175.3,45.0 L174.2,45.0 L174.2,50.2 Q174.2,53.0 174.8,53.5 Q175.5,54.0 177.3,54.0 Z"/><path d="M184.2,54.0 L186.5,54.0 Q189.1,54.0 189.8,53.2 Q190.5,52.3 190.5,49.5 Q190.5,46.6 189.8,45.8 Q189.1,45.0 186.4,45.0 L184.2,45.0 L184.2,54.0 Z M185.3,53.1 L185.3,45.9 L186.3,45.9 Q188.4,45.9 188.9,46.5 Q189.4,47.2 189.4,49.5 Q189.4,51.8 188.9,52.4 Q188.4,53.1 186.3,53.1 L185.3,53.1 Z"/><path d="M196.7,54.0 Q197.8,54.0 198.3,53.8 Q198.8,53.6 199.4,53.0 L199.4,49.1 L196.5,49.1 L196.5,50.0 L198.3,50.0 L198.3,52.5 Q198.0,52.8 197.7,52.9 Q197.4,53.0 196.8,53.0 Q194.9,53.0 194.4,52.3 Q193.8,51.5 193.8,49.2 Q193.8,47.2 194.4,46.6 Q195.0,46.0 196.8,46.0 Q197.6,46.0 197.9,46.1 Q198.2,46.3 198.7,46.7 L199.2,46.1 Q198.8,45.6 198.3,45.3 Q197.9,45.0 196.7,45.0 Q194.4,45.0 193.5,45.8 Q192.7,46.7 192.7,49.2 Q192.7,52.3 193.5,53.1 Q194.3,54.0 196.7,54.0 Z"/><path d="M202.2,54.0 L203.2,54.0 L203.2,49.0 Q203.2,48.2 203.2,47.7 Q203.1,47.1 203.1,46.3 L203.1,46.3 L203.8,48.4 L205.5,53.0 L206.2,53.0 L207.9,48.4 L208.6,46.3 L208.6,46.3 Q208.6,47.1 208.5,47.7 Q208.5,48.2 208.5,49.0 L208.5,54.0 L209.5,54.0 L209.5,45.0 L208.2,45.0 L206.5,49.8 Q206.3,50.4 206.2,50.7 Q206.1,51.0 205.9,51.6 L205.8,51.6 Q205.6,51.0 205.5,50.7 Q205.4,50.4 205.2,49.8 L203.5,45.0 L202.2,45.0 L202.2,54.0 Z"/><path d="M213.2,54.0 L218.4,54.0 L218.4,53.1 L214.3,53.1 L214.3,50.0 L217.6,50.0 L217.6,49.0 L214.3,49.0 L214.3,45.9 L218.3,45.9 L218.3,45.0 L213.2,45.0 L213.2,54.0 Z"/><path d="M221.2,54.0 L222.2,54.0 L222.2,49.3 Q222.2,48.3 222.2,47.8 Q222.2,47.3 222.1,46.4 L222.2,46.4 L223.1,48.3 L226.3,54.0 L227.5,54.0 L227.5,45.0 L226.4,45.0 L226.4,49.7 Q226.4,50.6 226.4,51.2 Q226.5,51.7 226.5,52.6 L226.5,52.6 L225.5,50.7 L222.3,45.0 L221.2,45.0 L221.2,54.0 Z"/><path d="M233.0,54.0 L234.1,54.0 L234.1,45.9 L236.8,45.9 L236.8,45.0 L230.4,45.0 L230.4,45.9 L233.0,45.9 L233.0,54.0 Z"/></g>
  <g transform="translate(410,21)">
    <rect x="0" y="0" width="44" height="30" rx="8" fill="#15171c" stroke="#b08d57" stroke-opacity="0.4"/>
    <g fill="#d8b988"><path d="M22.2,21.0 Q24.3,21.0 25.2,20.2 Q26.1,19.5 26.1,16.8 Q26.1,14.2 25.3,13.6 Q24.6,13.0 22.6,13.0 Q21.9,13.0 21.4,13.2 Q20.9,13.4 20.3,14.2 Q20.5,11.9 20.9,11.6 Q21.4,11.3 22.7,11.3 Q23.3,11.3 23.7,11.4 Q24.0,11.6 24.4,11.9 L25.9,10.4 Q25.2,9.7 24.6,9.3 Q24.0,9.0 22.5,9.0 Q20.0,9.0 18.9,10.0 Q17.7,11.0 17.7,14.7 Q17.7,19.3 18.8,20.1 Q19.9,21.0 22.2,21.0 Z M20.4,16.1 Q20.9,15.3 21.2,15.2 Q21.5,15.0 22.1,15.0 Q22.8,15.0 23.2,15.2 Q23.5,15.5 23.5,16.8 Q23.5,18.3 23.2,18.6 Q22.9,18.9 22.1,18.9 Q21.4,18.9 21.0,18.6 Q20.6,18.2 20.4,16.1 Z"/></g>
  </g>
</svg>
