<svg xmlns="http://www.w3.org/2000/svg" viewBox="0 0 470 56" width="470" height="56" role="img" aria-label="文书与事务管理">
  <rect x="0.5" y="0.5" width="469" height="55" rx="6" fill="#e7efdd"/>
  <rect x="0" y="0" width="4" height="56" rx="2" fill="#5a7d3f"/>
  <g fill="#5a7d3f"><path d="M17.6,36.0 Q19.9,36.0 20.7,35.0 Q21.5,34.0 21.5,30.0 Q21.5,25.9 20.7,25.0 Q19.9,24.0 17.6,24.0 Q15.2,24.0 14.4,24.9 Q13.6,25.9 13.6,30.0 Q13.6,34.0 14.4,35.0 Q15.2,36.0 17.6,36.0 Z M17.6,33.9 Q16.8,33.9 16.4,33.6 Q16.1,33.2 16.1,30.0 Q16.1,26.7 16.4,26.4 Q16.8,26.0 17.6,26.0 Q18.4,26.0 18.7,26.4 Q19.0,26.7 19.0,30.0 Q19.0,33.2 18.7,33.6 Q18.4,33.9 17.6,33.9 Z"/><path d="M24.7,36.0 L27.4,36.0 Q27.6,31.2 27.7,30.1 Q27.8,28.9 30.4,25.6 L30.4,24.0 L22.8,24.0 L22.8,26.2 L27.6,26.2 Q25.5,29.4 25.2,30.7 Q24.9,32.0 24.7,36.0 Z"/></g>
  <g fill="#2a2d34"><path d="M52.1,13.0 L52.1,16.0 L44.8,16.0 L44.8,18.7 L47.5,18.7 Q48.5,21.5 49.1,22.7 Q49.7,24.0 51.2,26.0 Q49.4,27.4 48.2,27.9 Q47.1,28.5 44.4,29.2 Q44.9,29.9 45.3,30.6 Q45.8,31.3 46.1,32.1 Q48.9,31.2 50.1,30.5 Q51.3,29.9 53.4,28.2 Q55.3,29.9 56.5,30.5 Q57.7,31.2 60.7,32.0 Q61.1,31.2 61.6,30.5 Q62.1,29.8 62.7,29.1 Q59.9,28.4 58.8,27.9 Q57.6,27.3 55.7,25.8 Q57.3,23.9 58.0,22.7 Q58.7,21.5 59.6,18.7 L62.3,18.7 L62.3,16.0 L54.9,16.0 L54.9,13.0 L52.1,13.0 Z M53.5,23.8 Q52.2,22.3 51.8,21.5 Q51.3,20.6 50.5,18.7 L56.4,18.7 Q55.7,20.7 55.2,21.5 Q54.7,22.4 53.5,23.8 Z"/><path d="M64.9,16.3 L64.9,19.0 L70.0,19.0 L70.0,22.0 L64.0,22.0 L64.0,24.6 L70.0,24.6 L70.0,31.9 L72.8,31.9 L72.8,24.6 L78.3,24.6 Q78.2,26.5 78.1,27.0 Q77.9,27.5 77.6,27.8 Q77.4,28.0 77.2,28.0 Q77.1,28.0 76.8,28.0 Q76.2,28.0 75.6,28.0 Q75.0,28.0 73.8,27.9 Q74.4,28.6 74.5,29.2 Q74.7,29.7 74.8,30.5 Q76.0,30.5 76.6,30.5 Q77.2,30.5 77.9,30.5 Q78.8,30.4 79.1,30.3 Q79.4,30.2 80.0,29.6 Q80.7,28.9 80.8,28.0 Q81.0,27.1 81.3,23.1 Q81.3,22.8 81.3,22.4 Q81.4,22.0 81.4,22.0 L78.6,22.0 L78.6,17.2 Q79.0,17.5 79.3,17.7 Q79.5,17.8 79.8,18.1 L81.4,16.0 Q80.5,15.2 79.5,14.6 Q78.5,14.0 77.3,13.2 L75.7,15.2 L77.4,16.3 L72.8,16.3 L72.8,13.1 L70.0,13.1 L70.0,16.3 L64.9,16.3 Z M72.8,22.0 L72.8,19.0 L75.8,19.0 L75.8,22.0 L72.8,22.0 Z"/><path d="M86.9,13.0 Q86.5,16.2 86.1,18.4 Q85.8,20.6 85.1,23.1 L88.0,23.4 L88.2,22.5 L94.1,22.5 L93.9,24.4 L82.8,24.4 L82.8,27.0 L93.5,27.0 Q93.4,28.1 93.2,28.5 Q93.1,28.8 92.9,29.0 Q92.6,29.3 92.5,29.3 Q92.3,29.3 91.9,29.3 Q91.4,29.3 90.8,29.3 Q90.2,29.3 88.9,29.2 Q89.5,30.0 89.7,30.6 Q89.9,31.2 89.9,32.0 Q91.1,32.0 91.7,32.1 Q92.3,32.1 93.1,32.0 Q94.0,31.8 94.3,31.7 Q94.6,31.6 95.3,30.9 Q95.8,30.3 95.9,29.8 Q96.1,29.2 96.4,27.0 L100.2,27.0 L100.2,24.4 L96.7,24.4 L97.0,21.2 Q97.0,20.8 97.0,20.4 Q97.1,20.0 97.1,20.0 L88.7,20.0 L89.0,18.0 L98.0,18.0 L98.0,15.4 L89.5,15.4 L89.8,13.3 L86.9,13.0 Z"/><path d="M103.4,27.0 L103.4,29.0 L109.0,29.0 L109.0,29.3 Q109.0,29.7 109.0,29.8 Q108.9,29.9 108.5,29.9 Q108.2,29.9 107.7,29.9 Q107.1,29.9 106.3,29.9 Q106.7,30.4 106.9,30.9 Q107.1,31.4 107.2,32.0 Q108.9,32.0 109.4,32.0 Q109.9,32.0 110.7,31.6 Q111.5,31.2 111.7,31.0 Q111.8,30.7 111.8,29.3 L111.8,29.0 L114.6,29.0 L114.6,30.0 L117.4,30.0 L117.4,26.1 L119.4,26.1 L119.4,24.0 L117.4,24.0 L117.4,21.9 L111.8,21.9 L111.8,21.0 L117.1,21.0 L117.1,17.0 L111.8,17.0 L111.8,16.2 L118.9,16.2 L118.9,14.0 L111.8,14.0 L111.8,13.0 L109.0,13.0 L109.0,14.0 L102.1,14.0 L102.1,16.2 L109.0,16.2 L109.0,17.0 L104.0,17.0 L104.0,21.0 L109.0,21.0 L109.0,21.9 L103.6,21.9 L103.6,23.7 L109.0,23.7 L109.0,24.0 L101.6,24.0 L101.6,26.1 L109.0,26.1 L109.0,27.0 L103.4,27.0 Z M106.6,18.7 L109.0,18.7 L109.0,19.3 L106.6,19.3 L106.6,18.7 Z M111.8,18.7 L114.2,18.7 L114.2,19.3 L111.8,19.3 L111.8,18.7 Z M111.8,23.7 L114.6,23.7 L114.6,24.0 L111.8,24.0 L111.8,23.7 Z M111.8,26.1 L114.6,26.1 L114.6,27.0 L111.8,27.0 L111.8,26.1 Z"/><path d="M127.6,22.6 Q127.5,23.1 127.5,23.3 Q127.5,23.6 127.3,24.0 L122.1,24.0 L122.1,26.3 L126.2,26.3 Q125.1,28.2 124.2,28.8 Q123.4,29.4 120.9,30.0 Q121.4,30.5 121.8,31.1 Q122.2,31.6 122.5,32.2 Q125.8,31.3 126.9,30.5 Q128.0,29.7 129.3,26.3 L134.0,26.3 Q133.8,28.2 133.6,28.7 Q133.4,29.2 133.1,29.5 Q132.8,29.8 132.7,29.8 Q132.5,29.8 132.1,29.8 Q131.5,29.8 130.8,29.8 Q130.0,29.8 128.8,29.6 Q129.2,30.3 129.4,30.8 Q129.6,31.3 129.6,32.0 Q130.9,32.0 131.6,32.0 Q132.2,32.0 133.0,32.0 Q134.0,32.0 134.3,31.9 Q134.7,31.8 135.3,31.2 Q136.0,30.5 136.3,29.7 Q136.5,28.8 137.0,25.1 Q137.0,24.7 137.1,24.4 Q137.1,24.0 137.1,24.0 L130.2,24.0 Q130.3,23.6 130.4,23.4 Q130.4,23.2 130.5,22.8 L127.6,22.6 Z M132.9,17.3 Q131.9,18.0 131.3,18.3 Q130.7,18.6 129.4,19.1 Q128.2,18.6 127.7,18.3 Q127.2,18.0 126.5,17.3 L126.5,17.3 L132.9,17.3 Z M126.6,13.0 Q125.7,14.8 124.8,15.6 Q123.9,16.5 121.2,17.6 Q121.7,18.1 122.1,18.6 Q122.5,19.2 122.8,19.9 Q123.5,19.5 123.8,19.3 Q124.1,19.1 124.7,18.7 Q125.1,19.2 125.4,19.4 Q125.7,19.6 126.2,20.0 Q124.5,20.4 123.5,20.5 Q122.6,20.7 120.8,20.8 Q121.2,21.4 121.4,22.0 Q121.6,22.5 121.8,23.2 Q124.5,22.9 125.8,22.7 Q127.1,22.4 129.4,21.6 Q131.6,22.4 132.9,22.6 Q134.1,22.8 137.0,23.0 Q137.4,22.3 137.7,21.8 Q138.0,21.2 138.6,20.6 Q136.6,20.5 135.6,20.4 Q134.7,20.4 133.0,20.0 Q134.9,19.0 135.7,18.3 Q136.4,17.6 137.5,16.0 L135.8,14.9 L135.4,15.0 L128.6,15.0 Q128.9,14.6 129.0,14.4 Q129.2,14.1 129.4,13.7 L126.6,13.0 Z"/><path d="M143.3,21.1 L143.3,32.3 L145.9,32.3 L145.9,32.0 L152.7,32.0 L152.7,32.3 L155.4,32.3 L155.4,27.0 L145.9,27.0 L145.9,26.0 L153.8,26.0 L153.8,21.1 L143.3,21.1 Z M152.7,30.0 L145.9,30.0 L145.9,29.0 L152.7,29.0 L152.7,30.0 Z M150.1,12.8 Q149.7,13.6 149.4,14.1 Q149.0,14.6 148.2,15.4 L148.2,14.0 L144.4,14.0 L144.8,13.4 L142.2,12.8 Q141.6,14.0 141.1,14.7 Q140.5,15.5 139.4,16.5 Q140.0,16.9 140.5,17.2 Q141.1,17.6 141.6,17.9 Q142.1,17.5 142.4,17.3 Q142.6,17.0 143.1,16.2 L143.1,16.2 Q143.5,16.9 143.6,17.3 Q143.8,17.6 144.0,17.9 L146.4,17.4 Q146.3,17.1 146.2,16.9 Q146.1,16.6 145.9,16.2 L147.4,16.2 Q147.8,16.3 148.0,16.5 Q148.3,16.7 148.8,17.0 L147.1,17.0 L147.1,18.0 L140.2,18.0 L140.2,22.3 L142.8,22.3 L142.8,20.0 L154.3,20.0 L154.3,22.3 L157.0,22.3 L157.0,18.0 L149.8,18.0 L149.8,17.5 Q150.2,17.2 150.4,17.0 Q150.6,16.8 151.0,16.2 L151.8,16.2 Q152.2,16.9 152.5,17.3 Q152.7,17.6 152.9,17.9 L155.4,17.4 Q155.3,17.1 155.2,16.9 Q155.0,16.7 154.8,16.2 L157.4,16.2 L157.4,14.0 L152.3,14.0 L152.7,13.3 L150.1,12.8 Z M145.9,23.0 L151.1,23.0 L151.1,24.1 L145.9,24.1 L145.9,23.0 Z"/><path d="M168.2,20.0 L169.6,20.0 L169.6,21.0 L168.2,21.0 L168.2,20.0 Z M171.9,20.0 L173.2,20.0 L173.2,21.0 L171.9,21.0 L171.9,20.0 Z M168.2,16.3 L169.6,16.3 L169.6,17.9 L168.2,17.9 L168.2,16.3 Z M171.9,16.3 L173.2,16.3 L173.2,17.9 L171.9,17.9 L171.9,16.3 Z M164.4,29.0 L164.4,31.5 L176.6,31.5 L176.6,29.0 L172.1,29.0 L172.1,27.5 L176.0,27.5 L176.0,25.0 L172.1,25.0 L172.1,23.3 L175.8,23.3 L175.8,14.0 L165.7,14.0 L165.7,23.3 L169.3,23.3 L169.3,25.0 L165.6,25.0 L165.6,27.5 L169.3,27.5 L169.3,29.0 L164.4,29.0 Z M158.3,27.5 L158.9,30.5 Q160.8,29.9 162.0,29.5 Q163.2,29.1 165.3,28.3 L164.9,25.6 L163.1,26.1 L163.1,22.5 L164.7,22.5 L164.7,20.0 L163.1,20.0 L163.1,16.5 L165.1,16.5 L165.1,14.0 L158.6,14.0 L158.6,16.5 L160.5,16.5 L160.5,20.0 L158.7,20.0 L158.7,22.5 L160.5,22.5 L160.5,26.8 Q159.7,27.1 159.3,27.2 Q159.0,27.3 158.3,27.5 Z"/></g>
  <g fill="#5b606b"><path d="M45.1,46.0 L47.2,46.0 Q49.6,46.0 50.2,45.2 Q50.9,44.5 50.9,42.0 Q50.9,39.4 50.2,38.7 Q49.6,38.0 47.1,38.0 L45.1,38.0 L45.1,46.0 Z M46.1,45.2 L46.1,38.8 L47.0,38.8 Q48.9,38.8 49.4,39.4 Q49.9,40.0 49.9,42.0 Q49.9,44.0 49.4,44.6 Q48.9,45.2 47.0,45.2 L46.1,45.2 Z"/><path d="M57.6,46.0 Q59.6,46.0 60.3,45.2 Q61.0,44.4 61.0,42.0 Q61.0,39.5 60.3,38.8 Q59.6,38.0 57.6,38.0 Q55.5,38.0 54.8,38.8 Q54.1,39.5 54.1,42.0 Q54.1,44.4 54.8,45.2 Q55.5,46.0 57.6,46.0 Z M57.6,45.1 Q56.1,45.1 55.6,44.5 Q55.2,43.9 55.2,42.0 Q55.2,40.1 55.6,39.5 Q56.1,38.9 57.6,38.9 Q59.0,38.9 59.5,39.5 Q60.0,40.1 60.0,42.0 Q60.0,43.9 59.5,44.5 Q59.0,45.1 57.6,45.1 Z"/><path d="M67.1,46.0 Q68.2,46.0 68.6,45.8 Q69.0,45.6 69.6,44.9 L69.0,44.2 Q68.5,44.8 68.2,45.0 Q68.0,45.1 67.2,45.1 Q65.6,45.1 65.2,44.5 Q64.7,43.9 64.7,42.0 Q64.7,40.1 65.2,39.5 Q65.7,38.9 67.2,38.9 Q67.9,38.9 68.2,39.0 Q68.4,39.2 68.9,39.6 L69.4,39.0 Q69.0,38.5 68.6,38.2 Q68.2,38.0 67.2,38.0 Q65.2,38.0 64.4,38.8 Q63.6,39.5 63.6,42.0 Q63.6,44.5 64.4,45.2 Q65.1,46.0 67.1,46.0 Z"/><path d="M75.5,46.0 Q77.1,46.0 77.7,45.6 Q78.4,45.1 78.4,42.6 L78.4,38.0 L77.4,38.0 L77.4,42.6 Q77.4,44.5 77.0,44.8 Q76.5,45.1 75.5,45.1 Q74.4,45.1 74.0,44.8 Q73.6,44.5 73.6,42.6 L73.6,38.0 L72.6,38.0 L72.6,42.6 Q72.6,45.1 73.2,45.6 Q73.8,46.0 75.5,46.0 Z"/><path d="M82.1,46.0 L83.0,46.0 L83.0,41.6 Q83.0,40.9 83.0,40.4 Q83.0,39.9 82.9,39.2 L82.9,39.2 L83.6,41.1 L85.1,45.3 L85.8,45.3 L87.3,41.1 L88.0,39.2 L88.0,39.2 Q87.9,39.9 87.9,40.4 Q87.9,40.9 87.9,41.6 L87.9,46.0 L88.8,46.0 L88.8,38.0 L87.6,38.0 L86.0,42.3 Q85.9,42.9 85.8,43.2 Q85.7,43.5 85.5,44.0 L85.5,44.0 Q85.2,43.5 85.2,43.2 Q85.1,42.9 84.9,42.3 L83.3,38.0 L82.1,38.0 L82.1,46.0 Z"/><path d="M92.6,46.0 L97.4,46.0 L97.4,45.1 L93.6,45.1 L93.6,42.0 L96.7,42.0 L96.7,41.1 L93.6,41.1 L93.6,38.9 L97.2,38.9 L97.2,38.0 L92.6,38.0 L92.6,46.0 Z"/><path d="M100.1,46.0 L101.1,46.0 L101.1,41.8 Q101.1,41.0 101.0,40.5 Q101.0,40.1 100.9,39.3 L101.0,39.3 L101.9,41.0 L104.8,46.0 L105.8,46.0 L105.8,38.0 L104.9,38.0 L104.9,42.2 Q104.9,43.0 104.9,43.4 Q104.9,43.9 105.0,44.7 L105.0,44.7 L104.1,43.0 L101.1,38.0 L100.1,38.0 L100.1,46.0 Z"/><path d="M111.3,46.0 L112.3,46.0 L112.3,38.9 L114.7,38.9 L114.7,38.0 L108.8,38.0 L108.8,38.9 L111.3,38.9 L111.3,46.0 Z"/><path d="M120.3,46.0 Q122.0,46.0 122.5,45.5 Q123.1,45.0 123.1,43.8 Q123.1,42.7 122.7,42.4 Q122.3,42.1 121.4,41.8 L120.3,41.3 Q119.6,41.0 119.3,40.9 Q118.9,40.8 118.9,40.0 Q118.9,39.3 119.2,39.1 Q119.5,38.9 120.4,38.9 Q121.2,38.9 121.5,39.0 Q121.8,39.2 122.3,39.6 L122.8,39.0 Q122.2,38.4 121.8,38.2 Q121.4,38.0 120.4,38.0 Q119.0,38.0 118.4,38.5 Q117.9,38.9 117.9,40.1 Q117.9,41.2 118.3,41.5 Q118.8,41.7 119.5,42.0 L120.7,42.5 Q121.5,42.8 121.8,43.0 Q122.0,43.1 122.0,43.9 Q122.0,44.6 121.7,44.9 Q121.4,45.1 120.3,45.1 Q119.5,45.1 119.1,44.9 Q118.7,44.7 118.1,44.2 L117.5,44.8 Q118.2,45.5 118.7,45.8 Q119.2,46.0 120.3,46.0 Z"/><path d="M131.8,46.0 Q132.8,46.0 133.2,45.8 Q133.5,45.6 134.2,45.1 Q134.8,45.5 135.1,45.7 Q135.5,45.9 136.0,46.0 L136.3,45.2 Q135.8,45.1 135.6,44.9 Q135.3,44.8 134.8,44.4 Q135.4,43.7 135.6,43.2 Q135.9,42.7 136.2,41.7 L135.2,41.7 Q135.0,42.6 134.8,43.0 Q134.6,43.3 134.1,44.0 Q133.4,43.4 133.0,43.0 Q132.6,42.6 132.1,41.8 Q133.0,41.2 133.4,40.9 Q133.9,40.5 133.9,39.5 Q133.9,38.7 133.6,38.3 Q133.3,38.0 132.3,38.0 Q131.2,38.0 130.8,38.4 Q130.5,38.8 130.5,39.8 Q130.5,40.4 130.6,40.7 Q130.7,41.0 131.0,41.6 Q130.1,42.2 129.8,42.5 Q129.4,42.8 129.4,43.8 Q129.4,45.1 129.9,45.5 Q130.4,46.0 131.8,46.0 Z M133.5,44.6 Q133.0,45.0 132.8,45.1 Q132.5,45.2 132.0,45.2 Q131.1,45.2 130.7,44.9 Q130.4,44.7 130.4,43.8 Q130.4,43.2 130.6,43.0 Q130.8,42.7 131.4,42.3 Q132.0,43.1 132.3,43.5 Q132.7,43.9 133.5,44.6 Z M131.7,41.2 Q131.5,40.7 131.4,40.5 Q131.3,40.2 131.3,39.8 Q131.3,39.2 131.5,39.0 Q131.7,38.7 132.3,38.7 Q132.9,38.7 133.0,38.9 Q133.1,39.1 133.1,39.6 Q133.1,40.2 132.8,40.5 Q132.4,40.7 131.7,41.2 Z"/><path d="M143.0,46.0 L144.2,46.0 L145.4,41.2 Q145.5,40.6 145.6,40.3 Q145.7,40.0 145.8,39.4 L145.8,39.4 Q146.0,40.0 146.0,40.3 Q146.1,40.6 146.2,41.2 L147.5,46.0 L148.7,46.0 L150.4,38.0 L149.4,38.0 L148.5,42.4 Q148.4,43.2 148.3,43.6 Q148.2,44.1 148.1,45.0 L148.0,45.0 Q147.8,44.1 147.7,43.6 Q147.6,43.2 147.4,42.4 L146.3,38.0 L145.4,38.0 L144.3,42.4 Q144.1,43.2 144.0,43.6 Q143.9,44.1 143.7,45.0 L143.7,45.0 Q143.5,44.1 143.4,43.6 Q143.3,43.2 143.2,42.4 L142.3,38.0 L141.3,38.0 L143.0,46.0 Z"/><path d="M156.6,46.0 Q158.6,46.0 159.3,45.2 Q160.0,44.4 160.0,42.0 Q160.0,39.5 159.3,38.8 Q158.6,38.0 156.6,38.0 Q154.5,38.0 153.8,38.8 Q153.1,39.5 153.1,42.0 Q153.1,44.4 153.8,45.2 Q154.5,46.0 156.6,46.0 Z M156.6,45.1 Q155.1,45.1 154.6,44.5 Q154.2,43.9 154.2,42.0 Q154.2,40.1 154.6,39.5 Q155.1,38.9 156.6,38.9 Q158.0,38.9 158.5,39.5 Q159.0,40.1 159.0,42.0 Q159.0,43.9 158.5,44.5 Q158.0,45.1 156.6,45.1 Z"/><path d="M164.1,42.0 L164.1,38.8 L165.5,38.8 Q166.7,38.8 167.1,39.0 Q167.4,39.2 167.4,40.3 Q167.4,41.5 167.1,41.7 Q166.7,42.0 165.5,42.0 L164.1,42.0 Z M167.5,46.0 L168.7,46.0 L166.6,42.7 Q167.7,42.5 168.1,42.1 Q168.4,41.7 168.4,40.3 Q168.4,38.6 167.9,38.3 Q167.3,38.0 165.6,38.0 L163.1,38.0 L163.1,46.0 L164.1,46.0 L164.1,42.8 L165.6,42.8 L167.5,46.0 Z"/><path d="M171.6,46.0 L172.6,46.0 L172.6,43.5 L174.0,41.8 L176.4,46.0 L177.6,46.0 L174.6,41.0 L177.2,38.0 L176.0,38.0 L172.6,42.0 L172.6,42.0 L172.6,38.0 L171.6,38.0 L171.6,46.0 Z"/><path d="M180.1,46.0 L181.1,46.0 L181.1,42.0 L184.2,42.0 L184.2,41.2 L181.1,41.2 L181.1,38.9 L184.8,38.9 L184.8,38.0 L180.1,38.0 L180.1,46.0 Z"/><path d="M187.6,46.0 L192.1,46.0 L192.1,45.1 L188.6,45.1 L188.6,38.0 L187.6,38.0 L187.6,46.0 Z"/><path d="M198.1,46.0 Q200.1,46.0 200.8,45.2 Q201.5,44.4 201.5,42.0 Q201.5,39.5 200.8,38.8 Q200.1,38.0 198.1,38.0 Q196.0,38.0 195.3,38.8 Q194.6,39.5 194.6,42.0 Q194.6,44.4 195.3,45.2 Q196.0,46.0 198.1,46.0 Z M198.1,45.1 Q196.6,45.1 196.1,44.5 Q195.7,43.9 195.7,42.0 Q195.7,40.1 196.1,39.5 Q196.6,38.9 198.1,38.9 Q199.5,38.9 200.0,39.5 Q200.5,40.1 200.5,42.0 Q200.5,43.9 200.0,44.5 Q199.5,45.1 198.1,45.1 Z"/><path d="M205.5,46.0 L206.7,46.0 L207.9,41.2 Q208.0,40.6 208.1,40.3 Q208.2,40.0 208.3,39.4 L208.3,39.4 Q208.5,40.0 208.5,40.3 Q208.6,40.6 208.7,41.2 L210.0,46.0 L211.2,46.0 L212.9,38.0 L211.9,38.0 L211.0,42.4 Q210.9,43.2 210.8,43.6 Q210.7,44.1 210.6,45.0 L210.5,45.0 Q210.3,44.1 210.2,43.6 Q210.1,43.2 209.9,42.4 L208.8,38.0 L207.9,38.0 L206.8,42.4 Q206.6,43.2 206.5,43.6 Q206.4,44.1 206.2,45.0 L206.2,45.0 Q206.0,44.1 205.9,43.6 Q205.8,43.2 205.7,42.4 L204.8,38.0 L203.8,38.0 L205.5,46.0 Z"/></g>
  <g fill="#5a7d3f"><path d="M413.8,35.0 Q415.5,35.0 416.0,34.5 Q416.6,34.0 416.6,32.8 Q416.6,31.6 416.2,31.2 Q415.9,30.9 415.1,30.5 L415.1,30.4 Q415.6,30.0 416.0,29.6 Q416.3,29.2 416.3,28.3 Q416.3,27.0 415.8,26.5 Q415.4,26.0 413.9,26.0 Q412.5,26.0 412.0,26.5 Q411.5,26.9 411.5,28.2 Q411.5,29.1 411.7,29.5 Q412.0,29.8 412.7,30.2 L412.7,30.3 Q411.8,30.7 411.4,31.1 Q411.0,31.5 411.0,32.7 Q411.0,34.0 411.6,34.5 Q412.2,35.0 413.8,35.0 Z M414.5,30.1 Q413.4,29.7 412.9,29.5 Q412.5,29.2 412.5,28.2 Q412.5,27.4 412.8,27.1 Q413.0,26.8 413.9,26.8 Q414.8,26.8 415.1,27.2 Q415.3,27.5 415.3,28.4 Q415.3,29.0 415.2,29.3 Q415.0,29.6 414.5,30.1 Z M413.9,34.2 Q412.8,34.2 412.4,33.9 Q412.0,33.5 412.0,32.6 Q412.0,31.8 412.3,31.4 Q412.5,31.1 413.2,30.6 Q414.5,31.1 415.0,31.3 Q415.5,31.5 415.5,32.7 Q415.5,33.6 415.2,33.9 Q414.9,34.2 413.9,34.2 Z"/><path d="M424.3,35.0 Q425.8,35.0 426.2,34.6 Q426.7,34.1 426.7,33.0 Q426.7,31.8 426.1,31.6 Q425.6,31.4 424.7,31.0 Q424.0,30.7 423.6,30.6 Q423.3,30.5 423.3,29.8 Q423.3,29.3 423.5,29.1 Q423.7,28.9 424.5,28.9 Q425.1,28.9 425.3,29.0 Q425.5,29.1 426.0,29.5 L426.5,28.8 Q426.0,28.3 425.6,28.2 Q425.3,28.0 424.5,28.0 Q423.0,28.0 422.6,28.4 Q422.2,28.8 422.2,29.9 Q422.2,31.0 422.7,31.3 Q423.2,31.5 424.1,31.8 Q424.8,32.1 425.2,32.3 Q425.6,32.4 425.6,33.1 Q425.6,33.7 425.4,33.9 Q425.2,34.2 424.3,34.2 Q423.6,34.2 423.3,34.0 Q423.0,33.8 422.4,33.4 L421.9,34.1 Q422.5,34.6 422.9,34.8 Q423.4,35.0 424.3,35.0 Z"/><path d="M429.1,35.0 L430.2,35.0 L430.2,33.2 L431.4,31.6 L433.3,35.0 L434.5,35.0 L432.0,30.8 L434.2,28.0 L433.0,28.0 L430.2,31.7 L430.2,31.7 L430.2,25.0 L429.1,25.0 L429.1,35.0 Z"/><path d="M436.6,35.0 L437.7,35.0 L437.7,28.0 L436.6,28.0 L436.6,35.0 Z M437.1,26.5 Q437.6,26.5 437.7,26.3 Q437.9,26.2 437.9,25.7 Q437.9,25.3 437.7,25.1 Q437.6,25.0 437.1,25.0 Q436.7,25.0 436.6,25.1 Q436.4,25.3 436.4,25.7 Q436.4,26.2 436.6,26.3 Q436.7,26.5 437.1,26.5 Z"/><path d="M441.2,35.0 Q441.5,35.0 441.6,35.0 Q441.7,35.0 441.9,34.9 L441.7,34.1 Q441.6,34.1 441.6,34.1 Q441.6,34.1 441.5,34.1 Q441.3,34.1 441.3,34.0 Q441.2,34.0 441.2,33.6 L441.2,25.3 L440.1,25.3 L440.1,33.6 Q440.1,34.5 440.3,34.7 Q440.4,35.0 441.2,35.0 Z"/><path d="M444.8,35.0 Q445.0,35.0 445.1,35.0 Q445.2,35.0 445.4,34.9 L445.2,34.1 Q445.1,34.1 445.1,34.1 Q445.1,34.1 445.0,34.1 Q444.8,34.1 444.8,34.0 Q444.7,34.0 444.7,33.6 L444.7,25.3 L443.6,25.3 L443.6,33.6 Q443.6,34.5 443.8,34.7 Q443.9,35.0 444.8,35.0 Z"/><path d="M448.8,35.0 Q450.3,35.0 450.7,34.6 Q451.2,34.1 451.2,33.0 Q451.2,31.8 450.6,31.6 Q450.1,31.4 449.2,31.0 Q448.5,30.7 448.1,30.6 Q447.8,30.5 447.8,29.8 Q447.8,29.3 448.0,29.1 Q448.2,28.9 449.0,28.9 Q449.6,28.9 449.8,29.0 Q450.0,29.1 450.5,29.5 L451.0,28.8 Q450.5,28.3 450.1,28.2 Q449.8,28.0 449.0,28.0 Q447.5,28.0 447.1,28.4 Q446.7,28.8 446.7,29.9 Q446.7,31.0 447.2,31.3 Q447.7,31.5 448.6,31.8 Q449.3,32.1 449.7,32.3 Q450.1,32.4 450.1,33.1 Q450.1,33.7 449.9,33.9 Q449.7,34.2 448.8,34.2 Q448.1,34.2 447.8,34.0 Q447.5,33.8 446.9,33.4 L446.4,34.1 Q447.0,34.6 447.4,34.8 Q447.9,35.0 448.8,35.0 Z"/></g>
</svg>
