<svg xmlns="http://www.w3.org/2000/svg" viewBox="0 0 470 56" width="470" height="56" role="img" aria-label="风险评估与价值判断">
  <rect x="0.5" y="0.5" width="469" height="55" rx="6" fill="#f3e0e6"/>
  <rect x="0" y="0" width="4" height="56" rx="2" fill="#9c3a55"/>
  <g fill="#9c3a55"><path d="M17.6,36.0 Q19.9,36.0 20.7,35.0 Q21.5,34.0 21.5,30.0 Q21.5,25.9 20.7,25.0 Q19.9,24.0 17.6,24.0 Q15.2,24.0 14.4,24.9 Q13.6,25.9 13.6,30.0 Q13.6,34.0 14.4,35.0 Q15.2,36.0 17.6,36.0 Z M17.6,33.9 Q16.8,33.9 16.4,33.6 Q16.1,33.2 16.1,30.0 Q16.1,26.7 16.4,26.4 Q16.8,26.0 17.6,26.0 Q18.4,26.0 18.7,26.4 Q19.0,26.7 19.0,30.0 Q19.0,33.2 18.7,33.6 Q18.4,33.9 17.6,33.9 Z"/><path d="M26.9,36.0 Q28.8,36.0 29.7,35.3 Q30.5,34.6 30.5,31.9 Q30.5,29.2 29.8,28.7 Q29.1,28.1 27.2,28.1 Q26.6,28.1 26.2,28.3 Q25.7,28.5 25.1,29.2 Q25.2,26.9 25.7,26.5 Q26.1,26.1 27.3,26.1 Q27.9,26.1 28.3,26.3 Q28.6,26.5 29.0,26.9 L30.4,25.3 Q29.7,24.6 29.1,24.3 Q28.6,24.0 27.1,24.0 Q24.8,24.0 23.8,24.9 Q22.7,25.9 22.7,29.7 Q22.7,34.4 23.7,35.2 Q24.8,36.0 26.9,36.0 Z M25.2,31.2 Q25.6,30.3 25.9,30.2 Q26.2,30.0 26.8,30.0 Q27.5,30.0 27.8,30.2 Q28.1,30.5 28.1,31.9 Q28.1,33.4 27.8,33.7 Q27.5,34.0 26.8,34.0 Q26.1,34.0 25.7,33.7 Q25.4,33.4 25.2,31.2 Z"/></g>
  <g fill="#2a2d34"><path d="M54.8,17.1 Q54.5,18.2 54.3,18.8 Q54.1,19.4 53.5,20.6 Q52.9,19.6 52.5,19.1 Q52.2,18.6 51.5,17.7 L49.5,18.8 L49.5,18.8 L49.5,16.0 L57.4,16.0 Q57.3,27.0 57.4,29.5 Q57.4,32.0 60.7,32.0 Q62.1,32.0 62.4,31.4 Q62.6,30.8 62.8,28.3 Q62.3,27.8 62.0,27.2 Q61.7,26.7 61.2,25.9 Q61.2,27.5 61.1,28.2 Q61.0,29.0 60.9,29.0 Q60.0,29.0 60.0,26.5 Q60.0,24.0 60.1,13.3 L46.6,13.3 L46.6,18.8 Q46.6,22.2 46.5,24.7 Q46.5,27.2 44.4,30.4 Q45.0,30.7 45.6,31.2 Q46.2,31.7 46.7,32.2 Q47.6,31.0 47.9,30.2 Q48.2,29.5 48.6,27.7 Q49.3,24.8 49.4,23.2 Q49.5,21.6 49.5,19.2 Q50.3,20.5 50.8,21.2 Q51.3,21.9 52.1,23.4 Q51.1,25.1 50.5,25.8 Q49.9,26.6 48.6,27.7 Q49.2,28.2 49.7,28.8 Q50.1,29.3 50.6,29.9 Q51.7,28.9 52.2,28.3 Q52.7,27.6 53.7,26.1 Q54.3,27.3 54.6,27.9 Q54.9,28.5 55.2,29.4 L57.7,27.9 Q57.2,26.5 56.7,25.7 Q56.3,24.9 55.2,23.2 Q56.0,21.5 56.3,20.6 Q56.7,19.7 57.2,17.8 L54.8,17.1 Z"/><path d="M70.8,23.2 Q71.1,24.8 71.3,25.7 Q71.5,26.7 71.7,28.1 L73.9,27.3 Q73.7,26.0 73.5,25.1 Q73.3,24.1 72.9,22.5 L70.8,23.2 Z M66.5,25.0 L66.5,16.5 L67.6,16.5 Q67.4,17.7 67.2,18.4 Q67.0,19.1 66.8,20.2 Q67.7,21.4 67.8,22.1 Q67.8,22.8 67.8,23.7 Q67.8,24.3 67.8,24.5 Q67.7,24.7 67.5,24.9 Q67.4,25.0 67.4,25.0 Q67.3,25.0 67.1,25.0 L66.5,25.0 Z M74.6,12.8 Q73.4,15.1 72.4,16.1 Q71.5,17.2 69.5,18.5 Q69.8,17.4 70.0,16.7 Q70.2,16.1 70.5,14.9 L68.8,13.9 L68.4,14.0 L64.1,14.0 L64.1,32.0 L66.5,32.0 L66.5,25.1 Q66.8,25.8 66.9,26.2 Q67.0,26.7 67.0,27.3 Q67.5,27.3 67.7,27.3 Q67.9,27.3 68.2,27.3 Q68.6,27.2 68.8,27.1 Q69.0,27.1 69.3,26.8 Q70.0,26.3 70.1,25.9 Q70.2,25.5 70.2,24.1 Q70.2,22.8 70.2,22.1 Q70.1,21.4 69.0,19.9 L69.3,19.1 Q69.8,19.7 70.1,20.2 Q70.4,20.6 70.6,21.1 Q71.0,20.8 71.2,20.6 Q71.4,20.5 71.8,20.1 L71.8,21.3 L78.7,21.3 L78.7,19.6 Q79.3,20.1 79.7,20.3 Q80.0,20.6 80.6,21.0 Q80.8,20.2 81.1,19.5 Q81.4,18.9 81.9,18.2 Q80.0,17.3 79.0,16.6 Q78.0,15.8 76.6,14.4 L76.9,13.9 L74.6,12.8 Z M75.2,16.4 Q76.1,17.3 76.5,17.8 Q77.0,18.2 78.0,19.0 L73.0,19.0 Q73.8,18.2 74.1,17.8 Q74.5,17.3 75.2,16.4 Z M70.2,29.0 L70.2,31.4 L81.2,31.4 L81.2,29.0 L78.5,29.0 Q79.3,27.0 79.8,25.9 Q80.2,24.9 80.9,22.7 L78.6,22.2 Q78.2,23.5 78.0,24.3 Q77.7,25.2 77.2,26.5 Q77.0,25.3 76.9,24.5 Q76.7,23.6 76.4,22.2 L74.3,22.5 Q74.6,24.1 74.7,25.0 Q74.9,26.0 75.0,27.2 L77.0,26.9 Q76.7,27.6 76.6,28.0 Q76.5,28.3 76.2,29.0 L70.2,29.0 Z"/><path d="M97.6,17.2 Q97.4,18.6 97.2,19.5 Q97.0,20.4 96.7,21.6 L98.8,22.2 Q99.2,21.0 99.5,20.2 Q99.7,19.3 100.2,17.7 L97.6,17.2 Z M89.0,17.7 Q89.4,19.1 89.6,20.0 Q89.8,20.9 89.9,22.2 L92.3,21.4 Q92.2,20.3 92.0,19.4 Q91.8,18.5 91.4,17.2 L89.0,17.7 Z M83.2,15.0 Q84.2,16.0 84.9,16.7 Q85.6,17.3 86.2,18.2 L88.0,16.3 Q87.4,15.5 86.7,14.8 Q85.9,14.2 85.0,13.3 L83.2,15.0 Z M88.8,14.0 L88.8,16.6 L93.1,16.6 L93.1,23.0 L88.5,23.0 L88.5,25.6 L93.1,25.6 L93.1,32.0 L95.9,32.0 L95.9,25.6 L100.5,25.6 L100.5,23.0 L95.9,23.0 L95.9,16.6 L99.9,16.6 L99.9,14.0 L88.8,14.0 Z M82.6,19.0 L82.6,21.6 L84.5,21.6 L84.5,27.4 Q84.5,28.4 84.3,28.7 Q84.1,29.0 83.6,29.4 Q84.0,29.9 84.3,30.5 Q84.6,31.1 84.8,31.8 Q85.2,31.3 85.5,31.0 Q85.8,30.7 89.2,27.5 Q88.8,27.0 88.6,26.4 Q88.4,25.8 88.2,25.0 L87.1,26.0 L87.1,19.0 L82.6,19.0 Z"/><path d="M105.3,13.1 Q104.4,15.9 103.6,17.3 Q102.8,18.6 101.2,20.3 Q101.7,21.1 102.0,22.0 Q102.4,22.8 102.6,23.5 Q102.9,23.2 103.1,23.1 Q103.2,22.9 103.5,22.5 L103.5,31.9 L106.1,31.9 L106.1,18.2 Q106.8,16.9 107.1,16.1 Q107.4,15.4 107.9,14.0 L105.3,13.1 Z M107.3,17.0 L107.3,19.7 L111.8,19.7 L111.8,23.0 L108.0,23.0 L108.0,32.0 L110.8,32.0 L110.8,31.0 L115.7,31.0 L115.7,31.9 L118.5,31.9 L118.5,23.0 L114.7,23.0 L114.7,19.7 L119.5,19.7 L119.5,17.0 L114.7,17.0 L114.7,13.0 L111.8,13.0 L111.8,17.0 L107.3,17.0 Z M110.8,28.4 L110.8,25.6 L115.7,25.6 L115.7,28.4 L110.8,28.4 Z"/><path d="M124.9,13.0 Q124.5,16.2 124.1,18.4 Q123.8,20.6 123.1,23.1 L126.0,23.4 L126.2,22.5 L132.1,22.5 L131.9,24.4 L120.8,24.4 L120.8,27.0 L131.5,27.0 Q131.4,28.1 131.2,28.5 Q131.1,28.8 130.9,29.0 Q130.6,29.3 130.5,29.3 Q130.3,29.3 129.9,29.3 Q129.4,29.3 128.8,29.3 Q128.2,29.3 126.9,29.2 Q127.5,30.0 127.7,30.6 Q127.9,31.2 127.9,32.0 Q129.1,32.0 129.7,32.1 Q130.3,32.1 131.1,32.0 Q132.0,31.8 132.3,31.7 Q132.6,31.6 133.3,30.9 Q133.8,30.3 133.9,29.8 Q134.1,29.2 134.4,27.0 L138.2,27.0 L138.2,24.4 L134.7,24.4 L135.0,21.2 Q135.0,20.8 135.0,20.4 Q135.1,20.0 135.1,20.0 L126.7,20.0 L127.0,18.0 L136.0,18.0 L136.0,15.4 L127.5,15.4 L127.8,13.3 L124.9,13.0 Z"/><path d="M143.2,13.1 Q142.3,15.9 141.5,17.2 Q140.7,18.6 139.1,20.4 Q139.5,21.1 139.9,21.9 Q140.3,22.7 140.5,23.4 Q140.8,23.1 141.0,22.9 Q141.2,22.7 141.5,22.3 L141.5,32.0 L144.1,32.0 L144.1,20.2 Q144.6,20.9 144.9,21.3 Q145.2,21.8 145.5,22.5 Q146.1,22.1 146.4,21.8 Q146.7,21.6 147.3,21.0 L147.3,23.6 Q147.3,25.4 147.2,26.9 Q147.0,28.4 144.6,30.2 Q145.2,30.7 145.7,31.2 Q146.1,31.6 146.5,32.2 Q149.4,29.7 149.7,28.0 Q150.0,26.2 150.0,23.7 L150.0,20.8 L147.5,20.8 Q148.9,19.4 149.5,18.6 Q150.0,17.8 150.8,16.4 Q151.6,17.5 152.2,18.3 Q152.8,19.1 154.2,20.4 L152.0,20.4 L152.0,31.8 L154.8,31.8 L154.8,21.0 Q155.3,21.5 155.5,21.7 Q155.8,21.9 156.2,22.2 Q156.7,21.3 157.0,20.8 Q157.3,20.3 157.9,19.6 Q155.7,18.4 154.6,17.1 Q153.5,15.8 152.0,13.3 L149.4,13.3 Q148.4,15.4 147.4,16.8 Q146.3,18.2 144.1,19.7 L144.1,17.8 Q144.8,16.5 145.0,15.8 Q145.3,15.2 145.8,13.9 L143.2,13.1 Z"/><path d="M162.2,13.1 Q161.3,15.8 160.6,17.0 Q159.8,18.3 158.3,20.0 Q158.7,21.1 159.1,21.9 Q159.4,22.6 159.7,23.4 L160.4,22.5 L160.4,32.2 L162.9,32.2 L162.9,18.0 Q163.5,16.9 163.7,16.4 Q164.0,15.8 164.4,14.8 L164.4,17.0 L168.6,17.0 L168.4,18.0 L165.1,18.0 L165.1,29.7 L163.6,29.7 L163.6,32.0 L176.5,32.0 L176.5,29.7 L175.2,29.7 L175.2,18.0 L170.9,18.0 L171.2,17.0 L176.1,17.0 L176.1,14.7 L171.6,14.7 L171.9,13.1 L169.0,13.1 L168.9,14.7 L164.5,14.7 L164.7,13.9 L162.2,13.1 Z M167.5,29.7 L167.5,28.8 L172.6,28.8 L172.6,29.7 L167.5,29.7 Z M167.5,23.0 L172.6,23.0 L172.6,24.0 L167.5,24.0 L167.5,23.0 Z M167.5,21.1 L167.5,20.0 L172.6,20.0 L172.6,21.1 L167.5,21.1 Z M167.5,25.8 L172.6,25.8 L172.6,27.0 L167.5,27.0 L167.5,25.8 Z"/><path d="M192.0,13.4 L192.0,28.6 Q192.0,29.1 192.0,29.1 Q191.9,29.2 191.5,29.2 Q191.1,29.2 190.5,29.2 Q189.9,29.2 188.7,29.1 Q189.1,29.9 189.3,30.6 Q189.5,31.2 189.6,32.0 Q191.4,32.0 192.0,32.0 Q192.7,31.9 193.6,31.5 Q194.5,31.0 194.6,30.6 Q194.8,30.3 194.8,28.7 L194.8,13.4 L192.0,13.4 Z M187.7,15.4 L187.7,27.0 L190.3,27.0 L190.3,15.4 L187.7,15.4 Z M184.9,13.9 Q184.7,15.1 184.5,15.9 Q184.2,16.8 183.8,17.9 L183.8,13.0 L181.1,13.0 L181.1,17.6 Q180.8,16.6 180.6,15.9 Q180.4,15.1 179.9,14.0 L177.6,14.7 Q178.1,16.0 178.4,16.9 Q178.6,17.7 178.8,18.8 L181.1,18.0 L181.1,19.0 L177.8,19.0 L177.8,21.5 L181.1,21.5 L181.1,23.4 L177.5,23.4 L177.5,26.0 L181.1,26.0 L181.1,32.0 L183.8,32.0 L183.8,26.0 L187.2,26.0 L187.2,23.4 L183.8,23.4 L183.8,21.5 L187.0,21.5 L187.0,19.0 L183.8,19.0 L183.8,18.1 L185.8,18.7 Q186.4,17.6 186.7,16.8 Q187.0,16.0 187.6,14.5 L184.9,13.9 Z"/><path d="M212.3,13.2 Q211.3,13.8 210.5,14.1 Q209.7,14.5 208.0,14.9 L206.5,14.5 L206.5,21.3 Q206.5,23.2 206.5,24.4 Q206.5,25.6 205.6,27.7 L205.6,27.7 L199.4,27.7 L199.4,24.6 Q199.7,25.3 199.8,25.7 Q200.0,26.1 200.2,26.7 Q200.7,26.2 201.0,25.8 Q201.2,25.4 201.7,24.6 L201.7,27.3 L203.9,27.3 L203.9,23.6 Q204.3,24.2 204.4,24.4 Q204.6,24.7 204.8,25.1 L206.2,23.1 Q205.9,22.9 205.1,22.2 Q204.4,21.4 203.9,21.1 L203.9,21.0 L206.0,21.0 L206.0,18.7 L203.9,18.7 L203.9,18.1 L205.2,18.5 Q205.6,17.7 205.8,17.0 Q206.1,16.3 206.5,15.0 L204.4,14.5 Q204.3,15.3 204.2,15.8 Q204.1,16.3 203.9,17.1 L203.9,13.3 L201.7,13.3 L201.7,16.6 Q201.6,15.8 201.5,15.5 Q201.4,15.1 201.2,14.5 L199.6,15.0 Q199.9,16.2 200.0,16.9 Q200.1,17.6 200.1,18.5 L201.7,18.0 L201.7,18.7 L199.6,18.7 L199.6,21.0 L201.5,21.0 Q201.0,22.0 200.6,22.6 Q200.2,23.2 199.4,24.1 L199.4,13.7 L197.0,13.7 L197.0,31.5 L199.4,31.5 L199.4,30.0 L204.6,30.0 Q205.2,30.5 205.6,30.9 Q206.0,31.3 206.3,31.9 Q208.6,29.2 208.9,27.1 Q209.1,25.0 209.2,22.0 L210.5,22.0 L210.5,31.9 L213.1,31.9 L213.1,22.0 L214.5,22.0 L214.5,19.5 L209.2,19.5 L209.2,17.0 Q211.0,16.6 212.0,16.3 Q212.9,16.0 214.5,15.3 L212.3,13.2 Z"/></g>
  <g fill="#5b606b"><path d="M46.1,42.0 L46.1,38.8 L47.5,38.8 Q48.7,38.8 49.1,39.0 Q49.4,39.2 49.4,40.3 Q49.4,41.5 49.1,41.7 Q48.7,42.0 47.5,42.0 L46.1,42.0 Z M49.5,46.0 L50.7,46.0 L48.6,42.7 Q49.7,42.5 50.1,42.1 Q50.4,41.7 50.4,40.3 Q50.4,38.6 49.9,38.3 Q49.3,38.0 47.6,38.0 L45.1,38.0 L45.1,46.0 L46.1,46.0 L46.1,42.8 L47.6,42.8 L49.5,46.0 Z"/><path d="M53.6,46.0 L54.6,46.0 L54.6,38.0 L53.6,38.0 L53.6,46.0 Z"/><path d="M60.3,46.0 Q62.0,46.0 62.5,45.5 Q63.1,45.0 63.1,43.8 Q63.1,42.7 62.7,42.4 Q62.3,42.1 61.4,41.8 L60.3,41.3 Q59.6,41.0 59.3,40.9 Q58.9,40.8 58.9,40.0 Q58.9,39.3 59.2,39.1 Q59.5,38.9 60.4,38.9 Q61.2,38.9 61.5,39.0 Q61.8,39.2 62.3,39.6 L62.8,39.0 Q62.2,38.4 61.8,38.2 Q61.4,38.0 60.4,38.0 Q59.0,38.0 58.4,38.5 Q57.9,38.9 57.9,40.1 Q57.9,41.2 58.3,41.5 Q58.8,41.7 59.5,42.0 L60.7,42.5 Q61.5,42.8 61.8,43.0 Q62.0,43.1 62.0,43.9 Q62.0,44.6 61.7,44.9 Q61.4,45.1 60.3,45.1 Q59.5,45.1 59.1,44.9 Q58.7,44.7 58.1,44.2 L57.5,44.8 Q58.2,45.5 58.7,45.8 Q59.2,46.0 60.3,46.0 Z"/><path d="M66.6,46.0 L67.6,46.0 L67.6,43.5 L69.0,41.8 L71.4,46.0 L72.6,46.0 L69.6,41.0 L72.2,38.0 L71.0,38.0 L67.6,42.0 L67.6,42.0 L67.6,38.0 L66.6,38.0 L66.6,46.0 Z"/><path d="M80.3,46.0 Q81.3,46.0 81.7,45.8 Q82.0,45.6 82.7,45.1 Q83.3,45.5 83.6,45.7 Q84.0,45.9 84.5,46.0 L84.8,45.2 Q84.3,45.1 84.1,44.9 Q83.8,44.8 83.3,44.4 Q83.9,43.7 84.1,43.2 Q84.4,42.7 84.7,41.7 L83.8,41.7 Q83.5,42.6 83.3,43.0 Q83.1,43.3 82.6,44.0 Q81.9,43.4 81.5,43.0 Q81.1,42.6 80.6,41.8 Q81.5,41.2 81.9,40.9 Q82.4,40.5 82.4,39.5 Q82.4,38.7 82.1,38.3 Q81.8,38.0 80.8,38.0 Q79.7,38.0 79.3,38.4 Q79.0,38.8 79.0,39.8 Q79.0,40.4 79.1,40.7 Q79.2,41.0 79.5,41.6 Q78.6,42.2 78.3,42.5 Q77.9,42.8 77.9,43.8 Q77.9,45.1 78.4,45.5 Q78.9,46.0 80.3,46.0 Z M82.0,44.6 Q81.5,45.0 81.3,45.1 Q81.0,45.2 80.5,45.2 Q79.6,45.2 79.2,44.9 Q78.9,44.7 78.9,43.8 Q78.9,43.2 79.1,43.0 Q79.3,42.7 79.9,42.3 Q80.5,43.1 80.8,43.5 Q81.2,43.9 82.0,44.6 Z M80.2,41.2 Q80.0,40.7 79.9,40.5 Q79.8,40.2 79.8,39.8 Q79.8,39.2 80.0,39.0 Q80.2,38.7 80.8,38.7 Q81.4,38.7 81.5,38.9 Q81.6,39.1 81.6,39.6 Q81.6,40.2 81.3,40.5 Q80.9,40.7 80.2,41.2 Z"/><path d="M92.1,46.0 L93.2,46.0 L95.8,38.0 L94.8,38.0 L93.5,42.3 Q93.2,43.3 93.1,43.7 Q93.0,44.0 92.7,45.0 L92.7,45.0 Q92.4,44.0 92.3,43.7 Q92.2,43.3 91.9,42.3 L90.6,38.0 L89.5,38.0 L92.1,46.0 Z"/><path d="M97.0,46.0 L98.1,46.0 L98.8,43.8 L101.8,43.8 L102.6,46.0 L103.6,46.0 L100.9,38.0 L99.8,38.0 L97.0,46.0 Z M99.1,43.0 L99.5,41.7 Q99.8,40.7 99.9,40.3 Q100.0,39.8 100.3,38.8 L100.3,38.8 Q100.6,39.8 100.7,40.3 Q100.9,40.7 101.2,41.7 L101.5,43.0 L99.1,43.0 Z"/><path d="M106.6,46.0 L111.1,46.0 L111.1,45.1 L107.6,45.1 L107.6,38.0 L106.6,38.0 L106.6,46.0 Z"/><path d="M117.0,46.0 Q118.6,46.0 119.2,45.6 Q119.9,45.1 119.9,42.6 L119.9,38.0 L118.9,38.0 L118.9,42.6 Q118.9,44.5 118.5,44.8 Q118.0,45.1 117.0,45.1 Q115.9,45.1 115.5,44.8 Q115.1,44.5 115.1,42.6 L115.1,38.0 L114.1,38.0 L114.1,42.6 Q114.1,45.1 114.7,45.6 Q115.3,46.0 117.0,46.0 Z"/><path d="M123.6,46.0 L128.4,46.0 L128.4,45.1 L124.6,45.1 L124.6,42.0 L127.7,42.0 L127.7,41.1 L124.6,41.1 L124.6,38.9 L128.2,38.9 L128.2,38.0 L123.6,38.0 L123.6,46.0 Z"/><path d="M136.1,46.0 Q137.7,46.0 138.0,45.5 Q138.3,44.9 138.3,43.5 L138.3,38.0 L137.3,38.0 L137.3,43.5 Q137.3,44.6 137.1,44.9 Q136.9,45.1 136.0,45.1 Q135.4,45.1 135.2,45.0 Q135.0,44.9 134.6,44.2 L133.9,44.8 Q134.3,45.6 134.7,45.8 Q135.1,46.0 136.1,46.0 Z"/><path d="M145.0,46.0 Q146.6,46.0 147.2,45.6 Q147.9,45.1 147.9,42.6 L147.9,38.0 L146.9,38.0 L146.9,42.6 Q146.9,44.5 146.5,44.8 Q146.0,45.1 145.0,45.1 Q143.9,45.1 143.5,44.8 Q143.1,44.5 143.1,42.6 L143.1,38.0 L142.1,38.0 L142.1,42.6 Q142.1,45.1 142.7,45.6 Q143.3,46.0 145.0,46.0 Z"/><path d="M151.6,46.0 L153.7,46.0 Q156.1,46.0 156.8,45.2 Q157.4,44.5 157.4,42.0 Q157.4,39.4 156.8,38.7 Q156.1,38.0 153.6,38.0 L151.6,38.0 L151.6,46.0 Z M152.6,45.2 L152.6,38.8 L153.5,38.8 Q155.4,38.8 155.9,39.4 Q156.4,40.0 156.4,42.0 Q156.4,44.0 155.9,44.6 Q155.4,45.2 153.5,45.2 L152.6,45.2 Z"/><path d="M164.3,46.0 Q165.3,46.0 165.8,45.8 Q166.2,45.6 166.8,45.1 L166.8,42.0 L164.1,42.0 L164.1,42.9 L165.8,42.9 L165.8,44.7 Q165.5,45.0 165.2,45.0 Q164.9,45.1 164.4,45.1 Q162.6,45.1 162.2,44.6 Q161.7,44.0 161.7,42.1 Q161.7,40.1 162.2,39.5 Q162.7,38.9 164.4,38.9 Q165.2,38.9 165.4,39.1 Q165.7,39.2 166.1,39.7 L166.6,39.0 Q166.2,38.5 165.8,38.3 Q165.5,38.0 164.3,38.0 Q162.2,38.0 161.4,38.8 Q160.6,39.6 160.6,42.2 Q160.6,44.5 161.4,45.3 Q162.2,46.0 164.3,46.0 Z"/><path d="M170.6,46.0 L171.5,46.0 L171.5,41.6 Q171.5,40.9 171.5,40.4 Q171.5,39.9 171.4,39.2 L171.4,39.2 L172.1,41.1 L173.6,45.3 L174.3,45.3 L175.8,41.1 L176.5,39.2 L176.5,39.2 Q176.4,39.9 176.4,40.4 Q176.4,40.9 176.4,41.6 L176.4,46.0 L177.3,46.0 L177.3,38.0 L176.1,38.0 L174.5,42.3 Q174.4,42.9 174.3,43.2 Q174.2,43.5 174.0,44.0 L174.0,44.0 Q173.8,43.5 173.7,43.2 Q173.6,42.9 173.4,42.3 L171.8,38.0 L170.6,38.0 L170.6,46.0 Z"/><path d="M181.1,46.0 L185.9,46.0 L185.9,45.1 L182.1,45.1 L182.1,42.0 L185.2,42.0 L185.2,41.1 L182.1,41.1 L182.1,38.9 L185.8,38.9 L185.8,38.0 L181.1,38.0 L181.1,46.0 Z"/><path d="M188.6,46.0 L189.6,46.0 L189.6,41.8 Q189.6,41.0 189.5,40.5 Q189.5,40.1 189.4,39.3 L189.5,39.3 L190.4,41.0 L193.3,46.0 L194.3,46.0 L194.3,38.0 L193.4,38.0 L193.4,42.2 Q193.4,43.0 193.4,43.4 Q193.4,43.9 193.5,44.7 L193.5,44.7 L192.6,43.0 L189.6,38.0 L188.6,38.0 L188.6,46.0 Z"/><path d="M199.8,46.0 L200.8,46.0 L200.8,38.9 L203.2,38.9 L203.2,38.0 L197.3,38.0 L197.3,38.9 L199.8,38.9 L199.8,46.0 Z"/></g>
  <g fill="#9c3a55"><path d="M414.1,35.0 Q415.5,35.0 416.1,34.4 Q416.6,33.8 416.6,32.0 Q416.6,30.1 416.2,29.6 Q415.7,29.2 414.2,29.2 Q413.5,29.2 413.1,29.4 Q412.7,29.6 412.2,30.3 Q412.2,27.7 412.7,27.3 Q413.2,26.9 414.5,26.9 Q415.0,26.9 415.2,27.0 Q415.5,27.1 415.9,27.5 L416.5,26.9 Q416.0,26.4 415.7,26.2 Q415.3,26.0 414.4,26.0 Q412.7,26.0 411.9,26.6 Q411.2,27.3 411.2,30.5 Q411.2,33.5 411.8,34.3 Q412.4,35.0 414.1,35.0 Z M412.2,31.2 Q412.8,30.3 413.1,30.2 Q413.5,30.0 414.0,30.0 Q415.1,30.0 415.3,30.4 Q415.6,30.8 415.6,32.0 Q415.6,33.3 415.3,33.7 Q414.9,34.1 414.1,34.1 Q413.0,34.1 412.7,33.6 Q412.3,33.1 412.2,31.2 Z"/><path d="M424.3,35.0 Q425.8,35.0 426.2,34.6 Q426.7,34.1 426.7,33.0 Q426.7,31.8 426.1,31.6 Q425.6,31.4 424.7,31.0 Q424.0,30.7 423.6,30.6 Q423.3,30.5 423.3,29.8 Q423.3,29.3 423.5,29.1 Q423.7,28.9 424.5,28.9 Q425.1,28.9 425.3,29.0 Q425.5,29.1 426.0,29.5 L426.5,28.8 Q426.0,28.3 425.6,28.2 Q425.3,28.0 424.5,28.0 Q423.0,28.0 422.6,28.4 Q422.2,28.8 422.2,29.9 Q422.2,31.0 422.7,31.3 Q423.2,31.5 424.1,31.8 Q424.8,32.1 425.2,32.3 Q425.6,32.4 425.6,33.1 Q425.6,33.7 425.4,33.9 Q425.2,34.2 424.3,34.2 Q423.6,34.2 423.3,34.0 Q423.0,33.8 422.4,33.4 L421.9,34.1 Q422.5,34.6 422.9,34.8 Q423.4,35.0 424.3,35.0 Z"/><path d="M429.1,35.0 L430.2,35.0 L430.2,33.2 L431.4,31.6 L433.3,35.0 L434.5,35.0 L432.0,30.8 L434.2,28.0 L433.0,28.0 L430.2,31.7 L430.2,31.7 L430.2,25.0 L429.1,25.0 L429.1,35.0 Z"/><path d="M436.6,35.0 L437.7,35.0 L437.7,28.0 L436.6,28.0 L436.6,35.0 Z M437.1,26.5 Q437.6,26.5 437.7,26.3 Q437.9,26.2 437.9,25.7 Q437.9,25.3 437.7,25.1 Q437.6,25.0 437.1,25.0 Q436.7,25.0 436.6,25.1 Q436.4,25.3 436.4,25.7 Q436.4,26.2 436.6,26.3 Q436.7,26.5 437.1,26.5 Z"/><path d="M441.2,35.0 Q441.5,35.0 441.6,35.0 Q441.7,35.0 441.9,34.9 L441.7,34.1 Q441.6,34.1 441.6,34.1 Q441.6,34.1 441.5,34.1 Q441.3,34.1 441.3,34.0 Q441.2,34.0 441.2,33.6 L441.2,25.3 L440.1,25.3 L440.1,33.6 Q440.1,34.5 440.3,34.7 Q440.4,35.0 441.2,35.0 Z"/><path d="M444.8,35.0 Q445.0,35.0 445.1,35.0 Q445.2,35.0 445.4,34.9 L445.2,34.1 Q445.1,34.1 445.1,34.1 Q445.1,34.1 445.0,34.1 Q444.8,34.1 444.8,34.0 Q444.7,34.0 444.7,33.6 L444.7,25.3 L443.6,25.3 L443.6,33.6 Q443.6,34.5 443.8,34.7 Q443.9,35.0 444.8,35.0 Z"/><path d="M448.8,35.0 Q450.3,35.0 450.7,34.6 Q451.2,34.1 451.2,33.0 Q451.2,31.8 450.6,31.6 Q450.1,31.4 449.2,31.0 Q448.5,30.7 448.1,30.6 Q447.8,30.5 447.8,29.8 Q447.8,29.3 448.0,29.1 Q448.2,28.9 449.0,28.9 Q449.6,28.9 449.8,29.0 Q450.0,29.1 450.5,29.5 L451.0,28.8 Q450.5,28.3 450.1,28.2 Q449.8,28.0 449.0,28.0 Q447.5,28.0 447.1,28.4 Q446.7,28.8 446.7,29.9 Q446.7,31.0 447.2,31.3 Q447.7,31.5 448.6,31.8 Q449.3,32.1 449.7,32.3 Q450.1,32.4 450.1,33.1 Q450.1,33.7 449.9,33.9 Q449.7,34.2 448.8,34.2 Q448.1,34.2 447.8,34.0 Q447.5,33.8 446.9,33.4 L446.4,34.1 Q447.0,34.6 447.4,34.8 Q447.9,35.0 448.8,35.0 Z"/></g>
</svg>
