<svg xmlns="http://www.w3.org/2000/svg" viewBox="0 0 470 72" width="470" height="72" role="img" aria-label="法律推理">
  <defs><linearGradient id="cb" x1="0" y1="0" x2="0" y2="1"><stop offset="0" stop-color="#2b313c"/><stop offset="1" stop-color="#1f232b"/></linearGradient></defs>
  <rect x="1" y="1" width="468" height="70" rx="12" fill="url(#cb)" stroke="#b08d57" stroke-opacity="0.4"/>
  <path d="M13 1 H46 V71 H13 a12 12 0 0 1 -12 -12 V13 a12 12 0 0 1 12 -12 Z" fill="#c0392b" opacity="0.94"/>
  <g fill="#f4ede0"><path d="M29.2,23.0 Q28.8,24.8 28.5,26.0 Q28.2,27.3 27.8,29.0 L24.6,29.0 L24.4,28.9 Q25.0,27.5 25.3,26.8 Q25.5,26.0 26.0,24.5 Q26.7,24.4 26.9,24.3 Q27.1,24.2 27.2,23.8 L22.6,22.5 Q21.6,28.3 20.6,31.3 Q19.5,34.2 17.2,37.9 L17.6,38.1 Q18.7,37.2 19.3,36.7 Q19.8,36.2 20.8,35.0 L20.8,51.5 L21.4,51.5 Q23.1,51.5 23.6,51.1 Q24.2,50.7 24.2,50.5 L24.2,49.0 L36.7,49.0 Q37.2,49.0 37.3,48.9 Q37.5,48.9 37.6,48.5 Q36.4,47.2 35.4,46.2 Q34.3,45.2 34.3,45.2 L32.5,48.2 L30.8,48.2 L30.8,42.0 L35.7,42.0 Q36.1,42.0 36.3,41.9 Q36.4,41.9 36.5,41.5 Q35.4,40.5 34.5,39.7 Q33.6,38.9 33.6,38.9 L32.0,41.2 L30.8,41.2 L30.8,36.0 L35.7,36.0 Q36.1,36.0 36.2,35.9 Q36.4,35.9 36.4,35.5 Q35.4,34.4 34.5,33.6 Q33.6,32.7 33.6,32.7 L32.0,35.2 L30.8,35.2 L30.8,29.8 L36.2,29.8 Q36.6,29.8 36.8,29.8 Q37.0,29.7 37.0,29.4 Q35.8,28.2 34.8,27.3 Q33.8,26.5 33.8,26.5 L32.0,29.0 L28.7,29.0 Q29.9,27.7 30.7,26.9 Q31.5,26.0 32.5,24.9 Q33.2,24.9 33.4,24.8 Q33.6,24.7 33.8,24.2 L29.2,23.0 Z M24.2,29.8 L27.4,29.8 L27.4,35.2 L24.2,35.2 L24.2,29.8 Z M24.2,36.0 L27.4,36.0 L27.4,41.2 L24.2,41.2 L24.2,36.0 Z M24.2,42.0 L27.4,42.0 L27.4,48.2 L24.2,48.2 L24.2,42.0 Z M8.6,37.3 L10.0,41.3 Q10.4,41.1 10.5,41.0 Q10.7,40.8 10.8,40.4 L12.6,39.1 L12.6,47.2 Q12.6,47.6 12.6,47.7 Q12.5,47.7 12.1,47.7 Q11.5,47.7 10.3,47.7 Q9.1,47.6 9.1,47.6 L9.1,48.0 Q10.3,48.2 10.6,48.4 Q10.9,48.6 11.3,49.1 Q11.7,49.7 11.7,50.1 Q11.8,50.5 11.8,51.6 Q15.5,51.2 15.7,50.6 Q16.0,49.9 16.0,47.5 L16.0,36.6 L19.0,34.2 L18.9,33.9 L16.0,34.9 L16.0,30.8 L19.6,30.8 Q20.0,30.8 20.2,30.8 Q20.3,30.7 20.4,30.4 Q19.5,29.3 18.6,28.4 Q17.7,27.6 17.7,27.6 L16.2,30.0 L16.0,30.0 L16.0,24.0 Q16.7,23.9 16.9,23.7 Q17.0,23.6 17.1,23.1 L12.6,22.7 L12.6,30.0 L8.9,30.0 L9.2,30.8 L12.6,30.8 L12.6,36.1 Q10.9,36.7 10.1,36.9 Q9.4,37.1 8.6,37.3 Z"/></g>
  <g fill="#f4ede0"><path d="M73.6,16.5 Q74.9,17.1 75.7,17.6 Q76.5,18.1 77.3,18.8 L79.0,16.4 Q78.2,15.6 77.3,15.1 Q76.5,14.6 75.2,14.1 L73.6,16.5 Z M72.5,22.0 Q73.7,22.6 74.6,23.0 Q75.4,23.5 76.2,24.2 L77.8,21.7 Q76.9,21.0 76.1,20.6 Q75.2,20.2 74.0,19.8 L72.5,22.0 Z M72.9,31.6 L75.5,33.5 Q76.6,31.5 77.1,30.4 Q77.7,29.3 78.6,27.0 L76.4,25.1 Q75.3,27.5 74.6,28.8 Q73.9,30.1 72.9,31.6 Z M85.6,27.5 Q86.1,28.2 86.3,28.5 Q86.6,28.9 87.0,29.6 L82.8,29.9 Q83.4,28.4 83.8,27.6 Q84.1,26.7 84.7,25.1 L84.5,25.0 L91.2,25.0 L91.2,22.2 L86.2,22.2 L86.2,19.8 L90.3,19.8 L90.3,17.0 L86.2,17.0 L86.2,14.1 L83.1,14.1 L83.1,17.0 L79.2,17.0 L79.2,19.8 L83.1,19.8 L83.1,22.2 L78.2,22.2 L78.2,25.0 L81.2,25.0 Q80.9,26.7 80.5,27.6 Q80.2,28.5 79.6,30.0 L78.2,30.1 L78.6,33.0 Q81.3,32.8 83.1,32.6 Q84.9,32.5 88.4,32.2 Q88.7,32.8 88.8,33.0 Q88.9,33.3 89.0,33.9 L91.8,32.2 Q91.2,30.5 90.4,29.2 Q89.6,28.0 88.2,26.1 L85.6,27.5 Z"/><path d="M96.4,14.1 Q95.6,15.5 94.7,16.3 Q93.9,17.1 92.4,18.0 Q92.8,18.7 93.2,19.3 Q93.5,19.9 93.8,20.5 Q95.7,19.3 96.7,18.3 Q97.8,17.2 99.1,15.3 L96.4,14.1 Z M96.9,18.7 Q95.8,20.5 94.8,21.5 Q93.9,22.4 92.3,23.6 Q92.7,24.3 93.0,25.4 Q93.4,26.6 93.5,27.2 Q94.0,26.8 94.2,26.6 Q94.5,26.4 95.0,25.9 L95.0,34.0 L97.7,34.0 L97.7,22.1 Q98.1,21.6 98.3,21.3 Q98.5,21.1 98.9,20.5 L98.9,21.5 L103.3,21.5 L103.3,22.0 L99.5,22.0 L99.5,24.3 L103.3,24.3 L103.3,25.6 L99.2,25.6 L99.2,28.0 L103.3,28.0 L103.3,28.5 L98.5,28.5 L98.5,31.0 L103.3,31.0 L103.3,33.9 L106.1,33.9 L106.1,31.0 L111.3,31.0 L111.3,28.5 L106.1,28.5 L106.1,28.0 L110.6,28.0 L110.6,25.6 L106.1,25.6 L106.1,24.3 L110.4,24.3 L110.4,21.5 L111.5,21.5 L111.5,19.0 L110.4,19.0 L110.4,16.0 L106.1,16.0 L106.1,14.0 L103.3,14.0 L103.3,16.0 L99.6,16.0 L99.6,18.3 L103.3,18.3 L103.3,19.0 L98.9,19.0 L98.9,19.5 L96.9,18.7 Z M106.1,18.3 L107.7,18.3 L107.7,19.0 L106.1,19.0 L106.1,18.3 Z M106.1,22.0 L106.1,21.5 L107.7,21.5 L107.7,22.0 L106.1,22.0 Z"/><path d="M125.0,24.4 L125.0,26.0 L123.1,26.0 L123.1,24.4 L125.0,24.4 Z M114.9,14.1 L114.9,18.0 L112.8,18.0 L112.8,20.7 L114.9,20.7 L114.9,24.0 Q114.0,24.2 113.5,24.3 Q113.1,24.3 112.3,24.5 L112.9,27.4 L114.9,26.9 L114.9,30.6 Q114.9,30.9 114.9,30.9 Q114.8,31.0 114.5,31.0 Q114.3,31.0 113.9,31.0 Q113.5,31.0 112.8,31.0 Q113.1,31.8 113.3,32.4 Q113.5,33.0 113.6,33.8 Q115.0,33.8 115.5,33.8 Q116.0,33.7 116.8,33.2 Q117.5,32.8 117.6,32.4 Q117.7,32.0 117.7,30.6 L117.7,26.1 L119.3,25.7 L119.0,23.0 L117.7,23.3 L117.7,20.7 L118.5,20.7 L118.0,21.3 Q118.5,22.0 119.0,22.6 Q119.5,23.3 119.8,24.0 L120.4,23.3 L120.4,34.0 L123.1,34.0 L123.1,33.0 L131.4,33.0 L131.4,30.4 L127.6,30.4 L127.6,28.4 L130.5,28.4 L130.5,26.0 L127.6,26.0 L127.6,24.4 L130.5,24.4 L130.5,22.0 L127.6,22.0 L127.6,20.5 L131.0,20.5 L131.0,18.0 L128.0,18.0 Q128.4,17.0 128.6,16.4 Q128.8,15.9 129.2,14.8 L126.2,14.1 Q125.9,15.3 125.7,16.0 Q125.5,16.7 125.1,18.0 L123.4,18.0 Q123.8,17.0 123.9,16.4 Q124.1,15.9 124.4,14.8 L121.6,14.0 Q121.0,16.3 120.6,17.4 Q120.1,18.6 119.0,20.1 L119.0,18.0 L117.7,18.0 L117.7,14.1 L114.9,14.1 Z M125.0,22.0 L123.1,22.0 L123.1,20.5 L125.0,20.5 L125.0,22.0 Z M125.0,28.4 L125.0,30.4 L123.1,30.4 L123.1,28.4 L125.0,28.4 Z"/><path d="M142.7,21.0 L144.2,21.0 L144.2,22.6 L142.7,22.6 L142.7,21.0 Z M146.6,21.0 L148.0,21.0 L148.0,22.6 L146.6,22.6 L146.6,21.0 Z M142.7,17.5 L144.2,17.5 L144.2,18.8 L142.7,18.8 L142.7,17.5 Z M146.6,17.5 L148.0,17.5 L148.0,18.8 L146.6,18.8 L146.6,17.5 Z M138.7,30.4 L138.7,33.0 L151.6,33.0 L151.6,30.4 L146.9,30.4 L146.9,29.0 L150.9,29.0 L150.9,26.4 L146.9,26.4 L146.9,25.0 L150.7,25.0 L150.7,15.0 L140.1,15.0 L140.1,25.0 L143.9,25.0 L143.9,26.4 L140.0,26.4 L140.0,29.0 L143.9,29.0 L143.9,30.4 L138.7,30.4 Z M132.4,29.0 L133.0,31.9 Q135.0,31.3 136.2,30.9 Q137.5,30.5 139.7,29.7 L139.2,27.0 L137.4,27.6 L137.4,24.0 L139.1,24.0 L139.1,21.3 L137.4,21.3 L137.4,18.0 L139.5,18.0 L139.5,15.3 L132.6,15.3 L132.6,18.0 L134.7,18.0 L134.7,21.3 L132.8,21.3 L132.8,24.0 L134.7,24.0 L134.7,28.5 Q133.8,28.6 133.4,28.8 Q133.0,28.9 132.4,29.0 Z"/></g>
  <g fill="#9aa3b2"><path d="M73.2,54.0 L78.2,54.0 L78.2,53.1 L74.3,53.1 L74.3,45.0 L73.2,45.0 L73.2,54.0 Z"/><path d="M81.2,54.0 L86.4,54.0 L86.4,53.1 L82.3,53.1 L82.3,50.0 L85.6,50.0 L85.6,49.0 L82.3,49.0 L82.3,45.9 L86.3,45.9 L86.3,45.0 L81.2,45.0 L81.2,54.0 Z"/><path d="M92.7,54.0 Q93.8,54.0 94.3,53.8 Q94.8,53.6 95.4,53.0 L95.4,49.1 L92.5,49.1 L92.5,50.0 L94.3,50.0 L94.3,52.5 Q94.0,52.8 93.7,52.9 Q93.4,53.0 92.8,53.0 Q90.9,53.0 90.4,52.3 Q89.8,51.5 89.8,49.2 Q89.8,47.2 90.4,46.6 Q91.0,46.0 92.8,46.0 Q93.6,46.0 93.9,46.1 Q94.2,46.3 94.7,46.7 L95.2,46.1 Q94.8,45.6 94.3,45.3 Q93.9,45.0 92.7,45.0 Q90.4,45.0 89.5,45.8 Q88.7,46.7 88.7,49.2 Q88.7,52.3 89.5,53.1 Q90.3,54.0 92.7,54.0 Z"/><path d="M97.0,54.0 L98.2,54.0 L99.0,51.0 L102.2,51.0 L103.1,54.0 L104.2,54.0 L101.2,45.0 L100.0,45.0 L97.0,54.0 Z M99.3,50.1 L99.7,48.8 Q100.0,47.8 100.2,47.4 Q100.3,46.9 100.6,45.9 L100.6,45.9 Q100.9,46.9 101.1,47.4 Q101.2,47.8 101.5,48.8 L102.0,50.1 L99.3,50.1 Z"/><path d="M106.2,54.0 L111.2,54.0 L111.2,53.1 L107.3,53.1 L107.3,45.0 L106.2,45.0 L106.2,54.0 Z"/><path d="M119.3,49.1 L119.3,45.9 L120.8,45.9 Q122.2,45.9 122.5,46.1 Q122.9,46.3 122.9,47.4 Q122.9,48.6 122.5,48.8 Q122.2,49.1 120.8,49.1 L119.3,49.1 Z M123.0,54.0 L124.3,54.0 L122.0,49.9 Q123.2,49.6 123.6,49.2 Q124.0,48.8 124.0,47.4 Q124.0,45.6 123.4,45.3 Q122.7,45.0 121.0,45.0 L118.2,45.0 L118.2,54.0 L119.3,54.0 L119.3,50.0 L120.9,50.0 L123.0,54.0 Z"/><path d="M127.2,54.0 L132.4,54.0 L132.4,53.1 L128.3,53.1 L128.3,50.0 L131.6,50.0 L131.6,49.0 L128.3,49.0 L128.3,45.9 L132.3,45.9 L132.3,45.0 L127.2,45.0 L127.2,54.0 Z"/><path d="M134.0,54.0 L135.2,54.0 L136.0,51.0 L139.2,51.0 L140.1,54.0 L141.2,54.0 L138.2,45.0 L137.0,45.0 L134.0,54.0 Z M136.3,50.1 L136.7,48.8 Q137.0,47.8 137.2,47.4 Q137.3,46.9 137.6,45.9 L137.6,45.9 Q137.9,46.9 138.1,47.4 Q138.2,47.8 138.5,48.8 L139.0,50.1 L136.3,50.1 Z"/><path d="M145.6,54.0 Q147.5,54.0 148.0,53.5 Q148.6,52.9 148.6,51.5 Q148.6,50.2 148.2,50.0 Q147.8,49.7 146.8,49.2 L145.6,48.7 Q144.9,48.4 144.5,48.2 Q144.1,48.1 144.1,47.2 Q144.1,46.5 144.4,46.2 Q144.8,46.0 145.8,46.0 Q146.6,46.0 146.9,46.1 Q147.2,46.3 147.8,46.8 L148.3,46.1 Q147.7,45.5 147.3,45.2 Q146.8,45.0 145.8,45.0 Q144.2,45.0 143.6,45.5 Q143.0,46.0 143.0,47.3 Q143.0,48.6 143.5,48.9 Q144.0,49.2 144.8,49.5 L146.0,50.1 Q146.9,50.5 147.2,50.6 Q147.5,50.7 147.5,51.6 Q147.5,52.5 147.2,52.8 Q146.8,53.0 145.7,53.0 Q144.7,53.0 144.3,52.8 Q143.8,52.6 143.2,52.0 L142.6,52.7 Q143.3,53.5 143.9,53.8 Q144.4,54.0 145.6,54.0 Z"/><path d="M154.4,54.0 Q156.7,54.0 157.4,53.1 Q158.2,52.2 158.2,49.5 Q158.2,46.7 157.4,45.9 Q156.7,45.0 154.4,45.0 Q152.2,45.0 151.5,45.9 Q150.7,46.7 150.7,49.5 Q150.7,52.2 151.5,53.1 Q152.2,54.0 154.4,54.0 Z M154.4,53.0 Q152.9,53.0 152.3,52.3 Q151.8,51.6 151.8,49.5 Q151.8,47.3 152.3,46.6 Q152.9,46.0 154.4,46.0 Q156.0,46.0 156.5,46.6 Q157.1,47.3 157.1,49.5 Q157.1,51.6 156.5,52.3 Q156.0,53.0 154.4,53.0 Z"/><path d="M161.2,54.0 L162.2,54.0 L162.2,49.3 Q162.2,48.3 162.2,47.8 Q162.2,47.3 162.1,46.4 L162.2,46.4 L163.1,48.3 L166.3,54.0 L167.5,54.0 L167.5,45.0 L166.4,45.0 L166.4,49.7 Q166.4,50.6 166.4,51.2 Q166.5,51.7 166.5,52.6 L166.5,52.6 L165.5,50.7 L162.3,45.0 L161.2,45.0 L161.2,54.0 Z"/><path d="M171.2,54.0 L172.3,54.0 L172.3,45.0 L171.2,45.0 L171.2,54.0 Z"/><path d="M176.2,54.0 L177.2,54.0 L177.2,49.3 Q177.2,48.3 177.2,47.8 Q177.2,47.3 177.1,46.4 L177.2,46.4 L178.1,48.3 L181.3,54.0 L182.5,54.0 L182.5,45.0 L181.4,45.0 L181.4,49.7 Q181.4,50.6 181.4,51.2 Q181.5,51.7 181.5,52.6 L181.5,52.6 L180.5,50.7 L177.3,45.0 L176.2,45.0 L176.2,54.0 Z"/><path d="M189.7,54.0 Q190.8,54.0 191.3,53.8 Q191.8,53.6 192.4,53.0 L192.4,49.1 L189.5,49.1 L189.5,50.0 L191.3,50.0 L191.3,52.5 Q191.0,52.8 190.7,52.9 Q190.4,53.0 189.8,53.0 Q187.9,53.0 187.4,52.3 Q186.8,51.5 186.8,49.2 Q186.8,47.2 187.4,46.6 Q188.0,46.0 189.8,46.0 Q190.6,46.0 190.9,46.1 Q191.2,46.3 191.7,46.7 L192.2,46.1 Q191.8,45.6 191.3,45.3 Q190.9,45.0 189.7,45.0 Q187.4,45.0 186.5,45.8 Q185.7,46.7 185.7,49.2 Q185.7,52.3 186.5,53.1 Q187.3,54.0 189.7,54.0 Z"/></g>
  <g transform="translate(410,21)">
    <rect x="0" y="0" width="44" height="30" rx="8" fill="#15171c" stroke="#b08d57" stroke-opacity="0.4"/>
    <g fill="#d8b988"><path d="M19.9,21.0 L22.7,21.0 Q22.9,16.3 23.1,15.2 Q23.2,14.0 26.0,10.8 L26.0,9.0 L17.8,9.0 L17.8,11.4 L22.9,11.4 Q20.7,14.5 20.4,15.8 Q20.1,17.1 19.9,21.0 Z"/></g>
  </g>
</svg>
