<svg xmlns="http://www.w3.org/2000/svg" viewBox="0 0 470 56" width="470" height="56" role="img" aria-label="法律推理">
  <rect x="0.5" y="0.5" width="469" height="55" rx="6" fill="#f6e3dc"/>
  <rect x="0" y="0" width="4" height="56" rx="2" fill="#b5462f"/>
  <g fill="#b5462f"><path d="M17.6,36.0 Q19.9,36.0 20.7,35.0 Q21.5,34.0 21.5,30.0 Q21.5,25.9 20.7,25.0 Q19.9,24.0 17.6,24.0 Q15.2,24.0 14.4,24.9 Q13.6,25.9 13.6,30.0 Q13.6,34.0 14.4,35.0 Q15.2,36.0 17.6,36.0 Z M17.6,33.9 Q16.8,33.9 16.4,33.6 Q16.1,33.2 16.1,30.0 Q16.1,26.7 16.4,26.4 Q16.8,26.0 17.6,26.0 Q18.4,26.0 18.7,26.4 Q19.0,26.7 19.0,30.0 Q19.0,33.2 18.7,33.6 Q18.4,33.9 17.6,33.9 Z"/><path d="M27.0,36.0 L29.5,36.0 L29.5,33.0 L30.7,33.0 L30.7,31.0 L29.5,31.0 L29.5,24.0 L26.2,24.0 L22.3,31.2 L22.3,33.0 L27.0,33.0 L27.0,36.0 Z M27.0,31.0 L24.9,31.0 L26.1,28.5 Q26.5,27.7 26.6,27.4 Q26.8,27.0 27.0,26.2 L27.1,26.2 Q27.1,27.1 27.0,27.7 Q27.0,28.3 27.0,29.1 L27.0,31.0 Z"/></g>
  <g fill="#2a2d34"><path d="M45.5,15.5 Q46.8,16.1 47.5,16.5 Q48.3,17.0 49.0,17.7 L50.7,15.4 Q49.9,14.6 49.1,14.1 Q48.3,13.6 47.1,13.1 L45.5,15.5 Z M44.4,20.8 Q45.6,21.3 46.4,21.8 Q47.2,22.2 47.9,22.8 L49.5,20.5 Q48.7,19.8 47.9,19.4 Q47.0,19.0 45.9,18.6 L44.4,20.8 Z M44.9,29.7 L47.3,31.5 Q48.3,29.5 48.9,28.5 Q49.4,27.5 50.3,25.5 L48.2,23.7 Q47.1,25.9 46.5,27.1 Q45.8,28.2 44.9,29.7 Z M57.0,25.9 Q57.4,26.5 57.6,26.8 Q57.8,27.1 58.2,27.8 L54.2,28.0 Q54.9,26.7 55.2,26.0 Q55.5,25.2 56.1,23.7 L55.8,23.6 L62.3,23.6 L62.3,21.0 L57.4,21.0 L57.4,18.6 L61.4,18.6 L61.4,16.0 L57.4,16.0 L57.4,13.1 L54.6,13.1 L54.6,16.0 L50.8,16.0 L50.8,18.6 L54.6,18.6 L54.6,21.0 L49.9,21.0 L49.9,23.6 L52.8,23.6 Q52.4,25.1 52.1,26.0 Q51.8,26.8 51.2,28.2 L49.9,28.2 L50.2,31.0 Q52.8,30.8 54.5,30.7 Q56.3,30.5 59.6,30.2 Q59.8,30.8 59.9,31.0 Q60.0,31.3 60.2,31.9 L62.8,30.2 Q62.2,28.6 61.5,27.5 Q60.7,26.3 59.3,24.6 L57.0,25.9 Z"/><path d="M67.2,13.0 Q66.4,14.3 65.6,15.1 Q64.8,15.9 63.4,16.7 Q63.8,17.3 64.1,17.9 Q64.4,18.5 64.7,19.1 Q66.5,18.0 67.5,17.0 Q68.5,16.0 69.8,14.1 L67.2,13.0 Z M67.7,17.3 Q66.6,19.1 65.7,20.2 Q64.8,21.3 63.3,22.5 Q63.6,23.2 64.0,24.0 Q64.3,24.9 64.5,25.5 Q64.9,25.1 65.1,24.9 Q65.3,24.7 65.8,24.2 L65.8,32.0 L68.4,32.0 L68.4,21.1 Q68.8,20.6 69.0,20.3 Q69.2,20.0 69.5,19.5 L69.5,20.0 L73.7,20.0 L73.7,21.0 L70.1,21.0 L70.1,23.2 L73.7,23.2 L73.7,24.0 L69.8,24.0 L69.8,26.2 L73.7,26.2 L73.7,27.0 L69.1,27.0 L69.1,29.4 L73.7,29.4 L73.7,32.0 L76.4,32.0 L76.4,29.4 L81.3,29.4 L81.3,27.0 L76.4,27.0 L76.4,26.2 L80.7,26.2 L80.7,24.0 L76.4,24.0 L76.4,23.2 L80.5,23.2 L80.5,20.0 L81.5,20.0 L81.5,17.7 L80.5,17.7 L80.5,14.8 L76.4,14.8 L76.4,13.0 L73.7,13.0 L73.7,14.8 L70.2,14.8 L70.2,17.0 L73.7,17.0 L73.7,17.7 L69.5,17.7 L69.5,18.2 L67.7,17.3 Z M76.4,17.0 L77.9,17.0 L77.9,17.7 L76.4,17.7 L76.4,17.0 Z M76.4,21.0 L76.4,20.0 L77.9,20.0 L77.9,21.0 L76.4,21.0 Z"/><path d="M94.3,23.0 L94.3,24.7 L92.6,24.7 L92.6,23.0 L94.3,23.0 Z M84.8,13.0 L84.8,16.5 L82.7,16.5 L82.7,19.0 L84.8,19.0 L84.8,22.5 Q83.9,22.8 83.4,22.9 Q83.0,22.9 82.3,23.0 L82.9,26.0 L84.8,25.5 L84.8,29.0 Q84.8,29.2 84.7,29.3 Q84.7,29.3 84.4,29.3 Q84.2,29.3 83.8,29.3 Q83.4,29.3 82.7,29.3 Q83.1,30.1 83.2,30.7 Q83.4,31.3 83.5,32.0 Q84.8,32.0 85.3,32.0 Q85.8,31.9 86.5,31.5 Q87.2,31.0 87.3,30.7 Q87.4,30.3 87.4,29.0 L87.4,24.8 L88.9,24.4 L88.6,21.7 L87.4,22.0 L87.4,19.0 L88.2,19.0 L87.7,19.8 Q88.2,20.7 88.7,21.3 Q89.1,22.0 89.4,22.5 L89.9,22.0 L89.9,32.0 L92.6,32.0 L92.6,31.0 L100.4,31.0 L100.4,28.5 L96.8,28.5 L96.8,27.0 L99.5,27.0 L99.5,24.7 L96.8,24.7 L96.8,23.0 L99.5,23.0 L99.5,20.7 L96.8,20.7 L96.8,19.0 L100.1,19.0 L100.1,16.6 L97.2,16.6 Q97.5,15.7 97.8,15.2 Q98.0,14.7 98.4,13.7 L95.4,13.0 Q95.2,14.1 95.0,14.8 Q94.8,15.4 94.4,16.6 L92.8,16.6 Q93.2,15.6 93.3,15.1 Q93.5,14.7 93.8,13.7 L91.1,13.0 Q90.6,15.1 90.1,16.1 Q89.7,17.1 88.6,18.6 L88.6,16.5 L87.4,16.5 L87.4,13.0 L84.8,13.0 Z M94.3,20.7 L92.6,20.7 L92.6,19.0 L94.3,19.0 L94.3,20.7 Z M94.3,27.0 L94.3,28.5 L92.6,28.5 L92.6,27.0 L94.3,27.0 Z"/><path d="M111.2,20.0 L112.6,20.0 L112.6,21.0 L111.2,21.0 L111.2,20.0 Z M114.9,20.0 L116.2,20.0 L116.2,21.0 L114.9,21.0 L114.9,20.0 Z M111.2,16.3 L112.6,16.3 L112.6,17.9 L111.2,17.9 L111.2,16.3 Z M114.9,16.3 L116.2,16.3 L116.2,17.9 L114.9,17.9 L114.9,16.3 Z M107.4,29.0 L107.4,31.5 L119.6,31.5 L119.6,29.0 L115.1,29.0 L115.1,27.5 L119.0,27.5 L119.0,25.0 L115.1,25.0 L115.1,23.3 L118.8,23.3 L118.8,14.0 L108.7,14.0 L108.7,23.3 L112.3,23.3 L112.3,25.0 L108.6,25.0 L108.6,27.5 L112.3,27.5 L112.3,29.0 L107.4,29.0 Z M101.3,27.5 L101.9,30.5 Q103.8,29.9 105.0,29.5 Q106.2,29.1 108.3,28.3 L107.9,25.6 L106.1,26.1 L106.1,22.5 L107.7,22.5 L107.7,20.0 L106.1,20.0 L106.1,16.5 L108.1,16.5 L108.1,14.0 L101.6,14.0 L101.6,16.5 L103.5,16.5 L103.5,20.0 L101.7,20.0 L101.7,22.5 L103.5,22.5 L103.5,26.8 Q102.7,27.1 102.3,27.2 Q102.0,27.3 101.3,27.5 Z"/></g>
  <g fill="#5b606b"><path d="M45.1,46.0 L49.6,46.0 L49.6,45.1 L46.1,45.1 L46.1,38.0 L45.1,38.0 L45.1,46.0 Z"/><path d="M52.6,46.0 L57.4,46.0 L57.4,45.1 L53.6,45.1 L53.6,42.0 L56.7,42.0 L56.7,41.1 L53.6,41.1 L53.6,38.9 L57.2,38.9 L57.2,38.0 L52.6,38.0 L52.6,46.0 Z"/><path d="M63.3,46.0 Q64.3,46.0 64.8,45.8 Q65.2,45.6 65.8,45.1 L65.8,42.0 L63.1,42.0 L63.1,42.9 L64.8,42.9 L64.8,44.7 Q64.5,45.0 64.2,45.0 Q63.9,45.1 63.4,45.1 Q61.6,45.1 61.2,44.6 Q60.7,44.0 60.7,42.1 Q60.7,40.1 61.2,39.5 Q61.7,38.9 63.4,38.9 Q64.2,38.9 64.4,39.1 Q64.7,39.2 65.1,39.7 L65.6,39.0 Q65.2,38.5 64.8,38.3 Q64.5,38.0 63.3,38.0 Q61.2,38.0 60.4,38.8 Q59.6,39.6 59.6,42.2 Q59.6,44.5 60.4,45.3 Q61.2,46.0 63.3,46.0 Z"/><path d="M68.5,46.0 L69.6,46.0 L70.3,43.8 L73.3,43.8 L74.1,46.0 L75.1,46.0 L72.4,38.0 L71.3,38.0 L68.5,46.0 Z M70.6,43.0 L71.0,41.7 Q71.3,40.7 71.4,40.3 Q71.5,39.8 71.8,38.8 L71.8,38.8 Q72.1,39.8 72.2,40.3 Q72.4,40.7 72.7,41.7 L73.0,43.0 L70.6,43.0 Z"/><path d="M78.1,46.0 L82.6,46.0 L82.6,45.1 L79.1,45.1 L79.1,38.0 L78.1,38.0 L78.1,46.0 Z"/><path d="M90.1,42.0 L90.1,38.8 L91.5,38.8 Q92.7,38.8 93.1,39.0 Q93.4,39.2 93.4,40.3 Q93.4,41.5 93.1,41.7 Q92.7,42.0 91.5,42.0 L90.1,42.0 Z M93.5,46.0 L94.7,46.0 L92.6,42.7 Q93.7,42.5 94.1,42.1 Q94.4,41.7 94.4,40.3 Q94.4,38.6 93.9,38.3 Q93.3,38.0 91.6,38.0 L89.1,38.0 L89.1,46.0 L90.1,46.0 L90.1,42.8 L91.6,42.8 L93.5,46.0 Z"/><path d="M97.6,46.0 L102.4,46.0 L102.4,45.1 L98.6,45.1 L98.6,42.0 L101.7,42.0 L101.7,41.1 L98.6,41.1 L98.6,38.9 L102.2,38.9 L102.2,38.0 L97.6,38.0 L97.6,46.0 Z"/><path d="M104.0,46.0 L105.1,46.0 L105.8,43.8 L108.8,43.8 L109.6,46.0 L110.6,46.0 L107.9,38.0 L106.8,38.0 L104.0,46.0 Z M106.1,43.0 L106.5,41.7 Q106.8,40.7 106.9,40.3 Q107.0,39.8 107.3,38.8 L107.3,38.8 Q107.6,39.8 107.7,40.3 Q107.9,40.7 108.2,41.7 L108.5,43.0 L106.1,43.0 Z"/><path d="M115.8,46.0 Q117.5,46.0 118.0,45.5 Q118.6,45.0 118.6,43.8 Q118.6,42.7 118.2,42.4 Q117.8,42.1 116.9,41.8 L115.8,41.3 Q115.1,41.0 114.8,40.9 Q114.4,40.8 114.4,40.0 Q114.4,39.3 114.7,39.1 Q115.0,38.9 115.9,38.9 Q116.7,38.9 117.0,39.0 Q117.3,39.2 117.8,39.6 L118.3,39.0 Q117.7,38.4 117.3,38.2 Q116.9,38.0 115.9,38.0 Q114.5,38.0 113.9,38.5 Q113.4,38.9 113.4,40.1 Q113.4,41.2 113.8,41.5 Q114.3,41.7 115.0,42.0 L116.2,42.5 Q117.0,42.8 117.2,43.0 Q117.5,43.1 117.5,43.9 Q117.5,44.6 117.2,44.9 Q116.9,45.1 115.8,45.1 Q115.0,45.1 114.6,44.9 Q114.2,44.7 113.6,44.2 L113.0,44.8 Q113.7,45.5 114.2,45.8 Q114.7,46.0 115.8,46.0 Z"/><path d="M125.1,46.0 Q127.1,46.0 127.8,45.2 Q128.5,44.4 128.5,42.0 Q128.5,39.5 127.8,38.8 Q127.1,38.0 125.1,38.0 Q123.0,38.0 122.3,38.8 Q121.6,39.5 121.6,42.0 Q121.6,44.4 122.3,45.2 Q123.0,46.0 125.1,46.0 Z M125.1,45.1 Q123.6,45.1 123.1,44.5 Q122.7,43.9 122.7,42.0 Q122.7,40.1 123.1,39.5 Q123.6,38.9 125.1,38.9 Q126.5,38.9 127.0,39.5 Q127.5,40.1 127.5,42.0 Q127.5,43.9 127.0,44.5 Q126.5,45.1 125.1,45.1 Z"/><path d="M131.6,46.0 L132.6,46.0 L132.6,41.8 Q132.6,41.0 132.5,40.5 Q132.5,40.1 132.4,39.3 L132.5,39.3 L133.4,41.0 L136.3,46.0 L137.3,46.0 L137.3,38.0 L136.4,38.0 L136.4,42.2 Q136.4,43.0 136.4,43.4 Q136.4,43.9 136.5,44.7 L136.5,44.7 L135.6,43.0 L132.6,38.0 L131.6,38.0 L131.6,46.0 Z"/><path d="M141.1,46.0 L142.1,46.0 L142.1,38.0 L141.1,38.0 L141.1,46.0 Z"/><path d="M145.6,46.0 L146.6,46.0 L146.6,41.8 Q146.6,41.0 146.5,40.5 Q146.5,40.1 146.4,39.3 L146.5,39.3 L147.4,41.0 L150.3,46.0 L151.3,46.0 L151.3,38.0 L150.4,38.0 L150.4,42.2 Q150.4,43.0 150.4,43.4 Q150.4,43.9 150.5,44.7 L150.5,44.7 L149.6,43.0 L146.6,38.0 L145.6,38.0 L145.6,46.0 Z"/><path d="M158.3,46.0 Q159.3,46.0 159.8,45.8 Q160.2,45.6 160.8,45.1 L160.8,42.0 L158.1,42.0 L158.1,42.9 L159.8,42.9 L159.8,44.7 Q159.5,45.0 159.2,45.0 Q158.9,45.1 158.4,45.1 Q156.6,45.1 156.2,44.6 Q155.7,44.0 155.7,42.1 Q155.7,40.1 156.2,39.5 Q156.7,38.9 158.4,38.9 Q159.2,38.9 159.4,39.1 Q159.7,39.2 160.1,39.7 L160.6,39.0 Q160.2,38.5 159.8,38.3 Q159.5,38.0 158.3,38.0 Q156.2,38.0 155.4,38.8 Q154.6,39.6 154.6,42.2 Q154.6,44.5 155.4,45.3 Q156.2,46.0 158.3,46.0 Z"/></g>
  <g fill="#b5462f"><path d="M412.9,35.0 L414.0,35.0 Q414.2,31.5 414.3,30.4 Q414.5,29.4 416.6,26.7 L416.6,26.0 L411.1,26.0 L411.1,26.9 L415.3,26.9 Q413.6,29.4 413.3,30.5 Q413.0,31.6 412.9,35.0 Z"/><path d="M424.3,35.0 Q425.8,35.0 426.2,34.6 Q426.7,34.1 426.7,33.0 Q426.7,31.8 426.1,31.6 Q425.6,31.4 424.7,31.0 Q424.0,30.7 423.6,30.6 Q423.3,30.5 423.3,29.8 Q423.3,29.3 423.5,29.1 Q423.7,28.9 424.5,28.9 Q425.1,28.9 425.3,29.0 Q425.5,29.1 426.0,29.5 L426.5,28.8 Q426.0,28.3 425.6,28.2 Q425.3,28.0 424.5,28.0 Q423.0,28.0 422.6,28.4 Q422.2,28.8 422.2,29.9 Q422.2,31.0 422.7,31.3 Q423.2,31.5 424.1,31.8 Q424.8,32.1 425.2,32.3 Q425.6,32.4 425.6,33.1 Q425.6,33.7 425.4,33.9 Q425.2,34.2 424.3,34.2 Q423.6,34.2 423.3,34.0 Q423.0,33.8 422.4,33.4 L421.9,34.1 Q422.5,34.6 422.9,34.8 Q423.4,35.0 424.3,35.0 Z"/><path d="M429.1,35.0 L430.2,35.0 L430.2,33.2 L431.4,31.6 L433.3,35.0 L434.5,35.0 L432.0,30.8 L434.2,28.0 L433.0,28.0 L430.2,31.7 L430.2,31.7 L430.2,25.0 L429.1,25.0 L429.1,35.0 Z"/><path d="M436.6,35.0 L437.7,35.0 L437.7,28.0 L436.6,28.0 L436.6,35.0 Z M437.1,26.5 Q437.6,26.5 437.7,26.3 Q437.9,26.2 437.9,25.7 Q437.9,25.3 437.7,25.1 Q437.6,25.0 437.1,25.0 Q436.7,25.0 436.6,25.1 Q436.4,25.3 436.4,25.7 Q436.4,26.2 436.6,26.3 Q436.7,26.5 437.1,26.5 Z"/><path d="M441.2,35.0 Q441.5,35.0 441.6,35.0 Q441.7,35.0 441.9,34.9 L441.7,34.1 Q441.6,34.1 441.6,34.1 Q441.6,34.1 441.5,34.1 Q441.3,34.1 441.3,34.0 Q441.2,34.0 441.2,33.6 L441.2,25.3 L440.1,25.3 L440.1,33.6 Q440.1,34.5 440.3,34.7 Q440.4,35.0 441.2,35.0 Z"/><path d="M444.8,35.0 Q445.0,35.0 445.1,35.0 Q445.2,35.0 445.4,34.9 L445.2,34.1 Q445.1,34.1 445.1,34.1 Q445.1,34.1 445.0,34.1 Q444.8,34.1 444.8,34.0 Q444.7,34.0 444.7,33.6 L444.7,25.3 L443.6,25.3 L443.6,33.6 Q443.6,34.5 443.8,34.7 Q443.9,35.0 444.8,35.0 Z"/><path d="M448.8,35.0 Q450.3,35.0 450.7,34.6 Q451.2,34.1 451.2,33.0 Q451.2,31.8 450.6,31.6 Q450.1,31.4 449.2,31.0 Q448.5,30.7 448.1,30.6 Q447.8,30.5 447.8,29.8 Q447.8,29.3 448.0,29.1 Q448.2,28.9 449.0,28.9 Q449.6,28.9 449.8,29.0 Q450.0,29.1 450.5,29.5 L451.0,28.8 Q450.5,28.3 450.1,28.2 Q449.8,28.0 449.0,28.0 Q447.5,28.0 447.1,28.4 Q446.7,28.8 446.7,29.9 Q446.7,31.0 447.2,31.3 Q447.7,31.5 448.6,31.8 Q449.3,32.1 449.7,32.3 Q450.1,32.4 450.1,33.1 Q450.1,33.7 449.9,33.9 Q449.7,34.2 448.8,34.2 Q448.1,34.2 447.8,34.0 Q447.5,33.8 446.9,33.4 L446.4,34.1 Q447.0,34.6 447.4,34.8 Q447.9,35.0 448.8,35.0 Z"/></g>
</svg>
