<svg xmlns="http://www.w3.org/2000/svg" viewBox="0 0 470 56" width="470" height="56" role="img" aria-label="事实与要素处理">
  <rect x="0.5" y="0.5" width="469" height="55" rx="6" fill="#e1efe9"/>
  <rect x="0" y="0" width="4" height="56" rx="2" fill="#3f7d6e"/>
  <g fill="#3f7d6e"><path d="M17.6,36.0 Q19.9,36.0 20.7,35.0 Q21.5,34.0 21.5,30.0 Q21.5,25.9 20.7,25.0 Q19.9,24.0 17.6,24.0 Q15.2,24.0 14.4,24.9 Q13.6,25.9 13.6,30.0 Q13.6,34.0 14.4,35.0 Q15.2,36.0 17.6,36.0 Z M17.6,33.9 Q16.8,33.9 16.4,33.6 Q16.1,33.2 16.1,30.0 Q16.1,26.7 16.4,26.4 Q16.8,26.0 17.6,26.0 Q18.4,26.0 18.7,26.4 Q19.0,26.7 19.0,30.0 Q19.0,33.2 18.7,33.6 Q18.4,33.9 17.6,33.9 Z"/><path d="M22.6,36.0 L30.4,36.0 L30.4,33.8 L28.3,33.8 Q27.8,33.8 27.4,33.8 Q27.0,33.8 26.5,33.9 Q28.2,32.0 29.0,30.9 Q29.9,29.7 29.9,27.6 Q29.9,25.4 29.1,24.7 Q28.4,24.0 26.2,24.0 Q24.6,24.0 24.1,24.3 Q23.6,24.6 22.5,25.7 L23.9,27.3 Q24.5,26.7 24.8,26.4 Q25.1,26.1 25.8,26.1 Q26.7,26.1 27.0,26.4 Q27.3,26.7 27.3,27.8 Q27.3,29.6 26.3,30.7 Q25.4,31.8 22.6,34.5 L22.6,36.0 Z"/></g>
  <g fill="#2a2d34"><path d="M46.4,27.0 L46.4,29.0 L52.0,29.0 L52.0,29.3 Q52.0,29.7 52.0,29.8 Q51.9,29.9 51.5,29.9 Q51.2,29.9 50.7,29.9 Q50.1,29.9 49.3,29.9 Q49.7,30.4 49.9,30.9 Q50.1,31.4 50.2,32.0 Q51.9,32.0 52.4,32.0 Q52.9,32.0 53.7,31.6 Q54.5,31.2 54.7,31.0 Q54.8,30.7 54.8,29.3 L54.8,29.0 L57.6,29.0 L57.6,30.0 L60.4,30.0 L60.4,26.1 L62.4,26.1 L62.4,24.0 L60.4,24.0 L60.4,21.9 L54.8,21.9 L54.8,21.0 L60.1,21.0 L60.1,17.0 L54.8,17.0 L54.8,16.2 L61.9,16.2 L61.9,14.0 L54.8,14.0 L54.8,13.0 L52.0,13.0 L52.0,14.0 L45.1,14.0 L45.1,16.2 L52.0,16.2 L52.0,17.0 L47.0,17.0 L47.0,21.0 L52.0,21.0 L52.0,21.9 L46.6,21.9 L46.6,23.7 L52.0,23.7 L52.0,24.0 L44.6,24.0 L44.6,26.1 L52.0,26.1 L52.0,27.0 L46.4,27.0 Z M49.6,18.7 L52.0,18.7 L52.0,19.3 L49.6,19.3 L49.6,18.7 Z M54.8,18.7 L57.2,18.7 L57.2,19.3 L54.8,19.3 L54.8,18.7 Z M54.8,23.7 L57.6,23.7 L57.6,24.0 L54.8,24.0 L54.8,23.7 Z M54.8,26.1 L57.6,26.1 L57.6,27.0 L54.8,27.0 L54.8,26.1 Z"/><path d="M73.0,29.4 Q75.4,30.0 76.6,30.5 Q77.8,31.0 79.2,32.0 L80.9,29.7 Q79.4,28.9 78.0,28.4 Q76.7,27.9 74.2,27.3 L73.0,29.4 Z M67.3,19.0 Q68.3,19.6 68.9,20.2 Q69.5,20.7 70.0,21.4 L71.7,20.0 Q71.1,18.6 70.5,18.3 Q69.9,18.0 68.9,17.6 L67.3,19.0 Z M65.3,22.3 Q66.3,22.9 66.9,23.4 Q67.5,23.9 68.1,24.6 L69.8,22.2 Q69.1,21.5 68.5,21.0 Q67.9,20.6 66.9,20.1 L65.3,22.3 Z M64.3,15.0 L64.3,19.2 L67.1,19.2 L67.1,17.6 L77.8,17.6 L77.8,19.6 L80.8,19.6 L80.8,15.0 L74.4,15.0 Q74.1,14.2 73.9,13.8 Q73.7,13.4 73.4,12.7 L70.6,13.8 L71.1,15.0 L64.3,15.0 Z M64.2,24.7 L64.2,27.0 L69.9,27.0 Q68.8,28.1 67.9,28.6 Q67.1,29.0 64.4,29.6 Q65.0,30.2 65.3,30.7 Q65.7,31.3 65.9,32.0 Q70.1,30.9 71.2,30.1 Q72.3,29.3 73.4,27.0 L80.8,27.0 L80.8,24.7 L74.3,24.7 Q74.7,23.0 74.8,22.0 Q74.8,21.0 74.9,18.8 L72.0,18.8 Q71.9,21.1 71.9,22.1 Q71.8,23.1 71.3,24.7 L64.2,24.7 Z"/><path d="M86.9,13.0 Q86.5,16.2 86.1,18.4 Q85.8,20.6 85.1,23.1 L88.0,23.4 L88.2,22.5 L94.1,22.5 L93.9,24.4 L82.8,24.4 L82.8,27.0 L93.5,27.0 Q93.4,28.1 93.2,28.5 Q93.1,28.8 92.9,29.0 Q92.6,29.3 92.5,29.3 Q92.3,29.3 91.9,29.3 Q91.4,29.3 90.8,29.3 Q90.2,29.3 88.9,29.2 Q89.5,30.0 89.7,30.6 Q89.9,31.2 89.9,32.0 Q91.1,32.0 91.7,32.1 Q92.3,32.1 93.1,32.0 Q94.0,31.8 94.3,31.7 Q94.6,31.6 95.3,30.9 Q95.8,30.3 95.9,29.8 Q96.1,29.2 96.4,27.0 L100.2,27.0 L100.2,24.4 L96.7,24.4 L97.0,21.2 Q97.0,20.8 97.0,20.4 Q97.1,20.0 97.1,20.0 L88.7,20.0 L89.0,18.0 L98.0,18.0 L98.0,15.4 L89.5,15.4 L89.8,13.3 L86.9,13.0 Z"/><path d="M102.9,17.0 L102.9,23.0 L107.5,23.0 L106.9,23.8 L101.7,23.8 L101.7,26.0 L105.4,26.0 Q104.9,26.8 104.7,27.1 Q104.5,27.5 104.1,28.0 L106.8,28.9 L106.9,28.8 L107.8,29.0 Q106.2,29.4 105.3,29.5 Q104.4,29.6 102.1,29.7 Q102.5,30.2 102.8,30.7 Q103.0,31.2 103.2,32.0 Q106.8,31.7 108.2,31.5 Q109.6,31.2 111.7,30.2 Q113.8,30.8 114.7,31.2 Q115.6,31.5 116.9,32.0 L118.6,29.8 Q117.4,29.4 116.6,29.1 Q115.9,28.8 114.2,28.3 Q114.8,27.7 115.0,27.3 Q115.2,26.9 115.7,26.0 L119.3,26.0 L119.3,23.8 L110.0,23.8 L110.6,23.0 L118.3,23.0 L118.3,17.0 L113.8,17.0 L113.8,16.0 L118.8,16.0 L118.8,13.6 L102.0,13.6 L102.0,16.0 L106.9,16.0 L106.9,17.0 L102.9,17.0 Z M108.6,26.0 L112.6,26.0 Q112.2,26.5 112.0,26.8 Q111.8,27.0 111.3,27.4 Q110.3,27.1 109.8,27.0 Q109.2,26.8 108.2,26.6 L108.6,26.0 Z M109.5,16.0 L111.2,16.0 L111.2,17.0 L109.5,17.0 L109.5,16.0 Z M105.5,19.2 L106.9,19.2 L106.9,20.9 L105.5,20.9 L105.5,19.2 Z M109.5,19.2 L111.2,19.2 L111.2,20.9 L109.5,20.9 L109.5,19.2 Z M113.8,19.2 L115.6,19.2 L115.6,20.9 L113.8,20.9 L113.8,19.2 Z"/><path d="M131.6,28.6 Q133.0,29.5 133.9,30.1 Q134.8,30.8 135.7,31.6 L137.8,29.8 Q136.8,29.0 135.9,28.4 Q134.9,27.8 133.6,27.1 L131.6,28.6 Z M124.8,27.2 Q123.8,28.1 123.0,28.6 Q122.2,29.0 120.6,29.6 Q121.2,30.1 121.7,30.6 Q122.2,31.2 122.7,31.8 Q124.2,31.0 125.2,30.3 Q126.1,29.6 127.3,28.3 L124.8,27.2 Z M121.0,19.0 L121.0,21.0 L126.1,21.0 Q125.8,21.3 125.6,21.4 Q125.4,21.6 125.1,21.8 L124.2,21.4 L122.4,22.9 Q123.4,23.4 123.9,23.7 Q124.5,24.1 125.4,24.8 L124.9,25.0 L121.1,25.0 L121.2,27.2 L128.1,27.0 L128.1,31.9 L130.8,31.9 L130.8,27.1 L135.9,27.0 Q136.2,27.2 136.3,27.4 Q136.4,27.5 136.6,27.8 L138.6,26.2 Q137.7,25.1 136.8,24.4 Q135.8,23.6 134.4,22.7 L132.5,24.1 L133.7,25.0 L129.2,25.0 Q130.8,24.1 131.6,23.6 Q132.5,23.1 134.0,22.0 L132.2,21.0 L138.0,21.0 L138.0,19.0 L130.8,19.0 L130.8,18.4 L136.3,18.4 L136.3,16.5 L130.8,16.5 L130.8,16.0 L137.2,16.0 L137.2,14.0 L130.8,14.0 L130.8,13.0 L128.0,13.0 L128.0,14.0 L122.0,14.0 L122.0,16.0 L128.0,16.0 L128.0,16.5 L123.0,16.5 L123.0,18.4 L128.0,18.4 L128.0,19.0 L121.0,19.0 Z M126.9,22.9 Q127.7,22.4 128.2,22.1 Q128.7,21.7 129.6,21.0 L131.1,21.0 Q130.1,21.8 129.5,22.2 Q128.9,22.6 127.7,23.4 L126.9,22.9 Z"/><path d="M146.2,18.5 Q145.9,20.5 145.8,21.3 Q145.6,22.1 145.1,23.6 Q144.6,22.5 144.4,21.9 Q144.2,21.3 143.8,19.9 L144.2,18.5 L146.2,18.5 Z M142.5,13.0 Q142.0,16.8 141.4,18.9 Q140.9,21.0 139.5,23.0 Q140.3,23.4 140.8,23.8 Q141.3,24.2 141.8,24.8 Q142.0,24.4 142.1,24.2 Q142.2,24.0 142.5,23.6 Q142.8,24.7 143.0,25.2 Q143.2,25.7 143.7,26.5 Q142.6,28.2 141.9,28.8 Q141.1,29.4 139.3,30.1 Q140.0,30.5 140.6,31.1 Q141.2,31.6 141.6,32.2 Q143.2,31.6 143.8,31.1 Q144.4,30.5 145.5,29.2 Q147.7,31.3 149.0,31.6 Q150.4,31.9 153.5,31.9 L156.8,31.9 Q156.9,31.1 157.1,30.4 Q157.4,29.7 157.8,29.0 Q156.8,29.0 155.7,29.0 Q154.5,29.0 153.6,29.0 Q151.2,29.0 150.0,28.8 Q148.9,28.5 147.0,26.5 Q148.2,23.9 148.6,22.2 Q149.0,20.5 149.3,16.4 L147.4,15.9 L146.9,16.0 L144.9,16.0 Q145.1,15.2 145.1,14.8 Q145.2,14.4 145.4,13.6 L142.5,13.0 Z M149.9,13.0 L149.9,28.4 L152.9,28.4 L152.9,21.0 Q153.7,22.4 154.1,23.0 Q154.4,23.7 154.8,24.7 L157.3,23.0 Q156.5,21.3 155.7,20.1 Q154.8,18.9 153.5,17.2 L152.9,17.6 L152.9,13.0 L149.9,13.0 Z"/><path d="M168.2,20.0 L169.6,20.0 L169.6,21.0 L168.2,21.0 L168.2,20.0 Z M171.9,20.0 L173.2,20.0 L173.2,21.0 L171.9,21.0 L171.9,20.0 Z M168.2,16.3 L169.6,16.3 L169.6,17.9 L168.2,17.9 L168.2,16.3 Z M171.9,16.3 L173.2,16.3 L173.2,17.9 L171.9,17.9 L171.9,16.3 Z M164.4,29.0 L164.4,31.5 L176.6,31.5 L176.6,29.0 L172.1,29.0 L172.1,27.5 L176.0,27.5 L176.0,25.0 L172.1,25.0 L172.1,23.3 L175.8,23.3 L175.8,14.0 L165.7,14.0 L165.7,23.3 L169.3,23.3 L169.3,25.0 L165.6,25.0 L165.6,27.5 L169.3,27.5 L169.3,29.0 L164.4,29.0 Z M158.3,27.5 L158.9,30.5 Q160.8,29.9 162.0,29.5 Q163.2,29.1 165.3,28.3 L164.9,25.6 L163.1,26.1 L163.1,22.5 L164.7,22.5 L164.7,20.0 L163.1,20.0 L163.1,16.5 L165.1,16.5 L165.1,14.0 L158.6,14.0 L158.6,16.5 L160.5,16.5 L160.5,20.0 L158.7,20.0 L158.7,22.5 L160.5,22.5 L160.5,26.8 Q159.7,27.1 159.3,27.2 Q159.0,27.3 158.3,27.5 Z"/></g>
  <g fill="#5b606b"><path d="M45.1,46.0 L46.1,46.0 L46.1,42.0 L49.2,42.0 L49.2,41.2 L46.1,41.2 L46.1,38.9 L49.8,38.9 L49.8,38.0 L45.1,38.0 L45.1,46.0 Z"/><path d="M51.5,46.0 L52.6,46.0 L53.3,43.8 L56.3,43.8 L57.1,46.0 L58.1,46.0 L55.4,38.0 L54.3,38.0 L51.5,46.0 Z M53.6,43.0 L54.0,41.7 Q54.3,40.7 54.4,40.3 Q54.5,39.8 54.8,38.8 L54.8,38.8 Q55.1,39.8 55.2,40.3 Q55.4,40.7 55.7,41.7 L56.0,43.0 L53.6,43.0 Z"/><path d="M64.1,46.0 Q65.2,46.0 65.6,45.8 Q66.0,45.6 66.6,44.9 L66.0,44.2 Q65.5,44.8 65.2,45.0 Q65.0,45.1 64.2,45.1 Q62.6,45.1 62.2,44.5 Q61.7,43.9 61.7,42.0 Q61.7,40.1 62.2,39.5 Q62.7,38.9 64.2,38.9 Q64.9,38.9 65.2,39.0 Q65.4,39.2 65.9,39.6 L66.4,39.0 Q66.0,38.5 65.6,38.2 Q65.2,38.0 64.2,38.0 Q62.2,38.0 61.4,38.8 Q60.6,39.5 60.6,42.0 Q60.6,44.5 61.4,45.2 Q62.1,46.0 64.1,46.0 Z"/><path d="M71.3,46.0 L72.3,46.0 L72.3,38.9 L74.7,38.9 L74.7,38.0 L68.8,38.0 L68.8,38.9 L71.3,38.9 L71.3,46.0 Z"/><path d="M83.3,46.0 Q84.3,46.0 84.7,45.8 Q85.0,45.6 85.7,45.1 Q86.3,45.5 86.6,45.7 Q87.0,45.9 87.5,46.0 L87.8,45.2 Q87.3,45.1 87.1,44.9 Q86.8,44.8 86.3,44.4 Q86.9,43.7 87.1,43.2 Q87.4,42.7 87.7,41.7 L86.8,41.7 Q86.5,42.6 86.3,43.0 Q86.1,43.3 85.6,44.0 Q84.9,43.4 84.5,43.0 Q84.1,42.6 83.6,41.8 Q84.5,41.2 84.9,40.9 Q85.4,40.5 85.4,39.5 Q85.4,38.7 85.1,38.3 Q84.8,38.0 83.8,38.0 Q82.7,38.0 82.3,38.4 Q82.0,38.8 82.0,39.8 Q82.0,40.4 82.1,40.7 Q82.2,41.0 82.5,41.6 Q81.6,42.2 81.3,42.5 Q80.9,42.8 80.9,43.8 Q80.9,45.1 81.4,45.5 Q81.9,46.0 83.3,46.0 Z M85.0,44.6 Q84.5,45.0 84.3,45.1 Q84.0,45.2 83.5,45.2 Q82.6,45.2 82.2,44.9 Q81.9,44.7 81.9,43.8 Q81.9,43.2 82.1,43.0 Q82.3,42.7 82.9,42.3 Q83.5,43.1 83.8,43.5 Q84.2,43.9 85.0,44.6 Z M83.2,41.2 Q83.0,40.7 82.9,40.5 Q82.8,40.2 82.8,39.8 Q82.8,39.2 83.0,39.0 Q83.2,38.7 83.8,38.7 Q84.4,38.7 84.5,38.9 Q84.6,39.1 84.6,39.6 Q84.6,40.2 84.3,40.5 Q83.9,40.7 83.2,41.2 Z"/><path d="M93.6,46.0 L98.4,46.0 L98.4,45.1 L94.6,45.1 L94.6,42.0 L97.7,42.0 L97.7,41.1 L94.6,41.1 L94.6,38.9 L98.2,38.9 L98.2,38.0 L93.6,38.0 L93.6,46.0 Z"/><path d="M101.1,46.0 L105.6,46.0 L105.6,45.1 L102.1,45.1 L102.1,38.0 L101.1,38.0 L101.1,46.0 Z"/><path d="M108.6,46.0 L113.4,46.0 L113.4,45.1 L109.6,45.1 L109.6,42.0 L112.7,42.0 L112.7,41.1 L109.6,41.1 L109.6,38.9 L113.2,38.9 L113.2,38.0 L108.6,38.0 L108.6,46.0 Z"/><path d="M116.1,46.0 L117.0,46.0 L117.0,41.6 Q117.0,40.9 117.0,40.4 Q117.0,39.9 116.9,39.2 L116.9,39.2 L117.6,41.1 L119.1,45.3 L119.8,45.3 L121.3,41.1 L122.0,39.2 L122.0,39.2 Q121.9,39.9 121.9,40.4 Q121.9,40.9 121.9,41.6 L121.9,46.0 L122.8,46.0 L122.8,38.0 L121.6,38.0 L120.0,42.3 Q119.9,42.9 119.8,43.2 Q119.7,43.5 119.5,44.0 L119.5,44.0 Q119.2,43.5 119.2,43.2 Q119.1,42.9 118.9,42.3 L117.3,38.0 L116.1,38.0 L116.1,46.0 Z"/><path d="M126.6,46.0 L131.4,46.0 L131.4,45.1 L127.6,45.1 L127.6,42.0 L130.7,42.0 L130.7,41.1 L127.6,41.1 L127.6,38.9 L131.2,38.9 L131.2,38.0 L126.6,38.0 L126.6,46.0 Z"/><path d="M134.1,46.0 L135.1,46.0 L135.1,41.8 Q135.1,41.0 135.0,40.5 Q135.0,40.1 134.9,39.3 L135.0,39.3 L135.9,41.0 L138.8,46.0 L139.8,46.0 L139.8,38.0 L138.9,38.0 L138.9,42.2 Q138.9,43.0 138.9,43.4 Q138.9,43.9 139.0,44.7 L139.0,44.7 L138.1,43.0 L135.1,38.0 L134.1,38.0 L134.1,46.0 Z"/><path d="M145.3,46.0 L146.3,46.0 L146.3,38.9 L148.7,38.9 L148.7,38.0 L142.8,38.0 L142.8,38.9 L145.3,38.9 L145.3,46.0 Z"/><path d="M155.6,46.0 L156.6,46.0 L156.6,42.8 L158.0,42.8 Q159.7,42.8 160.3,42.4 Q160.9,42.0 160.9,40.4 Q160.9,38.6 160.3,38.3 Q159.7,38.0 157.9,38.0 L155.6,38.0 L155.6,46.0 Z M156.6,42.0 L156.6,38.8 L157.8,38.8 Q159.2,38.8 159.5,39.0 Q159.9,39.2 159.9,40.4 Q159.9,41.5 159.6,41.8 Q159.2,42.0 157.8,42.0 L156.6,42.0 Z"/><path d="M165.1,42.0 L165.1,38.8 L166.5,38.8 Q167.7,38.8 168.1,39.0 Q168.4,39.2 168.4,40.3 Q168.4,41.5 168.1,41.7 Q167.7,42.0 166.5,42.0 L165.1,42.0 Z M168.5,46.0 L169.7,46.0 L167.6,42.7 Q168.7,42.5 169.1,42.1 Q169.4,41.7 169.4,40.3 Q169.4,38.6 168.9,38.3 Q168.3,38.0 166.6,38.0 L164.1,38.0 L164.1,46.0 L165.1,46.0 L165.1,42.8 L166.6,42.8 L168.5,46.0 Z"/><path d="M175.6,46.0 Q177.6,46.0 178.3,45.2 Q179.0,44.4 179.0,42.0 Q179.0,39.5 178.3,38.8 Q177.6,38.0 175.6,38.0 Q173.5,38.0 172.8,38.8 Q172.1,39.5 172.1,42.0 Q172.1,44.4 172.8,45.2 Q173.5,46.0 175.6,46.0 Z M175.6,45.1 Q174.1,45.1 173.6,44.5 Q173.2,43.9 173.2,42.0 Q173.2,40.1 173.6,39.5 Q174.1,38.9 175.6,38.9 Q177.0,38.9 177.5,39.5 Q178.0,40.1 178.0,42.0 Q178.0,43.9 177.5,44.5 Q177.0,45.1 175.6,45.1 Z"/><path d="M185.1,46.0 Q186.2,46.0 186.6,45.8 Q187.0,45.6 187.6,44.9 L187.0,44.2 Q186.5,44.8 186.2,45.0 Q186.0,45.1 185.2,45.1 Q183.6,45.1 183.2,44.5 Q182.7,43.9 182.7,42.0 Q182.7,40.1 183.2,39.5 Q183.7,38.9 185.2,38.9 Q185.9,38.9 186.2,39.0 Q186.4,39.2 186.9,39.6 L187.4,39.0 Q187.0,38.5 186.6,38.2 Q186.2,38.0 185.2,38.0 Q183.2,38.0 182.4,38.8 Q181.6,39.5 181.6,42.0 Q181.6,44.5 182.4,45.2 Q183.1,46.0 185.1,46.0 Z"/><path d="M190.6,46.0 L195.4,46.0 L195.4,45.1 L191.6,45.1 L191.6,42.0 L194.7,42.0 L194.7,41.1 L191.6,41.1 L191.6,38.9 L195.2,38.9 L195.2,38.0 L190.6,38.0 L190.6,46.0 Z"/><path d="M200.3,46.0 Q202.0,46.0 202.5,45.5 Q203.1,45.0 203.1,43.8 Q203.1,42.7 202.7,42.4 Q202.3,42.1 201.4,41.8 L200.3,41.3 Q199.6,41.0 199.3,40.9 Q198.9,40.8 198.9,40.0 Q198.9,39.3 199.2,39.1 Q199.5,38.9 200.4,38.9 Q201.2,38.9 201.5,39.0 Q201.8,39.2 202.3,39.6 L202.8,39.0 Q202.2,38.4 201.8,38.2 Q201.4,38.0 200.4,38.0 Q199.0,38.0 198.4,38.5 Q197.9,38.9 197.9,40.1 Q197.9,41.2 198.3,41.5 Q198.8,41.7 199.5,42.0 L200.7,42.5 Q201.5,42.8 201.8,43.0 Q202.0,43.1 202.0,43.9 Q202.0,44.6 201.7,44.9 Q201.4,45.1 200.3,45.1 Q199.5,45.1 199.1,44.9 Q198.7,44.7 198.1,44.2 L197.5,44.8 Q198.2,45.5 198.7,45.8 Q199.2,46.0 200.3,46.0 Z"/><path d="M208.8,46.0 Q210.5,46.0 211.0,45.5 Q211.6,45.0 211.6,43.8 Q211.6,42.7 211.2,42.4 Q210.8,42.1 209.9,41.8 L208.8,41.3 Q208.1,41.0 207.8,40.9 Q207.4,40.8 207.4,40.0 Q207.4,39.3 207.7,39.1 Q208.0,38.9 208.9,38.9 Q209.7,38.9 210.0,39.0 Q210.3,39.2 210.8,39.6 L211.3,39.0 Q210.7,38.4 210.3,38.2 Q209.9,38.0 208.9,38.0 Q207.5,38.0 206.9,38.5 Q206.4,38.9 206.4,40.1 Q206.4,41.2 206.8,41.5 Q207.3,41.7 208.0,42.0 L209.2,42.5 Q210.0,42.8 210.2,43.0 Q210.5,43.1 210.5,43.9 Q210.5,44.6 210.2,44.9 Q209.9,45.1 208.8,45.1 Q208.0,45.1 207.6,44.9 Q207.2,44.7 206.6,44.2 L206.0,44.8 Q206.7,45.5 207.2,45.8 Q207.7,46.0 208.8,46.0 Z"/><path d="M215.1,46.0 L216.1,46.0 L216.1,38.0 L215.1,38.0 L215.1,46.0 Z"/><path d="M219.6,46.0 L220.6,46.0 L220.6,41.8 Q220.6,41.0 220.5,40.5 Q220.5,40.1 220.4,39.3 L220.5,39.3 L221.4,41.0 L224.3,46.0 L225.3,46.0 L225.3,38.0 L224.4,38.0 L224.4,42.2 Q224.4,43.0 224.4,43.4 Q224.4,43.9 224.5,44.7 L224.5,44.7 L223.6,43.0 L220.6,38.0 L219.6,38.0 L219.6,46.0 Z"/><path d="M232.3,46.0 Q233.3,46.0 233.8,45.8 Q234.2,45.6 234.8,45.1 L234.8,42.0 L232.1,42.0 L232.1,42.9 L233.8,42.9 L233.8,44.7 Q233.5,45.0 233.2,45.0 Q232.9,45.1 232.4,45.1 Q230.6,45.1 230.2,44.6 Q229.7,44.0 229.7,42.1 Q229.7,40.1 230.2,39.5 Q230.7,38.9 232.4,38.9 Q233.2,38.9 233.4,39.1 Q233.7,39.2 234.1,39.7 L234.6,39.0 Q234.2,38.5 233.8,38.3 Q233.5,38.0 232.3,38.0 Q230.2,38.0 229.4,38.8 Q228.6,39.6 228.6,42.2 Q228.6,44.5 229.4,45.3 Q230.2,46.0 232.3,46.0 Z"/></g>
  <g fill="#3f7d6e"><path d="M414.6,35.0 L415.6,35.0 L415.6,32.9 L416.8,32.9 L416.8,32.0 L415.6,32.0 L415.6,26.0 L414.4,26.0 L410.7,32.2 L410.7,32.9 L414.6,32.9 L414.6,35.0 Z M414.6,32.0 L411.9,32.0 L413.9,28.7 Q414.1,28.2 414.2,27.9 Q414.4,27.7 414.6,27.2 L414.6,27.2 Q414.6,27.7 414.6,28.1 Q414.6,28.5 414.6,29.0 L414.6,32.0 Z"/><path d="M424.3,35.0 Q425.8,35.0 426.2,34.6 Q426.7,34.1 426.7,33.0 Q426.7,31.8 426.1,31.6 Q425.6,31.4 424.7,31.0 Q424.0,30.7 423.6,30.6 Q423.3,30.5 423.3,29.8 Q423.3,29.3 423.5,29.1 Q423.7,28.9 424.5,28.9 Q425.1,28.9 425.3,29.0 Q425.5,29.1 426.0,29.5 L426.5,28.8 Q426.0,28.3 425.6,28.2 Q425.3,28.0 424.5,28.0 Q423.0,28.0 422.6,28.4 Q422.2,28.8 422.2,29.9 Q422.2,31.0 422.7,31.3 Q423.2,31.5 424.1,31.8 Q424.8,32.1 425.2,32.3 Q425.6,32.4 425.6,33.1 Q425.6,33.7 425.4,33.9 Q425.2,34.2 424.3,34.2 Q423.6,34.2 423.3,34.0 Q423.0,33.8 422.4,33.4 L421.9,34.1 Q422.5,34.6 422.9,34.8 Q423.4,35.0 424.3,35.0 Z"/><path d="M429.1,35.0 L430.2,35.0 L430.2,33.2 L431.4,31.6 L433.3,35.0 L434.5,35.0 L432.0,30.8 L434.2,28.0 L433.0,28.0 L430.2,31.7 L430.2,31.7 L430.2,25.0 L429.1,25.0 L429.1,35.0 Z"/><path d="M436.6,35.0 L437.7,35.0 L437.7,28.0 L436.6,28.0 L436.6,35.0 Z M437.1,26.5 Q437.6,26.5 437.7,26.3 Q437.9,26.2 437.9,25.7 Q437.9,25.3 437.7,25.1 Q437.6,25.0 437.1,25.0 Q436.7,25.0 436.6,25.1 Q436.4,25.3 436.4,25.7 Q436.4,26.2 436.6,26.3 Q436.7,26.5 437.1,26.5 Z"/><path d="M441.2,35.0 Q441.5,35.0 441.6,35.0 Q441.7,35.0 441.9,34.9 L441.7,34.1 Q441.6,34.1 441.6,34.1 Q441.6,34.1 441.5,34.1 Q441.3,34.1 441.3,34.0 Q441.2,34.0 441.2,33.6 L441.2,25.3 L440.1,25.3 L440.1,33.6 Q440.1,34.5 440.3,34.7 Q440.4,35.0 441.2,35.0 Z"/><path d="M444.8,35.0 Q445.0,35.0 445.1,35.0 Q445.2,35.0 445.4,34.9 L445.2,34.1 Q445.1,34.1 445.1,34.1 Q445.1,34.1 445.0,34.1 Q444.8,34.1 444.8,34.0 Q444.7,34.0 444.7,33.6 L444.7,25.3 L443.6,25.3 L443.6,33.6 Q443.6,34.5 443.8,34.7 Q443.9,35.0 444.8,35.0 Z"/><path d="M448.8,35.0 Q450.3,35.0 450.7,34.6 Q451.2,34.1 451.2,33.0 Q451.2,31.8 450.6,31.6 Q450.1,31.4 449.2,31.0 Q448.5,30.7 448.1,30.6 Q447.8,30.5 447.8,29.8 Q447.8,29.3 448.0,29.1 Q448.2,28.9 449.0,28.9 Q449.6,28.9 449.8,29.0 Q450.0,29.1 450.5,29.5 L451.0,28.8 Q450.5,28.3 450.1,28.2 Q449.8,28.0 449.0,28.0 Q447.5,28.0 447.1,28.4 Q446.7,28.8 446.7,29.9 Q446.7,31.0 447.2,31.3 Q447.7,31.5 448.6,31.8 Q449.3,32.1 449.7,32.3 Q450.1,32.4 450.1,33.1 Q450.1,33.7 449.9,33.9 Q449.7,34.2 448.8,34.2 Q448.1,34.2 447.8,34.0 Q447.5,33.8 446.9,33.4 L446.4,34.1 Q447.0,34.6 447.4,34.8 Q447.9,35.0 448.8,35.0 Z"/></g>
</svg>
