<svg xmlns="http://www.w3.org/2000/svg" viewBox="0 0 470 72" width="470" height="72" role="img" aria-label="事实与要素处理">
  <defs><linearGradient id="cb" x1="0" y1="0" x2="0" y2="1"><stop offset="0" stop-color="#2b313c"/><stop offset="1" stop-color="#1f232b"/></linearGradient></defs>
  <rect x="1" y="1" width="468" height="70" rx="12" fill="url(#cb)" stroke="#b08d57" stroke-opacity="0.4"/>
  <path d="M13 1 H46 V71 H13 a12 12 0 0 1 -12 -12 V13 a12 12 0 0 1 12 -12 Z" fill="#c0392b" opacity="0.94"/>
  <g fill="#f4ede0"><path d="M20.3,23.0 L20.1,23.2 Q21.2,24.1 21.7,25.0 Q22.1,25.9 22.1,27.5 Q25.7,29.8 27.4,26.4 Q29.1,23.1 20.3,23.0 Z M13.2,34.8 L13.0,35.0 Q14.3,36.2 15.0,37.1 Q15.7,38.1 16.1,39.9 Q19.5,42.0 20.8,38.6 Q22.1,35.2 13.2,34.8 Z M15.5,29.8 L15.2,30.0 Q16.4,31.1 17.1,32.0 Q17.7,32.9 18.1,34.5 Q21.3,36.5 22.5,33.3 Q23.7,30.2 15.5,29.8 Z M13.1,26.1 L12.7,26.1 Q12.8,27.6 12.1,28.3 Q11.5,29.0 10.5,29.3 Q9.4,30.0 9.0,30.4 Q8.7,30.9 9.0,32.2 Q9.4,33.5 10.3,33.7 Q11.1,33.9 12.2,33.2 Q13.2,32.4 13.6,31.6 Q14.0,30.8 13.8,28.9 L32.2,28.9 Q32.0,29.8 31.9,30.6 Q31.8,31.4 31.5,32.6 L31.8,32.8 Q33.1,31.9 34.0,31.1 Q34.9,30.4 35.9,29.4 Q36.5,29.4 36.7,29.4 Q36.8,29.3 37.1,29.2 L33.8,26.0 L32.0,28.0 L13.6,28.0 Q13.5,27.4 13.4,27.1 Q13.3,26.8 13.1,26.1 Z M32.9,38.1 L30.8,41.0 L25.3,41.0 Q26.2,38.0 26.2,36.3 Q26.2,34.6 26.3,30.9 Q27.0,30.8 27.1,30.6 Q27.3,30.5 27.3,30.0 L22.4,29.7 Q22.4,34.0 22.5,35.9 Q22.5,37.7 21.5,41.0 L9.8,41.0 L10.0,41.9 L21.2,41.9 Q19.8,45.7 18.1,47.2 Q16.4,48.6 8.9,51.1 L9.1,51.6 Q17.6,49.8 19.7,48.6 Q21.8,47.3 24.0,44.0 Q28.0,46.2 29.6,47.8 Q31.1,49.3 32.3,51.1 Q35.9,53.0 37.2,49.2 Q38.6,45.4 24.3,43.3 Q24.6,42.9 24.7,42.6 Q24.8,42.4 25.0,41.9 L35.7,41.9 Q36.2,41.9 36.3,41.8 Q36.5,41.7 36.6,41.4 Q35.2,40.1 34.0,39.1 Q32.9,38.1 32.9,38.1 Z"/></g>
  <g fill="#f4ede0"><path d="M74.6,29.0 L74.6,31.0 L80.4,31.0 L80.4,31.3 Q80.4,31.7 80.4,31.7 Q80.3,31.8 79.9,31.8 Q79.6,31.8 79.0,31.8 Q78.4,31.8 77.6,31.8 Q78.0,32.3 78.2,32.8 Q78.4,33.3 78.5,34.0 Q80.3,34.0 80.8,34.0 Q81.4,34.0 82.2,33.6 Q83.1,33.2 83.2,32.9 Q83.4,32.6 83.4,31.3 L83.4,31.0 L86.3,31.0 L86.3,31.9 L89.3,31.9 L89.3,28.2 L91.4,28.2 L91.4,26.0 L89.3,26.0 L89.3,23.4 L83.4,23.4 L83.4,22.8 L88.9,22.8 L88.9,18.2 L83.4,18.2 L83.4,17.3 L90.9,17.3 L90.9,15.0 L83.4,15.0 L83.4,14.0 L80.4,14.0 L80.4,15.0 L73.1,15.0 L73.1,17.3 L80.4,17.3 L80.4,18.2 L75.2,18.2 L75.2,22.8 L80.4,22.8 L80.4,23.4 L74.7,23.4 L74.7,25.3 L80.4,25.3 L80.4,26.0 L72.6,26.0 L72.6,28.2 L80.4,28.2 L80.4,29.0 L74.6,29.0 Z M77.9,20.0 L80.4,20.0 L80.4,21.0 L77.9,21.0 L77.9,20.0 Z M83.4,20.0 L85.9,20.0 L85.9,21.0 L83.4,21.0 L83.4,20.0 Z M83.4,25.3 L86.3,25.3 L86.3,26.0 L83.4,26.0 L83.4,25.3 Z M83.4,28.2 L86.3,28.2 L86.3,29.0 L83.4,29.0 L83.4,28.2 Z"/><path d="M102.5,31.0 Q105.0,31.7 106.3,32.3 Q107.6,32.9 109.1,33.9 L110.9,31.4 Q109.2,30.5 107.8,29.9 Q106.4,29.4 103.9,28.7 L102.5,31.0 Z M96.5,20.8 Q97.5,21.4 98.2,21.9 Q98.8,22.3 99.4,23.0 L101.2,21.0 Q100.5,20.2 99.9,19.7 Q99.2,19.3 98.2,18.8 L96.5,20.8 Z M94.5,23.8 Q95.5,24.4 96.1,24.8 Q96.8,25.3 97.4,25.9 L99.1,23.7 Q98.5,23.1 97.8,22.7 Q97.1,22.3 96.1,21.8 L94.5,23.8 Z M93.4,16.0 L93.4,21.0 L96.3,21.0 L96.3,18.7 L107.6,18.7 L107.6,20.9 L110.7,20.9 L110.7,16.0 L104.0,16.0 Q103.7,15.2 103.5,14.8 Q103.3,14.4 102.9,13.7 L100.0,14.8 L100.5,16.0 L93.4,16.0 Z M93.3,26.0 L93.3,28.4 L99.2,28.4 Q98.1,29.7 97.2,30.1 Q96.3,30.6 93.5,31.3 Q94.1,32.0 94.4,32.6 Q94.8,33.2 95.1,34.0 Q99.5,32.8 100.6,31.9 Q101.8,30.9 103.0,28.4 L110.8,28.4 L110.8,26.0 L103.9,26.0 Q104.3,24.2 104.4,23.1 Q104.4,22.1 104.5,19.7 L101.4,19.7 Q101.4,22.2 101.3,23.3 Q101.3,24.3 100.8,26.0 L93.3,26.0 Z"/><path d="M117.2,14.0 Q116.7,17.1 116.3,19.5 Q116.0,21.9 115.3,24.6 L118.4,24.9 L118.5,24.0 L124.7,24.0 L124.6,26.0 L112.9,26.0 L112.9,28.8 L124.2,28.8 Q124.0,29.8 123.8,30.2 Q123.7,30.5 123.4,30.7 Q123.1,31.0 123.0,31.0 Q122.9,31.0 122.5,31.0 Q121.9,31.0 121.2,31.0 Q120.6,31.0 119.3,30.9 Q119.9,31.7 120.1,32.3 Q120.3,33.0 120.4,33.8 Q121.6,33.9 122.2,33.9 Q122.9,33.9 123.7,33.8 Q124.6,33.6 125.0,33.5 Q125.3,33.4 126.0,32.6 Q126.5,32.0 126.7,31.5 Q126.9,30.9 127.2,28.8 L131.2,28.8 L131.2,26.0 L127.5,26.0 L127.8,22.6 Q127.8,22.2 127.8,21.8 Q127.9,21.3 127.9,21.3 L119.1,21.3 L119.4,19.0 L128.9,19.0 L128.9,16.2 L119.9,16.2 L120.2,14.2 L117.2,14.0 Z"/><path d="M134.0,18.0 L134.0,24.2 L138.8,24.2 L138.2,25.7 L132.8,25.7 L132.8,28.0 L136.7,28.0 Q136.2,28.7 135.9,29.1 Q135.7,29.4 135.2,30.0 L138.1,30.8 L138.2,30.7 L139.1,30.9 Q137.5,31.3 136.5,31.4 Q135.5,31.5 133.2,31.5 Q133.6,32.1 133.9,32.7 Q134.1,33.2 134.3,34.0 Q138.1,33.7 139.6,33.4 Q141.1,33.2 143.3,32.1 Q145.4,32.8 146.4,33.1 Q147.3,33.5 148.8,34.0 L150.5,31.7 Q149.3,31.2 148.5,31.0 Q147.7,30.7 145.9,30.2 Q146.5,29.6 146.8,29.2 Q147.0,28.9 147.4,28.0 L151.2,28.0 L151.2,25.7 L141.5,25.7 L142.1,24.2 L150.2,24.2 L150.2,18.0 L145.5,18.0 L145.5,17.0 L150.8,17.0 L150.8,14.5 L133.1,14.5 L133.1,17.0 L138.2,17.0 L138.2,18.0 L134.0,18.0 Z M140.0,28.0 L144.2,28.0 Q143.8,28.5 143.6,28.8 Q143.4,29.0 142.9,29.4 Q141.8,29.1 141.2,28.9 Q140.7,28.8 139.6,28.6 L140.0,28.0 Z M141.0,17.0 L142.7,17.0 L142.7,18.0 L141.0,18.0 L141.0,17.0 Z M136.7,20.3 L138.2,20.3 L138.2,22.0 L136.7,22.0 L136.7,20.3 Z M141.0,20.3 L142.7,20.3 L142.7,22.0 L141.0,22.0 L141.0,20.3 Z M145.5,20.3 L147.3,20.3 L147.3,22.0 L145.5,22.0 L145.5,20.3 Z"/><path d="M164.2,30.7 Q165.6,31.5 166.6,32.2 Q167.6,32.8 168.5,33.6 L170.8,31.9 Q169.7,31.1 168.7,30.5 Q167.7,29.9 166.4,29.2 L164.2,30.7 Z M157.0,29.3 Q156.0,30.2 155.2,30.7 Q154.3,31.1 152.6,31.7 Q153.2,32.2 153.8,32.7 Q154.3,33.2 154.8,33.8 Q156.4,33.0 157.4,32.3 Q158.5,31.7 159.7,30.4 L157.0,29.3 Z M153.0,20.0 L153.0,22.2 L158.4,22.2 Q158.0,22.5 157.9,22.7 Q157.7,22.9 157.3,23.2 L156.4,22.6 L154.5,24.4 Q155.5,25.0 156.1,25.5 Q156.7,25.9 157.7,26.7 L157.1,27.0 L153.1,27.0 L153.2,29.3 L160.5,29.1 L160.5,33.9 L163.4,33.9 L163.4,29.1 L168.7,28.9 Q169.0,29.2 169.1,29.4 Q169.2,29.5 169.5,29.8 L171.6,28.2 Q170.7,27.0 169.7,26.1 Q168.7,25.3 167.1,24.1 L165.1,25.8 L166.4,26.8 L161.7,26.9 Q163.4,25.8 164.3,25.2 Q165.2,24.6 166.7,23.3 L164.8,22.2 L171.0,22.2 L171.0,20.0 L163.4,20.0 L163.4,19.7 L169.1,19.7 L169.1,17.7 L163.4,17.7 L163.4,17.1 L170.1,17.1 L170.1,15.0 L163.4,15.0 L163.4,14.0 L160.5,14.0 L160.5,15.0 L154.2,15.0 L154.2,17.1 L160.5,17.1 L160.5,17.7 L155.2,17.7 L155.2,19.7 L160.5,19.7 L160.5,20.0 L153.0,20.0 Z M159.2,24.5 Q160.1,23.9 160.6,23.4 Q161.2,23.0 162.1,22.2 L163.7,22.2 Q162.7,23.1 162.0,23.6 Q161.4,24.1 160.1,25.1 L159.2,24.5 Z"/><path d="M179.5,20.0 Q179.3,22.0 179.1,22.9 Q179.0,23.8 178.4,25.3 Q177.9,24.2 177.7,23.6 Q177.5,22.9 177.1,21.4 L177.5,20.0 L179.5,20.0 Z M175.6,14.0 Q175.1,18.2 174.5,20.4 Q174.0,22.5 172.6,24.7 Q173.3,25.1 173.9,25.6 Q174.4,26.0 175.0,26.5 Q175.2,26.2 175.3,26.0 Q175.4,25.8 175.7,25.3 Q176.0,26.5 176.2,27.0 Q176.5,27.5 176.9,28.4 Q175.8,30.1 175.0,30.7 Q174.2,31.3 172.3,32.1 Q173.0,32.6 173.7,33.2 Q174.3,33.8 174.8,34.3 Q176.4,33.7 177.1,33.1 Q177.7,32.6 178.9,31.2 Q181.2,33.4 182.6,33.7 Q184.0,34.0 187.2,34.0 L190.7,34.0 Q190.9,33.2 191.1,32.4 Q191.4,31.6 191.8,30.9 Q190.8,31.0 189.5,31.0 Q188.3,31.0 187.4,31.0 Q184.8,31.0 183.6,30.7 Q182.4,30.4 180.5,28.4 Q181.7,25.6 182.1,23.8 Q182.5,22.0 182.8,17.8 L180.8,17.3 L180.3,17.3 L178.2,17.3 Q178.4,16.5 178.5,16.0 Q178.5,15.6 178.7,14.7 L175.6,14.0 Z M183.5,14.0 L183.5,30.3 L186.6,30.3 L186.6,22.6 Q187.5,24.0 187.9,24.7 Q188.2,25.4 188.7,26.4 L191.3,24.6 Q190.5,22.9 189.6,21.6 Q188.7,20.4 187.3,18.6 L186.6,19.0 L186.6,14.0 L183.5,14.0 Z"/><path d="M202.7,21.0 L204.2,21.0 L204.2,22.6 L202.7,22.6 L202.7,21.0 Z M206.6,21.0 L208.0,21.0 L208.0,22.6 L206.6,22.6 L206.6,21.0 Z M202.7,17.5 L204.2,17.5 L204.2,18.8 L202.7,18.8 L202.7,17.5 Z M206.6,17.5 L208.0,17.5 L208.0,18.8 L206.6,18.8 L206.6,17.5 Z M198.7,30.4 L198.7,33.0 L211.6,33.0 L211.6,30.4 L206.9,30.4 L206.9,29.0 L210.9,29.0 L210.9,26.4 L206.9,26.4 L206.9,25.0 L210.7,25.0 L210.7,15.0 L200.1,15.0 L200.1,25.0 L203.9,25.0 L203.9,26.4 L200.0,26.4 L200.0,29.0 L203.9,29.0 L203.9,30.4 L198.7,30.4 Z M192.4,29.0 L193.0,31.9 Q195.0,31.3 196.2,30.9 Q197.5,30.5 199.7,29.7 L199.2,27.0 L197.4,27.6 L197.4,24.0 L199.1,24.0 L199.1,21.3 L197.4,21.3 L197.4,18.0 L199.5,18.0 L199.5,15.3 L192.6,15.3 L192.6,18.0 L194.7,18.0 L194.7,21.3 L192.8,21.3 L192.8,24.0 L194.7,24.0 L194.7,28.5 Q193.8,28.6 193.4,28.8 Q193.0,28.9 192.4,29.0 Z"/></g>
  <g fill="#9aa3b2"><path d="M73.2,54.0 L74.3,54.0 L74.3,49.9 L77.7,49.9 L77.7,49.0 L74.3,49.0 L74.3,45.9 L78.3,45.9 L78.3,45.0 L73.2,45.0 L73.2,54.0 Z"/><path d="M80.0,54.0 L81.2,54.0 L82.0,51.0 L85.2,51.0 L86.1,54.0 L87.2,54.0 L84.2,45.0 L83.0,45.0 L80.0,54.0 Z M82.3,50.1 L82.7,48.8 Q83.0,47.8 83.2,47.4 Q83.3,46.9 83.6,45.9 L83.6,45.9 Q83.9,46.9 84.1,47.4 Q84.2,47.8 84.5,48.8 L85.0,50.1 L82.3,50.1 Z"/><path d="M92.5,54.0 Q93.7,54.0 94.1,53.8 Q94.5,53.5 95.2,52.8 L94.6,52.1 Q94.0,52.7 93.7,52.9 Q93.4,53.0 92.6,53.0 Q90.9,53.0 90.4,52.4 Q89.8,51.7 89.8,49.5 Q89.8,47.3 90.4,46.6 Q90.9,46.0 92.6,46.0 Q93.4,46.0 93.6,46.1 Q93.9,46.3 94.4,46.8 L95.0,46.1 Q94.5,45.5 94.1,45.3 Q93.7,45.0 92.6,45.0 Q90.4,45.0 89.5,45.9 Q88.7,46.7 88.7,49.5 Q88.7,52.3 89.5,53.2 Q90.3,54.0 92.5,54.0 Z"/><path d="M100.0,54.0 L101.1,54.0 L101.1,45.9 L103.8,45.9 L103.8,45.0 L97.4,45.0 L97.4,45.9 L100.0,45.9 L100.0,54.0 Z"/><path d="M112.1,54.0 Q113.1,54.0 113.5,53.8 Q114.0,53.6 114.6,53.0 Q115.3,53.5 115.7,53.7 Q116.0,53.9 116.7,54.0 L116.9,53.1 Q116.5,53.0 116.2,52.8 Q115.9,52.7 115.3,52.3 Q116.0,51.4 116.2,50.8 Q116.5,50.3 116.8,49.2 L115.8,49.2 Q115.5,50.2 115.3,50.6 Q115.1,51.0 114.6,51.7 Q113.8,51.0 113.3,50.6 Q112.9,50.2 112.3,49.3 Q113.3,48.6 113.8,48.2 Q114.3,47.9 114.3,46.7 Q114.3,45.7 114.0,45.4 Q113.7,45.0 112.6,45.0 Q111.4,45.0 111.0,45.5 Q110.6,45.9 110.6,47.0 Q110.6,47.7 110.7,48.0 Q110.8,48.4 111.2,49.1 Q110.2,49.7 109.8,50.1 Q109.4,50.4 109.4,51.6 Q109.4,53.0 110.0,53.5 Q110.5,54.0 112.1,54.0 Z M113.9,52.4 Q113.4,52.9 113.1,53.0 Q112.8,53.1 112.2,53.1 Q111.2,53.1 110.9,52.8 Q110.5,52.5 110.5,51.5 Q110.5,50.9 110.7,50.6 Q111.0,50.3 111.6,49.8 Q112.2,50.8 112.6,51.2 Q113.0,51.7 113.9,52.4 Z M111.9,48.6 Q111.7,48.0 111.6,47.8 Q111.5,47.5 111.5,47.0 Q111.5,46.3 111.7,46.1 Q111.9,45.8 112.6,45.8 Q113.2,45.8 113.3,46.0 Q113.4,46.2 113.4,46.8 Q113.4,47.5 113.1,47.8 Q112.8,48.0 111.9,48.6 Z"/><path d="M123.2,54.0 L128.4,54.0 L128.4,53.1 L124.3,53.1 L124.3,50.0 L127.6,50.0 L127.6,49.0 L124.3,49.0 L124.3,45.9 L128.3,45.9 L128.3,45.0 L123.2,45.0 L123.2,54.0 Z"/><path d="M131.2,54.0 L136.2,54.0 L136.2,53.1 L132.3,53.1 L132.3,45.0 L131.2,45.0 L131.2,54.0 Z"/><path d="M139.2,54.0 L144.4,54.0 L144.4,53.1 L140.3,53.1 L140.3,50.0 L143.6,50.0 L143.6,49.0 L140.3,49.0 L140.3,45.9 L144.3,45.9 L144.3,45.0 L139.2,45.0 L139.2,54.0 Z"/><path d="M147.2,54.0 L148.2,54.0 L148.2,49.0 Q148.2,48.2 148.2,47.7 Q148.1,47.1 148.1,46.3 L148.1,46.3 L148.8,48.4 L150.5,53.0 L151.2,53.0 L152.9,48.4 L153.6,46.3 L153.6,46.3 Q153.6,47.1 153.5,47.7 Q153.5,48.2 153.5,49.0 L153.5,54.0 L154.5,54.0 L154.5,45.0 L153.2,45.0 L151.5,49.8 Q151.3,50.4 151.2,50.7 Q151.1,51.0 150.9,51.6 L150.8,51.6 Q150.6,51.0 150.5,50.7 Q150.4,50.4 150.2,49.8 L148.5,45.0 L147.2,45.0 L147.2,54.0 Z"/><path d="M158.2,54.0 L163.4,54.0 L163.4,53.1 L159.3,53.1 L159.3,50.0 L162.6,50.0 L162.6,49.0 L159.3,49.0 L159.3,45.9 L163.3,45.9 L163.3,45.0 L158.2,45.0 L158.2,54.0 Z"/><path d="M166.2,54.0 L167.2,54.0 L167.2,49.3 Q167.2,48.3 167.2,47.8 Q167.2,47.3 167.1,46.4 L167.2,46.4 L168.1,48.3 L171.3,54.0 L172.5,54.0 L172.5,45.0 L171.4,45.0 L171.4,49.7 Q171.4,50.6 171.4,51.2 Q171.5,51.7 171.5,52.6 L171.5,52.6 L170.5,50.7 L167.3,45.0 L166.2,45.0 L166.2,54.0 Z"/><path d="M178.0,54.0 L179.1,54.0 L179.1,45.9 L181.8,45.9 L181.8,45.0 L175.4,45.0 L175.4,45.9 L178.0,45.9 L178.0,54.0 Z"/><path d="M188.2,54.0 L189.3,54.0 L189.3,50.0 L190.8,50.0 Q192.7,50.0 193.3,49.6 Q194.0,49.2 194.0,47.5 Q194.0,45.7 193.3,45.3 Q192.7,45.0 190.7,45.0 L188.2,45.0 L188.2,54.0 Z M189.3,49.1 L189.3,45.9 L190.6,45.9 Q192.1,45.9 192.5,46.1 Q192.9,46.3 192.9,47.5 Q192.9,48.6 192.5,48.9 Q192.2,49.1 190.6,49.1 L189.3,49.1 Z"/><path d="M198.3,49.1 L198.3,45.9 L199.8,45.9 Q201.2,45.9 201.5,46.1 Q201.9,46.3 201.9,47.4 Q201.9,48.6 201.5,48.8 Q201.2,49.1 199.8,49.1 L198.3,49.1 Z M202.0,54.0 L203.3,54.0 L201.0,49.9 Q202.2,49.6 202.6,49.2 Q203.0,48.8 203.0,47.4 Q203.0,45.6 202.4,45.3 Q201.7,45.0 200.0,45.0 L197.2,45.0 L197.2,54.0 L198.3,54.0 L198.3,50.0 L199.9,50.0 L202.0,54.0 Z"/><path d="M209.4,54.0 Q211.7,54.0 212.4,53.1 Q213.2,52.2 213.2,49.5 Q213.2,46.7 212.4,45.9 Q211.7,45.0 209.4,45.0 Q207.2,45.0 206.5,45.9 Q205.7,46.7 205.7,49.5 Q205.7,52.2 206.5,53.1 Q207.2,54.0 209.4,54.0 Z M209.4,53.0 Q207.9,53.0 207.3,52.3 Q206.8,51.6 206.8,49.5 Q206.8,47.3 207.3,46.6 Q207.9,46.0 209.4,46.0 Q211.0,46.0 211.5,46.6 Q212.1,47.3 212.1,49.5 Q212.1,51.6 211.5,52.3 Q211.0,53.0 209.4,53.0 Z"/><path d="M219.5,54.0 Q220.7,54.0 221.1,53.8 Q221.5,53.5 222.2,52.8 L221.6,52.1 Q221.0,52.7 220.7,52.9 Q220.4,53.0 219.6,53.0 Q217.9,53.0 217.4,52.4 Q216.8,51.7 216.8,49.5 Q216.8,47.3 217.4,46.6 Q217.9,46.0 219.6,46.0 Q220.4,46.0 220.6,46.1 Q220.9,46.3 221.4,46.8 L222.0,46.1 Q221.5,45.5 221.1,45.3 Q220.7,45.0 219.6,45.0 Q217.4,45.0 216.5,45.9 Q215.7,46.7 215.7,49.5 Q215.7,52.3 216.5,53.2 Q217.3,54.0 219.5,54.0 Z"/><path d="M225.2,54.0 L230.4,54.0 L230.4,53.1 L226.3,53.1 L226.3,50.0 L229.6,50.0 L229.6,49.0 L226.3,49.0 L226.3,45.9 L230.3,45.9 L230.3,45.0 L225.2,45.0 L225.2,54.0 Z"/><path d="M235.6,54.0 Q237.5,54.0 238.0,53.5 Q238.6,52.9 238.6,51.5 Q238.6,50.2 238.2,50.0 Q237.8,49.7 236.8,49.2 L235.6,48.7 Q234.9,48.4 234.5,48.2 Q234.1,48.1 234.1,47.2 Q234.1,46.5 234.4,46.2 Q234.8,46.0 235.8,46.0 Q236.6,46.0 236.9,46.1 Q237.2,46.3 237.8,46.8 L238.3,46.1 Q237.7,45.5 237.3,45.2 Q236.8,45.0 235.8,45.0 Q234.2,45.0 233.6,45.5 Q233.0,46.0 233.0,47.3 Q233.0,48.6 233.5,48.9 Q234.0,49.2 234.8,49.5 L236.0,50.1 Q236.9,50.5 237.2,50.6 Q237.5,50.7 237.5,51.6 Q237.5,52.5 237.2,52.8 Q236.8,53.0 235.7,53.0 Q234.7,53.0 234.3,52.8 Q233.8,52.6 233.2,52.0 L232.6,52.7 Q233.3,53.5 233.9,53.8 Q234.4,54.0 235.6,54.0 Z"/><path d="M243.6,54.0 Q245.5,54.0 246.0,53.5 Q246.6,52.9 246.6,51.5 Q246.6,50.2 246.2,50.0 Q245.8,49.7 244.8,49.2 L243.6,48.7 Q242.9,48.4 242.5,48.2 Q242.1,48.1 242.1,47.2 Q242.1,46.5 242.4,46.2 Q242.8,46.0 243.8,46.0 Q244.6,46.0 244.9,46.1 Q245.2,46.3 245.8,46.8 L246.3,46.1 Q245.7,45.5 245.3,45.2 Q244.8,45.0 243.8,45.0 Q242.2,45.0 241.6,45.5 Q241.0,46.0 241.0,47.3 Q241.0,48.6 241.5,48.9 Q242.0,49.2 242.8,49.5 L244.0,50.1 Q244.9,50.5 245.2,50.6 Q245.5,50.7 245.5,51.6 Q245.5,52.5 245.2,52.8 Q244.8,53.0 243.7,53.0 Q242.7,53.0 242.3,52.8 Q241.8,52.6 241.2,52.0 L240.6,52.7 Q241.3,53.5 241.9,53.8 Q242.4,54.0 243.6,54.0 Z"/><path d="M249.2,54.0 L250.3,54.0 L250.3,45.0 L249.2,45.0 L249.2,54.0 Z"/><path d="M254.2,54.0 L255.2,54.0 L255.2,49.3 Q255.2,48.3 255.2,47.8 Q255.2,47.3 255.1,46.4 L255.2,46.4 L256.1,48.3 L259.3,54.0 L260.5,54.0 L260.5,45.0 L259.4,45.0 L259.4,49.7 Q259.4,50.6 259.4,51.2 Q259.5,51.7 259.5,52.6 L259.5,52.6 L258.5,50.7 L255.3,45.0 L254.2,45.0 L254.2,54.0 Z"/><path d="M267.7,54.0 Q268.8,54.0 269.3,53.8 Q269.8,53.6 270.4,53.0 L270.4,49.1 L267.5,49.1 L267.5,50.0 L269.3,50.0 L269.3,52.5 Q269.0,52.8 268.7,52.9 Q268.4,53.0 267.8,53.0 Q265.9,53.0 265.4,52.3 Q264.8,51.5 264.8,49.2 Q264.8,47.2 265.4,46.6 Q266.0,46.0 267.8,46.0 Q268.6,46.0 268.9,46.1 Q269.2,46.3 269.7,46.7 L270.2,46.1 Q269.8,45.6 269.3,45.3 Q268.9,45.0 267.7,45.0 Q265.4,45.0 264.5,45.8 Q263.7,46.7 263.7,49.2 Q263.7,52.3 264.5,53.1 Q265.3,54.0 267.7,54.0 Z"/></g>
  <g transform="translate(410,21)">
    <rect x="0" y="0" width="44" height="30" rx="8" fill="#15171c" stroke="#b08d57" stroke-opacity="0.4"/>
    <g fill="#d8b988"><path d="M22.4,21.0 L25.0,21.0 L25.0,18.0 L26.3,18.0 L26.3,15.8 L25.0,15.8 L25.0,9.0 L21.5,9.0 L17.3,16.0 L17.3,18.0 L22.4,18.0 L22.4,21.0 Z M22.4,15.8 L20.1,15.8 L21.4,13.5 Q21.8,12.8 21.9,12.4 Q22.1,12.1 22.4,11.4 L22.5,11.4 Q22.4,12.2 22.4,12.8 Q22.4,13.3 22.4,14.1 L22.4,15.8 Z"/></g>
  </g>
</svg>
