<svg xmlns="http://www.w3.org/2000/svg" viewBox="0 0 1200 96" width="1200" height="96" role="img" aria-label="OUTPUT  ·  ARGUMENT &amp; DOCUMENTS">
  <defs>
    <linearGradient id="sh" x1="0" y1="0" x2="1" y2="0"><stop offset="0" stop-color="#15171c"/><stop offset="1" stop-color="#2b313c"/></linearGradient>
    <linearGradient id="shb" x1="0" y1="0" x2="1" y2="0"><stop offset="0" stop-color="#b08d57"/><stop offset="1" stop-color="#d8b988"/></linearGradient>
  </defs>
  <rect width="1200" height="96" rx="10" fill="url(#sh)"/>
  <rect x="0" y="0" width="6" height="96" rx="3" fill="#c0392b"/>
  <g fill="#f4ede0"><path d="M51.8,46.0 Q57.9,46.0 59.9,43.8 Q62.0,41.6 62.0,34.9 Q62.0,28.2 59.9,26.1 Q57.9,24.0 51.8,24.0 Q45.7,24.0 43.6,26.1 Q41.5,28.1 41.5,34.9 Q41.5,41.6 43.6,43.8 Q45.7,46.0 51.8,46.0 Z M51.8,41.4 Q48.8,41.4 47.9,40.1 Q47.0,38.9 47.0,34.9 Q47.0,30.9 47.9,29.8 Q48.8,28.6 51.8,28.6 Q54.7,28.6 55.6,29.8 Q56.5,30.9 56.5,34.9 Q56.5,38.9 55.6,40.1 Q54.7,41.4 51.8,41.4 Z"/><path d="M78.5,46.0 Q84.5,46.0 86.0,44.3 Q87.5,42.6 87.5,35.4 L87.5,24.0 L82.3,24.0 L82.3,35.9 Q82.3,40.0 81.6,40.7 Q80.9,41.4 78.5,41.4 Q76.0,41.4 75.4,40.7 Q74.8,40.0 74.8,35.9 L74.8,24.0 L69.5,24.0 L69.5,35.4 Q69.5,42.6 71.0,44.3 Q72.5,46.0 78.5,46.0 Z"/><path d="M99.9,46.0 L105.3,46.0 L105.3,28.5 L111.3,28.5 L111.3,24.0 L93.9,24.0 L93.9,28.5 L99.9,28.5 L99.9,46.0 Z"/><path d="M117.6,46.0 L122.9,46.0 L122.9,39.0 L125.5,39.0 Q130.3,39.0 132.3,37.8 Q134.4,36.7 134.4,31.3 Q134.4,25.8 132.4,24.9 Q130.3,24.0 125.4,24.0 L117.6,24.0 L117.6,46.0 Z M122.9,34.8 L122.9,28.3 L125.1,28.3 Q127.7,28.3 128.4,28.7 Q129.2,29.1 129.2,31.3 Q129.2,33.5 128.5,34.2 Q127.9,34.8 125.3,34.8 L122.9,34.8 Z"/><path d="M150.5,46.0 Q156.5,46.0 158.0,44.3 Q159.5,42.6 159.5,35.4 L159.5,24.0 L154.3,24.0 L154.3,35.9 Q154.3,40.0 153.6,40.7 Q152.9,41.4 150.5,41.4 Q148.0,41.4 147.4,40.7 Q146.8,40.0 146.8,35.9 L146.8,24.0 L141.5,24.0 L141.5,35.4 Q141.5,42.6 143.0,44.3 Q144.5,46.0 150.5,46.0 Z"/><path d="M171.9,46.0 L177.3,46.0 L177.3,28.5 L183.3,28.5 L183.3,24.0 L165.9,24.0 L165.9,28.5 L171.9,28.5 L171.9,46.0 Z"/><path d="M216.1,38.0 Q217.9,38.0 218.6,37.3 Q219.3,36.5 219.3,34.7 Q219.3,32.8 218.6,32.1 Q217.9,31.4 216.1,31.4 Q214.3,31.4 213.6,32.1 Q213.0,32.8 213.0,34.7 Q213.0,36.5 213.6,37.3 Q214.3,38.0 216.1,38.0 Z"/><path d="M247.8,46.0 L253.2,46.0 L254.5,41.0 L261.1,41.0 L262.4,46.0 L268.0,46.0 L261.1,24.0 L254.7,24.0 L247.8,46.0 Z M255.5,36.9 L256.0,35.0 Q256.6,32.9 256.9,31.6 Q257.2,30.3 257.7,28.0 L257.8,28.0 Q258.4,30.2 258.7,31.6 Q259.0,32.9 259.6,35.0 L260.1,36.9 L255.5,36.9 Z"/><path d="M278.9,34.0 L278.9,28.3 L281.3,28.3 Q283.9,28.3 284.6,28.6 Q285.3,28.9 285.3,30.9 Q285.3,33.0 284.6,33.5 Q283.9,34.0 281.3,34.0 L278.9,34.0 Z M285.6,46.0 L291.6,46.0 L286.7,37.2 Q289.0,36.2 289.7,35.1 Q290.5,34.1 290.5,30.9 Q290.5,25.7 288.5,24.8 Q286.5,24.0 281.8,24.0 L273.6,24.0 L273.6,46.0 L278.9,46.0 L278.9,38.2 L281.5,38.2 L285.6,46.0 Z"/><path d="M307.6,46.0 Q310.7,46.0 312.1,45.4 Q313.5,44.8 315.1,43.3 L315.1,33.6 L306.8,33.6 L306.8,38.0 L310.3,38.0 L310.3,40.9 Q309.8,41.2 309.4,41.3 Q309.0,41.4 308.2,41.4 Q304.0,41.4 303.0,40.3 Q302.0,39.3 302.0,35.2 Q302.0,31.0 303.2,29.8 Q304.4,28.6 307.7,28.6 Q309.6,28.6 310.2,28.9 Q310.7,29.3 311.8,30.2 L314.7,26.9 Q313.1,25.4 312.0,24.7 Q310.8,24.0 307.5,24.0 Q301.6,24.0 299.1,26.1 Q296.5,28.3 296.5,35.3 Q296.5,42.1 299.0,44.1 Q301.4,46.0 307.6,46.0 Z"/><path d="M331.5,46.0 Q337.5,46.0 339.0,44.3 Q340.5,42.6 340.5,35.4 L340.5,24.0 L335.3,24.0 L335.3,35.9 Q335.3,40.0 334.6,40.7 Q333.9,41.4 331.5,41.4 Q329.0,41.4 328.4,40.7 Q327.8,40.0 327.8,35.9 L327.8,24.0 L322.5,24.0 L322.5,35.4 Q322.5,42.6 324.0,44.3 Q325.5,46.0 331.5,46.0 Z"/><path d="M348.6,46.0 L353.4,46.0 L353.4,38.5 Q353.4,36.4 353.2,34.7 Q353.0,33.1 352.7,31.0 L352.8,31.0 L354.6,36.2 L357.6,44.2 L360.6,44.2 L363.6,36.2 L365.4,31.0 L365.6,31.0 Q365.3,33.1 365.1,34.7 Q364.9,36.4 364.9,38.5 L364.9,46.0 L369.8,46.0 L369.8,24.0 L363.9,24.0 L360.5,33.6 Q360.1,34.9 359.9,35.6 Q359.7,36.2 359.3,37.6 L359.1,37.6 Q358.7,36.2 358.5,35.6 Q358.4,34.9 357.9,33.6 L354.4,24.0 L348.6,24.0 L348.6,46.0 Z"/><path d="M377.6,46.0 L392.1,46.0 L392.1,41.5 L382.9,41.5 L382.9,37.0 L390.4,37.0 L390.4,32.5 L382.9,32.5 L382.9,28.5 L391.7,28.5 L391.7,24.0 L377.6,24.0 L377.6,46.0 Z"/><path d="M399.6,46.0 L404.7,46.0 L404.7,38.7 Q404.7,36.1 404.4,34.6 Q404.2,33.0 404.0,30.6 L404.1,30.6 L406.3,35.4 L411.8,46.0 L417.3,46.0 L417.3,24.0 L412.2,24.0 L412.2,31.3 Q412.2,33.9 412.4,35.5 Q412.7,37.1 412.9,39.4 L412.8,39.4 L410.6,34.5 L405.0,24.0 L399.6,24.0 L399.6,46.0 Z"/><path d="M429.9,46.0 L435.3,46.0 L435.3,28.5 L441.3,28.5 L441.3,24.0 L423.9,24.0 L423.9,28.5 L429.9,28.5 L429.9,46.0 Z"/><path d="M463.4,46.0 Q466.2,46.0 467.3,45.6 Q468.5,45.2 470.4,43.8 Q472.4,44.9 473.4,45.3 Q474.4,45.7 476.3,46.0 L477.5,41.7 Q476.4,41.6 475.8,41.3 Q475.1,41.1 473.7,40.5 Q475.4,38.3 476.0,37.2 Q476.6,36.0 477.4,33.5 L472.5,33.5 Q472.0,35.4 471.6,36.2 Q471.1,37.0 470.0,38.4 Q468.5,37.3 467.7,36.7 Q467.0,36.1 465.7,34.8 Q468.1,33.4 469.2,32.6 Q470.4,31.7 470.4,29.0 Q470.4,26.0 469.2,25.0 Q468.1,24.0 464.7,24.0 Q460.9,24.0 459.7,25.4 Q458.5,26.7 458.5,29.7 Q458.5,31.0 458.8,31.7 Q459.0,32.5 459.9,34.0 Q457.7,35.2 456.7,36.0 Q455.8,36.9 455.8,39.8 Q455.8,43.0 457.1,44.5 Q458.4,46.0 463.4,46.0 Z M466.6,41.2 Q465.8,41.7 465.3,41.8 Q464.9,41.9 464.0,41.9 Q462.1,41.9 461.5,41.4 Q460.9,40.9 460.9,39.5 Q460.9,38.6 461.1,38.2 Q461.4,37.9 462.2,37.2 Q463.5,38.6 464.2,39.3 Q465.0,40.0 466.6,41.2 Z M463.6,32.0 Q463.1,31.2 463.0,30.8 Q462.9,30.4 462.9,29.7 Q462.9,28.3 463.3,27.9 Q463.8,27.5 464.8,27.5 Q465.8,27.5 466.0,27.8 Q466.3,28.1 466.3,29.0 Q466.3,30.3 465.7,30.8 Q465.1,31.2 463.6,32.0 Z"/><path d="M493.6,46.0 L500.3,46.0 Q506.8,46.0 509.0,44.2 Q511.3,42.5 511.3,34.9 Q511.3,27.3 509.0,25.7 Q506.8,24.0 500.0,24.0 L493.6,24.0 L493.6,46.0 Z M498.9,41.7 L498.9,28.3 L499.7,28.3 Q503.3,28.3 504.5,29.0 Q505.8,29.7 505.8,34.9 Q505.8,40.1 504.5,40.9 Q503.3,41.7 499.7,41.7 L498.9,41.7 Z"/><path d="M527.8,46.0 Q533.9,46.0 535.9,43.8 Q538.0,41.6 538.0,34.9 Q538.0,28.2 535.9,26.1 Q533.9,24.0 527.8,24.0 Q521.7,24.0 519.6,26.1 Q517.5,28.1 517.5,34.9 Q517.5,41.6 519.6,43.8 Q521.7,46.0 527.8,46.0 Z M527.8,41.4 Q524.8,41.4 523.9,40.1 Q523.0,38.9 523.0,34.9 Q523.0,30.9 523.9,29.8 Q524.8,28.6 527.8,28.6 Q530.7,28.6 531.6,29.8 Q532.5,30.9 532.5,34.9 Q532.5,38.9 531.6,40.1 Q530.7,41.4 527.8,41.4 Z"/><path d="M555.0,46.0 Q557.9,46.0 559.2,45.4 Q560.4,44.9 562.3,42.7 L559.5,39.5 Q558.4,40.6 557.7,41.0 Q557.0,41.4 555.2,41.4 Q552.1,41.4 551.1,40.2 Q550.0,39.0 550.0,35.0 Q550.0,31.0 551.2,29.8 Q552.4,28.6 555.3,28.6 Q556.9,28.6 557.5,28.9 Q558.0,29.2 559.2,30.2 L562.0,26.9 Q560.5,25.4 559.3,24.7 Q558.1,24.0 555.2,24.0 Q549.5,24.0 547.0,26.1 Q544.5,28.3 544.5,35.1 Q544.5,42.1 547.0,44.1 Q549.4,46.0 555.0,46.0 Z"/><path d="M577.5,46.0 Q583.5,46.0 585.0,44.3 Q586.5,42.6 586.5,35.4 L586.5,24.0 L581.3,24.0 L581.3,35.9 Q581.3,40.0 580.6,40.7 Q579.9,41.4 577.5,41.4 Q575.0,41.4 574.4,40.7 Q573.8,40.0 573.8,35.9 L573.8,24.0 L568.5,24.0 L568.5,35.4 Q568.5,42.6 570.0,44.3 Q571.5,46.0 577.5,46.0 Z"/><path d="M594.6,46.0 L599.4,46.0 L599.4,38.5 Q599.4,36.4 599.2,34.7 Q599.0,33.1 598.7,31.0 L598.8,31.0 L600.6,36.2 L603.6,44.2 L606.6,44.2 L609.6,36.2 L611.4,31.0 L611.6,31.0 Q611.3,33.1 611.1,34.7 Q610.9,36.4 610.9,38.5 L610.9,46.0 L615.8,46.0 L615.8,24.0 L609.9,24.0 L606.5,33.6 Q606.1,34.9 605.9,35.6 Q605.7,36.2 605.3,37.6 L605.1,37.6 Q604.7,36.2 604.5,35.6 Q604.4,34.9 603.9,33.6 L600.4,24.0 L594.6,24.0 L594.6,46.0 Z"/><path d="M623.6,46.0 L638.1,46.0 L638.1,41.5 L628.9,41.5 L628.9,37.0 L636.4,37.0 L636.4,32.5 L628.9,32.5 L628.9,28.5 L637.7,28.5 L637.7,24.0 L623.6,24.0 L623.6,46.0 Z"/><path d="M645.6,46.0 L650.7,46.0 L650.7,38.7 Q650.7,36.1 650.4,34.6 Q650.2,33.0 650.0,30.6 L650.1,30.6 L652.3,35.4 L657.8,46.0 L663.3,46.0 L663.3,24.0 L658.2,24.0 L658.2,31.3 Q658.2,33.9 658.4,35.5 Q658.7,37.1 658.9,39.4 L658.8,39.4 L656.6,34.5 L651.0,24.0 L645.6,24.0 L645.6,46.0 Z"/><path d="M675.9,46.0 L681.3,46.0 L681.3,28.5 L687.3,28.5 L687.3,24.0 L669.9,24.0 L669.9,28.5 L675.9,28.5 L675.9,46.0 Z"/><path d="M700.5,46.0 Q705.9,46.0 707.5,44.4 Q709.0,42.7 709.0,39.2 Q709.0,36.3 708.2,35.5 Q707.4,34.6 704.6,33.6 L701.8,32.6 Q699.8,31.9 699.2,31.6 Q698.5,31.4 698.5,30.3 Q698.5,29.2 699.0,28.9 Q699.5,28.6 701.1,28.6 Q702.8,28.6 703.5,28.9 Q704.2,29.1 705.7,30.2 L708.4,27.0 Q706.4,25.0 705.0,24.5 Q703.7,24.0 701.1,24.0 Q696.4,24.0 694.7,25.5 Q693.0,27.0 693.0,30.6 Q693.0,33.5 694.1,34.4 Q695.2,35.3 697.5,36.2 L700.4,37.3 Q702.3,38.0 702.9,38.2 Q703.5,38.4 703.5,39.6 Q703.5,40.7 703.1,41.0 Q702.6,41.4 700.6,41.4 Q698.9,41.4 697.8,41.0 Q696.8,40.5 695.2,39.3 L692.2,42.8 Q694.5,44.9 696.0,45.5 Q697.6,46.0 700.5,46.0 Z"/></g>
  <line x1="40" y1="58" x2="1160" y2="58" stroke="url(#shb)" stroke-opacity="0.25" stroke-width="1"/>
  <g fill="#d8b988"><path d="M57.2,73.1 L55.0,72.9 L55.0,81.7 Q55.0,81.9 55.0,82.0 Q54.9,82.0 54.7,82.0 Q54.4,82.0 53.6,82.0 Q52.9,81.9 52.9,81.9 L52.9,82.2 Q53.6,82.3 53.8,82.4 Q54.0,82.5 54.2,82.8 Q54.4,83.0 54.4,83.2 Q54.5,83.5 54.5,84.0 Q56.4,83.8 56.5,83.4 Q56.6,83.1 56.6,81.8 L56.6,73.6 Q57.0,73.5 57.1,73.4 Q57.2,73.4 57.2,73.1 Z M52.7,70.3 L51.8,71.5 L48.9,71.5 L49.1,72.0 L53.9,72.0 Q54.1,72.0 54.2,72.0 Q54.3,71.9 54.4,71.7 Q53.7,71.1 53.2,70.7 Q52.7,70.3 52.7,70.3 Z M54.4,73.6 L52.5,73.4 L52.5,80.8 L52.8,80.8 Q53.3,80.8 53.6,80.7 Q53.9,80.5 53.9,80.4 L53.9,74.0 Q54.2,74.0 54.3,73.9 Q54.3,73.8 54.4,73.6 Z M45.3,66.8 L42.9,66.1 Q42.8,66.9 42.7,67.5 Q42.5,68.2 42.2,69.5 L40.6,69.5 L40.7,70.0 L42.1,70.0 Q41.7,71.7 41.4,72.5 Q41.2,73.3 40.9,74.6 Q40.6,74.8 40.5,74.9 Q40.3,75.0 40.1,75.2 L41.9,76.4 L42.6,75.5 L43.3,75.5 L43.3,78.5 Q42.1,78.7 41.6,78.8 Q41.1,78.9 40.5,79.0 L41.7,81.3 Q41.9,81.2 42.0,81.1 Q42.1,81.0 42.1,80.8 L43.3,80.2 L43.3,83.9 L43.6,83.9 Q44.5,83.9 44.8,83.6 Q45.1,83.4 45.1,83.3 L45.1,79.1 Q45.8,78.6 46.1,78.4 Q46.5,78.2 47.0,77.9 L46.9,77.7 L45.1,78.1 L45.1,75.5 L46.9,75.5 L47.0,75.5 L47.0,83.9 L47.3,83.9 Q48.0,83.9 48.3,83.7 Q48.7,83.5 48.7,83.3 L48.7,79.5 L50.2,79.5 L50.2,81.7 Q50.2,81.9 50.2,82.0 Q50.1,82.0 50.0,82.0 Q49.7,82.0 49.4,82.0 Q49.1,82.0 49.1,82.0 L49.1,82.2 Q49.5,82.3 49.6,82.4 Q49.7,82.5 49.8,82.7 Q50.0,82.9 50.0,83.1 Q50.0,83.3 50.0,83.8 Q51.5,83.6 51.6,83.3 Q51.7,83.0 51.7,81.8 L51.7,74.3 Q52.0,74.2 52.1,74.1 Q52.2,74.0 52.3,73.9 L50.7,72.7 L50.0,73.5 L48.8,73.5 L47.0,72.7 L47.0,75.0 Q46.5,74.2 46.2,74.0 Q46.0,73.7 46.0,73.7 L45.2,75.0 L45.1,75.0 L45.1,72.0 Q45.6,71.9 45.6,71.8 Q45.7,71.8 45.8,71.5 L43.6,71.3 L43.6,75.0 L42.6,75.0 Q43.0,73.6 43.2,72.6 Q43.5,71.7 43.9,70.0 L47.1,70.0 Q47.4,70.0 47.4,70.0 Q47.5,69.9 47.6,69.7 Q46.9,69.1 46.4,68.7 Q45.8,68.3 45.8,68.3 L44.9,69.5 L44.0,69.5 L44.6,67.1 Q45.0,67.2 45.1,67.1 Q45.2,67.0 45.3,66.8 Z M53.1,67.1 L50.7,65.9 Q49.7,68.7 48.8,69.8 Q47.9,71.0 46.2,72.3 L46.3,72.5 Q48.5,71.6 49.5,70.9 Q50.6,70.1 52.1,67.8 Q53.1,69.7 53.9,70.6 Q54.7,71.5 56.4,72.5 Q56.5,71.7 56.7,71.4 Q56.9,71.1 57.6,70.7 L57.6,70.4 Q55.8,69.9 54.7,69.4 Q53.6,68.9 52.4,67.4 Q52.8,67.5 52.9,67.4 Q53.0,67.3 53.1,67.1 Z M48.7,79.0 L48.7,76.5 L50.2,76.5 L50.2,79.0 L48.7,79.0 Z M48.7,76.0 L48.7,74.0 L50.2,74.0 L50.2,76.0 L48.7,76.0 Z"/><path d="M70.8,66.2 L70.8,73.5 L67.7,73.5 L67.7,68.6 Q68.2,68.5 68.2,68.4 Q68.3,68.3 68.3,68.1 L65.7,67.9 L65.7,75.2 L66.1,75.2 Q66.8,75.2 67.3,75.0 Q67.7,74.8 67.7,74.7 L67.7,74.0 L70.8,74.0 L70.8,81.5 L66.9,81.5 L66.9,76.6 Q67.3,76.5 67.4,76.4 Q67.4,76.4 67.5,76.1 L64.8,75.9 L64.8,83.9 L65.2,83.9 Q66.0,83.9 66.4,83.7 Q66.9,83.5 66.9,83.3 L66.9,82.0 L77.1,82.0 L77.1,83.7 L77.5,83.7 Q78.2,83.7 78.7,83.5 Q79.1,83.3 79.1,83.1 L79.1,76.6 Q79.6,76.5 79.6,76.4 Q79.7,76.4 79.7,76.1 L77.1,75.9 L77.1,81.5 L73.0,81.5 L73.0,74.0 L76.2,74.0 L76.2,75.1 L76.6,75.1 Q77.3,75.1 77.8,74.9 Q78.3,74.7 78.3,74.6 L78.3,68.6 Q78.7,68.5 78.8,68.4 Q78.8,68.3 78.9,68.1 L76.2,67.9 L76.2,73.5 L73.0,73.5 L73.0,67.0 Q73.4,66.9 73.5,66.8 Q73.6,66.8 73.6,66.5 L70.8,66.2 Z"/><path d="M99.6,71.8 L98.4,73.5 L91.4,73.5 L91.6,74.0 L101.2,74.0 Q101.5,74.0 101.6,74.0 Q101.7,73.9 101.7,73.7 Q100.9,73.0 100.3,72.4 Q99.6,71.8 99.6,71.8 Z M101.4,74.8 L100.2,76.5 L90.4,76.5 L90.5,77.0 L94.5,77.0 Q93.8,78.3 92.9,79.4 Q92.1,80.4 90.9,81.1 Q90.7,81.2 90.5,81.2 Q90.3,81.2 90.3,81.2 L91.0,83.7 Q91.2,83.7 91.3,83.6 Q91.4,83.5 91.5,83.3 Q95.1,82.7 96.6,82.3 Q98.1,82.0 100.2,81.5 Q100.6,82.2 100.8,82.5 Q101.0,82.8 101.2,83.4 Q103.4,84.7 104.0,82.5 Q104.6,80.2 98.2,78.4 L98.0,78.5 Q98.6,79.2 99.0,79.7 Q99.3,80.1 99.9,81.0 Q97.0,81.1 95.6,81.2 Q94.2,81.2 92.3,81.2 Q93.9,80.5 94.7,79.9 Q95.6,79.3 96.6,78.4 Q96.9,78.4 97.0,78.4 Q97.2,78.3 97.2,78.1 L95.3,77.0 L103.0,77.0 Q103.3,77.0 103.4,77.0 Q103.5,76.9 103.5,76.7 Q102.7,76.0 102.0,75.4 Q101.4,74.8 101.4,74.8 Z M90.5,70.5 L90.5,68.0 L99.9,68.0 L99.9,70.5 L90.5,70.5 Z M88.4,67.3 L88.4,72.7 Q88.4,76.4 88.3,78.5 Q88.3,80.6 86.4,83.8 L86.5,84.0 Q90.3,81.0 90.4,78.6 Q90.5,76.2 90.5,72.6 L90.5,71.0 L99.9,71.0 L99.9,71.8 L100.2,71.8 Q100.9,71.8 101.5,71.6 Q102.0,71.5 102.0,71.3 L102.0,68.4 Q102.4,68.3 102.5,68.2 Q102.7,68.1 102.8,68.0 L100.7,66.2 L99.7,67.5 L90.9,67.5 L88.4,66.5 L88.4,67.3 Z"/><path d="M122.0,76.9 Q122.8,76.9 123.2,76.6 Q123.5,76.3 123.5,75.5 Q123.5,74.7 123.2,74.3 Q122.8,74.0 122.0,74.0 Q121.2,74.0 120.9,74.3 Q120.5,74.7 120.5,75.5 Q120.5,76.3 120.9,76.6 Q121.2,76.9 122.0,76.9 Z"/><path d="M142.1,66.2 L142.0,66.3 Q142.7,67.1 143.1,67.7 Q143.5,68.3 143.8,69.4 Q145.7,70.7 146.5,68.8 Q147.2,67.0 142.1,66.2 Z M144.9,71.9 Q145.3,71.9 145.4,71.8 Q145.5,71.7 145.6,71.5 L143.9,70.1 L142.9,71.0 L140.5,71.0 L140.7,71.5 L142.9,71.5 L142.9,80.1 Q142.9,80.5 142.8,80.6 Q142.8,80.6 142.0,81.1 L143.5,83.4 Q143.7,83.2 143.8,83.1 Q143.9,82.9 144.0,82.6 Q145.6,81.0 146.2,80.3 Q146.8,79.5 147.4,78.8 L147.3,78.6 L144.9,79.9 L144.9,71.9 Z M150.5,72.5 L148.6,72.3 Q150.0,70.8 150.5,70.1 Q151.1,69.3 151.9,67.9 Q152.7,70.4 153.4,71.7 Q154.1,73.0 156.0,75.0 Q156.1,73.9 156.4,73.4 Q156.7,73.0 157.5,72.5 L157.6,72.3 Q155.5,71.2 154.4,70.4 Q153.2,69.6 152.1,67.5 Q152.6,67.4 152.7,67.4 Q152.8,67.3 152.9,67.1 L150.1,66.0 Q149.4,68.5 148.4,70.5 Q147.5,72.5 145.2,75.3 L145.4,75.5 Q146.3,74.8 146.7,74.4 Q147.1,74.0 147.8,73.1 L147.8,81.1 Q147.8,82.7 148.1,82.8 Q148.4,83.0 150.4,83.0 L152.6,83.0 Q156.1,83.0 156.6,82.8 Q157.0,82.6 157.0,81.8 Q157.0,81.3 156.9,81.2 Q156.8,81.1 156.2,80.9 L156.2,78.4 L156.0,78.4 Q155.6,79.6 155.5,80.0 Q155.3,80.5 155.1,80.8 Q154.9,81.0 154.9,81.0 Q154.8,81.0 154.5,81.1 Q154.2,81.1 153.9,81.1 Q153.6,81.1 152.8,81.1 L150.7,81.1 Q150.0,81.1 149.9,81.0 Q149.9,81.0 149.9,80.6 L149.9,77.9 Q151.3,77.5 152.2,77.2 Q153.1,76.8 154.6,75.9 Q155.0,76.1 155.2,76.1 Q155.3,76.0 155.4,75.8 L153.2,73.2 Q152.2,75.0 151.6,75.8 Q150.9,76.5 149.9,77.4 L149.9,73.0 Q150.3,72.9 150.4,72.9 Q150.4,72.8 150.5,72.5 Z"/><path d="M164.7,66.3 L164.5,66.4 Q165.2,67.4 165.6,68.0 Q166.0,68.7 166.3,69.7 Q168.1,70.9 168.9,69.1 Q169.7,67.4 164.7,66.3 Z M167.6,71.9 Q168.1,71.8 168.2,71.7 Q168.3,71.6 168.4,71.5 L166.7,70.2 L165.7,71.0 L163.4,71.0 L163.6,71.5 L165.7,71.5 L165.7,79.6 Q165.7,80.0 165.6,80.1 Q165.6,80.2 164.8,80.6 L166.2,83.0 Q166.4,82.8 166.6,82.6 Q166.7,82.4 166.8,82.0 Q168.2,80.3 168.8,79.5 Q169.3,78.8 169.9,78.0 L169.8,77.8 L167.6,79.1 L167.6,71.9 Z M178.5,80.3 L177.2,82.0 L175.9,82.0 L175.9,75.0 L179.5,75.0 Q179.7,75.0 179.8,75.0 Q179.9,74.9 180.0,74.7 Q179.3,74.0 178.7,73.5 Q178.1,73.0 178.1,73.0 L177.0,74.5 L175.9,74.5 L175.9,68.5 L179.7,68.5 Q180.0,68.5 180.1,68.5 Q180.2,68.4 180.2,68.2 Q179.5,67.5 178.9,66.9 Q178.3,66.4 178.3,66.4 L177.2,68.0 L169.1,68.0 L169.3,68.5 L173.7,68.5 L173.7,82.0 L172.1,82.0 L172.1,73.0 Q172.6,72.9 172.7,72.8 Q172.8,72.8 172.8,72.5 L170.1,72.2 L170.1,82.0 L167.9,82.0 L168.0,82.5 L180.1,82.5 Q180.4,82.5 180.5,82.5 Q180.6,82.4 180.6,82.2 Q179.8,81.5 179.1,80.9 Q178.5,80.3 178.5,80.3 Z"/><path d="M191.1,66.0 Q190.9,68.0 190.5,70.6 Q190.0,73.2 189.3,75.0 Q190.3,75.3 190.8,75.3 Q191.2,75.2 191.7,74.9 L192.0,74.0 L197.4,74.0 Q197.3,74.8 197.2,75.4 Q197.2,75.9 197.1,77.0 L186.7,77.0 L186.8,77.5 L197.0,77.5 Q196.8,79.6 196.6,80.4 Q196.5,81.1 196.1,81.5 Q195.8,81.7 195.8,81.7 Q195.7,81.7 195.3,81.7 Q194.8,81.7 193.9,81.6 Q192.9,81.6 191.7,81.5 L191.7,81.7 Q192.8,81.9 193.3,82.1 Q193.8,82.2 194.2,82.6 Q194.6,82.9 194.7,83.1 Q194.8,83.4 194.7,84.0 Q196.2,84.0 196.6,83.9 Q197.0,83.8 197.6,83.2 Q198.5,82.5 198.7,81.5 Q199.0,80.6 199.3,77.5 L203.0,77.5 Q203.3,77.5 203.4,77.5 Q203.5,77.4 203.5,77.2 Q202.7,76.4 202.1,75.8 Q201.4,75.1 201.4,75.1 L200.2,77.0 L199.4,77.0 Q199.4,76.0 199.5,75.5 Q199.5,75.0 199.6,74.3 Q200.0,74.2 200.1,74.2 Q200.2,74.2 200.4,74.0 L198.4,72.1 L197.2,73.5 L192.1,73.5 L192.7,70.0 L201.0,70.0 Q201.3,70.0 201.4,70.0 Q201.4,69.9 201.5,69.7 Q200.7,69.0 200.0,68.5 Q199.3,68.0 199.3,68.0 L198.1,69.5 L192.8,69.5 L193.2,66.9 Q193.7,66.8 193.8,66.7 Q193.9,66.6 194.0,66.4 L191.1,66.0 Z"/><path d="M209.7,70.5 L209.9,71.0 L213.7,71.0 Q214.3,74.3 214.9,75.6 Q215.4,76.9 216.9,78.9 Q215.1,80.8 213.9,81.7 Q212.7,82.5 209.5,83.7 L209.6,83.9 Q213.1,83.1 214.4,82.4 Q215.8,81.8 217.9,80.0 Q219.6,81.8 220.6,82.4 Q221.7,83.1 224.1,84.0 Q224.5,82.9 224.9,82.5 Q225.3,82.2 226.3,82.0 L226.4,81.8 Q223.8,81.2 222.6,80.7 Q221.3,80.2 219.3,78.7 Q221.3,76.6 222.0,75.3 Q222.6,74.0 223.4,71.0 L225.8,71.0 Q226.1,71.0 226.1,71.0 Q226.2,70.9 226.3,70.7 Q225.5,69.9 224.8,69.3 Q224.0,68.6 224.0,68.6 L222.8,70.5 L219.1,70.5 L219.1,67.0 Q219.6,67.0 219.6,66.9 Q219.7,66.8 219.7,66.5 L216.9,66.3 L216.9,70.5 L209.7,70.5 Z M214.0,71.0 L220.7,71.0 Q220.3,73.4 219.8,74.5 Q219.4,75.6 217.9,77.6 Q216.2,76.0 215.5,74.9 Q214.8,73.8 214.0,71.0 Z"/><path d="M244.1,66.9 L244.0,67.0 Q245.1,67.9 245.8,68.6 Q246.5,69.4 247.1,70.7 Q249.4,71.7 249.9,69.3 Q250.3,67.0 244.1,66.9 Z M241.8,66.5 L238.9,66.2 L238.9,70.5 L234.2,70.5 L234.4,71.0 L238.9,71.0 L238.9,75.0 L232.9,75.0 L233.1,75.5 L238.9,75.5 L238.9,83.8 L239.4,83.8 Q240.2,83.8 240.7,83.4 Q241.2,83.0 241.2,82.7 L241.2,75.5 L246.4,75.5 Q246.2,78.0 246.1,78.8 Q246.0,79.5 245.7,79.9 Q245.6,80.0 245.5,80.0 Q245.4,80.0 245.2,80.0 Q244.8,80.0 244.2,80.0 Q243.5,79.9 242.8,79.9 L242.8,80.1 Q243.5,80.2 243.9,80.4 Q244.2,80.5 244.5,80.8 Q244.8,81.1 244.9,81.4 Q244.9,81.7 244.9,82.3 Q246.0,82.3 246.4,82.2 Q246.7,82.1 247.2,81.7 Q248.1,81.0 248.3,80.2 Q248.4,79.3 248.6,75.9 Q248.9,75.8 249.0,75.8 Q249.1,75.7 249.3,75.6 L247.3,74.0 L246.2,75.0 L245.8,75.0 L246.0,71.3 Q246.4,71.2 246.5,71.2 Q246.5,71.2 246.7,71.0 L244.7,69.4 L243.8,70.5 L241.2,70.5 L241.2,67.0 Q241.6,66.9 241.7,66.9 Q241.7,66.8 241.8,66.5 Z M241.2,75.0 L241.2,71.0 L243.9,71.0 L243.6,75.0 L241.2,75.0 Z"/></g>
</svg>
