<svg xmlns="http://www.w3.org/2000/svg" viewBox="0 0 1200 96" width="1200" height="96" role="img" aria-label="INPUT  ·  RETRIEVAL &amp; FACTS">
  <defs>
    <linearGradient id="sh" x1="0" y1="0" x2="1" y2="0"><stop offset="0" stop-color="#15171c"/><stop offset="1" stop-color="#2b313c"/></linearGradient>
    <linearGradient id="shb" x1="0" y1="0" x2="1" y2="0"><stop offset="0" stop-color="#b08d57"/><stop offset="1" stop-color="#d8b988"/></linearGradient>
  </defs>
  <rect width="1200" height="96" rx="10" fill="url(#sh)"/>
  <rect x="0" y="0" width="6" height="96" rx="3" fill="#c0392b"/>
  <g fill="#f4ede0"><path d="M42.6,46.0 L47.9,46.0 L47.9,24.0 L42.6,24.0 L42.6,46.0 Z"/><path d="M56.6,46.0 L61.7,46.0 L61.7,38.7 Q61.7,36.1 61.4,34.6 Q61.2,33.0 61.0,30.6 L61.1,30.6 L63.3,35.4 L68.8,46.0 L74.3,46.0 L74.3,24.0 L69.2,24.0 L69.2,31.3 Q69.2,33.9 69.4,35.5 Q69.7,37.1 69.9,39.4 L69.8,39.4 L67.6,34.5 L62.0,24.0 L56.6,24.0 L56.6,46.0 Z"/><path d="M82.6,46.0 L87.9,46.0 L87.9,39.0 L90.5,39.0 Q95.3,39.0 97.3,37.8 Q99.4,36.7 99.4,31.3 Q99.4,25.8 97.4,24.9 Q95.3,24.0 90.4,24.0 L82.6,24.0 L82.6,46.0 Z M87.9,34.8 L87.9,28.3 L90.1,28.3 Q92.7,28.3 93.4,28.7 Q94.2,29.1 94.2,31.3 Q94.2,33.5 93.5,34.2 Q92.9,34.8 90.3,34.8 L87.9,34.8 Z"/><path d="M115.5,46.0 Q121.5,46.0 123.0,44.3 Q124.5,42.6 124.5,35.4 L124.5,24.0 L119.3,24.0 L119.3,35.9 Q119.3,40.0 118.6,40.7 Q117.9,41.4 115.5,41.4 Q113.0,41.4 112.4,40.7 Q111.8,40.0 111.8,35.9 L111.8,24.0 L106.5,24.0 L106.5,35.4 Q106.5,42.6 108.0,44.3 Q109.5,46.0 115.5,46.0 Z"/><path d="M136.9,46.0 L142.3,46.0 L142.3,28.5 L148.3,28.5 L148.3,24.0 L130.9,24.0 L130.9,28.5 L136.9,28.5 L136.9,46.0 Z"/><path d="M181.1,38.0 Q182.9,38.0 183.6,37.3 Q184.3,36.5 184.3,34.7 Q184.3,32.8 183.6,32.1 Q182.9,31.4 181.1,31.4 Q179.3,31.4 178.6,32.1 Q178.0,32.8 178.0,34.7 Q178.0,36.5 178.6,37.3 Q179.3,38.0 181.1,38.0 Z"/><path d="M220.9,34.0 L220.9,28.3 L223.3,28.3 Q225.9,28.3 226.6,28.6 Q227.3,28.9 227.3,30.9 Q227.3,33.0 226.6,33.5 Q225.9,34.0 223.3,34.0 L220.9,34.0 Z M227.6,46.0 L233.6,46.0 L228.7,37.2 Q231.0,36.2 231.7,35.1 Q232.5,34.1 232.5,30.9 Q232.5,25.7 230.5,24.8 Q228.5,24.0 223.8,24.0 L215.6,24.0 L215.6,46.0 L220.9,46.0 L220.9,38.2 L223.5,38.2 L227.6,46.0 Z"/><path d="M239.6,46.0 L254.1,46.0 L254.1,41.5 L244.9,41.5 L244.9,37.0 L252.4,37.0 L252.4,32.5 L244.9,32.5 L244.9,28.5 L253.7,28.5 L253.7,24.0 L239.6,24.0 L239.6,46.0 Z"/><path d="M265.9,46.0 L271.3,46.0 L271.3,28.5 L277.3,28.5 L277.3,24.0 L259.9,24.0 L259.9,28.5 L265.9,28.5 L265.9,46.0 Z"/><path d="M288.9,34.0 L288.9,28.3 L291.3,28.3 Q293.9,28.3 294.6,28.6 Q295.3,28.9 295.3,30.9 Q295.3,33.0 294.6,33.5 Q293.9,34.0 291.3,34.0 L288.9,34.0 Z M295.6,46.0 L301.6,46.0 L296.7,37.2 Q299.0,36.2 299.7,35.1 Q300.5,34.1 300.5,30.9 Q300.5,25.7 298.5,24.8 Q296.5,24.0 291.8,24.0 L283.6,24.0 L283.6,46.0 L288.9,46.0 L288.9,38.2 L291.5,38.2 L295.6,46.0 Z"/><path d="M307.6,46.0 L312.9,46.0 L312.9,24.0 L307.6,24.0 L307.6,46.0 Z"/><path d="M321.6,46.0 L336.1,46.0 L336.1,41.5 L326.9,41.5 L326.9,37.0 L334.4,37.0 L334.4,32.5 L326.9,32.5 L326.9,28.5 L335.7,28.5 L335.7,24.0 L321.6,24.0 L321.6,46.0 Z"/><path d="M347.4,46.0 L353.9,46.0 L360.5,24.0 L355.1,24.0 L352.6,34.0 Q351.9,36.4 351.7,37.5 Q351.5,38.6 350.8,41.0 L350.7,41.0 Q350.0,38.6 349.8,37.5 Q349.6,36.4 348.9,34.0 L346.4,24.0 L340.7,24.0 L347.4,46.0 Z"/><path d="M362.8,46.0 L368.2,46.0 L369.5,41.0 L376.1,41.0 L377.4,46.0 L383.0,46.0 L376.1,24.0 L369.7,24.0 L362.8,46.0 Z M370.5,36.9 L371.0,35.0 Q371.6,32.9 371.9,31.6 Q372.2,30.3 372.7,28.0 L372.8,28.0 Q373.4,30.2 373.7,31.6 Q374.0,32.9 374.6,35.0 L375.1,36.9 L370.5,36.9 Z"/><path d="M388.6,46.0 L402.6,46.0 L402.6,41.5 L393.9,41.5 L393.9,24.0 L388.6,24.0 L388.6,46.0 Z"/><path d="M425.4,46.0 Q428.2,46.0 429.3,45.6 Q430.5,45.2 432.4,43.8 Q434.4,44.9 435.4,45.3 Q436.4,45.7 438.3,46.0 L439.5,41.7 Q438.4,41.6 437.8,41.3 Q437.1,41.1 435.7,40.5 Q437.4,38.3 438.0,37.2 Q438.6,36.0 439.4,33.5 L434.5,33.5 Q434.0,35.4 433.6,36.2 Q433.1,37.0 432.0,38.4 Q430.5,37.3 429.7,36.7 Q429.0,36.1 427.7,34.8 Q430.1,33.4 431.2,32.6 Q432.4,31.7 432.4,29.0 Q432.4,26.0 431.2,25.0 Q430.1,24.0 426.7,24.0 Q422.9,24.0 421.7,25.4 Q420.5,26.7 420.5,29.7 Q420.5,31.0 420.8,31.7 Q421.0,32.5 421.9,34.0 Q419.7,35.2 418.7,36.0 Q417.8,36.9 417.8,39.8 Q417.8,43.0 419.1,44.5 Q420.4,46.0 425.4,46.0 Z M428.6,41.2 Q427.8,41.7 427.3,41.8 Q426.9,41.9 426.0,41.9 Q424.1,41.9 423.5,41.4 Q422.9,40.9 422.9,39.5 Q422.9,38.6 423.1,38.2 Q423.4,37.9 424.2,37.2 Q425.5,38.6 426.2,39.3 Q427.0,40.0 428.6,41.2 Z M425.6,32.0 Q425.1,31.2 425.0,30.8 Q424.9,30.4 424.9,29.7 Q424.9,28.3 425.3,27.9 Q425.8,27.5 426.8,27.5 Q427.8,27.5 428.0,27.8 Q428.3,28.1 428.3,29.0 Q428.3,30.3 427.7,30.8 Q427.1,31.2 425.6,32.0 Z"/><path d="M455.6,46.0 L460.9,46.0 L460.9,37.5 L468.6,37.5 L468.6,33.0 L460.9,33.0 L460.9,28.5 L469.8,28.5 L469.8,24.0 L455.6,24.0 L455.6,46.0 Z"/><path d="M473.8,46.0 L479.2,46.0 L480.5,41.0 L487.1,41.0 L488.4,46.0 L494.0,46.0 L487.1,24.0 L480.7,24.0 L473.8,46.0 Z M481.5,36.9 L482.0,35.0 Q482.6,32.9 482.9,31.6 Q483.2,30.3 483.7,28.0 L483.8,28.0 Q484.4,30.2 484.7,31.6 Q485.0,32.9 485.6,35.0 L486.1,36.9 L481.5,36.9 Z"/><path d="M509.0,46.0 Q511.9,46.0 513.2,45.4 Q514.4,44.9 516.3,42.7 L513.5,39.5 Q512.4,40.6 511.7,41.0 Q511.0,41.4 509.2,41.4 Q506.1,41.4 505.1,40.2 Q504.0,39.0 504.0,35.0 Q504.0,31.0 505.2,29.8 Q506.4,28.6 509.3,28.6 Q510.9,28.6 511.5,28.9 Q512.0,29.2 513.2,30.2 L516.0,26.9 Q514.5,25.4 513.3,24.7 Q512.1,24.0 509.2,24.0 Q503.5,24.0 501.0,26.1 Q498.5,28.3 498.5,35.1 Q498.5,42.1 501.0,44.1 Q503.4,46.0 509.0,46.0 Z"/><path d="M526.9,46.0 L532.3,46.0 L532.3,28.5 L538.3,28.5 L538.3,24.0 L520.9,24.0 L520.9,28.5 L526.9,28.5 L526.9,46.0 Z"/><path d="M551.5,46.0 Q556.9,46.0 558.5,44.4 Q560.0,42.7 560.0,39.2 Q560.0,36.3 559.2,35.5 Q558.4,34.6 555.6,33.6 L552.8,32.6 Q550.8,31.9 550.2,31.6 Q549.5,31.4 549.5,30.3 Q549.5,29.2 550.0,28.9 Q550.5,28.6 552.1,28.6 Q553.8,28.6 554.5,28.9 Q555.2,29.1 556.7,30.2 L559.4,27.0 Q557.4,25.0 556.0,24.5 Q554.7,24.0 552.1,24.0 Q547.4,24.0 545.7,25.5 Q544.0,27.0 544.0,30.6 Q544.0,33.5 545.1,34.4 Q546.2,35.3 548.5,36.2 L551.4,37.3 Q553.3,38.0 553.9,38.2 Q554.5,38.4 554.5,39.6 Q554.5,40.7 554.1,41.0 Q553.6,41.4 551.6,41.4 Q549.9,41.4 548.8,41.0 Q547.8,40.5 546.2,39.3 L543.2,42.8 Q545.5,44.9 547.0,45.5 Q548.6,46.0 551.5,46.0 Z"/></g>
  <line x1="40" y1="58" x2="1160" y2="58" stroke="url(#shb)" stroke-opacity="0.25" stroke-width="1"/>
  <g fill="#d8b988"><path d="M57.2,73.1 L55.0,72.9 L55.0,81.7 Q55.0,81.9 55.0,82.0 Q54.9,82.0 54.7,82.0 Q54.4,82.0 53.6,82.0 Q52.9,81.9 52.9,81.9 L52.9,82.2 Q53.6,82.3 53.8,82.4 Q54.0,82.5 54.2,82.8 Q54.4,83.0 54.4,83.2 Q54.5,83.5 54.5,84.0 Q56.4,83.8 56.5,83.4 Q56.6,83.1 56.6,81.8 L56.6,73.6 Q57.0,73.5 57.1,73.4 Q57.2,73.4 57.2,73.1 Z M52.7,70.3 L51.8,71.5 L48.9,71.5 L49.1,72.0 L53.9,72.0 Q54.1,72.0 54.2,72.0 Q54.3,71.9 54.4,71.7 Q53.7,71.1 53.2,70.7 Q52.7,70.3 52.7,70.3 Z M54.4,73.6 L52.5,73.4 L52.5,80.8 L52.8,80.8 Q53.3,80.8 53.6,80.7 Q53.9,80.5 53.9,80.4 L53.9,74.0 Q54.2,74.0 54.3,73.9 Q54.3,73.8 54.4,73.6 Z M45.3,66.8 L42.9,66.1 Q42.8,66.9 42.7,67.5 Q42.5,68.2 42.2,69.5 L40.6,69.5 L40.7,70.0 L42.1,70.0 Q41.7,71.7 41.4,72.5 Q41.2,73.3 40.9,74.6 Q40.6,74.8 40.5,74.9 Q40.3,75.0 40.1,75.2 L41.9,76.4 L42.6,75.5 L43.3,75.5 L43.3,78.5 Q42.1,78.7 41.6,78.8 Q41.1,78.9 40.5,79.0 L41.7,81.3 Q41.9,81.2 42.0,81.1 Q42.1,81.0 42.1,80.8 L43.3,80.2 L43.3,83.9 L43.6,83.9 Q44.5,83.9 44.8,83.6 Q45.1,83.4 45.1,83.3 L45.1,79.1 Q45.8,78.6 46.1,78.4 Q46.5,78.2 47.0,77.9 L46.9,77.7 L45.1,78.1 L45.1,75.5 L46.9,75.5 L47.0,75.5 L47.0,83.9 L47.3,83.9 Q48.0,83.9 48.3,83.7 Q48.7,83.5 48.7,83.3 L48.7,79.5 L50.2,79.5 L50.2,81.7 Q50.2,81.9 50.2,82.0 Q50.1,82.0 50.0,82.0 Q49.7,82.0 49.4,82.0 Q49.1,82.0 49.1,82.0 L49.1,82.2 Q49.5,82.3 49.6,82.4 Q49.7,82.5 49.8,82.7 Q50.0,82.9 50.0,83.1 Q50.0,83.3 50.0,83.8 Q51.5,83.6 51.6,83.3 Q51.7,83.0 51.7,81.8 L51.7,74.3 Q52.0,74.2 52.1,74.1 Q52.2,74.0 52.3,73.9 L50.7,72.7 L50.0,73.5 L48.8,73.5 L47.0,72.7 L47.0,75.0 Q46.5,74.2 46.2,74.0 Q46.0,73.7 46.0,73.7 L45.2,75.0 L45.1,75.0 L45.1,72.0 Q45.6,71.9 45.6,71.8 Q45.7,71.8 45.8,71.5 L43.6,71.3 L43.6,75.0 L42.6,75.0 Q43.0,73.6 43.2,72.6 Q43.5,71.7 43.9,70.0 L47.1,70.0 Q47.4,70.0 47.4,70.0 Q47.5,69.9 47.6,69.7 Q46.9,69.1 46.4,68.7 Q45.8,68.3 45.8,68.3 L44.9,69.5 L44.0,69.5 L44.6,67.1 Q45.0,67.2 45.1,67.1 Q45.2,67.0 45.3,66.8 Z M53.1,67.1 L50.7,65.9 Q49.7,68.7 48.8,69.8 Q47.9,71.0 46.2,72.3 L46.3,72.5 Q48.5,71.6 49.5,70.9 Q50.6,70.1 52.1,67.8 Q53.1,69.7 53.9,70.6 Q54.7,71.5 56.4,72.5 Q56.5,71.7 56.7,71.4 Q56.9,71.1 57.6,70.7 L57.6,70.4 Q55.8,69.9 54.7,69.4 Q53.6,68.9 52.4,67.4 Q52.8,67.5 52.9,67.4 Q53.0,67.3 53.1,67.1 Z M48.7,79.0 L48.7,76.5 L50.2,76.5 L50.2,79.0 L48.7,79.0 Z M48.7,76.0 L48.7,74.0 L50.2,74.0 L50.2,76.0 L48.7,76.0 Z"/><path d="M70.8,68.0 L67.0,68.0 L67.1,68.5 L71.3,68.5 L71.3,69.7 Q70.9,75.9 69.2,78.6 Q67.5,81.4 63.5,83.7 L63.7,83.9 Q67.8,82.2 69.4,80.6 Q71.0,78.9 72.3,75.1 Q73.2,79.0 74.6,80.7 Q76.0,82.5 78.3,83.9 Q78.7,82.7 79.1,82.3 Q79.4,82.0 80.5,81.8 L80.5,81.7 Q75.3,79.4 73.8,77.4 Q72.4,75.5 71.9,69.8 L71.9,69.1 Q73.0,69.0 73.4,68.9 Q73.8,68.8 74.2,68.3 L71.8,66.4 L70.8,68.0 Z"/><path d="M99.6,71.8 L98.4,73.5 L91.4,73.5 L91.6,74.0 L101.2,74.0 Q101.5,74.0 101.6,74.0 Q101.7,73.9 101.7,73.7 Q100.9,73.0 100.3,72.4 Q99.6,71.8 99.6,71.8 Z M101.4,74.8 L100.2,76.5 L90.4,76.5 L90.5,77.0 L94.5,77.0 Q93.8,78.3 92.9,79.4 Q92.1,80.4 90.9,81.1 Q90.7,81.2 90.5,81.2 Q90.3,81.2 90.3,81.2 L91.0,83.7 Q91.2,83.7 91.3,83.6 Q91.4,83.5 91.5,83.3 Q95.1,82.7 96.6,82.3 Q98.1,82.0 100.2,81.5 Q100.6,82.2 100.8,82.5 Q101.0,82.8 101.2,83.4 Q103.4,84.7 104.0,82.5 Q104.6,80.2 98.2,78.4 L98.0,78.5 Q98.6,79.2 99.0,79.7 Q99.3,80.1 99.9,81.0 Q97.0,81.1 95.6,81.2 Q94.2,81.2 92.3,81.2 Q93.9,80.5 94.7,79.9 Q95.6,79.3 96.6,78.4 Q96.9,78.4 97.0,78.4 Q97.2,78.3 97.2,78.1 L95.3,77.0 L103.0,77.0 Q103.3,77.0 103.4,77.0 Q103.5,76.9 103.5,76.7 Q102.7,76.0 102.0,75.4 Q101.4,74.8 101.4,74.8 Z M90.5,70.5 L90.5,68.0 L99.9,68.0 L99.9,70.5 L90.5,70.5 Z M88.4,67.3 L88.4,72.7 Q88.4,76.4 88.3,78.5 Q88.3,80.6 86.4,83.8 L86.5,84.0 Q90.3,81.0 90.4,78.6 Q90.5,76.2 90.5,72.6 L90.5,71.0 L99.9,71.0 L99.9,71.8 L100.2,71.8 Q100.9,71.8 101.5,71.6 Q102.0,71.5 102.0,71.3 L102.0,68.4 Q102.4,68.3 102.5,68.2 Q102.7,68.1 102.8,68.0 L100.7,66.2 L99.7,67.5 L90.9,67.5 L88.4,66.5 L88.4,67.3 Z"/><path d="M122.0,76.9 Q122.8,76.9 123.2,76.6 Q123.5,76.3 123.5,75.5 Q123.5,74.7 123.2,74.3 Q122.8,74.0 122.0,74.0 Q121.2,74.0 120.9,74.3 Q120.5,74.7 120.5,75.5 Q120.5,76.3 120.9,76.6 Q121.2,76.9 122.0,76.9 Z"/><path d="M150.0,74.6 L149.8,74.7 Q150.3,76.0 150.5,77.1 Q150.7,78.2 150.7,80.0 Q152.3,81.8 153.2,79.8 Q154.0,77.8 150.0,74.6 Z M147.5,75.1 L147.3,75.2 Q147.8,76.8 148.0,77.9 Q148.2,79.1 148.2,81.0 Q149.8,82.6 150.7,80.6 Q151.6,78.7 147.5,75.1 Z M153.3,72.2 L152.4,73.5 L148.6,73.5 L148.7,74.0 L154.5,74.0 Q154.7,74.0 154.8,74.0 Q154.9,73.9 155.0,73.7 Q154.3,73.1 153.8,72.6 Q153.3,72.2 153.3,72.2 Z M156.8,75.2 L154.1,74.4 Q153.6,76.8 153.3,78.7 Q152.9,80.5 152.5,82.5 L146.2,82.5 L146.4,83.0 L157.1,83.0 Q157.3,83.0 157.4,83.0 Q157.5,82.9 157.5,82.7 Q156.8,82.1 156.2,81.6 Q155.5,81.2 155.5,81.2 L154.4,82.5 L152.9,82.5 Q154.0,80.8 154.6,79.4 Q155.1,78.0 156.0,75.5 Q156.4,75.5 156.6,75.5 Q156.7,75.4 156.8,75.2 Z M152.4,67.3 Q152.9,67.3 153.0,67.2 Q153.1,67.1 153.1,66.9 L150.3,66.4 Q149.8,68.5 149.1,69.9 Q148.4,71.4 146.7,73.6 L146.8,73.8 Q149.1,72.2 150.1,71.0 Q151.0,69.8 152.1,67.8 Q153.0,70.0 153.7,71.2 Q154.4,72.3 156.2,73.7 Q156.4,72.9 156.6,72.6 Q156.9,72.2 157.7,71.8 L157.7,71.5 Q155.7,70.7 154.5,70.0 Q153.4,69.3 152.4,67.3 L152.4,67.3 Z M146.5,69.2 L145.6,70.5 L145.1,70.5 L145.1,67.0 Q145.6,66.9 145.6,66.8 Q145.7,66.8 145.7,66.5 L143.1,66.2 L143.1,70.5 L140.6,70.5 L140.8,71.0 L142.9,71.0 Q142.5,74.0 142.1,75.4 Q141.7,76.8 140.4,79.3 L140.6,79.5 Q141.6,78.4 142.0,77.8 Q142.4,77.2 143.1,75.8 L143.1,83.9 L143.5,83.9 Q144.3,83.9 144.7,83.7 Q145.1,83.5 145.1,83.2 L145.1,73.6 Q145.4,74.3 145.6,74.6 Q145.7,75.0 145.7,75.7 Q147.1,77.1 147.9,75.8 Q148.8,74.4 145.1,72.9 L145.1,71.0 L147.6,71.0 Q147.9,71.0 148.0,71.0 Q148.1,70.9 148.1,70.7 Q147.5,70.1 147.0,69.7 Q146.5,69.2 146.5,69.2 Z"/><path d="M174.1,79.8 L174.0,80.0 Q175.3,80.8 176.2,81.5 Q177.1,82.3 178.0,83.5 Q180.3,84.2 180.5,82.1 Q180.7,80.0 174.1,79.8 Z M167.9,79.5 Q167.1,80.9 166.2,81.7 Q165.3,82.5 163.5,83.5 L163.7,83.7 Q165.9,83.2 167.1,82.7 Q168.2,82.1 169.5,81.1 Q169.9,81.1 170.0,81.1 Q170.1,81.0 170.2,80.9 L167.9,79.5 Z M165.9,69.9 Q165.7,71.3 165.3,71.7 Q164.8,72.0 164.0,72.3 Q162.4,74.3 164.5,74.9 Q166.6,75.5 166.4,71.5 L169.6,71.5 Q169.5,72.2 169.3,72.7 Q169.2,73.2 168.8,74.1 Q168.3,73.9 167.9,73.9 Q167.5,73.8 166.6,73.9 L166.4,74.0 Q167.3,74.5 167.9,75.0 Q168.5,75.5 168.9,76.4 Q170.2,77.0 170.6,76.2 Q170.9,75.4 169.7,74.5 Q170.5,74.1 170.8,73.8 Q171.2,73.5 171.7,73.1 Q172.1,73.2 172.2,73.0 Q172.3,72.9 172.4,72.7 L169.9,71.5 L177.4,71.5 Q177.2,72.5 177.0,73.1 Q176.9,73.7 176.6,74.3 L176.8,74.5 Q177.8,74.0 178.4,73.5 Q179.0,73.0 179.7,72.1 Q180.1,72.0 180.2,72.0 Q180.3,72.0 180.4,71.8 L178.4,69.8 L177.3,71.0 L173.1,71.0 L173.1,69.0 L179.1,69.0 Q179.4,69.0 179.5,69.0 Q179.6,68.9 179.6,68.7 Q178.8,68.0 178.1,67.4 Q177.5,66.9 177.5,66.9 L176.2,68.5 L173.1,68.5 L173.1,67.0 Q173.5,67.1 173.6,67.0 Q173.7,66.9 173.7,66.6 L171.0,66.4 L171.0,68.5 L164.6,68.5 L164.7,69.0 L171.0,69.0 L171.0,71.0 L166.3,71.0 Q166.3,70.7 166.2,70.5 Q166.2,70.3 166.1,70.0 L165.9,69.9 Z M173.5,72.3 Q172.8,73.4 172.0,74.4 Q171.2,75.4 169.8,77.0 Q167.5,77.0 166.6,77.0 Q165.7,77.0 164.5,77.0 L165.5,79.2 Q165.7,79.2 165.8,79.1 Q165.9,79.0 166.0,78.8 L170.9,78.2 L170.9,83.9 L171.3,83.9 Q172.4,83.9 172.7,83.7 Q173.0,83.5 173.0,83.4 L173.0,78.0 Q174.4,77.8 175.0,77.7 Q175.7,77.6 176.7,77.4 Q177.1,77.9 177.3,78.2 Q177.5,78.5 177.7,79.1 Q179.7,80.3 180.2,78.1 Q180.6,75.9 174.8,75.4 L174.7,75.6 Q175.2,75.9 175.5,76.1 Q175.8,76.4 176.3,76.9 L170.9,77.0 Q172.6,76.1 173.5,75.6 Q174.3,75.0 175.2,74.2 Q175.5,74.2 175.7,74.2 Q175.8,74.2 175.9,74.0 L173.5,72.3 Z"/><path d="M191.1,66.0 Q190.9,68.0 190.5,70.6 Q190.0,73.2 189.3,75.0 Q190.3,75.3 190.8,75.3 Q191.2,75.2 191.7,74.9 L192.0,74.0 L197.4,74.0 Q197.3,74.8 197.2,75.4 Q197.2,75.9 197.1,77.0 L186.7,77.0 L186.8,77.5 L197.0,77.5 Q196.8,79.6 196.6,80.4 Q196.5,81.1 196.1,81.5 Q195.8,81.7 195.8,81.7 Q195.7,81.7 195.3,81.7 Q194.8,81.7 193.9,81.6 Q192.9,81.6 191.7,81.5 L191.7,81.7 Q192.8,81.9 193.3,82.1 Q193.8,82.2 194.2,82.6 Q194.6,82.9 194.7,83.1 Q194.8,83.4 194.7,84.0 Q196.2,84.0 196.6,83.9 Q197.0,83.8 197.6,83.2 Q198.5,82.5 198.7,81.5 Q199.0,80.6 199.3,77.5 L203.0,77.5 Q203.3,77.5 203.4,77.5 Q203.5,77.4 203.5,77.2 Q202.7,76.4 202.1,75.8 Q201.4,75.1 201.4,75.1 L200.2,77.0 L199.4,77.0 Q199.4,76.0 199.5,75.5 Q199.5,75.0 199.6,74.3 Q200.0,74.2 200.1,74.2 Q200.2,74.2 200.4,74.0 L198.4,72.1 L197.2,73.5 L192.1,73.5 L192.7,70.0 L201.0,70.0 Q201.3,70.0 201.4,70.0 Q201.4,69.9 201.5,69.7 Q200.7,69.0 200.0,68.5 Q199.3,68.0 199.3,68.0 L198.1,69.5 L192.8,69.5 L193.2,66.9 Q193.7,66.8 193.8,66.7 Q193.9,66.6 194.0,66.4 L191.1,66.0 Z"/><path d="M211.9,70.5 L211.9,74.3 L212.2,74.3 Q213.1,74.3 213.5,74.0 Q214.0,73.8 214.0,73.5 L214.0,73.0 L216.9,73.0 L216.9,75.0 L211.6,75.0 L211.7,75.5 L216.9,75.5 L216.9,77.5 L209.6,77.5 L209.8,78.0 L216.9,78.0 L216.9,79.5 L211.4,79.5 L211.6,80.0 L216.9,80.0 L216.9,81.5 Q216.9,81.8 216.8,81.8 Q216.7,81.9 216.4,81.9 Q216.0,81.9 214.9,81.8 Q213.8,81.7 213.8,81.7 L213.8,82.0 Q214.8,82.2 215.0,82.3 Q215.2,82.4 215.6,82.7 Q215.9,83.0 216.0,83.2 Q216.0,83.4 216.1,84.0 Q218.6,83.8 218.8,83.4 Q219.0,83.0 219.0,81.5 L219.0,80.0 L221.9,80.0 L221.9,81.3 L222.2,81.3 Q222.9,81.3 223.4,81.1 Q223.9,80.8 223.9,80.6 L223.9,78.0 L226.2,78.0 Q226.5,78.0 226.6,78.0 Q226.7,77.9 226.7,77.7 Q226.1,77.0 225.5,76.4 Q225.0,75.9 225.0,75.9 L224.0,77.5 L223.9,77.5 L223.9,75.9 Q224.3,75.8 224.4,75.7 Q224.5,75.6 224.6,75.5 L222.6,73.8 L221.7,75.0 L219.0,75.0 L219.0,73.0 L221.9,73.0 L221.9,73.8 L222.3,73.8 Q223.0,73.8 223.5,73.5 Q224.1,73.3 224.1,73.1 L224.1,71.3 Q224.4,71.2 224.5,71.2 Q224.6,71.1 224.8,71.0 L222.7,69.1 L221.8,70.5 L219.0,70.5 L219.0,68.5 L225.8,68.5 Q226.0,68.5 226.1,68.5 Q226.2,68.4 226.3,68.2 Q225.5,67.6 224.8,67.2 Q224.1,66.8 224.1,66.8 L222.9,68.0 L219.0,68.0 L219.0,67.0 Q219.5,66.6 219.5,66.5 Q219.6,66.4 219.7,66.1 L216.9,65.9 L216.9,68.0 L209.6,68.0 L209.8,68.5 L216.9,68.5 L216.9,70.5 L214.2,70.5 L211.9,69.3 L211.9,70.5 Z M219.0,78.0 L221.9,78.0 L221.9,79.5 L219.0,79.5 L219.0,78.0 Z M219.0,77.5 L219.0,75.5 L221.9,75.5 L221.9,77.5 L219.0,77.5 Z M216.9,71.0 L216.9,72.5 L214.0,72.5 L214.0,71.0 L216.9,71.0 Z M219.0,71.0 L221.9,71.0 L221.9,72.5 L219.0,72.5 L219.0,71.0 Z"/><path d="M239.4,66.0 L239.3,66.1 Q240.0,66.7 240.2,67.2 Q240.5,67.7 240.5,68.7 Q242.6,70.8 243.6,68.4 Q244.7,66.1 239.4,66.0 Z M235.1,73.9 L235.0,74.0 Q235.8,74.7 236.2,75.2 Q236.6,75.8 236.9,76.8 Q238.9,78.1 239.7,76.1 Q240.4,74.1 235.1,73.9 Z M236.5,70.9 L236.3,71.0 Q237.0,71.7 237.4,72.2 Q237.8,72.8 238.1,73.7 Q240.0,74.8 240.7,73.0 Q241.4,71.1 236.5,70.9 Z M235.0,68.3 L234.8,68.3 Q234.9,69.2 234.5,69.7 Q234.1,70.1 233.5,70.5 Q232.8,70.9 232.6,71.1 Q232.4,71.4 232.6,72.2 Q232.9,73.0 233.4,73.1 Q233.9,73.2 234.5,72.8 Q235.1,72.5 235.4,72.0 Q235.6,71.5 235.5,70.0 L246.5,70.0 Q246.4,70.9 246.3,71.4 Q246.2,71.9 246.1,72.5 L246.2,72.7 Q247.1,72.1 247.6,71.7 Q248.2,71.2 248.8,70.5 Q249.1,70.5 249.2,70.5 Q249.3,70.5 249.5,70.3 L247.5,68.2 L246.4,69.5 L235.4,69.5 Q235.3,69.1 235.3,68.9 Q235.2,68.7 235.0,68.3 Z M246.9,75.8 L245.7,77.5 L242.4,77.5 Q242.9,75.8 242.9,74.8 Q242.9,73.8 243.0,71.0 Q243.4,71.0 243.5,70.9 Q243.6,70.8 243.6,70.5 L240.7,70.8 Q240.7,73.4 240.7,74.5 Q240.7,75.6 240.1,77.5 L233.1,77.5 L233.2,78.0 L239.9,78.0 Q239.0,80.3 238.0,81.2 Q237.0,82.1 232.5,83.7 L232.6,84.0 Q237.7,82.9 239.0,82.1 Q240.3,81.3 241.6,79.3 Q244.0,80.7 244.9,81.6 Q245.9,82.5 246.6,83.6 Q248.7,84.8 249.5,82.5 Q250.4,80.2 241.8,78.9 Q242.0,78.6 242.0,78.5 Q242.1,78.3 242.2,78.0 L248.6,78.0 Q248.9,78.0 249.0,78.0 Q249.1,77.9 249.2,77.7 Q248.3,76.9 247.6,76.4 Q246.9,75.8 246.9,75.8 Z"/></g>
</svg>
