<svg xmlns="http://www.w3.org/2000/svg" viewBox="0 0 1200 96" width="1200" height="96" role="img" aria-label="PROCESS  ·  REASONING &amp; JUDGMENT">
  <defs>
    <linearGradient id="sh" x1="0" y1="0" x2="1" y2="0"><stop offset="0" stop-color="#15171c"/><stop offset="1" stop-color="#2b313c"/></linearGradient>
    <linearGradient id="shb" x1="0" y1="0" x2="1" y2="0"><stop offset="0" stop-color="#b08d57"/><stop offset="1" stop-color="#d8b988"/></linearGradient>
  </defs>
  <rect width="1200" height="96" rx="10" fill="url(#sh)"/>
  <rect x="0" y="0" width="6" height="96" rx="3" fill="#c0392b"/>
  <g fill="#f4ede0"><path d="M42.6,46.0 L47.9,46.0 L47.9,39.0 L50.5,39.0 Q55.3,39.0 57.3,37.8 Q59.4,36.7 59.4,31.3 Q59.4,25.8 57.4,24.9 Q55.3,24.0 50.4,24.0 L42.6,24.0 L42.6,46.0 Z M47.9,34.8 L47.9,28.3 L50.1,28.3 Q52.7,28.3 53.4,28.7 Q54.2,29.1 54.2,31.3 Q54.2,33.5 53.5,34.2 Q52.9,34.8 50.3,34.8 L47.9,34.8 Z"/><path d="M71.9,34.0 L71.9,28.3 L74.3,28.3 Q76.9,28.3 77.6,28.6 Q78.3,28.9 78.3,30.9 Q78.3,33.0 77.6,33.5 Q76.9,34.0 74.3,34.0 L71.9,34.0 Z M78.6,46.0 L84.6,46.0 L79.7,37.2 Q82.0,36.2 82.7,35.1 Q83.5,34.1 83.5,30.9 Q83.5,25.7 81.5,24.8 Q79.5,24.0 74.8,24.0 L66.6,24.0 L66.6,46.0 L71.9,46.0 L71.9,38.2 L74.5,38.2 L78.6,46.0 Z"/><path d="M99.8,46.0 Q105.9,46.0 107.9,43.8 Q110.0,41.6 110.0,34.9 Q110.0,28.2 107.9,26.1 Q105.9,24.0 99.8,24.0 Q93.7,24.0 91.6,26.1 Q89.5,28.1 89.5,34.9 Q89.5,41.6 91.6,43.8 Q93.7,46.0 99.8,46.0 Z M99.8,41.4 Q96.8,41.4 95.9,40.1 Q95.0,38.9 95.0,34.9 Q95.0,30.9 95.9,29.8 Q96.8,28.6 99.8,28.6 Q102.7,28.6 103.6,29.8 Q104.5,30.9 104.5,34.9 Q104.5,38.9 103.6,40.1 Q102.7,41.4 99.8,41.4 Z"/><path d="M127.0,46.0 Q129.9,46.0 131.2,45.4 Q132.4,44.9 134.3,42.7 L131.5,39.5 Q130.4,40.6 129.7,41.0 Q129.0,41.4 127.2,41.4 Q124.1,41.4 123.1,40.2 Q122.0,39.0 122.0,35.0 Q122.0,31.0 123.2,29.8 Q124.4,28.6 127.3,28.6 Q128.9,28.6 129.5,28.9 Q130.0,29.2 131.2,30.2 L134.0,26.9 Q132.5,25.4 131.3,24.7 Q130.1,24.0 127.2,24.0 Q121.5,24.0 119.0,26.1 Q116.5,28.3 116.5,35.1 Q116.5,42.1 119.0,44.1 Q121.4,46.0 127.0,46.0 Z"/><path d="M140.6,46.0 L155.1,46.0 L155.1,41.5 L145.9,41.5 L145.9,37.0 L153.4,37.0 L153.4,32.5 L145.9,32.5 L145.9,28.5 L154.7,28.5 L154.7,24.0 L140.6,24.0 L140.6,46.0 Z"/><path d="M169.5,46.0 Q174.9,46.0 176.5,44.4 Q178.0,42.7 178.0,39.2 Q178.0,36.3 177.2,35.5 Q176.4,34.6 173.6,33.6 L170.8,32.6 Q168.8,31.9 168.2,31.6 Q167.5,31.4 167.5,30.3 Q167.5,29.2 168.0,28.9 Q168.5,28.6 170.1,28.6 Q171.8,28.6 172.5,28.9 Q173.2,29.1 174.7,30.2 L177.4,27.0 Q175.4,25.0 174.0,24.5 Q172.7,24.0 170.1,24.0 Q165.4,24.0 163.7,25.5 Q162.0,27.0 162.0,30.6 Q162.0,33.5 163.1,34.4 Q164.2,35.3 166.5,36.2 L169.4,37.3 Q171.3,38.0 171.9,38.2 Q172.5,38.4 172.5,39.6 Q172.5,40.7 172.1,41.0 Q171.6,41.4 169.6,41.4 Q167.9,41.4 166.8,41.0 Q165.8,40.5 164.2,39.3 L161.2,42.8 Q163.5,44.9 165.0,45.5 Q166.6,46.0 169.5,46.0 Z"/><path d="M191.5,46.0 Q196.9,46.0 198.5,44.4 Q200.0,42.7 200.0,39.2 Q200.0,36.3 199.2,35.5 Q198.4,34.6 195.6,33.6 L192.8,32.6 Q190.8,31.9 190.2,31.6 Q189.5,31.4 189.5,30.3 Q189.5,29.2 190.0,28.9 Q190.5,28.6 192.1,28.6 Q193.8,28.6 194.5,28.9 Q195.2,29.1 196.7,30.2 L199.4,27.0 Q197.4,25.0 196.0,24.5 Q194.7,24.0 192.1,24.0 Q187.4,24.0 185.7,25.5 Q184.0,27.0 184.0,30.6 Q184.0,33.5 185.1,34.4 Q186.2,35.3 188.5,36.2 L191.4,37.3 Q193.3,38.0 193.9,38.2 Q194.5,38.4 194.5,39.6 Q194.5,40.7 194.1,41.0 Q193.6,41.4 191.6,41.4 Q189.9,41.4 188.8,41.0 Q187.8,40.5 186.2,39.3 L183.2,42.8 Q185.5,44.9 187.0,45.5 Q188.6,46.0 191.5,46.0 Z"/><path d="M233.1,38.0 Q234.9,38.0 235.6,37.3 Q236.3,36.5 236.3,34.7 Q236.3,32.8 235.6,32.1 Q234.9,31.4 233.1,31.4 Q231.3,31.4 230.6,32.1 Q230.0,32.8 230.0,34.7 Q230.0,36.5 230.6,37.3 Q231.3,38.0 233.1,38.0 Z"/><path d="M272.9,34.0 L272.9,28.3 L275.3,28.3 Q277.9,28.3 278.6,28.6 Q279.3,28.9 279.3,30.9 Q279.3,33.0 278.6,33.5 Q277.9,34.0 275.3,34.0 L272.9,34.0 Z M279.6,46.0 L285.6,46.0 L280.7,37.2 Q283.0,36.2 283.7,35.1 Q284.5,34.1 284.5,30.9 Q284.5,25.7 282.5,24.8 Q280.5,24.0 275.8,24.0 L267.6,24.0 L267.6,46.0 L272.9,46.0 L272.9,38.2 L275.5,38.2 L279.6,46.0 Z"/><path d="M291.6,46.0 L306.1,46.0 L306.1,41.5 L296.9,41.5 L296.9,37.0 L304.4,37.0 L304.4,32.5 L296.9,32.5 L296.9,28.5 L305.7,28.5 L305.7,24.0 L291.6,24.0 L291.6,46.0 Z"/><path d="M310.8,46.0 L316.2,46.0 L317.5,41.0 L324.1,41.0 L325.4,46.0 L331.0,46.0 L324.1,24.0 L317.7,24.0 L310.8,46.0 Z M318.5,36.9 L319.0,35.0 Q319.6,32.9 319.9,31.6 Q320.2,30.3 320.7,28.0 L320.8,28.0 Q321.4,30.2 321.7,31.6 Q322.0,32.9 322.6,35.0 L323.1,36.9 L318.5,36.9 Z"/><path d="M343.5,46.0 Q348.9,46.0 350.5,44.4 Q352.0,42.7 352.0,39.2 Q352.0,36.3 351.2,35.5 Q350.4,34.6 347.6,33.6 L344.8,32.6 Q342.8,31.9 342.2,31.6 Q341.5,31.4 341.5,30.3 Q341.5,29.2 342.0,28.9 Q342.5,28.6 344.1,28.6 Q345.8,28.6 346.5,28.9 Q347.2,29.1 348.7,30.2 L351.4,27.0 Q349.4,25.0 348.0,24.5 Q346.7,24.0 344.1,24.0 Q339.4,24.0 337.7,25.5 Q336.0,27.0 336.0,30.6 Q336.0,33.5 337.1,34.4 Q338.2,35.3 340.5,36.2 L343.4,37.3 Q345.3,38.0 345.9,38.2 Q346.5,38.4 346.5,39.6 Q346.5,40.7 346.1,41.0 Q345.6,41.4 343.6,41.4 Q341.9,41.4 340.8,41.0 Q339.8,40.5 338.2,39.3 L335.2,42.8 Q337.5,44.9 339.0,45.5 Q340.6,46.0 343.5,46.0 Z"/><path d="M367.8,46.0 Q373.9,46.0 375.9,43.8 Q378.0,41.6 378.0,34.9 Q378.0,28.2 375.9,26.1 Q373.9,24.0 367.8,24.0 Q361.7,24.0 359.6,26.1 Q357.5,28.1 357.5,34.9 Q357.5,41.6 359.6,43.8 Q361.7,46.0 367.8,46.0 Z M367.8,41.4 Q364.8,41.4 363.9,40.1 Q363.0,38.9 363.0,34.9 Q363.0,30.9 363.9,29.8 Q364.8,28.6 367.8,28.6 Q370.7,28.6 371.6,29.8 Q372.5,30.9 372.5,34.9 Q372.5,38.9 371.6,40.1 Q370.7,41.4 367.8,41.4 Z"/><path d="M385.6,46.0 L390.7,46.0 L390.7,38.7 Q390.7,36.1 390.4,34.6 Q390.2,33.0 390.0,30.6 L390.1,30.6 L392.3,35.4 L397.8,46.0 L403.3,46.0 L403.3,24.0 L398.2,24.0 L398.2,31.3 Q398.2,33.9 398.4,35.5 Q398.7,37.1 398.9,39.4 L398.8,39.4 L396.6,34.5 L391.0,24.0 L385.6,24.0 L385.6,46.0 Z"/><path d="M411.6,46.0 L416.9,46.0 L416.9,24.0 L411.6,24.0 L411.6,46.0 Z"/><path d="M425.6,46.0 L430.7,46.0 L430.7,38.7 Q430.7,36.1 430.4,34.6 Q430.2,33.0 430.0,30.6 L430.1,30.6 L432.3,35.4 L437.8,46.0 L443.3,46.0 L443.3,24.0 L438.2,24.0 L438.2,31.3 Q438.2,33.9 438.4,35.5 Q438.7,37.1 438.9,39.4 L438.8,39.4 L436.6,34.5 L431.0,24.0 L425.6,24.0 L425.6,46.0 Z"/><path d="M461.6,46.0 Q464.7,46.0 466.1,45.4 Q467.5,44.8 469.1,43.3 L469.1,33.6 L460.8,33.6 L460.8,38.0 L464.3,38.0 L464.3,40.9 Q463.8,41.2 463.4,41.3 Q463.0,41.4 462.2,41.4 Q458.0,41.4 457.0,40.3 Q456.0,39.3 456.0,35.2 Q456.0,31.0 457.2,29.8 Q458.4,28.6 461.7,28.6 Q463.6,28.6 464.2,28.9 Q464.7,29.3 465.8,30.2 L468.7,26.9 Q467.1,25.4 466.0,24.7 Q464.8,24.0 461.5,24.0 Q455.6,24.0 453.1,26.1 Q450.5,28.3 450.5,35.3 Q450.5,42.1 453.0,44.1 Q455.4,46.0 461.6,46.0 Z"/><path d="M492.4,46.0 Q495.2,46.0 496.3,45.6 Q497.5,45.2 499.4,43.8 Q501.4,44.9 502.4,45.3 Q503.4,45.7 505.3,46.0 L506.5,41.7 Q505.4,41.6 504.8,41.3 Q504.1,41.1 502.7,40.5 Q504.4,38.3 505.0,37.2 Q505.6,36.0 506.4,33.5 L501.5,33.5 Q501.0,35.4 500.6,36.2 Q500.1,37.0 499.0,38.4 Q497.5,37.3 496.7,36.7 Q496.0,36.1 494.7,34.8 Q497.1,33.4 498.2,32.6 Q499.4,31.7 499.4,29.0 Q499.4,26.0 498.2,25.0 Q497.1,24.0 493.7,24.0 Q489.9,24.0 488.7,25.4 Q487.5,26.7 487.5,29.7 Q487.5,31.0 487.8,31.7 Q488.0,32.5 488.9,34.0 Q486.7,35.2 485.7,36.0 Q484.8,36.9 484.8,39.8 Q484.8,43.0 486.1,44.5 Q487.4,46.0 492.4,46.0 Z M495.6,41.2 Q494.8,41.7 494.3,41.8 Q493.9,41.9 493.0,41.9 Q491.1,41.9 490.5,41.4 Q489.9,40.9 489.9,39.5 Q489.9,38.6 490.1,38.2 Q490.4,37.9 491.2,37.2 Q492.5,38.6 493.2,39.3 Q494.0,40.0 495.6,41.2 Z M492.6,32.0 Q492.1,31.2 492.0,30.8 Q491.9,30.4 491.9,29.7 Q491.9,28.3 492.3,27.9 Q492.8,27.5 493.8,27.5 Q494.8,27.5 495.0,27.8 Q495.3,28.1 495.3,29.0 Q495.3,30.3 494.7,30.8 Q494.1,31.2 492.6,32.0 Z"/><path d="M527.8,46.0 Q532.8,46.0 534.0,44.2 Q535.1,42.4 535.1,38.2 L535.1,24.0 L529.8,24.0 L529.8,37.8 Q529.8,40.6 529.3,41.0 Q528.8,41.4 527.1,41.4 Q526.0,41.4 525.4,41.1 Q524.9,40.7 524.1,39.3 L520.5,41.9 Q522.1,44.7 523.2,45.3 Q524.3,46.0 527.8,46.0 Z"/><path d="M552.5,46.0 Q558.5,46.0 560.0,44.3 Q561.5,42.6 561.5,35.4 L561.5,24.0 L556.3,24.0 L556.3,35.9 Q556.3,40.0 555.6,40.7 Q554.9,41.4 552.5,41.4 Q550.0,41.4 549.4,40.7 Q548.8,40.0 548.8,35.9 L548.8,24.0 L543.5,24.0 L543.5,35.4 Q543.5,42.6 545.0,44.3 Q546.5,46.0 552.5,46.0 Z"/><path d="M569.6,46.0 L576.3,46.0 Q582.8,46.0 585.0,44.2 Q587.3,42.5 587.3,34.9 Q587.3,27.3 585.0,25.7 Q582.8,24.0 576.0,24.0 L569.6,24.0 L569.6,46.0 Z M574.9,41.7 L574.9,28.3 L575.7,28.3 Q579.3,28.3 580.5,29.0 Q581.8,29.7 581.8,34.9 Q581.8,40.1 580.5,40.9 Q579.3,41.7 575.7,41.7 L574.9,41.7 Z"/><path d="M604.6,46.0 Q607.7,46.0 609.1,45.4 Q610.5,44.8 612.1,43.3 L612.1,33.6 L603.8,33.6 L603.8,38.0 L607.3,38.0 L607.3,40.9 Q606.8,41.2 606.4,41.3 Q606.0,41.4 605.2,41.4 Q601.0,41.4 600.0,40.3 Q599.0,39.3 599.0,35.2 Q599.0,31.0 600.2,29.8 Q601.4,28.6 604.7,28.6 Q606.6,28.6 607.2,28.9 Q607.7,29.3 608.8,30.2 L611.7,26.9 Q610.1,25.4 609.0,24.7 Q607.8,24.0 604.5,24.0 Q598.6,24.0 596.1,26.1 Q593.5,28.3 593.5,35.3 Q593.5,42.1 596.0,44.1 Q598.4,46.0 604.6,46.0 Z"/><path d="M619.6,46.0 L624.4,46.0 L624.4,38.5 Q624.4,36.4 624.2,34.7 Q624.0,33.1 623.7,31.0 L623.8,31.0 L625.6,36.2 L628.6,44.2 L631.6,44.2 L634.6,36.2 L636.4,31.0 L636.6,31.0 Q636.3,33.1 636.1,34.7 Q635.9,36.4 635.9,38.5 L635.9,46.0 L640.8,46.0 L640.8,24.0 L634.9,24.0 L631.5,33.6 Q631.1,34.9 630.9,35.6 Q630.7,36.2 630.3,37.6 L630.1,37.6 Q629.7,36.2 629.5,35.6 Q629.4,34.9 628.9,33.6 L625.4,24.0 L619.6,24.0 L619.6,46.0 Z"/><path d="M648.6,46.0 L663.1,46.0 L663.1,41.5 L653.9,41.5 L653.9,37.0 L661.4,37.0 L661.4,32.5 L653.9,32.5 L653.9,28.5 L662.7,28.5 L662.7,24.0 L648.6,24.0 L648.6,46.0 Z"/><path d="M670.6,46.0 L675.7,46.0 L675.7,38.7 Q675.7,36.1 675.4,34.6 Q675.2,33.0 675.0,30.6 L675.1,30.6 L677.3,35.4 L682.8,46.0 L688.3,46.0 L688.3,24.0 L683.2,24.0 L683.2,31.3 Q683.2,33.9 683.4,35.5 Q683.7,37.1 683.9,39.4 L683.8,39.4 L681.6,34.5 L676.0,24.0 L670.6,24.0 L670.6,46.0 Z"/><path d="M700.9,46.0 L706.3,46.0 L706.3,28.5 L712.3,28.5 L712.3,24.0 L694.9,24.0 L694.9,28.5 L700.9,28.5 L700.9,46.0 Z"/></g>
  <line x1="40" y1="58" x2="1160" y2="58" stroke="url(#shb)" stroke-opacity="0.25" stroke-width="1"/>
  <g fill="#d8b988"><path d="M53.6,66.5 L50.9,66.2 L50.9,80.4 L51.3,80.4 Q52.1,80.4 52.5,80.2 Q53.0,80.0 53.0,79.8 L53.0,71.7 Q54.0,72.8 54.5,73.5 Q55.0,74.1 55.4,75.3 Q57.5,76.7 58.2,74.6 Q58.8,72.4 53.0,71.1 L53.0,67.0 Q53.5,66.9 53.5,66.8 Q53.6,66.8 53.6,66.5 Z M46.7,66.7 L43.6,66.2 Q43.1,69.6 42.5,72.0 Q41.8,74.3 40.5,77.1 L40.6,77.2 Q41.7,76.1 42.2,75.3 Q42.6,74.6 43.5,73.0 Q43.8,75.2 44.1,76.1 Q44.3,77.0 45.0,78.4 Q43.9,80.4 43.2,81.3 Q42.4,82.1 40.3,83.5 L40.5,83.9 Q42.9,82.7 43.7,82.0 Q44.6,81.4 45.9,79.9 Q47.8,82.3 49.2,82.7 Q50.7,83.0 54.8,83.0 Q55.1,83.0 55.5,83.0 Q56.0,83.0 56.4,83.0 Q56.4,82.3 56.6,81.9 Q56.8,81.4 57.6,81.2 L57.6,81.0 Q56.9,81.0 56.2,81.0 Q55.5,81.0 55.0,81.0 Q51.3,81.0 50.0,80.8 Q48.7,80.5 46.8,78.6 Q48.2,76.4 48.6,75.0 Q49.0,73.7 49.5,70.9 Q49.9,70.8 50.0,70.8 Q50.1,70.8 50.2,70.6 L48.3,68.9 L47.2,70.0 L44.9,70.0 Q45.3,69.0 45.5,68.5 Q45.7,68.0 46.0,67.0 Q46.5,67.0 46.6,67.0 Q46.6,66.9 46.7,66.7 Z M43.7,72.5 Q44.1,71.8 44.2,71.5 Q44.4,71.2 44.6,70.5 L47.4,70.5 Q47.1,72.9 46.8,74.0 Q46.5,75.1 45.6,77.2 Q44.9,76.0 44.5,75.2 Q44.2,74.5 43.7,72.5 Z"/><path d="M63.3,79.9 L64.2,82.1 Q64.4,82.0 64.5,82.0 Q64.6,81.9 64.7,81.7 Q67.2,80.3 68.1,79.7 Q68.9,79.1 70.1,78.2 L70.0,78.0 L67.5,78.8 L67.5,74.0 L69.6,74.0 Q69.8,74.0 69.9,74.0 Q69.9,74.0 70.0,73.8 L70.0,77.2 L70.3,77.2 Q71.2,77.2 71.6,77.0 Q72.0,76.8 72.0,76.5 L72.0,76.0 L73.7,76.0 L73.7,79.0 L69.9,79.0 L70.0,79.5 L73.7,79.5 L73.7,82.5 L68.3,82.5 L68.4,83.0 L80.3,83.0 Q80.6,83.0 80.7,83.0 Q80.8,82.9 80.8,82.7 Q80.1,82.0 79.4,81.5 Q78.8,81.0 78.8,81.0 L77.7,82.5 L75.8,82.5 L75.8,79.5 L79.6,79.5 Q79.8,79.5 79.9,79.5 Q80.0,79.4 80.1,79.2 Q79.4,78.5 78.8,78.0 Q78.2,77.4 78.2,77.4 L77.1,79.0 L75.8,79.0 L75.8,76.0 L77.5,76.0 L77.5,76.8 L77.9,76.8 Q78.6,76.8 79.1,76.6 Q79.6,76.3 79.6,76.2 L79.6,68.4 Q80.0,68.3 80.1,68.2 Q80.2,68.1 80.3,68.0 L78.3,66.4 L77.4,67.5 L72.1,67.5 L70.0,66.6 L70.0,67.9 Q69.3,67.2 68.9,66.9 Q68.4,66.5 68.4,66.5 L67.3,68.0 L63.5,68.0 L63.6,68.5 L65.5,68.5 L65.5,73.5 L63.5,73.5 L63.7,74.0 L65.5,74.0 L65.5,79.2 Q64.5,79.6 64.2,79.7 Q63.8,79.8 63.3,79.9 Z M73.7,72.0 L73.7,75.5 L72.0,75.5 L72.0,72.0 L73.7,72.0 Z M75.8,72.0 L77.5,72.0 L77.5,75.5 L75.8,75.5 L75.8,72.0 Z M73.7,71.5 L72.0,71.5 L72.0,68.0 L73.7,68.0 L73.7,71.5 Z M75.8,71.5 L75.8,68.0 L77.5,68.0 L77.5,71.5 L75.8,71.5 Z M70.0,68.5 L70.0,73.7 Q69.4,73.0 69.0,72.5 Q68.5,71.9 68.5,71.9 L67.6,73.5 L67.5,73.5 L67.5,68.5 L69.9,68.5 L70.0,68.5 Z"/><path d="M99.6,71.8 L98.4,73.5 L91.4,73.5 L91.6,74.0 L101.2,74.0 Q101.5,74.0 101.6,74.0 Q101.7,73.9 101.7,73.7 Q100.9,73.0 100.3,72.4 Q99.6,71.8 99.6,71.8 Z M101.4,74.8 L100.2,76.5 L90.4,76.5 L90.5,77.0 L94.5,77.0 Q93.8,78.3 92.9,79.4 Q92.1,80.4 90.9,81.1 Q90.7,81.2 90.5,81.2 Q90.3,81.2 90.3,81.2 L91.0,83.7 Q91.2,83.7 91.3,83.6 Q91.4,83.5 91.5,83.3 Q95.1,82.7 96.6,82.3 Q98.1,82.0 100.2,81.5 Q100.6,82.2 100.8,82.5 Q101.0,82.8 101.2,83.4 Q103.4,84.7 104.0,82.5 Q104.6,80.2 98.2,78.4 L98.0,78.5 Q98.6,79.2 99.0,79.7 Q99.3,80.1 99.9,81.0 Q97.0,81.1 95.6,81.2 Q94.2,81.2 92.3,81.2 Q93.9,80.5 94.7,79.9 Q95.6,79.3 96.6,78.4 Q96.9,78.4 97.0,78.4 Q97.2,78.3 97.2,78.1 L95.3,77.0 L103.0,77.0 Q103.3,77.0 103.4,77.0 Q103.5,76.9 103.5,76.7 Q102.7,76.0 102.0,75.4 Q101.4,74.8 101.4,74.8 Z M90.5,70.5 L90.5,68.0 L99.9,68.0 L99.9,70.5 L90.5,70.5 Z M88.4,67.3 L88.4,72.7 Q88.4,76.4 88.3,78.5 Q88.3,80.6 86.4,83.8 L86.5,84.0 Q90.3,81.0 90.4,78.6 Q90.5,76.2 90.5,72.6 L90.5,71.0 L99.9,71.0 L99.9,71.8 L100.2,71.8 Q100.9,71.8 101.5,71.6 Q102.0,71.5 102.0,71.3 L102.0,68.4 Q102.4,68.3 102.5,68.2 Q102.7,68.1 102.8,68.0 L100.7,66.2 L99.7,67.5 L90.9,67.5 L88.4,66.5 L88.4,67.3 Z"/><path d="M122.0,76.9 Q122.8,76.9 123.2,76.6 Q123.5,76.3 123.5,75.5 Q123.5,74.7 123.2,74.3 Q122.8,74.0 122.0,74.0 Q121.2,74.0 120.9,74.3 Q120.5,74.7 120.5,75.5 Q120.5,76.3 120.9,76.6 Q121.2,76.9 122.0,76.9 Z"/><path d="M152.7,66.4 Q152.5,67.5 152.3,68.2 Q152.1,69.0 151.9,70.0 L150.0,70.0 L149.8,70.0 Q150.2,69.1 150.4,68.7 Q150.5,68.2 150.8,67.3 Q151.2,67.3 151.4,67.2 Q151.5,67.1 151.5,66.8 L148.8,66.1 Q148.2,69.6 147.5,71.5 Q146.9,73.4 145.5,75.6 L145.8,75.7 Q146.4,75.2 146.8,74.9 Q147.1,74.6 147.7,73.9 L147.7,83.9 L148.0,83.9 Q149.1,83.9 149.4,83.7 Q149.7,83.5 149.7,83.3 L149.7,82.5 L157.2,82.5 Q157.5,82.5 157.6,82.5 Q157.7,82.4 157.8,82.2 Q157.0,81.4 156.4,80.8 Q155.8,80.1 155.8,80.1 L154.7,82.0 L153.7,82.0 L153.7,78.0 L156.6,78.0 Q156.9,78.0 157.0,78.0 Q157.1,77.9 157.1,77.7 Q156.5,77.1 155.9,76.6 Q155.3,76.2 155.3,76.2 L154.4,77.5 L153.7,77.5 L153.7,74.5 L156.6,74.5 Q156.8,74.5 156.9,74.5 Q157.0,74.4 157.1,74.2 Q156.4,73.5 155.9,73.0 Q155.3,72.4 155.3,72.4 L154.4,74.0 L153.7,74.0 L153.7,70.5 L156.9,70.5 Q157.2,70.5 157.3,70.5 Q157.4,70.4 157.4,70.2 Q156.7,69.5 156.1,69.0 Q155.5,68.5 155.5,68.5 L154.4,70.0 L152.4,70.0 Q153.2,69.2 153.6,68.7 Q154.1,68.2 154.7,67.5 Q155.1,67.5 155.3,67.5 Q155.4,67.4 155.5,67.1 L152.7,66.4 Z M149.7,70.5 L151.7,70.5 L151.7,74.0 L149.7,74.0 L149.7,70.5 Z M149.7,74.5 L151.7,74.5 L151.7,77.5 L149.7,77.5 L149.7,74.5 Z M149.7,78.0 L151.7,78.0 L151.7,82.0 L149.7,82.0 L149.7,78.0 Z M140.3,75.3 L141.2,77.6 Q141.4,77.5 141.5,77.4 Q141.6,77.3 141.7,77.1 L142.8,76.3 L142.8,81.5 Q142.8,81.8 142.8,81.8 Q142.7,81.8 142.4,81.8 Q142.1,81.8 141.4,81.8 Q140.6,81.7 140.6,81.7 L140.6,82.0 Q141.4,82.1 141.6,82.2 Q141.7,82.3 142.0,82.6 Q142.2,82.9 142.2,83.2 Q142.3,83.4 142.3,84.0 Q144.5,83.8 144.6,83.4 Q144.8,83.1 144.8,81.7 L144.8,74.9 L146.6,73.3 L146.5,73.1 L144.8,73.8 L144.8,71.0 L147.0,71.0 Q147.2,71.0 147.3,71.0 Q147.4,70.9 147.5,70.7 Q146.9,70.1 146.4,69.6 Q145.8,69.1 145.8,69.1 L144.9,70.5 L144.8,70.5 L144.8,67.0 Q145.2,66.9 145.3,66.8 Q145.4,66.8 145.5,66.5 L142.8,66.2 L142.8,70.5 L140.5,70.5 L140.7,71.0 L142.8,71.0 L142.8,74.5 Q141.7,74.9 141.3,75.0 Q140.8,75.2 140.3,75.3 Z"/><path d="M163.3,79.9 L164.2,82.1 Q164.4,82.0 164.5,82.0 Q164.6,81.9 164.7,81.7 Q167.2,80.3 168.1,79.7 Q168.9,79.1 170.1,78.2 L170.0,78.0 L167.5,78.8 L167.5,74.0 L169.6,74.0 Q169.8,74.0 169.9,74.0 Q169.9,74.0 170.0,73.8 L170.0,77.2 L170.3,77.2 Q171.2,77.2 171.6,77.0 Q172.0,76.8 172.0,76.5 L172.0,76.0 L173.7,76.0 L173.7,79.0 L169.9,79.0 L170.0,79.5 L173.7,79.5 L173.7,82.5 L168.3,82.5 L168.4,83.0 L180.3,83.0 Q180.6,83.0 180.7,83.0 Q180.8,82.9 180.8,82.7 Q180.1,82.0 179.4,81.5 Q178.8,81.0 178.8,81.0 L177.7,82.5 L175.8,82.5 L175.8,79.5 L179.6,79.5 Q179.8,79.5 179.9,79.5 Q180.0,79.4 180.1,79.2 Q179.4,78.5 178.8,78.0 Q178.2,77.4 178.2,77.4 L177.1,79.0 L175.8,79.0 L175.8,76.0 L177.5,76.0 L177.5,76.8 L177.9,76.8 Q178.6,76.8 179.1,76.6 Q179.6,76.3 179.6,76.2 L179.6,68.4 Q180.0,68.3 180.1,68.2 Q180.2,68.1 180.3,68.0 L178.3,66.4 L177.4,67.5 L172.1,67.5 L170.0,66.6 L170.0,67.9 Q169.3,67.2 168.9,66.9 Q168.4,66.5 168.4,66.5 L167.3,68.0 L163.5,68.0 L163.6,68.5 L165.5,68.5 L165.5,73.5 L163.5,73.5 L163.7,74.0 L165.5,74.0 L165.5,79.2 Q164.5,79.6 164.2,79.7 Q163.8,79.8 163.3,79.9 Z M173.7,72.0 L173.7,75.5 L172.0,75.5 L172.0,72.0 L173.7,72.0 Z M175.8,72.0 L177.5,72.0 L177.5,75.5 L175.8,75.5 L175.8,72.0 Z M173.7,71.5 L172.0,71.5 L172.0,68.0 L173.7,68.0 L173.7,71.5 Z M175.8,71.5 L175.8,68.0 L177.5,68.0 L177.5,71.5 L175.8,71.5 Z M170.0,68.5 L170.0,73.7 Q169.4,73.0 169.0,72.5 Q168.5,71.9 168.5,71.9 L167.6,73.5 L167.5,73.5 L167.5,68.5 L169.9,68.5 L170.0,68.5 Z"/><path d="M191.1,66.0 Q190.9,68.0 190.5,70.6 Q190.0,73.2 189.3,75.0 Q190.3,75.3 190.8,75.3 Q191.2,75.2 191.7,74.9 L192.0,74.0 L197.4,74.0 Q197.3,74.8 197.2,75.4 Q197.2,75.9 197.1,77.0 L186.7,77.0 L186.8,77.5 L197.0,77.5 Q196.8,79.6 196.6,80.4 Q196.5,81.1 196.1,81.5 Q195.8,81.7 195.8,81.7 Q195.7,81.7 195.3,81.7 Q194.8,81.7 193.9,81.6 Q192.9,81.6 191.7,81.5 L191.7,81.7 Q192.8,81.9 193.3,82.1 Q193.8,82.2 194.2,82.6 Q194.6,82.9 194.7,83.1 Q194.8,83.4 194.7,84.0 Q196.2,84.0 196.6,83.9 Q197.0,83.8 197.6,83.2 Q198.5,82.5 198.7,81.5 Q199.0,80.6 199.3,77.5 L203.0,77.5 Q203.3,77.5 203.4,77.5 Q203.5,77.4 203.5,77.2 Q202.7,76.4 202.1,75.8 Q201.4,75.1 201.4,75.1 L200.2,77.0 L199.4,77.0 Q199.4,76.0 199.5,75.5 Q199.5,75.0 199.6,74.3 Q200.0,74.2 200.1,74.2 Q200.2,74.2 200.4,74.0 L198.4,72.1 L197.2,73.5 L192.1,73.5 L192.7,70.0 L201.0,70.0 Q201.3,70.0 201.4,70.0 Q201.4,69.9 201.5,69.7 Q200.7,69.0 200.0,68.5 Q199.3,68.0 199.3,68.0 L198.1,69.5 L192.8,69.5 L193.2,66.9 Q193.7,66.8 193.8,66.7 Q193.9,66.6 194.0,66.4 L191.1,66.0 Z"/><path d="M210.1,67.3 L209.9,67.4 Q210.4,68.8 210.6,69.5 Q210.8,70.3 210.7,71.5 Q212.4,73.4 213.5,71.6 Q214.5,69.8 210.1,67.3 Z M217.2,67.1 Q216.8,69.0 216.6,69.9 Q216.4,70.7 216.0,71.7 L216.3,71.8 Q217.2,71.0 217.7,70.4 Q218.2,69.9 219.0,68.8 Q219.4,68.8 219.6,68.8 Q219.7,68.7 219.8,68.5 L217.2,67.1 Z M220.0,67.8 L220.0,79.8 L220.4,79.8 Q221.1,79.8 221.5,79.6 Q222.0,79.4 222.0,79.2 L222.0,68.6 Q222.4,68.6 222.5,68.5 Q222.6,68.4 222.6,68.1 L220.0,67.8 Z M223.6,66.3 L223.6,81.2 Q223.6,81.5 223.5,81.6 Q223.5,81.7 223.1,81.7 Q222.7,81.7 221.7,81.6 Q220.7,81.5 220.7,81.5 L220.7,81.8 Q221.7,81.9 221.9,82.0 Q222.1,82.2 222.4,82.5 Q222.7,82.8 222.8,83.1 Q222.8,83.3 222.9,84.0 Q225.3,83.8 225.5,83.4 Q225.7,83.0 225.7,81.4 L225.7,67.0 Q226.1,67.0 226.2,66.9 Q226.3,66.8 226.3,66.5 L223.6,66.3 Z M209.4,77.0 L209.5,77.5 L213.4,77.5 L213.4,84.0 L213.8,84.0 Q214.6,84.0 215.1,83.8 Q215.5,83.6 215.5,83.3 L215.5,77.5 L219.4,77.5 Q219.7,77.5 219.8,77.5 Q219.8,77.4 219.9,77.2 Q219.2,76.5 218.6,76.0 Q218.0,75.5 218.0,75.5 L217.0,77.0 L215.5,77.0 L215.5,73.5 L219.1,73.5 Q219.3,73.5 219.4,73.5 Q219.5,73.4 219.6,73.2 Q218.9,72.5 218.3,72.0 Q217.7,71.5 217.7,71.5 L216.7,73.0 L215.5,73.0 L215.5,67.0 Q216.0,66.9 216.1,66.8 Q216.1,66.7 216.2,66.5 L213.4,66.2 L213.4,73.0 L209.7,73.0 L209.8,73.5 L213.4,73.5 L213.4,77.0 L209.4,77.0 Z"/><path d="M235.5,68.2 L235.3,68.2 Q235.6,69.2 235.7,69.9 Q235.9,70.6 235.8,71.7 Q236.8,73.2 237.6,71.8 Q238.4,70.4 235.5,68.2 Z M239.8,68.0 Q239.6,69.3 239.5,70.1 Q239.4,70.8 239.2,71.8 L239.5,71.9 Q240.1,71.1 240.4,70.6 Q240.8,70.0 241.3,69.0 Q241.7,69.0 241.8,68.9 Q241.9,68.8 242.0,68.6 L239.8,68.0 Z M247.1,66.0 Q246.4,66.5 245.8,66.9 Q245.2,67.4 244.0,68.2 L242.0,67.4 L242.0,74.2 Q242.0,76.6 242.0,77.8 Q241.9,78.9 241.2,81.0 L240.1,80.1 L239.1,81.5 L235.0,81.5 L235.0,79.8 Q235.9,78.8 236.3,78.3 Q236.7,77.8 237.4,76.7 L237.4,81.0 L237.7,81.0 Q238.3,81.0 238.7,80.8 Q239.0,80.6 239.0,80.4 L239.0,74.8 Q239.5,75.7 239.6,76.2 Q239.8,76.8 239.9,77.8 Q241.2,79.2 242.0,77.7 Q242.8,76.2 239.0,74.2 L239.0,73.5 L241.5,73.5 Q241.8,73.5 241.9,73.5 Q241.9,73.4 242.0,73.2 Q241.4,72.5 240.9,72.0 Q240.5,71.5 240.5,71.5 L239.6,73.0 L239.0,73.0 L239.0,67.0 Q239.5,66.9 239.5,66.8 Q239.6,66.8 239.7,66.5 L237.4,66.3 L237.4,73.0 L235.0,73.0 L235.0,67.6 Q235.5,67.5 235.5,67.5 Q235.6,67.4 235.6,67.1 L233.2,66.9 L233.2,83.4 L233.5,83.4 Q234.2,83.4 234.6,83.2 Q235.0,83.0 235.0,82.8 L235.0,82.0 L240.8,82.0 Q240.5,82.6 240.3,82.9 Q240.2,83.2 239.7,83.8 L239.9,84.0 Q243.7,81.6 243.8,79.7 Q244.0,77.8 244.0,74.4 L244.0,73.5 L245.7,73.5 L245.7,84.0 L246.1,84.0 Q247.1,84.0 247.4,83.7 Q247.8,83.5 247.8,83.4 L247.8,73.5 L249.1,73.5 Q249.4,73.5 249.5,73.5 Q249.6,73.4 249.6,73.2 Q248.9,72.1 248.3,71.6 Q247.7,71.1 247.7,71.1 L246.7,73.0 L244.0,73.0 L244.0,68.8 Q245.5,68.6 246.3,68.5 Q247.1,68.3 248.1,68.0 Q248.7,68.2 248.9,68.2 Q249.1,68.2 249.3,68.0 L247.1,66.0 Z M235.0,73.4 L235.0,73.5 L236.9,73.5 Q236.5,75.5 236.2,76.5 Q235.9,77.5 235.0,79.1 L235.0,73.4 Z"/></g>
</svg>
