<svg xmlns="http://www.w3.org/2000/svg" viewBox="0 0 1200 72" width="1200" height="72" role="img" aria-label="OUTPUT · 输出层">
  <rect width="1200" height="72" fill="none"/>
  <line x1="0" y1="2" x2="1200" y2="2" stroke="#2a2d34" stroke-width="2"/>
  <g fill="#b5462f"><path d="M4.3,52.0 L11.5,52.0 L11.5,22.0 L4.3,22.0 L4.3,52.0 Z M18.4,52.0 L25.6,52.0 L25.6,22.0 L18.4,22.0 L18.4,52.0 Z M32.5,52.0 L39.7,52.0 L39.7,22.0 L32.5,22.0 L32.5,52.0 Z"/></g>
  <g fill="#2a2d34"><path d="M93.4,40.0 Q98.3,40.0 100.0,38.2 Q101.6,36.5 101.6,30.9 Q101.6,25.3 100.0,23.7 Q98.3,22.0 93.4,22.0 Q88.5,22.0 86.9,23.7 Q85.2,25.3 85.2,30.9 Q85.2,36.5 86.9,38.2 Q88.5,40.0 93.4,40.0 Z M93.4,36.3 Q91.1,36.3 90.4,35.3 Q89.6,34.2 89.6,30.9 Q89.6,27.6 90.4,26.7 Q91.1,25.7 93.4,25.7 Q95.8,25.7 96.5,26.7 Q97.2,27.6 97.2,30.9 Q97.2,34.2 96.5,35.3 Q95.8,36.3 93.4,36.3 Z"/><path d="M114.2,40.0 Q119.0,40.0 120.2,38.6 Q121.4,37.3 121.4,31.3 L121.4,22.0 L117.2,22.0 L117.2,31.8 Q117.2,35.1 116.7,35.7 Q116.2,36.3 114.2,36.3 Q112.2,36.3 111.7,35.7 Q111.2,35.1 111.2,31.8 L111.2,22.0 L107.0,22.0 L107.0,31.3 Q107.0,37.3 108.2,38.6 Q109.4,40.0 114.2,40.0 Z"/><path d="M130.5,40.0 L134.8,40.0 L134.8,25.6 L139.7,25.6 L139.7,22.0 L125.7,22.0 L125.7,25.6 L130.5,25.6 L130.5,40.0 Z"/><path d="M144.1,40.0 L148.4,40.0 L148.4,34.0 L150.4,34.0 Q154.2,34.0 155.9,33.1 Q157.5,32.1 157.5,27.9 Q157.5,23.4 155.9,22.7 Q154.2,22.0 150.3,22.0 L144.1,22.0 L144.1,40.0 Z M148.4,30.6 L148.4,25.4 L150.1,25.4 Q152.2,25.4 152.8,25.7 Q153.3,26.0 153.3,27.9 Q153.3,29.6 152.8,30.1 Q152.3,30.6 150.2,30.6 L148.4,30.6 Z"/><path d="M169.2,40.0 Q174.0,40.0 175.2,38.6 Q176.4,37.3 176.4,31.3 L176.4,22.0 L172.2,22.0 L172.2,31.8 Q172.2,35.1 171.7,35.7 Q171.2,36.3 169.2,36.3 Q167.2,36.3 166.7,35.7 Q166.2,35.1 166.2,31.8 L166.2,22.0 L162.0,22.0 L162.0,31.3 Q162.0,37.3 163.2,38.6 Q164.4,40.0 169.2,40.0 Z"/><path d="M185.5,40.0 L189.8,40.0 L189.8,25.6 L194.7,25.6 L194.7,22.0 L180.7,22.0 L180.7,25.6 L185.5,25.6 L185.5,40.0 Z"/><path d="M212.3,33.3 Q213.8,33.3 214.3,32.7 Q214.9,32.1 214.9,30.6 Q214.9,29.2 214.3,28.6 Q213.8,28.0 212.3,28.0 Q210.8,28.0 210.3,28.6 Q209.8,29.2 209.8,30.6 Q209.8,32.1 210.3,32.7 Q210.8,33.3 212.3,33.3 Z"/><path d="M247.2,29.8 L247.2,38.8 L249.7,38.8 L249.7,29.8 L247.2,29.8 Z M250.3,28.8 L250.3,39.6 Q250.3,39.9 250.2,40.0 Q250.2,40.0 249.9,40.0 Q249.5,40.0 249.0,40.0 Q248.5,40.0 247.4,40.0 Q247.8,40.8 248.0,41.3 Q248.1,41.9 248.2,42.7 Q249.8,42.7 250.4,42.6 Q251.0,42.6 251.8,42.2 Q252.7,41.8 252.8,41.4 Q252.9,41.0 252.9,39.7 L252.9,28.8 L250.3,28.8 Z M245.7,18.9 Q244.2,21.2 242.9,22.1 Q241.5,23.0 238.9,24.2 L238.9,21.9 L235.9,21.9 Q236.0,21.2 236.1,20.8 Q236.1,20.4 236.2,19.6 L233.1,19.2 Q233.0,20.1 233.0,20.5 Q232.9,21.0 232.8,21.9 L230.7,21.9 L230.7,25.0 L232.3,25.0 Q232.0,26.7 231.9,27.4 Q231.8,28.1 231.6,28.7 Q231.2,29.8 231.1,30.2 Q230.9,30.5 230.4,30.7 Q230.8,31.4 231.0,32.1 Q231.2,32.8 231.4,33.4 Q231.6,33.2 232.1,33.1 Q232.5,33.0 233.2,33.0 L234.6,33.0 L234.6,35.2 Q233.1,35.4 232.4,35.5 Q231.7,35.7 230.6,35.8 L231.3,39.1 L234.6,38.4 L234.6,42.8 L237.5,42.8 L237.5,37.7 L239.2,37.4 L238.9,34.4 L237.5,34.7 L237.5,33.0 L238.8,33.0 L238.8,29.9 L237.5,29.9 L237.5,26.2 L234.9,26.2 L235.2,25.0 L238.3,25.0 Q239.0,25.8 239.4,26.2 Q239.7,26.6 240.1,27.3 L240.9,26.9 L240.9,27.7 L251.0,27.7 L251.0,26.8 L251.9,27.3 Q252.3,26.4 252.7,25.9 Q253.2,25.4 254.0,24.6 Q251.7,23.7 250.8,23.2 Q249.8,22.6 248.0,20.9 L248.5,20.2 L245.7,18.9 Z M234.6,27.0 L234.6,29.9 L233.9,29.9 Q234.1,29.0 234.3,28.5 Q234.4,28.0 234.6,27.0 Z M243.9,25.0 Q244.7,24.4 245.1,24.1 Q245.5,23.8 246.2,23.0 Q246.8,23.8 247.2,24.1 Q247.5,24.4 248.2,25.0 L243.9,25.0 Z M244.0,31.6 L244.0,32.6 L242.2,32.6 L242.2,31.6 L244.0,31.6 Z M239.5,29.0 L239.5,42.7 L242.2,42.7 L242.2,38.0 L244.0,38.0 L244.0,39.7 Q244.0,39.9 244.0,40.0 Q243.9,40.0 243.8,40.0 Q243.5,40.0 243.2,40.0 Q242.9,40.0 242.4,40.0 Q242.7,40.7 242.9,41.3 Q243.0,41.9 243.1,42.6 Q244.2,42.6 244.7,42.6 Q245.1,42.6 245.8,42.2 Q246.5,41.7 246.6,41.3 Q246.7,40.9 246.7,39.7 L246.7,29.0 L239.5,29.0 Z M242.2,35.0 L244.0,35.0 L244.0,35.6 L242.2,35.6 L242.2,35.0 Z"/><path d="M259.2,21.6 L259.2,31.0 L266.0,31.0 L266.0,38.0 L261.8,38.0 L261.8,32.2 L258.2,32.2 L258.2,42.9 L261.8,42.9 L261.8,41.4 L274.2,41.4 L274.2,42.9 L277.9,42.9 L277.9,32.2 L274.2,32.2 L274.2,38.0 L269.7,38.0 L269.7,31.0 L276.9,31.0 L276.9,21.5 L273.2,21.5 L273.2,27.6 L269.7,27.6 L269.7,19.5 L266.0,19.5 L266.0,27.6 L262.7,27.6 L262.7,21.6 L259.2,21.6 Z"/><path d="M289.5,29.0 L289.5,32.0 L303.1,32.0 L303.1,29.0 L289.5,29.0 Z M284.5,20.1 L284.5,27.7 Q284.5,31.4 284.4,34.5 Q284.3,37.6 282.4,41.1 Q283.2,41.4 284.0,41.9 Q284.8,42.3 285.5,42.8 Q287.6,39.0 287.8,35.6 Q288.0,32.1 288.0,27.9 L303.9,27.9 L303.9,20.1 L284.5,20.1 Z M288.0,23.0 L300.3,23.0 L300.3,25.0 L288.0,25.0 L288.0,23.0 Z M289.8,43.0 Q290.8,42.6 291.5,42.6 Q292.2,42.5 300.5,41.8 Q300.7,42.3 300.8,42.6 Q300.9,42.8 301.1,43.2 L304.4,41.8 Q303.8,40.5 303.2,39.5 Q302.6,38.5 301.6,37.0 L304.8,37.0 L304.8,34.0 L288.3,34.0 L288.3,37.0 L291.1,37.0 Q290.6,38.0 290.3,38.4 Q290.0,38.8 289.8,39.1 Q289.4,39.6 289.2,39.8 Q289.0,40.0 288.5,40.1 Q288.9,40.9 289.2,41.6 Q289.5,42.4 289.8,43.0 Z M298.3,37.9 L299.0,39.2 L293.5,39.5 Q294.1,38.8 294.4,38.3 Q294.7,37.9 295.2,37.0 L300.4,37.0 L298.3,37.9 Z"/></g>
  <g fill="#9aa0ab"><path d="M87.6,50.2 Q88.5,51.0 89.1,51.6 Q89.7,52.1 90.2,52.8 L91.0,52.0 Q90.4,51.3 89.8,50.7 Q89.2,50.2 88.3,49.5 L87.6,50.2 Z M95.3,49.1 Q94.6,51.0 93.8,52.1 Q93.0,53.2 90.7,54.8 Q91.0,55.0 91.1,55.2 Q91.3,55.4 91.5,55.7 Q93.4,54.3 94.0,53.5 Q94.7,52.6 95.7,51.0 Q96.8,52.8 97.6,53.6 Q98.4,54.5 99.9,55.6 Q100.0,55.3 100.2,55.1 Q100.4,54.8 100.6,54.7 Q99.1,53.7 98.2,52.7 Q97.3,51.7 96.3,49.9 L96.5,49.3 L95.3,49.1 Z M98.1,55.5 Q97.0,56.3 96.2,56.8 Q95.4,57.3 94.0,58.0 L94.0,54.8 L92.9,54.8 L92.9,61.3 Q92.9,62.7 93.1,62.9 Q93.3,63.0 95.0,63.0 Q95.3,63.0 96.5,63.0 Q97.7,63.0 98.1,63.0 Q99.5,63.0 99.7,62.7 Q99.9,62.5 100.0,60.3 Q99.7,60.2 99.5,60.1 Q99.2,60.0 99.0,59.8 Q98.9,61.7 98.8,61.8 Q98.8,62.0 98.0,62.0 Q97.5,62.0 96.5,62.0 Q95.4,62.0 95.0,62.0 Q94.2,62.0 94.1,61.9 Q94.0,61.9 94.0,61.3 L94.0,59.2 Q95.5,58.5 96.5,58.0 Q97.4,57.5 98.8,56.5 L98.1,55.5 Z M88.8,63.2 L88.8,63.2 Q89.0,62.8 89.3,62.6 Q89.5,62.5 91.9,60.4 Q91.8,60.2 91.7,60.0 Q91.6,59.7 91.5,59.4 L90.0,60.6 L90.0,54.0 L86.6,54.0 L86.6,55.1 L89.0,55.1 L89.0,60.8 Q89.0,61.6 88.7,61.8 Q88.5,62.1 88.2,62.3 Q88.4,62.5 88.6,62.7 Q88.7,62.9 88.8,63.2 Z"/><path d="M106.5,49.9 Q107.3,50.6 107.8,51.2 Q108.4,51.7 108.8,52.5 L109.6,51.5 Q109.1,50.8 108.6,50.4 Q108.1,49.9 107.2,49.4 L106.5,49.9 Z M110.3,62.0 L110.3,63.1 L119.4,63.1 L119.4,62.0 L115.9,62.0 L115.9,57.0 L118.8,57.0 L118.8,55.9 L115.9,55.9 L115.9,51.1 L119.1,51.1 L119.1,50.0 L110.8,50.0 L110.8,51.1 L114.7,51.1 L114.7,62.0 L112.7,62.0 L112.7,54.4 L111.6,54.4 L111.6,62.0 L110.3,62.0 Z M105.7,54.0 L105.7,55.1 L107.9,55.1 L107.9,60.8 Q107.9,61.6 107.6,61.9 Q107.3,62.2 107.0,62.5 Q107.2,62.6 107.4,62.8 Q107.6,63.0 107.7,63.3 Q107.9,62.9 108.1,62.8 Q108.3,62.6 110.9,60.6 Q110.8,60.4 110.7,60.1 Q110.6,59.9 110.5,59.6 L109.0,60.8 L109.0,54.0 L105.7,54.0 Z"/><path d="M128.5,49.0 Q128.1,51.1 127.8,53.0 Q127.5,54.9 127.0,56.7 L128.1,56.8 L128.3,56.1 L134.6,56.1 Q134.5,56.8 134.5,57.1 Q134.4,57.4 134.3,58.0 L124.8,58.0 L124.8,59.1 L134.2,59.1 Q133.9,61.2 133.8,61.8 Q133.6,62.3 133.2,62.8 Q133.0,63.0 132.9,63.0 Q132.8,63.0 132.5,63.0 Q132.0,63.0 131.5,63.0 Q130.9,63.0 129.8,62.8 Q130.0,63.2 130.1,63.4 Q130.1,63.7 130.2,64.0 Q131.2,64.1 131.8,64.1 Q132.3,64.1 132.9,64.0 Q133.5,64.0 133.6,64.0 Q133.8,63.9 134.2,63.5 Q134.7,63.1 134.9,62.4 Q135.0,61.8 135.3,59.1 L138.2,59.1 L138.2,58.0 L135.5,58.0 Q135.6,57.3 135.6,56.9 Q135.7,56.5 135.8,55.6 Q135.8,55.4 135.8,55.2 Q135.8,55.0 135.8,55.0 L128.6,55.0 L129.1,52.1 L136.7,52.1 L136.7,51.0 L129.3,51.0 L129.7,49.1 L128.5,49.0 Z"/><path d="M149.9,49.2 L149.9,51.9 L143.7,51.9 L143.7,53.0 L146.0,53.0 Q146.8,55.6 147.4,56.7 Q148.0,57.8 149.6,59.5 Q148.0,61.0 147.0,61.5 Q146.0,62.0 143.6,62.7 Q143.8,63.0 144.0,63.3 Q144.2,63.6 144.3,63.9 Q146.7,63.0 147.7,62.5 Q148.8,61.9 150.4,60.4 Q152.1,62.0 153.1,62.6 Q154.1,63.2 156.6,63.9 Q156.8,63.5 157.0,63.2 Q157.2,63.0 157.5,62.7 Q155.0,62.1 154.0,61.5 Q153.0,61.0 151.3,59.5 Q152.9,57.8 153.5,56.7 Q154.1,55.7 155.0,53.0 L157.3,53.0 L157.3,51.9 L151.0,51.9 L151.0,49.2 L149.9,49.2 Z M150.5,58.6 Q149.0,57.1 148.5,56.1 Q148.0,55.2 147.2,53.0 L153.7,53.0 Q152.9,55.3 152.4,56.2 Q151.9,57.1 150.5,58.6 Z"/><path d="M172.8,50.5 Q173.7,51.2 174.3,51.6 Q175.0,52.1 175.6,52.7 L176.2,51.9 Q175.6,51.3 175.0,50.8 Q174.4,50.3 173.4,49.6 L172.8,50.5 Z M163.9,52.0 L163.9,53.1 L168.3,53.1 L168.3,56.0 L162.9,56.0 L162.9,57.1 L168.3,57.1 L168.3,63.8 L169.4,63.8 L169.4,57.1 L175.0,57.1 Q174.8,59.5 174.7,60.0 Q174.6,60.5 174.3,60.8 Q174.1,61.0 174.0,61.0 Q174.0,61.0 173.6,61.0 Q173.3,61.0 172.8,61.0 Q172.3,61.0 171.4,60.9 Q171.6,61.2 171.7,61.5 Q171.7,61.7 171.8,62.0 Q172.7,62.1 173.1,62.1 Q173.6,62.1 174.0,62.0 Q174.6,62.0 174.8,62.0 Q174.9,61.9 175.2,61.6 Q175.7,61.1 175.8,60.5 Q175.9,59.8 176.1,56.5 Q176.2,56.4 176.2,56.2 Q176.2,56.0 176.2,56.0 L174.0,56.0 L174.0,52.0 L169.4,52.0 L169.4,49.2 L168.3,49.2 L168.3,52.0 L163.9,52.0 Z M169.4,56.0 L169.4,53.1 L172.9,53.1 L172.9,56.0 L169.4,56.0 Z"/><path d="M188.0,62.0 L189.5,62.0 L190.5,59.0 L194.5,59.0 L195.6,62.0 L197.0,62.0 L193.3,51.0 L191.8,51.0 L188.0,62.0 Z M190.9,57.9 L191.4,56.1 Q191.8,54.8 192.0,54.1 Q192.1,53.5 192.5,52.1 L192.5,52.1 Q192.9,53.5 193.1,54.1 Q193.2,54.8 193.7,56.1 L194.2,57.9 L190.9,57.9 Z"/><path d="M203.9,56.0 L203.9,52.1 L205.7,52.1 Q207.5,52.1 207.9,52.4 Q208.4,52.6 208.4,54.0 Q208.4,55.3 207.9,55.7 Q207.5,56.0 205.7,56.0 L203.9,56.0 Z M208.5,62.0 L210.1,62.0 L207.3,57.0 Q208.8,56.6 209.3,56.1 Q209.8,55.6 209.8,54.0 Q209.8,51.8 209.0,51.4 Q208.2,51.0 205.9,51.0 L202.5,51.0 L202.5,62.0 L203.9,62.0 L203.9,57.1 L205.9,57.1 L208.5,62.0 Z"/><path d="M220.8,62.0 Q222.3,62.0 222.9,61.7 Q223.5,61.5 224.2,60.7 L224.2,56.0 L220.6,56.0 L220.6,57.2 L222.9,57.2 L222.9,60.1 Q222.5,60.5 222.1,60.7 Q221.7,60.8 221.0,60.8 Q218.6,60.8 217.9,59.9 Q217.3,59.0 217.3,56.2 Q217.3,53.7 218.0,53.0 Q218.7,52.2 221.0,52.2 Q222.0,52.2 222.4,52.4 Q222.8,52.6 223.3,53.1 L224.1,52.3 Q223.4,51.7 222.9,51.4 Q222.4,51.0 220.9,51.0 Q218.0,51.0 216.9,52.0 Q215.9,53.0 215.9,56.2 Q215.9,59.9 216.9,60.9 Q217.9,62.0 220.8,62.0 Z"/><path d="M234.4,62.0 Q236.6,62.0 237.5,61.4 Q238.4,60.8 238.4,57.3 L238.4,51.0 L237.0,51.0 L237.0,57.4 Q237.0,60.0 236.4,60.4 Q235.9,60.8 234.4,60.8 Q233.0,60.8 232.4,60.4 Q231.8,60.0 231.8,57.4 L231.8,51.0 L230.5,51.0 L230.5,57.3 Q230.5,60.8 231.3,61.4 Q232.2,62.0 234.4,62.0 Z"/><path d="M245.5,62.0 L246.8,62.0 L246.8,56.0 Q246.8,55.0 246.7,54.3 Q246.7,53.7 246.6,52.7 L246.6,52.7 L247.5,55.2 L249.6,61.0 L250.5,61.0 L252.6,55.2 L253.5,52.7 L253.5,52.7 Q253.5,53.7 253.4,54.3 Q253.4,55.0 253.4,56.0 L253.4,62.0 L254.7,62.0 L254.7,51.0 L253.0,51.0 L250.9,57.0 Q250.6,57.7 250.5,58.1 Q250.4,58.5 250.1,59.3 L250.1,59.3 Q249.8,58.5 249.7,58.1 Q249.6,57.7 249.3,57.0 L247.2,51.0 L245.5,51.0 L245.5,62.0 Z"/><path d="M261.5,62.0 L268.0,62.0 L268.0,60.8 L262.9,60.8 L262.9,57.0 L267.1,57.0 L267.1,55.8 L262.9,55.8 L262.9,52.2 L267.8,52.2 L267.8,51.0 L261.5,51.0 L261.5,62.0 Z"/><path d="M274.5,62.0 L275.8,62.0 L275.8,56.2 Q275.8,55.1 275.8,54.5 Q275.7,53.9 275.6,52.8 L275.7,52.8 L276.9,55.1 L280.9,62.0 L282.3,62.0 L282.3,51.0 L281.0,51.0 L281.0,56.7 Q281.0,57.9 281.1,58.5 Q281.1,59.1 281.2,60.2 L281.1,60.2 L279.9,57.9 L275.9,51.0 L274.5,51.0 L274.5,62.0 Z"/><path d="M291.8,62.0 L293.2,62.0 L293.2,52.2 L296.5,52.2 L296.5,51.0 L288.5,51.0 L288.5,52.2 L291.8,52.2 L291.8,62.0 Z"/><path d="M311.9,62.0 Q313.2,62.0 313.7,61.8 Q314.2,61.5 315.0,60.8 Q315.9,61.4 316.4,61.6 Q316.8,61.8 317.6,62.0 L317.9,60.9 Q317.3,60.7 317.0,60.5 Q316.6,60.4 315.9,59.9 Q316.8,58.8 317.1,58.1 Q317.4,57.5 317.8,56.1 L316.5,56.1 Q316.2,57.3 315.9,57.8 Q315.7,58.3 315.0,59.2 Q314.0,58.4 313.4,57.9 Q312.9,57.3 312.2,56.2 Q313.4,55.4 314.0,54.9 Q314.7,54.5 314.7,53.1 Q314.7,51.9 314.3,51.4 Q313.9,51.0 312.5,51.0 Q311.0,51.0 310.5,51.6 Q310.0,52.1 310.0,53.5 Q310.0,54.3 310.1,54.7 Q310.2,55.1 310.7,56.0 Q309.6,56.8 309.0,57.2 Q308.5,57.6 308.5,59.0 Q308.5,60.7 309.2,61.4 Q309.9,62.0 311.9,62.0 Z M314.1,60.1 Q313.5,60.6 313.2,60.7 Q312.8,60.9 312.0,60.9 Q310.8,60.9 310.3,60.5 Q309.9,60.2 309.9,59.0 Q309.9,58.2 310.2,57.8 Q310.5,57.5 311.3,56.9 Q312.0,58.0 312.5,58.6 Q313.1,59.2 314.1,60.1 Z M311.7,55.4 Q311.4,54.7 311.3,54.4 Q311.2,54.1 311.2,53.5 Q311.2,52.6 311.4,52.3 Q311.7,52.0 312.5,52.0 Q313.2,52.0 313.4,52.2 Q313.6,52.5 313.6,53.2 Q313.6,54.1 313.1,54.4 Q312.7,54.7 311.7,55.4 Z"/><path d="M330.5,62.0 L333.3,62.0 Q336.6,62.0 337.5,61.0 Q338.4,60.0 338.4,56.5 Q338.4,53.0 337.5,52.0 Q336.6,51.0 333.2,51.0 L330.5,51.0 L330.5,62.0 Z M331.9,60.9 L331.9,52.1 L333.1,52.1 Q335.7,52.1 336.4,52.9 Q337.0,53.7 337.0,56.5 Q337.0,59.2 336.4,60.1 Q335.7,60.9 333.1,60.9 L331.9,60.9 Z"/><path d="M348.6,62.0 Q351.3,62.0 352.3,60.9 Q353.2,59.8 353.2,56.5 Q353.2,53.1 352.3,52.0 Q351.3,51.0 348.6,51.0 Q345.8,51.0 344.8,52.0 Q343.9,53.1 343.9,56.5 Q343.9,59.8 344.8,60.9 Q345.8,62.0 348.6,62.0 Z M348.6,60.8 Q346.6,60.8 345.9,59.9 Q345.3,59.1 345.3,56.5 Q345.3,53.8 345.9,53.0 Q346.6,52.2 348.6,52.2 Q350.5,52.2 351.2,53.0 Q351.8,53.8 351.8,56.5 Q351.8,59.1 351.2,59.9 Q350.5,60.8 348.6,60.8 Z"/><path d="M363.6,62.0 Q365.1,62.0 365.6,61.7 Q366.2,61.4 367.0,60.5 L366.2,59.6 Q365.5,60.3 365.1,60.6 Q364.8,60.8 363.7,60.8 Q361.6,60.8 360.9,60.0 Q360.3,59.1 360.3,56.5 Q360.3,53.8 361.0,53.0 Q361.7,52.2 363.8,52.2 Q364.7,52.2 365.1,52.4 Q365.4,52.6 366.0,53.2 L366.8,52.3 Q366.1,51.7 365.6,51.3 Q365.1,51.0 363.7,51.0 Q361.0,51.0 359.9,52.1 Q358.9,53.1 358.9,56.5 Q358.9,59.9 359.9,61.0 Q360.9,62.0 363.6,62.0 Z"/><path d="M377.4,62.0 Q379.6,62.0 380.5,61.4 Q381.4,60.8 381.4,57.3 L381.4,51.0 L380.0,51.0 L380.0,57.4 Q380.0,60.0 379.4,60.4 Q378.9,60.8 377.4,60.8 Q376.0,60.8 375.4,60.4 Q374.8,60.0 374.8,57.4 L374.8,51.0 L373.5,51.0 L373.5,57.3 Q373.5,60.8 374.3,61.4 Q375.2,62.0 377.4,62.0 Z"/><path d="M388.5,62.0 L389.8,62.0 L389.8,56.0 Q389.8,55.0 389.7,54.3 Q389.7,53.7 389.6,52.7 L389.6,52.7 L390.5,55.2 L392.6,61.0 L393.5,61.0 L395.6,55.2 L396.5,52.7 L396.5,52.7 Q396.5,53.7 396.4,54.3 Q396.4,55.0 396.4,56.0 L396.4,62.0 L397.7,62.0 L397.7,51.0 L396.0,51.0 L393.9,57.0 Q393.6,57.7 393.5,58.1 Q393.4,58.5 393.1,59.3 L393.1,59.3 Q392.8,58.5 392.7,58.1 Q392.6,57.7 392.3,57.0 L390.2,51.0 L388.5,51.0 L388.5,62.0 Z"/><path d="M404.5,62.0 L411.0,62.0 L411.0,60.8 L405.9,60.8 L405.9,57.0 L410.1,57.0 L410.1,55.8 L405.9,55.8 L405.9,52.2 L410.8,52.2 L410.8,51.0 L404.5,51.0 L404.5,62.0 Z"/><path d="M417.5,62.0 L418.8,62.0 L418.8,56.2 Q418.8,55.1 418.8,54.5 Q418.7,53.9 418.6,52.8 L418.7,52.8 L419.9,55.1 L423.9,62.0 L425.3,62.0 L425.3,51.0 L424.0,51.0 L424.0,56.7 Q424.0,57.9 424.1,58.5 Q424.1,59.1 424.2,60.2 L424.1,60.2 L422.9,57.9 L418.9,51.0 L417.5,51.0 L417.5,62.0 Z"/><path d="M434.8,62.0 L436.2,62.0 L436.2,52.2 L439.5,52.2 L439.5,51.0 L431.5,51.0 L431.5,52.2 L434.8,52.2 L434.8,62.0 Z"/><path d="M448.5,62.0 Q450.8,62.0 451.6,61.3 Q452.3,60.6 452.3,59.0 Q452.3,57.4 451.8,57.0 Q451.3,56.7 450.0,56.2 L448.5,55.5 Q447.6,55.2 447.1,55.0 Q446.6,54.8 446.6,53.8 Q446.6,52.8 447.0,52.5 Q447.4,52.2 448.7,52.2 Q449.7,52.2 450.1,52.4 Q450.5,52.6 451.2,53.2 L451.9,52.3 Q451.1,51.6 450.6,51.3 Q450.0,51.0 448.7,51.0 Q446.7,51.0 446.0,51.6 Q445.2,52.2 445.2,53.8 Q445.2,55.4 445.8,55.8 Q446.4,56.1 447.5,56.5 L449.0,57.2 Q450.1,57.6 450.5,57.8 Q450.9,58.0 450.9,59.1 Q450.9,60.1 450.4,60.5 Q450.0,60.8 448.6,60.8 Q447.4,60.8 446.9,60.5 Q446.3,60.3 445.5,59.5 L444.7,60.4 Q445.7,61.4 446.3,61.7 Q447.0,62.0 448.5,62.0 Z"/></g>
</svg>
