<svg xmlns="http://www.w3.org/2000/svg" viewBox="0 0 1200 72" width="1200" height="72" role="img" aria-label="PROCESS · 处理层">
  <rect width="1200" height="72" fill="none"/>
  <line x1="0" y1="2" x2="1200" y2="2" stroke="#2a2d34" stroke-width="2"/>
  <g fill="#b5462f"><path d="M11.3,52.0 L18.5,52.0 L18.5,22.0 L11.3,22.0 L11.3,52.0 Z M25.4,52.0 L32.6,52.0 L32.6,22.0 L25.4,22.0 L25.4,52.0 Z"/></g>
  <g fill="#2a2d34"><path d="M86.1,40.0 L90.4,40.0 L90.4,34.0 L92.4,34.0 Q96.2,34.0 97.9,33.1 Q99.5,32.1 99.5,27.9 Q99.5,23.4 97.9,22.7 Q96.2,22.0 92.3,22.0 L86.1,22.0 L86.1,40.0 Z M90.4,30.6 L90.4,25.4 L92.1,25.4 Q94.2,25.4 94.8,25.7 Q95.3,26.0 95.3,27.9 Q95.3,29.6 94.8,30.1 Q94.3,30.6 92.2,30.6 L90.4,30.6 Z"/><path d="M108.4,30.0 L108.4,25.4 L110.3,25.4 Q112.3,25.4 112.9,25.7 Q113.4,25.9 113.4,27.5 Q113.4,29.2 112.9,29.6 Q112.3,30.0 110.3,30.0 L108.4,30.0 Z M113.7,40.0 L118.5,40.0 L114.5,32.6 Q116.4,31.7 117.0,30.9 Q117.6,30.1 117.6,27.5 Q117.6,23.3 116.0,22.7 Q114.4,22.0 110.6,22.0 L104.1,22.0 L104.1,40.0 L108.4,40.0 L108.4,33.4 L110.4,33.4 L113.7,40.0 Z"/><path d="M130.4,40.0 Q135.3,40.0 137.0,38.2 Q138.6,36.5 138.6,30.9 Q138.6,25.3 137.0,23.7 Q135.3,22.0 130.4,22.0 Q125.5,22.0 123.9,23.7 Q122.2,25.3 122.2,30.9 Q122.2,36.5 123.9,38.2 Q125.5,40.0 130.4,40.0 Z M130.4,36.3 Q128.1,36.3 127.4,35.3 Q126.6,34.2 126.6,30.9 Q126.6,27.6 127.4,26.7 Q128.1,25.7 130.4,25.7 Q132.8,25.7 133.5,26.7 Q134.2,27.6 134.2,30.9 Q134.2,34.2 133.5,35.3 Q132.8,36.3 130.4,36.3 Z"/><path d="M151.6,40.0 Q153.9,40.0 154.9,39.6 Q155.9,39.1 157.5,37.4 L155.2,34.8 Q154.4,35.6 153.8,36.0 Q153.2,36.3 151.8,36.3 Q149.3,36.3 148.4,35.3 Q147.6,34.3 147.6,31.0 Q147.6,27.6 148.6,26.7 Q149.5,25.7 151.8,25.7 Q153.1,25.7 153.6,26.0 Q154.0,26.2 155.0,27.0 L157.2,24.3 Q156.0,23.1 155.0,22.5 Q154.1,22.0 151.8,22.0 Q147.2,22.0 145.2,23.7 Q143.2,25.4 143.2,31.1 Q143.2,36.9 145.2,38.4 Q147.1,40.0 151.6,40.0 Z"/><path d="M162.1,40.0 L173.7,40.0 L173.7,36.4 L166.4,36.4 L166.4,32.6 L172.3,32.6 L172.3,29.0 L166.4,29.0 L166.4,25.6 L173.4,25.6 L173.4,22.0 L162.1,22.0 L162.1,40.0 Z"/><path d="M184.6,40.0 Q188.9,40.0 190.2,38.7 Q191.4,37.4 191.4,34.5 Q191.4,32.1 190.8,31.4 Q190.1,30.7 187.9,29.8 L185.7,29.0 Q184.1,28.4 183.5,28.2 Q183.0,28.0 183.0,27.1 Q183.0,26.2 183.4,25.9 Q183.8,25.7 185.1,25.7 Q186.5,25.7 187.0,25.9 Q187.6,26.1 188.8,27.0 L190.9,24.4 Q189.3,22.8 188.2,22.4 Q187.1,22.0 185.1,22.0 Q181.3,22.0 179.9,23.2 Q178.6,24.4 178.6,27.3 Q178.6,29.8 179.5,30.5 Q180.4,31.3 182.2,32.0 L184.5,32.9 Q186.0,33.5 186.5,33.7 Q187.0,33.8 187.0,34.8 Q187.0,35.7 186.7,36.0 Q186.3,36.3 184.7,36.3 Q183.3,36.3 182.5,36.0 Q181.6,35.6 180.4,34.6 L177.9,37.4 Q179.8,39.1 181.0,39.6 Q182.3,40.0 184.6,40.0 Z"/><path d="M201.6,40.0 Q205.9,40.0 207.2,38.7 Q208.4,37.4 208.4,34.5 Q208.4,32.1 207.8,31.4 Q207.1,30.7 204.9,29.8 L202.7,29.0 Q201.1,28.4 200.5,28.2 Q200.0,28.0 200.0,27.1 Q200.0,26.2 200.4,25.9 Q200.8,25.7 202.1,25.7 Q203.5,25.7 204.0,25.9 Q204.6,26.1 205.8,27.0 L207.9,24.4 Q206.3,22.8 205.2,22.4 Q204.1,22.0 202.1,22.0 Q198.3,22.0 196.9,23.2 Q195.6,24.4 195.6,27.3 Q195.6,29.8 196.5,30.5 Q197.4,31.3 199.2,32.0 L201.5,32.9 Q203.0,33.5 203.5,33.7 Q204.0,33.8 204.0,34.8 Q204.0,35.7 203.7,36.0 Q203.3,36.3 201.7,36.3 Q200.3,36.3 199.5,36.0 Q198.6,35.6 197.4,34.6 L194.9,37.4 Q196.8,39.1 198.0,39.6 Q199.3,40.0 201.6,40.0 Z"/><path d="M226.3,33.3 Q227.8,33.3 228.3,32.7 Q228.9,32.1 228.9,30.6 Q228.9,29.2 228.3,28.6 Q227.8,28.0 226.3,28.0 Q224.8,28.0 224.3,28.6 Q223.8,29.2 223.8,30.6 Q223.8,32.1 224.3,32.7 Q224.8,33.3 226.3,33.3 Z"/><path d="M253.1,26.2 Q252.8,28.6 252.6,29.6 Q252.3,30.6 251.7,32.4 Q251.1,31.1 250.8,30.4 Q250.6,29.6 250.1,27.9 L250.6,26.2 L253.1,26.2 Z M248.4,19.1 Q247.7,24.1 247.1,26.6 Q246.4,29.2 244.7,31.7 Q245.6,32.2 246.2,32.7 Q246.9,33.2 247.5,33.8 Q247.8,33.4 248.0,33.1 Q248.1,32.9 248.4,32.4 Q248.8,33.7 249.1,34.3 Q249.4,34.9 249.9,36.0 Q248.5,38.0 247.6,38.8 Q246.7,39.5 244.4,40.4 Q245.3,41.0 246.0,41.6 Q246.7,42.3 247.3,43.1 Q249.2,42.2 250.1,41.6 Q250.9,41.0 252.2,39.2 Q255.0,41.9 256.7,42.3 Q258.4,42.7 262.3,42.7 L266.4,42.7 Q266.7,41.6 266.9,40.7 Q267.2,39.8 267.8,39.0 Q266.5,39.0 265.0,39.0 Q263.6,39.0 262.5,39.0 Q259.4,39.0 257.9,38.7 Q256.5,38.4 254.1,36.0 Q255.6,32.7 256.1,30.6 Q256.6,28.6 257.0,23.5 L254.6,22.9 L254.0,23.0 L251.4,23.0 Q251.7,22.0 251.8,21.4 Q251.9,20.9 252.1,19.9 L248.4,19.1 Z M257.8,19.1 L257.8,38.2 L261.5,38.2 L261.5,29.3 Q262.6,30.9 263.0,31.7 Q263.5,32.5 264.0,33.7 L267.2,31.6 Q266.2,29.6 265.1,28.1 Q264.0,26.6 262.4,24.6 L261.5,25.0 L261.5,19.1 L257.8,19.1 Z"/><path d="M282.8,27.7 L284.6,27.7 L284.6,29.1 L282.8,29.1 L282.8,27.7 Z M287.5,27.7 L289.2,27.7 L289.2,29.1 L287.5,29.1 L287.5,27.7 Z M282.8,23.0 L284.6,23.0 L284.6,25.0 L282.8,25.0 L282.8,23.0 Z M287.5,23.0 L289.2,23.0 L289.2,25.0 L287.5,25.0 L287.5,23.0 Z M278.0,38.9 L278.0,42.0 L293.5,42.0 L293.5,38.9 L287.9,38.9 L287.9,37.0 L292.7,37.0 L292.7,33.9 L287.9,33.9 L287.9,32.0 L292.5,32.0 L292.5,20.1 L279.7,20.1 L279.7,32.0 L284.3,32.0 L284.3,33.9 L279.6,33.9 L279.6,37.0 L284.3,37.0 L284.3,38.9 L278.0,38.9 Z M270.4,37.0 L271.2,40.7 Q273.6,39.9 275.1,39.5 Q276.6,39.0 279.3,38.0 L278.7,34.6 L276.5,35.3 L276.5,31.0 L278.5,31.0 L278.5,27.8 L276.5,27.8 L276.5,24.0 L278.9,24.0 L278.9,20.8 L270.7,20.8 L270.7,24.0 L273.2,24.0 L273.2,27.8 L270.9,27.8 L270.9,31.0 L273.2,31.0 L273.2,36.3 Q272.2,36.6 271.7,36.7 Q271.2,36.8 270.4,37.0 Z"/><path d="M303.5,29.0 L303.5,32.0 L317.1,32.0 L317.1,29.0 L303.5,29.0 Z M298.5,20.1 L298.5,27.7 Q298.5,31.4 298.4,34.5 Q298.3,37.6 296.4,41.1 Q297.2,41.4 298.0,41.9 Q298.8,42.3 299.5,42.8 Q301.6,39.0 301.8,35.6 Q302.0,32.1 302.0,27.9 L317.9,27.9 L317.9,20.1 L298.5,20.1 Z M302.0,23.0 L314.3,23.0 L314.3,25.0 L302.0,25.0 L302.0,23.0 Z M303.8,43.0 Q304.8,42.6 305.5,42.6 Q306.2,42.5 314.5,41.8 Q314.7,42.3 314.8,42.6 Q314.9,42.8 315.1,43.2 L318.4,41.8 Q317.8,40.5 317.2,39.5 Q316.6,38.5 315.6,37.0 L318.8,37.0 L318.8,34.0 L302.3,34.0 L302.3,37.0 L305.1,37.0 Q304.6,38.0 304.3,38.4 Q304.0,38.8 303.8,39.1 Q303.4,39.6 303.2,39.8 Q303.0,40.0 302.5,40.1 Q302.9,40.9 303.2,41.6 Q303.5,42.4 303.8,43.0 Z M312.3,37.9 L313.0,39.2 L307.5,39.5 Q308.1,38.8 308.4,38.3 Q308.7,37.9 309.2,37.0 L314.4,37.0 L312.3,37.9 Z"/></g>
  <g fill="#9aa0ab"><path d="M96.0,56.0 L96.0,59.0 L93.6,59.0 L93.6,56.0 L96.0,56.0 Z M93.6,49.1 Q93.0,51.3 92.5,52.4 Q91.9,53.4 90.6,54.7 Q90.9,55.0 91.0,55.2 Q91.2,55.4 91.4,55.7 Q91.8,55.2 92.0,55.0 Q92.1,54.8 92.5,54.2 L92.5,63.8 L93.6,63.8 L93.6,63.0 L100.4,63.0 L100.4,62.0 L97.1,62.0 L97.1,60.0 L99.8,60.0 L99.8,59.0 L97.1,59.0 L97.1,56.0 L99.8,56.0 L99.8,55.0 L97.1,55.0 L97.1,53.0 L100.1,53.0 L100.1,52.0 L97.1,52.0 Q97.5,51.2 97.7,50.8 Q97.9,50.3 98.2,49.4 L97.1,49.2 Q96.8,50.0 96.6,50.6 Q96.4,51.1 96.0,52.0 L93.7,52.0 Q94.1,51.2 94.3,50.7 Q94.4,50.3 94.7,49.4 L93.6,49.1 Z M96.0,55.0 L93.6,55.0 L93.6,53.0 L96.0,53.0 L96.0,55.0 Z M96.0,60.0 L96.0,62.0 L93.6,62.0 L93.6,60.0 L96.0,60.0 Z M88.7,49.1 L88.7,52.0 L86.7,52.0 L86.7,53.1 L88.7,53.1 L88.7,56.8 L86.4,57.7 L86.7,59.2 L88.7,58.4 L88.7,62.6 Q88.7,62.9 88.6,62.9 Q88.6,62.9 88.4,62.9 Q88.2,62.9 87.9,62.9 Q87.6,62.9 86.9,62.9 Q87.1,63.2 87.1,63.5 Q87.2,63.7 87.3,64.0 Q88.2,64.0 88.6,64.0 Q88.9,64.0 89.2,63.8 Q89.6,63.6 89.7,63.5 Q89.8,63.3 89.8,62.6 L89.8,57.9 L91.4,57.1 L91.2,55.8 L89.8,56.3 L89.8,53.1 L91.2,53.1 L91.2,52.0 L89.8,52.0 L89.8,49.1 L88.7,49.1 Z"/><path d="M112.1,53.9 L114.4,53.9 L114.4,56.0 L112.1,56.0 L112.1,53.9 Z M115.4,53.9 L117.7,53.9 L117.7,56.0 L115.4,56.0 L115.4,53.9 Z M112.1,51.0 L114.4,51.0 L114.4,53.0 L112.1,53.0 L112.1,51.0 Z M115.4,51.0 L117.7,51.0 L117.7,53.0 L115.4,53.0 L115.4,51.0 Z M109.8,62.0 L109.8,63.0 L119.5,63.0 L119.5,62.0 L115.5,62.0 L115.5,60.0 L119.0,60.0 L119.0,59.0 L115.5,59.0 L115.5,57.0 L118.8,57.0 L118.8,50.0 L111.1,50.0 L111.1,57.0 L114.3,57.0 L114.3,59.0 L110.9,59.0 L110.9,60.0 L114.3,60.0 L114.3,62.0 L109.8,62.0 Z M105.5,60.9 L105.8,62.0 Q107.1,61.6 108.0,61.3 Q108.8,61.0 110.5,60.5 L110.3,59.4 L108.6,60.0 L108.6,56.0 L110.1,56.0 L110.1,55.0 L108.6,55.0 L108.6,51.1 L110.4,51.1 L110.4,50.0 L105.7,50.0 L105.7,51.1 L107.5,51.1 L107.5,55.0 L105.8,55.0 L105.8,56.0 L107.5,56.0 L107.5,60.3 Q106.8,60.5 106.4,60.6 Q106.1,60.7 105.5,60.9 Z"/><path d="M128.5,49.0 Q128.1,51.1 127.8,53.0 Q127.5,54.9 127.0,56.7 L128.1,56.8 L128.3,56.1 L134.6,56.1 Q134.5,56.8 134.5,57.1 Q134.4,57.4 134.3,58.0 L124.8,58.0 L124.8,59.1 L134.2,59.1 Q133.9,61.2 133.8,61.8 Q133.6,62.3 133.2,62.8 Q133.0,63.0 132.9,63.0 Q132.8,63.0 132.5,63.0 Q132.0,63.0 131.5,63.0 Q130.9,63.0 129.8,62.8 Q130.0,63.2 130.1,63.4 Q130.1,63.7 130.2,64.0 Q131.2,64.1 131.8,64.1 Q132.3,64.1 132.9,64.0 Q133.5,64.0 133.6,64.0 Q133.8,63.9 134.2,63.5 Q134.7,63.1 134.9,62.4 Q135.0,61.8 135.3,59.1 L138.2,59.1 L138.2,58.0 L135.5,58.0 Q135.6,57.3 135.6,56.9 Q135.7,56.5 135.8,55.6 Q135.8,55.4 135.8,55.2 Q135.8,55.0 135.8,55.0 L128.6,55.0 L129.1,52.1 L136.7,52.1 L136.7,51.0 L129.3,51.0 L129.7,49.1 L128.5,49.0 Z"/><path d="M155.6,49.4 L155.6,62.5 Q155.6,62.8 155.5,62.8 Q155.5,62.9 155.2,62.9 Q154.9,62.9 154.4,62.9 Q153.9,62.9 152.9,62.9 Q153.0,63.2 153.1,63.4 Q153.2,63.7 153.3,64.0 Q154.7,64.0 155.1,64.0 Q155.5,64.0 156.0,63.8 Q156.5,63.6 156.6,63.4 Q156.7,63.3 156.7,62.5 L156.7,49.4 L155.6,49.4 Z M144.0,50.2 Q144.5,51.2 144.7,51.9 Q145.0,52.5 145.1,53.4 L146.1,53.0 Q145.9,52.2 145.7,51.6 Q145.4,50.9 144.9,50.0 L144.0,50.2 Z M151.9,50.9 L151.9,60.0 L153.0,60.0 L153.0,50.9 L151.9,50.9 Z M150.0,49.9 Q149.8,50.8 149.5,51.5 Q149.2,52.2 148.8,53.1 L149.6,53.4 Q150.1,52.5 150.4,51.9 Q150.7,51.3 151.1,50.2 L150.0,49.9 Z M146.9,49.1 L146.9,54.0 L144.0,54.0 L144.0,55.0 L146.9,55.0 L146.9,57.9 L143.6,57.9 L143.6,59.0 L146.9,59.0 L146.9,64.0 L148.0,64.0 L148.0,59.0 L151.3,59.0 L151.3,57.9 L148.0,57.9 L148.0,55.0 L150.9,55.0 L150.9,54.0 L148.0,54.0 L148.0,49.1 L146.9,49.1 Z"/><path d="M168.9,50.2 Q168.7,51.1 168.5,51.7 Q168.3,52.3 168.0,53.1 L168.7,53.4 Q169.0,52.7 169.3,52.1 Q169.5,51.5 169.8,50.5 L168.9,50.2 Z M164.8,50.5 Q165.1,51.4 165.2,52.0 Q165.4,52.6 165.4,53.3 L166.2,53.1 Q166.2,52.3 166.0,51.7 Q165.9,51.1 165.5,50.3 L164.8,50.5 Z M166.8,49.3 L166.8,54.0 L164.6,54.0 L164.6,55.0 L166.6,55.0 Q166.1,56.4 165.6,57.2 Q165.2,57.9 164.3,58.8 Q164.5,59.0 164.6,59.2 Q164.7,59.5 164.8,59.8 Q165.5,59.0 165.9,58.5 Q166.2,57.9 166.8,56.6 L166.8,60.6 L167.7,60.6 L167.7,56.7 Q168.2,57.3 168.6,57.7 Q168.9,58.1 169.1,58.5 L169.8,57.6 Q169.5,57.3 168.8,56.6 Q168.1,56.0 167.7,55.6 L167.7,55.0 L169.8,55.0 L169.8,54.0 L167.7,54.0 L167.7,49.3 L166.8,49.3 Z M175.4,49.4 Q174.4,49.9 173.6,50.2 Q172.8,50.4 171.3,50.8 L170.5,50.5 L170.5,56.1 Q170.5,57.7 170.4,58.6 Q170.4,59.5 169.7,61.2 L169.7,61.0 L164.2,61.0 L164.2,49.8 L163.2,49.8 L163.2,63.2 L164.2,63.2 L164.2,62.0 L169.3,62.0 Q169.1,62.4 168.9,62.6 Q168.8,62.8 168.5,63.1 Q168.8,63.3 168.9,63.5 Q169.1,63.7 169.3,64.0 Q171.3,61.7 171.4,60.2 Q171.5,58.7 171.5,56.5 L171.5,56.0 L173.8,56.0 L173.8,63.8 L174.8,63.8 L174.8,56.0 L176.5,56.0 L176.5,55.0 L171.5,55.0 L171.5,52.0 Q173.2,51.6 174.1,51.3 Q175.0,51.1 176.3,50.4 L175.4,49.4 Z"/><path d="M190.9,56.0 L190.9,52.1 L192.7,52.1 Q194.5,52.1 194.9,52.4 Q195.4,52.6 195.4,54.0 Q195.4,55.3 194.9,55.7 Q194.5,56.0 192.7,56.0 L190.9,56.0 Z M195.5,62.0 L197.1,62.0 L194.3,57.0 Q195.8,56.6 196.3,56.1 Q196.8,55.6 196.8,54.0 Q196.8,51.8 196.0,51.4 Q195.2,51.0 192.9,51.0 L189.5,51.0 L189.5,62.0 L190.9,62.0 L190.9,57.1 L192.9,57.1 L195.5,62.0 Z"/><path d="M203.5,62.0 L210.0,62.0 L210.0,60.8 L204.9,60.8 L204.9,57.0 L209.1,57.0 L209.1,55.8 L204.9,55.8 L204.9,52.2 L209.8,52.2 L209.8,51.0 L203.5,51.0 L203.5,62.0 Z"/><path d="M215.0,62.0 L216.5,62.0 L217.5,59.0 L221.5,59.0 L222.6,62.0 L224.0,62.0 L220.3,51.0 L218.8,51.0 L215.0,62.0 Z M217.9,57.9 L218.4,56.1 Q218.8,54.8 219.0,54.1 Q219.1,53.5 219.5,52.1 L219.5,52.1 Q219.9,53.5 220.1,54.1 Q220.2,54.8 220.7,56.1 L221.2,57.9 L217.9,57.9 Z"/><path d="M232.5,62.0 Q234.8,62.0 235.6,61.3 Q236.3,60.6 236.3,59.0 Q236.3,57.4 235.8,57.0 Q235.3,56.7 234.0,56.2 L232.5,55.5 Q231.6,55.2 231.1,55.0 Q230.6,54.8 230.6,53.8 Q230.6,52.8 231.0,52.5 Q231.4,52.2 232.7,52.2 Q233.7,52.2 234.1,52.4 Q234.5,52.6 235.2,53.2 L235.9,52.3 Q235.1,51.6 234.6,51.3 Q234.0,51.0 232.7,51.0 Q230.7,51.0 230.0,51.6 Q229.2,52.2 229.2,53.8 Q229.2,55.4 229.8,55.8 Q230.4,56.1 231.5,56.5 L233.0,57.2 Q234.1,57.6 234.5,57.8 Q234.9,58.0 234.9,59.1 Q234.9,60.1 234.4,60.5 Q234.0,60.8 232.6,60.8 Q231.4,60.8 230.9,60.5 Q230.3,60.3 229.5,59.5 L228.7,60.4 Q229.7,61.4 230.3,61.7 Q231.0,62.0 232.5,62.0 Z"/><path d="M246.6,62.0 Q249.3,62.0 250.3,60.9 Q251.2,59.8 251.2,56.5 Q251.2,53.1 250.3,52.0 Q249.3,51.0 246.6,51.0 Q243.8,51.0 242.8,52.0 Q241.9,53.1 241.9,56.5 Q241.9,59.8 242.8,60.9 Q243.8,62.0 246.6,62.0 Z M246.6,60.8 Q244.6,60.8 243.9,59.9 Q243.3,59.1 243.3,56.5 Q243.3,53.8 243.9,53.0 Q244.6,52.2 246.6,52.2 Q248.5,52.2 249.2,53.0 Q249.8,53.8 249.8,56.5 Q249.8,59.1 249.2,59.9 Q248.5,60.8 246.6,60.8 Z"/><path d="M257.5,62.0 L258.8,62.0 L258.8,56.2 Q258.8,55.1 258.8,54.5 Q258.7,53.9 258.6,52.8 L258.7,52.8 L259.9,55.1 L263.9,62.0 L265.3,62.0 L265.3,51.0 L264.0,51.0 L264.0,56.7 Q264.0,57.9 264.1,58.5 Q264.1,59.1 264.2,60.2 L264.1,60.2 L262.9,57.9 L258.9,51.0 L257.5,51.0 L257.5,62.0 Z"/><path d="M272.5,62.0 L273.9,62.0 L273.9,51.0 L272.5,51.0 L272.5,62.0 Z"/><path d="M280.5,62.0 L281.8,62.0 L281.8,56.2 Q281.8,55.1 281.8,54.5 Q281.7,53.9 281.6,52.8 L281.7,52.8 L282.9,55.1 L286.9,62.0 L288.3,62.0 L288.3,51.0 L287.0,51.0 L287.0,56.7 Q287.0,57.9 287.1,58.5 Q287.1,59.1 287.2,60.2 L287.1,60.2 L285.9,57.9 L281.9,51.0 L280.5,51.0 L280.5,62.0 Z"/><path d="M299.8,62.0 Q301.3,62.0 301.9,61.7 Q302.5,61.5 303.2,60.7 L303.2,56.0 L299.6,56.0 L299.6,57.2 L301.9,57.2 L301.9,60.1 Q301.5,60.5 301.1,60.7 Q300.7,60.8 300.0,60.8 Q297.6,60.8 296.9,59.9 Q296.3,59.0 296.3,56.2 Q296.3,53.7 297.0,53.0 Q297.7,52.2 300.0,52.2 Q301.0,52.2 301.4,52.4 Q301.8,52.6 302.3,53.1 L303.1,52.3 Q302.4,51.7 301.9,51.4 Q301.4,51.0 299.9,51.0 Q297.0,51.0 295.9,52.0 Q294.9,53.0 294.9,56.2 Q294.9,59.9 295.9,60.9 Q296.9,62.0 299.8,62.0 Z"/><path d="M318.9,62.0 Q320.2,62.0 320.7,61.8 Q321.2,61.5 322.0,60.8 Q322.9,61.4 323.4,61.6 Q323.8,61.8 324.6,62.0 L324.9,60.9 Q324.3,60.7 324.0,60.5 Q323.6,60.4 322.9,59.9 Q323.8,58.8 324.1,58.1 Q324.4,57.5 324.8,56.1 L323.5,56.1 Q323.2,57.3 322.9,57.8 Q322.7,58.3 322.0,59.2 Q321.0,58.4 320.4,57.9 Q319.9,57.3 319.2,56.2 Q320.4,55.4 321.0,54.9 Q321.7,54.5 321.7,53.1 Q321.7,51.9 321.3,51.4 Q320.9,51.0 319.5,51.0 Q318.0,51.0 317.5,51.6 Q317.0,52.1 317.0,53.5 Q317.0,54.3 317.1,54.7 Q317.2,55.1 317.7,56.0 Q316.6,56.8 316.0,57.2 Q315.5,57.6 315.5,59.0 Q315.5,60.7 316.2,61.4 Q316.9,62.0 318.9,62.0 Z M321.1,60.1 Q320.5,60.6 320.2,60.7 Q319.8,60.9 319.0,60.9 Q317.8,60.9 317.3,60.5 Q316.9,60.2 316.9,59.0 Q316.9,58.2 317.2,57.8 Q317.5,57.5 318.3,56.9 Q319.0,58.0 319.5,58.6 Q320.1,59.2 321.1,60.1 Z M318.7,55.4 Q318.4,54.7 318.3,54.4 Q318.2,54.1 318.2,53.5 Q318.2,52.6 318.4,52.3 Q318.7,52.0 319.5,52.0 Q320.2,52.0 320.4,52.2 Q320.6,52.5 320.6,53.2 Q320.6,54.1 320.1,54.4 Q319.7,54.7 318.7,55.4 Z"/><path d="M339.5,62.0 Q341.7,62.0 342.1,61.2 Q342.6,60.5 342.6,58.6 L342.6,51.0 L341.2,51.0 L341.2,58.5 Q341.2,60.1 340.9,60.5 Q340.6,60.8 339.4,60.8 Q338.6,60.8 338.3,60.6 Q338.0,60.4 337.5,59.6 L336.5,60.3 Q337.2,61.4 337.7,61.7 Q338.2,62.0 339.5,62.0 Z"/><path d="M353.4,62.0 Q355.6,62.0 356.5,61.4 Q357.4,60.8 357.4,57.3 L357.4,51.0 L356.0,51.0 L356.0,57.4 Q356.0,60.0 355.4,60.4 Q354.9,60.8 353.4,60.8 Q352.0,60.8 351.4,60.4 Q350.8,60.0 350.8,57.4 L350.8,51.0 L349.5,51.0 L349.5,57.3 Q349.5,60.8 350.3,61.4 Q351.2,62.0 353.4,62.0 Z"/><path d="M364.5,62.0 L367.3,62.0 Q370.6,62.0 371.5,61.0 Q372.4,60.0 372.4,56.5 Q372.4,53.0 371.5,52.0 Q370.6,51.0 367.2,51.0 L364.5,51.0 L364.5,62.0 Z M365.9,60.9 L365.9,52.1 L367.1,52.1 Q369.7,52.1 370.4,52.9 Q371.0,53.7 371.0,56.5 Q371.0,59.2 370.4,60.1 Q369.7,60.9 367.1,60.9 L365.9,60.9 Z"/><path d="M382.8,62.0 Q384.3,62.0 384.9,61.7 Q385.5,61.5 386.2,60.7 L386.2,56.0 L382.6,56.0 L382.6,57.2 L384.9,57.2 L384.9,60.1 Q384.5,60.5 384.1,60.7 Q383.7,60.8 383.0,60.8 Q380.6,60.8 379.9,59.9 Q379.3,59.0 379.3,56.2 Q379.3,53.7 380.0,53.0 Q380.7,52.2 383.0,52.2 Q384.0,52.2 384.4,52.4 Q384.8,52.6 385.3,53.1 L386.1,52.3 Q385.4,51.7 384.9,51.4 Q384.4,51.0 382.9,51.0 Q380.0,51.0 378.9,52.0 Q377.9,53.0 377.9,56.2 Q377.9,59.9 378.9,60.9 Q379.9,62.0 382.8,62.0 Z"/><path d="M392.5,62.0 L393.8,62.0 L393.8,56.0 Q393.8,55.0 393.7,54.3 Q393.7,53.7 393.6,52.7 L393.6,52.7 L394.5,55.2 L396.6,61.0 L397.5,61.0 L399.6,55.2 L400.5,52.7 L400.5,52.7 Q400.5,53.7 400.4,54.3 Q400.4,55.0 400.4,56.0 L400.4,62.0 L401.7,62.0 L401.7,51.0 L400.0,51.0 L397.9,57.0 Q397.6,57.7 397.5,58.1 Q397.4,58.5 397.1,59.3 L397.1,59.3 Q396.8,58.5 396.7,58.1 Q396.6,57.7 396.3,57.0 L394.2,51.0 L392.5,51.0 L392.5,62.0 Z"/><path d="M408.5,62.0 L415.0,62.0 L415.0,60.8 L409.9,60.8 L409.9,57.0 L414.1,57.0 L414.1,55.8 L409.9,55.8 L409.9,52.2 L414.8,52.2 L414.8,51.0 L408.5,51.0 L408.5,62.0 Z"/><path d="M421.5,62.0 L422.8,62.0 L422.8,56.2 Q422.8,55.1 422.8,54.5 Q422.7,53.9 422.6,52.8 L422.7,52.8 L423.9,55.1 L427.9,62.0 L429.3,62.0 L429.3,51.0 L428.0,51.0 L428.0,56.7 Q428.0,57.9 428.1,58.5 Q428.1,59.1 428.2,60.2 L428.1,60.2 L426.9,57.9 L422.9,51.0 L421.5,51.0 L421.5,62.0 Z"/><path d="M438.8,62.0 L440.2,62.0 L440.2,52.2 L443.5,52.2 L443.5,51.0 L435.5,51.0 L435.5,52.2 L438.8,52.2 L438.8,62.0 Z"/></g>
</svg>
