<svg xmlns="http://www.w3.org/2000/svg" viewBox="0 0 1200 72" width="1200" height="72" role="img" aria-label="INPUT · 输入层">
  <rect width="1200" height="72" fill="none"/>
  <line x1="0" y1="2" x2="1200" y2="2" stroke="#2a2d34" stroke-width="2"/>
  <g fill="#b5462f"><path d="M18.4,52.0 L25.6,52.0 L25.6,22.0 L18.4,22.0 L18.4,52.0 Z"/></g>
  <g fill="#2a2d34"><path d="M86.1,40.0 L90.4,40.0 L90.4,22.0 L86.1,22.0 L86.1,40.0 Z"/><path d="M96.1,40.0 L100.1,40.0 L100.1,34.0 Q100.1,31.9 100.0,30.6 Q99.8,29.4 99.6,27.4 L99.7,27.4 L101.5,31.3 L105.9,40.0 L110.2,40.0 L110.2,22.0 L106.2,22.0 L106.2,28.0 Q106.2,30.1 106.3,31.4 Q106.5,32.7 106.7,34.6 L106.6,34.6 L104.9,30.6 L100.4,22.0 L96.1,22.0 L96.1,40.0 Z"/><path d="M116.1,40.0 L120.4,40.0 L120.4,34.0 L122.4,34.0 Q126.2,34.0 127.9,33.1 Q129.5,32.1 129.5,27.9 Q129.5,23.4 127.9,22.7 Q126.2,22.0 122.3,22.0 L116.1,22.0 L116.1,40.0 Z M120.4,30.6 L120.4,25.4 L122.1,25.4 Q124.2,25.4 124.8,25.7 Q125.3,26.0 125.3,27.9 Q125.3,29.6 124.8,30.1 Q124.3,30.6 122.2,30.6 L120.4,30.6 Z"/><path d="M141.2,40.0 Q146.0,40.0 147.2,38.6 Q148.4,37.3 148.4,31.3 L148.4,22.0 L144.2,22.0 L144.2,31.8 Q144.2,35.1 143.7,35.7 Q143.2,36.3 141.2,36.3 Q139.2,36.3 138.7,35.7 Q138.2,35.1 138.2,31.8 L138.2,22.0 L134.0,22.0 L134.0,31.3 Q134.0,37.3 135.2,38.6 Q136.4,40.0 141.2,40.0 Z"/><path d="M157.5,40.0 L161.8,40.0 L161.8,25.6 L166.7,25.6 L166.7,22.0 L152.7,22.0 L152.7,25.6 L157.5,25.6 L157.5,40.0 Z"/><path d="M184.3,33.3 Q185.8,33.3 186.3,32.7 Q186.9,32.1 186.9,30.6 Q186.9,29.2 186.3,28.6 Q185.8,28.0 184.3,28.0 Q182.8,28.0 182.3,28.6 Q181.8,29.2 181.8,30.6 Q181.8,32.1 182.3,32.7 Q182.8,33.3 184.3,33.3 Z"/><path d="M219.2,29.8 L219.2,38.8 L221.7,38.8 L221.7,29.8 L219.2,29.8 Z M222.3,28.8 L222.3,39.6 Q222.3,39.9 222.2,40.0 Q222.2,40.0 221.9,40.0 Q221.5,40.0 221.0,40.0 Q220.5,40.0 219.4,40.0 Q219.8,40.8 220.0,41.3 Q220.1,41.9 220.2,42.7 Q221.8,42.7 222.4,42.6 Q223.0,42.6 223.8,42.2 Q224.7,41.8 224.8,41.4 Q224.9,41.0 224.9,39.7 L224.9,28.8 L222.3,28.8 Z M217.7,18.9 Q216.2,21.2 214.9,22.1 Q213.5,23.0 210.9,24.2 L210.9,21.9 L207.9,21.9 Q208.0,21.2 208.1,20.8 Q208.1,20.4 208.2,19.6 L205.1,19.2 Q205.0,20.1 205.0,20.5 Q204.9,21.0 204.8,21.9 L202.7,21.9 L202.7,25.0 L204.3,25.0 Q204.0,26.7 203.9,27.4 Q203.8,28.1 203.6,28.7 Q203.2,29.8 203.1,30.2 Q202.9,30.5 202.4,30.7 Q202.8,31.4 203.0,32.1 Q203.2,32.8 203.4,33.4 Q203.6,33.2 204.1,33.1 Q204.5,33.0 205.2,33.0 L206.6,33.0 L206.6,35.2 Q205.1,35.4 204.4,35.5 Q203.7,35.7 202.6,35.8 L203.3,39.1 L206.6,38.4 L206.6,42.8 L209.5,42.8 L209.5,37.7 L211.2,37.4 L210.9,34.4 L209.5,34.7 L209.5,33.0 L210.8,33.0 L210.8,29.9 L209.5,29.9 L209.5,26.2 L206.9,26.2 L207.2,25.0 L210.3,25.0 Q211.0,25.8 211.4,26.2 Q211.7,26.6 212.1,27.3 L212.9,26.9 L212.9,27.7 L223.0,27.7 L223.0,26.8 L223.9,27.3 Q224.3,26.4 224.7,25.9 Q225.2,25.4 226.0,24.6 Q223.7,23.7 222.8,23.2 Q221.8,22.6 220.0,20.9 L220.5,20.2 L217.7,18.9 Z M206.6,27.0 L206.6,29.9 L205.9,29.9 Q206.1,29.0 206.3,28.5 Q206.4,28.0 206.6,27.0 Z M215.9,25.0 Q216.7,24.4 217.1,24.1 Q217.5,23.8 218.2,23.0 Q218.8,23.8 219.2,24.1 Q219.5,24.4 220.2,25.0 L215.9,25.0 Z M216.0,31.6 L216.0,32.6 L214.2,32.6 L214.2,31.6 L216.0,31.6 Z M211.5,29.0 L211.5,42.7 L214.2,42.7 L214.2,38.0 L216.0,38.0 L216.0,39.7 Q216.0,39.9 216.0,40.0 Q215.9,40.0 215.8,40.0 Q215.5,40.0 215.2,40.0 Q214.9,40.0 214.4,40.0 Q214.7,40.7 214.9,41.3 Q215.0,41.9 215.1,42.6 Q216.2,42.6 216.7,42.6 Q217.1,42.6 217.8,42.2 Q218.5,41.7 218.6,41.3 Q218.7,40.9 218.7,39.7 L218.7,29.0 L211.5,29.0 Z M214.2,35.0 L216.0,35.0 L216.0,35.6 L214.2,35.6 L214.2,35.0 Z"/><path d="M237.4,26.2 Q236.2,32.5 234.8,34.9 Q233.4,37.3 228.5,39.9 Q229.4,40.5 230.2,41.3 Q231.1,42.1 231.7,42.9 Q235.6,40.4 237.0,38.4 Q238.4,36.4 240.2,31.1 Q241.6,35.5 242.9,37.7 Q244.1,39.9 248.7,42.8 Q249.3,41.9 250.0,41.1 Q250.7,40.2 251.5,39.6 Q243.0,34.3 242.6,29.8 Q242.2,25.2 242.2,20.5 L233.5,20.5 L233.5,24.0 L238.8,24.0 Q238.9,24.8 238.9,25.2 Q239.0,25.6 239.1,26.5 L237.4,26.2 Z"/><path d="M261.5,29.0 L261.5,32.0 L275.1,32.0 L275.1,29.0 L261.5,29.0 Z M256.5,20.1 L256.5,27.7 Q256.5,31.4 256.4,34.5 Q256.3,37.6 254.4,41.1 Q255.2,41.4 256.0,41.9 Q256.8,42.3 257.5,42.8 Q259.6,39.0 259.8,35.6 Q260.0,32.1 260.0,27.9 L275.9,27.9 L275.9,20.1 L256.5,20.1 Z M260.0,23.0 L272.3,23.0 L272.3,25.0 L260.0,25.0 L260.0,23.0 Z M261.8,43.0 Q262.8,42.6 263.5,42.6 Q264.2,42.5 272.5,41.8 Q272.7,42.3 272.8,42.6 Q272.9,42.8 273.1,43.2 L276.4,41.8 Q275.8,40.5 275.2,39.5 Q274.6,38.5 273.6,37.0 L276.8,37.0 L276.8,34.0 L260.3,34.0 L260.3,37.0 L263.1,37.0 Q262.6,38.0 262.3,38.4 Q262.0,38.8 261.8,39.1 Q261.4,39.6 261.2,39.8 Q261.0,40.0 260.5,40.1 Q260.9,40.9 261.2,41.6 Q261.5,42.4 261.8,43.0 Z M270.3,37.9 L271.0,39.2 L265.5,39.5 Q266.1,38.8 266.4,38.3 Q266.7,37.9 267.2,37.0 L272.4,37.0 L270.3,37.9 Z"/></g>
  <g fill="#9aa0ab"><path d="M93.0,54.0 L93.0,55.0 L98.1,55.0 L98.1,54.0 L93.0,54.0 Z M92.0,56.8 Q92.4,58.0 92.6,58.8 Q92.8,59.7 92.9,60.7 L93.8,60.4 Q93.7,59.4 93.5,58.6 Q93.3,57.8 92.8,56.5 L92.0,56.8 Z M94.9,56.3 Q95.1,57.6 95.2,58.4 Q95.4,59.2 95.5,60.3 L96.4,60.1 Q96.3,59.0 96.2,58.2 Q96.0,57.5 95.7,56.2 L94.9,56.3 Z M88.7,49.1 L88.7,52.0 L86.7,52.0 L86.7,53.1 L88.6,53.1 Q88.2,55.3 87.8,56.5 Q87.3,57.8 86.5,59.1 Q86.7,59.4 86.8,59.7 Q86.9,60.0 87.1,60.3 Q87.7,59.3 87.9,58.5 Q88.2,57.7 88.7,56.0 L88.7,63.8 L89.7,63.8 L89.7,55.4 Q90.1,56.2 90.3,56.6 Q90.5,57.1 90.7,57.6 L91.4,56.8 Q91.2,56.3 90.6,55.3 Q90.1,54.4 89.7,53.9 L89.7,53.1 L91.3,53.1 L91.3,52.0 L89.7,52.0 L89.7,49.1 L88.7,49.1 Z M95.4,49.0 Q94.3,51.2 93.4,52.1 Q92.5,53.1 90.7,54.5 Q90.9,54.7 91.0,54.9 Q91.2,55.2 91.3,55.4 Q92.9,54.3 93.6,53.5 Q94.4,52.6 95.5,50.9 Q96.7,52.4 97.5,53.3 Q98.4,54.2 99.9,55.2 Q100.0,54.9 100.1,54.7 Q100.3,54.5 100.5,54.2 Q99.0,53.1 98.0,52.2 Q97.1,51.4 96.0,49.9 L96.3,49.4 L95.4,49.0 Z M91.1,62.0 L91.1,63.0 L100.1,63.0 L100.1,62.0 L97.3,62.0 Q98.1,60.5 98.5,59.4 Q99.0,58.3 99.6,56.5 L98.6,56.2 Q98.1,58.0 97.6,59.2 Q97.2,60.4 96.3,62.0 L91.1,62.0 Z"/><path d="M114.5,61.1 Q115.8,61.8 116.6,62.4 Q117.4,62.9 118.2,63.7 L119.1,63.0 Q118.2,62.2 117.4,61.6 Q116.6,61.1 115.3,60.5 L114.5,61.1 Z M109.3,60.4 Q108.4,61.4 107.7,61.8 Q107.0,62.3 105.7,62.9 Q105.9,63.1 106.1,63.3 Q106.4,63.5 106.5,63.7 Q107.8,63.0 108.6,62.5 Q109.4,62.0 110.4,60.9 L109.3,60.4 Z M106.1,53.0 L106.1,56.0 L107.2,56.0 L107.2,54.0 L111.1,54.0 Q110.6,54.7 110.2,55.0 Q109.8,55.4 109.1,56.0 L108.4,55.5 L107.6,56.3 Q108.6,56.8 109.1,57.2 Q109.7,57.6 110.5,58.3 L109.4,59.0 L106.0,59.0 L106.0,60.1 L111.9,59.9 L111.9,63.9 L113.0,63.9 L113.0,60.0 L117.3,59.8 Q117.7,60.1 117.8,60.3 Q118.0,60.4 118.2,60.7 L119.0,59.9 Q118.2,59.1 117.3,58.5 Q116.5,57.8 115.2,57.0 L114.4,57.6 Q115.0,58.0 115.3,58.3 Q115.6,58.5 116.2,59.0 L111.2,59.0 Q112.7,58.0 113.5,57.3 Q114.3,56.6 115.6,55.4 L114.6,54.8 Q113.8,55.7 113.2,56.2 Q112.6,56.7 111.4,57.6 Q111.0,57.3 110.7,57.1 Q110.5,56.9 110.0,56.6 Q110.8,55.9 111.2,55.5 Q111.7,55.1 112.4,54.3 L111.9,54.0 L117.8,54.0 L117.8,56.0 L118.9,56.0 L118.9,53.0 L113.0,53.0 L113.0,52.0 L118.8,52.0 L118.8,51.0 L113.0,51.0 L113.0,49.3 L111.9,49.3 L111.9,51.0 L106.1,51.0 L106.1,52.0 L111.9,52.0 L111.9,53.0 L106.1,53.0 Z"/><path d="M128.5,49.0 Q128.1,51.1 127.8,53.0 Q127.5,54.9 127.0,56.7 L128.1,56.8 L128.3,56.1 L134.6,56.1 Q134.5,56.8 134.5,57.1 Q134.4,57.4 134.3,58.0 L124.8,58.0 L124.8,59.1 L134.2,59.1 Q133.9,61.2 133.8,61.8 Q133.6,62.3 133.2,62.8 Q133.0,63.0 132.9,63.0 Q132.8,63.0 132.5,63.0 Q132.0,63.0 131.5,63.0 Q130.9,63.0 129.8,62.8 Q130.0,63.2 130.1,63.4 Q130.1,63.7 130.2,64.0 Q131.2,64.1 131.8,64.1 Q132.3,64.1 132.9,64.0 Q133.5,64.0 133.6,64.0 Q133.8,63.9 134.2,63.5 Q134.7,63.1 134.9,62.4 Q135.0,61.8 135.3,59.1 L138.2,59.1 L138.2,58.0 L135.5,58.0 Q135.6,57.3 135.6,56.9 Q135.7,56.5 135.8,55.6 Q135.8,55.4 135.8,55.2 Q135.8,55.0 135.8,55.0 L128.6,55.0 L129.1,52.1 L136.7,52.1 L136.7,51.0 L129.3,51.0 L129.7,49.1 L128.5,49.0 Z"/><path d="M145.0,60.1 L145.0,61.0 L149.9,61.0 L149.9,62.5 Q149.9,62.9 149.8,62.9 Q149.8,63.0 149.5,63.0 Q149.2,63.0 148.8,63.0 Q148.3,63.0 147.4,63.0 Q147.6,63.3 147.7,63.5 Q147.8,63.7 147.8,64.0 Q149.1,64.0 149.5,63.9 Q149.9,63.9 150.3,63.8 Q150.8,63.6 150.9,63.5 Q151.0,63.3 151.0,62.5 L151.0,61.0 L154.6,61.0 L154.6,62.0 L155.8,62.0 L155.8,59.0 L157.3,59.0 L157.3,58.1 L155.8,58.1 L155.8,56.2 L151.0,56.2 L151.0,55.0 L155.5,55.0 L155.5,52.2 L151.0,52.2 L151.0,51.0 L157.0,51.0 L157.0,50.1 L151.0,50.1 L151.0,49.0 L149.9,49.0 L149.9,50.1 L144.0,50.1 L144.0,51.0 L149.9,51.0 L149.9,52.2 L145.6,52.2 L145.6,55.0 L149.9,55.0 L149.9,56.2 L145.1,56.2 L145.1,57.0 L149.9,57.0 L149.9,58.1 L143.7,58.1 L143.7,59.0 L149.9,59.0 L149.9,60.1 L145.0,60.1 Z M146.7,53.0 L149.9,53.0 L149.9,54.2 L146.7,54.2 L146.7,53.0 Z M151.0,53.0 L154.4,53.0 L154.4,54.2 L151.0,54.2 L151.0,53.0 Z M151.0,57.0 L154.6,57.0 L154.6,58.1 L151.0,58.1 L151.0,57.0 Z M151.0,59.0 L154.6,59.0 L154.6,60.1 L151.0,60.1 L151.0,59.0 Z"/><path d="M170.1,61.2 Q172.1,61.9 173.1,62.4 Q174.0,62.9 175.3,63.8 L176.0,63.0 Q174.7,62.1 173.7,61.6 Q172.6,61.1 170.6,60.4 L170.1,61.2 Z M165.6,53.8 Q166.4,54.3 166.9,54.8 Q167.4,55.2 167.8,55.8 L168.5,54.9 Q168.0,54.2 167.6,53.9 Q167.1,53.5 166.3,52.9 L165.6,53.8 Z M164.1,56.5 Q165.0,57.0 165.5,57.5 Q166.0,57.9 166.4,58.5 L167.1,57.5 Q166.6,56.9 166.1,56.5 Q165.6,56.1 164.8,55.6 L164.1,56.5 Z M163.3,51.0 L163.3,54.0 L164.5,54.0 L164.5,52.1 L174.5,52.1 L174.5,54.0 L175.7,54.0 L175.7,51.0 L170.5,51.0 Q170.3,50.4 170.1,50.0 Q169.9,49.6 169.5,49.0 L168.4,49.4 Q168.7,49.9 168.8,50.2 Q169.0,50.5 169.2,51.0 L163.3,51.0 Z M163.1,59.0 L163.1,60.0 L168.5,60.0 Q167.6,61.4 166.9,61.9 Q166.1,62.3 163.2,62.9 Q163.5,63.2 163.6,63.4 Q163.7,63.6 163.9,63.9 Q167.2,63.1 168.1,62.5 Q168.9,61.9 169.8,60.0 L176.0,60.0 L176.0,59.0 L170.1,59.0 Q170.5,57.3 170.6,56.3 Q170.6,55.3 170.7,52.9 L169.5,52.9 Q169.5,55.4 169.4,56.4 Q169.4,57.4 168.9,59.0 L163.1,59.0 Z"/><path d="M190.9,56.0 L190.9,52.1 L192.7,52.1 Q194.5,52.1 194.9,52.4 Q195.4,52.6 195.4,54.0 Q195.4,55.3 194.9,55.7 Q194.5,56.0 192.7,56.0 L190.9,56.0 Z M195.5,62.0 L197.1,62.0 L194.3,57.0 Q195.8,56.6 196.3,56.1 Q196.8,55.6 196.8,54.0 Q196.8,51.8 196.0,51.4 Q195.2,51.0 192.9,51.0 L189.5,51.0 L189.5,62.0 L190.9,62.0 L190.9,57.1 L192.9,57.1 L195.5,62.0 Z"/><path d="M203.5,62.0 L210.0,62.0 L210.0,60.8 L204.9,60.8 L204.9,57.0 L209.1,57.0 L209.1,55.8 L204.9,55.8 L204.9,52.2 L209.8,52.2 L209.8,51.0 L203.5,51.0 L203.5,62.0 Z"/><path d="M218.8,62.0 L220.2,62.0 L220.2,52.2 L223.5,52.2 L223.5,51.0 L215.5,51.0 L215.5,52.2 L218.8,52.2 L218.8,62.0 Z"/><path d="M230.9,56.0 L230.9,52.1 L232.7,52.1 Q234.5,52.1 234.9,52.4 Q235.4,52.6 235.4,54.0 Q235.4,55.3 234.9,55.7 Q234.5,56.0 232.7,56.0 L230.9,56.0 Z M235.5,62.0 L237.1,62.0 L234.3,57.0 Q235.8,56.6 236.3,56.1 Q236.8,55.6 236.8,54.0 Q236.8,51.8 236.0,51.4 Q235.2,51.0 232.9,51.0 L229.5,51.0 L229.5,62.0 L230.9,62.0 L230.9,57.1 L232.9,57.1 L235.5,62.0 Z"/><path d="M243.5,62.0 L244.9,62.0 L244.9,51.0 L243.5,51.0 L243.5,62.0 Z"/><path d="M251.5,62.0 L258.0,62.0 L258.0,60.8 L252.9,60.8 L252.9,57.0 L257.1,57.0 L257.1,55.8 L252.9,55.8 L252.9,52.2 L257.8,52.2 L257.8,51.0 L251.5,51.0 L251.5,62.0 Z"/><path d="M266.5,62.0 L268.1,62.0 L271.6,51.0 L270.2,51.0 L268.4,57.0 Q268.1,58.2 267.9,58.8 Q267.8,59.3 267.4,60.6 L267.3,60.6 Q266.9,59.3 266.8,58.8 Q266.6,58.2 266.2,57.0 L264.5,51.0 L263.0,51.0 L266.5,62.0 Z"/><path d="M276.0,62.0 L277.5,62.0 L278.5,59.0 L282.5,59.0 L283.6,62.0 L285.0,62.0 L281.3,51.0 L279.8,51.0 L276.0,62.0 Z M278.9,57.9 L279.4,56.1 Q279.8,54.8 280.0,54.1 Q280.1,53.5 280.5,52.1 L280.5,52.1 Q280.9,53.5 281.1,54.1 Q281.2,54.8 281.7,56.1 L282.2,57.9 L278.9,57.9 Z"/><path d="M290.5,62.0 L296.7,62.0 L296.7,60.8 L291.9,60.8 L291.9,51.0 L290.5,51.0 L290.5,62.0 Z"/><path d="M311.9,62.0 Q313.2,62.0 313.7,61.8 Q314.2,61.5 315.0,60.8 Q315.9,61.4 316.4,61.6 Q316.8,61.8 317.6,62.0 L317.9,60.9 Q317.3,60.7 317.0,60.5 Q316.6,60.4 315.9,59.9 Q316.8,58.8 317.1,58.1 Q317.4,57.5 317.8,56.1 L316.5,56.1 Q316.2,57.3 315.9,57.8 Q315.7,58.3 315.0,59.2 Q314.0,58.4 313.4,57.9 Q312.9,57.3 312.2,56.2 Q313.4,55.4 314.0,54.9 Q314.7,54.5 314.7,53.1 Q314.7,51.9 314.3,51.4 Q313.9,51.0 312.5,51.0 Q311.0,51.0 310.5,51.6 Q310.0,52.1 310.0,53.5 Q310.0,54.3 310.1,54.7 Q310.2,55.1 310.7,56.0 Q309.6,56.8 309.0,57.2 Q308.5,57.6 308.5,59.0 Q308.5,60.7 309.2,61.4 Q309.9,62.0 311.9,62.0 Z M314.1,60.1 Q313.5,60.6 313.2,60.7 Q312.8,60.9 312.0,60.9 Q310.8,60.9 310.3,60.5 Q309.9,60.2 309.9,59.0 Q309.9,58.2 310.2,57.8 Q310.5,57.5 311.3,56.9 Q312.0,58.0 312.5,58.6 Q313.1,59.2 314.1,60.1 Z M311.7,55.4 Q311.4,54.7 311.3,54.4 Q311.2,54.1 311.2,53.5 Q311.2,52.6 311.4,52.3 Q311.7,52.0 312.5,52.0 Q313.2,52.0 313.4,52.2 Q313.6,52.5 313.6,53.2 Q313.6,54.1 313.1,54.4 Q312.7,54.7 311.7,55.4 Z"/><path d="M330.5,62.0 L331.9,62.0 L331.9,57.0 L336.1,57.0 L336.1,55.8 L331.9,55.8 L331.9,52.2 L336.8,52.2 L336.8,51.0 L330.5,51.0 L330.5,62.0 Z"/><path d="M341.0,62.0 L342.5,62.0 L343.5,59.0 L347.5,59.0 L348.6,62.0 L350.0,62.0 L346.3,51.0 L344.8,51.0 L341.0,62.0 Z M343.9,57.9 L344.4,56.1 Q344.8,54.8 345.0,54.1 Q345.1,53.5 345.5,52.1 L345.5,52.1 Q345.9,53.5 346.1,54.1 Q346.2,54.8 346.7,56.1 L347.2,57.9 L343.9,57.9 Z"/><path d="M359.6,62.0 Q361.1,62.0 361.6,61.7 Q362.2,61.4 363.0,60.5 L362.2,59.6 Q361.5,60.3 361.1,60.6 Q360.8,60.8 359.7,60.8 Q357.6,60.8 356.9,60.0 Q356.3,59.1 356.3,56.5 Q356.3,53.8 357.0,53.0 Q357.7,52.2 359.8,52.2 Q360.7,52.2 361.1,52.4 Q361.4,52.6 362.0,53.2 L362.8,52.3 Q362.1,51.7 361.6,51.3 Q361.1,51.0 359.7,51.0 Q357.0,51.0 355.9,52.1 Q354.9,53.1 354.9,56.5 Q354.9,59.9 355.9,61.0 Q356.9,62.0 359.6,62.0 Z"/><path d="M371.8,62.0 L373.2,62.0 L373.2,52.2 L376.5,52.2 L376.5,51.0 L368.5,51.0 L368.5,52.2 L371.8,52.2 L371.8,62.0 Z"/><path d="M385.5,62.0 Q387.8,62.0 388.6,61.3 Q389.3,60.6 389.3,59.0 Q389.3,57.4 388.8,57.0 Q388.3,56.7 387.0,56.2 L385.5,55.5 Q384.6,55.2 384.1,55.0 Q383.6,54.8 383.6,53.8 Q383.6,52.8 384.0,52.5 Q384.4,52.2 385.7,52.2 Q386.7,52.2 387.1,52.4 Q387.5,52.6 388.2,53.2 L388.9,52.3 Q388.1,51.6 387.6,51.3 Q387.0,51.0 385.7,51.0 Q383.7,51.0 383.0,51.6 Q382.2,52.2 382.2,53.8 Q382.2,55.4 382.8,55.8 Q383.4,56.1 384.5,56.5 L386.0,57.2 Q387.1,57.6 387.5,57.8 Q387.9,58.0 387.9,59.1 Q387.9,60.1 387.4,60.5 Q387.0,60.8 385.6,60.8 Q384.4,60.8 383.9,60.5 Q383.3,60.3 382.5,59.5 L381.7,60.4 Q382.7,61.4 383.3,61.7 Q384.0,62.0 385.5,62.0 Z"/></g>
</svg>
