<svg xmlns="http://www.w3.org/2000/svg" viewBox="0 0 215 30" width="215" height="30" role="img" aria-label="legal-element-extraction">
  <rect x="0.5" y="0.5" width="214" height="29" rx="5" fill="#e1efe9"/>
  <rect x="0" y="0" width="4" height="30" rx="2" fill="#3f7d6e"/>
  <g fill="#2a2d34"><path d="M21.3,20.0 Q21.8,20.0 22.0,20.0 Q22.2,19.9 22.5,19.8 L22.2,18.0 Q22.1,18.0 22.0,18.0 Q22.0,18.0 21.9,18.0 Q21.7,18.0 21.6,17.9 Q21.5,17.8 21.5,17.3 L21.5,8.6 L19.0,8.6 L19.0,17.2 Q19.0,18.9 19.3,19.4 Q19.6,20.0 21.3,20.0 Z"/><path d="M27.8,20.0 Q28.7,20.0 29.3,19.8 Q29.8,19.7 30.7,19.1 L29.8,17.6 Q29.3,17.9 29.0,18.0 Q28.7,18.1 28.2,18.1 Q27.1,18.1 26.8,17.9 Q26.4,17.7 26.2,16.6 L30.8,16.6 Q30.9,16.5 30.9,16.2 Q30.9,16.0 30.9,15.6 Q30.9,13.7 30.4,12.8 Q29.8,12.0 27.5,12.0 Q25.6,12.0 24.7,12.8 Q23.7,13.6 23.7,15.9 Q23.7,18.5 24.6,19.2 Q25.5,20.0 27.8,20.0 Z M26.1,15.0 Q26.3,14.3 26.6,14.1 Q26.9,13.9 27.6,13.9 Q28.5,13.9 28.7,14.1 Q28.8,14.4 28.8,15.0 L26.1,15.0 Z"/><path d="M35.3,23.6 Q38.0,23.6 38.9,23.0 Q39.8,22.4 39.8,20.2 Q39.8,18.7 39.2,18.4 Q38.7,18.1 36.7,18.1 L35.4,18.1 Q34.6,18.1 34.4,18.1 Q34.3,18.0 34.3,17.8 Q34.3,17.6 34.3,17.6 Q34.4,17.5 34.5,17.4 Q34.9,17.5 35.0,17.5 Q35.2,17.5 35.4,17.5 Q37.2,17.5 37.9,17.1 Q38.6,16.7 38.6,14.8 Q38.6,14.4 38.6,14.2 Q38.5,14.0 38.4,13.8 L39.6,13.8 L39.6,12.0 L36.7,12.0 Q36.4,12.1 36.1,12.0 Q35.9,12.0 35.4,12.0 Q33.7,12.0 32.9,12.5 Q32.1,13.0 32.1,14.8 Q32.1,15.7 32.4,16.1 Q32.6,16.4 33.2,16.8 L33.2,16.9 Q32.7,17.2 32.5,17.5 Q32.3,17.7 32.3,18.0 Q32.3,18.7 32.5,18.9 Q32.6,19.1 33.0,19.4 L33.0,19.5 Q32.3,19.8 32.1,20.2 Q31.9,20.5 31.9,21.4 Q31.9,23.0 32.7,23.3 Q33.4,23.6 35.3,23.6 Z M35.4,16.0 Q34.9,16.0 34.7,15.8 Q34.4,15.6 34.4,14.8 Q34.4,14.1 34.7,13.9 Q34.9,13.7 35.4,13.7 Q36.0,13.7 36.3,13.9 Q36.5,14.1 36.5,14.8 Q36.5,15.6 36.3,15.8 Q36.0,16.0 35.4,16.0 Z M35.6,22.0 Q34.6,22.0 34.3,21.8 Q34.0,21.6 34.0,20.9 Q34.0,20.5 34.0,20.3 Q34.1,20.2 34.3,19.9 Q34.6,20.0 34.7,20.0 Q34.9,20.0 35.5,20.0 L36.2,20.0 Q37.0,20.0 37.2,20.1 Q37.4,20.1 37.4,20.8 Q37.4,21.5 37.0,21.7 Q36.7,22.0 35.6,22.0 Z"/><path d="M43.6,20.0 Q44.5,20.0 44.9,19.8 Q45.2,19.6 45.9,19.0 L46.0,19.0 L46.1,20.0 L48.2,20.0 L48.2,15.6 Q48.2,13.2 47.6,12.6 Q47.0,12.0 44.9,12.0 Q43.7,12.0 43.1,12.2 Q42.6,12.4 41.5,13.1 L42.4,14.7 Q43.2,14.2 43.5,14.1 Q43.8,14.0 44.5,14.0 Q45.3,14.0 45.5,14.2 Q45.6,14.4 45.7,15.0 Q42.6,15.3 41.9,15.8 Q41.3,16.2 41.3,17.8 Q41.3,18.9 41.7,19.5 Q42.1,20.0 43.6,20.0 Z M44.5,18.1 Q44.0,18.1 43.8,18.0 Q43.6,17.9 43.6,17.4 Q43.6,16.9 43.9,16.7 Q44.1,16.5 45.7,16.3 L45.7,17.5 Q45.3,17.9 45.1,18.0 Q45.0,18.1 44.5,18.1 Z"/><path d="M52.1,20.0 Q52.6,20.0 52.8,20.0 Q53.0,19.9 53.3,19.8 L53.0,18.0 Q52.9,18.0 52.8,18.0 Q52.8,18.0 52.7,18.0 Q52.5,18.0 52.4,17.9 Q52.3,17.8 52.3,17.3 L52.3,8.6 L49.8,8.6 L49.8,17.2 Q49.8,18.9 50.1,19.4 Q50.4,20.0 52.1,20.0 Z"/><path d="M54.7,16.8 L58.7,16.8 L58.7,15.0 L54.7,15.0 L54.7,16.8 Z"/><path d="M63.8,20.0 Q64.7,20.0 65.3,19.8 Q65.8,19.7 66.7,19.1 L65.8,17.6 Q65.3,17.9 65.0,18.0 Q64.7,18.1 64.2,18.1 Q63.1,18.1 62.8,17.9 Q62.4,17.7 62.2,16.6 L66.8,16.6 Q66.9,16.5 66.9,16.2 Q67.0,16.0 67.0,15.6 Q67.0,13.7 66.4,12.8 Q65.8,12.0 63.5,12.0 Q61.6,12.0 60.7,12.8 Q59.7,13.6 59.7,15.9 Q59.7,18.5 60.6,19.2 Q61.5,20.0 63.8,20.0 Z M62.1,15.0 Q62.3,14.3 62.6,14.1 Q62.9,13.9 63.6,13.9 Q64.5,13.9 64.7,14.1 Q64.8,14.4 64.8,15.0 L62.1,15.0 Z"/><path d="M70.7,20.0 Q71.2,20.0 71.4,20.0 Q71.6,19.9 71.9,19.8 L71.6,18.0 Q71.5,18.0 71.4,18.0 Q71.4,18.0 71.3,18.0 Q71.1,18.0 71.0,17.9 Q70.9,17.8 70.9,17.3 L70.9,8.6 L68.4,8.6 L68.4,17.2 Q68.4,18.9 68.7,19.4 Q69.0,20.0 70.7,20.0 Z"/><path d="M77.2,20.0 Q78.1,20.0 78.7,19.8 Q79.2,19.7 80.1,19.1 L79.2,17.6 Q78.7,17.9 78.4,18.0 Q78.1,18.1 77.6,18.1 Q76.5,18.1 76.2,17.9 Q75.8,17.7 75.6,16.6 L80.2,16.6 Q80.3,16.5 80.3,16.2 Q80.4,16.0 80.4,15.6 Q80.4,13.7 79.8,12.8 Q79.2,12.0 76.9,12.0 Q75.0,12.0 74.1,12.8 Q73.1,13.6 73.1,15.9 Q73.1,18.5 74.0,19.2 Q74.9,20.0 77.2,20.0 Z M75.5,15.0 Q75.7,14.3 76.0,14.1 Q76.3,13.9 77.0,13.9 Q77.9,13.9 78.1,14.1 Q78.2,14.4 78.2,15.0 L75.5,15.0 Z"/><path d="M81.8,20.0 L84.3,20.0 L84.3,14.8 Q84.8,14.4 85.0,14.2 Q85.2,14.1 85.6,14.1 Q86.2,14.1 86.3,14.3 Q86.5,14.4 86.5,15.5 L86.5,20.0 L89.0,20.0 L89.0,14.8 Q89.5,14.4 89.7,14.2 Q89.9,14.1 90.3,14.1 Q90.9,14.1 91.0,14.3 Q91.2,14.4 91.2,15.5 L91.2,20.0 L93.6,20.0 L93.6,15.2 Q93.6,13.2 93.3,12.6 Q92.9,12.0 91.2,12.0 Q90.1,12.0 89.7,12.3 Q89.3,12.6 88.7,13.3 Q88.3,12.5 87.9,12.2 Q87.6,12.0 86.5,12.0 Q85.4,12.0 85.1,12.3 Q84.7,12.5 84.1,13.2 L84.0,13.2 L83.8,12.0 L81.8,12.0 L81.8,20.0 Z"/><path d="M99.6,20.0 Q100.5,20.0 101.1,19.8 Q101.6,19.7 102.5,19.1 L101.6,17.6 Q101.1,17.9 100.8,18.0 Q100.5,18.1 100.0,18.1 Q98.9,18.1 98.6,17.9 Q98.2,17.7 98.0,16.6 L102.6,16.6 Q102.7,16.5 102.7,16.2 Q102.8,16.0 102.8,15.6 Q102.8,13.7 102.2,12.8 Q101.6,12.0 99.3,12.0 Q97.4,12.0 96.5,12.8 Q95.5,13.6 95.5,15.9 Q95.5,18.5 96.4,19.2 Q97.3,20.0 99.6,20.0 Z M97.9,15.0 Q98.1,14.3 98.4,14.1 Q98.7,13.9 99.4,13.9 Q100.3,13.9 100.5,14.1 Q100.6,14.4 100.6,15.0 L97.9,15.0 Z"/><path d="M104.2,20.0 L106.7,20.0 L106.7,14.8 Q107.2,14.4 107.3,14.3 Q107.5,14.1 108.1,14.1 Q108.7,14.1 108.8,14.3 Q109.0,14.4 109.0,15.5 L109.0,20.0 L111.5,20.0 L111.5,15.2 Q111.5,13.2 111.1,12.6 Q110.7,12.0 109.0,12.0 Q107.9,12.0 107.5,12.3 Q107.1,12.5 106.5,13.2 L106.4,13.2 L106.2,12.0 L104.2,12.0 L104.2,20.0 Z"/><path d="M116.5,20.0 Q117.4,20.0 117.6,19.9 Q117.9,19.8 118.4,19.7 L117.9,17.9 Q117.8,18.0 117.6,18.0 Q117.5,18.1 117.2,18.1 Q116.6,18.1 116.4,17.9 Q116.2,17.7 116.2,16.9 L116.2,14.0 L118.1,14.0 L118.1,12.0 L116.2,12.0 L116.2,9.9 L114.2,9.9 L113.9,12.0 L112.7,12.1 L112.7,14.0 L113.7,14.0 L113.7,16.9 Q113.7,18.7 114.1,19.4 Q114.5,20.0 116.5,20.0 Z"/><path d="M119.3,16.8 L123.3,16.8 L123.3,15.0 L119.3,15.0 L119.3,16.8 Z"/><path d="M128.4,20.0 Q129.3,20.0 129.9,19.8 Q130.4,19.7 131.3,19.1 L130.4,17.6 Q129.9,17.9 129.6,18.0 Q129.3,18.1 128.8,18.1 Q127.7,18.1 127.4,17.9 Q127.0,17.7 126.8,16.6 L131.4,16.6 Q131.5,16.5 131.5,16.2 Q131.6,16.0 131.6,15.6 Q131.6,13.7 131.0,12.8 Q130.4,12.0 128.1,12.0 Q126.2,12.0 125.3,12.8 Q124.3,13.6 124.3,15.9 Q124.3,18.5 125.2,19.2 Q126.1,20.0 128.4,20.0 Z M126.7,15.0 Q126.9,14.3 127.2,14.1 Q127.5,13.9 128.2,13.9 Q129.1,13.9 129.3,14.1 Q129.4,14.4 129.4,15.0 L126.7,15.0 Z"/><path d="M132.2,20.0 L134.8,20.0 L135.4,18.8 Q135.5,18.3 135.6,18.0 Q135.8,17.8 135.9,17.4 L136.0,17.4 Q136.3,17.8 136.4,18.1 Q136.5,18.3 136.7,18.8 L137.5,20.0 L140.1,20.0 L137.7,16.1 L140.0,12.0 L137.4,12.0 L136.9,13.2 Q136.8,13.7 136.7,13.9 Q136.6,14.2 136.4,14.6 L136.3,14.6 Q136.1,14.2 136.0,13.9 Q135.9,13.7 135.7,13.2 L135.0,12.0 L132.4,12.0 L134.7,15.8 L132.2,20.0 Z"/><path d="M144.3,20.0 Q145.2,20.0 145.4,19.9 Q145.7,19.8 146.2,19.7 L145.7,17.9 Q145.6,18.0 145.4,18.0 Q145.3,18.1 145.0,18.1 Q144.4,18.1 144.2,17.9 Q144.0,17.7 144.0,16.9 L144.0,14.0 L145.9,14.0 L145.9,12.0 L144.0,12.0 L144.0,9.9 L142.0,9.9 L141.7,12.0 L140.5,12.1 L140.5,14.0 L141.5,14.0 L141.5,16.9 Q141.5,18.7 141.9,19.4 Q142.3,20.0 144.3,20.0 Z"/><path d="M147.4,20.0 L149.9,20.0 L149.9,15.5 Q150.3,14.6 150.7,14.4 Q151.0,14.2 151.6,14.2 Q151.9,14.2 152.1,14.2 Q152.2,14.2 152.5,14.3 L152.9,12.0 Q152.7,12.1 152.5,12.0 Q152.4,12.0 151.9,12.0 Q151.1,12.0 150.7,12.3 Q150.2,12.5 149.7,13.6 L149.6,13.6 L149.4,12.0 L147.4,12.0 L147.4,20.0 Z"/><path d="M156.6,20.0 Q157.5,20.0 157.9,19.8 Q158.2,19.6 158.9,19.0 L159.0,19.0 L159.1,20.0 L161.2,20.0 L161.2,15.6 Q161.2,13.2 160.6,12.6 Q160.0,12.0 157.9,12.0 Q156.7,12.0 156.1,12.2 Q155.6,12.4 154.5,13.1 L155.4,14.7 Q156.2,14.2 156.5,14.1 Q156.8,14.0 157.5,14.0 Q158.3,14.0 158.5,14.2 Q158.6,14.4 158.7,15.0 Q155.6,15.3 154.9,15.8 Q154.3,16.2 154.3,17.8 Q154.3,18.9 154.7,19.5 Q155.1,20.0 156.6,20.0 Z M157.5,18.1 Q157.0,18.1 156.8,18.0 Q156.6,17.9 156.6,17.4 Q156.6,16.9 156.9,16.7 Q157.1,16.5 158.7,16.3 L158.7,17.5 Q158.3,17.9 158.1,18.0 Q158.0,18.1 157.5,18.1 Z"/><path d="M166.3,20.0 Q167.2,20.0 167.7,19.9 Q168.2,19.8 169.0,19.1 L168.0,17.5 Q167.6,17.8 167.3,17.9 Q167.1,18.0 166.6,18.0 Q165.6,18.0 165.3,17.6 Q164.9,17.2 164.9,16.0 Q164.9,14.8 165.2,14.4 Q165.6,14.0 166.7,14.0 Q167.0,14.0 167.2,14.1 Q167.3,14.1 167.7,14.4 L168.9,12.9 Q168.3,12.3 167.9,12.2 Q167.5,12.0 166.5,12.0 Q164.3,12.0 163.3,12.8 Q162.3,13.5 162.3,16.0 Q162.3,18.5 163.2,19.2 Q164.1,20.0 166.3,20.0 Z"/><path d="M174.1,20.0 Q175.0,20.0 175.2,19.9 Q175.5,19.8 176.0,19.7 L175.5,17.9 Q175.4,18.0 175.2,18.0 Q175.1,18.1 174.8,18.1 Q174.2,18.1 174.0,17.9 Q173.8,17.7 173.8,16.9 L173.8,14.0 L175.7,14.0 L175.7,12.0 L173.8,12.0 L173.8,9.9 L171.7,9.9 L171.5,12.0 L170.2,12.1 L170.2,14.0 L171.3,14.0 L171.3,16.9 Q171.3,18.7 171.7,19.4 Q172.1,20.0 174.1,20.0 Z"/><path d="M177.2,20.0 L179.7,20.0 L179.7,12.0 L177.2,12.0 L177.2,20.0 Z M178.4,11.0 Q179.3,11.0 179.6,10.8 Q179.8,10.5 179.8,9.7 Q179.8,9.0 179.6,8.7 Q179.3,8.4 178.4,8.4 Q177.6,8.4 177.3,8.7 Q177.1,9.0 177.1,9.7 Q177.1,10.5 177.3,10.8 Q177.6,11.0 178.4,11.0 Z"/><path d="M185.9,20.0 Q187.9,20.0 188.8,19.2 Q189.8,18.5 189.8,16.0 Q189.8,13.5 188.8,12.8 Q187.9,12.0 185.9,12.0 Q183.8,12.0 182.9,12.8 Q181.9,13.5 181.9,16.0 Q181.9,18.5 182.9,19.2 Q183.8,20.0 185.9,20.0 Z M185.9,18.0 Q184.9,18.0 184.7,17.6 Q184.5,17.2 184.5,16.0 Q184.5,14.8 184.7,14.4 Q184.9,14.0 185.9,14.0 Q186.8,14.0 187.0,14.4 Q187.2,14.8 187.2,16.0 Q187.2,17.2 187.0,17.6 Q186.8,18.0 185.9,18.0 Z"/><path d="M191.6,20.0 L194.1,20.0 L194.1,14.8 Q194.6,14.4 194.7,14.3 Q194.9,14.1 195.5,14.1 Q196.1,14.1 196.2,14.3 Q196.4,14.4 196.4,15.5 L196.4,20.0 L198.9,20.0 L198.9,15.2 Q198.9,13.2 198.5,12.6 Q198.1,12.0 196.4,12.0 Q195.3,12.0 194.9,12.3 Q194.5,12.5 193.8,13.2 L193.8,13.2 L193.6,12.0 L191.6,12.0 L191.6,20.0 Z"/></g>
  
</svg>
