<svg xmlns="http://www.w3.org/2000/svg" viewBox="0 0 199 30" width="199" height="30" role="img" aria-label="case-lifecycle-planning">
  <rect x="0.5" y="0.5" width="198" height="29" rx="5" fill="#e7efdd"/>
  <rect x="0" y="0" width="4" height="30" rx="2" fill="#5a7d3f"/>
  <g fill="#2a2d34"><path d="M22.5,20.0 Q23.4,20.0 23.9,19.9 Q24.4,19.8 25.2,19.1 L24.2,17.5 Q23.8,17.8 23.5,17.9 Q23.3,18.0 22.8,18.0 Q21.8,18.0 21.5,17.6 Q21.1,17.2 21.1,16.0 Q21.1,14.8 21.4,14.4 Q21.8,14.0 22.9,14.0 Q23.2,14.0 23.4,14.1 Q23.5,14.1 23.9,14.4 L25.1,12.9 Q24.5,12.3 24.1,12.2 Q23.7,12.0 22.7,12.0 Q20.5,12.0 19.5,12.8 Q18.5,13.5 18.5,16.0 Q18.5,18.5 19.4,19.2 Q20.3,20.0 22.5,20.0 Z"/><path d="M29.2,20.0 Q30.1,20.0 30.5,19.8 Q30.8,19.6 31.5,19.0 L31.6,19.0 L31.7,20.0 L33.8,20.0 L33.8,15.6 Q33.8,13.2 33.2,12.6 Q32.6,12.0 30.5,12.0 Q29.3,12.0 28.7,12.2 Q28.2,12.4 27.1,13.1 L28.0,14.7 Q28.8,14.2 29.1,14.1 Q29.4,14.0 30.1,14.0 Q30.9,14.0 31.1,14.2 Q31.2,14.4 31.3,15.0 Q28.2,15.3 27.5,15.8 Q26.9,16.2 26.9,17.8 Q26.9,18.9 27.3,19.5 Q27.7,20.0 29.2,20.0 Z M30.1,18.1 Q29.6,18.1 29.4,18.0 Q29.2,17.9 29.2,17.4 Q29.2,16.9 29.5,16.7 Q29.7,16.5 31.3,16.3 L31.3,17.5 Q30.9,17.9 30.7,18.0 Q30.6,18.1 30.1,18.1 Z"/><path d="M37.8,20.0 Q39.9,20.0 40.5,19.4 Q41.1,18.9 41.1,17.5 Q41.1,16.1 40.5,15.9 Q40.0,15.6 39.0,15.2 Q38.2,15.0 37.8,14.9 Q37.5,14.8 37.5,14.4 Q37.5,14.0 37.6,13.9 Q37.8,13.8 38.3,13.8 Q38.9,13.8 39.1,14.0 Q39.4,14.1 40.0,14.5 L41.1,13.0 Q40.4,12.5 40.0,12.3 Q39.5,12.0 38.2,12.0 Q36.4,12.0 35.8,12.5 Q35.2,13.0 35.2,14.5 Q35.2,15.7 35.7,16.0 Q36.2,16.3 37.2,16.6 Q38.0,16.9 38.4,17.0 Q38.8,17.2 38.8,17.6 Q38.8,18.0 38.6,18.1 Q38.5,18.2 37.8,18.2 Q37.2,18.2 36.9,18.0 Q36.6,17.9 35.8,17.4 L34.7,18.9 Q35.5,19.6 36.1,19.8 Q36.7,20.0 37.8,20.0 Z"/><path d="M46.2,20.0 Q47.1,20.0 47.7,19.8 Q48.2,19.7 49.1,19.1 L48.2,17.6 Q47.7,17.9 47.4,18.0 Q47.1,18.1 46.6,18.1 Q45.5,18.1 45.2,17.9 Q44.8,17.7 44.6,16.6 L49.2,16.6 Q49.3,16.5 49.3,16.2 Q49.4,16.0 49.4,15.6 Q49.4,13.7 48.8,12.8 Q48.2,12.0 45.9,12.0 Q44.0,12.0 43.1,12.8 Q42.1,13.6 42.1,15.9 Q42.1,18.5 43.0,19.2 Q43.9,20.0 46.2,20.0 Z M44.5,15.0 Q44.7,14.3 45.0,14.1 Q45.3,13.9 46.0,13.9 Q46.9,13.9 47.1,14.1 Q47.2,14.4 47.2,15.0 L44.5,15.0 Z"/><path d="M50.5,16.8 L54.5,16.8 L54.5,15.0 L50.5,15.0 L50.5,16.8 Z"/><path d="M58.3,20.0 Q58.8,20.0 59.0,20.0 Q59.2,19.9 59.5,19.8 L59.2,18.0 Q59.1,18.0 59.0,18.0 Q59.0,18.0 58.9,18.0 Q58.7,18.0 58.6,17.9 Q58.5,17.8 58.5,17.3 L58.5,8.6 L56.0,8.6 L56.0,17.2 Q56.0,18.9 56.3,19.4 Q56.6,20.0 58.3,20.0 Z"/><path d="M61.2,20.0 L63.7,20.0 L63.7,12.0 L61.2,12.0 L61.2,20.0 Z M62.5,11.0 Q63.3,11.0 63.6,10.8 Q63.8,10.5 63.8,9.7 Q63.8,9.0 63.6,8.7 Q63.3,8.4 62.5,8.4 Q61.6,8.4 61.3,8.7 Q61.1,9.0 61.1,9.7 Q61.1,10.5 61.3,10.8 Q61.6,11.0 62.5,11.0 Z"/><path d="M65.8,14.0 L66.8,14.0 L66.8,20.0 L69.3,20.0 L69.3,14.0 L70.7,14.0 L70.7,12.0 L69.3,12.0 L69.3,11.7 Q69.3,11.2 69.5,11.1 Q69.7,11.0 70.2,11.0 Q70.5,11.0 70.6,11.0 Q70.8,11.0 71.0,11.1 L71.5,9.3 Q71.1,9.1 70.8,9.1 Q70.5,9.0 69.8,9.0 Q67.6,9.0 67.2,9.7 Q66.8,10.4 66.8,11.8 L66.8,12.0 L65.8,12.1 L65.8,14.0 Z"/><path d="M76.2,20.0 Q77.1,20.0 77.7,19.8 Q78.2,19.7 79.1,19.1 L78.2,17.6 Q77.7,17.9 77.4,18.0 Q77.1,18.1 76.6,18.1 Q75.5,18.1 75.2,17.9 Q74.8,17.7 74.6,16.6 L79.2,16.6 Q79.3,16.5 79.3,16.2 Q79.4,16.0 79.4,15.6 Q79.4,13.7 78.8,12.8 Q78.2,12.0 75.9,12.0 Q74.0,12.0 73.1,12.8 Q72.1,13.6 72.1,15.9 Q72.1,18.5 73.0,19.2 Q73.9,20.0 76.2,20.0 Z M74.5,15.0 Q74.7,14.3 75.0,14.1 Q75.3,13.9 76.0,13.9 Q76.9,13.9 77.1,14.1 Q77.2,14.4 77.2,15.0 L74.5,15.0 Z"/><path d="M84.3,20.0 Q85.2,20.0 85.7,19.9 Q86.2,19.8 87.0,19.1 L86.0,17.5 Q85.6,17.8 85.3,17.9 Q85.1,18.0 84.6,18.0 Q83.6,18.0 83.3,17.6 Q82.9,17.2 82.9,16.0 Q82.9,14.8 83.2,14.4 Q83.6,14.0 84.7,14.0 Q85.0,14.0 85.2,14.1 Q85.3,14.1 85.7,14.4 L86.9,12.9 Q86.3,12.3 85.9,12.2 Q85.5,12.0 84.5,12.0 Q82.3,12.0 81.3,12.8 Q80.3,13.5 80.3,16.0 Q80.3,18.5 81.2,19.2 Q82.1,20.0 84.3,20.0 Z"/><path d="M90.0,23.0 Q91.9,23.0 92.3,22.5 Q92.8,22.0 93.5,20.0 L96.3,12.0 L93.9,12.0 L93.0,15.3 Q92.8,16.0 92.7,16.4 Q92.6,16.8 92.5,17.5 L92.4,17.5 Q92.2,16.8 92.1,16.4 Q92.0,16.0 91.8,15.3 L90.7,12.0 L88.2,12.0 L91.2,19.7 L91.1,20.1 Q91.0,20.7 90.8,20.9 Q90.6,21.1 89.8,21.1 Q89.6,21.1 89.5,21.0 Q89.4,21.0 89.3,21.0 L88.8,23.0 Q89.2,23.0 89.3,23.0 Q89.5,23.0 90.0,23.0 Z"/><path d="M100.7,20.0 Q101.6,20.0 102.1,19.9 Q102.6,19.8 103.4,19.1 L102.4,17.5 Q102.0,17.8 101.7,17.9 Q101.5,18.0 101.0,18.0 Q100.0,18.0 99.7,17.6 Q99.3,17.2 99.3,16.0 Q99.3,14.8 99.6,14.4 Q100.0,14.0 101.1,14.0 Q101.4,14.0 101.6,14.1 Q101.7,14.1 102.1,14.4 L103.3,12.9 Q102.7,12.3 102.3,12.2 Q101.9,12.0 100.9,12.0 Q98.7,12.0 97.7,12.8 Q96.7,13.5 96.7,16.0 Q96.7,18.5 97.6,19.2 Q98.5,20.0 100.7,20.0 Z"/><path d="M107.7,20.0 Q108.2,20.0 108.4,20.0 Q108.6,19.9 108.9,19.8 L108.6,18.0 Q108.5,18.0 108.4,18.0 Q108.4,18.0 108.3,18.0 Q108.1,18.0 108.0,17.9 Q107.9,17.8 107.9,17.3 L107.9,8.6 L105.4,8.6 L105.4,17.2 Q105.4,18.9 105.7,19.4 Q106.0,20.0 107.7,20.0 Z"/><path d="M114.2,20.0 Q115.1,20.0 115.7,19.8 Q116.2,19.7 117.1,19.1 L116.2,17.6 Q115.7,17.9 115.4,18.0 Q115.1,18.1 114.6,18.1 Q113.5,18.1 113.2,17.9 Q112.8,17.7 112.6,16.6 L117.2,16.6 Q117.3,16.5 117.3,16.2 Q117.4,16.0 117.4,15.6 Q117.4,13.7 116.8,12.8 Q116.2,12.0 113.9,12.0 Q112.0,12.0 111.1,12.8 Q110.1,13.6 110.1,15.9 Q110.1,18.5 111.0,19.2 Q111.9,20.0 114.2,20.0 Z M112.5,15.0 Q112.7,14.3 113.0,14.1 Q113.3,13.9 114.0,13.9 Q114.9,13.9 115.1,14.1 Q115.2,14.4 115.2,15.0 L112.5,15.0 Z"/><path d="M118.5,16.8 L122.5,16.8 L122.5,15.0 L118.5,15.0 L118.5,16.8 Z"/><path d="M124.0,23.0 L126.5,23.0 L126.5,20.5 L126.4,19.2 Q126.9,19.7 127.3,19.9 Q127.6,20.0 128.3,20.0 Q130.0,20.0 130.8,19.2 Q131.6,18.4 131.6,15.8 Q131.6,13.6 131.0,12.8 Q130.4,12.0 128.5,12.0 Q127.7,12.0 127.3,12.2 Q126.9,12.4 126.3,13.0 L126.2,13.0 L126.0,12.0 L124.0,12.0 L124.0,23.0 Z M127.7,18.0 Q127.3,18.0 127.1,17.9 Q126.9,17.9 126.5,17.5 L126.5,14.7 Q126.9,14.2 127.1,14.1 Q127.3,14.0 127.8,14.0 Q128.6,14.0 128.8,14.3 Q129.0,14.6 129.0,15.9 Q129.0,17.3 128.7,17.7 Q128.4,18.0 127.7,18.0 Z"/><path d="M135.5,20.0 Q136.0,20.0 136.2,20.0 Q136.4,19.9 136.7,19.8 L136.4,18.0 Q136.3,18.0 136.2,18.0 Q136.2,18.0 136.1,18.0 Q135.9,18.0 135.8,17.9 Q135.7,17.8 135.7,17.3 L135.7,8.6 L133.2,8.6 L133.2,17.2 Q133.2,18.9 133.5,19.4 Q133.8,20.0 135.5,20.0 Z"/><path d="M140.4,20.0 Q141.3,20.0 141.7,19.8 Q142.0,19.6 142.7,19.0 L142.8,19.0 L142.9,20.0 L145.0,20.0 L145.0,15.6 Q145.0,13.2 144.4,12.6 Q143.8,12.0 141.7,12.0 Q140.5,12.0 139.9,12.2 Q139.4,12.4 138.3,13.1 L139.2,14.7 Q140.0,14.2 140.3,14.1 Q140.6,14.0 141.3,14.0 Q142.1,14.0 142.3,14.2 Q142.4,14.4 142.5,15.0 Q139.4,15.3 138.7,15.8 Q138.1,16.2 138.1,17.8 Q138.1,18.9 138.5,19.5 Q138.9,20.0 140.4,20.0 Z M141.3,18.1 Q140.8,18.1 140.6,18.0 Q140.4,17.9 140.4,17.4 Q140.4,16.9 140.7,16.7 Q140.9,16.5 142.5,16.3 L142.5,17.5 Q142.1,17.9 141.9,18.0 Q141.8,18.1 141.3,18.1 Z"/><path d="M146.6,20.0 L149.1,20.0 L149.1,14.8 Q149.6,14.4 149.7,14.3 Q149.9,14.1 150.5,14.1 Q151.1,14.1 151.2,14.3 Q151.4,14.4 151.4,15.5 L151.4,20.0 L153.9,20.0 L153.9,15.2 Q153.9,13.2 153.5,12.6 Q153.1,12.0 151.4,12.0 Q150.3,12.0 149.9,12.3 Q149.5,12.5 148.8,13.2 L148.8,13.2 L148.6,12.0 L146.6,12.0 L146.6,20.0 Z"/><path d="M155.8,20.0 L158.3,20.0 L158.3,14.8 Q158.8,14.4 158.9,14.3 Q159.1,14.1 159.7,14.1 Q160.3,14.1 160.4,14.3 Q160.6,14.4 160.6,15.5 L160.6,20.0 L163.1,20.0 L163.1,15.2 Q163.1,13.2 162.7,12.6 Q162.3,12.0 160.6,12.0 Q159.5,12.0 159.1,12.3 Q158.7,12.5 158.0,13.2 L158.0,13.2 L157.8,12.0 L155.8,12.0 L155.8,20.0 Z"/><path d="M165.0,20.0 L167.5,20.0 L167.5,12.0 L165.0,12.0 L165.0,20.0 Z M166.2,11.0 Q167.1,11.0 167.4,10.8 Q167.6,10.5 167.6,9.7 Q167.6,9.0 167.4,8.7 Q167.1,8.4 166.2,8.4 Q165.4,8.4 165.1,8.7 Q164.9,9.0 164.9,9.7 Q164.9,10.5 165.1,10.8 Q165.4,11.0 166.2,11.0 Z"/><path d="M170.2,20.0 L172.7,20.0 L172.7,14.8 Q173.2,14.4 173.3,14.3 Q173.5,14.1 174.1,14.1 Q174.7,14.1 174.8,14.3 Q175.0,14.4 175.0,15.5 L175.0,20.0 L177.5,20.0 L177.5,15.2 Q177.5,13.2 177.1,12.6 Q176.7,12.0 175.0,12.0 Q173.9,12.0 173.5,12.3 Q173.1,12.5 172.4,13.2 L172.4,13.2 L172.2,12.0 L170.2,12.0 L170.2,20.0 Z"/><path d="M182.3,23.6 Q185.0,23.6 185.9,23.0 Q186.8,22.4 186.8,20.2 Q186.8,18.7 186.2,18.4 Q185.7,18.1 183.7,18.1 L182.4,18.1 Q181.6,18.1 181.4,18.1 Q181.3,18.0 181.3,17.8 Q181.3,17.6 181.3,17.6 Q181.4,17.5 181.5,17.4 Q181.9,17.5 182.0,17.5 Q182.2,17.5 182.4,17.5 Q184.2,17.5 184.9,17.1 Q185.6,16.7 185.6,14.8 Q185.6,14.4 185.6,14.2 Q185.5,14.0 185.4,13.8 L186.6,13.8 L186.6,12.0 L183.7,12.0 Q183.4,12.1 183.1,12.0 Q182.9,12.0 182.4,12.0 Q180.7,12.0 179.9,12.5 Q179.1,13.0 179.1,14.8 Q179.1,15.7 179.4,16.1 Q179.6,16.4 180.2,16.8 L180.2,16.9 Q179.7,17.2 179.5,17.5 Q179.3,17.7 179.3,18.0 Q179.3,18.7 179.5,18.9 Q179.6,19.1 180.0,19.4 L180.0,19.5 Q179.3,19.8 179.1,20.2 Q178.9,20.5 178.9,21.4 Q178.9,23.0 179.7,23.3 Q180.4,23.6 182.3,23.6 Z M182.4,16.0 Q181.9,16.0 181.7,15.8 Q181.4,15.6 181.4,14.8 Q181.4,14.1 181.7,13.9 Q181.9,13.7 182.4,13.7 Q183.0,13.7 183.3,13.9 Q183.5,14.1 183.5,14.8 Q183.5,15.6 183.3,15.8 Q183.0,16.0 182.4,16.0 Z M182.6,22.0 Q181.6,22.0 181.3,21.8 Q181.0,21.6 181.0,20.9 Q181.0,20.5 181.0,20.3 Q181.1,20.2 181.3,19.9 Q181.6,20.0 181.7,20.0 Q181.9,20.0 182.5,20.0 L183.2,20.0 Q184.0,20.0 184.2,20.1 Q184.4,20.1 184.4,20.8 Q184.4,21.5 184.0,21.7 Q183.7,22.0 182.6,22.0 Z"/></g>
  
</svg>
