<svg xmlns="http://www.w3.org/2000/svg" viewBox="0 0 265 30" width="265" height="30" role="img" aria-label="structured-element-extraction">
  <rect x="0.5" y="0.5" width="264" height="29" rx="5" fill="#e1efe9"/>
  <rect x="0" y="0" width="4" height="30" rx="2" fill="#3f7d6e"/>
  <g fill="#2a2d34"><path d="M21.4,20.0 Q23.5,20.0 24.1,19.4 Q24.7,18.9 24.7,17.5 Q24.7,16.1 24.1,15.9 Q23.6,15.6 22.6,15.2 Q21.8,15.0 21.4,14.9 Q21.1,14.8 21.1,14.4 Q21.1,14.0 21.2,13.9 Q21.4,13.8 21.9,13.8 Q22.5,13.8 22.7,14.0 Q23.0,14.1 23.6,14.5 L24.7,13.0 Q24.0,12.5 23.6,12.3 Q23.1,12.0 21.8,12.0 Q20.0,12.0 19.4,12.5 Q18.8,13.0 18.8,14.5 Q18.8,15.7 19.3,16.0 Q19.8,16.3 20.8,16.6 Q21.6,16.9 22.0,17.0 Q22.4,17.2 22.4,17.6 Q22.4,18.0 22.2,18.1 Q22.1,18.2 21.4,18.2 Q20.8,18.2 20.5,18.0 Q20.2,17.9 19.4,17.4 L18.3,18.9 Q19.1,19.6 19.7,19.8 Q20.3,20.0 21.4,20.0 Z"/><path d="M29.3,20.0 Q30.2,20.0 30.4,19.9 Q30.7,19.8 31.2,19.7 L30.7,17.9 Q30.6,18.0 30.4,18.0 Q30.3,18.1 30.0,18.1 Q29.4,18.1 29.2,17.9 Q29.0,17.7 29.0,16.9 L29.0,14.0 L30.9,14.0 L30.9,12.0 L29.0,12.0 L29.0,9.9 L26.9,9.9 L26.7,12.0 L25.4,12.1 L25.4,14.0 L26.5,14.0 L26.5,16.9 Q26.5,18.7 26.9,19.4 Q27.3,20.0 29.3,20.0 Z"/><path d="M32.4,20.0 L34.9,20.0 L34.9,15.5 Q35.3,14.6 35.7,14.4 Q36.0,14.2 36.6,14.2 Q36.9,14.2 37.1,14.2 Q37.2,14.2 37.5,14.3 L37.9,12.0 Q37.7,12.1 37.5,12.0 Q37.4,12.0 36.9,12.0 Q36.1,12.0 35.7,12.3 Q35.2,12.5 34.6,13.6 L34.6,13.6 L34.4,12.0 L32.4,12.0 L32.4,20.0 Z"/><path d="M42.0,20.0 Q43.1,20.0 43.5,19.8 Q43.8,19.5 44.5,18.7 L44.6,18.7 L44.7,20.0 L46.8,20.0 L46.8,12.0 L44.3,12.0 L44.3,17.1 Q43.9,17.7 43.7,17.8 Q43.5,17.9 42.9,17.9 Q42.3,17.9 42.2,17.7 Q42.0,17.6 42.0,16.5 L42.0,12.0 L39.5,12.0 L39.5,16.8 Q39.5,18.8 39.9,19.4 Q40.3,20.0 42.0,20.0 Z"/><path d="M52.3,20.0 Q53.2,20.0 53.7,19.9 Q54.2,19.8 55.0,19.1 L54.0,17.5 Q53.6,17.8 53.3,17.9 Q53.1,18.0 52.6,18.0 Q51.6,18.0 51.3,17.6 Q50.9,17.2 50.9,16.0 Q50.9,14.8 51.2,14.4 Q51.6,14.0 52.7,14.0 Q53.0,14.0 53.2,14.1 Q53.3,14.1 53.7,14.4 L54.9,12.9 Q54.3,12.3 53.9,12.2 Q53.5,12.0 52.5,12.0 Q50.3,12.0 49.3,12.8 Q48.3,13.5 48.3,16.0 Q48.3,18.5 49.2,19.2 Q50.1,20.0 52.3,20.0 Z"/><path d="M60.1,20.0 Q61.0,20.0 61.2,19.9 Q61.5,19.8 62.0,19.7 L61.5,17.9 Q61.4,18.0 61.2,18.0 Q61.1,18.1 60.8,18.1 Q60.2,18.1 60.0,17.9 Q59.8,17.7 59.8,16.9 L59.8,14.0 L61.7,14.0 L61.7,12.0 L59.8,12.0 L59.8,9.9 L57.8,9.9 L57.5,12.0 L56.2,12.1 L56.2,14.0 L57.3,14.0 L57.3,16.9 Q57.3,18.7 57.7,19.4 Q58.1,20.0 60.1,20.0 Z"/><path d="M65.6,20.0 Q66.7,20.0 67.1,19.8 Q67.4,19.5 68.1,18.7 L68.2,18.7 L68.3,20.0 L70.4,20.0 L70.4,12.0 L67.9,12.0 L67.9,17.1 Q67.5,17.7 67.3,17.8 Q67.1,17.9 66.5,17.9 Q65.9,17.9 65.8,17.7 Q65.6,17.6 65.6,16.5 L65.6,12.0 L63.1,12.0 L63.1,16.8 Q63.1,18.8 63.5,19.4 Q63.9,20.0 65.6,20.0 Z"/><path d="M72.4,20.0 L74.9,20.0 L74.9,15.5 Q75.3,14.6 75.7,14.4 Q76.0,14.2 76.6,14.2 Q76.9,14.2 77.1,14.2 Q77.2,14.2 77.5,14.3 L77.9,12.0 Q77.7,12.1 77.5,12.0 Q77.4,12.0 76.9,12.0 Q76.1,12.0 75.7,12.3 Q75.2,12.5 74.7,13.6 L74.6,13.6 L74.4,12.0 L72.4,12.0 L72.4,20.0 Z"/><path d="M83.2,20.0 Q84.1,20.0 84.7,19.8 Q85.2,19.7 86.1,19.1 L85.2,17.6 Q84.7,17.9 84.4,18.0 Q84.1,18.1 83.6,18.1 Q82.5,18.1 82.2,17.9 Q81.8,17.7 81.6,16.6 L86.2,16.6 Q86.3,16.5 86.3,16.2 Q86.4,16.0 86.4,15.6 Q86.4,13.7 85.8,12.8 Q85.2,12.0 82.9,12.0 Q81.0,12.0 80.1,12.8 Q79.1,13.6 79.1,15.9 Q79.1,18.5 80.0,19.2 Q80.9,20.0 83.2,20.0 Z M81.5,15.0 Q81.7,14.3 82.0,14.1 Q82.3,13.9 83.0,13.9 Q83.9,13.9 84.1,14.1 Q84.2,14.4 84.2,15.0 L81.5,15.0 Z"/><path d="M90.7,20.0 Q91.4,20.0 91.8,19.8 Q92.2,19.6 92.8,19.0 L92.8,19.0 L93.0,20.0 L95.0,20.0 L95.0,9.0 L92.5,9.0 L92.5,11.6 L92.6,12.8 Q92.1,12.3 91.8,12.2 Q91.6,12.0 90.7,12.0 Q89.0,12.0 88.2,12.8 Q87.4,13.6 87.4,16.1 Q87.4,18.4 88.0,19.2 Q88.7,20.0 90.7,20.0 Z M91.3,18.0 Q90.5,18.0 90.2,17.7 Q90.0,17.4 90.0,16.0 Q90.0,14.6 90.3,14.3 Q90.6,14.0 91.3,14.0 Q91.7,14.0 91.9,14.1 Q92.1,14.2 92.5,14.5 L92.5,17.3 Q92.2,17.8 92.0,17.9 Q91.8,18.0 91.3,18.0 Z"/><path d="M96.7,16.8 L100.7,16.8 L100.7,15.0 L96.7,15.0 L96.7,16.8 Z"/><path d="M105.8,20.0 Q106.7,20.0 107.3,19.8 Q107.8,19.7 108.7,19.1 L107.8,17.6 Q107.3,17.9 107.0,18.0 Q106.7,18.1 106.2,18.1 Q105.1,18.1 104.8,17.9 Q104.4,17.7 104.2,16.6 L108.8,16.6 Q108.9,16.5 108.9,16.2 Q109.0,16.0 109.0,15.6 Q109.0,13.7 108.4,12.8 Q107.8,12.0 105.5,12.0 Q103.6,12.0 102.7,12.8 Q101.7,13.6 101.7,15.9 Q101.7,18.5 102.6,19.2 Q103.5,20.0 105.8,20.0 Z M104.1,15.0 Q104.3,14.3 104.6,14.1 Q104.9,13.9 105.6,13.9 Q106.5,13.9 106.7,14.1 Q106.8,14.4 106.8,15.0 L104.1,15.0 Z"/><path d="M112.7,20.0 Q113.2,20.0 113.4,20.0 Q113.6,19.9 113.9,19.8 L113.6,18.0 Q113.5,18.0 113.4,18.0 Q113.4,18.0 113.3,18.0 Q113.1,18.0 113.0,17.9 Q112.9,17.8 112.9,17.3 L112.9,8.6 L110.4,8.6 L110.4,17.2 Q110.4,18.9 110.7,19.4 Q111.0,20.0 112.7,20.0 Z"/><path d="M119.2,20.0 Q120.1,20.0 120.7,19.8 Q121.2,19.7 122.1,19.1 L121.2,17.6 Q120.7,17.9 120.4,18.0 Q120.1,18.1 119.6,18.1 Q118.5,18.1 118.2,17.9 Q117.8,17.7 117.6,16.6 L122.2,16.6 Q122.3,16.5 122.3,16.2 Q122.4,16.0 122.4,15.6 Q122.4,13.7 121.8,12.8 Q121.2,12.0 118.9,12.0 Q117.0,12.0 116.1,12.8 Q115.1,13.6 115.1,15.9 Q115.1,18.5 116.0,19.2 Q116.9,20.0 119.2,20.0 Z M117.5,15.0 Q117.7,14.3 118.0,14.1 Q118.3,13.9 119.0,13.9 Q119.9,13.9 120.1,14.1 Q120.2,14.4 120.2,15.0 L117.5,15.0 Z"/><path d="M123.8,20.0 L126.3,20.0 L126.3,14.8 Q126.8,14.4 127.0,14.2 Q127.2,14.1 127.6,14.1 Q128.2,14.1 128.3,14.3 Q128.5,14.4 128.5,15.5 L128.5,20.0 L131.0,20.0 L131.0,14.8 Q131.5,14.4 131.7,14.2 Q131.9,14.1 132.3,14.1 Q132.9,14.1 133.0,14.3 Q133.2,14.4 133.2,15.5 L133.2,20.0 L135.6,20.0 L135.6,15.2 Q135.6,13.2 135.3,12.6 Q134.9,12.0 133.2,12.0 Q132.1,12.0 131.7,12.3 Q131.3,12.6 130.7,13.3 Q130.3,12.5 129.9,12.2 Q129.6,12.0 128.5,12.0 Q127.4,12.0 127.1,12.3 Q126.7,12.5 126.1,13.2 L126.0,13.2 L125.8,12.0 L123.8,12.0 L123.8,20.0 Z"/><path d="M141.6,20.0 Q142.5,20.0 143.1,19.8 Q143.6,19.7 144.5,19.1 L143.6,17.6 Q143.1,17.9 142.8,18.0 Q142.5,18.1 142.0,18.1 Q140.9,18.1 140.6,17.9 Q140.2,17.7 140.0,16.6 L144.6,16.6 Q144.7,16.5 144.7,16.2 Q144.8,16.0 144.8,15.6 Q144.8,13.7 144.2,12.8 Q143.6,12.0 141.3,12.0 Q139.4,12.0 138.5,12.8 Q137.5,13.6 137.5,15.9 Q137.5,18.5 138.4,19.2 Q139.3,20.0 141.6,20.0 Z M139.9,15.0 Q140.1,14.3 140.4,14.1 Q140.7,13.9 141.4,13.9 Q142.3,13.9 142.5,14.1 Q142.6,14.4 142.6,15.0 L139.9,15.0 Z"/><path d="M146.2,20.0 L148.7,20.0 L148.7,14.8 Q149.2,14.4 149.3,14.3 Q149.5,14.1 150.1,14.1 Q150.7,14.1 150.8,14.3 Q151.0,14.4 151.0,15.5 L151.0,20.0 L153.5,20.0 L153.5,15.2 Q153.5,13.2 153.1,12.6 Q152.7,12.0 151.0,12.0 Q149.9,12.0 149.5,12.3 Q149.1,12.5 148.5,13.2 L148.4,13.2 L148.2,12.0 L146.2,12.0 L146.2,20.0 Z"/><path d="M158.5,20.0 Q159.4,20.0 159.6,19.9 Q159.9,19.8 160.4,19.7 L159.9,17.9 Q159.8,18.0 159.6,18.0 Q159.5,18.1 159.2,18.1 Q158.6,18.1 158.4,17.9 Q158.2,17.7 158.2,16.9 L158.2,14.0 L160.1,14.0 L160.1,12.0 L158.2,12.0 L158.2,9.9 L156.2,9.9 L155.9,12.0 L154.7,12.1 L154.7,14.0 L155.7,14.0 L155.7,16.9 Q155.7,18.7 156.1,19.4 Q156.5,20.0 158.5,20.0 Z"/><path d="M161.3,16.8 L165.3,16.8 L165.3,15.0 L161.3,15.0 L161.3,16.8 Z"/><path d="M170.4,20.0 Q171.3,20.0 171.9,19.8 Q172.4,19.7 173.3,19.1 L172.4,17.6 Q171.9,17.9 171.6,18.0 Q171.3,18.1 170.8,18.1 Q169.7,18.1 169.4,17.9 Q169.0,17.7 168.8,16.6 L173.4,16.6 Q173.5,16.5 173.5,16.2 Q173.5,16.0 173.5,15.6 Q173.5,13.7 173.0,12.8 Q172.4,12.0 170.1,12.0 Q168.2,12.0 167.3,12.8 Q166.3,13.6 166.3,15.9 Q166.3,18.5 167.2,19.2 Q168.1,20.0 170.4,20.0 Z M168.7,15.0 Q168.9,14.3 169.2,14.1 Q169.5,13.9 170.2,13.9 Q171.1,13.9 171.3,14.1 Q171.4,14.4 171.4,15.0 L168.7,15.0 Z"/><path d="M174.2,20.0 L176.8,20.0 L177.4,18.8 Q177.5,18.3 177.6,18.0 Q177.7,17.8 177.9,17.4 L178.0,17.4 Q178.3,17.8 178.4,18.1 Q178.5,18.3 178.7,18.8 L179.5,20.0 L182.1,20.0 L179.7,16.1 L182.0,12.0 L179.4,12.0 L178.9,13.2 Q178.8,13.7 178.7,13.9 Q178.6,14.2 178.4,14.6 L178.3,14.6 Q178.1,14.2 178.0,13.9 Q177.9,13.7 177.7,13.2 L177.0,12.0 L174.4,12.0 L176.7,15.8 L174.2,20.0 Z"/><path d="M186.3,20.0 Q187.2,20.0 187.4,19.9 Q187.7,19.8 188.2,19.7 L187.7,17.9 Q187.6,18.0 187.4,18.0 Q187.3,18.1 187.0,18.1 Q186.4,18.1 186.2,17.9 Q186.0,17.7 186.0,16.9 L186.0,14.0 L187.9,14.0 L187.9,12.0 L186.0,12.0 L186.0,9.9 L183.9,9.9 L183.7,12.0 L182.4,12.1 L182.4,14.0 L183.5,14.0 L183.5,16.9 Q183.5,18.7 183.9,19.4 Q184.3,20.0 186.3,20.0 Z"/><path d="M189.4,20.0 L191.9,20.0 L191.9,15.5 Q192.3,14.6 192.7,14.4 Q193.0,14.2 193.6,14.2 Q193.9,14.2 194.1,14.2 Q194.2,14.2 194.5,14.3 L194.9,12.0 Q194.7,12.1 194.5,12.0 Q194.4,12.0 193.9,12.0 Q193.1,12.0 192.7,12.3 Q192.2,12.5 191.6,13.6 L191.6,13.6 L191.4,12.0 L189.4,12.0 L189.4,20.0 Z"/><path d="M198.6,20.0 Q199.5,20.0 199.9,19.8 Q200.2,19.6 200.9,19.0 L201.0,19.0 L201.1,20.0 L203.2,20.0 L203.2,15.6 Q203.2,13.2 202.6,12.6 Q202.0,12.0 199.9,12.0 Q198.7,12.0 198.1,12.2 Q197.6,12.4 196.5,13.1 L197.4,14.7 Q198.2,14.2 198.5,14.1 Q198.8,14.0 199.5,14.0 Q200.3,14.0 200.5,14.2 Q200.6,14.4 200.7,15.0 Q197.6,15.3 196.9,15.8 Q196.3,16.2 196.3,17.8 Q196.3,18.9 196.7,19.5 Q197.1,20.0 198.6,20.0 Z M199.5,18.1 Q199.0,18.1 198.8,18.0 Q198.6,17.9 198.6,17.4 Q198.6,16.9 198.9,16.7 Q199.1,16.5 200.7,16.3 L200.7,17.5 Q200.3,17.9 200.1,18.0 Q200.0,18.1 199.5,18.1 Z"/><path d="M208.3,20.0 Q209.2,20.0 209.7,19.9 Q210.2,19.8 211.0,19.1 L210.0,17.5 Q209.6,17.8 209.3,17.9 Q209.1,18.0 208.6,18.0 Q207.6,18.0 207.3,17.6 Q206.9,17.2 206.9,16.0 Q206.9,14.8 207.2,14.4 Q207.6,14.0 208.7,14.0 Q209.0,14.0 209.2,14.1 Q209.3,14.1 209.7,14.4 L210.9,12.9 Q210.3,12.3 209.9,12.2 Q209.5,12.0 208.5,12.0 Q206.3,12.0 205.3,12.8 Q204.3,13.5 204.3,16.0 Q204.3,18.5 205.2,19.2 Q206.1,20.0 208.3,20.0 Z"/><path d="M216.1,20.0 Q217.0,20.0 217.2,19.9 Q217.5,19.8 218.0,19.7 L217.5,17.9 Q217.4,18.0 217.2,18.0 Q217.1,18.1 216.8,18.1 Q216.2,18.1 216.0,17.9 Q215.8,17.7 215.8,16.9 L215.8,14.0 L217.7,14.0 L217.7,12.0 L215.8,12.0 L215.8,9.9 L213.7,9.9 L213.5,12.0 L212.2,12.1 L212.2,14.0 L213.3,14.0 L213.3,16.9 Q213.3,18.7 213.7,19.4 Q214.1,20.0 216.1,20.0 Z"/><path d="M219.2,20.0 L221.7,20.0 L221.7,12.0 L219.2,12.0 L219.2,20.0 Z M220.4,11.0 Q221.3,11.0 221.6,10.8 Q221.8,10.5 221.8,9.7 Q221.8,9.0 221.6,8.7 Q221.3,8.4 220.4,8.4 Q219.6,8.4 219.3,8.7 Q219.1,9.0 219.1,9.7 Q219.1,10.5 219.3,10.8 Q219.6,11.0 220.4,11.0 Z"/><path d="M227.9,20.0 Q229.9,20.0 230.8,19.2 Q231.8,18.5 231.8,16.0 Q231.8,13.5 230.8,12.8 Q229.9,12.0 227.9,12.0 Q225.8,12.0 224.9,12.8 Q223.9,13.5 223.9,16.0 Q223.9,18.5 224.9,19.2 Q225.8,20.0 227.9,20.0 Z M227.9,18.0 Q226.9,18.0 226.7,17.6 Q226.5,17.2 226.5,16.0 Q226.5,14.8 226.7,14.4 Q226.9,14.0 227.9,14.0 Q228.8,14.0 229.0,14.4 Q229.2,14.8 229.2,16.0 Q229.2,17.2 229.0,17.6 Q228.8,18.0 227.9,18.0 Z"/><path d="M233.6,20.0 L236.1,20.0 L236.1,14.8 Q236.6,14.4 236.7,14.3 Q236.9,14.1 237.5,14.1 Q238.1,14.1 238.2,14.3 Q238.4,14.4 238.4,15.5 L238.4,20.0 L240.9,20.0 L240.9,15.2 Q240.9,13.2 240.5,12.6 Q240.1,12.0 238.4,12.0 Q237.3,12.0 236.9,12.3 Q236.5,12.5 235.8,13.2 L235.8,13.2 L235.6,12.0 L233.6,12.0 L233.6,20.0 Z"/></g>
  
</svg>
