<svg xmlns="http://www.w3.org/2000/svg" viewBox="0 0 180 30" width="180" height="30" role="img" aria-label="deductive-reasoning">
  <rect x="0.5" y="0.5" width="179" height="29" rx="5" fill="#f6e3dc"/>
  <rect x="0" y="0" width="4" height="30" rx="2" fill="#b5462f"/>
  <g fill="#2a2d34"><path d="M21.9,20.0 Q22.6,20.0 23.0,19.8 Q23.4,19.6 24.0,19.0 L24.0,19.0 L24.2,20.0 L26.2,20.0 L26.2,9.0 L23.7,9.0 L23.7,11.6 L23.8,12.8 Q23.3,12.3 23.0,12.2 Q22.8,12.0 21.9,12.0 Q20.2,12.0 19.4,12.8 Q18.6,13.6 18.6,16.1 Q18.6,18.4 19.2,19.2 Q19.9,20.0 21.9,20.0 Z M22.5,18.0 Q21.7,18.0 21.4,17.7 Q21.2,17.4 21.2,16.0 Q21.2,14.6 21.5,14.3 Q21.8,14.0 22.5,14.0 Q22.9,14.0 23.1,14.1 Q23.3,14.2 23.7,14.5 L23.7,17.3 Q23.4,17.8 23.2,17.9 Q23.0,18.0 22.5,18.0 Z"/><path d="M31.8,20.0 Q32.7,20.0 33.3,19.8 Q33.8,19.7 34.7,19.1 L33.8,17.6 Q33.3,17.9 33.0,18.0 Q32.7,18.1 32.2,18.1 Q31.1,18.1 30.8,17.9 Q30.4,17.7 30.2,16.6 L34.8,16.6 Q34.9,16.5 34.9,16.2 Q35.0,16.0 35.0,15.6 Q35.0,13.7 34.4,12.8 Q33.8,12.0 31.5,12.0 Q29.6,12.0 28.7,12.8 Q27.7,13.6 27.7,15.9 Q27.7,18.5 28.6,19.2 Q29.5,20.0 31.8,20.0 Z M30.1,15.0 Q30.3,14.3 30.6,14.1 Q30.9,13.9 31.6,13.9 Q32.5,13.9 32.7,14.1 Q32.8,14.4 32.8,15.0 L30.1,15.0 Z"/><path d="M39.3,20.0 Q40.0,20.0 40.4,19.8 Q40.8,19.6 41.4,19.0 L41.4,19.0 L41.6,20.0 L43.6,20.0 L43.6,9.0 L41.1,9.0 L41.1,11.6 L41.2,12.8 Q40.7,12.3 40.4,12.2 Q40.2,12.0 39.3,12.0 Q37.6,12.0 36.8,12.8 Q36.0,13.6 36.0,16.1 Q36.0,18.4 36.6,19.2 Q37.3,20.0 39.3,20.0 Z M39.9,18.0 Q39.1,18.0 38.8,17.7 Q38.6,17.4 38.6,16.0 Q38.6,14.6 38.9,14.3 Q39.2,14.0 39.9,14.0 Q40.3,14.0 40.5,14.1 Q40.7,14.2 41.1,14.5 L41.1,17.3 Q40.8,17.8 40.6,17.9 Q40.4,18.0 39.9,18.0 Z"/><path d="M48.0,20.0 Q49.1,20.0 49.5,19.8 Q49.8,19.5 50.5,18.7 L50.6,18.7 L50.7,20.0 L52.8,20.0 L52.8,12.0 L50.3,12.0 L50.3,17.1 Q49.8,17.7 49.7,17.8 Q49.5,17.9 48.9,17.9 Q48.3,17.9 48.2,17.7 Q48.0,17.6 48.0,16.5 L48.0,12.0 L45.5,12.0 L45.5,16.8 Q45.5,18.8 45.9,19.4 Q46.3,20.0 48.0,20.0 Z"/><path d="M58.3,20.0 Q59.2,20.0 59.7,19.9 Q60.2,19.8 61.0,19.1 L60.0,17.5 Q59.6,17.8 59.3,17.9 Q59.1,18.0 58.6,18.0 Q57.6,18.0 57.3,17.6 Q56.9,17.2 56.9,16.0 Q56.9,14.8 57.2,14.4 Q57.6,14.0 58.7,14.0 Q59.0,14.0 59.2,14.1 Q59.3,14.1 59.7,14.4 L60.9,12.9 Q60.3,12.3 59.9,12.2 Q59.5,12.0 58.5,12.0 Q56.3,12.0 55.3,12.8 Q54.3,13.5 54.3,16.0 Q54.3,18.5 55.2,19.2 Q56.1,20.0 58.3,20.0 Z"/><path d="M66.1,20.0 Q67.0,20.0 67.2,19.9 Q67.5,19.8 68.0,19.7 L67.5,17.9 Q67.4,18.0 67.2,18.0 Q67.1,18.1 66.8,18.1 Q66.2,18.1 66.0,17.9 Q65.8,17.7 65.8,16.9 L65.8,14.0 L67.7,14.0 L67.7,12.0 L65.8,12.0 L65.8,9.9 L63.8,9.9 L63.5,12.0 L62.2,12.1 L62.2,14.0 L63.3,14.0 L63.3,16.9 Q63.3,18.7 63.7,19.4 Q64.1,20.0 66.1,20.0 Z"/><path d="M69.2,20.0 L71.7,20.0 L71.7,12.0 L69.2,12.0 L69.2,20.0 Z M70.5,11.0 Q71.3,11.0 71.6,10.8 Q71.8,10.5 71.8,9.7 Q71.8,9.0 71.6,8.7 Q71.3,8.4 70.5,8.4 Q69.6,8.4 69.3,8.7 Q69.1,9.0 69.1,9.7 Q69.1,10.5 69.3,10.8 Q69.6,11.0 70.5,11.0 Z"/><path d="M76.2,20.0 L79.1,20.0 L81.7,12.0 L79.3,12.0 L78.3,15.7 Q78.1,16.5 78.0,16.9 Q77.9,17.3 77.7,18.2 L77.7,18.2 Q77.4,17.3 77.4,16.9 Q77.3,16.5 77.1,15.7 L76.1,12.0 L73.6,12.0 L76.2,20.0 Z"/><path d="M87.2,20.0 Q88.1,20.0 88.7,19.8 Q89.2,19.7 90.1,19.1 L89.2,17.6 Q88.7,17.9 88.4,18.0 Q88.1,18.1 87.6,18.1 Q86.5,18.1 86.2,17.9 Q85.8,17.7 85.6,16.6 L90.2,16.6 Q90.3,16.5 90.3,16.2 Q90.4,16.0 90.4,15.6 Q90.4,13.7 89.8,12.8 Q89.2,12.0 86.9,12.0 Q85.0,12.0 84.1,12.8 Q83.1,13.6 83.1,15.9 Q83.1,18.5 84.0,19.2 Q84.9,20.0 87.2,20.0 Z M85.5,15.0 Q85.7,14.3 86.0,14.1 Q86.3,13.9 87.0,13.9 Q87.9,13.9 88.1,14.1 Q88.2,14.4 88.2,15.0 L85.5,15.0 Z"/><path d="M91.5,16.8 L95.5,16.8 L95.5,15.0 L91.5,15.0 L91.5,16.8 Z"/><path d="M97.0,20.0 L99.5,20.0 L99.5,15.5 Q99.9,14.6 100.3,14.4 Q100.6,14.2 101.2,14.2 Q101.5,14.2 101.7,14.2 Q101.8,14.2 102.1,14.3 L102.5,12.0 Q102.3,12.1 102.1,12.0 Q102.0,12.0 101.5,12.0 Q100.7,12.0 100.3,12.3 Q99.8,12.5 99.3,13.6 L99.2,13.6 L99.0,12.0 L97.0,12.0 L97.0,20.0 Z"/><path d="M107.8,20.0 Q108.7,20.0 109.3,19.8 Q109.8,19.7 110.7,19.1 L109.8,17.6 Q109.3,17.9 109.0,18.0 Q108.7,18.1 108.2,18.1 Q107.1,18.1 106.8,17.9 Q106.4,17.7 106.2,16.6 L110.8,16.6 Q110.9,16.5 110.9,16.2 Q111.0,16.0 111.0,15.6 Q111.0,13.7 110.4,12.8 Q109.8,12.0 107.5,12.0 Q105.6,12.0 104.7,12.8 Q103.7,13.6 103.7,15.9 Q103.7,18.5 104.6,19.2 Q105.5,20.0 107.8,20.0 Z M106.1,15.0 Q106.3,14.3 106.6,14.1 Q106.9,13.9 107.6,13.9 Q108.5,13.9 108.7,14.1 Q108.8,14.4 108.8,15.0 L106.1,15.0 Z"/><path d="M114.4,20.0 Q115.3,20.0 115.7,19.8 Q116.0,19.6 116.7,19.0 L116.8,19.0 L116.9,20.0 L119.0,20.0 L119.0,15.6 Q119.0,13.2 118.4,12.6 Q117.8,12.0 115.7,12.0 Q114.5,12.0 113.9,12.2 Q113.4,12.4 112.3,13.1 L113.2,14.7 Q114.0,14.2 114.3,14.1 Q114.6,14.0 115.3,14.0 Q116.1,14.0 116.3,14.2 Q116.4,14.4 116.5,15.0 Q113.4,15.3 112.7,15.8 Q112.1,16.2 112.1,17.8 Q112.1,18.9 112.5,19.5 Q112.9,20.0 114.4,20.0 Z M115.3,18.1 Q114.8,18.1 114.6,18.0 Q114.4,17.9 114.4,17.4 Q114.4,16.9 114.7,16.7 Q114.9,16.5 116.5,16.3 L116.5,17.5 Q116.1,17.9 115.9,18.0 Q115.8,18.1 115.3,18.1 Z"/><path d="M123.0,20.0 Q125.1,20.0 125.7,19.4 Q126.3,18.9 126.3,17.5 Q126.3,16.1 125.7,15.9 Q125.2,15.6 124.2,15.2 Q123.4,15.0 123.0,14.9 Q122.7,14.8 122.7,14.4 Q122.7,14.0 122.8,13.9 Q123.0,13.8 123.5,13.8 Q124.1,13.8 124.3,14.0 Q124.6,14.1 125.2,14.5 L126.3,13.0 Q125.6,12.5 125.2,12.3 Q124.7,12.0 123.4,12.0 Q121.6,12.0 121.0,12.5 Q120.4,13.0 120.4,14.5 Q120.4,15.7 120.9,16.0 Q121.4,16.3 122.4,16.6 Q123.2,16.9 123.6,17.0 Q124.0,17.2 124.0,17.6 Q124.0,18.0 123.8,18.1 Q123.7,18.2 123.0,18.2 Q122.4,18.2 122.1,18.0 Q121.8,17.9 121.0,17.4 L119.9,18.9 Q120.7,19.6 121.3,19.8 Q121.9,20.0 123.0,20.0 Z"/><path d="M131.3,20.0 Q133.3,20.0 134.2,19.2 Q135.2,18.5 135.2,16.0 Q135.2,13.5 134.2,12.8 Q133.3,12.0 131.3,12.0 Q129.2,12.0 128.3,12.8 Q127.3,13.5 127.3,16.0 Q127.3,18.5 128.3,19.2 Q129.2,20.0 131.3,20.0 Z M131.3,18.0 Q130.3,18.0 130.1,17.6 Q129.9,17.2 129.9,16.0 Q129.9,14.8 130.1,14.4 Q130.3,14.0 131.3,14.0 Q132.2,14.0 132.4,14.4 Q132.6,14.8 132.6,16.0 Q132.6,17.2 132.4,17.6 Q132.2,18.0 131.3,18.0 Z"/><path d="M137.0,20.0 L139.5,20.0 L139.5,14.8 Q140.0,14.4 140.1,14.3 Q140.3,14.1 140.9,14.1 Q141.5,14.1 141.6,14.3 Q141.8,14.4 141.8,15.5 L141.8,20.0 L144.3,20.0 L144.3,15.2 Q144.3,13.2 143.9,12.6 Q143.5,12.0 141.8,12.0 Q140.7,12.0 140.3,12.3 Q139.9,12.5 139.3,13.2 L139.2,13.2 L139.0,12.0 L137.0,12.0 L137.0,20.0 Z"/><path d="M146.2,20.0 L148.7,20.0 L148.7,12.0 L146.2,12.0 L146.2,20.0 Z M147.5,11.0 Q148.3,11.0 148.6,10.8 Q148.8,10.5 148.8,9.7 Q148.8,9.0 148.6,8.7 Q148.3,8.4 147.5,8.4 Q146.6,8.4 146.3,8.7 Q146.1,9.0 146.1,9.7 Q146.1,10.5 146.3,10.8 Q146.6,11.0 147.5,11.0 Z"/><path d="M151.4,20.0 L153.9,20.0 L153.9,14.8 Q154.4,14.4 154.5,14.3 Q154.7,14.1 155.3,14.1 Q155.9,14.1 156.0,14.3 Q156.2,14.4 156.2,15.5 L156.2,20.0 L158.7,20.0 L158.7,15.2 Q158.7,13.2 158.3,12.6 Q157.9,12.0 156.2,12.0 Q155.1,12.0 154.7,12.3 Q154.3,12.5 153.7,13.2 L153.6,13.2 L153.4,12.0 L151.4,12.0 L151.4,20.0 Z"/><path d="M163.5,23.6 Q166.2,23.6 167.1,23.0 Q168.0,22.4 168.0,20.2 Q168.0,18.7 167.4,18.4 Q166.9,18.1 164.9,18.1 L163.6,18.1 Q162.8,18.1 162.6,18.1 Q162.5,18.0 162.5,17.8 Q162.5,17.6 162.5,17.6 Q162.6,17.5 162.7,17.4 Q163.1,17.5 163.2,17.5 Q163.4,17.5 163.6,17.5 Q165.4,17.5 166.1,17.1 Q166.8,16.7 166.8,14.8 Q166.8,14.4 166.8,14.2 Q166.7,14.0 166.6,13.8 L167.8,13.8 L167.8,12.0 L164.9,12.0 Q164.6,12.1 164.3,12.0 Q164.1,12.0 163.6,12.0 Q161.9,12.0 161.1,12.5 Q160.3,13.0 160.3,14.8 Q160.3,15.7 160.6,16.1 Q160.8,16.4 161.4,16.8 L161.4,16.9 Q160.9,17.2 160.7,17.5 Q160.5,17.7 160.5,18.0 Q160.5,18.7 160.7,18.9 Q160.8,19.1 161.2,19.4 L161.2,19.5 Q160.5,19.8 160.3,20.2 Q160.1,20.5 160.1,21.4 Q160.1,23.0 160.9,23.3 Q161.6,23.6 163.5,23.6 Z M163.6,16.0 Q163.1,16.0 162.9,15.8 Q162.6,15.6 162.6,14.8 Q162.6,14.1 162.9,13.9 Q163.1,13.7 163.6,13.7 Q164.2,13.7 164.5,13.9 Q164.7,14.1 164.7,14.8 Q164.7,15.6 164.5,15.8 Q164.2,16.0 163.6,16.0 Z M163.8,22.0 Q162.8,22.0 162.5,21.8 Q162.2,21.6 162.2,20.9 Q162.2,20.5 162.2,20.3 Q162.3,20.2 162.5,19.9 Q162.8,20.0 162.9,20.0 Q163.1,20.0 163.7,20.0 L164.4,20.0 Q165.2,20.0 165.4,20.1 Q165.6,20.1 165.6,20.8 Q165.6,21.5 165.2,21.7 Q164.9,22.0 163.8,22.0 Z"/></g>
  
</svg>
