<svg xmlns="http://www.w3.org/2000/svg" viewBox="0 0 258 30" width="258" height="30" role="img" aria-label="administrative-value-judgment">
  <rect x="0.5" y="0.5" width="257" height="29" rx="5" fill="#f3e0e6"/>
  <rect x="0" y="0" width="4" height="30" rx="2" fill="#9c3a55"/>
  <g fill="#2a2d34"><path d="M21.0,20.0 Q21.9,20.0 22.3,19.8 Q22.6,19.6 23.3,19.0 L23.4,19.0 L23.5,20.0 L25.6,20.0 L25.6,15.6 Q25.6,13.2 25.0,12.6 Q24.4,12.0 22.3,12.0 Q21.1,12.0 20.5,12.2 Q20.0,12.4 18.9,13.1 L19.8,14.7 Q20.6,14.2 20.9,14.1 Q21.2,14.0 21.9,14.0 Q22.7,14.0 22.9,14.2 Q23.0,14.4 23.1,15.0 Q20.0,15.3 19.3,15.8 Q18.7,16.2 18.7,17.8 Q18.7,18.9 19.1,19.5 Q19.5,20.0 21.0,20.0 Z M21.9,18.1 Q21.4,18.1 21.2,18.0 Q21.0,17.9 21.0,17.4 Q21.0,16.9 21.3,16.7 Q21.5,16.5 23.1,16.3 L23.1,17.5 Q22.7,17.9 22.5,18.0 Q22.4,18.1 21.9,18.1 Z"/><path d="M30.1,20.0 Q30.8,20.0 31.2,19.8 Q31.6,19.6 32.2,19.0 L32.2,19.0 L32.4,20.0 L34.4,20.0 L34.4,9.0 L31.9,9.0 L31.9,11.6 L32.0,12.8 Q31.5,12.3 31.2,12.2 Q31.0,12.0 30.1,12.0 Q28.4,12.0 27.6,12.8 Q26.8,13.6 26.8,16.1 Q26.8,18.4 27.4,19.2 Q28.1,20.0 30.1,20.0 Z M30.7,18.0 Q29.9,18.0 29.6,17.7 Q29.4,17.4 29.4,16.0 Q29.4,14.6 29.7,14.3 Q30.0,14.0 30.7,14.0 Q31.1,14.0 31.3,14.1 Q31.5,14.2 31.9,14.5 L31.9,17.3 Q31.6,17.8 31.4,17.9 Q31.2,18.0 30.7,18.0 Z"/><path d="M36.4,20.0 L38.9,20.0 L38.9,14.8 Q39.4,14.4 39.6,14.2 Q39.8,14.1 40.1,14.1 Q40.8,14.1 40.9,14.3 Q41.1,14.4 41.1,15.5 L41.1,20.0 L43.6,20.0 L43.6,14.8 Q44.1,14.4 44.3,14.2 Q44.5,14.1 44.9,14.1 Q45.5,14.1 45.6,14.3 Q45.8,14.4 45.8,15.5 L45.8,20.0 L48.2,20.0 L48.2,15.2 Q48.2,13.2 47.9,12.6 Q47.5,12.0 45.8,12.0 Q44.7,12.0 44.3,12.3 Q43.9,12.6 43.3,13.3 Q42.9,12.5 42.5,12.2 Q42.2,12.0 41.1,12.0 Q40.0,12.0 39.7,12.3 Q39.3,12.5 38.6,13.2 L38.6,13.2 L38.4,12.0 L36.4,12.0 L36.4,20.0 Z"/><path d="M50.6,20.0 L53.1,20.0 L53.1,12.0 L50.6,12.0 L50.6,20.0 Z M51.8,11.0 Q52.7,11.0 53.0,10.8 Q53.2,10.5 53.2,9.7 Q53.2,9.0 53.0,8.7 Q52.7,8.4 51.8,8.4 Q51.0,8.4 50.7,8.7 Q50.5,9.0 50.5,9.7 Q50.5,10.5 50.7,10.8 Q51.0,11.0 51.8,11.0 Z"/><path d="M55.8,20.0 L58.3,20.0 L58.3,14.8 Q58.8,14.4 58.9,14.3 Q59.1,14.1 59.7,14.1 Q60.3,14.1 60.4,14.3 Q60.6,14.4 60.6,15.5 L60.6,20.0 L63.1,20.0 L63.1,15.2 Q63.1,13.2 62.7,12.6 Q62.3,12.0 60.6,12.0 Q59.5,12.0 59.1,12.3 Q58.7,12.5 58.0,13.2 L58.0,13.2 L57.8,12.0 L55.8,12.0 L55.8,20.0 Z"/><path d="M65.0,20.0 L67.5,20.0 L67.5,12.0 L65.0,12.0 L65.0,20.0 Z M66.2,11.0 Q67.1,11.0 67.4,10.8 Q67.6,10.5 67.6,9.7 Q67.6,9.0 67.4,8.7 Q67.1,8.4 66.2,8.4 Q65.4,8.4 65.1,8.7 Q64.9,9.0 64.9,9.7 Q64.9,10.5 65.1,10.8 Q65.4,11.0 66.2,11.0 Z"/><path d="M72.6,20.0 Q74.7,20.0 75.3,19.4 Q75.9,18.9 75.9,17.5 Q75.9,16.1 75.3,15.9 Q74.8,15.6 73.8,15.2 Q73.0,15.0 72.6,14.9 Q72.3,14.8 72.3,14.4 Q72.3,14.0 72.4,13.9 Q72.6,13.8 73.1,13.8 Q73.7,13.8 73.9,14.0 Q74.2,14.1 74.8,14.5 L75.9,13.0 Q75.2,12.5 74.8,12.3 Q74.3,12.0 73.0,12.0 Q71.2,12.0 70.6,12.5 Q70.0,13.0 70.0,14.5 Q70.0,15.7 70.5,16.0 Q71.0,16.3 72.0,16.6 Q72.8,16.9 73.2,17.0 Q73.6,17.2 73.6,17.6 Q73.6,18.0 73.4,18.1 Q73.3,18.2 72.6,18.2 Q72.0,18.2 71.7,18.0 Q71.4,17.9 70.6,17.4 L69.5,18.9 Q70.3,19.6 70.9,19.8 Q71.5,20.0 72.6,20.0 Z"/><path d="M80.5,20.0 Q81.4,20.0 81.6,19.9 Q81.9,19.8 82.4,19.7 L81.9,17.9 Q81.8,18.0 81.6,18.0 Q81.5,18.1 81.2,18.1 Q80.6,18.1 80.4,17.9 Q80.2,17.7 80.2,16.9 L80.2,14.0 L82.1,14.0 L82.1,12.0 L80.2,12.0 L80.2,9.9 L78.2,9.9 L77.9,12.0 L76.7,12.1 L76.7,14.0 L77.7,14.0 L77.7,16.9 Q77.7,18.7 78.1,19.4 Q78.5,20.0 80.5,20.0 Z"/><path d="M83.6,20.0 L86.1,20.0 L86.1,15.5 Q86.5,14.6 86.9,14.4 Q87.2,14.2 87.8,14.2 Q88.1,14.2 88.3,14.2 Q88.4,14.2 88.7,14.3 L89.1,12.0 Q88.9,12.1 88.7,12.0 Q88.6,12.0 88.1,12.0 Q87.3,12.0 86.9,12.3 Q86.4,12.5 85.9,13.6 L85.8,13.6 L85.6,12.0 L83.6,12.0 L83.6,20.0 Z"/><path d="M92.8,20.0 Q93.7,20.0 94.1,19.8 Q94.4,19.6 95.1,19.0 L95.2,19.0 L95.3,20.0 L97.4,20.0 L97.4,15.6 Q97.4,13.2 96.8,12.6 Q96.2,12.0 94.1,12.0 Q92.9,12.0 92.3,12.2 Q91.8,12.4 90.7,13.1 L91.6,14.7 Q92.4,14.2 92.7,14.1 Q93.0,14.0 93.7,14.0 Q94.5,14.0 94.7,14.2 Q94.8,14.4 94.9,15.0 Q91.8,15.3 91.1,15.8 Q90.5,16.2 90.5,17.8 Q90.5,18.9 90.9,19.5 Q91.3,20.0 92.8,20.0 Z M93.7,18.1 Q93.2,18.1 93.0,18.0 Q92.8,17.9 92.8,17.4 Q92.8,16.9 93.1,16.7 Q93.3,16.5 94.9,16.3 L94.9,17.5 Q94.5,17.9 94.3,18.0 Q94.2,18.1 93.7,18.1 Z"/><path d="M102.1,20.0 Q103.0,20.0 103.2,19.9 Q103.5,19.8 104.0,19.7 L103.5,17.9 Q103.4,18.0 103.2,18.0 Q103.1,18.1 102.8,18.1 Q102.2,18.1 102.0,17.9 Q101.8,17.7 101.8,16.9 L101.8,14.0 L103.7,14.0 L103.7,12.0 L101.8,12.0 L101.8,9.9 L99.8,9.9 L99.5,12.0 L98.3,12.1 L98.3,14.0 L99.3,14.0 L99.3,16.9 Q99.3,18.7 99.7,19.4 Q100.1,20.0 102.1,20.0 Z"/><path d="M105.2,20.0 L107.7,20.0 L107.7,12.0 L105.2,12.0 L105.2,20.0 Z M106.5,11.0 Q107.3,11.0 107.6,10.8 Q107.8,10.5 107.8,9.7 Q107.8,9.0 107.6,8.7 Q107.3,8.4 106.5,8.4 Q105.6,8.4 105.3,8.7 Q105.1,9.0 105.1,9.7 Q105.1,10.5 105.3,10.8 Q105.6,11.0 106.5,11.0 Z"/><path d="M112.2,20.0 L115.1,20.0 L117.7,12.0 L115.3,12.0 L114.3,15.7 Q114.1,16.5 114.0,16.9 Q113.9,17.3 113.7,18.2 L113.7,18.2 Q113.4,17.3 113.4,16.9 Q113.3,16.5 113.1,15.7 L112.1,12.0 L109.6,12.0 L112.2,20.0 Z"/><path d="M123.2,20.0 Q124.1,20.0 124.7,19.8 Q125.2,19.7 126.1,19.1 L125.2,17.6 Q124.7,17.9 124.4,18.0 Q124.1,18.1 123.6,18.1 Q122.5,18.1 122.2,17.9 Q121.8,17.7 121.6,16.6 L126.2,16.6 Q126.3,16.5 126.3,16.2 Q126.4,16.0 126.4,15.6 Q126.4,13.7 125.8,12.8 Q125.2,12.0 122.9,12.0 Q121.0,12.0 120.1,12.8 Q119.1,13.6 119.1,15.9 Q119.1,18.5 120.0,19.2 Q120.9,20.0 123.2,20.0 Z M121.5,15.0 Q121.7,14.3 122.0,14.1 Q122.3,13.9 123.0,13.9 Q123.9,13.9 124.1,14.1 Q124.2,14.4 124.2,15.0 L121.5,15.0 Z"/><path d="M127.5,16.8 L131.5,16.8 L131.5,15.0 L127.5,15.0 L127.5,16.8 Z"/><path d="M134.8,20.0 L137.7,20.0 L140.3,12.0 L137.9,12.0 L136.9,15.7 Q136.7,16.5 136.6,16.9 Q136.5,17.3 136.3,18.2 L136.3,18.2 Q136.0,17.3 136.0,16.9 Q135.9,16.5 135.7,15.7 L134.7,12.0 L132.2,12.0 L134.8,20.0 Z"/><path d="M144.2,20.0 Q145.1,20.0 145.5,19.8 Q145.8,19.6 146.5,19.0 L146.6,19.0 L146.7,20.0 L148.8,20.0 L148.8,15.6 Q148.8,13.2 148.2,12.6 Q147.6,12.0 145.5,12.0 Q144.3,12.0 143.7,12.2 Q143.2,12.4 142.1,13.1 L143.0,14.7 Q143.8,14.2 144.1,14.1 Q144.4,14.0 145.1,14.0 Q145.9,14.0 146.1,14.2 Q146.2,14.4 146.3,15.0 Q143.2,15.3 142.5,15.8 Q141.9,16.2 141.9,17.8 Q141.9,18.9 142.3,19.5 Q142.7,20.0 144.2,20.0 Z M145.1,18.1 Q144.6,18.1 144.4,18.0 Q144.2,17.9 144.2,17.4 Q144.2,16.9 144.5,16.7 Q144.7,16.5 146.3,16.3 L146.3,17.5 Q145.9,17.9 145.7,18.0 Q145.6,18.1 145.1,18.1 Z"/><path d="M152.7,20.0 Q153.2,20.0 153.4,20.0 Q153.6,19.9 153.9,19.8 L153.6,18.0 Q153.5,18.0 153.4,18.0 Q153.4,18.0 153.3,18.0 Q153.1,18.0 153.0,17.9 Q152.9,17.8 152.9,17.3 L152.9,8.6 L150.4,8.6 L150.4,17.2 Q150.4,18.9 150.7,19.4 Q151.0,20.0 152.7,20.0 Z"/><path d="M158.0,20.0 Q159.1,20.0 159.5,19.8 Q159.8,19.5 160.5,18.7 L160.6,18.7 L160.7,20.0 L162.8,20.0 L162.8,12.0 L160.3,12.0 L160.3,17.1 Q159.8,17.7 159.7,17.8 Q159.5,17.9 158.9,17.9 Q158.3,17.9 158.2,17.7 Q158.0,17.6 158.0,16.5 L158.0,12.0 L155.5,12.0 L155.5,16.8 Q155.5,18.8 155.9,19.4 Q156.3,20.0 158.0,20.0 Z"/><path d="M168.4,20.0 Q169.3,20.0 169.9,19.8 Q170.4,19.7 171.3,19.1 L170.4,17.6 Q169.9,17.9 169.6,18.0 Q169.3,18.1 168.8,18.1 Q167.7,18.1 167.4,17.9 Q167.0,17.7 166.8,16.6 L171.4,16.6 Q171.5,16.5 171.5,16.2 Q171.5,16.0 171.5,15.6 Q171.5,13.7 171.0,12.8 Q170.4,12.0 168.1,12.0 Q166.2,12.0 165.3,12.8 Q164.3,13.6 164.3,15.9 Q164.3,18.5 165.2,19.2 Q166.1,20.0 168.4,20.0 Z M166.7,15.0 Q166.9,14.3 167.2,14.1 Q167.5,13.9 168.2,13.9 Q169.1,13.9 169.3,14.1 Q169.4,14.4 169.4,15.0 L166.7,15.0 Z"/><path d="M172.7,16.8 L176.7,16.8 L176.7,15.0 L172.7,15.0 L172.7,16.8 Z"/><path d="M177.8,23.0 Q180.0,23.0 180.4,22.2 Q180.7,21.5 180.7,19.7 L180.7,12.0 L178.2,12.0 L178.2,19.8 Q178.2,20.7 178.1,20.9 Q178.0,21.1 177.4,21.1 Q177.2,21.1 177.1,21.0 Q177.0,21.0 176.8,21.0 L176.4,22.8 Q176.7,22.9 176.9,23.0 Q177.1,23.0 177.8,23.0 Z M179.5,11.0 Q180.3,11.0 180.6,10.8 Q180.9,10.5 180.9,9.7 Q180.9,9.0 180.6,8.7 Q180.3,8.4 179.5,8.4 Q178.7,8.4 178.4,8.7 Q178.1,9.0 178.1,9.7 Q178.1,10.5 178.4,10.8 Q178.7,11.0 179.5,11.0 Z"/><path d="M185.8,20.0 Q186.9,20.0 187.3,19.8 Q187.6,19.5 188.3,18.7 L188.4,18.7 L188.5,20.0 L190.6,20.0 L190.6,12.0 L188.1,12.0 L188.1,17.1 Q187.6,17.7 187.5,17.8 Q187.3,17.9 186.7,17.9 Q186.1,17.9 186.0,17.7 Q185.8,17.6 185.8,16.5 L185.8,12.0 L183.3,12.0 L183.3,16.8 Q183.3,18.8 183.7,19.4 Q184.1,20.0 185.8,20.0 Z"/><path d="M195.5,20.0 Q196.2,20.0 196.6,19.8 Q197.0,19.6 197.6,19.0 L197.6,19.0 L197.8,20.0 L199.8,20.0 L199.8,9.0 L197.3,9.0 L197.3,11.6 L197.4,12.8 Q196.9,12.3 196.6,12.2 Q196.4,12.0 195.5,12.0 Q193.8,12.0 193.0,12.8 Q192.2,13.6 192.2,16.1 Q192.2,18.4 192.8,19.2 Q193.5,20.0 195.5,20.0 Z M196.1,18.0 Q195.3,18.0 195.0,17.7 Q194.8,17.4 194.8,16.0 Q194.8,14.6 195.1,14.3 Q195.4,14.0 196.1,14.0 Q196.5,14.0 196.7,14.1 Q196.9,14.2 197.3,14.5 L197.3,17.3 Q197.0,17.8 196.8,17.9 Q196.6,18.0 196.1,18.0 Z"/><path d="M204.7,23.6 Q207.4,23.6 208.3,23.0 Q209.2,22.4 209.2,20.2 Q209.2,18.7 208.6,18.4 Q208.1,18.1 206.1,18.1 L204.8,18.1 Q204.0,18.1 203.8,18.1 Q203.7,18.0 203.7,17.8 Q203.7,17.6 203.7,17.6 Q203.8,17.5 203.9,17.4 Q204.3,17.5 204.4,17.5 Q204.6,17.5 204.8,17.5 Q206.6,17.5 207.3,17.1 Q208.0,16.7 208.0,14.8 Q208.0,14.4 208.0,14.2 Q207.9,14.0 207.8,13.8 L209.0,13.8 L209.0,12.0 L206.1,12.0 Q205.8,12.1 205.5,12.0 Q205.3,12.0 204.8,12.0 Q203.1,12.0 202.3,12.5 Q201.5,13.0 201.5,14.8 Q201.5,15.7 201.8,16.1 Q202.0,16.4 202.6,16.8 L202.6,16.9 Q202.1,17.2 201.9,17.5 Q201.7,17.7 201.7,18.0 Q201.7,18.7 201.9,18.9 Q202.0,19.1 202.4,19.4 L202.4,19.5 Q201.7,19.8 201.5,20.2 Q201.3,20.5 201.3,21.4 Q201.3,23.0 202.1,23.3 Q202.8,23.6 204.7,23.6 Z M204.8,16.0 Q204.3,16.0 204.1,15.8 Q203.8,15.6 203.8,14.8 Q203.8,14.1 204.1,13.9 Q204.3,13.7 204.8,13.7 Q205.4,13.7 205.7,13.9 Q205.9,14.1 205.9,14.8 Q205.9,15.6 205.7,15.8 Q205.4,16.0 204.8,16.0 Z M205.0,22.0 Q204.0,22.0 203.7,21.8 Q203.4,21.6 203.4,20.9 Q203.4,20.5 203.4,20.3 Q203.5,20.2 203.7,19.9 Q204.0,20.0 204.1,20.0 Q204.3,20.0 204.9,20.0 L205.6,20.0 Q206.4,20.0 206.6,20.1 Q206.8,20.1 206.8,20.8 Q206.8,21.5 206.4,21.7 Q206.1,22.0 205.0,22.0 Z"/><path d="M211.0,20.0 L213.5,20.0 L213.5,14.8 Q214.0,14.4 214.2,14.2 Q214.4,14.1 214.7,14.1 Q215.4,14.1 215.5,14.3 Q215.7,14.4 215.7,15.5 L215.7,20.0 L218.2,20.0 L218.2,14.8 Q218.7,14.4 218.9,14.2 Q219.1,14.1 219.5,14.1 Q220.1,14.1 220.2,14.3 Q220.4,14.4 220.4,15.5 L220.4,20.0 L222.8,20.0 L222.8,15.2 Q222.8,13.2 222.5,12.6 Q222.1,12.0 220.4,12.0 Q219.3,12.0 218.9,12.3 Q218.5,12.6 217.9,13.3 Q217.5,12.5 217.1,12.2 Q216.8,12.0 215.7,12.0 Q214.6,12.0 214.3,12.3 Q213.9,12.5 213.2,13.2 L213.2,13.2 L213.0,12.0 L211.0,12.0 L211.0,20.0 Z"/><path d="M228.8,20.0 Q229.7,20.0 230.3,19.8 Q230.8,19.7 231.7,19.1 L230.8,17.6 Q230.3,17.9 230.0,18.0 Q229.7,18.1 229.2,18.1 Q228.1,18.1 227.8,17.9 Q227.4,17.7 227.2,16.6 L231.8,16.6 Q231.9,16.5 231.9,16.2 Q231.9,16.0 231.9,15.6 Q231.9,13.7 231.4,12.8 Q230.8,12.0 228.5,12.0 Q226.6,12.0 225.7,12.8 Q224.7,13.6 224.7,15.9 Q224.7,18.5 225.6,19.2 Q226.5,20.0 228.8,20.0 Z M227.1,15.0 Q227.3,14.3 227.6,14.1 Q227.9,13.9 228.6,13.9 Q229.5,13.9 229.7,14.1 Q229.8,14.4 229.8,15.0 L227.1,15.0 Z"/><path d="M233.4,20.0 L235.9,20.0 L235.9,14.8 Q236.4,14.4 236.5,14.3 Q236.7,14.1 237.3,14.1 Q237.9,14.1 238.0,14.3 Q238.2,14.4 238.2,15.5 L238.2,20.0 L240.7,20.0 L240.7,15.2 Q240.7,13.2 240.3,12.6 Q239.9,12.0 238.2,12.0 Q237.1,12.0 236.7,12.3 Q236.3,12.5 235.6,13.2 L235.6,13.2 L235.4,12.0 L233.4,12.0 L233.4,20.0 Z"/><path d="M245.7,20.0 Q246.6,20.0 246.8,19.9 Q247.1,19.8 247.6,19.7 L247.1,17.9 Q247.0,18.0 246.8,18.0 Q246.7,18.1 246.4,18.1 Q245.8,18.1 245.6,17.9 Q245.4,17.7 245.4,16.9 L245.4,14.0 L247.3,14.0 L247.3,12.0 L245.4,12.0 L245.4,9.9 L243.3,9.9 L243.1,12.0 L241.8,12.1 L241.8,14.0 L242.9,14.0 L242.9,16.9 Q242.9,18.7 243.3,19.4 Q243.7,20.0 245.7,20.0 Z"/></g>
  
</svg>
