<svg xmlns="http://www.w3.org/2000/svg" viewBox="0 0 138 30" width="138" height="30" role="img" aria-label="case-retrieval">
  <rect x="0.5" y="0.5" width="137" height="29" rx="5" fill="#e3e9f1"/>
  <rect x="0" y="0" width="4" height="30" rx="2" fill="#3a5a8c"/>
  <g fill="#2a2d34"><path d="M22.5,20.0 Q23.4,20.0 23.9,19.9 Q24.4,19.8 25.2,19.1 L24.2,17.5 Q23.8,17.8 23.5,17.9 Q23.3,18.0 22.8,18.0 Q21.8,18.0 21.5,17.6 Q21.1,17.2 21.1,16.0 Q21.1,14.8 21.4,14.4 Q21.8,14.0 22.9,14.0 Q23.2,14.0 23.4,14.1 Q23.5,14.1 23.9,14.4 L25.1,12.9 Q24.5,12.3 24.1,12.2 Q23.7,12.0 22.7,12.0 Q20.5,12.0 19.5,12.8 Q18.5,13.5 18.5,16.0 Q18.5,18.5 19.4,19.2 Q20.3,20.0 22.5,20.0 Z"/><path d="M29.2,20.0 Q30.1,20.0 30.5,19.8 Q30.8,19.6 31.5,19.0 L31.6,19.0 L31.7,20.0 L33.8,20.0 L33.8,15.6 Q33.8,13.2 33.2,12.6 Q32.6,12.0 30.5,12.0 Q29.3,12.0 28.7,12.2 Q28.2,12.4 27.1,13.1 L28.0,14.7 Q28.8,14.2 29.1,14.1 Q29.4,14.0 30.1,14.0 Q30.9,14.0 31.1,14.2 Q31.2,14.4 31.3,15.0 Q28.2,15.3 27.5,15.8 Q26.9,16.2 26.9,17.8 Q26.9,18.9 27.3,19.5 Q27.7,20.0 29.2,20.0 Z M30.1,18.1 Q29.6,18.1 29.4,18.0 Q29.2,17.9 29.2,17.4 Q29.2,16.9 29.5,16.7 Q29.7,16.5 31.3,16.3 L31.3,17.5 Q30.9,17.9 30.7,18.0 Q30.6,18.1 30.1,18.1 Z"/><path d="M37.8,20.0 Q39.9,20.0 40.5,19.4 Q41.1,18.9 41.1,17.5 Q41.1,16.1 40.5,15.9 Q40.0,15.6 39.0,15.2 Q38.2,15.0 37.8,14.9 Q37.5,14.8 37.5,14.4 Q37.5,14.0 37.6,13.9 Q37.8,13.8 38.3,13.8 Q38.9,13.8 39.1,14.0 Q39.4,14.1 40.0,14.5 L41.1,13.0 Q40.4,12.5 40.0,12.3 Q39.5,12.0 38.2,12.0 Q36.4,12.0 35.8,12.5 Q35.2,13.0 35.2,14.5 Q35.2,15.7 35.7,16.0 Q36.2,16.3 37.2,16.6 Q38.0,16.9 38.4,17.0 Q38.8,17.2 38.8,17.6 Q38.8,18.0 38.6,18.1 Q38.5,18.2 37.8,18.2 Q37.2,18.2 36.9,18.0 Q36.6,17.9 35.8,17.4 L34.7,18.9 Q35.5,19.6 36.1,19.8 Q36.7,20.0 37.8,20.0 Z"/><path d="M46.2,20.0 Q47.1,20.0 47.7,19.8 Q48.2,19.7 49.1,19.1 L48.2,17.6 Q47.7,17.9 47.4,18.0 Q47.1,18.1 46.6,18.1 Q45.5,18.1 45.2,17.9 Q44.8,17.7 44.6,16.6 L49.2,16.6 Q49.3,16.5 49.3,16.2 Q49.4,16.0 49.4,15.6 Q49.4,13.7 48.8,12.8 Q48.2,12.0 45.9,12.0 Q44.0,12.0 43.1,12.8 Q42.1,13.6 42.1,15.9 Q42.1,18.5 43.0,19.2 Q43.9,20.0 46.2,20.0 Z M44.5,15.0 Q44.7,14.3 45.0,14.1 Q45.3,13.9 46.0,13.9 Q46.9,13.9 47.1,14.1 Q47.2,14.4 47.2,15.0 L44.5,15.0 Z"/><path d="M50.5,16.8 L54.5,16.8 L54.5,15.0 L50.5,15.0 L50.5,16.8 Z"/><path d="M56.0,20.0 L58.5,20.0 L58.5,15.5 Q58.9,14.6 59.3,14.4 Q59.6,14.2 60.2,14.2 Q60.5,14.2 60.7,14.2 Q60.8,14.2 61.1,14.3 L61.5,12.0 Q61.3,12.1 61.1,12.0 Q61.0,12.0 60.5,12.0 Q59.7,12.0 59.3,12.3 Q58.8,12.5 58.2,13.6 L58.2,13.6 L58.0,12.0 L56.0,12.0 L56.0,20.0 Z"/><path d="M66.8,20.0 Q67.7,20.0 68.3,19.8 Q68.8,19.7 69.7,19.1 L68.8,17.6 Q68.3,17.9 68.0,18.0 Q67.7,18.1 67.2,18.1 Q66.1,18.1 65.8,17.9 Q65.4,17.7 65.2,16.6 L69.8,16.6 Q69.9,16.5 69.9,16.2 Q70.0,16.0 70.0,15.6 Q70.0,13.7 69.4,12.8 Q68.8,12.0 66.5,12.0 Q64.6,12.0 63.7,12.8 Q62.7,13.6 62.7,15.9 Q62.7,18.5 63.6,19.2 Q64.5,20.0 66.8,20.0 Z M65.1,15.0 Q65.3,14.3 65.6,14.1 Q65.9,13.9 66.6,13.9 Q67.5,13.9 67.7,14.1 Q67.8,14.4 67.8,15.0 L65.1,15.0 Z"/><path d="M74.5,20.0 Q75.4,20.0 75.6,19.9 Q75.9,19.8 76.4,19.7 L75.9,17.9 Q75.8,18.0 75.6,18.0 Q75.5,18.1 75.2,18.1 Q74.6,18.1 74.4,17.9 Q74.2,17.7 74.2,16.9 L74.2,14.0 L76.1,14.0 L76.1,12.0 L74.2,12.0 L74.2,9.9 L72.2,9.9 L71.9,12.0 L70.7,12.1 L70.7,14.0 L71.7,14.0 L71.7,16.9 Q71.7,18.7 72.1,19.4 Q72.5,20.0 74.5,20.0 Z"/><path d="M77.6,20.0 L80.1,20.0 L80.1,15.5 Q80.5,14.6 80.9,14.4 Q81.2,14.2 81.8,14.2 Q82.1,14.2 82.3,14.2 Q82.4,14.2 82.7,14.3 L83.1,12.0 Q82.9,12.1 82.7,12.0 Q82.6,12.0 82.1,12.0 Q81.3,12.0 80.9,12.3 Q80.4,12.5 79.9,13.6 L79.8,13.6 L79.6,12.0 L77.6,12.0 L77.6,20.0 Z"/><path d="M84.8,20.0 L87.3,20.0 L87.3,12.0 L84.8,12.0 L84.8,20.0 Z M86.1,11.0 Q86.9,11.0 87.2,10.8 Q87.4,10.5 87.4,9.7 Q87.4,9.0 87.2,8.7 Q86.9,8.4 86.1,8.4 Q85.2,8.4 84.9,8.7 Q84.7,9.0 84.7,9.7 Q84.7,10.5 84.9,10.8 Q85.2,11.0 86.1,11.0 Z"/><path d="M93.6,20.0 Q94.5,20.0 95.1,19.8 Q95.6,19.7 96.5,19.1 L95.6,17.6 Q95.1,17.9 94.8,18.0 Q94.5,18.1 94.0,18.1 Q92.9,18.1 92.6,17.9 Q92.2,17.7 92.0,16.6 L96.6,16.6 Q96.7,16.5 96.7,16.2 Q96.8,16.0 96.8,15.6 Q96.8,13.7 96.2,12.8 Q95.6,12.0 93.3,12.0 Q91.4,12.0 90.5,12.8 Q89.5,13.6 89.5,15.9 Q89.5,18.5 90.4,19.2 Q91.3,20.0 93.6,20.0 Z M91.9,15.0 Q92.1,14.3 92.4,14.1 Q92.7,13.9 93.4,13.9 Q94.3,13.9 94.5,14.1 Q94.6,14.4 94.6,15.0 L91.9,15.0 Z"/><path d="M100.0,20.0 L102.9,20.0 L105.5,12.0 L103.1,12.0 L102.1,15.7 Q101.9,16.5 101.8,16.9 Q101.7,17.3 101.5,18.2 L101.5,18.2 Q101.2,17.3 101.2,16.9 Q101.1,16.5 100.9,15.7 L99.9,12.0 L97.4,12.0 L100.0,20.0 Z"/><path d="M109.4,20.0 Q110.3,20.0 110.7,19.8 Q111.0,19.6 111.7,19.0 L111.8,19.0 L111.9,20.0 L114.0,20.0 L114.0,15.6 Q114.0,13.2 113.4,12.6 Q112.8,12.0 110.7,12.0 Q109.5,12.0 108.9,12.2 Q108.4,12.4 107.3,13.1 L108.2,14.7 Q109.0,14.2 109.3,14.1 Q109.6,14.0 110.3,14.0 Q111.1,14.0 111.3,14.2 Q111.4,14.4 111.5,15.0 Q108.4,15.3 107.7,15.8 Q107.1,16.2 107.1,17.8 Q107.1,18.9 107.5,19.5 Q107.9,20.0 109.4,20.0 Z M110.3,18.1 Q109.8,18.1 109.6,18.0 Q109.4,17.9 109.4,17.4 Q109.4,16.9 109.7,16.7 Q109.9,16.5 111.5,16.3 L111.5,17.5 Q111.1,17.9 110.9,18.0 Q110.8,18.1 110.3,18.1 Z"/><path d="M117.9,20.0 Q118.4,20.0 118.6,20.0 Q118.8,19.9 119.1,19.8 L118.8,18.0 Q118.7,18.0 118.6,18.0 Q118.6,18.0 118.5,18.0 Q118.3,18.0 118.2,17.9 Q118.1,17.8 118.1,17.3 L118.1,8.6 L115.6,8.6 L115.6,17.2 Q115.6,18.9 115.9,19.4 Q116.2,20.0 117.9,20.0 Z"/></g>
  
</svg>
