<svg xmlns="http://www.w3.org/2000/svg" viewBox="0 0 222 30" width="222" height="30" role="img" aria-label="counterfactual-reasoning">
  <rect x="0.5" y="0.5" width="221" height="29" rx="5" fill="#f6e3dc"/>
  <rect x="0" y="0" width="4" height="30" rx="2" fill="#b5462f"/>
  <g fill="#2a2d34"><path d="M22.5,20.0 Q23.4,20.0 23.9,19.9 Q24.4,19.8 25.2,19.1 L24.2,17.5 Q23.8,17.8 23.5,17.9 Q23.3,18.0 22.8,18.0 Q21.8,18.0 21.5,17.6 Q21.1,17.2 21.1,16.0 Q21.1,14.8 21.4,14.4 Q21.8,14.0 22.9,14.0 Q23.2,14.0 23.4,14.1 Q23.5,14.1 23.9,14.4 L25.1,12.9 Q24.5,12.3 24.1,12.2 Q23.7,12.0 22.7,12.0 Q20.5,12.0 19.5,12.8 Q18.5,13.5 18.5,16.0 Q18.5,18.5 19.4,19.2 Q20.3,20.0 22.5,20.0 Z"/><path d="M30.7,20.0 Q32.7,20.0 33.6,19.2 Q34.6,18.5 34.6,16.0 Q34.6,13.5 33.6,12.8 Q32.7,12.0 30.7,12.0 Q28.6,12.0 27.7,12.8 Q26.7,13.5 26.7,16.0 Q26.7,18.5 27.7,19.2 Q28.6,20.0 30.7,20.0 Z M30.7,18.0 Q29.7,18.0 29.5,17.6 Q29.3,17.2 29.3,16.0 Q29.3,14.8 29.5,14.4 Q29.7,14.0 30.7,14.0 Q31.6,14.0 31.8,14.4 Q32.0,14.8 32.0,16.0 Q32.0,17.2 31.8,17.6 Q31.6,18.0 30.7,18.0 Z"/><path d="M38.8,20.0 Q39.9,20.0 40.3,19.8 Q40.6,19.5 41.3,18.7 L41.4,18.7 L41.5,20.0 L43.6,20.0 L43.6,12.0 L41.1,12.0 L41.1,17.1 Q40.6,17.7 40.5,17.8 Q40.3,17.9 39.7,17.9 Q39.1,17.9 39.0,17.7 Q38.8,17.6 38.8,16.5 L38.8,12.0 L36.3,12.0 L36.3,16.8 Q36.3,18.8 36.7,19.4 Q37.1,20.0 38.8,20.0 Z"/><path d="M45.6,20.0 L48.1,20.0 L48.1,14.8 Q48.6,14.4 48.7,14.3 Q48.9,14.1 49.5,14.1 Q50.1,14.1 50.2,14.3 Q50.4,14.4 50.4,15.5 L50.4,20.0 L52.9,20.0 L52.9,15.2 Q52.9,13.2 52.5,12.6 Q52.1,12.0 50.4,12.0 Q49.3,12.0 48.9,12.3 Q48.5,12.5 47.8,13.2 L47.8,13.2 L47.6,12.0 L45.6,12.0 L45.6,20.0 Z"/><path d="M57.9,20.0 Q58.8,20.0 59.0,19.9 Q59.3,19.8 59.8,19.7 L59.3,17.9 Q59.2,18.0 59.0,18.0 Q58.9,18.1 58.6,18.1 Q58.0,18.1 57.8,17.9 Q57.6,17.7 57.6,16.9 L57.6,14.0 L59.5,14.0 L59.5,12.0 L57.6,12.0 L57.6,9.9 L55.5,9.9 L55.3,12.0 L54.0,12.1 L54.0,14.0 L55.1,14.0 L55.1,16.9 Q55.1,18.7 55.5,19.4 Q55.9,20.0 57.9,20.0 Z"/><path d="M64.6,20.0 Q65.5,20.0 66.1,19.8 Q66.6,19.7 67.5,19.1 L66.6,17.6 Q66.1,17.9 65.8,18.0 Q65.5,18.1 65.0,18.1 Q63.9,18.1 63.6,17.9 Q63.2,17.7 63.0,16.6 L67.6,16.6 Q67.7,16.5 67.7,16.2 Q67.8,16.0 67.8,15.6 Q67.8,13.7 67.2,12.8 Q66.6,12.0 64.3,12.0 Q62.4,12.0 61.5,12.8 Q60.5,13.6 60.5,15.9 Q60.5,18.5 61.4,19.2 Q62.3,20.0 64.6,20.0 Z M62.9,15.0 Q63.1,14.3 63.4,14.1 Q63.7,13.9 64.4,13.9 Q65.3,13.9 65.5,14.1 Q65.6,14.4 65.6,15.0 L62.9,15.0 Z"/><path d="M69.2,20.0 L71.7,20.0 L71.7,15.5 Q72.1,14.6 72.5,14.4 Q72.8,14.2 73.4,14.2 Q73.7,14.2 73.9,14.2 Q74.0,14.2 74.3,14.3 L74.7,12.0 Q74.5,12.1 74.3,12.0 Q74.2,12.0 73.7,12.0 Q72.9,12.0 72.5,12.3 Q72.0,12.5 71.5,13.6 L71.4,13.6 L71.2,12.0 L69.2,12.0 L69.2,20.0 Z"/><path d="M75.8,14.0 L76.8,14.0 L76.8,20.0 L79.3,20.0 L79.3,14.0 L80.7,14.0 L80.7,12.0 L79.3,12.0 L79.3,11.7 Q79.3,11.2 79.5,11.1 Q79.7,11.0 80.2,11.0 Q80.5,11.0 80.6,11.0 Q80.8,11.0 81.0,11.1 L81.5,9.3 Q81.1,9.1 80.8,9.1 Q80.5,9.0 79.8,9.0 Q77.6,9.0 77.2,9.7 Q76.8,10.4 76.8,11.8 L76.8,12.0 L75.8,12.1 L75.8,14.0 Z"/><path d="M84.6,20.0 Q85.5,20.0 85.9,19.8 Q86.2,19.6 86.9,19.0 L87.0,19.0 L87.1,20.0 L89.2,20.0 L89.2,15.6 Q89.2,13.2 88.6,12.6 Q88.0,12.0 85.9,12.0 Q84.7,12.0 84.1,12.2 Q83.6,12.4 82.5,13.1 L83.4,14.7 Q84.2,14.2 84.5,14.1 Q84.8,14.0 85.5,14.0 Q86.3,14.0 86.5,14.2 Q86.6,14.4 86.7,15.0 Q83.6,15.3 82.9,15.8 Q82.3,16.2 82.3,17.8 Q82.3,18.9 82.7,19.5 Q83.1,20.0 84.6,20.0 Z M85.5,18.1 Q85.0,18.1 84.8,18.0 Q84.6,17.9 84.6,17.4 Q84.6,16.9 84.9,16.7 Q85.1,16.5 86.7,16.3 L86.7,17.5 Q86.3,17.9 86.1,18.0 Q86.0,18.1 85.5,18.1 Z"/><path d="M94.3,20.0 Q95.2,20.0 95.7,19.9 Q96.2,19.8 97.0,19.1 L96.0,17.5 Q95.6,17.8 95.3,17.9 Q95.1,18.0 94.6,18.0 Q93.6,18.0 93.3,17.6 Q92.9,17.2 92.9,16.0 Q92.9,14.8 93.2,14.4 Q93.6,14.0 94.7,14.0 Q95.0,14.0 95.2,14.1 Q95.3,14.1 95.7,14.4 L96.9,12.9 Q96.3,12.3 95.9,12.2 Q95.5,12.0 94.5,12.0 Q92.3,12.0 91.3,12.8 Q90.3,13.5 90.3,16.0 Q90.3,18.5 91.2,19.2 Q92.1,20.0 94.3,20.0 Z"/><path d="M102.1,20.0 Q103.0,20.0 103.2,19.9 Q103.5,19.8 104.0,19.7 L103.5,17.9 Q103.4,18.0 103.2,18.0 Q103.1,18.1 102.8,18.1 Q102.2,18.1 102.0,17.9 Q101.8,17.7 101.8,16.9 L101.8,14.0 L103.7,14.0 L103.7,12.0 L101.8,12.0 L101.8,9.9 L99.8,9.9 L99.5,12.0 L98.3,12.1 L98.3,14.0 L99.3,14.0 L99.3,16.9 Q99.3,18.7 99.7,19.4 Q100.1,20.0 102.1,20.0 Z"/><path d="M107.6,20.0 Q108.7,20.0 109.1,19.8 Q109.4,19.5 110.1,18.7 L110.2,18.7 L110.3,20.0 L112.4,20.0 L112.4,12.0 L109.9,12.0 L109.9,17.1 Q109.5,17.7 109.3,17.8 Q109.1,17.9 108.5,17.9 Q107.9,17.9 107.8,17.7 Q107.6,17.6 107.6,16.5 L107.6,12.0 L105.1,12.0 L105.1,16.8 Q105.1,18.8 105.5,19.4 Q105.9,20.0 107.6,20.0 Z"/><path d="M116.4,20.0 Q117.3,20.0 117.7,19.8 Q118.0,19.6 118.7,19.0 L118.8,19.0 L118.9,20.0 L121.0,20.0 L121.0,15.6 Q121.0,13.2 120.4,12.6 Q119.8,12.0 117.7,12.0 Q116.5,12.0 115.9,12.2 Q115.4,12.4 114.3,13.1 L115.2,14.7 Q116.0,14.2 116.3,14.1 Q116.6,14.0 117.3,14.0 Q118.1,14.0 118.3,14.2 Q118.4,14.4 118.5,15.0 Q115.4,15.3 114.7,15.8 Q114.1,16.2 114.1,17.8 Q114.1,18.9 114.5,19.5 Q114.9,20.0 116.4,20.0 Z M117.3,18.1 Q116.8,18.1 116.6,18.0 Q116.4,17.9 116.4,17.4 Q116.4,16.9 116.7,16.7 Q116.9,16.5 118.5,16.3 L118.5,17.5 Q118.1,17.9 117.9,18.0 Q117.8,18.1 117.3,18.1 Z"/><path d="M124.9,20.0 Q125.4,20.0 125.6,20.0 Q125.8,19.9 126.1,19.8 L125.8,18.0 Q125.7,18.0 125.6,18.0 Q125.6,18.0 125.5,18.0 Q125.3,18.0 125.2,17.9 Q125.1,17.8 125.1,17.3 L125.1,8.6 L122.6,8.6 L122.6,17.2 Q122.6,18.9 122.9,19.4 Q123.2,20.0 124.9,20.0 Z"/><path d="M127.5,16.8 L131.5,16.8 L131.5,15.0 L127.5,15.0 L127.5,16.8 Z"/><path d="M133.0,20.0 L135.5,20.0 L135.5,15.5 Q135.9,14.6 136.3,14.4 Q136.6,14.2 137.2,14.2 Q137.5,14.2 137.7,14.2 Q137.8,14.2 138.1,14.3 L138.5,12.0 Q138.3,12.1 138.1,12.0 Q138.0,12.0 137.5,12.0 Q136.7,12.0 136.3,12.3 Q135.8,12.5 135.3,13.6 L135.2,13.6 L135.0,12.0 L133.0,12.0 L133.0,20.0 Z"/><path d="M143.8,20.0 Q144.7,20.0 145.3,19.8 Q145.8,19.7 146.7,19.1 L145.8,17.6 Q145.3,17.9 145.0,18.0 Q144.7,18.1 144.2,18.1 Q143.1,18.1 142.8,17.9 Q142.4,17.7 142.2,16.6 L146.8,16.6 Q146.9,16.5 146.9,16.2 Q147.0,16.0 147.0,15.6 Q147.0,13.7 146.4,12.8 Q145.8,12.0 143.5,12.0 Q141.6,12.0 140.7,12.8 Q139.7,13.6 139.7,15.9 Q139.7,18.5 140.6,19.2 Q141.5,20.0 143.8,20.0 Z M142.1,15.0 Q142.3,14.3 142.6,14.1 Q142.9,13.9 143.6,13.9 Q144.5,13.9 144.7,14.1 Q144.8,14.4 144.8,15.0 L142.1,15.0 Z"/><path d="M150.4,20.0 Q151.3,20.0 151.7,19.8 Q152.0,19.6 152.7,19.0 L152.8,19.0 L152.9,20.0 L155.0,20.0 L155.0,15.6 Q155.0,13.2 154.4,12.6 Q153.8,12.0 151.7,12.0 Q150.5,12.0 149.9,12.2 Q149.4,12.4 148.3,13.1 L149.2,14.7 Q150.0,14.2 150.3,14.1 Q150.6,14.0 151.3,14.0 Q152.1,14.0 152.3,14.2 Q152.4,14.4 152.5,15.0 Q149.4,15.3 148.7,15.8 Q148.1,16.2 148.1,17.8 Q148.1,18.9 148.5,19.5 Q148.9,20.0 150.4,20.0 Z M151.3,18.1 Q150.8,18.1 150.6,18.0 Q150.4,17.9 150.4,17.4 Q150.4,16.9 150.7,16.7 Q150.9,16.5 152.5,16.3 L152.5,17.5 Q152.1,17.9 151.9,18.0 Q151.8,18.1 151.3,18.1 Z"/><path d="M159.0,20.0 Q161.1,20.0 161.7,19.4 Q162.3,18.9 162.3,17.5 Q162.3,16.1 161.7,15.9 Q161.2,15.6 160.2,15.2 Q159.4,15.0 159.0,14.9 Q158.7,14.8 158.7,14.4 Q158.7,14.0 158.8,13.9 Q159.0,13.8 159.5,13.8 Q160.1,13.8 160.3,14.0 Q160.6,14.1 161.2,14.5 L162.3,13.0 Q161.6,12.5 161.2,12.3 Q160.7,12.0 159.4,12.0 Q157.6,12.0 157.0,12.5 Q156.4,13.0 156.4,14.5 Q156.4,15.7 156.9,16.0 Q157.4,16.3 158.4,16.6 Q159.2,16.9 159.6,17.0 Q160.0,17.2 160.0,17.6 Q160.0,18.0 159.8,18.1 Q159.7,18.2 159.0,18.2 Q158.4,18.2 158.1,18.0 Q157.8,17.9 157.0,17.4 L155.9,18.9 Q156.7,19.6 157.3,19.8 Q157.9,20.0 159.0,20.0 Z"/><path d="M167.3,20.0 Q169.3,20.0 170.2,19.2 Q171.2,18.5 171.2,16.0 Q171.2,13.5 170.2,12.8 Q169.3,12.0 167.3,12.0 Q165.2,12.0 164.3,12.8 Q163.3,13.5 163.3,16.0 Q163.3,18.5 164.3,19.2 Q165.2,20.0 167.3,20.0 Z M167.3,18.0 Q166.3,18.0 166.1,17.6 Q165.9,17.2 165.9,16.0 Q165.9,14.8 166.1,14.4 Q166.3,14.0 167.3,14.0 Q168.2,14.0 168.4,14.4 Q168.6,14.8 168.6,16.0 Q168.6,17.2 168.4,17.6 Q168.2,18.0 167.3,18.0 Z"/><path d="M173.0,20.0 L175.5,20.0 L175.5,14.8 Q176.0,14.4 176.1,14.3 Q176.3,14.1 176.9,14.1 Q177.5,14.1 177.6,14.3 Q177.8,14.4 177.8,15.5 L177.8,20.0 L180.3,20.0 L180.3,15.2 Q180.3,13.2 179.9,12.6 Q179.5,12.0 177.8,12.0 Q176.7,12.0 176.3,12.3 Q175.9,12.5 175.2,13.2 L175.2,13.2 L175.0,12.0 L173.0,12.0 L173.0,20.0 Z"/><path d="M182.2,20.0 L184.7,20.0 L184.7,12.0 L182.2,12.0 L182.2,20.0 Z M183.4,11.0 Q184.3,11.0 184.6,10.8 Q184.8,10.5 184.8,9.7 Q184.8,9.0 184.6,8.7 Q184.3,8.4 183.4,8.4 Q182.6,8.4 182.3,8.7 Q182.1,9.0 182.1,9.7 Q182.1,10.5 182.3,10.8 Q182.6,11.0 183.4,11.0 Z"/><path d="M187.4,20.0 L189.9,20.0 L189.9,14.8 Q190.4,14.4 190.5,14.3 Q190.7,14.1 191.3,14.1 Q191.9,14.1 192.0,14.3 Q192.2,14.4 192.2,15.5 L192.2,20.0 L194.7,20.0 L194.7,15.2 Q194.7,13.2 194.3,12.6 Q193.9,12.0 192.2,12.0 Q191.1,12.0 190.7,12.3 Q190.3,12.5 189.6,13.2 L189.6,13.2 L189.4,12.0 L187.4,12.0 L187.4,20.0 Z"/><path d="M199.5,23.6 Q202.2,23.6 203.1,23.0 Q204.0,22.4 204.0,20.2 Q204.0,18.7 203.4,18.4 Q202.9,18.1 200.9,18.1 L199.6,18.1 Q198.8,18.1 198.6,18.1 Q198.5,18.0 198.5,17.8 Q198.5,17.6 198.5,17.6 Q198.6,17.5 198.7,17.4 Q199.1,17.5 199.2,17.5 Q199.4,17.5 199.6,17.5 Q201.4,17.5 202.1,17.1 Q202.8,16.7 202.8,14.8 Q202.8,14.4 202.8,14.2 Q202.7,14.0 202.6,13.8 L203.8,13.8 L203.8,12.0 L200.9,12.0 Q200.6,12.1 200.3,12.0 Q200.1,12.0 199.6,12.0 Q197.9,12.0 197.1,12.5 Q196.3,13.0 196.3,14.8 Q196.3,15.7 196.6,16.1 Q196.8,16.4 197.4,16.8 L197.4,16.9 Q196.9,17.2 196.7,17.5 Q196.5,17.7 196.5,18.0 Q196.5,18.7 196.7,18.9 Q196.8,19.1 197.2,19.4 L197.2,19.5 Q196.5,19.8 196.3,20.2 Q196.1,20.5 196.1,21.4 Q196.1,23.0 196.9,23.3 Q197.6,23.6 199.5,23.6 Z M199.6,16.0 Q199.1,16.0 198.9,15.8 Q198.6,15.6 198.6,14.8 Q198.6,14.1 198.9,13.9 Q199.1,13.7 199.6,13.7 Q200.2,13.7 200.5,13.9 Q200.7,14.1 200.7,14.8 Q200.7,15.6 200.5,15.8 Q200.2,16.0 199.6,16.0 Z M199.8,22.0 Q198.8,22.0 198.5,21.8 Q198.2,21.6 198.2,20.9 Q198.2,20.5 198.2,20.3 Q198.3,20.2 198.5,19.9 Q198.8,20.0 198.9,20.0 Q199.1,20.0 199.7,20.0 L200.4,20.0 Q201.2,20.0 201.4,20.1 Q201.6,20.1 201.6,20.8 Q201.6,21.5 201.2,21.7 Q200.9,22.0 199.8,22.0 Z"/></g>
  
</svg>
