<svg xmlns="http://www.w3.org/2000/svg" viewBox="0 0 231 30" width="231" height="30" role="img" aria-label="systematic-interpretation">
  <rect x="0.5" y="0.5" width="230" height="29" rx="5" fill="#ece6f3"/>
  <rect x="0" y="0" width="4" height="30" rx="2" fill="#6f5a9c"/>
  <g fill="#2a2d34"><path d="M21.4,20.0 Q23.5,20.0 24.1,19.4 Q24.7,18.9 24.7,17.5 Q24.7,16.1 24.1,15.9 Q23.6,15.6 22.6,15.2 Q21.8,15.0 21.4,14.9 Q21.1,14.8 21.1,14.4 Q21.1,14.0 21.2,13.9 Q21.4,13.8 21.9,13.8 Q22.5,13.8 22.7,14.0 Q23.0,14.1 23.6,14.5 L24.7,13.0 Q24.0,12.5 23.6,12.3 Q23.1,12.0 21.8,12.0 Q20.0,12.0 19.4,12.5 Q18.8,13.0 18.8,14.5 Q18.8,15.7 19.3,16.0 Q19.8,16.3 20.8,16.6 Q21.6,16.9 22.0,17.0 Q22.4,17.2 22.4,17.6 Q22.4,18.0 22.2,18.1 Q22.1,18.2 21.4,18.2 Q20.8,18.2 20.5,18.0 Q20.2,17.9 19.4,17.4 L18.3,18.9 Q19.1,19.6 19.7,19.8 Q20.3,20.0 21.4,20.0 Z"/><path d="M27.2,23.0 Q29.1,23.0 29.5,22.5 Q29.9,22.0 30.7,20.0 L33.5,12.0 L31.1,12.0 L30.2,15.3 Q30.0,16.0 29.9,16.4 Q29.8,16.8 29.7,17.5 L29.6,17.5 Q29.4,16.8 29.3,16.4 Q29.2,16.0 29.0,15.3 L27.9,12.0 L25.4,12.0 L28.4,19.7 L28.3,20.1 Q28.2,20.7 28.0,20.9 Q27.8,21.1 27.0,21.1 Q26.8,21.1 26.7,21.0 Q26.6,21.0 26.5,21.0 L26.0,23.0 Q26.4,23.0 26.5,23.0 Q26.7,23.0 27.2,23.0 Z"/><path d="M36.8,20.0 Q38.9,20.0 39.5,19.4 Q40.1,18.9 40.1,17.5 Q40.1,16.1 39.5,15.9 Q39.0,15.6 38.0,15.2 Q37.2,15.0 36.8,14.9 Q36.5,14.8 36.5,14.4 Q36.5,14.0 36.6,13.9 Q36.8,13.8 37.3,13.8 Q37.9,13.8 38.1,14.0 Q38.4,14.1 39.0,14.5 L40.1,13.0 Q39.4,12.5 39.0,12.3 Q38.5,12.0 37.2,12.0 Q35.4,12.0 34.8,12.5 Q34.2,13.0 34.2,14.5 Q34.2,15.7 34.7,16.0 Q35.2,16.3 36.2,16.6 Q37.0,16.9 37.4,17.0 Q37.8,17.2 37.8,17.6 Q37.8,18.0 37.6,18.1 Q37.5,18.2 36.8,18.2 Q36.2,18.2 35.9,18.0 Q35.6,17.9 34.8,17.4 L33.7,18.9 Q34.5,19.6 35.1,19.8 Q35.7,20.0 36.8,20.0 Z"/><path d="M44.7,20.0 Q45.6,20.0 45.8,19.9 Q46.1,19.8 46.6,19.7 L46.1,17.9 Q46.0,18.0 45.8,18.0 Q45.7,18.1 45.4,18.1 Q44.8,18.1 44.6,17.9 Q44.4,17.7 44.4,16.9 L44.4,14.0 L46.3,14.0 L46.3,12.0 L44.4,12.0 L44.4,9.9 L42.4,9.9 L42.1,12.0 L40.9,12.1 L40.9,14.0 L41.9,14.0 L41.9,16.9 Q41.9,18.7 42.3,19.4 Q42.7,20.0 44.7,20.0 Z"/><path d="M51.4,20.0 Q52.3,20.0 52.9,19.8 Q53.4,19.7 54.3,19.1 L53.4,17.6 Q52.9,17.9 52.6,18.0 Q52.3,18.1 51.8,18.1 Q50.7,18.1 50.4,17.9 Q50.0,17.7 49.8,16.6 L54.4,16.6 Q54.5,16.5 54.5,16.2 Q54.6,16.0 54.6,15.6 Q54.6,13.7 54.0,12.8 Q53.4,12.0 51.1,12.0 Q49.2,12.0 48.3,12.8 Q47.3,13.6 47.3,15.9 Q47.3,18.5 48.2,19.2 Q49.1,20.0 51.4,20.0 Z M49.7,15.0 Q49.9,14.3 50.2,14.1 Q50.5,13.9 51.2,13.9 Q52.1,13.9 52.3,14.1 Q52.4,14.4 52.4,15.0 L49.7,15.0 Z"/><path d="M56.0,20.0 L58.5,20.0 L58.5,14.8 Q59.0,14.4 59.2,14.2 Q59.4,14.1 59.8,14.1 Q60.4,14.1 60.5,14.3 Q60.7,14.4 60.7,15.5 L60.7,20.0 L63.2,20.0 L63.2,14.8 Q63.7,14.4 63.9,14.2 Q64.1,14.1 64.5,14.1 Q65.1,14.1 65.2,14.3 Q65.4,14.4 65.4,15.5 L65.4,20.0 L67.8,20.0 L67.8,15.2 Q67.8,13.2 67.5,12.6 Q67.1,12.0 65.4,12.0 Q64.3,12.0 63.9,12.3 Q63.5,12.6 62.9,13.3 Q62.5,12.5 62.1,12.2 Q61.8,12.0 60.7,12.0 Q59.6,12.0 59.3,12.3 Q58.9,12.5 58.2,13.2 L58.2,13.2 L58.0,12.0 L56.0,12.0 L56.0,20.0 Z"/><path d="M72.2,20.0 Q73.1,20.0 73.5,19.8 Q73.8,19.6 74.5,19.0 L74.6,19.0 L74.7,20.0 L76.8,20.0 L76.8,15.6 Q76.8,13.2 76.2,12.6 Q75.6,12.0 73.5,12.0 Q72.3,12.0 71.7,12.2 Q71.2,12.4 70.1,13.1 L71.0,14.7 Q71.8,14.2 72.1,14.1 Q72.4,14.0 73.1,14.0 Q73.9,14.0 74.1,14.2 Q74.2,14.4 74.3,15.0 Q71.2,15.3 70.5,15.8 Q69.9,16.2 69.9,17.8 Q69.9,18.9 70.3,19.5 Q70.7,20.0 72.2,20.0 Z M73.1,18.1 Q72.6,18.1 72.4,18.0 Q72.2,17.9 72.2,17.4 Q72.2,16.9 72.5,16.7 Q72.7,16.5 74.3,16.3 L74.3,17.5 Q73.9,17.9 73.7,18.0 Q73.6,18.1 73.1,18.1 Z"/><path d="M81.5,20.0 Q82.4,20.0 82.6,19.9 Q82.9,19.8 83.4,19.7 L82.9,17.9 Q82.8,18.0 82.6,18.0 Q82.5,18.1 82.2,18.1 Q81.6,18.1 81.4,17.9 Q81.2,17.7 81.2,16.9 L81.2,14.0 L83.1,14.0 L83.1,12.0 L81.2,12.0 L81.2,9.9 L79.2,9.9 L78.9,12.0 L77.7,12.1 L77.7,14.0 L78.7,14.0 L78.7,16.9 Q78.7,18.7 79.1,19.4 Q79.5,20.0 81.5,20.0 Z"/><path d="M84.6,20.0 L87.1,20.0 L87.1,12.0 L84.6,12.0 L84.6,20.0 Z M85.9,11.0 Q86.7,11.0 87.0,10.8 Q87.2,10.5 87.2,9.7 Q87.2,9.0 87.0,8.7 Q86.7,8.4 85.9,8.4 Q85.0,8.4 84.7,8.7 Q84.5,9.0 84.5,9.7 Q84.5,10.5 84.7,10.8 Q85.0,11.0 85.9,11.0 Z"/><path d="M93.3,20.0 Q94.2,20.0 94.7,19.9 Q95.2,19.8 96.0,19.1 L95.0,17.5 Q94.6,17.8 94.3,17.9 Q94.1,18.0 93.6,18.0 Q92.6,18.0 92.3,17.6 Q91.9,17.2 91.9,16.0 Q91.9,14.8 92.2,14.4 Q92.6,14.0 93.7,14.0 Q94.0,14.0 94.2,14.1 Q94.3,14.1 94.7,14.4 L95.9,12.9 Q95.3,12.3 94.9,12.2 Q94.5,12.0 93.5,12.0 Q91.3,12.0 90.3,12.8 Q89.3,13.5 89.3,16.0 Q89.3,18.5 90.2,19.2 Q91.1,20.0 93.3,20.0 Z"/><path d="M97.7,16.8 L101.7,16.8 L101.7,15.0 L97.7,15.0 L97.7,16.8 Z"/><path d="M103.2,20.0 L105.7,20.0 L105.7,12.0 L103.2,12.0 L103.2,20.0 Z M104.5,11.0 Q105.3,11.0 105.6,10.8 Q105.8,10.5 105.8,9.7 Q105.8,9.0 105.6,8.7 Q105.3,8.4 104.5,8.4 Q103.6,8.4 103.3,8.7 Q103.1,9.0 103.1,9.7 Q103.1,10.5 103.3,10.8 Q103.6,11.0 104.5,11.0 Z"/><path d="M108.4,20.0 L110.9,20.0 L110.9,14.8 Q111.4,14.4 111.5,14.3 Q111.7,14.1 112.3,14.1 Q112.9,14.1 113.0,14.3 Q113.2,14.4 113.2,15.5 L113.2,20.0 L115.7,20.0 L115.7,15.2 Q115.7,13.2 115.3,12.6 Q114.9,12.0 113.2,12.0 Q112.1,12.0 111.7,12.3 Q111.3,12.5 110.7,13.2 L110.6,13.2 L110.4,12.0 L108.4,12.0 L108.4,20.0 Z"/><path d="M120.7,20.0 Q121.6,20.0 121.8,19.9 Q122.1,19.8 122.6,19.7 L122.1,17.9 Q122.0,18.0 121.8,18.0 Q121.7,18.1 121.4,18.1 Q120.8,18.1 120.6,17.9 Q120.4,17.7 120.4,16.9 L120.4,14.0 L122.3,14.0 L122.3,12.0 L120.4,12.0 L120.4,9.9 L118.4,9.9 L118.1,12.0 L116.9,12.1 L116.9,14.0 L117.9,14.0 L117.9,16.9 Q117.9,18.7 118.3,19.4 Q118.7,20.0 120.7,20.0 Z"/><path d="M127.4,20.0 Q128.3,20.0 128.9,19.8 Q129.4,19.7 130.3,19.1 L129.4,17.6 Q128.9,17.9 128.6,18.0 Q128.3,18.1 127.8,18.1 Q126.7,18.1 126.4,17.9 Q126.0,17.7 125.8,16.6 L130.4,16.6 Q130.5,16.5 130.5,16.2 Q130.6,16.0 130.6,15.6 Q130.6,13.7 130.0,12.8 Q129.4,12.0 127.1,12.0 Q125.2,12.0 124.3,12.8 Q123.3,13.6 123.3,15.9 Q123.3,18.5 124.2,19.2 Q125.1,20.0 127.4,20.0 Z M125.7,15.0 Q125.9,14.3 126.2,14.1 Q126.5,13.9 127.2,13.9 Q128.1,13.9 128.3,14.1 Q128.4,14.4 128.4,15.0 L125.7,15.0 Z"/><path d="M132.0,20.0 L134.5,20.0 L134.5,15.5 Q134.9,14.6 135.3,14.4 Q135.6,14.2 136.2,14.2 Q136.5,14.2 136.7,14.2 Q136.8,14.2 137.1,14.3 L137.5,12.0 Q137.3,12.1 137.1,12.0 Q137.0,12.0 136.5,12.0 Q135.7,12.0 135.3,12.3 Q134.8,12.5 134.3,13.6 L134.2,13.6 L134.0,12.0 L132.0,12.0 L132.0,20.0 Z"/><path d="M139.2,23.0 L141.7,23.0 L141.7,20.5 L141.6,19.2 Q142.1,19.7 142.5,19.9 Q142.8,20.0 143.5,20.0 Q145.2,20.0 146.0,19.2 Q146.8,18.4 146.8,15.8 Q146.8,13.6 146.2,12.8 Q145.6,12.0 143.7,12.0 Q142.9,12.0 142.5,12.2 Q142.1,12.4 141.5,13.0 L141.4,13.0 L141.2,12.0 L139.2,12.0 L139.2,23.0 Z M142.9,18.0 Q142.5,18.0 142.3,17.9 Q142.1,17.9 141.7,17.5 L141.7,14.7 Q142.1,14.2 142.3,14.1 Q142.5,14.0 143.0,14.0 Q143.8,14.0 144.0,14.3 Q144.2,14.6 144.2,15.9 Q144.2,17.3 143.9,17.7 Q143.6,18.0 142.9,18.0 Z"/><path d="M148.4,20.0 L150.9,20.0 L150.9,15.5 Q151.3,14.6 151.7,14.4 Q152.0,14.2 152.6,14.2 Q152.9,14.2 153.1,14.2 Q153.2,14.2 153.5,14.3 L153.9,12.0 Q153.7,12.1 153.5,12.0 Q153.4,12.0 152.9,12.0 Q152.1,12.0 151.7,12.3 Q151.2,12.5 150.7,13.6 L150.6,13.6 L150.4,12.0 L148.4,12.0 L148.4,20.0 Z"/><path d="M159.2,20.0 Q160.1,20.0 160.7,19.8 Q161.2,19.7 162.1,19.1 L161.2,17.6 Q160.7,17.9 160.4,18.0 Q160.1,18.1 159.6,18.1 Q158.5,18.1 158.2,17.9 Q157.8,17.7 157.6,16.6 L162.2,16.6 Q162.3,16.5 162.3,16.2 Q162.3,16.0 162.3,15.6 Q162.3,13.7 161.8,12.8 Q161.2,12.0 158.9,12.0 Q157.0,12.0 156.1,12.8 Q155.1,13.6 155.1,15.9 Q155.1,18.5 156.0,19.2 Q156.9,20.0 159.2,20.0 Z M157.5,15.0 Q157.7,14.3 158.0,14.1 Q158.3,13.9 159.0,13.9 Q159.9,13.9 160.1,14.1 Q160.2,14.4 160.2,15.0 L157.5,15.0 Z"/><path d="M166.9,20.0 Q167.8,20.0 168.0,19.9 Q168.3,19.8 168.8,19.7 L168.3,17.9 Q168.2,18.0 168.0,18.0 Q167.9,18.1 167.6,18.1 Q167.0,18.1 166.8,17.9 Q166.6,17.7 166.6,16.9 L166.6,14.0 L168.5,14.0 L168.5,12.0 L166.6,12.0 L166.6,9.9 L164.5,9.9 L164.3,12.0 L163.0,12.1 L163.0,14.0 L164.1,14.0 L164.1,16.9 Q164.1,18.7 164.5,19.4 Q164.9,20.0 166.9,20.0 Z"/><path d="M172.0,20.0 Q172.9,20.0 173.3,19.8 Q173.6,19.6 174.3,19.0 L174.4,19.0 L174.5,20.0 L176.6,20.0 L176.6,15.6 Q176.6,13.2 176.0,12.6 Q175.4,12.0 173.3,12.0 Q172.1,12.0 171.5,12.2 Q171.0,12.4 169.9,13.1 L170.8,14.7 Q171.6,14.2 171.9,14.1 Q172.2,14.0 172.9,14.0 Q173.7,14.0 173.9,14.2 Q174.0,14.4 174.1,15.0 Q171.0,15.3 170.3,15.8 Q169.7,16.2 169.7,17.8 Q169.7,18.9 170.1,19.5 Q170.5,20.0 172.0,20.0 Z M172.9,18.1 Q172.4,18.1 172.2,18.0 Q172.0,17.9 172.0,17.4 Q172.0,16.9 172.3,16.7 Q172.5,16.5 174.1,16.3 L174.1,17.5 Q173.7,17.9 173.5,18.0 Q173.4,18.1 172.9,18.1 Z"/><path d="M181.3,20.0 Q182.2,20.0 182.4,19.9 Q182.7,19.8 183.2,19.7 L182.7,17.9 Q182.6,18.0 182.4,18.0 Q182.3,18.1 182.0,18.1 Q181.4,18.1 181.2,17.9 Q181.0,17.7 181.0,16.9 L181.0,14.0 L182.9,14.0 L182.9,12.0 L181.0,12.0 L181.0,9.9 L178.9,9.9 L178.7,12.0 L177.4,12.1 L177.4,14.0 L178.5,14.0 L178.5,16.9 Q178.5,18.7 178.9,19.4 Q179.3,20.0 181.3,20.0 Z"/><path d="M184.4,20.0 L186.9,20.0 L186.9,12.0 L184.4,12.0 L184.4,20.0 Z M185.6,11.0 Q186.5,11.0 186.8,10.8 Q187.0,10.5 187.0,9.7 Q187.0,9.0 186.8,8.7 Q186.5,8.4 185.6,8.4 Q184.8,8.4 184.5,8.7 Q184.3,9.0 184.3,9.7 Q184.3,10.5 184.5,10.8 Q184.8,11.0 185.6,11.0 Z"/><path d="M193.1,20.0 Q195.1,20.0 196.0,19.2 Q197.0,18.5 197.0,16.0 Q197.0,13.5 196.0,12.8 Q195.1,12.0 193.1,12.0 Q191.0,12.0 190.1,12.8 Q189.1,13.5 189.1,16.0 Q189.1,18.5 190.1,19.2 Q191.0,20.0 193.1,20.0 Z M193.1,18.0 Q192.1,18.0 191.9,17.6 Q191.7,17.2 191.7,16.0 Q191.7,14.8 191.9,14.4 Q192.1,14.0 193.1,14.0 Q194.0,14.0 194.2,14.4 Q194.4,14.8 194.4,16.0 Q194.4,17.2 194.2,17.6 Q194.0,18.0 193.1,18.0 Z"/><path d="M198.8,20.0 L201.3,20.0 L201.3,14.8 Q201.8,14.4 201.9,14.3 Q202.1,14.1 202.7,14.1 Q203.3,14.1 203.4,14.3 Q203.6,14.4 203.6,15.5 L203.6,20.0 L206.1,20.0 L206.1,15.2 Q206.1,13.2 205.7,12.6 Q205.3,12.0 203.6,12.0 Q202.5,12.0 202.1,12.3 Q201.7,12.5 201.0,13.2 L201.0,13.2 L200.8,12.0 L198.8,12.0 L198.8,20.0 Z"/></g>
  
</svg>
