<svg xmlns="http://www.w3.org/2000/svg" viewBox="0 0 217 30" width="217" height="30" role="img" aria-label="legal-norm-validity-check">
  <rect x="0.5" y="0.5" width="216" height="29" rx="5" fill="#e3e9f1"/>
  <rect x="0" y="0" width="4" height="30" rx="2" fill="#3a5a8c"/>
  <g fill="#2a2d34"><path d="M21.3,20.0 Q21.8,20.0 22.0,20.0 Q22.2,19.9 22.5,19.8 L22.2,18.0 Q22.1,18.0 22.0,18.0 Q22.0,18.0 21.9,18.0 Q21.7,18.0 21.6,17.9 Q21.5,17.8 21.5,17.3 L21.5,8.6 L19.0,8.6 L19.0,17.2 Q19.0,18.9 19.3,19.4 Q19.6,20.0 21.3,20.0 Z"/><path d="M27.8,20.0 Q28.7,20.0 29.3,19.8 Q29.8,19.7 30.7,19.1 L29.8,17.6 Q29.3,17.9 29.0,18.0 Q28.7,18.1 28.2,18.1 Q27.1,18.1 26.8,17.9 Q26.4,17.7 26.2,16.6 L30.8,16.6 Q30.9,16.5 30.9,16.2 Q30.9,16.0 30.9,15.6 Q30.9,13.7 30.4,12.8 Q29.8,12.0 27.5,12.0 Q25.6,12.0 24.7,12.8 Q23.7,13.6 23.7,15.9 Q23.7,18.5 24.6,19.2 Q25.5,20.0 27.8,20.0 Z M26.1,15.0 Q26.3,14.3 26.6,14.1 Q26.9,13.9 27.6,13.9 Q28.5,13.9 28.7,14.1 Q28.8,14.4 28.8,15.0 L26.1,15.0 Z"/><path d="M35.3,23.6 Q38.0,23.6 38.9,23.0 Q39.8,22.4 39.8,20.2 Q39.8,18.7 39.2,18.4 Q38.7,18.1 36.7,18.1 L35.4,18.1 Q34.6,18.1 34.4,18.1 Q34.3,18.0 34.3,17.8 Q34.3,17.6 34.3,17.6 Q34.4,17.5 34.5,17.4 Q34.9,17.5 35.0,17.5 Q35.2,17.5 35.4,17.5 Q37.2,17.5 37.9,17.1 Q38.6,16.7 38.6,14.8 Q38.6,14.4 38.6,14.2 Q38.5,14.0 38.4,13.8 L39.6,13.8 L39.6,12.0 L36.7,12.0 Q36.4,12.1 36.1,12.0 Q35.9,12.0 35.4,12.0 Q33.7,12.0 32.9,12.5 Q32.1,13.0 32.1,14.8 Q32.1,15.7 32.4,16.1 Q32.6,16.4 33.2,16.8 L33.2,16.9 Q32.7,17.2 32.5,17.5 Q32.3,17.7 32.3,18.0 Q32.3,18.7 32.5,18.9 Q32.6,19.1 33.0,19.4 L33.0,19.5 Q32.3,19.8 32.1,20.2 Q31.9,20.5 31.9,21.4 Q31.9,23.0 32.7,23.3 Q33.4,23.6 35.3,23.6 Z M35.4,16.0 Q34.9,16.0 34.7,15.8 Q34.4,15.6 34.4,14.8 Q34.4,14.1 34.7,13.9 Q34.9,13.7 35.4,13.7 Q36.0,13.7 36.3,13.9 Q36.5,14.1 36.5,14.8 Q36.5,15.6 36.3,15.8 Q36.0,16.0 35.4,16.0 Z M35.6,22.0 Q34.6,22.0 34.3,21.8 Q34.0,21.6 34.0,20.9 Q34.0,20.5 34.0,20.3 Q34.1,20.2 34.3,19.9 Q34.6,20.0 34.7,20.0 Q34.9,20.0 35.5,20.0 L36.2,20.0 Q37.0,20.0 37.2,20.1 Q37.4,20.1 37.4,20.8 Q37.4,21.5 37.0,21.7 Q36.7,22.0 35.6,22.0 Z"/><path d="M43.6,20.0 Q44.5,20.0 44.9,19.8 Q45.2,19.6 45.9,19.0 L46.0,19.0 L46.1,20.0 L48.2,20.0 L48.2,15.6 Q48.2,13.2 47.6,12.6 Q47.0,12.0 44.9,12.0 Q43.7,12.0 43.1,12.2 Q42.6,12.4 41.5,13.1 L42.4,14.7 Q43.2,14.2 43.5,14.1 Q43.8,14.0 44.5,14.0 Q45.3,14.0 45.5,14.2 Q45.6,14.4 45.7,15.0 Q42.6,15.3 41.9,15.8 Q41.3,16.2 41.3,17.8 Q41.3,18.9 41.7,19.5 Q42.1,20.0 43.6,20.0 Z M44.5,18.1 Q44.0,18.1 43.8,18.0 Q43.6,17.9 43.6,17.4 Q43.6,16.9 43.9,16.7 Q44.1,16.5 45.7,16.3 L45.7,17.5 Q45.3,17.9 45.1,18.0 Q45.0,18.1 44.5,18.1 Z"/><path d="M52.1,20.0 Q52.6,20.0 52.8,20.0 Q53.0,19.9 53.3,19.8 L53.0,18.0 Q52.9,18.0 52.8,18.0 Q52.8,18.0 52.7,18.0 Q52.5,18.0 52.4,17.9 Q52.3,17.8 52.3,17.3 L52.3,8.6 L49.8,8.6 L49.8,17.2 Q49.8,18.9 50.1,19.4 Q50.4,20.0 52.1,20.0 Z"/><path d="M54.7,16.8 L58.7,16.8 L58.7,15.0 L54.7,15.0 L54.7,16.8 Z"/><path d="M60.2,20.0 L62.7,20.0 L62.7,14.8 Q63.2,14.4 63.3,14.3 Q63.5,14.1 64.1,14.1 Q64.7,14.1 64.8,14.3 Q65.0,14.4 65.0,15.5 L65.0,20.0 L67.5,20.0 L67.5,15.2 Q67.5,13.2 67.1,12.6 Q66.7,12.0 65.0,12.0 Q63.9,12.0 63.5,12.3 Q63.1,12.5 62.5,13.2 L62.4,13.2 L62.2,12.0 L60.2,12.0 L60.2,20.0 Z"/><path d="M72.9,20.0 Q74.9,20.0 75.8,19.2 Q76.8,18.5 76.8,16.0 Q76.8,13.5 75.8,12.8 Q74.9,12.0 72.9,12.0 Q70.8,12.0 69.9,12.8 Q68.9,13.5 68.9,16.0 Q68.9,18.5 69.9,19.2 Q70.8,20.0 72.9,20.0 Z M72.9,18.0 Q71.9,18.0 71.7,17.6 Q71.5,17.2 71.5,16.0 Q71.5,14.8 71.7,14.4 Q71.9,14.0 72.9,14.0 Q73.8,14.0 74.0,14.4 Q74.2,14.8 74.2,16.0 Q74.2,17.2 74.0,17.6 Q73.8,18.0 72.9,18.0 Z"/><path d="M78.6,20.0 L81.1,20.0 L81.1,15.5 Q81.5,14.6 81.9,14.4 Q82.2,14.2 82.8,14.2 Q83.1,14.2 83.3,14.2 Q83.4,14.2 83.7,14.3 L84.1,12.0 Q83.9,12.1 83.7,12.0 Q83.6,12.0 83.1,12.0 Q82.3,12.0 81.9,12.3 Q81.4,12.5 80.9,13.6 L80.8,13.6 L80.6,12.0 L78.6,12.0 L78.6,20.0 Z"/><path d="M85.8,20.0 L88.3,20.0 L88.3,14.8 Q88.8,14.4 89.0,14.2 Q89.2,14.1 89.6,14.1 Q90.2,14.1 90.3,14.3 Q90.5,14.4 90.5,15.5 L90.5,20.0 L93.0,20.0 L93.0,14.8 Q93.5,14.4 93.7,14.2 Q93.9,14.1 94.3,14.1 Q94.9,14.1 95.0,14.3 Q95.2,14.4 95.2,15.5 L95.2,20.0 L97.6,20.0 L97.6,15.2 Q97.6,13.2 97.3,12.6 Q96.9,12.0 95.2,12.0 Q94.1,12.0 93.7,12.3 Q93.3,12.6 92.7,13.3 Q92.3,12.5 91.9,12.2 Q91.6,12.0 90.5,12.0 Q89.4,12.0 89.1,12.3 Q88.7,12.5 88.1,13.2 L88.0,13.2 L87.8,12.0 L85.8,12.0 L85.8,20.0 Z"/><path d="M99.7,16.8 L103.7,16.8 L103.7,15.0 L99.7,15.0 L99.7,16.8 Z"/><path d="M107.0,20.0 L109.9,20.0 L112.5,12.0 L110.1,12.0 L109.1,15.7 Q108.9,16.5 108.8,16.9 Q108.7,17.3 108.5,18.2 L108.5,18.2 Q108.2,17.3 108.2,16.9 Q108.1,16.5 107.9,15.7 L106.9,12.0 L104.4,12.0 L107.0,20.0 Z"/><path d="M116.4,20.0 Q117.3,20.0 117.7,19.8 Q118.0,19.6 118.7,19.0 L118.8,19.0 L118.9,20.0 L121.0,20.0 L121.0,15.6 Q121.0,13.2 120.4,12.6 Q119.8,12.0 117.7,12.0 Q116.5,12.0 115.9,12.2 Q115.4,12.4 114.3,13.1 L115.2,14.7 Q116.0,14.2 116.3,14.1 Q116.6,14.0 117.3,14.0 Q118.1,14.0 118.3,14.2 Q118.4,14.4 118.5,15.0 Q115.4,15.3 114.7,15.8 Q114.1,16.2 114.1,17.8 Q114.1,18.9 114.5,19.5 Q114.9,20.0 116.4,20.0 Z M117.3,18.1 Q116.8,18.1 116.6,18.0 Q116.4,17.9 116.4,17.4 Q116.4,16.9 116.7,16.7 Q116.9,16.5 118.5,16.3 L118.5,17.5 Q118.1,17.9 117.9,18.0 Q117.8,18.1 117.3,18.1 Z"/><path d="M124.9,20.0 Q125.4,20.0 125.6,20.0 Q125.8,19.9 126.1,19.8 L125.8,18.0 Q125.7,18.0 125.6,18.0 Q125.6,18.0 125.5,18.0 Q125.3,18.0 125.2,17.9 Q125.1,17.8 125.1,17.3 L125.1,8.6 L122.6,8.6 L122.6,17.2 Q122.6,18.9 122.9,19.4 Q123.2,20.0 124.9,20.0 Z"/><path d="M127.8,20.0 L130.3,20.0 L130.3,12.0 L127.8,12.0 L127.8,20.0 Z M129.1,11.0 Q129.9,11.0 130.2,10.8 Q130.4,10.5 130.4,9.7 Q130.4,9.0 130.2,8.7 Q129.9,8.4 129.1,8.4 Q128.2,8.4 127.9,8.7 Q127.7,9.0 127.7,9.7 Q127.7,10.5 127.9,10.8 Q128.2,11.0 129.1,11.0 Z"/><path d="M135.9,20.0 Q136.6,20.0 137.0,19.8 Q137.4,19.6 138.0,19.0 L138.0,19.0 L138.2,20.0 L140.2,20.0 L140.2,9.0 L137.7,9.0 L137.7,11.6 L137.8,12.8 Q137.3,12.3 137.0,12.2 Q136.8,12.0 135.9,12.0 Q134.2,12.0 133.4,12.8 Q132.6,13.6 132.6,16.1 Q132.6,18.4 133.2,19.2 Q133.9,20.0 135.9,20.0 Z M136.5,18.0 Q135.7,18.0 135.4,17.7 Q135.2,17.4 135.2,16.0 Q135.2,14.6 135.5,14.3 Q135.8,14.0 136.5,14.0 Q136.9,14.0 137.1,14.1 Q137.3,14.2 137.7,14.5 L137.7,17.3 Q137.4,17.8 137.2,17.9 Q137.0,18.0 136.5,18.0 Z"/><path d="M142.2,20.0 L144.7,20.0 L144.7,12.0 L142.2,12.0 L142.2,20.0 Z M143.5,11.0 Q144.3,11.0 144.6,10.8 Q144.8,10.5 144.8,9.7 Q144.8,9.0 144.6,8.7 Q144.3,8.4 143.5,8.4 Q142.6,8.4 142.3,8.7 Q142.1,9.0 142.1,9.7 Q142.1,10.5 142.3,10.8 Q142.6,11.0 143.5,11.0 Z"/><path d="M150.5,20.0 Q151.4,20.0 151.6,19.9 Q151.9,19.8 152.4,19.7 L151.9,17.9 Q151.8,18.0 151.6,18.0 Q151.5,18.1 151.2,18.1 Q150.6,18.1 150.4,17.9 Q150.2,17.7 150.2,16.9 L150.2,14.0 L152.1,14.0 L152.1,12.0 L150.2,12.0 L150.2,9.9 L148.2,9.9 L147.9,12.0 L146.7,12.1 L146.7,14.0 L147.7,14.0 L147.7,16.9 Q147.7,18.7 148.1,19.4 Q148.5,20.0 150.5,20.0 Z"/><path d="M154.6,23.0 Q156.5,23.0 156.9,22.5 Q157.3,22.0 158.1,20.0 L160.9,12.0 L158.5,12.0 L157.6,15.3 Q157.4,16.0 157.3,16.4 Q157.2,16.8 157.1,17.5 L157.0,17.5 Q156.8,16.8 156.7,16.4 Q156.6,16.0 156.4,15.3 L155.3,12.0 L152.8,12.0 L155.8,19.7 L155.7,20.1 Q155.6,20.7 155.4,20.9 Q155.2,21.1 154.4,21.1 Q154.2,21.1 154.1,21.0 Q154.0,21.0 153.9,21.0 L153.4,23.0 Q153.8,23.0 153.9,23.0 Q154.1,23.0 154.6,23.0 Z"/><path d="M161.5,16.8 L165.5,16.8 L165.5,15.0 L161.5,15.0 L161.5,16.8 Z"/><path d="M170.5,20.0 Q171.4,20.0 171.9,19.9 Q172.4,19.8 173.2,19.1 L172.2,17.5 Q171.8,17.8 171.5,17.9 Q171.3,18.0 170.8,18.0 Q169.8,18.0 169.5,17.6 Q169.1,17.2 169.1,16.0 Q169.1,14.8 169.4,14.4 Q169.8,14.0 170.9,14.0 Q171.2,14.0 171.4,14.1 Q171.5,14.1 171.9,14.4 L173.1,12.9 Q172.5,12.3 172.1,12.2 Q171.7,12.0 170.7,12.0 Q168.5,12.0 167.5,12.8 Q166.5,13.5 166.5,16.0 Q166.5,18.5 167.4,19.2 Q168.3,20.0 170.5,20.0 Z"/><path d="M175.2,20.0 L177.7,20.0 L177.7,14.8 Q178.2,14.4 178.3,14.3 Q178.5,14.1 179.1,14.1 Q179.7,14.1 179.8,14.3 Q180.0,14.4 180.0,15.5 L180.0,20.0 L182.5,20.0 L182.5,15.2 Q182.5,13.2 182.1,12.6 Q181.7,12.0 180.0,12.0 Q178.9,12.0 178.5,12.3 Q178.1,12.5 177.6,13.1 L177.7,11.7 L177.7,9.0 L175.2,9.0 L175.2,20.0 Z"/><path d="M188.0,20.0 Q188.9,20.0 189.5,19.8 Q190.0,19.7 190.9,19.1 L190.0,17.6 Q189.5,17.9 189.2,18.0 Q188.9,18.1 188.4,18.1 Q187.3,18.1 187.0,17.9 Q186.6,17.7 186.4,16.6 L191.0,16.6 Q191.1,16.5 191.1,16.2 Q191.1,16.0 191.1,15.6 Q191.1,13.7 190.6,12.8 Q190.0,12.0 187.7,12.0 Q185.8,12.0 184.9,12.8 Q183.9,13.6 183.9,15.9 Q183.9,18.5 184.8,19.2 Q185.7,20.0 188.0,20.0 Z M186.3,15.0 Q186.5,14.3 186.8,14.1 Q187.1,13.9 187.8,13.9 Q188.7,13.9 188.9,14.1 Q189.0,14.4 189.0,15.0 L186.3,15.0 Z"/><path d="M196.1,20.0 Q197.0,20.0 197.5,19.9 Q198.0,19.8 198.8,19.1 L197.8,17.5 Q197.4,17.8 197.1,17.9 Q196.9,18.0 196.4,18.0 Q195.4,18.0 195.1,17.6 Q194.7,17.2 194.7,16.0 Q194.7,14.8 195.0,14.4 Q195.4,14.0 196.5,14.0 Q196.8,14.0 197.0,14.1 Q197.1,14.1 197.5,14.4 L198.7,12.9 Q198.1,12.3 197.7,12.2 Q197.3,12.0 196.3,12.0 Q194.1,12.0 193.1,12.8 Q192.1,13.5 192.1,16.0 Q192.1,18.5 193.0,19.2 Q193.9,20.0 196.1,20.0 Z"/><path d="M200.8,20.0 L203.3,20.0 L203.3,18.0 L204.2,17.0 L205.9,20.0 L208.6,20.0 L205.6,15.3 L208.4,12.0 L205.7,12.0 L203.3,15.0 L203.3,15.0 L203.3,8.8 L200.8,8.8 L200.8,20.0 Z"/></g>
  
</svg>
