<svg xmlns="http://www.w3.org/2000/svg" viewBox="0 0 244 30" width="244" height="30" role="img" aria-label="legal-concept-comprehension">
  <rect x="0.5" y="0.5" width="243" height="29" rx="5" fill="#e3e9f1"/>
  <rect x="0" y="0" width="4" height="30" rx="2" fill="#3a5a8c"/>
  <g fill="#2a2d34"><path d="M21.3,20.0 Q21.8,20.0 22.0,20.0 Q22.2,19.9 22.5,19.8 L22.2,18.0 Q22.1,18.0 22.0,18.0 Q22.0,18.0 21.9,18.0 Q21.7,18.0 21.6,17.9 Q21.5,17.8 21.5,17.3 L21.5,8.6 L19.0,8.6 L19.0,17.2 Q19.0,18.9 19.3,19.4 Q19.6,20.0 21.3,20.0 Z"/><path d="M27.8,20.0 Q28.7,20.0 29.3,19.8 Q29.8,19.7 30.7,19.1 L29.8,17.6 Q29.3,17.9 29.0,18.0 Q28.7,18.1 28.2,18.1 Q27.1,18.1 26.8,17.9 Q26.4,17.7 26.2,16.6 L30.8,16.6 Q30.9,16.5 30.9,16.2 Q30.9,16.0 30.9,15.6 Q30.9,13.7 30.4,12.8 Q29.8,12.0 27.5,12.0 Q25.6,12.0 24.7,12.8 Q23.7,13.6 23.7,15.9 Q23.7,18.5 24.6,19.2 Q25.5,20.0 27.8,20.0 Z M26.1,15.0 Q26.3,14.3 26.6,14.1 Q26.9,13.9 27.6,13.9 Q28.5,13.9 28.7,14.1 Q28.8,14.4 28.8,15.0 L26.1,15.0 Z"/><path d="M35.3,23.6 Q38.0,23.6 38.9,23.0 Q39.8,22.4 39.8,20.2 Q39.8,18.7 39.2,18.4 Q38.7,18.1 36.7,18.1 L35.4,18.1 Q34.6,18.1 34.4,18.1 Q34.3,18.0 34.3,17.8 Q34.3,17.6 34.3,17.6 Q34.4,17.5 34.5,17.4 Q34.9,17.5 35.0,17.5 Q35.2,17.5 35.4,17.5 Q37.2,17.5 37.9,17.1 Q38.6,16.7 38.6,14.8 Q38.6,14.4 38.6,14.2 Q38.5,14.0 38.4,13.8 L39.6,13.8 L39.6,12.0 L36.7,12.0 Q36.4,12.1 36.1,12.0 Q35.9,12.0 35.4,12.0 Q33.7,12.0 32.9,12.5 Q32.1,13.0 32.1,14.8 Q32.1,15.7 32.4,16.1 Q32.6,16.4 33.2,16.8 L33.2,16.9 Q32.7,17.2 32.5,17.5 Q32.3,17.7 32.3,18.0 Q32.3,18.7 32.5,18.9 Q32.6,19.1 33.0,19.4 L33.0,19.5 Q32.3,19.8 32.1,20.2 Q31.9,20.5 31.9,21.4 Q31.9,23.0 32.7,23.3 Q33.4,23.6 35.3,23.6 Z M35.4,16.0 Q34.9,16.0 34.7,15.8 Q34.4,15.6 34.4,14.8 Q34.4,14.1 34.7,13.9 Q34.9,13.7 35.4,13.7 Q36.0,13.7 36.3,13.9 Q36.5,14.1 36.5,14.8 Q36.5,15.6 36.3,15.8 Q36.0,16.0 35.4,16.0 Z M35.6,22.0 Q34.6,22.0 34.3,21.8 Q34.0,21.6 34.0,20.9 Q34.0,20.5 34.0,20.3 Q34.1,20.2 34.3,19.9 Q34.6,20.0 34.7,20.0 Q34.9,20.0 35.5,20.0 L36.2,20.0 Q37.0,20.0 37.2,20.1 Q37.4,20.1 37.4,20.8 Q37.4,21.5 37.0,21.7 Q36.7,22.0 35.6,22.0 Z"/><path d="M43.6,20.0 Q44.5,20.0 44.9,19.8 Q45.2,19.6 45.9,19.0 L46.0,19.0 L46.1,20.0 L48.2,20.0 L48.2,15.6 Q48.2,13.2 47.6,12.6 Q47.0,12.0 44.9,12.0 Q43.7,12.0 43.1,12.2 Q42.6,12.4 41.5,13.1 L42.4,14.7 Q43.2,14.2 43.5,14.1 Q43.8,14.0 44.5,14.0 Q45.3,14.0 45.5,14.2 Q45.6,14.4 45.7,15.0 Q42.6,15.3 41.9,15.8 Q41.3,16.2 41.3,17.8 Q41.3,18.9 41.7,19.5 Q42.1,20.0 43.6,20.0 Z M44.5,18.1 Q44.0,18.1 43.8,18.0 Q43.6,17.9 43.6,17.4 Q43.6,16.9 43.9,16.7 Q44.1,16.5 45.7,16.3 L45.7,17.5 Q45.3,17.9 45.1,18.0 Q45.0,18.1 44.5,18.1 Z"/><path d="M52.1,20.0 Q52.6,20.0 52.8,20.0 Q53.0,19.9 53.3,19.8 L53.0,18.0 Q52.9,18.0 52.8,18.0 Q52.8,18.0 52.7,18.0 Q52.5,18.0 52.4,17.9 Q52.3,17.8 52.3,17.3 L52.3,8.6 L49.8,8.6 L49.8,17.2 Q49.8,18.9 50.1,19.4 Q50.4,20.0 52.1,20.0 Z"/><path d="M54.7,16.8 L58.7,16.8 L58.7,15.0 L54.7,15.0 L54.7,16.8 Z"/><path d="M63.7,20.0 Q64.6,20.0 65.1,19.9 Q65.6,19.8 66.4,19.1 L65.4,17.5 Q65.0,17.8 64.7,17.9 Q64.5,18.0 64.0,18.0 Q63.0,18.0 62.7,17.6 Q62.3,17.2 62.3,16.0 Q62.3,14.8 62.6,14.4 Q63.0,14.0 64.1,14.0 Q64.4,14.0 64.6,14.1 Q64.7,14.1 65.1,14.4 L66.3,12.9 Q65.7,12.3 65.3,12.2 Q64.9,12.0 63.9,12.0 Q61.7,12.0 60.7,12.8 Q59.7,13.5 59.7,16.0 Q59.7,18.5 60.6,19.2 Q61.5,20.0 63.7,20.0 Z"/><path d="M71.9,20.0 Q73.9,20.0 74.8,19.2 Q75.8,18.5 75.8,16.0 Q75.8,13.5 74.8,12.8 Q73.9,12.0 71.9,12.0 Q69.8,12.0 68.9,12.8 Q67.9,13.5 67.9,16.0 Q67.9,18.5 68.9,19.2 Q69.8,20.0 71.9,20.0 Z M71.9,18.0 Q70.9,18.0 70.7,17.6 Q70.5,17.2 70.5,16.0 Q70.5,14.8 70.7,14.4 Q70.9,14.0 71.9,14.0 Q72.8,14.0 73.0,14.4 Q73.2,14.8 73.2,16.0 Q73.2,17.2 73.0,17.6 Q72.8,18.0 71.9,18.0 Z"/><path d="M77.6,20.0 L80.1,20.0 L80.1,14.8 Q80.6,14.4 80.7,14.3 Q80.9,14.1 81.5,14.1 Q82.1,14.1 82.2,14.3 Q82.4,14.4 82.4,15.5 L82.4,20.0 L84.9,20.0 L84.9,15.2 Q84.9,13.2 84.5,12.6 Q84.1,12.0 82.4,12.0 Q81.3,12.0 80.9,12.3 Q80.5,12.5 79.9,13.2 L79.8,13.2 L79.6,12.0 L77.6,12.0 L77.6,20.0 Z"/><path d="M90.3,20.0 Q91.2,20.0 91.7,19.9 Q92.2,19.8 93.0,19.1 L92.0,17.5 Q91.6,17.8 91.3,17.9 Q91.1,18.0 90.6,18.0 Q89.6,18.0 89.3,17.6 Q88.9,17.2 88.9,16.0 Q88.9,14.8 89.2,14.4 Q89.6,14.0 90.7,14.0 Q91.0,14.0 91.2,14.1 Q91.3,14.1 91.7,14.4 L92.9,12.9 Q92.3,12.3 91.9,12.2 Q91.5,12.0 90.5,12.0 Q88.3,12.0 87.3,12.8 Q86.3,13.5 86.3,16.0 Q86.3,18.5 87.2,19.2 Q88.1,20.0 90.3,20.0 Z"/><path d="M98.6,20.0 Q99.5,20.0 100.1,19.8 Q100.6,19.7 101.5,19.1 L100.6,17.6 Q100.1,17.9 99.8,18.0 Q99.5,18.1 99.0,18.1 Q97.9,18.1 97.6,17.9 Q97.2,17.7 97.0,16.6 L101.6,16.6 Q101.7,16.5 101.7,16.2 Q101.8,16.0 101.8,15.6 Q101.8,13.7 101.2,12.8 Q100.6,12.0 98.3,12.0 Q96.4,12.0 95.5,12.8 Q94.5,13.6 94.5,15.9 Q94.5,18.5 95.4,19.2 Q96.3,20.0 98.6,20.0 Z M96.9,15.0 Q97.1,14.3 97.4,14.1 Q97.7,13.9 98.4,13.9 Q99.3,13.9 99.5,14.1 Q99.6,14.4 99.6,15.0 L96.9,15.0 Z"/><path d="M103.2,23.0 L105.7,23.0 L105.7,20.5 L105.6,19.2 Q106.1,19.7 106.5,19.9 Q106.8,20.0 107.5,20.0 Q109.2,20.0 110.0,19.2 Q110.8,18.4 110.8,15.8 Q110.8,13.6 110.2,12.8 Q109.6,12.0 107.7,12.0 Q106.9,12.0 106.5,12.2 Q106.1,12.4 105.5,13.0 L105.4,13.0 L105.2,12.0 L103.2,12.0 L103.2,23.0 Z M106.9,18.0 Q106.5,18.0 106.3,17.9 Q106.1,17.9 105.7,17.5 L105.7,14.7 Q106.1,14.2 106.3,14.1 Q106.5,14.0 107.0,14.0 Q107.8,14.0 108.0,14.3 Q108.2,14.6 108.2,15.9 Q108.2,17.3 107.9,17.7 Q107.6,18.0 106.9,18.0 Z"/><path d="M115.5,20.0 Q116.4,20.0 116.6,19.9 Q116.9,19.8 117.4,19.7 L116.9,17.9 Q116.8,18.0 116.6,18.0 Q116.5,18.1 116.2,18.1 Q115.6,18.1 115.4,17.9 Q115.2,17.7 115.2,16.9 L115.2,14.0 L117.1,14.0 L117.1,12.0 L115.2,12.0 L115.2,9.9 L113.2,9.9 L112.9,12.0 L111.7,12.1 L111.7,14.0 L112.7,14.0 L112.7,16.9 Q112.7,18.7 113.1,19.4 Q113.5,20.0 115.5,20.0 Z"/><path d="M118.3,16.8 L122.3,16.8 L122.3,15.0 L118.3,15.0 L118.3,16.8 Z"/><path d="M127.3,20.0 Q128.2,20.0 128.7,19.9 Q129.2,19.8 130.0,19.1 L129.0,17.5 Q128.6,17.8 128.3,17.9 Q128.1,18.0 127.6,18.0 Q126.6,18.0 126.3,17.6 Q125.9,17.2 125.9,16.0 Q125.9,14.8 126.2,14.4 Q126.6,14.0 127.7,14.0 Q128.0,14.0 128.2,14.1 Q128.3,14.1 128.7,14.4 L129.9,12.9 Q129.3,12.3 128.9,12.2 Q128.5,12.0 127.5,12.0 Q125.3,12.0 124.3,12.8 Q123.3,13.5 123.3,16.0 Q123.3,18.5 124.2,19.2 Q125.1,20.0 127.3,20.0 Z"/><path d="M135.5,20.0 Q137.5,20.0 138.4,19.2 Q139.4,18.5 139.4,16.0 Q139.4,13.5 138.4,12.8 Q137.5,12.0 135.5,12.0 Q133.4,12.0 132.5,12.8 Q131.5,13.5 131.5,16.0 Q131.5,18.5 132.5,19.2 Q133.4,20.0 135.5,20.0 Z M135.5,18.0 Q134.5,18.0 134.3,17.6 Q134.1,17.2 134.1,16.0 Q134.1,14.8 134.3,14.4 Q134.5,14.0 135.5,14.0 Q136.4,14.0 136.6,14.4 Q136.8,14.8 136.8,16.0 Q136.8,17.2 136.6,17.6 Q136.4,18.0 135.5,18.0 Z"/><path d="M141.2,20.0 L143.7,20.0 L143.7,14.8 Q144.2,14.4 144.4,14.2 Q144.6,14.1 145.0,14.1 Q145.6,14.1 145.7,14.3 Q145.9,14.4 145.9,15.5 L145.9,20.0 L148.4,20.0 L148.4,14.8 Q148.9,14.4 149.1,14.2 Q149.3,14.1 149.7,14.1 Q150.3,14.1 150.4,14.3 Q150.6,14.4 150.6,15.5 L150.6,20.0 L153.0,20.0 L153.0,15.2 Q153.0,13.2 152.7,12.6 Q152.3,12.0 150.6,12.0 Q149.5,12.0 149.1,12.3 Q148.7,12.6 148.1,13.3 Q147.7,12.5 147.3,12.2 Q147.0,12.0 145.9,12.0 Q144.8,12.0 144.5,12.3 Q144.1,12.5 143.5,13.2 L143.4,13.2 L143.2,12.0 L141.2,12.0 L141.2,20.0 Z"/><path d="M155.4,23.0 L157.9,23.0 L157.9,20.5 L157.8,19.2 Q158.3,19.7 158.7,19.9 Q159.0,20.0 159.7,20.0 Q161.4,20.0 162.2,19.2 Q163.0,18.4 163.0,15.8 Q163.0,13.6 162.4,12.8 Q161.8,12.0 159.9,12.0 Q159.1,12.0 158.7,12.2 Q158.3,12.4 157.7,13.0 L157.6,13.0 L157.4,12.0 L155.4,12.0 L155.4,23.0 Z M159.1,18.0 Q158.7,18.0 158.5,17.9 Q158.3,17.9 157.9,17.5 L157.9,14.7 Q158.3,14.2 158.5,14.1 Q158.7,14.0 159.2,14.0 Q160.0,14.0 160.2,14.3 Q160.4,14.6 160.4,15.9 Q160.4,17.3 160.1,17.7 Q159.8,18.0 159.1,18.0 Z"/><path d="M164.6,20.0 L167.1,20.0 L167.1,15.5 Q167.5,14.6 167.9,14.4 Q168.2,14.2 168.8,14.2 Q169.1,14.2 169.3,14.2 Q169.4,14.2 169.7,14.3 L170.1,12.0 Q169.9,12.1 169.7,12.0 Q169.6,12.0 169.1,12.0 Q168.3,12.0 167.9,12.3 Q167.4,12.5 166.8,13.6 L166.8,13.6 L166.6,12.0 L164.6,12.0 L164.6,20.0 Z"/><path d="M175.4,20.0 Q176.3,20.0 176.9,19.8 Q177.4,19.7 178.3,19.1 L177.4,17.6 Q176.9,17.9 176.6,18.0 Q176.3,18.1 175.8,18.1 Q174.7,18.1 174.4,17.9 Q174.0,17.7 173.8,16.6 L178.4,16.6 Q178.5,16.5 178.5,16.2 Q178.5,16.0 178.5,15.6 Q178.5,13.7 178.0,12.8 Q177.4,12.0 175.1,12.0 Q173.2,12.0 172.3,12.8 Q171.3,13.6 171.3,15.9 Q171.3,18.5 172.2,19.2 Q173.1,20.0 175.4,20.0 Z M173.7,15.0 Q173.9,14.3 174.2,14.1 Q174.5,13.9 175.2,13.9 Q176.1,13.9 176.3,14.1 Q176.4,14.4 176.4,15.0 L173.7,15.0 Z"/><path d="M180.0,20.0 L182.5,20.0 L182.5,14.8 Q183.0,14.4 183.1,14.3 Q183.3,14.1 183.9,14.1 Q184.5,14.1 184.6,14.3 Q184.8,14.4 184.8,15.5 L184.8,20.0 L187.3,20.0 L187.3,15.2 Q187.3,13.2 186.9,12.6 Q186.5,12.0 184.8,12.0 Q183.7,12.0 183.3,12.3 Q182.9,12.5 182.4,13.1 L182.5,11.7 L182.5,9.0 L180.0,9.0 L180.0,20.0 Z"/><path d="M192.8,20.0 Q193.7,20.0 194.3,19.8 Q194.8,19.7 195.7,19.1 L194.8,17.6 Q194.3,17.9 194.0,18.0 Q193.7,18.1 193.2,18.1 Q192.1,18.1 191.8,17.9 Q191.4,17.7 191.2,16.6 L195.8,16.6 Q195.9,16.5 195.9,16.2 Q195.9,16.0 195.9,15.6 Q195.9,13.7 195.4,12.8 Q194.8,12.0 192.5,12.0 Q190.6,12.0 189.7,12.8 Q188.7,13.6 188.7,15.9 Q188.7,18.5 189.6,19.2 Q190.5,20.0 192.8,20.0 Z M191.1,15.0 Q191.3,14.3 191.6,14.1 Q191.9,13.9 192.6,13.9 Q193.5,13.9 193.7,14.1 Q193.8,14.4 193.8,15.0 L191.1,15.0 Z"/><path d="M197.4,20.0 L199.9,20.0 L199.9,14.8 Q200.4,14.4 200.5,14.3 Q200.7,14.1 201.3,14.1 Q201.9,14.1 202.0,14.3 Q202.2,14.4 202.2,15.5 L202.2,20.0 L204.7,20.0 L204.7,15.2 Q204.7,13.2 204.3,12.6 Q203.9,12.0 202.2,12.0 Q201.1,12.0 200.7,12.3 Q200.3,12.5 199.6,13.2 L199.6,13.2 L199.4,12.0 L197.4,12.0 L197.4,20.0 Z"/><path d="M209.0,20.0 Q211.1,20.0 211.7,19.4 Q212.3,18.9 212.3,17.5 Q212.3,16.1 211.7,15.9 Q211.2,15.6 210.2,15.2 Q209.4,15.0 209.0,14.9 Q208.7,14.8 208.7,14.4 Q208.7,14.0 208.8,13.9 Q209.0,13.8 209.5,13.8 Q210.1,13.8 210.3,14.0 Q210.6,14.1 211.2,14.5 L212.3,13.0 Q211.6,12.5 211.2,12.3 Q210.7,12.0 209.4,12.0 Q207.6,12.0 207.0,12.5 Q206.4,13.0 206.4,14.5 Q206.4,15.7 206.9,16.0 Q207.4,16.3 208.4,16.6 Q209.2,16.9 209.6,17.0 Q210.0,17.2 210.0,17.6 Q210.0,18.0 209.8,18.1 Q209.7,18.2 209.0,18.2 Q208.4,18.2 208.1,18.0 Q207.8,17.9 207.0,17.4 L205.9,18.9 Q206.7,19.6 207.3,19.8 Q207.9,20.0 209.0,20.0 Z"/><path d="M213.8,20.0 L216.3,20.0 L216.3,12.0 L213.8,12.0 L213.8,20.0 Z M215.0,11.0 Q215.9,11.0 216.2,10.8 Q216.4,10.5 216.4,9.7 Q216.4,9.0 216.2,8.7 Q215.9,8.4 215.0,8.4 Q214.2,8.4 213.9,8.7 Q213.7,9.0 213.7,9.7 Q213.7,10.5 213.9,10.8 Q214.2,11.0 215.0,11.0 Z"/><path d="M222.5,20.0 Q224.5,20.0 225.4,19.2 Q226.4,18.5 226.4,16.0 Q226.4,13.5 225.4,12.8 Q224.5,12.0 222.5,12.0 Q220.4,12.0 219.5,12.8 Q218.5,13.5 218.5,16.0 Q218.5,18.5 219.5,19.2 Q220.4,20.0 222.5,20.0 Z M222.5,18.0 Q221.5,18.0 221.3,17.6 Q221.1,17.2 221.1,16.0 Q221.1,14.8 221.3,14.4 Q221.5,14.0 222.5,14.0 Q223.4,14.0 223.6,14.4 Q223.8,14.8 223.8,16.0 Q223.8,17.2 223.6,17.6 Q223.4,18.0 222.5,18.0 Z"/><path d="M228.2,20.0 L230.7,20.0 L230.7,14.8 Q231.2,14.4 231.3,14.3 Q231.5,14.1 232.1,14.1 Q232.7,14.1 232.8,14.3 Q233.0,14.4 233.0,15.5 L233.0,20.0 L235.5,20.0 L235.5,15.2 Q235.5,13.2 235.1,12.6 Q234.7,12.0 233.0,12.0 Q231.9,12.0 231.5,12.3 Q231.1,12.5 230.4,13.2 L230.4,13.2 L230.2,12.0 L228.2,12.0 L228.2,20.0 Z"/></g>
  
</svg>
