<svg xmlns="http://www.w3.org/2000/svg" viewBox="0 0 232 30" width="232" height="30" role="img" aria-label="legal-document-formatting">
  <rect x="0.5" y="0.5" width="231" height="29" rx="5" fill="#e7efdd"/>
  <rect x="0" y="0" width="4" height="30" rx="2" fill="#5a7d3f"/>
  <g fill="#2a2d34"><path d="M21.3,20.0 Q21.8,20.0 22.0,20.0 Q22.2,19.9 22.5,19.8 L22.2,18.0 Q22.1,18.0 22.0,18.0 Q22.0,18.0 21.9,18.0 Q21.7,18.0 21.6,17.9 Q21.5,17.8 21.5,17.3 L21.5,8.6 L19.0,8.6 L19.0,17.2 Q19.0,18.9 19.3,19.4 Q19.6,20.0 21.3,20.0 Z"/><path d="M27.8,20.0 Q28.7,20.0 29.3,19.8 Q29.8,19.7 30.7,19.1 L29.8,17.6 Q29.3,17.9 29.0,18.0 Q28.7,18.1 28.2,18.1 Q27.1,18.1 26.8,17.9 Q26.4,17.7 26.2,16.6 L30.8,16.6 Q30.9,16.5 30.9,16.2 Q30.9,16.0 30.9,15.6 Q30.9,13.7 30.4,12.8 Q29.8,12.0 27.5,12.0 Q25.6,12.0 24.7,12.8 Q23.7,13.6 23.7,15.9 Q23.7,18.5 24.6,19.2 Q25.5,20.0 27.8,20.0 Z M26.1,15.0 Q26.3,14.3 26.6,14.1 Q26.9,13.9 27.6,13.9 Q28.5,13.9 28.7,14.1 Q28.8,14.4 28.8,15.0 L26.1,15.0 Z"/><path d="M35.3,23.6 Q38.0,23.6 38.9,23.0 Q39.8,22.4 39.8,20.2 Q39.8,18.7 39.2,18.4 Q38.7,18.1 36.7,18.1 L35.4,18.1 Q34.6,18.1 34.4,18.1 Q34.3,18.0 34.3,17.8 Q34.3,17.6 34.3,17.6 Q34.4,17.5 34.5,17.4 Q34.9,17.5 35.0,17.5 Q35.2,17.5 35.4,17.5 Q37.2,17.5 37.9,17.1 Q38.6,16.7 38.6,14.8 Q38.6,14.4 38.6,14.2 Q38.5,14.0 38.4,13.8 L39.6,13.8 L39.6,12.0 L36.7,12.0 Q36.4,12.1 36.1,12.0 Q35.9,12.0 35.4,12.0 Q33.7,12.0 32.9,12.5 Q32.1,13.0 32.1,14.8 Q32.1,15.7 32.4,16.1 Q32.6,16.4 33.2,16.8 L33.2,16.9 Q32.7,17.2 32.5,17.5 Q32.3,17.7 32.3,18.0 Q32.3,18.7 32.5,18.9 Q32.6,19.1 33.0,19.4 L33.0,19.5 Q32.3,19.8 32.1,20.2 Q31.9,20.5 31.9,21.4 Q31.9,23.0 32.7,23.3 Q33.4,23.6 35.3,23.6 Z M35.4,16.0 Q34.9,16.0 34.7,15.8 Q34.4,15.6 34.4,14.8 Q34.4,14.1 34.7,13.9 Q34.9,13.7 35.4,13.7 Q36.0,13.7 36.3,13.9 Q36.5,14.1 36.5,14.8 Q36.5,15.6 36.3,15.8 Q36.0,16.0 35.4,16.0 Z M35.6,22.0 Q34.6,22.0 34.3,21.8 Q34.0,21.6 34.0,20.9 Q34.0,20.5 34.0,20.3 Q34.1,20.2 34.3,19.9 Q34.6,20.0 34.7,20.0 Q34.9,20.0 35.5,20.0 L36.2,20.0 Q37.0,20.0 37.2,20.1 Q37.4,20.1 37.4,20.8 Q37.4,21.5 37.0,21.7 Q36.7,22.0 35.6,22.0 Z"/><path d="M43.6,20.0 Q44.5,20.0 44.9,19.8 Q45.2,19.6 45.9,19.0 L46.0,19.0 L46.1,20.0 L48.2,20.0 L48.2,15.6 Q48.2,13.2 47.6,12.6 Q47.0,12.0 44.9,12.0 Q43.7,12.0 43.1,12.2 Q42.6,12.4 41.5,13.1 L42.4,14.7 Q43.2,14.2 43.5,14.1 Q43.8,14.0 44.5,14.0 Q45.3,14.0 45.5,14.2 Q45.6,14.4 45.7,15.0 Q42.6,15.3 41.9,15.8 Q41.3,16.2 41.3,17.8 Q41.3,18.9 41.7,19.5 Q42.1,20.0 43.6,20.0 Z M44.5,18.1 Q44.0,18.1 43.8,18.0 Q43.6,17.9 43.6,17.4 Q43.6,16.9 43.9,16.7 Q44.1,16.5 45.7,16.3 L45.7,17.5 Q45.3,17.9 45.1,18.0 Q45.0,18.1 44.5,18.1 Z"/><path d="M52.1,20.0 Q52.6,20.0 52.8,20.0 Q53.0,19.9 53.3,19.8 L53.0,18.0 Q52.9,18.0 52.8,18.0 Q52.8,18.0 52.7,18.0 Q52.5,18.0 52.4,17.9 Q52.3,17.8 52.3,17.3 L52.3,8.6 L49.8,8.6 L49.8,17.2 Q49.8,18.9 50.1,19.4 Q50.4,20.0 52.1,20.0 Z"/><path d="M54.7,16.8 L58.7,16.8 L58.7,15.0 L54.7,15.0 L54.7,16.8 Z"/><path d="M63.1,20.0 Q63.8,20.0 64.2,19.8 Q64.6,19.6 65.2,19.0 L65.2,19.0 L65.4,20.0 L67.4,20.0 L67.4,9.0 L64.9,9.0 L64.9,11.6 L65.0,12.8 Q64.5,12.3 64.2,12.2 Q64.0,12.0 63.1,12.0 Q61.4,12.0 60.6,12.8 Q59.8,13.6 59.8,16.1 Q59.8,18.4 60.4,19.2 Q61.1,20.0 63.1,20.0 Z M63.7,18.0 Q62.9,18.0 62.6,17.7 Q62.4,17.4 62.4,16.0 Q62.4,14.6 62.7,14.3 Q63.0,14.0 63.7,14.0 Q64.1,14.0 64.3,14.1 Q64.5,14.2 64.9,14.5 L64.9,17.3 Q64.6,17.8 64.4,17.9 Q64.2,18.0 63.7,18.0 Z"/><path d="M72.9,20.0 Q74.9,20.0 75.8,19.2 Q76.8,18.5 76.8,16.0 Q76.8,13.5 75.8,12.8 Q74.9,12.0 72.9,12.0 Q70.8,12.0 69.9,12.8 Q68.9,13.5 68.9,16.0 Q68.9,18.5 69.9,19.2 Q70.8,20.0 72.9,20.0 Z M72.9,18.0 Q71.9,18.0 71.7,17.6 Q71.5,17.2 71.5,16.0 Q71.5,14.8 71.7,14.4 Q71.9,14.0 72.9,14.0 Q73.8,14.0 74.0,14.4 Q74.2,14.8 74.2,16.0 Q74.2,17.2 74.0,17.6 Q73.8,18.0 72.9,18.0 Z"/><path d="M82.1,20.0 Q83.0,20.0 83.5,19.9 Q84.0,19.8 84.8,19.1 L83.8,17.5 Q83.4,17.8 83.1,17.9 Q82.9,18.0 82.4,18.0 Q81.4,18.0 81.1,17.6 Q80.7,17.2 80.7,16.0 Q80.7,14.8 81.0,14.4 Q81.4,14.0 82.5,14.0 Q82.8,14.0 83.0,14.1 Q83.1,14.1 83.5,14.4 L84.7,12.9 Q84.1,12.3 83.7,12.2 Q83.3,12.0 82.3,12.0 Q80.1,12.0 79.1,12.8 Q78.1,13.5 78.1,16.0 Q78.1,18.5 79.0,19.2 Q79.9,20.0 82.1,20.0 Z"/><path d="M89.2,20.0 Q90.3,20.0 90.7,19.8 Q91.0,19.5 91.7,18.7 L91.8,18.7 L91.9,20.0 L94.0,20.0 L94.0,12.0 L91.5,12.0 L91.5,17.1 Q91.1,17.7 90.9,17.8 Q90.7,17.9 90.1,17.9 Q89.5,17.9 89.4,17.7 Q89.2,17.6 89.2,16.5 L89.2,12.0 L86.7,12.0 L86.7,16.8 Q86.7,18.8 87.1,19.4 Q87.5,20.0 89.2,20.0 Z"/><path d="M96.0,20.0 L98.5,20.0 L98.5,14.8 Q99.0,14.4 99.2,14.2 Q99.4,14.1 99.8,14.1 Q100.4,14.1 100.5,14.3 Q100.7,14.4 100.7,15.5 L100.7,20.0 L103.2,20.0 L103.2,14.8 Q103.7,14.4 103.9,14.2 Q104.1,14.1 104.5,14.1 Q105.1,14.1 105.2,14.3 Q105.4,14.4 105.4,15.5 L105.4,20.0 L107.8,20.0 L107.8,15.2 Q107.8,13.2 107.5,12.6 Q107.1,12.0 105.4,12.0 Q104.3,12.0 103.9,12.3 Q103.5,12.6 102.9,13.3 Q102.5,12.5 102.1,12.2 Q101.8,12.0 100.7,12.0 Q99.6,12.0 99.3,12.3 Q98.9,12.5 98.3,13.2 L98.2,13.2 L98.0,12.0 L96.0,12.0 L96.0,20.0 Z"/><path d="M113.8,20.0 Q114.7,20.0 115.3,19.8 Q115.8,19.7 116.7,19.1 L115.8,17.6 Q115.3,17.9 115.0,18.0 Q114.7,18.1 114.2,18.1 Q113.1,18.1 112.8,17.9 Q112.4,17.7 112.2,16.6 L116.8,16.6 Q116.9,16.5 116.9,16.2 Q117.0,16.0 117.0,15.6 Q117.0,13.7 116.4,12.8 Q115.8,12.0 113.5,12.0 Q111.6,12.0 110.7,12.8 Q109.7,13.6 109.7,15.9 Q109.7,18.5 110.6,19.2 Q111.5,20.0 113.8,20.0 Z M112.1,15.0 Q112.3,14.3 112.6,14.1 Q112.9,13.9 113.6,13.9 Q114.5,13.9 114.7,14.1 Q114.8,14.4 114.8,15.0 L112.1,15.0 Z"/><path d="M118.4,20.0 L120.9,20.0 L120.9,14.8 Q121.4,14.4 121.5,14.3 Q121.7,14.1 122.3,14.1 Q122.9,14.1 123.0,14.3 Q123.2,14.4 123.2,15.5 L123.2,20.0 L125.7,20.0 L125.7,15.2 Q125.7,13.2 125.3,12.6 Q124.9,12.0 123.2,12.0 Q122.1,12.0 121.7,12.3 Q121.3,12.5 120.7,13.2 L120.6,13.2 L120.4,12.0 L118.4,12.0 L118.4,20.0 Z"/><path d="M130.7,20.0 Q131.6,20.0 131.8,19.9 Q132.1,19.8 132.6,19.7 L132.1,17.9 Q132.0,18.0 131.8,18.0 Q131.7,18.1 131.4,18.1 Q130.8,18.1 130.6,17.9 Q130.4,17.7 130.4,16.9 L130.4,14.0 L132.3,14.0 L132.3,12.0 L130.4,12.0 L130.4,9.9 L128.4,9.9 L128.1,12.0 L126.9,12.1 L126.9,14.0 L127.9,14.0 L127.9,16.9 Q127.9,18.7 128.3,19.4 Q128.7,20.0 130.7,20.0 Z"/><path d="M133.5,16.8 L137.5,16.8 L137.5,15.0 L133.5,15.0 L133.5,16.8 Z"/><path d="M138.4,14.0 L139.4,14.0 L139.4,20.0 L141.9,20.0 L141.9,14.0 L143.3,14.0 L143.3,12.0 L141.9,12.0 L141.9,11.7 Q141.9,11.2 142.1,11.1 Q142.2,11.0 142.8,11.0 Q143.1,11.0 143.2,11.0 Q143.4,11.0 143.6,11.1 L144.1,9.3 Q143.7,9.1 143.4,9.1 Q143.1,9.0 142.4,9.0 Q140.2,9.0 139.8,9.7 Q139.4,10.4 139.4,11.8 L139.4,12.0 L138.4,12.1 L138.4,14.0 Z"/><path d="M148.7,20.0 Q150.7,20.0 151.6,19.2 Q152.6,18.5 152.6,16.0 Q152.6,13.5 151.6,12.8 Q150.7,12.0 148.7,12.0 Q146.6,12.0 145.7,12.8 Q144.7,13.5 144.7,16.0 Q144.7,18.5 145.7,19.2 Q146.6,20.0 148.7,20.0 Z M148.7,18.0 Q147.7,18.0 147.5,17.6 Q147.3,17.2 147.3,16.0 Q147.3,14.8 147.5,14.4 Q147.7,14.0 148.7,14.0 Q149.6,14.0 149.8,14.4 Q150.0,14.8 150.0,16.0 Q150.0,17.2 149.8,17.6 Q149.6,18.0 148.7,18.0 Z"/><path d="M154.4,20.0 L156.9,20.0 L156.9,15.5 Q157.3,14.6 157.7,14.4 Q158.0,14.2 158.6,14.2 Q158.9,14.2 159.1,14.2 Q159.2,14.2 159.5,14.3 L159.9,12.0 Q159.7,12.1 159.5,12.0 Q159.4,12.0 158.9,12.0 Q158.1,12.0 157.7,12.3 Q157.2,12.5 156.6,13.6 L156.6,13.6 L156.4,12.0 L154.4,12.0 L154.4,20.0 Z"/><path d="M161.6,20.0 L164.1,20.0 L164.1,14.8 Q164.6,14.4 164.8,14.2 Q165.0,14.1 165.3,14.1 Q166.0,14.1 166.1,14.3 Q166.3,14.4 166.3,15.5 L166.3,20.0 L168.8,20.0 L168.8,14.8 Q169.3,14.4 169.5,14.2 Q169.7,14.1 170.1,14.1 Q170.7,14.1 170.8,14.3 Q171.0,14.4 171.0,15.5 L171.0,20.0 L173.4,20.0 L173.4,15.2 Q173.4,13.2 173.1,12.6 Q172.7,12.0 171.0,12.0 Q169.9,12.0 169.5,12.3 Q169.1,12.6 168.5,13.3 Q168.1,12.5 167.7,12.2 Q167.4,12.0 166.3,12.0 Q165.2,12.0 164.9,12.3 Q164.5,12.5 163.8,13.2 L163.8,13.2 L163.6,12.0 L161.6,12.0 L161.6,20.0 Z"/><path d="M177.8,20.0 Q178.7,20.0 179.1,19.8 Q179.4,19.6 180.1,19.0 L180.2,19.0 L180.3,20.0 L182.4,20.0 L182.4,15.6 Q182.4,13.2 181.8,12.6 Q181.2,12.0 179.1,12.0 Q177.9,12.0 177.3,12.2 Q176.8,12.4 175.7,13.1 L176.6,14.7 Q177.4,14.2 177.7,14.1 Q178.0,14.0 178.7,14.0 Q179.5,14.0 179.7,14.2 Q179.8,14.4 179.9,15.0 Q176.8,15.3 176.1,15.8 Q175.5,16.2 175.5,17.8 Q175.5,18.9 175.9,19.5 Q176.3,20.0 177.8,20.0 Z M178.7,18.1 Q178.2,18.1 178.0,18.0 Q177.8,17.9 177.8,17.4 Q177.8,16.9 178.1,16.7 Q178.3,16.5 179.9,16.3 L179.9,17.5 Q179.5,17.9 179.3,18.0 Q179.2,18.1 178.7,18.1 Z"/><path d="M187.1,20.0 Q188.0,20.0 188.2,19.9 Q188.5,19.8 189.0,19.7 L188.5,17.9 Q188.4,18.0 188.2,18.0 Q188.1,18.1 187.8,18.1 Q187.2,18.1 187.0,17.9 Q186.8,17.7 186.8,16.9 L186.8,14.0 L188.7,14.0 L188.7,12.0 L186.8,12.0 L186.8,9.9 L184.7,9.9 L184.5,12.0 L183.2,12.1 L183.2,14.0 L184.3,14.0 L184.3,16.9 Q184.3,18.7 184.7,19.4 Q185.1,20.0 187.1,20.0 Z"/><path d="M193.3,20.0 Q194.2,20.0 194.4,19.9 Q194.7,19.8 195.2,19.7 L194.7,17.9 Q194.6,18.0 194.4,18.0 Q194.3,18.1 194.0,18.1 Q193.4,18.1 193.2,17.9 Q193.0,17.7 193.0,16.9 L193.0,14.0 L194.9,14.0 L194.9,12.0 L193.0,12.0 L193.0,9.9 L190.9,9.9 L190.7,12.0 L189.4,12.1 L189.4,14.0 L190.5,14.0 L190.5,16.9 Q190.5,18.7 190.9,19.4 Q191.3,20.0 193.3,20.0 Z"/><path d="M196.4,20.0 L198.9,20.0 L198.9,12.0 L196.4,12.0 L196.4,20.0 Z M197.6,11.0 Q198.5,11.0 198.8,10.8 Q199.0,10.5 199.0,9.7 Q199.0,9.0 198.8,8.7 Q198.5,8.4 197.6,8.4 Q196.8,8.4 196.5,8.7 Q196.3,9.0 196.3,9.7 Q196.3,10.5 196.5,10.8 Q196.8,11.0 197.6,11.0 Z"/><path d="M201.6,20.0 L204.1,20.0 L204.1,14.8 Q204.6,14.4 204.7,14.3 Q204.9,14.1 205.5,14.1 Q206.1,14.1 206.2,14.3 Q206.4,14.4 206.4,15.5 L206.4,20.0 L208.9,20.0 L208.9,15.2 Q208.9,13.2 208.5,12.6 Q208.1,12.0 206.4,12.0 Q205.3,12.0 204.9,12.3 Q204.5,12.5 203.8,13.2 L203.8,13.2 L203.6,12.0 L201.6,12.0 L201.6,20.0 Z"/><path d="M213.7,23.6 Q216.4,23.6 217.3,23.0 Q218.2,22.4 218.2,20.2 Q218.2,18.7 217.6,18.4 Q217.1,18.1 215.1,18.1 L213.8,18.1 Q213.0,18.1 212.8,18.1 Q212.7,18.0 212.7,17.8 Q212.7,17.6 212.7,17.6 Q212.8,17.5 212.9,17.4 Q213.3,17.5 213.4,17.5 Q213.6,17.5 213.8,17.5 Q215.6,17.5 216.3,17.1 Q217.0,16.7 217.0,14.8 Q217.0,14.4 217.0,14.2 Q216.9,14.0 216.8,13.8 L218.0,13.8 L218.0,12.0 L215.1,12.0 Q214.8,12.1 214.5,12.0 Q214.3,12.0 213.8,12.0 Q212.1,12.0 211.3,12.5 Q210.5,13.0 210.5,14.8 Q210.5,15.7 210.8,16.1 Q211.0,16.4 211.6,16.8 L211.6,16.9 Q211.1,17.2 210.9,17.5 Q210.7,17.7 210.7,18.0 Q210.7,18.7 210.9,18.9 Q211.0,19.1 211.4,19.4 L211.4,19.5 Q210.7,19.8 210.5,20.2 Q210.3,20.5 210.3,21.4 Q210.3,23.0 211.1,23.3 Q211.8,23.6 213.7,23.6 Z M213.8,16.0 Q213.3,16.0 213.1,15.8 Q212.8,15.6 212.8,14.8 Q212.8,14.1 213.1,13.9 Q213.3,13.7 213.8,13.7 Q214.4,13.7 214.7,13.9 Q214.9,14.1 214.9,14.8 Q214.9,15.6 214.7,15.8 Q214.4,16.0 213.8,16.0 Z M214.0,22.0 Q213.0,22.0 212.7,21.8 Q212.4,21.6 212.4,20.9 Q212.4,20.5 212.4,20.3 Q212.5,20.2 212.7,19.9 Q213.0,20.0 213.1,20.0 Q213.3,20.0 213.9,20.0 L214.6,20.0 Q215.4,20.0 215.6,20.1 Q215.8,20.1 215.8,20.8 Q215.8,21.5 215.4,21.7 Q215.1,22.0 214.0,22.0 Z"/></g>
  
</svg>
