<svg xmlns="http://www.w3.org/2000/svg" viewBox="0 0 160 30" width="160" height="30" role="img" aria-label="legal-terminology">
  <rect x="0.5" y="0.5" width="159" height="29" rx="5" fill="#e7efdd"/>
  <rect x="0" y="0" width="4" height="30" rx="2" fill="#5a7d3f"/>
  <g fill="#2a2d34"><path d="M21.3,20.0 Q21.8,20.0 22.0,20.0 Q22.2,19.9 22.5,19.8 L22.2,18.0 Q22.1,18.0 22.0,18.0 Q22.0,18.0 21.9,18.0 Q21.7,18.0 21.6,17.9 Q21.5,17.8 21.5,17.3 L21.5,8.6 L19.0,8.6 L19.0,17.2 Q19.0,18.9 19.3,19.4 Q19.6,20.0 21.3,20.0 Z"/><path d="M27.8,20.0 Q28.7,20.0 29.3,19.8 Q29.8,19.7 30.7,19.1 L29.8,17.6 Q29.3,17.9 29.0,18.0 Q28.7,18.1 28.2,18.1 Q27.1,18.1 26.8,17.9 Q26.4,17.7 26.2,16.6 L30.8,16.6 Q30.9,16.5 30.9,16.2 Q30.9,16.0 30.9,15.6 Q30.9,13.7 30.4,12.8 Q29.8,12.0 27.5,12.0 Q25.6,12.0 24.7,12.8 Q23.7,13.6 23.7,15.9 Q23.7,18.5 24.6,19.2 Q25.5,20.0 27.8,20.0 Z M26.1,15.0 Q26.3,14.3 26.6,14.1 Q26.9,13.9 27.6,13.9 Q28.5,13.9 28.7,14.1 Q28.8,14.4 28.8,15.0 L26.1,15.0 Z"/><path d="M35.3,23.6 Q38.0,23.6 38.9,23.0 Q39.8,22.4 39.8,20.2 Q39.8,18.7 39.2,18.4 Q38.7,18.1 36.7,18.1 L35.4,18.1 Q34.6,18.1 34.4,18.1 Q34.3,18.0 34.3,17.8 Q34.3,17.6 34.3,17.6 Q34.4,17.5 34.5,17.4 Q34.9,17.5 35.0,17.5 Q35.2,17.5 35.4,17.5 Q37.2,17.5 37.9,17.1 Q38.6,16.7 38.6,14.8 Q38.6,14.4 38.6,14.2 Q38.5,14.0 38.4,13.8 L39.6,13.8 L39.6,12.0 L36.7,12.0 Q36.4,12.1 36.1,12.0 Q35.9,12.0 35.4,12.0 Q33.7,12.0 32.9,12.5 Q32.1,13.0 32.1,14.8 Q32.1,15.7 32.4,16.1 Q32.6,16.4 33.2,16.8 L33.2,16.9 Q32.7,17.2 32.5,17.5 Q32.3,17.7 32.3,18.0 Q32.3,18.7 32.5,18.9 Q32.6,19.1 33.0,19.4 L33.0,19.5 Q32.3,19.8 32.1,20.2 Q31.9,20.5 31.9,21.4 Q31.9,23.0 32.7,23.3 Q33.4,23.6 35.3,23.6 Z M35.4,16.0 Q34.9,16.0 34.7,15.8 Q34.4,15.6 34.4,14.8 Q34.4,14.1 34.7,13.9 Q34.9,13.7 35.4,13.7 Q36.0,13.7 36.3,13.9 Q36.5,14.1 36.5,14.8 Q36.5,15.6 36.3,15.8 Q36.0,16.0 35.4,16.0 Z M35.6,22.0 Q34.6,22.0 34.3,21.8 Q34.0,21.6 34.0,20.9 Q34.0,20.5 34.0,20.3 Q34.1,20.2 34.3,19.9 Q34.6,20.0 34.7,20.0 Q34.9,20.0 35.5,20.0 L36.2,20.0 Q37.0,20.0 37.2,20.1 Q37.4,20.1 37.4,20.8 Q37.4,21.5 37.0,21.7 Q36.7,22.0 35.6,22.0 Z"/><path d="M43.6,20.0 Q44.5,20.0 44.9,19.8 Q45.2,19.6 45.9,19.0 L46.0,19.0 L46.1,20.0 L48.2,20.0 L48.2,15.6 Q48.2,13.2 47.6,12.6 Q47.0,12.0 44.9,12.0 Q43.7,12.0 43.1,12.2 Q42.6,12.4 41.5,13.1 L42.4,14.7 Q43.2,14.2 43.5,14.1 Q43.8,14.0 44.5,14.0 Q45.3,14.0 45.5,14.2 Q45.6,14.4 45.7,15.0 Q42.6,15.3 41.9,15.8 Q41.3,16.2 41.3,17.8 Q41.3,18.9 41.7,19.5 Q42.1,20.0 43.6,20.0 Z M44.5,18.1 Q44.0,18.1 43.8,18.0 Q43.6,17.9 43.6,17.4 Q43.6,16.9 43.9,16.7 Q44.1,16.5 45.7,16.3 L45.7,17.5 Q45.3,17.9 45.1,18.0 Q45.0,18.1 44.5,18.1 Z"/><path d="M52.1,20.0 Q52.6,20.0 52.8,20.0 Q53.0,19.9 53.3,19.8 L53.0,18.0 Q52.9,18.0 52.8,18.0 Q52.8,18.0 52.7,18.0 Q52.5,18.0 52.4,17.9 Q52.3,17.8 52.3,17.3 L52.3,8.6 L49.8,8.6 L49.8,17.2 Q49.8,18.9 50.1,19.4 Q50.4,20.0 52.1,20.0 Z"/><path d="M54.7,16.8 L58.7,16.8 L58.7,15.0 L54.7,15.0 L54.7,16.8 Z"/><path d="M63.3,20.0 Q64.2,20.0 64.4,19.9 Q64.7,19.8 65.2,19.7 L64.7,17.9 Q64.6,18.0 64.4,18.0 Q64.3,18.1 64.0,18.1 Q63.4,18.1 63.2,17.9 Q63.0,17.7 63.0,16.9 L63.0,14.0 L64.9,14.0 L64.9,12.0 L63.0,12.0 L63.0,9.9 L61.0,9.9 L60.7,12.0 L59.5,12.1 L59.5,14.0 L60.5,14.0 L60.5,16.9 Q60.5,18.7 60.9,19.4 Q61.3,20.0 63.3,20.0 Z"/><path d="M70.0,20.0 Q70.9,20.0 71.5,19.8 Q72.0,19.7 72.9,19.1 L72.0,17.6 Q71.5,17.9 71.2,18.0 Q70.9,18.1 70.4,18.1 Q69.3,18.1 69.0,17.9 Q68.6,17.7 68.4,16.6 L73.0,16.6 Q73.1,16.5 73.1,16.2 Q73.2,16.0 73.2,15.6 Q73.2,13.7 72.6,12.8 Q72.0,12.0 69.7,12.0 Q67.8,12.0 66.9,12.8 Q65.9,13.6 65.9,15.9 Q65.9,18.5 66.8,19.2 Q67.7,20.0 70.0,20.0 Z M68.3,15.0 Q68.5,14.3 68.8,14.1 Q69.1,13.9 69.8,13.9 Q70.7,13.9 70.9,14.1 Q71.0,14.4 71.0,15.0 L68.3,15.0 Z"/><path d="M74.6,20.0 L77.1,20.0 L77.1,15.5 Q77.5,14.6 77.9,14.4 Q78.2,14.2 78.8,14.2 Q79.1,14.2 79.3,14.2 Q79.4,14.2 79.7,14.3 L80.1,12.0 Q79.9,12.1 79.7,12.0 Q79.6,12.0 79.1,12.0 Q78.3,12.0 77.9,12.3 Q77.4,12.5 76.9,13.6 L76.8,13.6 L76.6,12.0 L74.6,12.0 L74.6,20.0 Z"/><path d="M81.8,20.0 L84.3,20.0 L84.3,14.8 Q84.8,14.4 85.0,14.2 Q85.2,14.1 85.6,14.1 Q86.2,14.1 86.3,14.3 Q86.5,14.4 86.5,15.5 L86.5,20.0 L89.0,20.0 L89.0,14.8 Q89.5,14.4 89.7,14.2 Q89.9,14.1 90.3,14.1 Q90.9,14.1 91.0,14.3 Q91.2,14.4 91.2,15.5 L91.2,20.0 L93.6,20.0 L93.6,15.2 Q93.6,13.2 93.3,12.6 Q92.9,12.0 91.2,12.0 Q90.1,12.0 89.7,12.3 Q89.3,12.6 88.7,13.3 Q88.3,12.5 87.9,12.2 Q87.6,12.0 86.5,12.0 Q85.4,12.0 85.1,12.3 Q84.7,12.5 84.1,13.2 L84.0,13.2 L83.8,12.0 L81.8,12.0 L81.8,20.0 Z"/><path d="M96.0,20.0 L98.5,20.0 L98.5,12.0 L96.0,12.0 L96.0,20.0 Z M97.3,11.0 Q98.1,11.0 98.4,10.8 Q98.6,10.5 98.6,9.7 Q98.6,9.0 98.4,8.7 Q98.1,8.4 97.3,8.4 Q96.4,8.4 96.1,8.7 Q95.9,9.0 95.9,9.7 Q95.9,10.5 96.1,10.8 Q96.4,11.0 97.3,11.0 Z"/><path d="M101.2,20.0 L103.7,20.0 L103.7,14.8 Q104.2,14.4 104.3,14.3 Q104.5,14.1 105.1,14.1 Q105.7,14.1 105.8,14.3 Q106.0,14.4 106.0,15.5 L106.0,20.0 L108.5,20.0 L108.5,15.2 Q108.5,13.2 108.1,12.6 Q107.7,12.0 106.0,12.0 Q104.9,12.0 104.5,12.3 Q104.1,12.5 103.5,13.2 L103.4,13.2 L103.2,12.0 L101.2,12.0 L101.2,20.0 Z"/><path d="M113.9,20.0 Q115.9,20.0 116.8,19.2 Q117.8,18.5 117.8,16.0 Q117.8,13.5 116.8,12.8 Q115.9,12.0 113.9,12.0 Q111.8,12.0 110.9,12.8 Q109.9,13.5 109.9,16.0 Q109.9,18.5 110.9,19.2 Q111.8,20.0 113.9,20.0 Z M113.9,18.0 Q112.9,18.0 112.7,17.6 Q112.5,17.2 112.5,16.0 Q112.5,14.8 112.7,14.4 Q112.9,14.0 113.9,14.0 Q114.8,14.0 115.0,14.4 Q115.2,14.8 115.2,16.0 Q115.2,17.2 115.0,17.6 Q114.8,18.0 113.9,18.0 Z"/><path d="M121.9,20.0 Q122.4,20.0 122.6,20.0 Q122.8,19.9 123.1,19.8 L122.8,18.0 Q122.7,18.0 122.6,18.0 Q122.6,18.0 122.5,18.0 Q122.3,18.0 122.2,17.9 Q122.1,17.8 122.1,17.3 L122.1,8.6 L119.6,8.6 L119.6,17.2 Q119.6,18.9 119.9,19.4 Q120.2,20.0 121.9,20.0 Z"/><path d="M128.3,20.0 Q130.3,20.0 131.2,19.2 Q132.2,18.5 132.2,16.0 Q132.2,13.5 131.2,12.8 Q130.3,12.0 128.3,12.0 Q126.2,12.0 125.3,12.8 Q124.3,13.5 124.3,16.0 Q124.3,18.5 125.3,19.2 Q126.2,20.0 128.3,20.0 Z M128.3,18.0 Q127.3,18.0 127.1,17.6 Q126.9,17.2 126.9,16.0 Q126.9,14.8 127.1,14.4 Q127.3,14.0 128.3,14.0 Q129.2,14.0 129.4,14.4 Q129.6,14.8 129.6,16.0 Q129.6,17.2 129.4,17.6 Q129.2,18.0 128.3,18.0 Z"/><path d="M136.9,23.6 Q139.6,23.6 140.5,23.0 Q141.4,22.4 141.4,20.2 Q141.4,18.7 140.8,18.4 Q140.3,18.1 138.3,18.1 L137.0,18.1 Q136.2,18.1 136.0,18.1 Q135.9,18.0 135.9,17.8 Q135.9,17.6 135.9,17.6 Q136.0,17.5 136.1,17.4 Q136.5,17.5 136.6,17.5 Q136.8,17.5 137.0,17.5 Q138.8,17.5 139.5,17.1 Q140.2,16.7 140.2,14.8 Q140.2,14.4 140.2,14.2 Q140.1,14.0 140.0,13.8 L141.3,13.8 L141.3,12.0 L138.3,12.0 Q138.0,12.1 137.7,12.0 Q137.5,12.0 137.0,12.0 Q135.3,12.0 134.5,12.5 Q133.7,13.0 133.7,14.8 Q133.7,15.7 134.0,16.1 Q134.2,16.4 134.8,16.8 L134.8,16.9 Q134.3,17.2 134.1,17.5 Q133.9,17.7 133.9,18.0 Q133.9,18.7 134.1,18.9 Q134.2,19.1 134.6,19.4 L134.6,19.5 Q133.9,19.8 133.7,20.2 Q133.5,20.5 133.5,21.4 Q133.5,23.0 134.3,23.3 Q135.0,23.6 136.9,23.6 Z M137.0,16.0 Q136.5,16.0 136.3,15.8 Q136.0,15.6 136.0,14.8 Q136.0,14.1 136.3,13.9 Q136.5,13.7 137.0,13.7 Q137.6,13.7 137.9,13.9 Q138.1,14.1 138.1,14.8 Q138.1,15.6 137.9,15.8 Q137.6,16.0 137.0,16.0 Z M137.3,22.0 Q136.2,22.0 135.9,21.8 Q135.6,21.6 135.6,20.9 Q135.6,20.5 135.6,20.3 Q135.7,20.2 135.9,19.9 Q136.2,20.0 136.3,20.0 Q136.5,20.0 137.1,20.0 L137.8,20.0 Q138.6,20.0 138.8,20.1 Q139.0,20.1 139.0,20.8 Q139.0,21.5 138.6,21.7 Q138.3,22.0 137.3,22.0 Z"/><path d="M144.2,23.0 Q146.1,23.0 146.5,22.5 Q147.0,22.0 147.7,20.0 L150.5,12.0 L148.1,12.0 L147.2,15.3 Q147.0,16.0 146.9,16.4 Q146.8,16.8 146.7,17.5 L146.6,17.5 Q146.4,16.8 146.3,16.4 Q146.2,16.0 146.0,15.3 L144.9,12.0 L142.4,12.0 L145.4,19.7 L145.3,20.1 Q145.2,20.7 145.0,20.9 Q144.8,21.1 144.0,21.1 Q143.8,21.1 143.7,21.0 Q143.6,21.0 143.5,21.0 L143.0,23.0 Q143.4,23.0 143.5,23.0 Q143.7,23.0 144.2,23.0 Z"/></g>
  
</svg>
