<svg xmlns="http://www.w3.org/2000/svg" viewBox="0 0 220 30" width="220" height="30" role="img" aria-label="legal-abductive-reasoning">
  <rect x="0.5" y="0.5" width="219" height="29" rx="5" fill="#f6e3dc"/>
  <rect x="0" y="0" width="4" height="30" rx="2" fill="#b5462f"/>
  <g fill="#2a2d34"><path d="M21.3,20.0 Q21.8,20.0 22.0,20.0 Q22.2,19.9 22.5,19.8 L22.2,18.0 Q22.1,18.0 22.0,18.0 Q22.0,18.0 21.9,18.0 Q21.7,18.0 21.6,17.9 Q21.5,17.8 21.5,17.3 L21.5,8.6 L19.0,8.6 L19.0,17.2 Q19.0,18.9 19.3,19.4 Q19.6,20.0 21.3,20.0 Z"/><path d="M27.8,20.0 Q28.7,20.0 29.3,19.8 Q29.8,19.7 30.7,19.1 L29.8,17.6 Q29.3,17.9 29.0,18.0 Q28.7,18.1 28.2,18.1 Q27.1,18.1 26.8,17.9 Q26.4,17.7 26.2,16.6 L30.8,16.6 Q30.9,16.5 30.9,16.2 Q30.9,16.0 30.9,15.6 Q30.9,13.7 30.4,12.8 Q29.8,12.0 27.5,12.0 Q25.6,12.0 24.7,12.8 Q23.7,13.6 23.7,15.9 Q23.7,18.5 24.6,19.2 Q25.5,20.0 27.8,20.0 Z M26.1,15.0 Q26.3,14.3 26.6,14.1 Q26.9,13.9 27.6,13.9 Q28.5,13.9 28.7,14.1 Q28.8,14.4 28.8,15.0 L26.1,15.0 Z"/><path d="M35.3,23.6 Q38.0,23.6 38.9,23.0 Q39.8,22.4 39.8,20.2 Q39.8,18.7 39.2,18.4 Q38.7,18.1 36.7,18.1 L35.4,18.1 Q34.6,18.1 34.4,18.1 Q34.3,18.0 34.3,17.8 Q34.3,17.6 34.3,17.6 Q34.4,17.5 34.5,17.4 Q34.9,17.5 35.0,17.5 Q35.2,17.5 35.4,17.5 Q37.2,17.5 37.9,17.1 Q38.6,16.7 38.6,14.8 Q38.6,14.4 38.6,14.2 Q38.5,14.0 38.4,13.8 L39.6,13.8 L39.6,12.0 L36.7,12.0 Q36.4,12.1 36.1,12.0 Q35.9,12.0 35.4,12.0 Q33.7,12.0 32.9,12.5 Q32.1,13.0 32.1,14.8 Q32.1,15.7 32.4,16.1 Q32.6,16.4 33.2,16.8 L33.2,16.9 Q32.7,17.2 32.5,17.5 Q32.3,17.7 32.3,18.0 Q32.3,18.7 32.5,18.9 Q32.6,19.1 33.0,19.4 L33.0,19.5 Q32.3,19.8 32.1,20.2 Q31.9,20.5 31.9,21.4 Q31.9,23.0 32.7,23.3 Q33.4,23.6 35.3,23.6 Z M35.4,16.0 Q34.9,16.0 34.7,15.8 Q34.4,15.6 34.4,14.8 Q34.4,14.1 34.7,13.9 Q34.9,13.7 35.4,13.7 Q36.0,13.7 36.3,13.9 Q36.5,14.1 36.5,14.8 Q36.5,15.6 36.3,15.8 Q36.0,16.0 35.4,16.0 Z M35.6,22.0 Q34.6,22.0 34.3,21.8 Q34.0,21.6 34.0,20.9 Q34.0,20.5 34.0,20.3 Q34.1,20.2 34.3,19.9 Q34.6,20.0 34.7,20.0 Q34.9,20.0 35.5,20.0 L36.2,20.0 Q37.0,20.0 37.2,20.1 Q37.4,20.1 37.4,20.8 Q37.4,21.5 37.0,21.7 Q36.7,22.0 35.6,22.0 Z"/><path d="M43.6,20.0 Q44.5,20.0 44.9,19.8 Q45.2,19.6 45.9,19.0 L46.0,19.0 L46.1,20.0 L48.2,20.0 L48.2,15.6 Q48.2,13.2 47.6,12.6 Q47.0,12.0 44.9,12.0 Q43.7,12.0 43.1,12.2 Q42.6,12.4 41.5,13.1 L42.4,14.7 Q43.2,14.2 43.5,14.1 Q43.8,14.0 44.5,14.0 Q45.3,14.0 45.5,14.2 Q45.6,14.4 45.7,15.0 Q42.6,15.3 41.9,15.8 Q41.3,16.2 41.3,17.8 Q41.3,18.9 41.7,19.5 Q42.1,20.0 43.6,20.0 Z M44.5,18.1 Q44.0,18.1 43.8,18.0 Q43.6,17.9 43.6,17.4 Q43.6,16.9 43.9,16.7 Q44.1,16.5 45.7,16.3 L45.7,17.5 Q45.3,17.9 45.1,18.0 Q45.0,18.1 44.5,18.1 Z"/><path d="M52.1,20.0 Q52.6,20.0 52.8,20.0 Q53.0,19.9 53.3,19.8 L53.0,18.0 Q52.9,18.0 52.8,18.0 Q52.8,18.0 52.7,18.0 Q52.5,18.0 52.4,17.9 Q52.3,17.8 52.3,17.3 L52.3,8.6 L49.8,8.6 L49.8,17.2 Q49.8,18.9 50.1,19.4 Q50.4,20.0 52.1,20.0 Z"/><path d="M54.7,16.8 L58.7,16.8 L58.7,15.0 L54.7,15.0 L54.7,16.8 Z"/><path d="M62.2,20.0 Q63.1,20.0 63.5,19.8 Q63.8,19.6 64.5,19.0 L64.6,19.0 L64.7,20.0 L66.8,20.0 L66.8,15.6 Q66.8,13.2 66.2,12.6 Q65.6,12.0 63.5,12.0 Q62.3,12.0 61.7,12.2 Q61.2,12.4 60.1,13.1 L61.0,14.7 Q61.8,14.2 62.1,14.1 Q62.4,14.0 63.1,14.0 Q63.9,14.0 64.1,14.2 Q64.2,14.4 64.3,15.0 Q61.2,15.3 60.5,15.8 Q59.9,16.2 59.9,17.8 Q59.9,18.9 60.3,19.5 Q60.7,20.0 62.2,20.0 Z M63.1,18.1 Q62.6,18.1 62.4,18.0 Q62.2,17.9 62.2,17.4 Q62.2,16.9 62.5,16.7 Q62.7,16.5 64.3,16.3 L64.3,17.5 Q63.9,17.9 63.7,18.0 Q63.6,18.1 63.1,18.1 Z"/><path d="M72.7,20.0 Q74.4,20.0 75.2,19.2 Q76.0,18.4 76.0,15.9 Q76.0,13.6 75.4,12.8 Q74.8,12.0 72.9,12.0 Q72.2,12.0 71.8,12.2 Q71.4,12.3 70.8,12.9 L70.9,11.7 L70.9,9.0 L68.4,9.0 L68.4,20.0 L70.4,20.0 L70.5,19.0 L70.6,19.0 Q71.2,19.6 71.6,19.8 Q72.0,20.0 72.7,20.0 Z M72.1,18.0 Q71.7,18.0 71.5,17.9 Q71.3,17.9 70.9,17.5 L70.9,14.7 Q71.3,14.2 71.5,14.1 Q71.7,14.0 72.2,14.0 Q73.0,14.0 73.2,14.3 Q73.4,14.6 73.4,15.9 Q73.4,17.4 73.1,17.7 Q72.8,18.0 72.1,18.0 Z"/><path d="M80.5,20.0 Q81.2,20.0 81.6,19.8 Q82.0,19.6 82.6,19.0 L82.6,19.0 L82.8,20.0 L84.8,20.0 L84.8,9.0 L82.3,9.0 L82.3,11.6 L82.4,12.8 Q81.9,12.3 81.6,12.2 Q81.4,12.0 80.5,12.0 Q78.8,12.0 78.0,12.8 Q77.2,13.6 77.2,16.1 Q77.2,18.4 77.8,19.2 Q78.5,20.0 80.5,20.0 Z M81.1,18.0 Q80.3,18.0 80.0,17.7 Q79.8,17.4 79.8,16.0 Q79.8,14.6 80.1,14.3 Q80.4,14.0 81.1,14.0 Q81.5,14.0 81.7,14.1 Q81.9,14.2 82.3,14.5 L82.3,17.3 Q82.0,17.8 81.8,17.9 Q81.6,18.0 81.1,18.0 Z"/><path d="M89.2,20.0 Q90.3,20.0 90.7,19.8 Q91.0,19.5 91.7,18.7 L91.8,18.7 L91.9,20.0 L94.0,20.0 L94.0,12.0 L91.5,12.0 L91.5,17.1 Q91.1,17.7 90.9,17.8 Q90.7,17.9 90.1,17.9 Q89.5,17.9 89.4,17.7 Q89.2,17.6 89.2,16.5 L89.2,12.0 L86.7,12.0 L86.7,16.8 Q86.7,18.8 87.1,19.4 Q87.5,20.0 89.2,20.0 Z"/><path d="M99.5,20.0 Q100.4,20.0 100.9,19.9 Q101.4,19.8 102.2,19.1 L101.2,17.5 Q100.8,17.8 100.5,17.9 Q100.3,18.0 99.8,18.0 Q98.8,18.0 98.5,17.6 Q98.1,17.2 98.1,16.0 Q98.1,14.8 98.4,14.4 Q98.8,14.0 99.9,14.0 Q100.2,14.0 100.4,14.1 Q100.5,14.1 100.9,14.4 L102.1,12.9 Q101.5,12.3 101.1,12.2 Q100.7,12.0 99.7,12.0 Q97.5,12.0 96.5,12.8 Q95.5,13.5 95.5,16.0 Q95.5,18.5 96.4,19.2 Q97.3,20.0 99.5,20.0 Z"/><path d="M107.3,20.0 Q108.2,20.0 108.4,19.9 Q108.7,19.8 109.2,19.7 L108.7,17.9 Q108.6,18.0 108.4,18.0 Q108.3,18.1 108.0,18.1 Q107.4,18.1 107.2,17.9 Q107.0,17.7 107.0,16.9 L107.0,14.0 L108.9,14.0 L108.9,12.0 L107.0,12.0 L107.0,9.9 L105.0,9.9 L104.7,12.0 L103.5,12.1 L103.5,14.0 L104.5,14.0 L104.5,16.9 Q104.5,18.7 104.9,19.4 Q105.3,20.0 107.3,20.0 Z"/><path d="M110.4,20.0 L112.9,20.0 L112.9,12.0 L110.4,12.0 L110.4,20.0 Z M111.7,11.0 Q112.5,11.0 112.8,10.8 Q113.0,10.5 113.0,9.7 Q113.0,9.0 112.8,8.7 Q112.5,8.4 111.7,8.4 Q110.8,8.4 110.5,8.7 Q110.3,9.0 110.3,9.7 Q110.3,10.5 110.5,10.8 Q110.8,11.0 111.7,11.0 Z"/><path d="M117.4,20.0 L120.3,20.0 L122.9,12.0 L120.5,12.0 L119.5,15.7 Q119.3,16.5 119.2,16.9 Q119.1,17.3 118.9,18.2 L118.9,18.2 Q118.6,17.3 118.6,16.9 Q118.5,16.5 118.3,15.7 L117.3,12.0 L114.8,12.0 L117.4,20.0 Z"/><path d="M128.4,20.0 Q129.3,20.0 129.9,19.8 Q130.4,19.7 131.3,19.1 L130.4,17.6 Q129.9,17.9 129.6,18.0 Q129.3,18.1 128.8,18.1 Q127.7,18.1 127.4,17.9 Q127.0,17.7 126.8,16.6 L131.4,16.6 Q131.5,16.5 131.5,16.2 Q131.6,16.0 131.6,15.6 Q131.6,13.7 131.0,12.8 Q130.4,12.0 128.1,12.0 Q126.2,12.0 125.3,12.8 Q124.3,13.6 124.3,15.9 Q124.3,18.5 125.2,19.2 Q126.1,20.0 128.4,20.0 Z M126.7,15.0 Q126.9,14.3 127.2,14.1 Q127.5,13.9 128.2,13.9 Q129.1,13.9 129.3,14.1 Q129.4,14.4 129.4,15.0 L126.7,15.0 Z"/><path d="M132.7,16.8 L136.7,16.8 L136.7,15.0 L132.7,15.0 L132.7,16.8 Z"/><path d="M138.2,20.0 L140.7,20.0 L140.7,15.5 Q141.1,14.6 141.5,14.4 Q141.8,14.2 142.4,14.2 Q142.7,14.2 142.9,14.2 Q143.0,14.2 143.3,14.3 L143.7,12.0 Q143.5,12.1 143.3,12.0 Q143.2,12.0 142.7,12.0 Q141.9,12.0 141.5,12.3 Q141.0,12.5 140.5,13.6 L140.4,13.6 L140.2,12.0 L138.2,12.0 L138.2,20.0 Z"/><path d="M149.0,20.0 Q149.9,20.0 150.5,19.8 Q151.0,19.7 151.9,19.1 L151.0,17.6 Q150.5,17.9 150.2,18.0 Q149.9,18.1 149.4,18.1 Q148.3,18.1 148.0,17.9 Q147.6,17.7 147.4,16.6 L152.0,16.6 Q152.1,16.5 152.1,16.2 Q152.2,16.0 152.2,15.6 Q152.2,13.7 151.6,12.8 Q151.0,12.0 148.7,12.0 Q146.8,12.0 145.9,12.8 Q144.9,13.6 144.9,15.9 Q144.9,18.5 145.8,19.2 Q146.7,20.0 149.0,20.0 Z M147.3,15.0 Q147.5,14.3 147.8,14.1 Q148.1,13.9 148.8,13.9 Q149.7,13.9 149.9,14.1 Q150.0,14.4 150.0,15.0 L147.3,15.0 Z"/><path d="M155.6,20.0 Q156.5,20.0 156.9,19.8 Q157.2,19.6 157.9,19.0 L158.0,19.0 L158.1,20.0 L160.2,20.0 L160.2,15.6 Q160.2,13.2 159.6,12.6 Q159.0,12.0 156.9,12.0 Q155.7,12.0 155.1,12.2 Q154.6,12.4 153.5,13.1 L154.4,14.7 Q155.2,14.2 155.5,14.1 Q155.8,14.0 156.5,14.0 Q157.3,14.0 157.5,14.2 Q157.6,14.4 157.7,15.0 Q154.6,15.3 153.9,15.8 Q153.3,16.2 153.3,17.8 Q153.3,18.9 153.7,19.5 Q154.1,20.0 155.6,20.0 Z M156.5,18.1 Q156.0,18.1 155.8,18.0 Q155.6,17.9 155.6,17.4 Q155.6,16.9 155.9,16.7 Q156.1,16.5 157.7,16.3 L157.7,17.5 Q157.3,17.9 157.1,18.0 Q157.0,18.1 156.5,18.1 Z"/><path d="M164.2,20.0 Q166.3,20.0 166.9,19.4 Q167.5,18.9 167.5,17.5 Q167.5,16.1 166.9,15.9 Q166.4,15.6 165.4,15.2 Q164.6,15.0 164.2,14.9 Q163.9,14.8 163.9,14.4 Q163.9,14.0 164.0,13.9 Q164.2,13.8 164.7,13.8 Q165.3,13.8 165.5,14.0 Q165.8,14.1 166.4,14.5 L167.5,13.0 Q166.8,12.5 166.4,12.3 Q165.9,12.0 164.6,12.0 Q162.8,12.0 162.2,12.5 Q161.6,13.0 161.6,14.5 Q161.6,15.7 162.1,16.0 Q162.6,16.3 163.6,16.6 Q164.4,16.9 164.8,17.0 Q165.2,17.2 165.2,17.6 Q165.2,18.0 165.0,18.1 Q164.9,18.2 164.2,18.2 Q163.6,18.2 163.3,18.0 Q163.0,17.9 162.2,17.4 L161.1,18.9 Q161.9,19.6 162.5,19.8 Q163.1,20.0 164.2,20.0 Z"/><path d="M172.5,20.0 Q174.5,20.0 175.4,19.2 Q176.4,18.5 176.4,16.0 Q176.4,13.5 175.4,12.8 Q174.5,12.0 172.5,12.0 Q170.4,12.0 169.5,12.8 Q168.5,13.5 168.5,16.0 Q168.5,18.5 169.5,19.2 Q170.4,20.0 172.5,20.0 Z M172.5,18.0 Q171.5,18.0 171.3,17.6 Q171.1,17.2 171.1,16.0 Q171.1,14.8 171.3,14.4 Q171.5,14.0 172.5,14.0 Q173.4,14.0 173.6,14.4 Q173.8,14.8 173.8,16.0 Q173.8,17.2 173.6,17.6 Q173.4,18.0 172.5,18.0 Z"/><path d="M178.2,20.0 L180.7,20.0 L180.7,14.8 Q181.2,14.4 181.3,14.3 Q181.5,14.1 182.1,14.1 Q182.7,14.1 182.8,14.3 Q183.0,14.4 183.0,15.5 L183.0,20.0 L185.5,20.0 L185.5,15.2 Q185.5,13.2 185.1,12.6 Q184.7,12.0 183.0,12.0 Q181.9,12.0 181.5,12.3 Q181.1,12.5 180.4,13.2 L180.4,13.2 L180.2,12.0 L178.2,12.0 L178.2,20.0 Z"/><path d="M187.4,20.0 L189.9,20.0 L189.9,12.0 L187.4,12.0 L187.4,20.0 Z M188.6,11.0 Q189.5,11.0 189.8,10.8 Q190.0,10.5 190.0,9.7 Q190.0,9.0 189.8,8.7 Q189.5,8.4 188.6,8.4 Q187.8,8.4 187.5,8.7 Q187.3,9.0 187.3,9.7 Q187.3,10.5 187.5,10.8 Q187.8,11.0 188.6,11.0 Z"/><path d="M192.6,20.0 L195.1,20.0 L195.1,14.8 Q195.6,14.4 195.7,14.3 Q195.9,14.1 196.5,14.1 Q197.1,14.1 197.2,14.3 Q197.4,14.4 197.4,15.5 L197.4,20.0 L199.9,20.0 L199.9,15.2 Q199.9,13.2 199.5,12.6 Q199.1,12.0 197.4,12.0 Q196.3,12.0 195.9,12.3 Q195.5,12.5 194.8,13.2 L194.8,13.2 L194.6,12.0 L192.6,12.0 L192.6,20.0 Z"/><path d="M204.7,23.6 Q207.4,23.6 208.3,23.0 Q209.2,22.4 209.2,20.2 Q209.2,18.7 208.6,18.4 Q208.1,18.1 206.1,18.1 L204.8,18.1 Q204.0,18.1 203.8,18.1 Q203.7,18.0 203.7,17.8 Q203.7,17.6 203.7,17.6 Q203.8,17.5 203.9,17.4 Q204.3,17.5 204.4,17.5 Q204.6,17.5 204.8,17.5 Q206.6,17.5 207.3,17.1 Q208.0,16.7 208.0,14.8 Q208.0,14.4 208.0,14.2 Q207.9,14.0 207.8,13.8 L209.0,13.8 L209.0,12.0 L206.1,12.0 Q205.8,12.1 205.5,12.0 Q205.3,12.0 204.8,12.0 Q203.1,12.0 202.3,12.5 Q201.5,13.0 201.5,14.8 Q201.5,15.7 201.8,16.1 Q202.0,16.4 202.6,16.8 L202.6,16.9 Q202.1,17.2 201.9,17.5 Q201.7,17.7 201.7,18.0 Q201.7,18.7 201.9,18.9 Q202.0,19.1 202.4,19.4 L202.4,19.5 Q201.7,19.8 201.5,20.2 Q201.3,20.5 201.3,21.4 Q201.3,23.0 202.1,23.3 Q202.8,23.6 204.7,23.6 Z M204.8,16.0 Q204.3,16.0 204.1,15.8 Q203.8,15.6 203.8,14.8 Q203.8,14.1 204.1,13.9 Q204.3,13.7 204.8,13.7 Q205.4,13.7 205.7,13.9 Q205.9,14.1 205.9,14.8 Q205.9,15.6 205.7,15.8 Q205.4,16.0 204.8,16.0 Z M205.0,22.0 Q204.0,22.0 203.7,21.8 Q203.4,21.6 203.4,20.9 Q203.4,20.5 203.4,20.3 Q203.5,20.2 203.7,19.9 Q204.0,20.0 204.1,20.0 Q204.3,20.0 204.9,20.0 L205.6,20.0 Q206.4,20.0 206.6,20.1 Q206.8,20.1 206.8,20.8 Q206.8,21.5 206.4,21.7 Q206.1,22.0 205.0,22.0 Z"/></g>
  
</svg>
