<svg xmlns="http://www.w3.org/2000/svg" viewBox="0 0 186 30" width="186" height="30" role="img" aria-label="other-legal-retrieval">
  <rect x="0.5" y="0.5" width="185" height="29" rx="5" fill="#e3e9f1"/>
  <rect x="0" y="0" width="4" height="30" rx="2" fill="#3a5a8c"/>
  <g fill="#2a2d34"><path d="M22.5,20.0 Q24.5,20.0 25.4,19.2 Q26.4,18.5 26.4,16.0 Q26.4,13.5 25.4,12.8 Q24.5,12.0 22.5,12.0 Q20.4,12.0 19.5,12.8 Q18.5,13.5 18.5,16.0 Q18.5,18.5 19.5,19.2 Q20.4,20.0 22.5,20.0 Z M22.5,18.0 Q21.5,18.0 21.3,17.6 Q21.1,17.2 21.1,16.0 Q21.1,14.8 21.3,14.4 Q21.5,14.0 22.5,14.0 Q23.4,14.0 23.6,14.4 Q23.8,14.8 23.8,16.0 Q23.8,17.2 23.6,17.6 Q23.4,18.0 22.5,18.0 Z"/><path d="M31.3,20.0 Q32.2,20.0 32.4,19.9 Q32.7,19.8 33.2,19.7 L32.7,17.9 Q32.6,18.0 32.4,18.0 Q32.3,18.1 32.0,18.1 Q31.4,18.1 31.2,17.9 Q31.0,17.7 31.0,16.9 L31.0,14.0 L32.9,14.0 L32.9,12.0 L31.0,12.0 L31.0,9.9 L28.9,9.9 L28.7,12.0 L27.4,12.1 L27.4,14.0 L28.5,14.0 L28.5,16.9 Q28.5,18.7 28.9,19.4 Q29.3,20.0 31.3,20.0 Z"/><path d="M34.4,20.0 L36.9,20.0 L36.9,14.8 Q37.4,14.4 37.5,14.3 Q37.7,14.1 38.3,14.1 Q38.9,14.1 39.0,14.3 Q39.2,14.4 39.2,15.5 L39.2,20.0 L41.7,20.0 L41.7,15.2 Q41.7,13.2 41.3,12.6 Q40.9,12.0 39.2,12.0 Q38.1,12.0 37.7,12.3 Q37.3,12.5 36.8,13.1 L36.9,11.7 L36.9,9.0 L34.4,9.0 L34.4,20.0 Z"/><path d="M47.2,20.0 Q48.1,20.0 48.7,19.8 Q49.2,19.7 50.1,19.1 L49.2,17.6 Q48.7,17.9 48.4,18.0 Q48.1,18.1 47.6,18.1 Q46.5,18.1 46.2,17.9 Q45.8,17.7 45.6,16.6 L50.2,16.6 Q50.3,16.5 50.3,16.2 Q50.3,16.0 50.3,15.6 Q50.3,13.7 49.8,12.8 Q49.2,12.0 46.9,12.0 Q45.0,12.0 44.1,12.8 Q43.1,13.6 43.1,15.9 Q43.1,18.5 44.0,19.2 Q44.9,20.0 47.2,20.0 Z M45.5,15.0 Q45.7,14.3 46.0,14.1 Q46.3,13.9 47.0,13.9 Q47.9,13.9 48.1,14.1 Q48.2,14.4 48.2,15.0 L45.5,15.0 Z"/><path d="M51.8,20.0 L54.3,20.0 L54.3,15.5 Q54.7,14.6 55.1,14.4 Q55.4,14.2 56.0,14.2 Q56.3,14.2 56.5,14.2 Q56.6,14.2 56.9,14.3 L57.3,12.0 Q57.1,12.1 56.9,12.0 Q56.8,12.0 56.3,12.0 Q55.5,12.0 55.1,12.3 Q54.6,12.5 54.0,13.6 L54.0,13.6 L53.8,12.0 L51.8,12.0 L51.8,20.0 Z"/><path d="M58.7,16.8 L62.7,16.8 L62.7,15.0 L58.7,15.0 L58.7,16.8 Z"/><path d="M66.5,20.0 Q67.0,20.0 67.2,20.0 Q67.4,19.9 67.7,19.8 L67.4,18.0 Q67.3,18.0 67.2,18.0 Q67.2,18.0 67.1,18.0 Q66.9,18.0 66.8,17.9 Q66.7,17.8 66.7,17.3 L66.7,8.6 L64.2,8.6 L64.2,17.2 Q64.2,18.9 64.5,19.4 Q64.8,20.0 66.5,20.0 Z"/><path d="M73.0,20.0 Q73.9,20.0 74.5,19.8 Q75.0,19.7 75.9,19.1 L75.0,17.6 Q74.5,17.9 74.2,18.0 Q73.9,18.1 73.4,18.1 Q72.3,18.1 72.0,17.9 Q71.6,17.7 71.4,16.6 L76.0,16.6 Q76.1,16.5 76.1,16.2 Q76.2,16.0 76.2,15.6 Q76.2,13.7 75.6,12.8 Q75.0,12.0 72.7,12.0 Q70.8,12.0 69.9,12.8 Q68.9,13.6 68.9,15.9 Q68.9,18.5 69.8,19.2 Q70.7,20.0 73.0,20.0 Z M71.3,15.0 Q71.5,14.3 71.8,14.1 Q72.1,13.9 72.8,13.9 Q73.7,13.9 73.9,14.1 Q74.0,14.4 74.0,15.0 L71.3,15.0 Z"/><path d="M80.5,23.6 Q83.2,23.6 84.1,23.0 Q85.0,22.4 85.0,20.2 Q85.0,18.7 84.4,18.4 Q83.9,18.1 81.9,18.1 L80.6,18.1 Q79.8,18.1 79.6,18.1 Q79.5,18.0 79.5,17.8 Q79.5,17.6 79.5,17.6 Q79.6,17.5 79.7,17.4 Q80.1,17.5 80.2,17.5 Q80.4,17.5 80.6,17.5 Q82.4,17.5 83.1,17.1 Q83.8,16.7 83.8,14.8 Q83.8,14.4 83.8,14.2 Q83.7,14.0 83.6,13.8 L84.9,13.8 L84.9,12.0 L81.9,12.0 Q81.6,12.1 81.3,12.0 Q81.1,12.0 80.6,12.0 Q78.9,12.0 78.1,12.5 Q77.3,13.0 77.3,14.8 Q77.3,15.7 77.6,16.1 Q77.8,16.4 78.4,16.8 L78.4,16.9 Q77.9,17.2 77.7,17.5 Q77.5,17.7 77.5,18.0 Q77.5,18.7 77.7,18.9 Q77.8,19.1 78.2,19.4 L78.2,19.5 Q77.5,19.8 77.3,20.2 Q77.1,20.5 77.1,21.4 Q77.1,23.0 77.9,23.3 Q78.6,23.6 80.5,23.6 Z M80.6,16.0 Q80.1,16.0 79.9,15.8 Q79.6,15.6 79.6,14.8 Q79.6,14.1 79.9,13.9 Q80.1,13.7 80.6,13.7 Q81.2,13.7 81.5,13.9 Q81.7,14.1 81.7,14.8 Q81.7,15.6 81.5,15.8 Q81.2,16.0 80.6,16.0 Z M80.9,22.0 Q79.8,22.0 79.5,21.8 Q79.2,21.6 79.2,20.9 Q79.2,20.5 79.2,20.3 Q79.3,20.2 79.5,19.9 Q79.8,20.0 79.9,20.0 Q80.1,20.0 80.7,20.0 L81.4,20.0 Q82.2,20.0 82.4,20.1 Q82.6,20.1 82.6,20.8 Q82.6,21.5 82.2,21.7 Q81.9,22.0 80.9,22.0 Z"/><path d="M88.8,20.0 Q89.7,20.0 90.1,19.8 Q90.4,19.6 91.1,19.0 L91.2,19.0 L91.3,20.0 L93.4,20.0 L93.4,15.6 Q93.4,13.2 92.8,12.6 Q92.2,12.0 90.1,12.0 Q88.9,12.0 88.3,12.2 Q87.8,12.4 86.7,13.1 L87.6,14.7 Q88.4,14.2 88.7,14.1 Q89.0,14.0 89.7,14.0 Q90.5,14.0 90.7,14.2 Q90.8,14.4 90.9,15.0 Q87.8,15.3 87.1,15.8 Q86.5,16.2 86.5,17.8 Q86.5,18.9 86.9,19.5 Q87.3,20.0 88.8,20.0 Z M89.7,18.1 Q89.2,18.1 89.0,18.0 Q88.8,17.9 88.8,17.4 Q88.8,16.9 89.1,16.7 Q89.3,16.5 90.9,16.3 L90.9,17.5 Q90.5,17.9 90.3,18.0 Q90.2,18.1 89.7,18.1 Z"/><path d="M97.3,20.0 Q97.8,20.0 98.0,20.0 Q98.2,19.9 98.5,19.8 L98.2,18.0 Q98.1,18.0 98.0,18.0 Q98.0,18.0 97.9,18.0 Q97.7,18.0 97.6,17.9 Q97.5,17.8 97.5,17.3 L97.5,8.6 L95.0,8.6 L95.0,17.2 Q95.0,18.9 95.3,19.4 Q95.6,20.0 97.3,20.0 Z"/><path d="M99.9,16.8 L103.9,16.8 L103.9,15.0 L99.9,15.0 L99.9,16.8 Z"/><path d="M105.4,20.0 L107.9,20.0 L107.9,15.5 Q108.3,14.6 108.7,14.4 Q109.0,14.2 109.6,14.2 Q109.9,14.2 110.1,14.2 Q110.2,14.2 110.5,14.3 L110.9,12.0 Q110.7,12.1 110.5,12.0 Q110.4,12.0 109.9,12.0 Q109.1,12.0 108.7,12.3 Q108.2,12.5 107.7,13.6 L107.6,13.6 L107.4,12.0 L105.4,12.0 L105.4,20.0 Z"/><path d="M116.2,20.0 Q117.1,20.0 117.7,19.8 Q118.2,19.7 119.1,19.1 L118.2,17.6 Q117.7,17.9 117.4,18.0 Q117.1,18.1 116.6,18.1 Q115.5,18.1 115.2,17.9 Q114.8,17.7 114.6,16.6 L119.2,16.6 Q119.3,16.5 119.3,16.2 Q119.4,16.0 119.4,15.6 Q119.4,13.7 118.8,12.8 Q118.2,12.0 115.9,12.0 Q114.0,12.0 113.1,12.8 Q112.1,13.6 112.1,15.9 Q112.1,18.5 113.0,19.2 Q113.9,20.0 116.2,20.0 Z M114.5,15.0 Q114.7,14.3 115.0,14.1 Q115.3,13.9 116.0,13.9 Q116.9,13.9 117.1,14.1 Q117.2,14.4 117.2,15.0 L114.5,15.0 Z"/><path d="M123.9,20.0 Q124.8,20.0 125.0,19.9 Q125.3,19.8 125.8,19.7 L125.3,17.9 Q125.2,18.0 125.0,18.0 Q124.9,18.1 124.6,18.1 Q124.0,18.1 123.8,17.9 Q123.6,17.7 123.6,16.9 L123.6,14.0 L125.5,14.0 L125.5,12.0 L123.6,12.0 L123.6,9.9 L121.6,9.9 L121.3,12.0 L120.1,12.1 L120.1,14.0 L121.1,14.0 L121.1,16.9 Q121.1,18.7 121.5,19.4 Q121.9,20.0 123.9,20.0 Z"/><path d="M127.0,20.0 L129.5,20.0 L129.5,15.5 Q129.9,14.6 130.3,14.4 Q130.6,14.2 131.2,14.2 Q131.5,14.2 131.7,14.2 Q131.8,14.2 132.1,14.3 L132.5,12.0 Q132.3,12.1 132.1,12.0 Q132.0,12.0 131.5,12.0 Q130.7,12.0 130.3,12.3 Q129.8,12.5 129.3,13.6 L129.2,13.6 L129.0,12.0 L127.0,12.0 L127.0,20.0 Z"/><path d="M134.2,20.0 L136.7,20.0 L136.7,12.0 L134.2,12.0 L134.2,20.0 Z M135.5,11.0 Q136.3,11.0 136.6,10.8 Q136.8,10.5 136.8,9.7 Q136.8,9.0 136.6,8.7 Q136.3,8.4 135.5,8.4 Q134.6,8.4 134.3,8.7 Q134.1,9.0 134.1,9.7 Q134.1,10.5 134.3,10.8 Q134.6,11.0 135.5,11.0 Z"/><path d="M143.0,20.0 Q143.9,20.0 144.5,19.8 Q145.0,19.7 145.9,19.1 L145.0,17.6 Q144.5,17.9 144.2,18.0 Q143.9,18.1 143.4,18.1 Q142.3,18.1 142.0,17.9 Q141.6,17.7 141.4,16.6 L146.0,16.6 Q146.1,16.5 146.1,16.2 Q146.2,16.0 146.2,15.6 Q146.2,13.7 145.6,12.8 Q145.0,12.0 142.7,12.0 Q140.8,12.0 139.9,12.8 Q138.9,13.6 138.9,15.9 Q138.9,18.5 139.8,19.2 Q140.7,20.0 143.0,20.0 Z M141.3,15.0 Q141.5,14.3 141.8,14.1 Q142.1,13.9 142.8,13.9 Q143.7,13.9 143.9,14.1 Q144.0,14.4 144.0,15.0 L141.3,15.0 Z"/><path d="M149.4,20.0 L152.3,20.0 L154.9,12.0 L152.5,12.0 L151.5,15.7 Q151.3,16.5 151.2,16.9 Q151.1,17.3 150.9,18.2 L150.9,18.2 Q150.6,17.3 150.6,16.9 Q150.5,16.5 150.3,15.7 L149.3,12.0 L146.8,12.0 L149.4,20.0 Z"/><path d="M158.8,20.0 Q159.7,20.0 160.1,19.8 Q160.4,19.6 161.1,19.0 L161.2,19.0 L161.3,20.0 L163.4,20.0 L163.4,15.6 Q163.4,13.2 162.8,12.6 Q162.2,12.0 160.1,12.0 Q158.9,12.0 158.3,12.2 Q157.8,12.4 156.7,13.1 L157.6,14.7 Q158.4,14.2 158.7,14.1 Q159.0,14.0 159.7,14.0 Q160.5,14.0 160.7,14.2 Q160.8,14.4 160.9,15.0 Q157.8,15.3 157.1,15.8 Q156.5,16.2 156.5,17.8 Q156.5,18.9 156.9,19.5 Q157.3,20.0 158.8,20.0 Z M159.7,18.1 Q159.2,18.1 159.0,18.0 Q158.8,17.9 158.8,17.4 Q158.8,16.9 159.1,16.7 Q159.3,16.5 160.9,16.3 L160.9,17.5 Q160.5,17.9 160.3,18.0 Q160.2,18.1 159.7,18.1 Z"/><path d="M167.3,20.0 Q167.8,20.0 168.0,20.0 Q168.2,19.9 168.5,19.8 L168.2,18.0 Q168.1,18.0 168.0,18.0 Q168.0,18.0 167.9,18.0 Q167.7,18.0 167.6,17.9 Q167.5,17.8 167.5,17.3 L167.5,8.6 L165.0,8.6 L165.0,17.2 Q165.0,18.9 165.3,19.4 Q165.6,20.0 167.3,20.0 Z"/></g>
  
</svg>
