<svg xmlns="http://www.w3.org/2000/svg" viewBox="0 0 285 30" width="285" height="30" role="img" aria-label="judgment-document-generation">
  <rect x="0.5" y="0.5" width="284" height="29" rx="5" fill="#e7efdd"/>
  <rect x="0" y="0" width="4" height="30" rx="2" fill="#5a7d3f"/>
  <g fill="#2a2d34"><path d="M18.6,23.0 Q20.8,23.0 21.2,22.2 Q21.5,21.5 21.5,19.7 L21.5,12.0 L19.0,12.0 L19.0,19.8 Q19.0,20.7 18.9,20.9 Q18.8,21.1 18.2,21.1 Q18.0,21.1 17.9,21.0 Q17.8,21.0 17.6,21.0 L17.2,22.8 Q17.5,22.9 17.7,23.0 Q17.9,23.0 18.6,23.0 Z M20.3,11.0 Q21.1,11.0 21.4,10.8 Q21.7,10.5 21.7,9.7 Q21.7,9.0 21.4,8.7 Q21.1,8.4 20.3,8.4 Q19.5,8.4 19.2,8.7 Q18.9,9.0 18.9,9.7 Q18.9,10.5 19.2,10.8 Q19.5,11.0 20.3,11.0 Z"/><path d="M26.6,20.0 Q27.7,20.0 28.1,19.8 Q28.4,19.5 29.1,18.7 L29.2,18.7 L29.3,20.0 L31.4,20.0 L31.4,12.0 L28.9,12.0 L28.9,17.1 Q28.4,17.7 28.3,17.8 Q28.1,17.9 27.5,17.9 Q26.9,17.9 26.8,17.7 Q26.6,17.6 26.6,16.5 L26.6,12.0 L24.1,12.0 L24.1,16.8 Q24.1,18.8 24.5,19.4 Q24.9,20.0 26.6,20.0 Z"/><path d="M36.3,20.0 Q37.0,20.0 37.4,19.8 Q37.8,19.6 38.4,19.0 L38.4,19.0 L38.6,20.0 L40.6,20.0 L40.6,9.0 L38.1,9.0 L38.1,11.6 L38.2,12.8 Q37.7,12.3 37.4,12.2 Q37.2,12.0 36.3,12.0 Q34.6,12.0 33.8,12.8 Q33.0,13.6 33.0,16.1 Q33.0,18.4 33.6,19.2 Q34.3,20.0 36.3,20.0 Z M36.9,18.0 Q36.1,18.0 35.8,17.7 Q35.6,17.4 35.6,16.0 Q35.6,14.6 35.9,14.3 Q36.2,14.0 36.9,14.0 Q37.3,14.0 37.5,14.1 Q37.7,14.2 38.1,14.5 L38.1,17.3 Q37.8,17.8 37.6,17.9 Q37.4,18.0 36.9,18.0 Z"/><path d="M45.5,23.6 Q48.2,23.6 49.1,23.0 Q50.0,22.4 50.0,20.2 Q50.0,18.7 49.4,18.4 Q48.9,18.1 46.9,18.1 L45.6,18.1 Q44.8,18.1 44.6,18.1 Q44.5,18.0 44.5,17.8 Q44.5,17.6 44.5,17.6 Q44.6,17.5 44.7,17.4 Q45.1,17.5 45.2,17.5 Q45.4,17.5 45.6,17.5 Q47.4,17.5 48.1,17.1 Q48.8,16.7 48.8,14.8 Q48.8,14.4 48.8,14.2 Q48.7,14.0 48.6,13.8 L49.8,13.8 L49.8,12.0 L46.9,12.0 Q46.6,12.1 46.3,12.0 Q46.1,12.0 45.6,12.0 Q43.9,12.0 43.1,12.5 Q42.3,13.0 42.3,14.8 Q42.3,15.7 42.6,16.1 Q42.8,16.4 43.4,16.8 L43.4,16.9 Q42.9,17.2 42.7,17.5 Q42.5,17.7 42.5,18.0 Q42.5,18.7 42.7,18.9 Q42.8,19.1 43.2,19.4 L43.2,19.5 Q42.5,19.8 42.3,20.2 Q42.1,20.5 42.1,21.4 Q42.1,23.0 42.9,23.3 Q43.6,23.6 45.5,23.6 Z M45.6,16.0 Q45.1,16.0 44.9,15.8 Q44.6,15.6 44.6,14.8 Q44.6,14.1 44.9,13.9 Q45.1,13.7 45.6,13.7 Q46.2,13.7 46.5,13.9 Q46.7,14.1 46.7,14.8 Q46.7,15.6 46.5,15.8 Q46.2,16.0 45.6,16.0 Z M45.8,22.0 Q44.8,22.0 44.5,21.8 Q44.2,21.6 44.2,20.9 Q44.2,20.5 44.2,20.3 Q44.3,20.2 44.5,19.9 Q44.8,20.0 44.9,20.0 Q45.1,20.0 45.7,20.0 L46.4,20.0 Q47.2,20.0 47.4,20.1 Q47.6,20.1 47.6,20.8 Q47.6,21.5 47.2,21.7 Q46.9,22.0 45.8,22.0 Z"/><path d="M51.8,20.0 L54.3,20.0 L54.3,14.8 Q54.8,14.4 55.0,14.2 Q55.2,14.1 55.5,14.1 Q56.2,14.1 56.3,14.3 Q56.5,14.4 56.5,15.5 L56.5,20.0 L59.0,20.0 L59.0,14.8 Q59.5,14.4 59.7,14.2 Q59.9,14.1 60.3,14.1 Q60.9,14.1 61.0,14.3 Q61.2,14.4 61.2,15.5 L61.2,20.0 L63.6,20.0 L63.6,15.2 Q63.6,13.2 63.3,12.6 Q62.9,12.0 61.2,12.0 Q60.1,12.0 59.7,12.3 Q59.3,12.6 58.7,13.3 Q58.3,12.5 57.9,12.2 Q57.6,12.0 56.5,12.0 Q55.4,12.0 55.1,12.3 Q54.7,12.5 54.0,13.2 L54.0,13.2 L53.8,12.0 L51.8,12.0 L51.8,20.0 Z"/><path d="M69.6,20.0 Q70.5,20.0 71.1,19.8 Q71.6,19.7 72.5,19.1 L71.6,17.6 Q71.1,17.9 70.8,18.0 Q70.5,18.1 70.0,18.1 Q68.9,18.1 68.6,17.9 Q68.2,17.7 68.0,16.6 L72.6,16.6 Q72.7,16.5 72.7,16.2 Q72.8,16.0 72.8,15.6 Q72.8,13.7 72.2,12.8 Q71.6,12.0 69.3,12.0 Q67.4,12.0 66.5,12.8 Q65.5,13.6 65.5,15.9 Q65.5,18.5 66.4,19.2 Q67.3,20.0 69.6,20.0 Z M67.9,15.0 Q68.1,14.3 68.4,14.1 Q68.7,13.9 69.4,13.9 Q70.3,13.9 70.5,14.1 Q70.6,14.4 70.6,15.0 L67.9,15.0 Z"/><path d="M74.2,20.0 L76.7,20.0 L76.7,14.8 Q77.2,14.4 77.3,14.3 Q77.5,14.1 78.1,14.1 Q78.7,14.1 78.8,14.3 Q79.0,14.4 79.0,15.5 L79.0,20.0 L81.5,20.0 L81.5,15.2 Q81.5,13.2 81.1,12.6 Q80.7,12.0 79.0,12.0 Q77.9,12.0 77.5,12.3 Q77.1,12.5 76.5,13.2 L76.4,13.2 L76.2,12.0 L74.2,12.0 L74.2,20.0 Z"/><path d="M86.5,20.0 Q87.4,20.0 87.6,19.9 Q87.9,19.8 88.4,19.7 L87.9,17.9 Q87.8,18.0 87.6,18.0 Q87.5,18.1 87.2,18.1 Q86.6,18.1 86.4,17.9 Q86.2,17.7 86.2,16.9 L86.2,14.0 L88.1,14.0 L88.1,12.0 L86.2,12.0 L86.2,9.9 L84.2,9.9 L83.9,12.0 L82.7,12.1 L82.7,14.0 L83.7,14.0 L83.7,16.9 Q83.7,18.7 84.1,19.4 Q84.5,20.0 86.5,20.0 Z"/><path d="M89.3,16.8 L93.3,16.8 L93.3,15.0 L89.3,15.0 L89.3,16.8 Z"/><path d="M97.7,20.0 Q98.4,20.0 98.8,19.8 Q99.2,19.6 99.8,19.0 L99.8,19.0 L100.0,20.0 L102.0,20.0 L102.0,9.0 L99.5,9.0 L99.5,11.6 L99.6,12.8 Q99.1,12.3 98.8,12.2 Q98.6,12.0 97.7,12.0 Q96.0,12.0 95.2,12.8 Q94.4,13.6 94.4,16.1 Q94.4,18.4 95.0,19.2 Q95.7,20.0 97.7,20.0 Z M98.3,18.0 Q97.5,18.0 97.2,17.7 Q97.0,17.4 97.0,16.0 Q97.0,14.6 97.3,14.3 Q97.6,14.0 98.3,14.0 Q98.7,14.0 98.9,14.1 Q99.1,14.2 99.5,14.5 L99.5,17.3 Q99.2,17.8 99.0,17.9 Q98.8,18.0 98.3,18.0 Z"/><path d="M107.5,20.0 Q109.5,20.0 110.4,19.2 Q111.4,18.5 111.4,16.0 Q111.4,13.5 110.4,12.8 Q109.5,12.0 107.5,12.0 Q105.4,12.0 104.5,12.8 Q103.5,13.5 103.5,16.0 Q103.5,18.5 104.5,19.2 Q105.4,20.0 107.5,20.0 Z M107.5,18.0 Q106.5,18.0 106.3,17.6 Q106.1,17.2 106.1,16.0 Q106.1,14.8 106.3,14.4 Q106.5,14.0 107.5,14.0 Q108.4,14.0 108.6,14.4 Q108.8,14.8 108.8,16.0 Q108.8,17.2 108.6,17.6 Q108.4,18.0 107.5,18.0 Z"/><path d="M116.7,20.0 Q117.6,20.0 118.1,19.9 Q118.6,19.8 119.4,19.1 L118.4,17.5 Q118.0,17.8 117.7,17.9 Q117.5,18.0 117.0,18.0 Q116.0,18.0 115.7,17.6 Q115.3,17.2 115.3,16.0 Q115.3,14.8 115.6,14.4 Q116.0,14.0 117.1,14.0 Q117.4,14.0 117.6,14.1 Q117.7,14.1 118.1,14.4 L119.3,12.9 Q118.7,12.3 118.3,12.2 Q117.9,12.0 116.9,12.0 Q114.7,12.0 113.7,12.8 Q112.7,13.5 112.7,16.0 Q112.7,18.5 113.6,19.2 Q114.5,20.0 116.7,20.0 Z"/><path d="M123.8,20.0 Q124.9,20.0 125.3,19.8 Q125.6,19.5 126.3,18.7 L126.4,18.7 L126.5,20.0 L128.6,20.0 L128.6,12.0 L126.1,12.0 L126.1,17.1 Q125.7,17.7 125.5,17.8 Q125.3,17.9 124.7,17.9 Q124.1,17.9 124.0,17.7 Q123.8,17.6 123.8,16.5 L123.8,12.0 L121.3,12.0 L121.3,16.8 Q121.3,18.8 121.7,19.4 Q122.1,20.0 123.8,20.0 Z"/><path d="M130.6,20.0 L133.1,20.0 L133.1,14.8 Q133.6,14.4 133.8,14.2 Q134.0,14.1 134.4,14.1 Q135.0,14.1 135.1,14.3 Q135.3,14.4 135.3,15.5 L135.3,20.0 L137.8,20.0 L137.8,14.8 Q138.3,14.4 138.5,14.2 Q138.7,14.1 139.1,14.1 Q139.7,14.1 139.8,14.3 Q140.0,14.4 140.0,15.5 L140.0,20.0 L142.4,20.0 L142.4,15.2 Q142.4,13.2 142.1,12.6 Q141.7,12.0 140.0,12.0 Q138.9,12.0 138.5,12.3 Q138.1,12.6 137.5,13.3 Q137.1,12.5 136.7,12.2 Q136.4,12.0 135.3,12.0 Q134.2,12.0 133.9,12.3 Q133.5,12.5 132.9,13.2 L132.8,13.2 L132.6,12.0 L130.6,12.0 L130.6,20.0 Z"/><path d="M148.4,20.0 Q149.3,20.0 149.9,19.8 Q150.4,19.7 151.3,19.1 L150.4,17.6 Q149.9,17.9 149.6,18.0 Q149.3,18.1 148.8,18.1 Q147.7,18.1 147.4,17.9 Q147.0,17.7 146.8,16.6 L151.4,16.6 Q151.5,16.5 151.5,16.2 Q151.6,16.0 151.6,15.6 Q151.6,13.7 151.0,12.8 Q150.4,12.0 148.1,12.0 Q146.2,12.0 145.3,12.8 Q144.3,13.6 144.3,15.9 Q144.3,18.5 145.2,19.2 Q146.1,20.0 148.4,20.0 Z M146.7,15.0 Q146.9,14.3 147.2,14.1 Q147.5,13.9 148.2,13.9 Q149.1,13.9 149.3,14.1 Q149.4,14.4 149.4,15.0 L146.7,15.0 Z"/><path d="M153.0,20.0 L155.5,20.0 L155.5,14.8 Q156.0,14.4 156.1,14.3 Q156.3,14.1 156.9,14.1 Q157.5,14.1 157.6,14.3 Q157.8,14.4 157.8,15.5 L157.8,20.0 L160.3,20.0 L160.3,15.2 Q160.3,13.2 159.9,12.6 Q159.5,12.0 157.8,12.0 Q156.7,12.0 156.3,12.3 Q155.9,12.5 155.2,13.2 L155.2,13.2 L155.0,12.0 L153.0,12.0 L153.0,20.0 Z"/><path d="M165.3,20.0 Q166.2,20.0 166.4,19.9 Q166.7,19.8 167.2,19.7 L166.7,17.9 Q166.6,18.0 166.4,18.0 Q166.3,18.1 166.0,18.1 Q165.4,18.1 165.2,17.9 Q165.0,17.7 165.0,16.9 L165.0,14.0 L166.9,14.0 L166.9,12.0 L165.0,12.0 L165.0,9.9 L162.9,9.9 L162.7,12.0 L161.4,12.1 L161.4,14.0 L162.5,14.0 L162.5,16.9 Q162.5,18.7 162.9,19.4 Q163.3,20.0 165.3,20.0 Z"/><path d="M168.1,16.8 L172.1,16.8 L172.1,15.0 L168.1,15.0 L168.1,16.8 Z"/><path d="M176.5,23.6 Q179.2,23.6 180.1,23.0 Q181.0,22.4 181.0,20.2 Q181.0,18.7 180.4,18.4 Q179.9,18.1 177.9,18.1 L176.6,18.1 Q175.8,18.1 175.6,18.1 Q175.5,18.0 175.5,17.8 Q175.5,17.6 175.5,17.6 Q175.6,17.5 175.7,17.4 Q176.1,17.5 176.2,17.5 Q176.4,17.5 176.6,17.5 Q178.4,17.5 179.1,17.1 Q179.8,16.7 179.8,14.8 Q179.8,14.4 179.8,14.2 Q179.7,14.0 179.6,13.8 L180.8,13.8 L180.8,12.0 L177.9,12.0 Q177.6,12.1 177.3,12.0 Q177.1,12.0 176.6,12.0 Q174.9,12.0 174.1,12.5 Q173.3,13.0 173.3,14.8 Q173.3,15.7 173.6,16.1 Q173.8,16.4 174.4,16.8 L174.4,16.9 Q173.9,17.2 173.7,17.5 Q173.5,17.7 173.5,18.0 Q173.5,18.7 173.7,18.9 Q173.8,19.1 174.2,19.4 L174.2,19.5 Q173.5,19.8 173.3,20.2 Q173.1,20.5 173.1,21.4 Q173.1,23.0 173.9,23.3 Q174.6,23.6 176.5,23.6 Z M176.6,16.0 Q176.1,16.0 175.9,15.8 Q175.6,15.6 175.6,14.8 Q175.6,14.1 175.9,13.9 Q176.1,13.7 176.6,13.7 Q177.2,13.7 177.5,13.9 Q177.7,14.1 177.7,14.8 Q177.7,15.6 177.5,15.8 Q177.2,16.0 176.6,16.0 Z M176.8,22.0 Q175.8,22.0 175.5,21.8 Q175.2,21.6 175.2,20.9 Q175.2,20.5 175.2,20.3 Q175.3,20.2 175.5,19.9 Q175.8,20.0 175.9,20.0 Q176.1,20.0 176.7,20.0 L177.4,20.0 Q178.2,20.0 178.4,20.1 Q178.6,20.1 178.6,20.8 Q178.6,21.5 178.2,21.7 Q177.9,22.0 176.8,22.0 Z"/><path d="M186.4,20.0 Q187.3,20.0 187.9,19.8 Q188.4,19.7 189.3,19.1 L188.4,17.6 Q187.9,17.9 187.6,18.0 Q187.3,18.1 186.8,18.1 Q185.7,18.1 185.4,17.9 Q185.0,17.7 184.8,16.6 L189.4,16.6 Q189.5,16.5 189.5,16.2 Q189.5,16.0 189.5,15.6 Q189.5,13.7 189.0,12.8 Q188.4,12.0 186.1,12.0 Q184.2,12.0 183.3,12.8 Q182.3,13.6 182.3,15.9 Q182.3,18.5 183.2,19.2 Q184.1,20.0 186.4,20.0 Z M184.7,15.0 Q184.9,14.3 185.2,14.1 Q185.5,13.9 186.2,13.9 Q187.1,13.9 187.3,14.1 Q187.4,14.4 187.4,15.0 L184.7,15.0 Z"/><path d="M191.0,20.0 L193.5,20.0 L193.5,14.8 Q194.0,14.4 194.1,14.3 Q194.3,14.1 194.9,14.1 Q195.5,14.1 195.6,14.3 Q195.8,14.4 195.8,15.5 L195.8,20.0 L198.3,20.0 L198.3,15.2 Q198.3,13.2 197.9,12.6 Q197.5,12.0 195.8,12.0 Q194.7,12.0 194.3,12.3 Q193.9,12.5 193.2,13.2 L193.2,13.2 L193.0,12.0 L191.0,12.0 L191.0,20.0 Z"/><path d="M203.8,20.0 Q204.7,20.0 205.3,19.8 Q205.8,19.7 206.7,19.1 L205.8,17.6 Q205.3,17.9 205.0,18.0 Q204.7,18.1 204.2,18.1 Q203.1,18.1 202.8,17.9 Q202.4,17.7 202.2,16.6 L206.8,16.6 Q206.9,16.5 206.9,16.2 Q206.9,16.0 206.9,15.6 Q206.9,13.7 206.4,12.8 Q205.8,12.0 203.5,12.0 Q201.6,12.0 200.7,12.8 Q199.7,13.6 199.7,15.9 Q199.7,18.5 200.6,19.2 Q201.5,20.0 203.8,20.0 Z M202.1,15.0 Q202.3,14.3 202.6,14.1 Q202.9,13.9 203.6,13.9 Q204.5,13.9 204.7,14.1 Q204.8,14.4 204.8,15.0 L202.1,15.0 Z"/><path d="M208.4,20.0 L210.9,20.0 L210.9,15.5 Q211.3,14.6 211.7,14.4 Q212.0,14.2 212.6,14.2 Q212.9,14.2 213.1,14.2 Q213.2,14.2 213.5,14.3 L213.9,12.0 Q213.7,12.1 213.5,12.0 Q213.4,12.0 212.9,12.0 Q212.1,12.0 211.7,12.3 Q211.2,12.5 210.6,13.6 L210.6,13.6 L210.4,12.0 L208.4,12.0 L208.4,20.0 Z"/><path d="M217.6,20.0 Q218.5,20.0 218.9,19.8 Q219.2,19.6 219.9,19.0 L220.0,19.0 L220.1,20.0 L222.2,20.0 L222.2,15.6 Q222.2,13.2 221.6,12.6 Q221.0,12.0 218.9,12.0 Q217.7,12.0 217.1,12.2 Q216.6,12.4 215.5,13.1 L216.4,14.7 Q217.2,14.2 217.5,14.1 Q217.8,14.0 218.5,14.0 Q219.3,14.0 219.5,14.2 Q219.6,14.4 219.7,15.0 Q216.6,15.3 215.9,15.8 Q215.3,16.2 215.3,17.8 Q215.3,18.9 215.7,19.5 Q216.1,20.0 217.6,20.0 Z M218.5,18.1 Q218.0,18.1 217.8,18.0 Q217.6,17.9 217.6,17.4 Q217.6,16.9 217.9,16.7 Q218.1,16.5 219.7,16.3 L219.7,17.5 Q219.3,17.9 219.1,18.0 Q219.0,18.1 218.5,18.1 Z"/><path d="M226.9,20.0 Q227.8,20.0 228.0,19.9 Q228.3,19.8 228.8,19.7 L228.3,17.9 Q228.2,18.0 228.0,18.0 Q227.9,18.1 227.6,18.1 Q227.0,18.1 226.8,17.9 Q226.6,17.7 226.6,16.9 L226.6,14.0 L228.5,14.0 L228.5,12.0 L226.6,12.0 L226.6,9.9 L224.5,9.9 L224.3,12.0 L223.0,12.1 L223.0,14.0 L224.1,14.0 L224.1,16.9 Q224.1,18.7 224.5,19.4 Q224.9,20.0 226.9,20.0 Z"/><path d="M230.0,20.0 L232.5,20.0 L232.5,12.0 L230.0,12.0 L230.0,20.0 Z M231.2,11.0 Q232.1,11.0 232.4,10.8 Q232.6,10.5 232.6,9.7 Q232.6,9.0 232.4,8.7 Q232.1,8.4 231.2,8.4 Q230.4,8.4 230.1,8.7 Q229.9,9.0 229.9,9.7 Q229.9,10.5 230.1,10.8 Q230.4,11.0 231.2,11.0 Z"/><path d="M238.7,20.0 Q240.7,20.0 241.6,19.2 Q242.6,18.5 242.6,16.0 Q242.6,13.5 241.6,12.8 Q240.7,12.0 238.7,12.0 Q236.6,12.0 235.7,12.8 Q234.7,13.5 234.7,16.0 Q234.7,18.5 235.7,19.2 Q236.6,20.0 238.7,20.0 Z M238.7,18.0 Q237.7,18.0 237.5,17.6 Q237.3,17.2 237.3,16.0 Q237.3,14.8 237.5,14.4 Q237.7,14.0 238.7,14.0 Q239.6,14.0 239.8,14.4 Q240.0,14.8 240.0,16.0 Q240.0,17.2 239.8,17.6 Q239.6,18.0 238.7,18.0 Z"/><path d="M244.4,20.0 L246.9,20.0 L246.9,14.8 Q247.4,14.4 247.5,14.3 Q247.7,14.1 248.3,14.1 Q248.9,14.1 249.0,14.3 Q249.2,14.4 249.2,15.5 L249.2,20.0 L251.7,20.0 L251.7,15.2 Q251.7,13.2 251.3,12.6 Q250.9,12.0 249.2,12.0 Q248.1,12.0 247.7,12.3 Q247.3,12.5 246.6,13.2 L246.6,13.2 L246.4,12.0 L244.4,12.0 L244.4,20.0 Z"/></g>
  <path d="M269 9.5 L271.475 15 L269 20.5 L266.525 15 Z" fill="#5a7d3f"/><path d="M263.5 15 L269 12.525 L274.5 15 L269 17.475 Z" fill="#5a7d3f"/>
</svg>
