<svg xmlns="http://www.w3.org/2000/svg" viewBox="0 0 328 30" width="328" height="30" role="img" aria-label="trial-scheduling-and-deadline-monitoring">
  <rect x="0.5" y="0.5" width="327" height="29" rx="5" fill="#e7efdd"/>
  <rect x="0" y="0" width="4" height="30" rx="2" fill="#5a7d3f"/>
  <g fill="#2a2d34"><path d="M22.1,20.0 Q23.0,20.0 23.2,19.9 Q23.5,19.8 24.0,19.7 L23.5,17.9 Q23.4,18.0 23.2,18.0 Q23.1,18.1 22.8,18.1 Q22.2,18.1 22.0,17.9 Q21.8,17.7 21.8,16.9 L21.8,14.0 L23.7,14.0 L23.7,12.0 L21.8,12.0 L21.8,9.9 L19.8,9.9 L19.5,12.0 L18.2,12.1 L18.2,14.0 L19.3,14.0 L19.3,16.9 Q19.3,18.7 19.7,19.4 Q20.1,20.0 22.1,20.0 Z"/><path d="M25.2,20.0 L27.7,20.0 L27.7,15.5 Q28.1,14.6 28.5,14.4 Q28.8,14.2 29.4,14.2 Q29.7,14.2 29.9,14.2 Q30.0,14.2 30.3,14.3 L30.7,12.0 Q30.5,12.1 30.3,12.0 Q30.2,12.0 29.7,12.0 Q28.9,12.0 28.5,12.3 Q28.0,12.5 27.4,13.6 L27.4,13.6 L27.2,12.0 L25.2,12.0 L25.2,20.0 Z"/><path d="M32.4,20.0 L34.9,20.0 L34.9,12.0 L32.4,12.0 L32.4,20.0 Z M33.6,11.0 Q34.5,11.0 34.8,10.8 Q35.0,10.5 35.0,9.7 Q35.0,9.0 34.8,8.7 Q34.5,8.4 33.6,8.4 Q32.8,8.4 32.5,8.7 Q32.3,9.0 32.3,9.7 Q32.3,10.5 32.5,10.8 Q32.8,11.0 33.6,11.0 Z"/><path d="M39.6,20.0 Q40.5,20.0 40.9,19.8 Q41.2,19.6 41.9,19.0 L42.0,19.0 L42.1,20.0 L44.2,20.0 L44.2,15.6 Q44.2,13.2 43.6,12.6 Q43.0,12.0 40.9,12.0 Q39.7,12.0 39.1,12.2 Q38.6,12.4 37.5,13.1 L38.4,14.7 Q39.2,14.2 39.5,14.1 Q39.8,14.0 40.5,14.0 Q41.3,14.0 41.5,14.2 Q41.6,14.4 41.7,15.0 Q38.6,15.3 37.9,15.8 Q37.3,16.2 37.3,17.8 Q37.3,18.9 37.7,19.5 Q38.1,20.0 39.6,20.0 Z M40.5,18.1 Q40.0,18.1 39.8,18.0 Q39.6,17.9 39.6,17.4 Q39.6,16.9 39.9,16.7 Q40.1,16.5 41.7,16.3 L41.7,17.5 Q41.3,17.9 41.1,18.0 Q41.0,18.1 40.5,18.1 Z"/><path d="M48.1,20.0 Q48.6,20.0 48.8,20.0 Q49.0,19.9 49.3,19.8 L49.0,18.0 Q48.9,18.0 48.8,18.0 Q48.8,18.0 48.7,18.0 Q48.5,18.0 48.4,17.9 Q48.3,17.8 48.3,17.3 L48.3,8.6 L45.8,8.6 L45.8,17.2 Q45.8,18.9 46.1,19.4 Q46.4,20.0 48.1,20.0 Z"/><path d="M50.7,16.8 L54.7,16.8 L54.7,15.0 L50.7,15.0 L50.7,16.8 Z"/><path d="M58.6,20.0 Q60.7,20.0 61.3,19.4 Q61.9,18.9 61.9,17.5 Q61.9,16.1 61.3,15.9 Q60.8,15.6 59.8,15.2 Q59.0,15.0 58.6,14.9 Q58.3,14.8 58.3,14.4 Q58.3,14.0 58.4,13.9 Q58.6,13.8 59.1,13.8 Q59.7,13.8 59.9,14.0 Q60.2,14.1 60.8,14.5 L61.9,13.0 Q61.2,12.5 60.8,12.3 Q60.3,12.0 59.0,12.0 Q57.2,12.0 56.6,12.5 Q56.0,13.0 56.0,14.5 Q56.0,15.7 56.5,16.0 Q57.0,16.3 58.0,16.6 Q58.8,16.9 59.2,17.0 Q59.6,17.2 59.6,17.6 Q59.6,18.0 59.4,18.1 Q59.3,18.2 58.6,18.2 Q58.0,18.2 57.7,18.0 Q57.4,17.9 56.6,17.4 L55.5,18.9 Q56.3,19.6 56.9,19.8 Q57.5,20.0 58.6,20.0 Z"/><path d="M66.9,20.0 Q67.8,20.0 68.3,19.9 Q68.8,19.8 69.6,19.1 L68.6,17.5 Q68.2,17.8 67.9,17.9 Q67.7,18.0 67.2,18.0 Q66.2,18.0 65.9,17.6 Q65.5,17.2 65.5,16.0 Q65.5,14.8 65.8,14.4 Q66.2,14.0 67.3,14.0 Q67.6,14.0 67.8,14.1 Q67.9,14.1 68.3,14.4 L69.5,12.9 Q68.9,12.3 68.5,12.2 Q68.1,12.0 67.1,12.0 Q64.9,12.0 63.9,12.8 Q62.9,13.5 62.9,16.0 Q62.9,18.5 63.8,19.2 Q64.7,20.0 66.9,20.0 Z"/><path d="M71.6,20.0 L74.1,20.0 L74.1,14.8 Q74.6,14.4 74.7,14.3 Q74.9,14.1 75.5,14.1 Q76.1,14.1 76.2,14.3 Q76.4,14.4 76.4,15.5 L76.4,20.0 L78.9,20.0 L78.9,15.2 Q78.9,13.2 78.5,12.6 Q78.1,12.0 76.4,12.0 Q75.3,12.0 74.9,12.3 Q74.5,12.5 74.0,13.1 L74.1,11.7 L74.1,9.0 L71.6,9.0 L71.6,20.0 Z"/><path d="M84.4,20.0 Q85.3,20.0 85.9,19.8 Q86.4,19.7 87.3,19.1 L86.4,17.6 Q85.9,17.9 85.6,18.0 Q85.3,18.1 84.8,18.1 Q83.7,18.1 83.4,17.9 Q83.0,17.7 82.8,16.6 L87.4,16.6 Q87.5,16.5 87.5,16.2 Q87.6,16.0 87.6,15.6 Q87.6,13.7 87.0,12.8 Q86.4,12.0 84.1,12.0 Q82.2,12.0 81.3,12.8 Q80.3,13.6 80.3,15.9 Q80.3,18.5 81.2,19.2 Q82.1,20.0 84.4,20.0 Z M82.7,15.0 Q82.9,14.3 83.2,14.1 Q83.5,13.9 84.2,13.9 Q85.1,13.9 85.3,14.1 Q85.4,14.4 85.4,15.0 L82.7,15.0 Z"/><path d="M91.9,20.0 Q92.6,20.0 93.0,19.8 Q93.4,19.6 94.0,19.0 L94.0,19.0 L94.2,20.0 L96.2,20.0 L96.2,9.0 L93.7,9.0 L93.7,11.6 L93.8,12.8 Q93.3,12.3 93.0,12.2 Q92.8,12.0 91.9,12.0 Q90.2,12.0 89.4,12.8 Q88.6,13.6 88.6,16.1 Q88.6,18.4 89.2,19.2 Q89.9,20.0 91.9,20.0 Z M92.5,18.0 Q91.7,18.0 91.4,17.7 Q91.2,17.4 91.2,16.0 Q91.2,14.6 91.5,14.3 Q91.8,14.0 92.5,14.0 Q92.9,14.0 93.1,14.1 Q93.3,14.2 93.7,14.5 L93.7,17.3 Q93.4,17.8 93.2,17.9 Q93.0,18.0 92.5,18.0 Z"/><path d="M100.6,20.0 Q101.7,20.0 102.1,19.8 Q102.4,19.5 103.1,18.7 L103.2,18.7 L103.3,20.0 L105.4,20.0 L105.4,12.0 L102.9,12.0 L102.9,17.1 Q102.5,17.7 102.3,17.8 Q102.1,17.9 101.5,17.9 Q100.9,17.9 100.8,17.7 Q100.6,17.6 100.6,16.5 L100.6,12.0 L98.1,12.0 L98.1,16.8 Q98.1,18.8 98.5,19.4 Q98.9,20.0 100.6,20.0 Z"/><path d="M109.7,20.0 Q110.2,20.0 110.4,20.0 Q110.6,19.9 110.9,19.8 L110.6,18.0 Q110.5,18.0 110.4,18.0 Q110.4,18.0 110.3,18.0 Q110.1,18.0 110.0,17.9 Q109.9,17.8 109.9,17.3 L109.9,8.6 L107.4,8.6 L107.4,17.2 Q107.4,18.9 107.7,19.4 Q108.0,20.0 109.7,20.0 Z"/><path d="M112.6,20.0 L115.1,20.0 L115.1,12.0 L112.6,12.0 L112.6,20.0 Z M113.9,11.0 Q114.7,11.0 115.0,10.8 Q115.2,10.5 115.2,9.7 Q115.2,9.0 115.0,8.7 Q114.7,8.4 113.9,8.4 Q113.0,8.4 112.7,8.7 Q112.5,9.0 112.5,9.7 Q112.5,10.5 112.7,10.8 Q113.0,11.0 113.9,11.0 Z"/><path d="M117.8,20.0 L120.3,20.0 L120.3,14.8 Q120.8,14.4 120.9,14.3 Q121.1,14.1 121.7,14.1 Q122.3,14.1 122.4,14.3 Q122.6,14.4 122.6,15.5 L122.6,20.0 L125.1,20.0 L125.1,15.2 Q125.1,13.2 124.7,12.6 Q124.3,12.0 122.6,12.0 Q121.5,12.0 121.1,12.3 Q120.7,12.5 120.1,13.2 L120.0,13.2 L119.8,12.0 L117.8,12.0 L117.8,20.0 Z"/><path d="M129.9,23.6 Q132.6,23.6 133.5,23.0 Q134.4,22.4 134.4,20.2 Q134.4,18.7 133.8,18.4 Q133.3,18.1 131.3,18.1 L130.0,18.1 Q129.2,18.1 129.0,18.1 Q128.9,18.0 128.9,17.8 Q128.9,17.6 128.9,17.6 Q129.0,17.5 129.1,17.4 Q129.5,17.5 129.6,17.5 Q129.8,17.5 130.0,17.5 Q131.8,17.5 132.5,17.1 Q133.2,16.7 133.2,14.8 Q133.2,14.4 133.2,14.2 Q133.1,14.0 133.0,13.8 L134.3,13.8 L134.3,12.0 L131.3,12.0 Q131.0,12.1 130.7,12.0 Q130.5,12.0 130.0,12.0 Q128.3,12.0 127.5,12.5 Q126.7,13.0 126.7,14.8 Q126.7,15.7 127.0,16.1 Q127.2,16.4 127.8,16.8 L127.8,16.9 Q127.3,17.2 127.1,17.5 Q126.9,17.7 126.9,18.0 Q126.9,18.7 127.1,18.9 Q127.2,19.1 127.6,19.4 L127.6,19.5 Q126.9,19.8 126.7,20.2 Q126.5,20.5 126.5,21.4 Q126.5,23.0 127.3,23.3 Q128.0,23.6 129.9,23.6 Z M130.0,16.0 Q129.5,16.0 129.3,15.8 Q129.0,15.6 129.0,14.8 Q129.0,14.1 129.3,13.9 Q129.5,13.7 130.0,13.7 Q130.6,13.7 130.9,13.9 Q131.1,14.1 131.1,14.8 Q131.1,15.6 130.9,15.8 Q130.6,16.0 130.0,16.0 Z M130.3,22.0 Q129.2,22.0 128.9,21.8 Q128.6,21.6 128.6,20.9 Q128.6,20.5 128.6,20.3 Q128.7,20.2 128.9,19.9 Q129.2,20.0 129.3,20.0 Q129.5,20.0 130.1,20.0 L130.8,20.0 Q131.6,20.0 131.8,20.1 Q132.0,20.1 132.0,20.8 Q132.0,21.5 131.6,21.7 Q131.3,22.0 130.3,22.0 Z"/><path d="M135.9,16.8 L139.9,16.8 L139.9,15.0 L135.9,15.0 L135.9,16.8 Z"/><path d="M143.4,20.0 Q144.3,20.0 144.7,19.8 Q145.0,19.6 145.7,19.0 L145.8,19.0 L145.9,20.0 L148.0,20.0 L148.0,15.6 Q148.0,13.2 147.4,12.6 Q146.8,12.0 144.7,12.0 Q143.5,12.0 142.9,12.2 Q142.4,12.4 141.3,13.1 L142.2,14.7 Q143.0,14.2 143.3,14.1 Q143.6,14.0 144.3,14.0 Q145.1,14.0 145.3,14.2 Q145.4,14.4 145.5,15.0 Q142.4,15.3 141.7,15.8 Q141.1,16.2 141.1,17.8 Q141.1,18.9 141.5,19.5 Q141.9,20.0 143.4,20.0 Z M144.3,18.1 Q143.8,18.1 143.6,18.0 Q143.4,17.9 143.4,17.4 Q143.4,16.9 143.7,16.7 Q143.9,16.5 145.5,16.3 L145.5,17.5 Q145.1,17.9 144.9,18.0 Q144.8,18.1 144.3,18.1 Z"/><path d="M149.6,20.0 L152.1,20.0 L152.1,14.8 Q152.6,14.4 152.7,14.3 Q152.9,14.1 153.5,14.1 Q154.1,14.1 154.2,14.3 Q154.4,14.4 154.4,15.5 L154.4,20.0 L156.9,20.0 L156.9,15.2 Q156.9,13.2 156.5,12.6 Q156.1,12.0 154.4,12.0 Q153.3,12.0 152.9,12.3 Q152.5,12.5 151.8,13.2 L151.8,13.2 L151.6,12.0 L149.6,12.0 L149.6,20.0 Z"/><path d="M161.7,20.0 Q162.4,20.0 162.8,19.8 Q163.2,19.6 163.8,19.0 L163.8,19.0 L164.0,20.0 L166.0,20.0 L166.0,9.0 L163.5,9.0 L163.5,11.6 L163.6,12.8 Q163.1,12.3 162.8,12.2 Q162.6,12.0 161.7,12.0 Q160.0,12.0 159.2,12.8 Q158.4,13.6 158.4,16.1 Q158.4,18.4 159.0,19.2 Q159.7,20.0 161.7,20.0 Z M162.3,18.0 Q161.5,18.0 161.2,17.7 Q161.0,17.4 161.0,16.0 Q161.0,14.6 161.3,14.3 Q161.6,14.0 162.3,14.0 Q162.7,14.0 162.9,14.1 Q163.1,14.2 163.5,14.5 L163.5,17.3 Q163.2,17.8 163.0,17.9 Q162.8,18.0 162.3,18.0 Z"/><path d="M167.7,16.8 L171.7,16.8 L171.7,15.0 L167.7,15.0 L167.7,16.8 Z"/><path d="M176.1,20.0 Q176.8,20.0 177.2,19.8 Q177.6,19.6 178.2,19.0 L178.2,19.0 L178.4,20.0 L180.4,20.0 L180.4,9.0 L177.9,9.0 L177.9,11.6 L178.0,12.8 Q177.5,12.3 177.2,12.2 Q177.0,12.0 176.1,12.0 Q174.4,12.0 173.6,12.8 Q172.8,13.6 172.8,16.1 Q172.8,18.4 173.4,19.2 Q174.1,20.0 176.1,20.0 Z M176.7,18.0 Q175.9,18.0 175.6,17.7 Q175.4,17.4 175.4,16.0 Q175.4,14.6 175.7,14.3 Q176.0,14.0 176.7,14.0 Q177.1,14.0 177.3,14.1 Q177.5,14.2 177.9,14.5 L177.9,17.3 Q177.6,17.8 177.4,17.9 Q177.2,18.0 176.7,18.0 Z"/><path d="M186.0,20.0 Q186.9,20.0 187.5,19.8 Q188.0,19.7 188.9,19.1 L188.0,17.6 Q187.5,17.9 187.2,18.0 Q186.9,18.1 186.4,18.1 Q185.3,18.1 185.0,17.9 Q184.6,17.7 184.4,16.6 L189.0,16.6 Q189.1,16.5 189.1,16.2 Q189.1,16.0 189.1,15.6 Q189.1,13.7 188.6,12.8 Q188.0,12.0 185.7,12.0 Q183.8,12.0 182.9,12.8 Q181.9,13.6 181.9,15.9 Q181.9,18.5 182.8,19.2 Q183.7,20.0 186.0,20.0 Z M184.3,15.0 Q184.5,14.3 184.8,14.1 Q185.1,13.9 185.8,13.9 Q186.7,13.9 186.9,14.1 Q187.0,14.4 187.0,15.0 L184.3,15.0 Z"/><path d="M192.6,20.0 Q193.5,20.0 193.9,19.8 Q194.2,19.6 194.9,19.0 L195.0,19.0 L195.1,20.0 L197.2,20.0 L197.2,15.6 Q197.2,13.2 196.6,12.6 Q196.0,12.0 193.9,12.0 Q192.7,12.0 192.1,12.2 Q191.6,12.4 190.5,13.1 L191.4,14.7 Q192.2,14.2 192.5,14.1 Q192.8,14.0 193.5,14.0 Q194.3,14.0 194.5,14.2 Q194.6,14.4 194.7,15.0 Q191.6,15.3 190.9,15.8 Q190.3,16.2 190.3,17.8 Q190.3,18.9 190.7,19.5 Q191.1,20.0 192.6,20.0 Z M193.5,18.1 Q193.0,18.1 192.8,18.0 Q192.6,17.9 192.6,17.4 Q192.6,16.9 192.9,16.7 Q193.1,16.5 194.7,16.3 L194.7,17.5 Q194.3,17.9 194.1,18.0 Q194.0,18.1 193.5,18.1 Z"/><path d="M201.7,20.0 Q202.4,20.0 202.8,19.8 Q203.2,19.6 203.8,19.0 L203.8,19.0 L204.0,20.0 L206.0,20.0 L206.0,9.0 L203.5,9.0 L203.5,11.6 L203.6,12.8 Q203.1,12.3 202.8,12.2 Q202.6,12.0 201.7,12.0 Q200.0,12.0 199.2,12.8 Q198.4,13.6 198.4,16.1 Q198.4,18.4 199.0,19.2 Q199.7,20.0 201.7,20.0 Z M202.3,18.0 Q201.5,18.0 201.2,17.7 Q201.0,17.4 201.0,16.0 Q201.0,14.6 201.3,14.3 Q201.6,14.0 202.3,14.0 Q202.7,14.0 202.9,14.1 Q203.1,14.2 203.5,14.5 L203.5,17.3 Q203.2,17.8 203.0,17.9 Q202.8,18.0 202.3,18.0 Z"/><path d="M210.3,20.0 Q210.8,20.0 211.0,20.0 Q211.2,19.9 211.5,19.8 L211.2,18.0 Q211.1,18.0 211.0,18.0 Q211.0,18.0 210.9,18.0 Q210.7,18.0 210.6,17.9 Q210.5,17.8 210.5,17.3 L210.5,8.6 L208.0,8.6 L208.0,17.2 Q208.0,18.9 208.3,19.4 Q208.6,20.0 210.3,20.0 Z"/><path d="M213.2,20.0 L215.7,20.0 L215.7,12.0 L213.2,12.0 L213.2,20.0 Z M214.4,11.0 Q215.3,11.0 215.6,10.8 Q215.8,10.5 215.8,9.7 Q215.8,9.0 215.6,8.7 Q215.3,8.4 214.4,8.4 Q213.6,8.4 213.3,8.7 Q213.1,9.0 213.1,9.7 Q213.1,10.5 213.3,10.8 Q213.6,11.0 214.4,11.0 Z"/><path d="M218.4,20.0 L220.9,20.0 L220.9,14.8 Q221.4,14.4 221.5,14.3 Q221.7,14.1 222.3,14.1 Q222.9,14.1 223.0,14.3 Q223.2,14.4 223.2,15.5 L223.2,20.0 L225.7,20.0 L225.7,15.2 Q225.7,13.2 225.3,12.6 Q224.9,12.0 223.2,12.0 Q222.1,12.0 221.7,12.3 Q221.3,12.5 220.6,13.2 L220.6,13.2 L220.4,12.0 L218.4,12.0 L218.4,20.0 Z"/><path d="M231.2,20.0 Q232.1,20.0 232.7,19.8 Q233.2,19.7 234.1,19.1 L233.2,17.6 Q232.7,17.9 232.4,18.0 Q232.1,18.1 231.6,18.1 Q230.5,18.1 230.2,17.9 Q229.8,17.7 229.6,16.6 L234.2,16.6 Q234.3,16.5 234.3,16.2 Q234.3,16.0 234.3,15.6 Q234.3,13.7 233.8,12.8 Q233.2,12.0 230.9,12.0 Q229.0,12.0 228.1,12.8 Q227.1,13.6 227.1,15.9 Q227.1,18.5 228.0,19.2 Q228.9,20.0 231.2,20.0 Z M229.5,15.0 Q229.7,14.3 230.0,14.1 Q230.3,13.9 231.0,13.9 Q231.9,13.9 232.1,14.1 Q232.2,14.4 232.2,15.0 L229.5,15.0 Z"/><path d="M235.5,16.8 L239.5,16.8 L239.5,15.0 L235.5,15.0 L235.5,16.8 Z"/><path d="M241.0,20.0 L243.5,20.0 L243.5,14.8 Q244.0,14.4 244.2,14.2 Q244.4,14.1 244.7,14.1 Q245.4,14.1 245.5,14.3 Q245.7,14.4 245.7,15.5 L245.7,20.0 L248.2,20.0 L248.2,14.8 Q248.7,14.4 248.9,14.2 Q249.1,14.1 249.5,14.1 Q250.1,14.1 250.2,14.3 Q250.4,14.4 250.4,15.5 L250.4,20.0 L252.8,20.0 L252.8,15.2 Q252.8,13.2 252.5,12.6 Q252.1,12.0 250.4,12.0 Q249.3,12.0 248.9,12.3 Q248.5,12.6 247.9,13.3 Q247.5,12.5 247.1,12.2 Q246.8,12.0 245.7,12.0 Q244.6,12.0 244.3,12.3 Q243.9,12.5 243.2,13.2 L243.2,13.2 L243.0,12.0 L241.0,12.0 L241.0,20.0 Z"/><path d="M258.7,20.0 Q260.7,20.0 261.6,19.2 Q262.6,18.5 262.6,16.0 Q262.6,13.5 261.6,12.8 Q260.7,12.0 258.7,12.0 Q256.6,12.0 255.7,12.8 Q254.7,13.5 254.7,16.0 Q254.7,18.5 255.7,19.2 Q256.6,20.0 258.7,20.0 Z M258.7,18.0 Q257.7,18.0 257.5,17.6 Q257.3,17.2 257.3,16.0 Q257.3,14.8 257.5,14.4 Q257.7,14.0 258.7,14.0 Q259.6,14.0 259.8,14.4 Q260.0,14.8 260.0,16.0 Q260.0,17.2 259.8,17.6 Q259.6,18.0 258.7,18.0 Z"/><path d="M264.4,20.0 L266.9,20.0 L266.9,14.8 Q267.4,14.4 267.5,14.3 Q267.7,14.1 268.3,14.1 Q268.9,14.1 269.0,14.3 Q269.2,14.4 269.2,15.5 L269.2,20.0 L271.7,20.0 L271.7,15.2 Q271.7,13.2 271.3,12.6 Q270.9,12.0 269.2,12.0 Q268.1,12.0 267.7,12.3 Q267.3,12.5 266.6,13.2 L266.6,13.2 L266.4,12.0 L264.4,12.0 L264.4,20.0 Z"/><path d="M273.6,20.0 L276.1,20.0 L276.1,12.0 L273.6,12.0 L273.6,20.0 Z M274.8,11.0 Q275.7,11.0 276.0,10.8 Q276.2,10.5 276.2,9.7 Q276.2,9.0 276.0,8.7 Q275.7,8.4 274.8,8.4 Q274.0,8.4 273.7,8.7 Q273.5,9.0 273.5,9.7 Q273.5,10.5 273.7,10.8 Q274.0,11.0 274.8,11.0 Z"/><path d="M281.9,20.0 Q282.8,20.0 283.0,19.9 Q283.3,19.8 283.8,19.7 L283.3,17.9 Q283.2,18.0 283.0,18.0 Q282.9,18.1 282.6,18.1 Q282.0,18.1 281.8,17.9 Q281.6,17.7 281.6,16.9 L281.6,14.0 L283.5,14.0 L283.5,12.0 L281.6,12.0 L281.6,9.9 L279.5,9.9 L279.3,12.0 L278.0,12.1 L278.0,14.0 L279.1,14.0 L279.1,16.9 Q279.1,18.7 279.5,19.4 Q279.9,20.0 281.9,20.0 Z"/><path d="M288.5,20.0 Q290.5,20.0 291.4,19.2 Q292.4,18.5 292.4,16.0 Q292.4,13.5 291.4,12.8 Q290.5,12.0 288.5,12.0 Q286.4,12.0 285.5,12.8 Q284.5,13.5 284.5,16.0 Q284.5,18.5 285.5,19.2 Q286.4,20.0 288.5,20.0 Z M288.5,18.0 Q287.5,18.0 287.3,17.6 Q287.1,17.2 287.1,16.0 Q287.1,14.8 287.3,14.4 Q287.5,14.0 288.5,14.0 Q289.4,14.0 289.6,14.4 Q289.8,14.8 289.8,16.0 Q289.8,17.2 289.6,17.6 Q289.4,18.0 288.5,18.0 Z"/><path d="M294.2,20.0 L296.7,20.0 L296.7,15.5 Q297.1,14.6 297.5,14.4 Q297.8,14.2 298.4,14.2 Q298.7,14.2 298.9,14.2 Q299.0,14.2 299.3,14.3 L299.7,12.0 Q299.5,12.1 299.3,12.0 Q299.2,12.0 298.7,12.0 Q297.9,12.0 297.5,12.3 Q297.0,12.5 296.4,13.6 L296.4,13.6 L296.2,12.0 L294.2,12.0 L294.2,20.0 Z"/><path d="M301.4,20.0 L303.9,20.0 L303.9,12.0 L301.4,12.0 L301.4,20.0 Z M302.6,11.0 Q303.5,11.0 303.8,10.8 Q304.0,10.5 304.0,9.7 Q304.0,9.0 303.8,8.7 Q303.5,8.4 302.6,8.4 Q301.8,8.4 301.5,8.7 Q301.3,9.0 301.3,9.7 Q301.3,10.5 301.5,10.8 Q301.8,11.0 302.6,11.0 Z"/><path d="M306.6,20.0 L309.1,20.0 L309.1,14.8 Q309.6,14.4 309.7,14.3 Q309.9,14.1 310.5,14.1 Q311.1,14.1 311.2,14.3 Q311.4,14.4 311.4,15.5 L311.4,20.0 L313.9,20.0 L313.9,15.2 Q313.9,13.2 313.5,12.6 Q313.1,12.0 311.4,12.0 Q310.3,12.0 309.9,12.3 Q309.5,12.5 308.8,13.2 L308.8,13.2 L308.6,12.0 L306.6,12.0 L306.6,20.0 Z"/><path d="M318.7,23.6 Q321.4,23.6 322.3,23.0 Q323.2,22.4 323.2,20.2 Q323.2,18.7 322.6,18.4 Q322.1,18.1 320.1,18.1 L318.8,18.1 Q318.0,18.1 317.8,18.1 Q317.7,18.0 317.7,17.8 Q317.7,17.6 317.7,17.6 Q317.8,17.5 317.9,17.4 Q318.3,17.5 318.4,17.5 Q318.6,17.5 318.8,17.5 Q320.6,17.5 321.3,17.1 Q322.0,16.7 322.0,14.8 Q322.0,14.4 322.0,14.2 Q321.9,14.0 321.8,13.8 L323.0,13.8 L323.0,12.0 L320.1,12.0 Q319.8,12.1 319.5,12.0 Q319.3,12.0 318.8,12.0 Q317.1,12.0 316.3,12.5 Q315.5,13.0 315.5,14.8 Q315.5,15.7 315.8,16.1 Q316.0,16.4 316.6,16.8 L316.6,16.9 Q316.1,17.2 315.9,17.5 Q315.7,17.7 315.7,18.0 Q315.7,18.7 315.9,18.9 Q316.0,19.1 316.4,19.4 L316.4,19.5 Q315.7,19.8 315.5,20.2 Q315.3,20.5 315.3,21.4 Q315.3,23.0 316.1,23.3 Q316.8,23.6 318.7,23.6 Z M318.8,16.0 Q318.3,16.0 318.1,15.8 Q317.8,15.6 317.8,14.8 Q317.8,14.1 318.1,13.9 Q318.3,13.7 318.8,13.7 Q319.4,13.7 319.7,13.9 Q319.9,14.1 319.9,14.8 Q319.9,15.6 319.7,15.8 Q319.4,16.0 318.8,16.0 Z M319.0,22.0 Q318.0,22.0 317.7,21.8 Q317.4,21.6 317.4,20.9 Q317.4,20.5 317.4,20.3 Q317.5,20.2 317.7,19.9 Q318.0,20.0 318.1,20.0 Q318.3,20.0 318.9,20.0 L319.6,20.0 Q320.4,20.0 320.6,20.1 Q320.8,20.1 320.8,20.8 Q320.8,21.5 320.4,21.7 Q320.1,22.0 319.0,22.0 Z"/></g>
  
</svg>
