<svg xmlns="http://www.w3.org/2000/svg" viewBox="0 0 235 30" width="235" height="30" role="img" aria-label="billing-and-litigation-budget">
  <rect x="0.5" y="0.5" width="234" height="29" rx="5" fill="#e7efdd"/>
  <rect x="0" y="0" width="4" height="30" rx="2" fill="#5a7d3f"/>
  <g fill="#2a2d34"><path d="M23.3,20.0 Q25.0,20.0 25.8,19.2 Q26.6,18.4 26.6,15.9 Q26.6,13.6 26.0,12.8 Q25.4,12.0 23.5,12.0 Q22.8,12.0 22.4,12.2 Q22.0,12.3 21.4,12.9 L21.5,11.7 L21.5,9.0 L19.0,9.0 L19.0,20.0 L21.0,20.0 L21.1,19.0 L21.2,19.0 Q21.8,19.6 22.2,19.8 Q22.6,20.0 23.3,20.0 Z M22.7,18.0 Q22.3,18.0 22.1,17.9 Q21.9,17.9 21.5,17.5 L21.5,14.7 Q21.9,14.2 22.1,14.1 Q22.3,14.0 22.8,14.0 Q23.6,14.0 23.8,14.3 Q24.0,14.6 24.0,15.9 Q24.0,17.4 23.7,17.7 Q23.4,18.0 22.7,18.0 Z"/><path d="M28.2,20.0 L30.7,20.0 L30.7,12.0 L28.2,12.0 L28.2,20.0 Z M29.4,11.0 Q30.3,11.0 30.6,10.8 Q30.8,10.5 30.8,9.7 Q30.8,9.0 30.6,8.7 Q30.3,8.4 29.4,8.4 Q28.6,8.4 28.3,8.7 Q28.1,9.0 28.1,9.7 Q28.1,10.5 28.3,10.8 Q28.6,11.0 29.4,11.0 Z"/><path d="M35.7,20.0 Q36.2,20.0 36.4,20.0 Q36.6,19.9 36.9,19.8 L36.6,18.0 Q36.5,18.0 36.4,18.0 Q36.4,18.0 36.3,18.0 Q36.1,18.0 36.0,17.9 Q35.9,17.8 35.9,17.3 L35.9,8.6 L33.4,8.6 L33.4,17.2 Q33.4,18.9 33.7,19.4 Q34.0,20.0 35.7,20.0 Z"/><path d="M40.9,20.0 Q41.4,20.0 41.6,20.0 Q41.8,19.9 42.1,19.8 L41.8,18.0 Q41.7,18.0 41.6,18.0 Q41.6,18.0 41.5,18.0 Q41.3,18.0 41.2,17.9 Q41.1,17.8 41.1,17.3 L41.1,8.6 L38.6,8.6 L38.6,17.2 Q38.6,18.9 38.9,19.4 Q39.2,20.0 40.9,20.0 Z"/><path d="M43.8,20.0 L46.3,20.0 L46.3,12.0 L43.8,12.0 L43.8,20.0 Z M45.1,11.0 Q45.9,11.0 46.2,10.8 Q46.4,10.5 46.4,9.7 Q46.4,9.0 46.2,8.7 Q45.9,8.4 45.1,8.4 Q44.2,8.4 43.9,8.7 Q43.7,9.0 43.7,9.7 Q43.7,10.5 43.9,10.8 Q44.2,11.0 45.1,11.0 Z"/><path d="M49.0,20.0 L51.5,20.0 L51.5,14.8 Q52.0,14.4 52.1,14.3 Q52.3,14.1 52.9,14.1 Q53.5,14.1 53.6,14.3 Q53.8,14.4 53.8,15.5 L53.8,20.0 L56.3,20.0 L56.3,15.2 Q56.3,13.2 55.9,12.6 Q55.5,12.0 53.8,12.0 Q52.7,12.0 52.3,12.3 Q51.9,12.5 51.3,13.2 L51.2,13.2 L51.0,12.0 L49.0,12.0 L49.0,20.0 Z"/><path d="M61.1,23.6 Q63.8,23.6 64.7,23.0 Q65.6,22.4 65.6,20.2 Q65.6,18.7 65.0,18.4 Q64.5,18.1 62.5,18.1 L61.2,18.1 Q60.4,18.1 60.2,18.1 Q60.1,18.0 60.1,17.8 Q60.1,17.6 60.1,17.6 Q60.2,17.5 60.3,17.4 Q60.7,17.5 60.8,17.5 Q61.0,17.5 61.2,17.5 Q63.0,17.5 63.7,17.1 Q64.4,16.7 64.4,14.8 Q64.4,14.4 64.4,14.2 Q64.3,14.0 64.2,13.8 L65.5,13.8 L65.5,12.0 L62.5,12.0 Q62.2,12.1 61.9,12.0 Q61.7,12.0 61.2,12.0 Q59.5,12.0 58.7,12.5 Q57.9,13.0 57.9,14.8 Q57.9,15.7 58.2,16.1 Q58.4,16.4 59.0,16.8 L59.0,16.9 Q58.5,17.2 58.3,17.5 Q58.1,17.7 58.1,18.0 Q58.1,18.7 58.3,18.9 Q58.4,19.1 58.8,19.4 L58.8,19.5 Q58.1,19.8 57.9,20.2 Q57.7,20.5 57.7,21.4 Q57.7,23.0 58.5,23.3 Q59.2,23.6 61.1,23.6 Z M61.2,16.0 Q60.7,16.0 60.5,15.8 Q60.2,15.6 60.2,14.8 Q60.2,14.1 60.5,13.9 Q60.7,13.7 61.2,13.7 Q61.8,13.7 62.1,13.9 Q62.3,14.1 62.3,14.8 Q62.3,15.6 62.1,15.8 Q61.8,16.0 61.2,16.0 Z M61.5,22.0 Q60.4,22.0 60.1,21.8 Q59.8,21.6 59.8,20.9 Q59.8,20.5 59.8,20.3 Q59.9,20.2 60.1,19.9 Q60.4,20.0 60.5,20.0 Q60.7,20.0 61.3,20.0 L62.0,20.0 Q62.8,20.0 63.0,20.1 Q63.2,20.1 63.2,20.8 Q63.2,21.5 62.8,21.7 Q62.5,22.0 61.5,22.0 Z"/><path d="M67.1,16.8 L71.1,16.8 L71.1,15.0 L67.1,15.0 L67.1,16.8 Z"/><path d="M74.6,20.0 Q75.5,20.0 75.9,19.8 Q76.2,19.6 76.9,19.0 L77.0,19.0 L77.1,20.0 L79.2,20.0 L79.2,15.6 Q79.2,13.2 78.6,12.6 Q78.0,12.0 75.9,12.0 Q74.7,12.0 74.1,12.2 Q73.6,12.4 72.5,13.1 L73.4,14.7 Q74.2,14.2 74.5,14.1 Q74.8,14.0 75.5,14.0 Q76.3,14.0 76.5,14.2 Q76.6,14.4 76.7,15.0 Q73.6,15.3 72.9,15.8 Q72.3,16.2 72.3,17.8 Q72.3,18.9 72.7,19.5 Q73.1,20.0 74.6,20.0 Z M75.5,18.1 Q75.0,18.1 74.8,18.0 Q74.6,17.9 74.6,17.4 Q74.6,16.9 74.9,16.7 Q75.1,16.5 76.7,16.3 L76.7,17.5 Q76.3,17.9 76.1,18.0 Q76.0,18.1 75.5,18.1 Z"/><path d="M80.8,20.0 L83.3,20.0 L83.3,14.8 Q83.8,14.4 83.9,14.3 Q84.1,14.1 84.7,14.1 Q85.3,14.1 85.4,14.3 Q85.6,14.4 85.6,15.5 L85.6,20.0 L88.1,20.0 L88.1,15.2 Q88.1,13.2 87.7,12.6 Q87.3,12.0 85.6,12.0 Q84.5,12.0 84.1,12.3 Q83.7,12.5 83.1,13.2 L83.0,13.2 L82.8,12.0 L80.8,12.0 L80.8,20.0 Z"/><path d="M92.9,20.0 Q93.6,20.0 94.0,19.8 Q94.4,19.6 95.0,19.0 L95.0,19.0 L95.2,20.0 L97.2,20.0 L97.2,9.0 L94.7,9.0 L94.7,11.6 L94.8,12.8 Q94.3,12.3 94.0,12.2 Q93.8,12.0 92.9,12.0 Q91.2,12.0 90.4,12.8 Q89.6,13.6 89.6,16.1 Q89.6,18.4 90.2,19.2 Q90.9,20.0 92.9,20.0 Z M93.5,18.0 Q92.7,18.0 92.4,17.7 Q92.2,17.4 92.2,16.0 Q92.2,14.6 92.5,14.3 Q92.8,14.0 93.5,14.0 Q93.9,14.0 94.1,14.1 Q94.3,14.2 94.7,14.5 L94.7,17.3 Q94.4,17.8 94.2,17.9 Q94.0,18.0 93.5,18.0 Z"/><path d="M98.9,16.8 L102.9,16.8 L102.9,15.0 L98.9,15.0 L98.9,16.8 Z"/><path d="M106.7,20.0 Q107.2,20.0 107.4,20.0 Q107.6,19.9 107.9,19.8 L107.6,18.0 Q107.5,18.0 107.4,18.0 Q107.4,18.0 107.3,18.0 Q107.1,18.0 107.0,17.9 Q106.9,17.8 106.9,17.3 L106.9,8.6 L104.4,8.6 L104.4,17.2 Q104.4,18.9 104.7,19.4 Q105.0,20.0 106.7,20.0 Z"/><path d="M109.6,20.0 L112.1,20.0 L112.1,12.0 L109.6,12.0 L109.6,20.0 Z M110.9,11.0 Q111.7,11.0 112.0,10.8 Q112.2,10.5 112.2,9.7 Q112.2,9.0 112.0,8.7 Q111.7,8.4 110.9,8.4 Q110.0,8.4 109.7,8.7 Q109.5,9.0 109.5,9.7 Q109.5,10.5 109.7,10.8 Q110.0,11.0 110.9,11.0 Z"/><path d="M117.9,20.0 Q118.8,20.0 119.0,19.9 Q119.3,19.8 119.8,19.7 L119.3,17.9 Q119.2,18.0 119.0,18.0 Q118.9,18.1 118.6,18.1 Q118.0,18.1 117.8,17.9 Q117.6,17.7 117.6,16.9 L117.6,14.0 L119.5,14.0 L119.5,12.0 L117.6,12.0 L117.6,9.9 L115.6,9.9 L115.3,12.0 L114.1,12.1 L114.1,14.0 L115.1,14.0 L115.1,16.9 Q115.1,18.7 115.5,19.4 Q115.9,20.0 117.9,20.0 Z"/><path d="M121.0,20.0 L123.5,20.0 L123.5,12.0 L121.0,12.0 L121.0,20.0 Z M122.3,11.0 Q123.1,11.0 123.4,10.8 Q123.6,10.5 123.6,9.7 Q123.6,9.0 123.4,8.7 Q123.1,8.4 122.3,8.4 Q121.4,8.4 121.1,8.7 Q120.9,9.0 120.9,9.7 Q120.9,10.5 121.1,10.8 Q121.4,11.0 122.3,11.0 Z"/><path d="M129.1,23.6 Q131.8,23.6 132.7,23.0 Q133.6,22.4 133.6,20.2 Q133.6,18.7 133.0,18.4 Q132.5,18.1 130.5,18.1 L129.2,18.1 Q128.4,18.1 128.2,18.1 Q128.1,18.0 128.1,17.8 Q128.1,17.6 128.1,17.6 Q128.2,17.5 128.3,17.4 Q128.7,17.5 128.8,17.5 Q129.0,17.5 129.2,17.5 Q131.0,17.5 131.7,17.1 Q132.4,16.7 132.4,14.8 Q132.4,14.4 132.4,14.2 Q132.3,14.0 132.2,13.8 L133.5,13.8 L133.5,12.0 L130.5,12.0 Q130.2,12.1 129.9,12.0 Q129.7,12.0 129.2,12.0 Q127.5,12.0 126.7,12.5 Q125.9,13.0 125.9,14.8 Q125.9,15.7 126.2,16.1 Q126.4,16.4 127.0,16.8 L127.0,16.9 Q126.5,17.2 126.3,17.5 Q126.1,17.7 126.1,18.0 Q126.1,18.7 126.3,18.9 Q126.4,19.1 126.8,19.4 L126.8,19.5 Q126.1,19.8 125.9,20.2 Q125.7,20.5 125.7,21.4 Q125.7,23.0 126.5,23.3 Q127.2,23.6 129.1,23.6 Z M129.2,16.0 Q128.7,16.0 128.5,15.8 Q128.2,15.6 128.2,14.8 Q128.2,14.1 128.5,13.9 Q128.7,13.7 129.2,13.7 Q129.8,13.7 130.1,13.9 Q130.3,14.1 130.3,14.8 Q130.3,15.6 130.1,15.8 Q129.8,16.0 129.2,16.0 Z M129.5,22.0 Q128.4,22.0 128.1,21.8 Q127.8,21.6 127.8,20.9 Q127.8,20.5 127.8,20.3 Q127.9,20.2 128.1,19.9 Q128.4,20.0 128.5,20.0 Q128.7,20.0 129.3,20.0 L130.0,20.0 Q130.8,20.0 131.0,20.1 Q131.2,20.1 131.2,20.8 Q131.2,21.5 130.8,21.7 Q130.5,22.0 129.5,22.0 Z"/><path d="M137.4,20.0 Q138.3,20.0 138.7,19.8 Q139.0,19.6 139.7,19.0 L139.8,19.0 L139.9,20.0 L142.0,20.0 L142.0,15.6 Q142.0,13.2 141.4,12.6 Q140.8,12.0 138.7,12.0 Q137.5,12.0 136.9,12.2 Q136.4,12.4 135.3,13.1 L136.2,14.7 Q137.0,14.2 137.3,14.1 Q137.6,14.0 138.3,14.0 Q139.1,14.0 139.3,14.2 Q139.4,14.4 139.5,15.0 Q136.4,15.3 135.7,15.8 Q135.1,16.2 135.1,17.8 Q135.1,18.9 135.5,19.5 Q135.9,20.0 137.4,20.0 Z M138.3,18.1 Q137.8,18.1 137.6,18.0 Q137.4,17.9 137.4,17.4 Q137.4,16.9 137.7,16.7 Q137.9,16.5 139.5,16.3 L139.5,17.5 Q139.1,17.9 138.9,18.0 Q138.8,18.1 138.3,18.1 Z"/><path d="M146.7,20.0 Q147.6,20.0 147.8,19.9 Q148.1,19.8 148.6,19.7 L148.1,17.9 Q148.0,18.0 147.8,18.0 Q147.7,18.1 147.4,18.1 Q146.8,18.1 146.6,17.9 Q146.4,17.7 146.4,16.9 L146.4,14.0 L148.3,14.0 L148.3,12.0 L146.4,12.0 L146.4,9.9 L144.4,9.9 L144.1,12.0 L142.9,12.1 L142.9,14.0 L143.9,14.0 L143.9,16.9 Q143.9,18.7 144.3,19.4 Q144.7,20.0 146.7,20.0 Z"/><path d="M149.8,20.0 L152.3,20.0 L152.3,12.0 L149.8,12.0 L149.8,20.0 Z M151.1,11.0 Q151.9,11.0 152.2,10.8 Q152.4,10.5 152.4,9.7 Q152.4,9.0 152.2,8.7 Q151.9,8.4 151.1,8.4 Q150.2,8.4 149.9,8.7 Q149.7,9.0 149.7,9.7 Q149.7,10.5 149.9,10.8 Q150.2,11.0 151.1,11.0 Z"/><path d="M158.5,20.0 Q160.5,20.0 161.4,19.2 Q162.4,18.5 162.4,16.0 Q162.4,13.5 161.4,12.8 Q160.5,12.0 158.5,12.0 Q156.4,12.0 155.5,12.8 Q154.5,13.5 154.5,16.0 Q154.5,18.5 155.5,19.2 Q156.4,20.0 158.5,20.0 Z M158.5,18.0 Q157.5,18.0 157.3,17.6 Q157.1,17.2 157.1,16.0 Q157.1,14.8 157.3,14.4 Q157.5,14.0 158.5,14.0 Q159.4,14.0 159.6,14.4 Q159.8,14.8 159.8,16.0 Q159.8,17.2 159.6,17.6 Q159.4,18.0 158.5,18.0 Z"/><path d="M164.2,20.0 L166.7,20.0 L166.7,14.8 Q167.2,14.4 167.3,14.3 Q167.5,14.1 168.1,14.1 Q168.7,14.1 168.8,14.3 Q169.0,14.4 169.0,15.5 L169.0,20.0 L171.5,20.0 L171.5,15.2 Q171.5,13.2 171.1,12.6 Q170.7,12.0 169.0,12.0 Q167.9,12.0 167.5,12.3 Q167.1,12.5 166.4,13.2 L166.4,13.2 L166.2,12.0 L164.2,12.0 L164.2,20.0 Z"/><path d="M173.1,16.8 L177.1,16.8 L177.1,15.0 L173.1,15.0 L173.1,16.8 Z"/><path d="M182.9,20.0 Q184.6,20.0 185.4,19.2 Q186.2,18.4 186.2,15.9 Q186.2,13.6 185.6,12.8 Q185.0,12.0 183.1,12.0 Q182.3,12.0 182.0,12.2 Q181.6,12.3 181.0,12.9 L181.1,11.7 L181.1,9.0 L178.6,9.0 L178.6,20.0 L180.6,20.0 L180.7,19.0 L180.8,19.0 Q181.4,19.6 181.8,19.8 Q182.2,20.0 182.9,20.0 Z M182.3,18.0 Q181.9,18.0 181.7,17.9 Q181.5,17.9 181.1,17.5 L181.1,14.7 Q181.5,14.2 181.7,14.1 Q181.9,14.0 182.3,14.0 Q183.2,14.0 183.4,14.3 Q183.6,14.6 183.6,15.9 Q183.6,17.4 183.3,17.7 Q183.0,18.0 182.3,18.0 Z"/><path d="M190.2,20.0 Q191.3,20.0 191.7,19.8 Q192.0,19.5 192.7,18.7 L192.8,18.7 L192.9,20.0 L195.0,20.0 L195.0,12.0 L192.5,12.0 L192.5,17.1 Q192.0,17.7 191.9,17.8 Q191.7,17.9 191.1,17.9 Q190.5,17.9 190.4,17.7 Q190.2,17.6 190.2,16.5 L190.2,12.0 L187.7,12.0 L187.7,16.8 Q187.7,18.8 188.1,19.4 Q188.5,20.0 190.2,20.0 Z"/><path d="M199.9,20.0 Q200.6,20.0 201.0,19.8 Q201.4,19.6 202.0,19.0 L202.0,19.0 L202.2,20.0 L204.2,20.0 L204.2,9.0 L201.7,9.0 L201.7,11.6 L201.8,12.8 Q201.3,12.3 201.0,12.2 Q200.8,12.0 199.9,12.0 Q198.2,12.0 197.4,12.8 Q196.6,13.6 196.6,16.1 Q196.6,18.4 197.2,19.2 Q197.9,20.0 199.9,20.0 Z M200.5,18.0 Q199.7,18.0 199.4,17.7 Q199.2,17.4 199.2,16.0 Q199.2,14.6 199.5,14.3 Q199.8,14.0 200.5,14.0 Q200.9,14.0 201.1,14.1 Q201.3,14.2 201.7,14.5 L201.7,17.3 Q201.4,17.8 201.2,17.9 Q201.0,18.0 200.5,18.0 Z"/><path d="M209.1,23.6 Q211.8,23.6 212.7,23.0 Q213.6,22.4 213.6,20.2 Q213.6,18.7 213.0,18.4 Q212.5,18.1 210.5,18.1 L209.2,18.1 Q208.4,18.1 208.2,18.1 Q208.1,18.0 208.1,17.8 Q208.1,17.6 208.1,17.6 Q208.2,17.5 208.3,17.4 Q208.7,17.5 208.8,17.5 Q209.0,17.5 209.2,17.5 Q211.0,17.5 211.7,17.1 Q212.4,16.7 212.4,14.8 Q212.4,14.4 212.4,14.2 Q212.3,14.0 212.2,13.8 L213.4,13.8 L213.4,12.0 L210.5,12.0 Q210.2,12.1 209.9,12.0 Q209.7,12.0 209.2,12.0 Q207.5,12.0 206.7,12.5 Q205.9,13.0 205.9,14.8 Q205.9,15.7 206.2,16.1 Q206.4,16.4 207.0,16.8 L207.0,16.9 Q206.5,17.2 206.3,17.5 Q206.1,17.7 206.1,18.0 Q206.1,18.7 206.3,18.9 Q206.4,19.1 206.8,19.4 L206.8,19.5 Q206.1,19.8 205.9,20.2 Q205.7,20.5 205.7,21.4 Q205.7,23.0 206.5,23.3 Q207.2,23.6 209.1,23.6 Z M209.2,16.0 Q208.7,16.0 208.5,15.8 Q208.2,15.6 208.2,14.8 Q208.2,14.1 208.5,13.9 Q208.7,13.7 209.2,13.7 Q209.8,13.7 210.1,13.9 Q210.3,14.1 210.3,14.8 Q210.3,15.6 210.1,15.8 Q209.8,16.0 209.2,16.0 Z M209.4,22.0 Q208.4,22.0 208.1,21.8 Q207.8,21.6 207.8,20.9 Q207.8,20.5 207.8,20.3 Q207.9,20.2 208.1,19.9 Q208.4,20.0 208.5,20.0 Q208.7,20.0 209.3,20.0 L210.0,20.0 Q210.8,20.0 211.0,20.1 Q211.2,20.1 211.2,20.8 Q211.2,21.5 210.8,21.7 Q210.5,22.0 209.4,22.0 Z"/><path d="M219.0,20.0 Q219.9,20.0 220.5,19.8 Q221.0,19.7 221.9,19.1 L221.0,17.6 Q220.5,17.9 220.2,18.0 Q219.9,18.1 219.4,18.1 Q218.3,18.1 218.0,17.9 Q217.6,17.7 217.4,16.6 L222.0,16.6 Q222.1,16.5 222.1,16.2 Q222.1,16.0 222.1,15.6 Q222.1,13.7 221.6,12.8 Q221.0,12.0 218.7,12.0 Q216.8,12.0 215.9,12.8 Q214.9,13.6 214.9,15.9 Q214.9,18.5 215.8,19.2 Q216.7,20.0 219.0,20.0 Z M217.3,15.0 Q217.5,14.3 217.8,14.1 Q218.1,13.9 218.8,13.9 Q219.7,13.9 219.9,14.1 Q220.0,14.4 220.0,15.0 L217.3,15.0 Z"/><path d="M226.7,20.0 Q227.6,20.0 227.8,19.9 Q228.1,19.8 228.6,19.7 L228.1,17.9 Q228.0,18.0 227.8,18.0 Q227.7,18.1 227.4,18.1 Q226.8,18.1 226.6,17.9 Q226.4,17.7 226.4,16.9 L226.4,14.0 L228.3,14.0 L228.3,12.0 L226.4,12.0 L226.4,9.9 L224.3,9.9 L224.1,12.0 L222.8,12.1 L222.8,14.0 L223.9,14.0 L223.9,16.9 Q223.9,18.7 224.3,19.4 Q224.7,20.0 226.7,20.0 Z"/></g>
  
</svg>
