<svg xmlns="http://www.w3.org/2000/svg" viewBox="0 0 257 30" width="257" height="30" role="img" aria-label="legal-interpretation-argument">
  <rect x="0.5" y="0.5" width="256" height="29" rx="5" fill="#ece6f3"/>
  <rect x="0" y="0" width="4" height="30" rx="2" fill="#6f5a9c"/>
  <g fill="#2a2d34"><path d="M21.3,20.0 Q21.8,20.0 22.0,20.0 Q22.2,19.9 22.5,19.8 L22.2,18.0 Q22.1,18.0 22.0,18.0 Q22.0,18.0 21.9,18.0 Q21.7,18.0 21.6,17.9 Q21.5,17.8 21.5,17.3 L21.5,8.6 L19.0,8.6 L19.0,17.2 Q19.0,18.9 19.3,19.4 Q19.6,20.0 21.3,20.0 Z"/><path d="M27.8,20.0 Q28.7,20.0 29.3,19.8 Q29.8,19.7 30.7,19.1 L29.8,17.6 Q29.3,17.9 29.0,18.0 Q28.7,18.1 28.2,18.1 Q27.1,18.1 26.8,17.9 Q26.4,17.7 26.2,16.6 L30.8,16.6 Q30.9,16.5 30.9,16.2 Q30.9,16.0 30.9,15.6 Q30.9,13.7 30.4,12.8 Q29.8,12.0 27.5,12.0 Q25.6,12.0 24.7,12.8 Q23.7,13.6 23.7,15.9 Q23.7,18.5 24.6,19.2 Q25.5,20.0 27.8,20.0 Z M26.1,15.0 Q26.3,14.3 26.6,14.1 Q26.9,13.9 27.6,13.9 Q28.5,13.9 28.7,14.1 Q28.8,14.4 28.8,15.0 L26.1,15.0 Z"/><path d="M35.3,23.6 Q38.0,23.6 38.9,23.0 Q39.8,22.4 39.8,20.2 Q39.8,18.7 39.2,18.4 Q38.7,18.1 36.7,18.1 L35.4,18.1 Q34.6,18.1 34.4,18.1 Q34.3,18.0 34.3,17.8 Q34.3,17.6 34.3,17.6 Q34.4,17.5 34.5,17.4 Q34.9,17.5 35.0,17.5 Q35.2,17.5 35.4,17.5 Q37.2,17.5 37.9,17.1 Q38.6,16.7 38.6,14.8 Q38.6,14.4 38.6,14.2 Q38.5,14.0 38.4,13.8 L39.6,13.8 L39.6,12.0 L36.7,12.0 Q36.4,12.1 36.1,12.0 Q35.9,12.0 35.4,12.0 Q33.7,12.0 32.9,12.5 Q32.1,13.0 32.1,14.8 Q32.1,15.7 32.4,16.1 Q32.6,16.4 33.2,16.8 L33.2,16.9 Q32.7,17.2 32.5,17.5 Q32.3,17.7 32.3,18.0 Q32.3,18.7 32.5,18.9 Q32.6,19.1 33.0,19.4 L33.0,19.5 Q32.3,19.8 32.1,20.2 Q31.9,20.5 31.9,21.4 Q31.9,23.0 32.7,23.3 Q33.4,23.6 35.3,23.6 Z M35.4,16.0 Q34.9,16.0 34.7,15.8 Q34.4,15.6 34.4,14.8 Q34.4,14.1 34.7,13.9 Q34.9,13.7 35.4,13.7 Q36.0,13.7 36.3,13.9 Q36.5,14.1 36.5,14.8 Q36.5,15.6 36.3,15.8 Q36.0,16.0 35.4,16.0 Z M35.6,22.0 Q34.6,22.0 34.3,21.8 Q34.0,21.6 34.0,20.9 Q34.0,20.5 34.0,20.3 Q34.1,20.2 34.3,19.9 Q34.6,20.0 34.7,20.0 Q34.9,20.0 35.5,20.0 L36.2,20.0 Q37.0,20.0 37.2,20.1 Q37.4,20.1 37.4,20.8 Q37.4,21.5 37.0,21.7 Q36.7,22.0 35.6,22.0 Z"/><path d="M43.6,20.0 Q44.5,20.0 44.9,19.8 Q45.2,19.6 45.9,19.0 L46.0,19.0 L46.1,20.0 L48.2,20.0 L48.2,15.6 Q48.2,13.2 47.6,12.6 Q47.0,12.0 44.9,12.0 Q43.7,12.0 43.1,12.2 Q42.6,12.4 41.5,13.1 L42.4,14.7 Q43.2,14.2 43.5,14.1 Q43.8,14.0 44.5,14.0 Q45.3,14.0 45.5,14.2 Q45.6,14.4 45.7,15.0 Q42.6,15.3 41.9,15.8 Q41.3,16.2 41.3,17.8 Q41.3,18.9 41.7,19.5 Q42.1,20.0 43.6,20.0 Z M44.5,18.1 Q44.0,18.1 43.8,18.0 Q43.6,17.9 43.6,17.4 Q43.6,16.9 43.9,16.7 Q44.1,16.5 45.7,16.3 L45.7,17.5 Q45.3,17.9 45.1,18.0 Q45.0,18.1 44.5,18.1 Z"/><path d="M52.1,20.0 Q52.6,20.0 52.8,20.0 Q53.0,19.9 53.3,19.8 L53.0,18.0 Q52.9,18.0 52.8,18.0 Q52.8,18.0 52.7,18.0 Q52.5,18.0 52.4,17.9 Q52.3,17.8 52.3,17.3 L52.3,8.6 L49.8,8.6 L49.8,17.2 Q49.8,18.9 50.1,19.4 Q50.4,20.0 52.1,20.0 Z"/><path d="M54.7,16.8 L58.7,16.8 L58.7,15.0 L54.7,15.0 L54.7,16.8 Z"/><path d="M60.2,20.0 L62.7,20.0 L62.7,12.0 L60.2,12.0 L60.2,20.0 Z M61.5,11.0 Q62.3,11.0 62.6,10.8 Q62.8,10.5 62.8,9.7 Q62.8,9.0 62.6,8.7 Q62.3,8.4 61.5,8.4 Q60.6,8.4 60.3,8.7 Q60.1,9.0 60.1,9.7 Q60.1,10.5 60.3,10.8 Q60.6,11.0 61.5,11.0 Z"/><path d="M65.4,20.0 L67.9,20.0 L67.9,14.8 Q68.4,14.4 68.5,14.3 Q68.7,14.1 69.3,14.1 Q69.9,14.1 70.0,14.3 Q70.2,14.4 70.2,15.5 L70.2,20.0 L72.7,20.0 L72.7,15.2 Q72.7,13.2 72.3,12.6 Q71.9,12.0 70.2,12.0 Q69.1,12.0 68.7,12.3 Q68.3,12.5 67.7,13.2 L67.6,13.2 L67.4,12.0 L65.4,12.0 L65.4,20.0 Z"/><path d="M77.7,20.0 Q78.6,20.0 78.8,19.9 Q79.1,19.8 79.6,19.7 L79.1,17.9 Q79.0,18.0 78.8,18.0 Q78.7,18.1 78.4,18.1 Q77.8,18.1 77.6,17.9 Q77.4,17.7 77.4,16.9 L77.4,14.0 L79.3,14.0 L79.3,12.0 L77.4,12.0 L77.4,9.9 L75.4,9.9 L75.1,12.0 L73.9,12.1 L73.9,14.0 L74.9,14.0 L74.9,16.9 Q74.9,18.7 75.3,19.4 Q75.7,20.0 77.7,20.0 Z"/><path d="M84.4,20.0 Q85.3,20.0 85.9,19.8 Q86.4,19.7 87.3,19.1 L86.4,17.6 Q85.9,17.9 85.6,18.0 Q85.3,18.1 84.8,18.1 Q83.7,18.1 83.4,17.9 Q83.0,17.7 82.8,16.6 L87.4,16.6 Q87.5,16.5 87.5,16.2 Q87.6,16.0 87.6,15.6 Q87.6,13.7 87.0,12.8 Q86.4,12.0 84.1,12.0 Q82.2,12.0 81.3,12.8 Q80.3,13.6 80.3,15.9 Q80.3,18.5 81.2,19.2 Q82.1,20.0 84.4,20.0 Z M82.7,15.0 Q82.9,14.3 83.2,14.1 Q83.5,13.9 84.2,13.9 Q85.1,13.9 85.3,14.1 Q85.4,14.4 85.4,15.0 L82.7,15.0 Z"/><path d="M89.0,20.0 L91.5,20.0 L91.5,15.5 Q91.9,14.6 92.3,14.4 Q92.6,14.2 93.2,14.2 Q93.5,14.2 93.7,14.2 Q93.8,14.2 94.1,14.3 L94.5,12.0 Q94.3,12.1 94.1,12.0 Q94.0,12.0 93.5,12.0 Q92.7,12.0 92.3,12.3 Q91.8,12.5 91.3,13.6 L91.2,13.6 L91.0,12.0 L89.0,12.0 L89.0,20.0 Z"/><path d="M96.2,23.0 L98.7,23.0 L98.7,20.5 L98.6,19.2 Q99.1,19.7 99.5,19.9 Q99.8,20.0 100.5,20.0 Q102.2,20.0 103.0,19.2 Q103.8,18.4 103.8,15.8 Q103.8,13.6 103.2,12.8 Q102.6,12.0 100.7,12.0 Q99.9,12.0 99.5,12.2 Q99.1,12.4 98.5,13.0 L98.4,13.0 L98.2,12.0 L96.2,12.0 L96.2,23.0 Z M99.9,18.0 Q99.5,18.0 99.3,17.9 Q99.1,17.9 98.7,17.5 L98.7,14.7 Q99.1,14.2 99.3,14.1 Q99.5,14.0 100.0,14.0 Q100.8,14.0 101.0,14.3 Q101.2,14.6 101.2,15.9 Q101.2,17.3 100.9,17.7 Q100.6,18.0 99.9,18.0 Z"/><path d="M105.4,20.0 L107.9,20.0 L107.9,15.5 Q108.3,14.6 108.7,14.4 Q109.0,14.2 109.6,14.2 Q109.9,14.2 110.1,14.2 Q110.2,14.2 110.5,14.3 L110.9,12.0 Q110.7,12.1 110.5,12.0 Q110.4,12.0 109.9,12.0 Q109.1,12.0 108.7,12.3 Q108.2,12.5 107.7,13.6 L107.6,13.6 L107.4,12.0 L105.4,12.0 L105.4,20.0 Z"/><path d="M116.2,20.0 Q117.1,20.0 117.7,19.8 Q118.2,19.7 119.1,19.1 L118.2,17.6 Q117.7,17.9 117.4,18.0 Q117.1,18.1 116.6,18.1 Q115.5,18.1 115.2,17.9 Q114.8,17.7 114.6,16.6 L119.2,16.6 Q119.3,16.5 119.3,16.2 Q119.4,16.0 119.4,15.6 Q119.4,13.7 118.8,12.8 Q118.2,12.0 115.9,12.0 Q114.0,12.0 113.1,12.8 Q112.1,13.6 112.1,15.9 Q112.1,18.5 113.0,19.2 Q113.9,20.0 116.2,20.0 Z M114.5,15.0 Q114.7,14.3 115.0,14.1 Q115.3,13.9 116.0,13.9 Q116.9,13.9 117.1,14.1 Q117.2,14.4 117.2,15.0 L114.5,15.0 Z"/><path d="M123.9,20.0 Q124.8,20.0 125.0,19.9 Q125.3,19.8 125.8,19.7 L125.3,17.9 Q125.2,18.0 125.0,18.0 Q124.9,18.1 124.6,18.1 Q124.0,18.1 123.8,17.9 Q123.6,17.7 123.6,16.9 L123.6,14.0 L125.5,14.0 L125.5,12.0 L123.6,12.0 L123.6,9.9 L121.6,9.9 L121.3,12.0 L120.1,12.1 L120.1,14.0 L121.1,14.0 L121.1,16.9 Q121.1,18.7 121.5,19.4 Q121.9,20.0 123.9,20.0 Z"/><path d="M129.0,20.0 Q129.9,20.0 130.3,19.8 Q130.6,19.6 131.3,19.0 L131.4,19.0 L131.5,20.0 L133.6,20.0 L133.6,15.6 Q133.6,13.2 133.0,12.6 Q132.4,12.0 130.3,12.0 Q129.1,12.0 128.5,12.2 Q128.0,12.4 126.9,13.1 L127.8,14.7 Q128.6,14.2 128.9,14.1 Q129.2,14.0 129.9,14.0 Q130.7,14.0 130.9,14.2 Q131.0,14.4 131.1,15.0 Q128.0,15.3 127.3,15.8 Q126.7,16.2 126.7,17.8 Q126.7,18.9 127.1,19.5 Q127.5,20.0 129.0,20.0 Z M129.9,18.1 Q129.4,18.1 129.2,18.0 Q129.0,17.9 129.0,17.4 Q129.0,16.9 129.3,16.7 Q129.5,16.5 131.1,16.3 L131.1,17.5 Q130.7,17.9 130.5,18.0 Q130.4,18.1 129.9,18.1 Z"/><path d="M138.3,20.0 Q139.2,20.0 139.4,19.9 Q139.7,19.8 140.2,19.7 L139.7,17.9 Q139.6,18.0 139.4,18.0 Q139.3,18.1 139.0,18.1 Q138.4,18.1 138.2,17.9 Q138.0,17.7 138.0,16.9 L138.0,14.0 L139.9,14.0 L139.9,12.0 L138.0,12.0 L138.0,9.9 L136.0,9.9 L135.7,12.0 L134.5,12.1 L134.5,14.0 L135.5,14.0 L135.5,16.9 Q135.5,18.7 135.9,19.4 Q136.3,20.0 138.3,20.0 Z"/><path d="M141.4,20.0 L143.9,20.0 L143.9,12.0 L141.4,12.0 L141.4,20.0 Z M142.7,11.0 Q143.5,11.0 143.8,10.8 Q144.0,10.5 144.0,9.7 Q144.0,9.0 143.8,8.7 Q143.5,8.4 142.7,8.4 Q141.8,8.4 141.5,8.7 Q141.3,9.0 141.3,9.7 Q141.3,10.5 141.5,10.8 Q141.8,11.0 142.7,11.0 Z"/><path d="M150.1,20.0 Q152.1,20.0 153.0,19.2 Q154.0,18.5 154.0,16.0 Q154.0,13.5 153.0,12.8 Q152.1,12.0 150.1,12.0 Q148.0,12.0 147.1,12.8 Q146.1,13.5 146.1,16.0 Q146.1,18.5 147.1,19.2 Q148.0,20.0 150.1,20.0 Z M150.1,18.0 Q149.1,18.0 148.9,17.6 Q148.7,17.2 148.7,16.0 Q148.7,14.8 148.9,14.4 Q149.1,14.0 150.1,14.0 Q151.0,14.0 151.2,14.4 Q151.4,14.8 151.4,16.0 Q151.4,17.2 151.2,17.6 Q151.0,18.0 150.1,18.0 Z"/><path d="M155.8,20.0 L158.3,20.0 L158.3,14.8 Q158.8,14.4 158.9,14.3 Q159.1,14.1 159.7,14.1 Q160.3,14.1 160.4,14.3 Q160.6,14.4 160.6,15.5 L160.6,20.0 L163.1,20.0 L163.1,15.2 Q163.1,13.2 162.7,12.6 Q162.3,12.0 160.6,12.0 Q159.5,12.0 159.1,12.3 Q158.7,12.5 158.0,13.2 L158.0,13.2 L157.8,12.0 L155.8,12.0 L155.8,20.0 Z"/><path d="M164.7,16.8 L168.7,16.8 L168.7,15.0 L164.7,15.0 L164.7,16.8 Z"/><path d="M172.2,20.0 Q173.1,20.0 173.5,19.8 Q173.8,19.6 174.5,19.0 L174.6,19.0 L174.7,20.0 L176.8,20.0 L176.8,15.6 Q176.8,13.2 176.2,12.6 Q175.6,12.0 173.5,12.0 Q172.3,12.0 171.7,12.2 Q171.2,12.4 170.1,13.1 L171.0,14.7 Q171.8,14.2 172.1,14.1 Q172.4,14.0 173.1,14.0 Q173.9,14.0 174.1,14.2 Q174.2,14.4 174.3,15.0 Q171.2,15.3 170.5,15.8 Q169.9,16.2 169.9,17.8 Q169.9,18.9 170.3,19.5 Q170.7,20.0 172.2,20.0 Z M173.1,18.1 Q172.6,18.1 172.4,18.0 Q172.2,17.9 172.2,17.4 Q172.2,16.9 172.5,16.7 Q172.7,16.5 174.3,16.3 L174.3,17.5 Q173.9,17.9 173.7,18.0 Q173.6,18.1 173.1,18.1 Z"/><path d="M178.4,20.0 L180.9,20.0 L180.9,15.5 Q181.3,14.6 181.7,14.4 Q182.0,14.2 182.6,14.2 Q182.9,14.2 183.1,14.2 Q183.2,14.2 183.5,14.3 L183.9,12.0 Q183.7,12.1 183.5,12.0 Q183.4,12.0 182.9,12.0 Q182.1,12.0 181.7,12.3 Q181.2,12.5 180.6,13.6 L180.6,13.6 L180.4,12.0 L178.4,12.0 L178.4,20.0 Z"/><path d="M188.5,23.6 Q191.2,23.6 192.1,23.0 Q193.0,22.4 193.0,20.2 Q193.0,18.7 192.4,18.4 Q191.9,18.1 189.9,18.1 L188.6,18.1 Q187.8,18.1 187.6,18.1 Q187.5,18.0 187.5,17.8 Q187.5,17.6 187.5,17.6 Q187.6,17.5 187.7,17.4 Q188.1,17.5 188.2,17.5 Q188.4,17.5 188.6,17.5 Q190.4,17.5 191.1,17.1 Q191.8,16.7 191.8,14.8 Q191.8,14.4 191.8,14.2 Q191.7,14.0 191.6,13.8 L192.8,13.8 L192.8,12.0 L189.9,12.0 Q189.6,12.1 189.3,12.0 Q189.1,12.0 188.6,12.0 Q186.9,12.0 186.1,12.5 Q185.3,13.0 185.3,14.8 Q185.3,15.7 185.6,16.1 Q185.8,16.4 186.4,16.8 L186.4,16.9 Q185.9,17.2 185.7,17.5 Q185.5,17.7 185.5,18.0 Q185.5,18.7 185.7,18.9 Q185.8,19.1 186.2,19.4 L186.2,19.5 Q185.5,19.8 185.3,20.2 Q185.1,20.5 185.1,21.4 Q185.1,23.0 185.9,23.3 Q186.6,23.6 188.5,23.6 Z M188.6,16.0 Q188.1,16.0 187.9,15.8 Q187.6,15.6 187.6,14.8 Q187.6,14.1 187.9,13.9 Q188.1,13.7 188.6,13.7 Q189.2,13.7 189.5,13.9 Q189.7,14.1 189.7,14.8 Q189.7,15.6 189.5,15.8 Q189.2,16.0 188.6,16.0 Z M188.8,22.0 Q187.8,22.0 187.5,21.8 Q187.2,21.6 187.2,20.9 Q187.2,20.5 187.2,20.3 Q187.3,20.2 187.5,19.9 Q187.8,20.0 187.9,20.0 Q188.1,20.0 188.7,20.0 L189.4,20.0 Q190.2,20.0 190.4,20.1 Q190.6,20.1 190.6,20.8 Q190.6,21.5 190.2,21.7 Q189.9,22.0 188.8,22.0 Z"/><path d="M197.2,20.0 Q198.3,20.0 198.7,19.8 Q199.0,19.5 199.7,18.7 L199.8,18.7 L199.9,20.0 L202.0,20.0 L202.0,12.0 L199.5,12.0 L199.5,17.1 Q199.0,17.7 198.9,17.8 Q198.7,17.9 198.1,17.9 Q197.5,17.9 197.4,17.7 Q197.2,17.6 197.2,16.5 L197.2,12.0 L194.7,12.0 L194.7,16.8 Q194.7,18.8 195.1,19.4 Q195.5,20.0 197.2,20.0 Z"/><path d="M204.0,20.0 L206.5,20.0 L206.5,14.8 Q207.0,14.4 207.2,14.2 Q207.4,14.1 207.7,14.1 Q208.4,14.1 208.5,14.3 Q208.7,14.4 208.7,15.5 L208.7,20.0 L211.2,20.0 L211.2,14.8 Q211.7,14.4 211.9,14.2 Q212.1,14.1 212.5,14.1 Q213.1,14.1 213.2,14.3 Q213.4,14.4 213.4,15.5 L213.4,20.0 L215.8,20.0 L215.8,15.2 Q215.8,13.2 215.5,12.6 Q215.1,12.0 213.4,12.0 Q212.3,12.0 211.9,12.3 Q211.5,12.6 210.9,13.3 Q210.5,12.5 210.1,12.2 Q209.8,12.0 208.7,12.0 Q207.6,12.0 207.3,12.3 Q206.9,12.5 206.2,13.2 L206.2,13.2 L206.0,12.0 L204.0,12.0 L204.0,20.0 Z"/><path d="M221.8,20.0 Q222.7,20.0 223.3,19.8 Q223.8,19.7 224.7,19.1 L223.8,17.6 Q223.3,17.9 223.0,18.0 Q222.7,18.1 222.2,18.1 Q221.1,18.1 220.8,17.9 Q220.4,17.7 220.2,16.6 L224.8,16.6 Q224.9,16.5 224.9,16.2 Q224.9,16.0 224.9,15.6 Q224.9,13.7 224.4,12.8 Q223.8,12.0 221.5,12.0 Q219.6,12.0 218.7,12.8 Q217.7,13.6 217.7,15.9 Q217.7,18.5 218.6,19.2 Q219.5,20.0 221.8,20.0 Z M220.1,15.0 Q220.3,14.3 220.6,14.1 Q220.9,13.9 221.6,13.9 Q222.5,13.9 222.7,14.1 Q222.8,14.4 222.8,15.0 L220.1,15.0 Z"/><path d="M226.4,20.0 L228.9,20.0 L228.9,14.8 Q229.4,14.4 229.5,14.3 Q229.7,14.1 230.3,14.1 Q230.9,14.1 231.0,14.3 Q231.2,14.4 231.2,15.5 L231.2,20.0 L233.7,20.0 L233.7,15.2 Q233.7,13.2 233.3,12.6 Q232.9,12.0 231.2,12.0 Q230.1,12.0 229.7,12.3 Q229.3,12.5 228.6,13.2 L228.6,13.2 L228.4,12.0 L226.4,12.0 L226.4,20.0 Z"/><path d="M238.7,20.0 Q239.6,20.0 239.8,19.9 Q240.1,19.8 240.6,19.7 L240.1,17.9 Q240.0,18.0 239.8,18.0 Q239.7,18.1 239.4,18.1 Q238.8,18.1 238.6,17.9 Q238.4,17.7 238.4,16.9 L238.4,14.0 L240.3,14.0 L240.3,12.0 L238.4,12.0 L238.4,9.9 L236.3,9.9 L236.1,12.0 L234.8,12.1 L234.8,14.0 L235.9,14.0 L235.9,16.9 Q235.9,18.7 236.3,19.4 Q236.7,20.0 238.7,20.0 Z"/></g>
  
</svg>
