<svg xmlns="http://www.w3.org/2000/svg" viewBox="0 0 177 30" width="177" height="30" role="img" aria-label="inductive-reasoning">
  <rect x="0.5" y="0.5" width="176" height="29" rx="5" fill="#f6e3dc"/>
  <rect x="0" y="0" width="4" height="30" rx="2" fill="#b5462f"/>
  <g fill="#2a2d34"><path d="M19.0,20.0 L21.5,20.0 L21.5,12.0 L19.0,12.0 L19.0,20.0 Z M20.2,11.0 Q21.1,11.0 21.4,10.8 Q21.6,10.5 21.6,9.7 Q21.6,9.0 21.4,8.7 Q21.1,8.4 20.2,8.4 Q19.4,8.4 19.1,8.7 Q18.9,9.0 18.9,9.7 Q18.9,10.5 19.1,10.8 Q19.4,11.0 20.2,11.0 Z"/><path d="M24.2,20.0 L26.7,20.0 L26.7,14.8 Q27.2,14.4 27.3,14.3 Q27.5,14.1 28.1,14.1 Q28.7,14.1 28.8,14.3 Q29.0,14.4 29.0,15.5 L29.0,20.0 L31.5,20.0 L31.5,15.2 Q31.5,13.2 31.1,12.6 Q30.7,12.0 29.0,12.0 Q27.9,12.0 27.5,12.3 Q27.1,12.5 26.4,13.2 L26.4,13.2 L26.2,12.0 L24.2,12.0 L24.2,20.0 Z"/><path d="M36.3,20.0 Q37.0,20.0 37.4,19.8 Q37.8,19.6 38.4,19.0 L38.4,19.0 L38.6,20.0 L40.6,20.0 L40.6,9.0 L38.1,9.0 L38.1,11.6 L38.2,12.8 Q37.7,12.3 37.4,12.2 Q37.2,12.0 36.3,12.0 Q34.6,12.0 33.8,12.8 Q33.0,13.6 33.0,16.1 Q33.0,18.4 33.6,19.2 Q34.3,20.0 36.3,20.0 Z M36.9,18.0 Q36.1,18.0 35.8,17.7 Q35.6,17.4 35.6,16.0 Q35.6,14.6 35.9,14.3 Q36.2,14.0 36.9,14.0 Q37.3,14.0 37.5,14.1 Q37.7,14.2 38.1,14.5 L38.1,17.3 Q37.8,17.8 37.6,17.9 Q37.4,18.0 36.9,18.0 Z"/><path d="M45.0,20.0 Q46.1,20.0 46.5,19.8 Q46.8,19.5 47.5,18.7 L47.6,18.7 L47.7,20.0 L49.8,20.0 L49.8,12.0 L47.3,12.0 L47.3,17.1 Q46.8,17.7 46.7,17.8 Q46.5,17.9 45.9,17.9 Q45.3,17.9 45.2,17.7 Q45.0,17.6 45.0,16.5 L45.0,12.0 L42.5,12.0 L42.5,16.8 Q42.5,18.8 42.9,19.4 Q43.3,20.0 45.0,20.0 Z"/><path d="M55.3,20.0 Q56.2,20.0 56.7,19.9 Q57.2,19.8 58.0,19.1 L57.0,17.5 Q56.6,17.8 56.3,17.9 Q56.1,18.0 55.6,18.0 Q54.6,18.0 54.3,17.6 Q53.9,17.2 53.9,16.0 Q53.9,14.8 54.2,14.4 Q54.6,14.0 55.7,14.0 Q56.0,14.0 56.2,14.1 Q56.3,14.1 56.7,14.4 L57.9,12.9 Q57.3,12.3 56.9,12.2 Q56.5,12.0 55.5,12.0 Q53.3,12.0 52.3,12.8 Q51.3,13.5 51.3,16.0 Q51.3,18.5 52.2,19.2 Q53.1,20.0 55.3,20.0 Z"/><path d="M63.1,20.0 Q64.0,20.0 64.2,19.9 Q64.5,19.8 65.0,19.7 L64.5,17.9 Q64.4,18.0 64.2,18.0 Q64.1,18.1 63.8,18.1 Q63.2,18.1 63.0,17.9 Q62.8,17.7 62.8,16.9 L62.8,14.0 L64.7,14.0 L64.7,12.0 L62.8,12.0 L62.8,9.9 L60.8,9.9 L60.5,12.0 L59.2,12.1 L59.2,14.0 L60.3,14.0 L60.3,16.9 Q60.3,18.7 60.7,19.4 Q61.1,20.0 63.1,20.0 Z"/><path d="M66.2,20.0 L68.7,20.0 L68.7,12.0 L66.2,12.0 L66.2,20.0 Z M67.5,11.0 Q68.3,11.0 68.6,10.8 Q68.8,10.5 68.8,9.7 Q68.8,9.0 68.6,8.7 Q68.3,8.4 67.5,8.4 Q66.6,8.4 66.3,8.7 Q66.1,9.0 66.1,9.7 Q66.1,10.5 66.3,10.8 Q66.6,11.0 67.5,11.0 Z"/><path d="M73.2,20.0 L76.1,20.0 L78.7,12.0 L76.3,12.0 L75.3,15.7 Q75.1,16.5 75.0,16.9 Q74.9,17.3 74.7,18.2 L74.7,18.2 Q74.4,17.3 74.4,16.9 Q74.3,16.5 74.1,15.7 L73.1,12.0 L70.6,12.0 L73.2,20.0 Z"/><path d="M84.2,20.0 Q85.1,20.0 85.7,19.8 Q86.2,19.7 87.1,19.1 L86.2,17.6 Q85.7,17.9 85.4,18.0 Q85.1,18.1 84.6,18.1 Q83.5,18.1 83.2,17.9 Q82.8,17.7 82.6,16.6 L87.2,16.6 Q87.3,16.5 87.3,16.2 Q87.4,16.0 87.4,15.6 Q87.4,13.7 86.8,12.8 Q86.2,12.0 83.9,12.0 Q82.0,12.0 81.1,12.8 Q80.1,13.6 80.1,15.9 Q80.1,18.5 81.0,19.2 Q81.9,20.0 84.2,20.0 Z M82.5,15.0 Q82.7,14.3 83.0,14.1 Q83.3,13.9 84.0,13.9 Q84.9,13.9 85.1,14.1 Q85.2,14.4 85.2,15.0 L82.5,15.0 Z"/><path d="M88.5,16.8 L92.5,16.8 L92.5,15.0 L88.5,15.0 L88.5,16.8 Z"/><path d="M94.0,20.0 L96.5,20.0 L96.5,15.5 Q96.9,14.6 97.3,14.4 Q97.6,14.2 98.2,14.2 Q98.5,14.2 98.7,14.2 Q98.8,14.2 99.1,14.3 L99.5,12.0 Q99.3,12.1 99.1,12.0 Q99.0,12.0 98.5,12.0 Q97.7,12.0 97.3,12.3 Q96.8,12.5 96.3,13.6 L96.2,13.6 L96.0,12.0 L94.0,12.0 L94.0,20.0 Z"/><path d="M104.8,20.0 Q105.7,20.0 106.3,19.8 Q106.8,19.7 107.7,19.1 L106.8,17.6 Q106.3,17.9 106.0,18.0 Q105.7,18.1 105.2,18.1 Q104.1,18.1 103.8,17.9 Q103.4,17.7 103.2,16.6 L107.8,16.6 Q107.9,16.5 107.9,16.2 Q108.0,16.0 108.0,15.6 Q108.0,13.7 107.4,12.8 Q106.8,12.0 104.5,12.0 Q102.6,12.0 101.7,12.8 Q100.7,13.6 100.7,15.9 Q100.7,18.5 101.6,19.2 Q102.5,20.0 104.8,20.0 Z M103.1,15.0 Q103.3,14.3 103.6,14.1 Q103.9,13.9 104.6,13.9 Q105.5,13.9 105.7,14.1 Q105.8,14.4 105.8,15.0 L103.1,15.0 Z"/><path d="M111.4,20.0 Q112.3,20.0 112.7,19.8 Q113.0,19.6 113.7,19.0 L113.8,19.0 L113.9,20.0 L116.0,20.0 L116.0,15.6 Q116.0,13.2 115.4,12.6 Q114.8,12.0 112.7,12.0 Q111.5,12.0 110.9,12.2 Q110.4,12.4 109.3,13.1 L110.2,14.7 Q111.0,14.2 111.3,14.1 Q111.6,14.0 112.3,14.0 Q113.1,14.0 113.3,14.2 Q113.4,14.4 113.5,15.0 Q110.4,15.3 109.7,15.8 Q109.1,16.2 109.1,17.8 Q109.1,18.9 109.5,19.5 Q109.9,20.0 111.4,20.0 Z M112.3,18.1 Q111.8,18.1 111.6,18.0 Q111.4,17.9 111.4,17.4 Q111.4,16.9 111.7,16.7 Q111.9,16.5 113.5,16.3 L113.5,17.5 Q113.1,17.9 112.9,18.0 Q112.8,18.1 112.3,18.1 Z"/><path d="M120.0,20.0 Q122.1,20.0 122.7,19.4 Q123.3,18.9 123.3,17.5 Q123.3,16.1 122.7,15.9 Q122.2,15.6 121.2,15.2 Q120.4,15.0 120.0,14.9 Q119.7,14.8 119.7,14.4 Q119.7,14.0 119.8,13.9 Q120.0,13.8 120.5,13.8 Q121.1,13.8 121.3,14.0 Q121.6,14.1 122.2,14.5 L123.3,13.0 Q122.6,12.5 122.2,12.3 Q121.7,12.0 120.4,12.0 Q118.6,12.0 118.0,12.5 Q117.4,13.0 117.4,14.5 Q117.4,15.7 117.9,16.0 Q118.4,16.3 119.4,16.6 Q120.2,16.9 120.6,17.0 Q121.0,17.2 121.0,17.6 Q121.0,18.0 120.8,18.1 Q120.7,18.2 120.0,18.2 Q119.4,18.2 119.1,18.0 Q118.8,17.9 118.0,17.4 L116.9,18.9 Q117.7,19.6 118.3,19.8 Q118.9,20.0 120.0,20.0 Z"/><path d="M128.3,20.0 Q130.3,20.0 131.2,19.2 Q132.2,18.5 132.2,16.0 Q132.2,13.5 131.2,12.8 Q130.3,12.0 128.3,12.0 Q126.2,12.0 125.3,12.8 Q124.3,13.5 124.3,16.0 Q124.3,18.5 125.3,19.2 Q126.2,20.0 128.3,20.0 Z M128.3,18.0 Q127.3,18.0 127.1,17.6 Q126.9,17.2 126.9,16.0 Q126.9,14.8 127.1,14.4 Q127.3,14.0 128.3,14.0 Q129.2,14.0 129.4,14.4 Q129.6,14.8 129.6,16.0 Q129.6,17.2 129.4,17.6 Q129.2,18.0 128.3,18.0 Z"/><path d="M134.0,20.0 L136.5,20.0 L136.5,14.8 Q137.0,14.4 137.1,14.3 Q137.3,14.1 137.9,14.1 Q138.5,14.1 138.6,14.3 Q138.8,14.4 138.8,15.5 L138.8,20.0 L141.3,20.0 L141.3,15.2 Q141.3,13.2 140.9,12.6 Q140.5,12.0 138.8,12.0 Q137.7,12.0 137.3,12.3 Q136.9,12.5 136.3,13.2 L136.2,13.2 L136.0,12.0 L134.0,12.0 L134.0,20.0 Z"/><path d="M143.2,20.0 L145.7,20.0 L145.7,12.0 L143.2,12.0 L143.2,20.0 Z M144.5,11.0 Q145.3,11.0 145.6,10.8 Q145.8,10.5 145.8,9.7 Q145.8,9.0 145.6,8.7 Q145.3,8.4 144.5,8.4 Q143.6,8.4 143.3,8.7 Q143.1,9.0 143.1,9.7 Q143.1,10.5 143.3,10.8 Q143.6,11.0 144.5,11.0 Z"/><path d="M148.4,20.0 L150.9,20.0 L150.9,14.8 Q151.4,14.4 151.5,14.3 Q151.7,14.1 152.3,14.1 Q152.9,14.1 153.0,14.3 Q153.2,14.4 153.2,15.5 L153.2,20.0 L155.7,20.0 L155.7,15.2 Q155.7,13.2 155.3,12.6 Q154.9,12.0 153.2,12.0 Q152.1,12.0 151.7,12.3 Q151.3,12.5 150.7,13.2 L150.6,13.2 L150.4,12.0 L148.4,12.0 L148.4,20.0 Z"/><path d="M160.5,23.6 Q163.2,23.6 164.1,23.0 Q165.0,22.4 165.0,20.2 Q165.0,18.7 164.4,18.4 Q163.9,18.1 161.9,18.1 L160.6,18.1 Q159.8,18.1 159.6,18.1 Q159.5,18.0 159.5,17.8 Q159.5,17.6 159.5,17.6 Q159.6,17.5 159.7,17.4 Q160.1,17.5 160.2,17.5 Q160.4,17.5 160.6,17.5 Q162.4,17.5 163.1,17.1 Q163.8,16.7 163.8,14.8 Q163.8,14.4 163.8,14.2 Q163.7,14.0 163.6,13.8 L164.8,13.8 L164.8,12.0 L161.9,12.0 Q161.6,12.1 161.3,12.0 Q161.1,12.0 160.6,12.0 Q158.9,12.0 158.1,12.5 Q157.3,13.0 157.3,14.8 Q157.3,15.7 157.6,16.1 Q157.8,16.4 158.4,16.8 L158.4,16.9 Q157.9,17.2 157.7,17.5 Q157.5,17.7 157.5,18.0 Q157.5,18.7 157.7,18.9 Q157.8,19.1 158.2,19.4 L158.2,19.5 Q157.5,19.8 157.3,20.2 Q157.1,20.5 157.1,21.4 Q157.1,23.0 157.9,23.3 Q158.6,23.6 160.5,23.6 Z M160.6,16.0 Q160.1,16.0 159.9,15.8 Q159.6,15.6 159.6,14.8 Q159.6,14.1 159.9,13.9 Q160.1,13.7 160.6,13.7 Q161.2,13.7 161.5,13.9 Q161.7,14.1 161.7,14.8 Q161.7,15.6 161.5,15.8 Q161.2,16.0 160.6,16.0 Z M160.8,22.0 Q159.8,22.0 159.5,21.8 Q159.2,21.6 159.2,20.9 Q159.2,20.5 159.2,20.3 Q159.3,20.2 159.5,19.9 Q159.8,20.0 159.9,20.0 Q160.1,20.0 160.7,20.0 L161.4,20.0 Q162.2,20.0 162.4,20.1 Q162.6,20.1 162.6,20.8 Q162.6,21.5 162.2,21.7 Q161.9,22.0 160.8,22.0 Z"/></g>
  
</svg>
