<svg xmlns="http://www.w3.org/2000/svg" viewBox="0 0 214 30" width="214" height="30" role="img" aria-label="evidence-argument-chain">
  <rect x="0.5" y="0.5" width="213" height="29" rx="5" fill="#f4e9d6"/>
  <rect x="0" y="0" width="4" height="30" rx="2" fill="#a8702a"/>
  <g fill="#2a2d34"><path d="M22.6,20.0 Q23.5,20.0 24.1,19.8 Q24.6,19.7 25.5,19.1 L24.6,17.6 Q24.1,17.9 23.8,18.0 Q23.5,18.1 23.0,18.1 Q21.9,18.1 21.6,17.9 Q21.2,17.7 21.0,16.6 L25.6,16.6 Q25.7,16.5 25.7,16.2 Q25.8,16.0 25.8,15.6 Q25.8,13.7 25.2,12.8 Q24.6,12.0 22.3,12.0 Q20.4,12.0 19.5,12.8 Q18.5,13.6 18.5,15.9 Q18.5,18.5 19.4,19.2 Q20.3,20.0 22.6,20.0 Z M20.9,15.0 Q21.1,14.3 21.4,14.1 Q21.7,13.9 22.4,13.9 Q23.3,13.9 23.5,14.1 Q23.6,14.4 23.6,15.0 L20.9,15.0 Z"/><path d="M29.0,20.0 L31.9,20.0 L34.5,12.0 L32.1,12.0 L31.1,15.7 Q30.9,16.5 30.8,16.9 Q30.7,17.3 30.5,18.2 L30.5,18.2 Q30.2,17.3 30.2,16.9 Q30.1,16.5 29.9,15.7 L28.9,12.0 L26.4,12.0 L29.0,20.0 Z"/><path d="M36.4,20.0 L38.9,20.0 L38.9,12.0 L36.4,12.0 L36.4,20.0 Z M37.6,11.0 Q38.5,11.0 38.8,10.8 Q39.0,10.5 39.0,9.7 Q39.0,9.0 38.8,8.7 Q38.5,8.4 37.6,8.4 Q36.8,8.4 36.5,8.7 Q36.3,9.0 36.3,9.7 Q36.3,10.5 36.5,10.8 Q36.8,11.0 37.6,11.0 Z"/><path d="M44.5,20.0 Q45.2,20.0 45.6,19.8 Q46.0,19.6 46.6,19.0 L46.6,19.0 L46.8,20.0 L48.8,20.0 L48.8,9.0 L46.3,9.0 L46.3,11.6 L46.4,12.8 Q45.9,12.3 45.6,12.2 Q45.4,12.0 44.5,12.0 Q42.8,12.0 42.0,12.8 Q41.2,13.6 41.2,16.1 Q41.2,18.4 41.8,19.2 Q42.5,20.0 44.5,20.0 Z M45.1,18.0 Q44.3,18.0 44.0,17.7 Q43.8,17.4 43.8,16.0 Q43.8,14.6 44.1,14.3 Q44.4,14.0 45.1,14.0 Q45.5,14.0 45.7,14.1 Q45.9,14.2 46.3,14.5 L46.3,17.3 Q46.0,17.8 45.8,17.9 Q45.6,18.0 45.1,18.0 Z"/><path d="M54.4,20.0 Q55.3,20.0 55.9,19.8 Q56.4,19.7 57.3,19.1 L56.4,17.6 Q55.9,17.9 55.6,18.0 Q55.3,18.1 54.8,18.1 Q53.7,18.1 53.4,17.9 Q53.0,17.7 52.8,16.6 L57.4,16.6 Q57.5,16.5 57.5,16.2 Q57.5,16.0 57.5,15.6 Q57.5,13.7 57.0,12.8 Q56.4,12.0 54.1,12.0 Q52.2,12.0 51.3,12.8 Q50.3,13.6 50.3,15.9 Q50.3,18.5 51.2,19.2 Q52.1,20.0 54.4,20.0 Z M52.7,15.0 Q52.9,14.3 53.2,14.1 Q53.5,13.9 54.2,13.9 Q55.1,13.9 55.3,14.1 Q55.4,14.4 55.4,15.0 L52.7,15.0 Z"/><path d="M59.0,20.0 L61.5,20.0 L61.5,14.8 Q62.0,14.4 62.1,14.3 Q62.3,14.1 62.9,14.1 Q63.5,14.1 63.6,14.3 Q63.8,14.4 63.8,15.5 L63.8,20.0 L66.3,20.0 L66.3,15.2 Q66.3,13.2 65.9,12.6 Q65.5,12.0 63.8,12.0 Q62.7,12.0 62.3,12.3 Q61.9,12.5 61.2,13.2 L61.2,13.2 L61.0,12.0 L59.0,12.0 L59.0,20.0 Z"/><path d="M71.7,20.0 Q72.6,20.0 73.1,19.9 Q73.6,19.8 74.4,19.1 L73.4,17.5 Q73.0,17.8 72.7,17.9 Q72.5,18.0 72.0,18.0 Q71.0,18.0 70.7,17.6 Q70.3,17.2 70.3,16.0 Q70.3,14.8 70.6,14.4 Q71.0,14.0 72.1,14.0 Q72.4,14.0 72.6,14.1 Q72.7,14.1 73.1,14.4 L74.3,12.9 Q73.7,12.3 73.3,12.2 Q72.9,12.0 71.9,12.0 Q69.7,12.0 68.7,12.8 Q67.7,13.5 67.7,16.0 Q67.7,18.5 68.6,19.2 Q69.5,20.0 71.7,20.0 Z"/><path d="M80.0,20.0 Q80.9,20.0 81.5,19.8 Q82.0,19.7 82.9,19.1 L82.0,17.6 Q81.5,17.9 81.2,18.0 Q80.9,18.1 80.4,18.1 Q79.3,18.1 79.0,17.9 Q78.6,17.7 78.4,16.6 L83.0,16.6 Q83.1,16.5 83.1,16.2 Q83.2,16.0 83.2,15.6 Q83.2,13.7 82.6,12.8 Q82.0,12.0 79.7,12.0 Q77.8,12.0 76.9,12.8 Q75.9,13.6 75.9,15.9 Q75.9,18.5 76.8,19.2 Q77.7,20.0 80.0,20.0 Z M78.3,15.0 Q78.5,14.3 78.8,14.1 Q79.1,13.9 79.8,13.9 Q80.7,13.9 80.9,14.1 Q81.0,14.4 81.0,15.0 L78.3,15.0 Z"/><path d="M84.3,16.8 L88.3,16.8 L88.3,15.0 L84.3,15.0 L84.3,16.8 Z"/><path d="M91.8,20.0 Q92.7,20.0 93.1,19.8 Q93.4,19.6 94.1,19.0 L94.2,19.0 L94.3,20.0 L96.4,20.0 L96.4,15.6 Q96.4,13.2 95.8,12.6 Q95.2,12.0 93.1,12.0 Q91.9,12.0 91.3,12.2 Q90.8,12.4 89.7,13.1 L90.6,14.7 Q91.4,14.2 91.7,14.1 Q92.0,14.0 92.7,14.0 Q93.5,14.0 93.7,14.2 Q93.8,14.4 93.9,15.0 Q90.8,15.3 90.1,15.8 Q89.5,16.2 89.5,17.8 Q89.5,18.9 89.9,19.5 Q90.3,20.0 91.8,20.0 Z M92.7,18.1 Q92.2,18.1 92.0,18.0 Q91.8,17.9 91.8,17.4 Q91.8,16.9 92.1,16.7 Q92.3,16.5 93.9,16.3 L93.9,17.5 Q93.5,17.9 93.3,18.0 Q93.2,18.1 92.7,18.1 Z"/><path d="M98.0,20.0 L100.5,20.0 L100.5,15.5 Q100.9,14.6 101.3,14.4 Q101.6,14.2 102.2,14.2 Q102.5,14.2 102.7,14.2 Q102.8,14.2 103.1,14.3 L103.5,12.0 Q103.3,12.1 103.1,12.0 Q103.0,12.0 102.5,12.0 Q101.7,12.0 101.3,12.3 Q100.8,12.5 100.3,13.6 L100.2,13.6 L100.0,12.0 L98.0,12.0 L98.0,20.0 Z"/><path d="M108.1,23.6 Q110.8,23.6 111.7,23.0 Q112.6,22.4 112.6,20.2 Q112.6,18.7 112.0,18.4 Q111.5,18.1 109.5,18.1 L108.2,18.1 Q107.4,18.1 107.2,18.1 Q107.1,18.0 107.1,17.8 Q107.1,17.6 107.1,17.6 Q107.2,17.5 107.3,17.4 Q107.7,17.5 107.8,17.5 Q108.0,17.5 108.2,17.5 Q110.0,17.5 110.7,17.1 Q111.4,16.7 111.4,14.8 Q111.4,14.4 111.4,14.2 Q111.3,14.0 111.2,13.8 L112.5,13.8 L112.5,12.0 L109.5,12.0 Q109.2,12.1 108.9,12.0 Q108.7,12.0 108.2,12.0 Q106.5,12.0 105.7,12.5 Q104.9,13.0 104.9,14.8 Q104.9,15.7 105.2,16.1 Q105.4,16.4 106.0,16.8 L106.0,16.9 Q105.5,17.2 105.3,17.5 Q105.1,17.7 105.1,18.0 Q105.1,18.7 105.3,18.9 Q105.4,19.1 105.8,19.4 L105.8,19.5 Q105.1,19.8 104.9,20.2 Q104.7,20.5 104.7,21.4 Q104.7,23.0 105.5,23.3 Q106.2,23.6 108.1,23.6 Z M108.2,16.0 Q107.7,16.0 107.5,15.8 Q107.2,15.6 107.2,14.8 Q107.2,14.1 107.5,13.9 Q107.7,13.7 108.2,13.7 Q108.8,13.7 109.1,13.9 Q109.3,14.1 109.3,14.8 Q109.3,15.6 109.1,15.8 Q108.8,16.0 108.2,16.0 Z M108.5,22.0 Q107.4,22.0 107.1,21.8 Q106.8,21.6 106.8,20.9 Q106.8,20.5 106.8,20.3 Q106.9,20.2 107.1,19.9 Q107.4,20.0 107.5,20.0 Q107.7,20.0 108.3,20.0 L109.0,20.0 Q109.8,20.0 110.0,20.1 Q110.2,20.1 110.2,20.8 Q110.2,21.5 109.8,21.7 Q109.5,22.0 108.5,22.0 Z"/><path d="M116.8,20.0 Q117.9,20.0 118.3,19.8 Q118.6,19.5 119.3,18.7 L119.4,18.7 L119.5,20.0 L121.6,20.0 L121.6,12.0 L119.1,12.0 L119.1,17.1 Q118.7,17.7 118.5,17.8 Q118.3,17.9 117.7,17.9 Q117.1,17.9 117.0,17.7 Q116.8,17.6 116.8,16.5 L116.8,12.0 L114.3,12.0 L114.3,16.8 Q114.3,18.8 114.7,19.4 Q115.1,20.0 116.8,20.0 Z"/><path d="M123.6,20.0 L126.1,20.0 L126.1,14.8 Q126.6,14.4 126.8,14.2 Q127.0,14.1 127.4,14.1 Q128.0,14.1 128.1,14.3 Q128.3,14.4 128.3,15.5 L128.3,20.0 L130.8,20.0 L130.8,14.8 Q131.3,14.4 131.5,14.2 Q131.7,14.1 132.1,14.1 Q132.7,14.1 132.8,14.3 Q133.0,14.4 133.0,15.5 L133.0,20.0 L135.4,20.0 L135.4,15.2 Q135.4,13.2 135.1,12.6 Q134.7,12.0 133.0,12.0 Q131.9,12.0 131.5,12.3 Q131.1,12.6 130.5,13.3 Q130.1,12.5 129.7,12.2 Q129.4,12.0 128.3,12.0 Q127.2,12.0 126.9,12.3 Q126.5,12.5 125.9,13.2 L125.8,13.2 L125.6,12.0 L123.6,12.0 L123.6,20.0 Z"/><path d="M141.4,20.0 Q142.3,20.0 142.9,19.8 Q143.4,19.7 144.3,19.1 L143.4,17.6 Q142.9,17.9 142.6,18.0 Q142.3,18.1 141.8,18.1 Q140.7,18.1 140.4,17.9 Q140.0,17.7 139.8,16.6 L144.4,16.6 Q144.5,16.5 144.5,16.2 Q144.6,16.0 144.6,15.6 Q144.6,13.7 144.0,12.8 Q143.4,12.0 141.1,12.0 Q139.2,12.0 138.3,12.8 Q137.3,13.6 137.3,15.9 Q137.3,18.5 138.2,19.2 Q139.1,20.0 141.4,20.0 Z M139.7,15.0 Q139.9,14.3 140.2,14.1 Q140.5,13.9 141.2,13.9 Q142.1,13.9 142.3,14.1 Q142.4,14.4 142.4,15.0 L139.7,15.0 Z"/><path d="M146.0,20.0 L148.5,20.0 L148.5,14.8 Q149.0,14.4 149.1,14.3 Q149.3,14.1 149.9,14.1 Q150.5,14.1 150.6,14.3 Q150.8,14.4 150.8,15.5 L150.8,20.0 L153.3,20.0 L153.3,15.2 Q153.3,13.2 152.9,12.6 Q152.5,12.0 150.8,12.0 Q149.7,12.0 149.3,12.3 Q148.9,12.5 148.2,13.2 L148.2,13.2 L148.0,12.0 L146.0,12.0 L146.0,20.0 Z"/><path d="M158.3,20.0 Q159.2,20.0 159.4,19.9 Q159.7,19.8 160.2,19.7 L159.7,17.9 Q159.6,18.0 159.4,18.0 Q159.3,18.1 159.0,18.1 Q158.4,18.1 158.2,17.9 Q158.0,17.7 158.0,16.9 L158.0,14.0 L159.9,14.0 L159.9,12.0 L158.0,12.0 L158.0,9.9 L155.9,9.9 L155.7,12.0 L154.4,12.1 L154.4,14.0 L155.5,14.0 L155.5,16.9 Q155.5,18.7 155.9,19.4 Q156.3,20.0 158.3,20.0 Z"/><path d="M161.1,16.8 L165.1,16.8 L165.1,15.0 L161.1,15.0 L161.1,16.8 Z"/><path d="M170.1,20.0 Q171.0,20.0 171.5,19.9 Q172.0,19.8 172.8,19.1 L171.8,17.5 Q171.4,17.8 171.1,17.9 Q170.9,18.0 170.4,18.0 Q169.4,18.0 169.1,17.6 Q168.7,17.2 168.7,16.0 Q168.7,14.8 169.0,14.4 Q169.4,14.0 170.5,14.0 Q170.8,14.0 171.0,14.1 Q171.1,14.1 171.5,14.4 L172.7,12.9 Q172.1,12.3 171.7,12.2 Q171.3,12.0 170.3,12.0 Q168.1,12.0 167.1,12.8 Q166.1,13.5 166.1,16.0 Q166.1,18.5 167.0,19.2 Q167.9,20.0 170.1,20.0 Z"/><path d="M174.8,20.0 L177.3,20.0 L177.3,14.8 Q177.8,14.4 177.9,14.3 Q178.1,14.1 178.7,14.1 Q179.3,14.1 179.4,14.3 Q179.6,14.4 179.6,15.5 L179.6,20.0 L182.1,20.0 L182.1,15.2 Q182.1,13.2 181.7,12.6 Q181.3,12.0 179.6,12.0 Q178.5,12.0 178.1,12.3 Q177.7,12.5 177.2,13.1 L177.3,11.7 L177.3,9.0 L174.8,9.0 L174.8,20.0 Z"/><path d="M186.0,20.0 Q186.9,20.0 187.3,19.8 Q187.6,19.6 188.3,19.0 L188.4,19.0 L188.5,20.0 L190.6,20.0 L190.6,15.6 Q190.6,13.2 190.0,12.6 Q189.4,12.0 187.3,12.0 Q186.1,12.0 185.5,12.2 Q185.0,12.4 183.9,13.1 L184.8,14.7 Q185.6,14.2 185.9,14.1 Q186.2,14.0 186.9,14.0 Q187.7,14.0 187.9,14.2 Q188.0,14.4 188.1,15.0 Q185.0,15.3 184.3,15.8 Q183.7,16.2 183.7,17.8 Q183.7,18.9 184.1,19.5 Q184.5,20.0 186.0,20.0 Z M186.9,18.1 Q186.4,18.1 186.2,18.0 Q186.0,17.9 186.0,17.4 Q186.0,16.9 186.3,16.7 Q186.5,16.5 188.1,16.3 L188.1,17.5 Q187.7,17.9 187.5,18.0 Q187.4,18.1 186.9,18.1 Z"/><path d="M192.2,20.0 L194.7,20.0 L194.7,12.0 L192.2,12.0 L192.2,20.0 Z M193.4,11.0 Q194.3,11.0 194.6,10.8 Q194.8,10.5 194.8,9.7 Q194.8,9.0 194.6,8.7 Q194.3,8.4 193.4,8.4 Q192.6,8.4 192.3,8.7 Q192.1,9.0 192.1,9.7 Q192.1,10.5 192.3,10.8 Q192.6,11.0 193.4,11.0 Z"/><path d="M197.4,20.0 L199.9,20.0 L199.9,14.8 Q200.4,14.4 200.5,14.3 Q200.7,14.1 201.3,14.1 Q201.9,14.1 202.0,14.3 Q202.2,14.4 202.2,15.5 L202.2,20.0 L204.7,20.0 L204.7,15.2 Q204.7,13.2 204.3,12.6 Q203.9,12.0 202.2,12.0 Q201.1,12.0 200.7,12.3 Q200.3,12.5 199.6,13.2 L199.6,13.2 L199.4,12.0 L197.4,12.0 L197.4,20.0 Z"/></g>
  
</svg>
