<svg xmlns="http://www.w3.org/2000/svg" viewBox="0 0 286 30" width="286" height="30" role="img" aria-label="normative-meaning-argumentation">
  <rect x="0.5" y="0.5" width="285" height="29" rx="5" fill="#ece6f3"/>
  <rect x="0" y="0" width="4" height="30" rx="2" fill="#6f5a9c"/>
  <g fill="#2a2d34"><path d="M19.0,20.0 L21.5,20.0 L21.5,14.8 Q22.0,14.4 22.1,14.3 Q22.3,14.1 22.9,14.1 Q23.5,14.1 23.6,14.3 Q23.8,14.4 23.8,15.5 L23.8,20.0 L26.3,20.0 L26.3,15.2 Q26.3,13.2 25.9,12.6 Q25.5,12.0 23.8,12.0 Q22.7,12.0 22.3,12.3 Q21.9,12.5 21.2,13.2 L21.2,13.2 L21.0,12.0 L19.0,12.0 L19.0,20.0 Z"/><path d="M31.7,20.0 Q33.7,20.0 34.6,19.2 Q35.6,18.5 35.6,16.0 Q35.6,13.5 34.6,12.8 Q33.7,12.0 31.7,12.0 Q29.6,12.0 28.7,12.8 Q27.7,13.5 27.7,16.0 Q27.7,18.5 28.7,19.2 Q29.6,20.0 31.7,20.0 Z M31.7,18.0 Q30.7,18.0 30.5,17.6 Q30.3,17.2 30.3,16.0 Q30.3,14.8 30.5,14.4 Q30.7,14.0 31.7,14.0 Q32.6,14.0 32.8,14.4 Q33.0,14.8 33.0,16.0 Q33.0,17.2 32.8,17.6 Q32.6,18.0 31.7,18.0 Z"/><path d="M37.4,20.0 L39.9,20.0 L39.9,15.5 Q40.3,14.6 40.7,14.4 Q41.0,14.2 41.6,14.2 Q41.9,14.2 42.1,14.2 Q42.2,14.2 42.5,14.3 L42.9,12.0 Q42.7,12.1 42.5,12.0 Q42.4,12.0 41.9,12.0 Q41.1,12.0 40.7,12.3 Q40.2,12.5 39.6,13.6 L39.6,13.6 L39.4,12.0 L37.4,12.0 L37.4,20.0 Z"/><path d="M44.6,20.0 L47.1,20.0 L47.1,14.8 Q47.6,14.4 47.8,14.2 Q48.0,14.1 48.4,14.1 Q49.0,14.1 49.1,14.3 Q49.3,14.4 49.3,15.5 L49.3,20.0 L51.8,20.0 L51.8,14.8 Q52.3,14.4 52.5,14.2 Q52.7,14.1 53.1,14.1 Q53.7,14.1 53.8,14.3 Q54.0,14.4 54.0,15.5 L54.0,20.0 L56.4,20.0 L56.4,15.2 Q56.4,13.2 56.1,12.6 Q55.7,12.0 54.0,12.0 Q52.9,12.0 52.5,12.3 Q52.1,12.6 51.5,13.3 Q51.1,12.5 50.7,12.2 Q50.4,12.0 49.3,12.0 Q48.2,12.0 47.9,12.3 Q47.5,12.5 46.9,13.2 L46.8,13.2 L46.6,12.0 L44.6,12.0 L44.6,20.0 Z"/><path d="M60.8,20.0 Q61.7,20.0 62.1,19.8 Q62.4,19.6 63.1,19.0 L63.2,19.0 L63.3,20.0 L65.4,20.0 L65.4,15.6 Q65.4,13.2 64.8,12.6 Q64.2,12.0 62.1,12.0 Q60.9,12.0 60.3,12.2 Q59.8,12.4 58.7,13.1 L59.6,14.7 Q60.4,14.2 60.7,14.1 Q61.0,14.0 61.7,14.0 Q62.5,14.0 62.7,14.2 Q62.8,14.4 62.9,15.0 Q59.8,15.3 59.1,15.8 Q58.5,16.2 58.5,17.8 Q58.5,18.9 58.9,19.5 Q59.3,20.0 60.8,20.0 Z M61.7,18.1 Q61.2,18.1 61.0,18.0 Q60.8,17.9 60.8,17.4 Q60.8,16.9 61.1,16.7 Q61.3,16.5 62.9,16.3 L62.9,17.5 Q62.5,17.9 62.3,18.0 Q62.2,18.1 61.7,18.1 Z"/><path d="M70.1,20.0 Q71.0,20.0 71.2,19.9 Q71.5,19.8 72.0,19.7 L71.5,17.9 Q71.4,18.0 71.2,18.0 Q71.1,18.1 70.8,18.1 Q70.2,18.1 70.0,17.9 Q69.8,17.7 69.8,16.9 L69.8,14.0 L71.7,14.0 L71.7,12.0 L69.8,12.0 L69.8,9.9 L67.8,9.9 L67.5,12.0 L66.2,12.1 L66.2,14.0 L67.3,14.0 L67.3,16.9 Q67.3,18.7 67.7,19.4 Q68.1,20.0 70.1,20.0 Z"/><path d="M73.2,20.0 L75.7,20.0 L75.7,12.0 L73.2,12.0 L73.2,20.0 Z M74.5,11.0 Q75.3,11.0 75.6,10.8 Q75.8,10.5 75.8,9.7 Q75.8,9.0 75.6,8.7 Q75.3,8.4 74.5,8.4 Q73.6,8.4 73.3,8.7 Q73.1,9.0 73.1,9.7 Q73.1,10.5 73.3,10.8 Q73.6,11.0 74.5,11.0 Z"/><path d="M80.2,20.0 L83.1,20.0 L85.7,12.0 L83.3,12.0 L82.3,15.7 Q82.1,16.5 82.0,16.9 Q81.9,17.3 81.7,18.2 L81.7,18.2 Q81.4,17.3 81.4,16.9 Q81.3,16.5 81.1,15.7 L80.1,12.0 L77.6,12.0 L80.2,20.0 Z"/><path d="M91.2,20.0 Q92.1,20.0 92.7,19.8 Q93.2,19.7 94.1,19.1 L93.2,17.6 Q92.7,17.9 92.4,18.0 Q92.1,18.1 91.6,18.1 Q90.5,18.1 90.2,17.9 Q89.8,17.7 89.6,16.6 L94.2,16.6 Q94.3,16.5 94.3,16.2 Q94.4,16.0 94.4,15.6 Q94.4,13.7 93.8,12.8 Q93.2,12.0 90.9,12.0 Q89.0,12.0 88.1,12.8 Q87.1,13.6 87.1,15.9 Q87.1,18.5 88.0,19.2 Q88.9,20.0 91.2,20.0 Z M89.5,15.0 Q89.7,14.3 90.0,14.1 Q90.3,13.9 91.0,13.9 Q91.9,13.9 92.1,14.1 Q92.2,14.4 92.2,15.0 L89.5,15.0 Z"/><path d="M95.5,16.8 L99.5,16.8 L99.5,15.0 L95.5,15.0 L95.5,16.8 Z"/><path d="M101.0,20.0 L103.5,20.0 L103.5,14.8 Q104.0,14.4 104.2,14.2 Q104.4,14.1 104.8,14.1 Q105.4,14.1 105.5,14.3 Q105.7,14.4 105.7,15.5 L105.7,20.0 L108.2,20.0 L108.2,14.8 Q108.7,14.4 108.9,14.2 Q109.1,14.1 109.5,14.1 Q110.1,14.1 110.2,14.3 Q110.4,14.4 110.4,15.5 L110.4,20.0 L112.8,20.0 L112.8,15.2 Q112.8,13.2 112.5,12.6 Q112.1,12.0 110.4,12.0 Q109.3,12.0 108.9,12.3 Q108.5,12.6 107.9,13.3 Q107.5,12.5 107.1,12.2 Q106.8,12.0 105.7,12.0 Q104.6,12.0 104.3,12.3 Q103.9,12.5 103.3,13.2 L103.2,13.2 L103.0,12.0 L101.0,12.0 L101.0,20.0 Z"/><path d="M118.8,20.0 Q119.7,20.0 120.3,19.8 Q120.8,19.7 121.7,19.1 L120.8,17.6 Q120.3,17.9 120.0,18.0 Q119.7,18.1 119.2,18.1 Q118.1,18.1 117.8,17.9 Q117.4,17.7 117.2,16.6 L121.8,16.6 Q121.9,16.5 121.9,16.2 Q122.0,16.0 122.0,15.6 Q122.0,13.7 121.4,12.8 Q120.8,12.0 118.5,12.0 Q116.6,12.0 115.7,12.8 Q114.7,13.6 114.7,15.9 Q114.7,18.5 115.6,19.2 Q116.5,20.0 118.8,20.0 Z M117.1,15.0 Q117.3,14.3 117.6,14.1 Q117.9,13.9 118.6,13.9 Q119.5,13.9 119.7,14.1 Q119.8,14.4 119.8,15.0 L117.1,15.0 Z"/><path d="M125.4,20.0 Q126.3,20.0 126.7,19.8 Q127.0,19.6 127.7,19.0 L127.8,19.0 L127.9,20.0 L130.0,20.0 L130.0,15.6 Q130.0,13.2 129.4,12.6 Q128.8,12.0 126.7,12.0 Q125.5,12.0 124.9,12.2 Q124.4,12.4 123.3,13.1 L124.2,14.7 Q125.0,14.2 125.3,14.1 Q125.6,14.0 126.3,14.0 Q127.1,14.0 127.3,14.2 Q127.4,14.4 127.5,15.0 Q124.4,15.3 123.7,15.8 Q123.1,16.2 123.1,17.8 Q123.1,18.9 123.5,19.5 Q123.9,20.0 125.4,20.0 Z M126.3,18.1 Q125.8,18.1 125.6,18.0 Q125.4,17.9 125.4,17.4 Q125.4,16.9 125.7,16.7 Q125.9,16.5 127.5,16.3 L127.5,17.5 Q127.1,17.9 126.9,18.0 Q126.8,18.1 126.3,18.1 Z"/><path d="M131.6,20.0 L134.1,20.0 L134.1,14.8 Q134.6,14.4 134.7,14.3 Q134.9,14.1 135.5,14.1 Q136.1,14.1 136.2,14.3 Q136.4,14.4 136.4,15.5 L136.4,20.0 L138.9,20.0 L138.9,15.2 Q138.9,13.2 138.5,12.6 Q138.1,12.0 136.4,12.0 Q135.3,12.0 134.9,12.3 Q134.5,12.5 133.9,13.2 L133.8,13.2 L133.6,12.0 L131.6,12.0 L131.6,20.0 Z"/><path d="M140.8,20.0 L143.3,20.0 L143.3,12.0 L140.8,12.0 L140.8,20.0 Z M142.1,11.0 Q142.9,11.0 143.2,10.8 Q143.4,10.5 143.4,9.7 Q143.4,9.0 143.2,8.7 Q142.9,8.4 142.1,8.4 Q141.2,8.4 140.9,8.7 Q140.7,9.0 140.7,9.7 Q140.7,10.5 140.9,10.8 Q141.2,11.0 142.1,11.0 Z"/><path d="M146.0,20.0 L148.5,20.0 L148.5,14.8 Q149.0,14.4 149.1,14.3 Q149.3,14.1 149.9,14.1 Q150.5,14.1 150.6,14.3 Q150.8,14.4 150.8,15.5 L150.8,20.0 L153.3,20.0 L153.3,15.2 Q153.3,13.2 152.9,12.6 Q152.5,12.0 150.8,12.0 Q149.7,12.0 149.3,12.3 Q148.9,12.5 148.2,13.2 L148.2,13.2 L148.0,12.0 L146.0,12.0 L146.0,20.0 Z"/><path d="M158.1,23.6 Q160.8,23.6 161.7,23.0 Q162.6,22.4 162.6,20.2 Q162.6,18.7 162.0,18.4 Q161.5,18.1 159.5,18.1 L158.2,18.1 Q157.4,18.1 157.2,18.1 Q157.1,18.0 157.1,17.8 Q157.1,17.6 157.1,17.6 Q157.2,17.5 157.3,17.4 Q157.7,17.5 157.8,17.5 Q158.0,17.5 158.2,17.5 Q160.0,17.5 160.7,17.1 Q161.4,16.7 161.4,14.8 Q161.4,14.4 161.4,14.2 Q161.3,14.0 161.2,13.8 L162.4,13.8 L162.4,12.0 L159.5,12.0 Q159.2,12.1 158.9,12.0 Q158.7,12.0 158.2,12.0 Q156.5,12.0 155.7,12.5 Q154.9,13.0 154.9,14.8 Q154.9,15.7 155.2,16.1 Q155.4,16.4 156.0,16.8 L156.0,16.9 Q155.5,17.2 155.3,17.5 Q155.1,17.7 155.1,18.0 Q155.1,18.7 155.3,18.9 Q155.4,19.1 155.8,19.4 L155.8,19.5 Q155.1,19.8 154.9,20.2 Q154.7,20.5 154.7,21.4 Q154.7,23.0 155.5,23.3 Q156.2,23.6 158.1,23.6 Z M158.2,16.0 Q157.7,16.0 157.5,15.8 Q157.2,15.6 157.2,14.8 Q157.2,14.1 157.5,13.9 Q157.7,13.7 158.2,13.7 Q158.8,13.7 159.1,13.9 Q159.3,14.1 159.3,14.8 Q159.3,15.6 159.1,15.8 Q158.8,16.0 158.2,16.0 Z M158.4,22.0 Q157.4,22.0 157.1,21.8 Q156.8,21.6 156.8,20.9 Q156.8,20.5 156.8,20.3 Q156.9,20.2 157.1,19.9 Q157.4,20.0 157.5,20.0 Q157.7,20.0 158.3,20.0 L159.0,20.0 Q159.8,20.0 160.0,20.1 Q160.2,20.1 160.2,20.8 Q160.2,21.5 159.8,21.7 Q159.5,22.0 158.4,22.0 Z"/><path d="M164.1,16.8 L168.1,16.8 L168.1,15.0 L164.1,15.0 L164.1,16.8 Z"/><path d="M171.6,20.0 Q172.5,20.0 172.9,19.8 Q173.2,19.6 173.9,19.0 L174.0,19.0 L174.1,20.0 L176.2,20.0 L176.2,15.6 Q176.2,13.2 175.6,12.6 Q175.0,12.0 172.9,12.0 Q171.7,12.0 171.1,12.2 Q170.6,12.4 169.5,13.1 L170.4,14.7 Q171.2,14.2 171.5,14.1 Q171.8,14.0 172.5,14.0 Q173.3,14.0 173.5,14.2 Q173.6,14.4 173.7,15.0 Q170.6,15.3 169.9,15.8 Q169.3,16.2 169.3,17.8 Q169.3,18.9 169.7,19.5 Q170.1,20.0 171.6,20.0 Z M172.5,18.1 Q172.0,18.1 171.8,18.0 Q171.6,17.9 171.6,17.4 Q171.6,16.9 171.9,16.7 Q172.1,16.5 173.7,16.3 L173.7,17.5 Q173.3,17.9 173.1,18.0 Q173.0,18.1 172.5,18.1 Z"/><path d="M177.8,20.0 L180.3,20.0 L180.3,15.5 Q180.7,14.6 181.1,14.4 Q181.4,14.2 182.0,14.2 Q182.3,14.2 182.5,14.2 Q182.6,14.2 182.9,14.3 L183.3,12.0 Q183.1,12.1 182.9,12.0 Q182.8,12.0 182.3,12.0 Q181.5,12.0 181.1,12.3 Q180.6,12.5 180.0,13.6 L180.0,13.6 L179.8,12.0 L177.8,12.0 L177.8,20.0 Z"/><path d="M187.9,23.6 Q190.6,23.6 191.5,23.0 Q192.4,22.4 192.4,20.2 Q192.4,18.7 191.8,18.4 Q191.3,18.1 189.3,18.1 L188.0,18.1 Q187.2,18.1 187.0,18.1 Q186.9,18.0 186.9,17.8 Q186.9,17.6 186.9,17.6 Q187.0,17.5 187.1,17.4 Q187.5,17.5 187.6,17.5 Q187.8,17.5 188.0,17.5 Q189.8,17.5 190.5,17.1 Q191.2,16.7 191.2,14.8 Q191.2,14.4 191.2,14.2 Q191.1,14.0 191.0,13.8 L192.2,13.8 L192.2,12.0 L189.3,12.0 Q189.0,12.1 188.7,12.0 Q188.5,12.0 188.0,12.0 Q186.3,12.0 185.5,12.5 Q184.7,13.0 184.7,14.8 Q184.7,15.7 185.0,16.1 Q185.2,16.4 185.8,16.8 L185.8,16.9 Q185.3,17.2 185.1,17.5 Q184.9,17.7 184.9,18.0 Q184.9,18.7 185.1,18.9 Q185.2,19.1 185.6,19.4 L185.6,19.5 Q184.9,19.8 184.7,20.2 Q184.5,20.5 184.5,21.4 Q184.5,23.0 185.3,23.3 Q186.0,23.6 187.9,23.6 Z M188.0,16.0 Q187.5,16.0 187.3,15.8 Q187.0,15.6 187.0,14.8 Q187.0,14.1 187.3,13.9 Q187.5,13.7 188.0,13.7 Q188.6,13.7 188.9,13.9 Q189.1,14.1 189.1,14.8 Q189.1,15.6 188.9,15.8 Q188.6,16.0 188.0,16.0 Z M188.2,22.0 Q187.2,22.0 186.9,21.8 Q186.6,21.6 186.6,20.9 Q186.6,20.5 186.6,20.3 Q186.7,20.2 186.9,19.9 Q187.2,20.0 187.3,20.0 Q187.5,20.0 188.1,20.0 L188.8,20.0 Q189.6,20.0 189.8,20.1 Q190.0,20.1 190.0,20.8 Q190.0,21.5 189.6,21.7 Q189.3,22.0 188.2,22.0 Z"/><path d="M196.6,20.0 Q197.7,20.0 198.1,19.8 Q198.4,19.5 199.1,18.7 L199.2,18.7 L199.3,20.0 L201.4,20.0 L201.4,12.0 L198.9,12.0 L198.9,17.1 Q198.4,17.7 198.3,17.8 Q198.1,17.9 197.5,17.9 Q196.9,17.9 196.8,17.7 Q196.6,17.6 196.6,16.5 L196.6,12.0 L194.1,12.0 L194.1,16.8 Q194.1,18.8 194.5,19.4 Q194.9,20.0 196.6,20.0 Z"/><path d="M203.4,20.0 L205.9,20.0 L205.9,14.8 Q206.4,14.4 206.6,14.2 Q206.8,14.1 207.1,14.1 Q207.8,14.1 207.9,14.3 Q208.1,14.4 208.1,15.5 L208.1,20.0 L210.6,20.0 L210.6,14.8 Q211.1,14.4 211.3,14.2 Q211.5,14.1 211.9,14.1 Q212.5,14.1 212.6,14.3 Q212.8,14.4 212.8,15.5 L212.8,20.0 L215.2,20.0 L215.2,15.2 Q215.2,13.2 214.9,12.6 Q214.5,12.0 212.8,12.0 Q211.7,12.0 211.3,12.3 Q210.9,12.6 210.3,13.3 Q209.9,12.5 209.5,12.2 Q209.2,12.0 208.1,12.0 Q207.0,12.0 206.7,12.3 Q206.3,12.5 205.6,13.2 L205.6,13.2 L205.4,12.0 L203.4,12.0 L203.4,20.0 Z"/><path d="M221.2,20.0 Q222.1,20.0 222.7,19.8 Q223.2,19.7 224.1,19.1 L223.2,17.6 Q222.7,17.9 222.4,18.0 Q222.1,18.1 221.6,18.1 Q220.5,18.1 220.2,17.9 Q219.8,17.7 219.6,16.6 L224.2,16.6 Q224.3,16.5 224.3,16.2 Q224.3,16.0 224.3,15.6 Q224.3,13.7 223.8,12.8 Q223.2,12.0 220.9,12.0 Q219.0,12.0 218.1,12.8 Q217.1,13.6 217.1,15.9 Q217.1,18.5 218.0,19.2 Q218.9,20.0 221.2,20.0 Z M219.5,15.0 Q219.7,14.3 220.0,14.1 Q220.3,13.9 221.0,13.9 Q221.9,13.9 222.1,14.1 Q222.2,14.4 222.2,15.0 L219.5,15.0 Z"/><path d="M225.8,20.0 L228.3,20.0 L228.3,14.8 Q228.8,14.4 228.9,14.3 Q229.1,14.1 229.7,14.1 Q230.3,14.1 230.4,14.3 Q230.6,14.4 230.6,15.5 L230.6,20.0 L233.1,20.0 L233.1,15.2 Q233.1,13.2 232.7,12.6 Q232.3,12.0 230.6,12.0 Q229.5,12.0 229.1,12.3 Q228.7,12.5 228.0,13.2 L228.0,13.2 L227.8,12.0 L225.8,12.0 L225.8,20.0 Z"/><path d="M238.1,20.0 Q239.0,20.0 239.2,19.9 Q239.5,19.8 240.0,19.7 L239.5,17.9 Q239.4,18.0 239.2,18.0 Q239.1,18.1 238.8,18.1 Q238.2,18.1 238.0,17.9 Q237.8,17.7 237.8,16.9 L237.8,14.0 L239.7,14.0 L239.7,12.0 L237.8,12.0 L237.8,9.9 L235.7,9.9 L235.5,12.0 L234.2,12.1 L234.2,14.0 L235.3,14.0 L235.3,16.9 Q235.3,18.7 235.7,19.4 Q236.1,20.0 238.1,20.0 Z"/><path d="M243.2,20.0 Q244.1,20.0 244.5,19.8 Q244.8,19.6 245.5,19.0 L245.6,19.0 L245.7,20.0 L247.8,20.0 L247.8,15.6 Q247.8,13.2 247.2,12.6 Q246.6,12.0 244.5,12.0 Q243.3,12.0 242.7,12.2 Q242.2,12.4 241.1,13.1 L242.0,14.7 Q242.8,14.2 243.1,14.1 Q243.4,14.0 244.1,14.0 Q244.9,14.0 245.1,14.2 Q245.2,14.4 245.3,15.0 Q242.2,15.3 241.5,15.8 Q240.9,16.2 240.9,17.8 Q240.9,18.9 241.3,19.5 Q241.7,20.0 243.2,20.0 Z M244.1,18.1 Q243.6,18.1 243.4,18.0 Q243.2,17.9 243.2,17.4 Q243.2,16.9 243.5,16.7 Q243.7,16.5 245.3,16.3 L245.3,17.5 Q244.9,17.9 244.7,18.0 Q244.6,18.1 244.1,18.1 Z"/><path d="M252.5,20.0 Q253.4,20.0 253.6,19.9 Q253.9,19.8 254.4,19.7 L253.9,17.9 Q253.8,18.0 253.6,18.0 Q253.5,18.1 253.2,18.1 Q252.6,18.1 252.4,17.9 Q252.2,17.7 252.2,16.9 L252.2,14.0 L254.1,14.0 L254.1,12.0 L252.2,12.0 L252.2,9.9 L250.1,9.9 L249.9,12.0 L248.6,12.1 L248.6,14.0 L249.7,14.0 L249.7,16.9 Q249.7,18.7 250.1,19.4 Q250.5,20.0 252.5,20.0 Z"/><path d="M255.6,20.0 L258.1,20.0 L258.1,12.0 L255.6,12.0 L255.6,20.0 Z M256.8,11.0 Q257.7,11.0 258.0,10.8 Q258.2,10.5 258.2,9.7 Q258.2,9.0 258.0,8.7 Q257.7,8.4 256.8,8.4 Q256.0,8.4 255.7,8.7 Q255.5,9.0 255.5,9.7 Q255.5,10.5 255.7,10.8 Q256.0,11.0 256.8,11.0 Z"/><path d="M264.3,20.0 Q266.3,20.0 267.2,19.2 Q268.2,18.5 268.2,16.0 Q268.2,13.5 267.2,12.8 Q266.3,12.0 264.3,12.0 Q262.2,12.0 261.3,12.8 Q260.3,13.5 260.3,16.0 Q260.3,18.5 261.3,19.2 Q262.2,20.0 264.3,20.0 Z M264.3,18.0 Q263.3,18.0 263.1,17.6 Q262.9,17.2 262.9,16.0 Q262.9,14.8 263.1,14.4 Q263.3,14.0 264.3,14.0 Q265.2,14.0 265.4,14.4 Q265.6,14.8 265.6,16.0 Q265.6,17.2 265.4,17.6 Q265.2,18.0 264.3,18.0 Z"/><path d="M270.0,20.0 L272.5,20.0 L272.5,14.8 Q273.0,14.4 273.1,14.3 Q273.3,14.1 273.9,14.1 Q274.5,14.1 274.6,14.3 Q274.8,14.4 274.8,15.5 L274.8,20.0 L277.3,20.0 L277.3,15.2 Q277.3,13.2 276.9,12.6 Q276.5,12.0 274.8,12.0 Q273.7,12.0 273.3,12.3 Q272.9,12.5 272.2,13.2 L272.2,13.2 L272.0,12.0 L270.0,12.0 L270.0,20.0 Z"/></g>
  
</svg>
