<svg xmlns="http://www.w3.org/2000/svg" viewBox="0 0 262 30" width="262" height="30" role="img" aria-label="multi-document-summarization">
  <rect x="0.5" y="0.5" width="261" height="29" rx="5" fill="#e7efdd"/>
  <rect x="0" y="0" width="4" height="30" rx="2" fill="#5a7d3f"/>
  <g fill="#2a2d34"><path d="M19.0,20.0 L21.5,20.0 L21.5,14.8 Q22.0,14.4 22.2,14.2 Q22.4,14.1 22.8,14.1 Q23.4,14.1 23.5,14.3 Q23.7,14.4 23.7,15.5 L23.7,20.0 L26.2,20.0 L26.2,14.8 Q26.7,14.4 26.9,14.2 Q27.1,14.1 27.5,14.1 Q28.1,14.1 28.2,14.3 Q28.4,14.4 28.4,15.5 L28.4,20.0 L30.8,20.0 L30.8,15.2 Q30.8,13.2 30.5,12.6 Q30.1,12.0 28.4,12.0 Q27.3,12.0 26.9,12.3 Q26.5,12.6 25.9,13.3 Q25.5,12.5 25.1,12.2 Q24.8,12.0 23.7,12.0 Q22.6,12.0 22.3,12.3 Q21.9,12.5 21.2,13.2 L21.2,13.2 L21.0,12.0 L19.0,12.0 L19.0,20.0 Z"/><path d="M35.6,20.0 Q36.7,20.0 37.1,19.8 Q37.4,19.5 38.1,18.7 L38.2,18.7 L38.3,20.0 L40.4,20.0 L40.4,12.0 L37.9,12.0 L37.9,17.1 Q37.5,17.7 37.3,17.8 Q37.1,17.9 36.5,17.9 Q35.9,17.9 35.8,17.7 Q35.6,17.6 35.6,16.5 L35.6,12.0 L33.1,12.0 L33.1,16.8 Q33.1,18.8 33.5,19.4 Q33.9,20.0 35.6,20.0 Z"/><path d="M44.7,20.0 Q45.2,20.0 45.4,20.0 Q45.6,19.9 45.9,19.8 L45.6,18.0 Q45.5,18.0 45.4,18.0 Q45.4,18.0 45.3,18.0 Q45.1,18.0 45.0,17.9 Q44.9,17.8 44.9,17.3 L44.9,8.6 L42.4,8.6 L42.4,17.2 Q42.4,18.9 42.7,19.4 Q43.0,20.0 44.7,20.0 Z"/><path d="M50.7,20.0 Q51.6,20.0 51.8,19.9 Q52.1,19.8 52.6,19.7 L52.1,17.9 Q52.0,18.0 51.8,18.0 Q51.7,18.1 51.4,18.1 Q50.8,18.1 50.6,17.9 Q50.4,17.7 50.4,16.9 L50.4,14.0 L52.3,14.0 L52.3,12.0 L50.4,12.0 L50.4,9.9 L48.4,9.9 L48.1,12.0 L46.9,12.1 L46.9,14.0 L47.9,14.0 L47.9,16.9 Q47.9,18.7 48.3,19.4 Q48.7,20.0 50.7,20.0 Z"/><path d="M53.8,20.0 L56.3,20.0 L56.3,12.0 L53.8,12.0 L53.8,20.0 Z M55.1,11.0 Q55.9,11.0 56.2,10.8 Q56.4,10.5 56.4,9.7 Q56.4,9.0 56.2,8.7 Q55.9,8.4 55.1,8.4 Q54.2,8.4 53.9,8.7 Q53.7,9.0 53.7,9.7 Q53.7,10.5 53.9,10.8 Q54.2,11.0 55.1,11.0 Z"/><path d="M58.7,16.8 L62.7,16.8 L62.7,15.0 L58.7,15.0 L58.7,16.8 Z"/><path d="M67.1,20.0 Q67.8,20.0 68.2,19.8 Q68.6,19.6 69.2,19.0 L69.2,19.0 L69.4,20.0 L71.4,20.0 L71.4,9.0 L68.9,9.0 L68.9,11.6 L69.0,12.8 Q68.5,12.3 68.2,12.2 Q68.0,12.0 67.1,12.0 Q65.4,12.0 64.6,12.8 Q63.8,13.6 63.8,16.1 Q63.8,18.4 64.4,19.2 Q65.1,20.0 67.1,20.0 Z M67.7,18.0 Q66.9,18.0 66.6,17.7 Q66.4,17.4 66.4,16.0 Q66.4,14.6 66.7,14.3 Q67.0,14.0 67.7,14.0 Q68.1,14.0 68.3,14.1 Q68.5,14.2 68.9,14.5 L68.9,17.3 Q68.6,17.8 68.4,17.9 Q68.2,18.0 67.7,18.0 Z"/><path d="M76.9,20.0 Q78.9,20.0 79.8,19.2 Q80.8,18.5 80.8,16.0 Q80.8,13.5 79.8,12.8 Q78.9,12.0 76.9,12.0 Q74.8,12.0 73.9,12.8 Q72.9,13.5 72.9,16.0 Q72.9,18.5 73.9,19.2 Q74.8,20.0 76.9,20.0 Z M76.9,18.0 Q75.9,18.0 75.7,17.6 Q75.5,17.2 75.5,16.0 Q75.5,14.8 75.7,14.4 Q75.9,14.0 76.9,14.0 Q77.8,14.0 78.0,14.4 Q78.2,14.8 78.2,16.0 Q78.2,17.2 78.0,17.6 Q77.8,18.0 76.9,18.0 Z"/><path d="M86.1,20.0 Q87.0,20.0 87.5,19.9 Q88.0,19.8 88.8,19.1 L87.8,17.5 Q87.4,17.8 87.1,17.9 Q86.9,18.0 86.4,18.0 Q85.4,18.0 85.1,17.6 Q84.7,17.2 84.7,16.0 Q84.7,14.8 85.0,14.4 Q85.4,14.0 86.5,14.0 Q86.8,14.0 87.0,14.1 Q87.1,14.1 87.5,14.4 L88.7,12.9 Q88.1,12.3 87.7,12.2 Q87.3,12.0 86.3,12.0 Q84.1,12.0 83.1,12.8 Q82.1,13.5 82.1,16.0 Q82.1,18.5 83.0,19.2 Q83.9,20.0 86.1,20.0 Z"/><path d="M93.2,20.0 Q94.3,20.0 94.7,19.8 Q95.0,19.5 95.7,18.7 L95.8,18.7 L95.9,20.0 L98.0,20.0 L98.0,12.0 L95.5,12.0 L95.5,17.1 Q95.1,17.7 94.9,17.8 Q94.7,17.9 94.1,17.9 Q93.5,17.9 93.4,17.7 Q93.2,17.6 93.2,16.5 L93.2,12.0 L90.7,12.0 L90.7,16.8 Q90.7,18.8 91.1,19.4 Q91.5,20.0 93.2,20.0 Z"/><path d="M100.0,20.0 L102.5,20.0 L102.5,14.8 Q103.0,14.4 103.2,14.2 Q103.4,14.1 103.8,14.1 Q104.4,14.1 104.5,14.3 Q104.7,14.4 104.7,15.5 L104.7,20.0 L107.2,20.0 L107.2,14.8 Q107.7,14.4 107.9,14.2 Q108.1,14.1 108.5,14.1 Q109.1,14.1 109.2,14.3 Q109.4,14.4 109.4,15.5 L109.4,20.0 L111.8,20.0 L111.8,15.2 Q111.8,13.2 111.5,12.6 Q111.1,12.0 109.4,12.0 Q108.3,12.0 107.9,12.3 Q107.5,12.6 106.9,13.3 Q106.5,12.5 106.1,12.2 Q105.8,12.0 104.7,12.0 Q103.6,12.0 103.3,12.3 Q102.9,12.5 102.3,13.2 L102.2,13.2 L102.0,12.0 L100.0,12.0 L100.0,20.0 Z"/><path d="M117.8,20.0 Q118.7,20.0 119.3,19.8 Q119.8,19.7 120.7,19.1 L119.8,17.6 Q119.3,17.9 119.0,18.0 Q118.7,18.1 118.2,18.1 Q117.1,18.1 116.8,17.9 Q116.4,17.7 116.2,16.6 L120.8,16.6 Q120.9,16.5 120.9,16.2 Q121.0,16.0 121.0,15.6 Q121.0,13.7 120.4,12.8 Q119.8,12.0 117.5,12.0 Q115.6,12.0 114.7,12.8 Q113.7,13.6 113.7,15.9 Q113.7,18.5 114.6,19.2 Q115.5,20.0 117.8,20.0 Z M116.1,15.0 Q116.3,14.3 116.6,14.1 Q116.9,13.9 117.6,13.9 Q118.5,13.9 118.7,14.1 Q118.8,14.4 118.8,15.0 L116.1,15.0 Z"/><path d="M122.4,20.0 L124.9,20.0 L124.9,14.8 Q125.4,14.4 125.5,14.3 Q125.7,14.1 126.3,14.1 Q126.9,14.1 127.0,14.3 Q127.2,14.4 127.2,15.5 L127.2,20.0 L129.7,20.0 L129.7,15.2 Q129.7,13.2 129.3,12.6 Q128.9,12.0 127.2,12.0 Q126.1,12.0 125.7,12.3 Q125.3,12.5 124.7,13.2 L124.6,13.2 L124.4,12.0 L122.4,12.0 L122.4,20.0 Z"/><path d="M134.7,20.0 Q135.6,20.0 135.8,19.9 Q136.1,19.8 136.6,19.7 L136.1,17.9 Q136.0,18.0 135.8,18.0 Q135.7,18.1 135.4,18.1 Q134.8,18.1 134.6,17.9 Q134.4,17.7 134.4,16.9 L134.4,14.0 L136.3,14.0 L136.3,12.0 L134.4,12.0 L134.4,9.9 L132.4,9.9 L132.1,12.0 L130.9,12.1 L130.9,14.0 L131.9,14.0 L131.9,16.9 Q131.9,18.7 132.3,19.4 Q132.7,20.0 134.7,20.0 Z"/><path d="M137.5,16.8 L141.5,16.8 L141.5,15.0 L137.5,15.0 L137.5,16.8 Z"/><path d="M145.4,20.0 Q147.5,20.0 148.1,19.4 Q148.7,18.9 148.7,17.5 Q148.7,16.1 148.1,15.9 Q147.6,15.6 146.6,15.2 Q145.8,15.0 145.4,14.9 Q145.1,14.8 145.1,14.4 Q145.1,14.0 145.2,13.9 Q145.4,13.8 145.9,13.8 Q146.5,13.8 146.7,14.0 Q147.0,14.1 147.6,14.5 L148.7,13.0 Q148.0,12.5 147.6,12.3 Q147.1,12.0 145.8,12.0 Q144.0,12.0 143.4,12.5 Q142.8,13.0 142.8,14.5 Q142.8,15.7 143.3,16.0 Q143.8,16.3 144.8,16.6 Q145.6,16.9 146.0,17.0 Q146.4,17.2 146.4,17.6 Q146.4,18.0 146.2,18.1 Q146.1,18.2 145.4,18.2 Q144.8,18.2 144.5,18.0 Q144.2,17.9 143.4,17.4 L142.3,18.9 Q143.1,19.6 143.7,19.8 Q144.3,20.0 145.4,20.0 Z"/><path d="M152.6,20.0 Q153.7,20.0 154.1,19.8 Q154.4,19.5 155.1,18.7 L155.2,18.7 L155.3,20.0 L157.4,20.0 L157.4,12.0 L154.9,12.0 L154.9,17.1 Q154.4,17.7 154.3,17.8 Q154.1,17.9 153.5,17.9 Q152.9,17.9 152.8,17.7 Q152.6,17.6 152.6,16.5 L152.6,12.0 L150.1,12.0 L150.1,16.8 Q150.1,18.8 150.5,19.4 Q150.9,20.0 152.6,20.0 Z"/><path d="M159.4,20.0 L161.9,20.0 L161.9,14.8 Q162.4,14.4 162.6,14.2 Q162.8,14.1 163.1,14.1 Q163.8,14.1 163.9,14.3 Q164.1,14.4 164.1,15.5 L164.1,20.0 L166.6,20.0 L166.6,14.8 Q167.1,14.4 167.3,14.2 Q167.5,14.1 167.9,14.1 Q168.5,14.1 168.6,14.3 Q168.8,14.4 168.8,15.5 L168.8,20.0 L171.2,20.0 L171.2,15.2 Q171.2,13.2 170.9,12.6 Q170.5,12.0 168.8,12.0 Q167.7,12.0 167.3,12.3 Q166.9,12.6 166.3,13.3 Q165.9,12.5 165.5,12.2 Q165.2,12.0 164.1,12.0 Q163.0,12.0 162.7,12.3 Q162.3,12.5 161.6,13.2 L161.6,13.2 L161.4,12.0 L159.4,12.0 L159.4,20.0 Z"/><path d="M173.6,20.0 L176.1,20.0 L176.1,14.8 Q176.6,14.4 176.8,14.2 Q177.0,14.1 177.3,14.1 Q178.0,14.1 178.1,14.3 Q178.3,14.4 178.3,15.5 L178.3,20.0 L180.8,20.0 L180.8,14.8 Q181.3,14.4 181.5,14.2 Q181.7,14.1 182.1,14.1 Q182.7,14.1 182.8,14.3 Q183.0,14.4 183.0,15.5 L183.0,20.0 L185.4,20.0 L185.4,15.2 Q185.4,13.2 185.1,12.6 Q184.7,12.0 183.0,12.0 Q181.9,12.0 181.5,12.3 Q181.1,12.6 180.5,13.3 Q180.1,12.5 179.7,12.2 Q179.4,12.0 178.3,12.0 Q177.2,12.0 176.9,12.3 Q176.5,12.5 175.8,13.2 L175.8,13.2 L175.6,12.0 L173.6,12.0 L173.6,20.0 Z"/><path d="M189.8,20.0 Q190.7,20.0 191.1,19.8 Q191.4,19.6 192.1,19.0 L192.2,19.0 L192.3,20.0 L194.4,20.0 L194.4,15.6 Q194.4,13.2 193.8,12.6 Q193.2,12.0 191.1,12.0 Q189.9,12.0 189.3,12.2 Q188.8,12.4 187.7,13.1 L188.6,14.7 Q189.4,14.2 189.7,14.1 Q190.0,14.0 190.7,14.0 Q191.5,14.0 191.7,14.2 Q191.8,14.4 191.9,15.0 Q188.8,15.3 188.1,15.8 Q187.5,16.2 187.5,17.8 Q187.5,18.9 187.9,19.5 Q188.3,20.0 189.8,20.0 Z M190.7,18.1 Q190.2,18.1 190.0,18.0 Q189.8,17.9 189.8,17.4 Q189.8,16.9 190.1,16.7 Q190.3,16.5 191.9,16.3 L191.9,17.5 Q191.5,17.9 191.3,18.0 Q191.2,18.1 190.7,18.1 Z"/><path d="M196.0,20.0 L198.5,20.0 L198.5,15.5 Q198.9,14.6 199.3,14.4 Q199.6,14.2 200.2,14.2 Q200.5,14.2 200.7,14.2 Q200.8,14.2 201.1,14.3 L201.5,12.0 Q201.3,12.1 201.1,12.0 Q201.0,12.0 200.5,12.0 Q199.7,12.0 199.3,12.3 Q198.8,12.5 198.2,13.6 L198.2,13.6 L198.0,12.0 L196.0,12.0 L196.0,20.0 Z"/><path d="M203.2,20.0 L205.7,20.0 L205.7,12.0 L203.2,12.0 L203.2,20.0 Z M204.4,11.0 Q205.3,11.0 205.6,10.8 Q205.8,10.5 205.8,9.7 Q205.8,9.0 205.6,8.7 Q205.3,8.4 204.4,8.4 Q203.6,8.4 203.3,8.7 Q203.1,9.0 203.1,9.7 Q203.1,10.5 203.3,10.8 Q203.6,11.0 204.4,11.0 Z"/><path d="M208.0,20.0 L214.5,20.0 L214.5,18.1 L211.1,18.1 L214.4,13.3 L214.4,12.0 L208.4,12.0 L208.4,14.0 L211.2,14.0 L208.0,18.7 L208.0,20.0 Z"/><path d="M217.6,20.0 Q218.5,20.0 218.9,19.8 Q219.2,19.6 219.9,19.0 L220.0,19.0 L220.1,20.0 L222.2,20.0 L222.2,15.6 Q222.2,13.2 221.6,12.6 Q221.0,12.0 218.9,12.0 Q217.7,12.0 217.1,12.2 Q216.6,12.4 215.5,13.1 L216.4,14.7 Q217.2,14.2 217.5,14.1 Q217.8,14.0 218.5,14.0 Q219.3,14.0 219.5,14.2 Q219.6,14.4 219.7,15.0 Q216.6,15.3 215.9,15.8 Q215.3,16.2 215.3,17.8 Q215.3,18.9 215.7,19.5 Q216.1,20.0 217.6,20.0 Z M218.5,18.1 Q218.0,18.1 217.8,18.0 Q217.6,17.9 217.6,17.4 Q217.6,16.9 217.9,16.7 Q218.1,16.5 219.7,16.3 L219.7,17.5 Q219.3,17.9 219.1,18.0 Q219.0,18.1 218.5,18.1 Z"/><path d="M226.9,20.0 Q227.8,20.0 228.0,19.9 Q228.3,19.8 228.8,19.7 L228.3,17.9 Q228.2,18.0 228.0,18.0 Q227.9,18.1 227.6,18.1 Q227.0,18.1 226.8,17.9 Q226.6,17.7 226.6,16.9 L226.6,14.0 L228.5,14.0 L228.5,12.0 L226.6,12.0 L226.6,9.9 L224.5,9.9 L224.3,12.0 L223.0,12.1 L223.0,14.0 L224.1,14.0 L224.1,16.9 Q224.1,18.7 224.5,19.4 Q224.9,20.0 226.9,20.0 Z"/><path d="M230.0,20.0 L232.5,20.0 L232.5,12.0 L230.0,12.0 L230.0,20.0 Z M231.2,11.0 Q232.1,11.0 232.4,10.8 Q232.6,10.5 232.6,9.7 Q232.6,9.0 232.4,8.7 Q232.1,8.4 231.2,8.4 Q230.4,8.4 230.1,8.7 Q229.9,9.0 229.9,9.7 Q229.9,10.5 230.1,10.8 Q230.4,11.0 231.2,11.0 Z"/><path d="M238.7,20.0 Q240.7,20.0 241.6,19.2 Q242.6,18.5 242.6,16.0 Q242.6,13.5 241.6,12.8 Q240.7,12.0 238.7,12.0 Q236.6,12.0 235.7,12.8 Q234.7,13.5 234.7,16.0 Q234.7,18.5 235.7,19.2 Q236.6,20.0 238.7,20.0 Z M238.7,18.0 Q237.7,18.0 237.5,17.6 Q237.3,17.2 237.3,16.0 Q237.3,14.8 237.5,14.4 Q237.7,14.0 238.7,14.0 Q239.6,14.0 239.8,14.4 Q240.0,14.8 240.0,16.0 Q240.0,17.2 239.8,17.6 Q239.6,18.0 238.7,18.0 Z"/><path d="M244.4,20.0 L246.9,20.0 L246.9,14.8 Q247.4,14.4 247.5,14.3 Q247.7,14.1 248.3,14.1 Q248.9,14.1 249.0,14.3 Q249.2,14.4 249.2,15.5 L249.2,20.0 L251.7,20.0 L251.7,15.2 Q251.7,13.2 251.3,12.6 Q250.9,12.0 249.2,12.0 Q248.1,12.0 247.7,12.3 Q247.3,12.5 246.6,13.2 L246.6,13.2 L246.4,12.0 L244.4,12.0 L244.4,20.0 Z"/></g>
  
</svg>
