<svg xmlns="http://www.w3.org/2000/svg" viewBox="0 0 196 30" width="196" height="30" role="img" aria-label="legal-article-retrieval">
  <rect x="0.5" y="0.5" width="195" height="29" rx="5" fill="#e3e9f1"/>
  <rect x="0" y="0" width="4" height="30" rx="2" fill="#3a5a8c"/>
  <g fill="#2a2d34"><path d="M21.3,20.0 Q21.8,20.0 22.0,20.0 Q22.2,19.9 22.5,19.8 L22.2,18.0 Q22.1,18.0 22.0,18.0 Q22.0,18.0 21.9,18.0 Q21.7,18.0 21.6,17.9 Q21.5,17.8 21.5,17.3 L21.5,8.6 L19.0,8.6 L19.0,17.2 Q19.0,18.9 19.3,19.4 Q19.6,20.0 21.3,20.0 Z"/><path d="M27.8,20.0 Q28.7,20.0 29.3,19.8 Q29.8,19.7 30.7,19.1 L29.8,17.6 Q29.3,17.9 29.0,18.0 Q28.7,18.1 28.2,18.1 Q27.1,18.1 26.8,17.9 Q26.4,17.7 26.2,16.6 L30.8,16.6 Q30.9,16.5 30.9,16.2 Q30.9,16.0 30.9,15.6 Q30.9,13.7 30.4,12.8 Q29.8,12.0 27.5,12.0 Q25.6,12.0 24.7,12.8 Q23.7,13.6 23.7,15.9 Q23.7,18.5 24.6,19.2 Q25.5,20.0 27.8,20.0 Z M26.1,15.0 Q26.3,14.3 26.6,14.1 Q26.9,13.9 27.6,13.9 Q28.5,13.9 28.7,14.1 Q28.8,14.4 28.8,15.0 L26.1,15.0 Z"/><path d="M35.3,23.6 Q38.0,23.6 38.9,23.0 Q39.8,22.4 39.8,20.2 Q39.8,18.7 39.2,18.4 Q38.7,18.1 36.7,18.1 L35.4,18.1 Q34.6,18.1 34.4,18.1 Q34.3,18.0 34.3,17.8 Q34.3,17.6 34.3,17.6 Q34.4,17.5 34.5,17.4 Q34.9,17.5 35.0,17.5 Q35.2,17.5 35.4,17.5 Q37.2,17.5 37.9,17.1 Q38.6,16.7 38.6,14.8 Q38.6,14.4 38.6,14.2 Q38.5,14.0 38.4,13.8 L39.6,13.8 L39.6,12.0 L36.7,12.0 Q36.4,12.1 36.1,12.0 Q35.9,12.0 35.4,12.0 Q33.7,12.0 32.9,12.5 Q32.1,13.0 32.1,14.8 Q32.1,15.7 32.4,16.1 Q32.6,16.4 33.2,16.8 L33.2,16.9 Q32.7,17.2 32.5,17.5 Q32.3,17.7 32.3,18.0 Q32.3,18.7 32.5,18.9 Q32.6,19.1 33.0,19.4 L33.0,19.5 Q32.3,19.8 32.1,20.2 Q31.9,20.5 31.9,21.4 Q31.9,23.0 32.7,23.3 Q33.4,23.6 35.3,23.6 Z M35.4,16.0 Q34.9,16.0 34.7,15.8 Q34.4,15.6 34.4,14.8 Q34.4,14.1 34.7,13.9 Q34.9,13.7 35.4,13.7 Q36.0,13.7 36.3,13.9 Q36.5,14.1 36.5,14.8 Q36.5,15.6 36.3,15.8 Q36.0,16.0 35.4,16.0 Z M35.6,22.0 Q34.6,22.0 34.3,21.8 Q34.0,21.6 34.0,20.9 Q34.0,20.5 34.0,20.3 Q34.1,20.2 34.3,19.9 Q34.6,20.0 34.7,20.0 Q34.9,20.0 35.5,20.0 L36.2,20.0 Q37.0,20.0 37.2,20.1 Q37.4,20.1 37.4,20.8 Q37.4,21.5 37.0,21.7 Q36.7,22.0 35.6,22.0 Z"/><path d="M43.6,20.0 Q44.5,20.0 44.9,19.8 Q45.2,19.6 45.9,19.0 L46.0,19.0 L46.1,20.0 L48.2,20.0 L48.2,15.6 Q48.2,13.2 47.6,12.6 Q47.0,12.0 44.9,12.0 Q43.7,12.0 43.1,12.2 Q42.6,12.4 41.5,13.1 L42.4,14.7 Q43.2,14.2 43.5,14.1 Q43.8,14.0 44.5,14.0 Q45.3,14.0 45.5,14.2 Q45.6,14.4 45.7,15.0 Q42.6,15.3 41.9,15.8 Q41.3,16.2 41.3,17.8 Q41.3,18.9 41.7,19.5 Q42.1,20.0 43.6,20.0 Z M44.5,18.1 Q44.0,18.1 43.8,18.0 Q43.6,17.9 43.6,17.4 Q43.6,16.9 43.9,16.7 Q44.1,16.5 45.7,16.3 L45.7,17.5 Q45.3,17.9 45.1,18.0 Q45.0,18.1 44.5,18.1 Z"/><path d="M52.1,20.0 Q52.6,20.0 52.8,20.0 Q53.0,19.9 53.3,19.8 L53.0,18.0 Q52.9,18.0 52.8,18.0 Q52.8,18.0 52.7,18.0 Q52.5,18.0 52.4,17.9 Q52.3,17.8 52.3,17.3 L52.3,8.6 L49.8,8.6 L49.8,17.2 Q49.8,18.9 50.1,19.4 Q50.4,20.0 52.1,20.0 Z"/><path d="M54.7,16.8 L58.7,16.8 L58.7,15.0 L54.7,15.0 L54.7,16.8 Z"/><path d="M62.2,20.0 Q63.1,20.0 63.5,19.8 Q63.8,19.6 64.5,19.0 L64.6,19.0 L64.7,20.0 L66.8,20.0 L66.8,15.6 Q66.8,13.2 66.2,12.6 Q65.6,12.0 63.5,12.0 Q62.3,12.0 61.7,12.2 Q61.2,12.4 60.1,13.1 L61.0,14.7 Q61.8,14.2 62.1,14.1 Q62.4,14.0 63.1,14.0 Q63.9,14.0 64.1,14.2 Q64.2,14.4 64.3,15.0 Q61.2,15.3 60.5,15.8 Q59.9,16.2 59.9,17.8 Q59.9,18.9 60.3,19.5 Q60.7,20.0 62.2,20.0 Z M63.1,18.1 Q62.6,18.1 62.4,18.0 Q62.2,17.9 62.2,17.4 Q62.2,16.9 62.5,16.7 Q62.7,16.5 64.3,16.3 L64.3,17.5 Q63.9,17.9 63.7,18.0 Q63.6,18.1 63.1,18.1 Z"/><path d="M68.4,20.0 L70.9,20.0 L70.9,15.5 Q71.3,14.6 71.7,14.4 Q72.0,14.2 72.6,14.2 Q72.9,14.2 73.1,14.2 Q73.2,14.2 73.5,14.3 L73.9,12.0 Q73.7,12.1 73.5,12.0 Q73.4,12.0 72.9,12.0 Q72.1,12.0 71.7,12.3 Q71.2,12.5 70.7,13.6 L70.6,13.6 L70.4,12.0 L68.4,12.0 L68.4,20.0 Z"/><path d="M78.7,20.0 Q79.6,20.0 79.8,19.9 Q80.1,19.8 80.6,19.7 L80.1,17.9 Q80.0,18.0 79.8,18.0 Q79.7,18.1 79.4,18.1 Q78.8,18.1 78.6,17.9 Q78.4,17.7 78.4,16.9 L78.4,14.0 L80.3,14.0 L80.3,12.0 L78.4,12.0 L78.4,9.9 L76.4,9.9 L76.1,12.0 L74.9,12.1 L74.9,14.0 L75.9,14.0 L75.9,16.9 Q75.9,18.7 76.3,19.4 Q76.7,20.0 78.7,20.0 Z"/><path d="M81.8,20.0 L84.3,20.0 L84.3,12.0 L81.8,12.0 L81.8,20.0 Z M83.1,11.0 Q83.9,11.0 84.2,10.8 Q84.4,10.5 84.4,9.7 Q84.4,9.0 84.2,8.7 Q83.9,8.4 83.1,8.4 Q82.2,8.4 81.9,8.7 Q81.7,9.0 81.7,9.7 Q81.7,10.5 81.9,10.8 Q82.2,11.0 83.1,11.0 Z"/><path d="M90.5,20.0 Q91.4,20.0 91.9,19.9 Q92.4,19.8 93.2,19.1 L92.2,17.5 Q91.8,17.8 91.5,17.9 Q91.3,18.0 90.8,18.0 Q89.8,18.0 89.5,17.6 Q89.1,17.2 89.1,16.0 Q89.1,14.8 89.4,14.4 Q89.8,14.0 90.9,14.0 Q91.2,14.0 91.4,14.1 Q91.5,14.1 91.9,14.4 L93.1,12.9 Q92.5,12.3 92.1,12.2 Q91.7,12.0 90.7,12.0 Q88.5,12.0 87.5,12.8 Q86.5,13.5 86.5,16.0 Q86.5,18.5 87.4,19.2 Q88.3,20.0 90.5,20.0 Z"/><path d="M97.5,20.0 Q98.0,20.0 98.2,20.0 Q98.4,19.9 98.7,19.8 L98.4,18.0 Q98.3,18.0 98.2,18.0 Q98.2,18.0 98.1,18.0 Q97.9,18.0 97.8,17.9 Q97.7,17.8 97.7,17.3 L97.7,8.6 L95.2,8.6 L95.2,17.2 Q95.2,18.9 95.5,19.4 Q95.8,20.0 97.5,20.0 Z"/><path d="M104.0,20.0 Q104.9,20.0 105.5,19.8 Q106.0,19.7 106.9,19.1 L106.0,17.6 Q105.5,17.9 105.2,18.0 Q104.9,18.1 104.4,18.1 Q103.3,18.1 103.0,17.9 Q102.6,17.7 102.4,16.6 L107.0,16.6 Q107.1,16.5 107.1,16.2 Q107.2,16.0 107.2,15.6 Q107.2,13.7 106.6,12.8 Q106.0,12.0 103.7,12.0 Q101.8,12.0 100.9,12.8 Q99.9,13.6 99.9,15.9 Q99.9,18.5 100.8,19.2 Q101.7,20.0 104.0,20.0 Z M102.3,15.0 Q102.5,14.3 102.8,14.1 Q103.1,13.9 103.8,13.9 Q104.7,13.9 104.9,14.1 Q105.0,14.4 105.0,15.0 L102.3,15.0 Z"/><path d="M108.3,16.8 L112.3,16.8 L112.3,15.0 L108.3,15.0 L108.3,16.8 Z"/><path d="M113.8,20.0 L116.3,20.0 L116.3,15.5 Q116.7,14.6 117.1,14.4 Q117.4,14.2 118.0,14.2 Q118.3,14.2 118.5,14.2 Q118.6,14.2 118.9,14.3 L119.3,12.0 Q119.1,12.1 118.9,12.0 Q118.8,12.0 118.3,12.0 Q117.5,12.0 117.1,12.3 Q116.6,12.5 116.1,13.6 L116.0,13.6 L115.8,12.0 L113.8,12.0 L113.8,20.0 Z"/><path d="M124.6,20.0 Q125.5,20.0 126.1,19.8 Q126.6,19.7 127.5,19.1 L126.6,17.6 Q126.1,17.9 125.8,18.0 Q125.5,18.1 125.0,18.1 Q123.9,18.1 123.6,17.9 Q123.2,17.7 123.0,16.6 L127.6,16.6 Q127.7,16.5 127.7,16.2 Q127.8,16.0 127.8,15.6 Q127.8,13.7 127.2,12.8 Q126.6,12.0 124.3,12.0 Q122.4,12.0 121.5,12.8 Q120.5,13.6 120.5,15.9 Q120.5,18.5 121.4,19.2 Q122.3,20.0 124.6,20.0 Z M122.9,15.0 Q123.1,14.3 123.4,14.1 Q123.7,13.9 124.4,13.9 Q125.3,13.9 125.5,14.1 Q125.6,14.4 125.6,15.0 L122.9,15.0 Z"/><path d="M132.3,20.0 Q133.2,20.0 133.4,19.9 Q133.7,19.8 134.2,19.7 L133.7,17.9 Q133.6,18.0 133.4,18.0 Q133.3,18.1 133.0,18.1 Q132.4,18.1 132.2,17.9 Q132.0,17.7 132.0,16.9 L132.0,14.0 L133.9,14.0 L133.9,12.0 L132.0,12.0 L132.0,9.9 L130.0,9.9 L129.7,12.0 L128.5,12.1 L128.5,14.0 L129.5,14.0 L129.5,16.9 Q129.5,18.7 129.9,19.4 Q130.3,20.0 132.3,20.0 Z"/><path d="M135.4,20.0 L137.9,20.0 L137.9,15.5 Q138.3,14.6 138.7,14.4 Q139.0,14.2 139.6,14.2 Q139.9,14.2 140.1,14.2 Q140.2,14.2 140.5,14.3 L140.9,12.0 Q140.7,12.1 140.5,12.0 Q140.4,12.0 139.9,12.0 Q139.1,12.0 138.7,12.3 Q138.2,12.5 137.7,13.6 L137.6,13.6 L137.4,12.0 L135.4,12.0 L135.4,20.0 Z"/><path d="M142.6,20.0 L145.1,20.0 L145.1,12.0 L142.6,12.0 L142.6,20.0 Z M143.8,11.0 Q144.7,11.0 145.0,10.8 Q145.2,10.5 145.2,9.7 Q145.2,9.0 145.0,8.7 Q144.7,8.4 143.8,8.4 Q143.0,8.4 142.7,8.7 Q142.5,9.0 142.5,9.7 Q142.5,10.5 142.7,10.8 Q143.0,11.0 143.8,11.0 Z"/><path d="M151.4,20.0 Q152.3,20.0 152.9,19.8 Q153.4,19.7 154.3,19.1 L153.4,17.6 Q152.9,17.9 152.6,18.0 Q152.3,18.1 151.8,18.1 Q150.7,18.1 150.4,17.9 Q150.0,17.7 149.8,16.6 L154.4,16.6 Q154.5,16.5 154.5,16.2 Q154.5,16.0 154.5,15.6 Q154.5,13.7 154.0,12.8 Q153.4,12.0 151.1,12.0 Q149.2,12.0 148.3,12.8 Q147.3,13.6 147.3,15.9 Q147.3,18.5 148.2,19.2 Q149.1,20.0 151.4,20.0 Z M149.7,15.0 Q149.9,14.3 150.2,14.1 Q150.5,13.9 151.2,13.9 Q152.1,13.9 152.3,14.1 Q152.4,14.4 152.4,15.0 L149.7,15.0 Z"/><path d="M157.8,20.0 L160.7,20.0 L163.3,12.0 L160.9,12.0 L159.9,15.7 Q159.7,16.5 159.6,16.9 Q159.5,17.3 159.3,18.2 L159.3,18.2 Q159.0,17.3 159.0,16.9 Q158.9,16.5 158.7,15.7 L157.7,12.0 L155.2,12.0 L157.8,20.0 Z"/><path d="M167.2,20.0 Q168.1,20.0 168.5,19.8 Q168.8,19.6 169.5,19.0 L169.6,19.0 L169.7,20.0 L171.8,20.0 L171.8,15.6 Q171.8,13.2 171.2,12.6 Q170.6,12.0 168.5,12.0 Q167.3,12.0 166.7,12.2 Q166.2,12.4 165.1,13.1 L166.0,14.7 Q166.8,14.2 167.1,14.1 Q167.4,14.0 168.1,14.0 Q168.9,14.0 169.1,14.2 Q169.2,14.4 169.3,15.0 Q166.2,15.3 165.5,15.8 Q164.9,16.2 164.9,17.8 Q164.9,18.9 165.3,19.5 Q165.7,20.0 167.2,20.0 Z M168.1,18.1 Q167.6,18.1 167.4,18.0 Q167.2,17.9 167.2,17.4 Q167.2,16.9 167.5,16.7 Q167.7,16.5 169.3,16.3 L169.3,17.5 Q168.9,17.9 168.7,18.0 Q168.6,18.1 168.1,18.1 Z"/><path d="M175.7,20.0 Q176.2,20.0 176.4,20.0 Q176.6,19.9 176.9,19.8 L176.6,18.0 Q176.5,18.0 176.4,18.0 Q176.4,18.0 176.3,18.0 Q176.1,18.0 176.0,17.9 Q175.9,17.8 175.9,17.3 L175.9,8.6 L173.4,8.6 L173.4,17.2 Q173.4,18.9 173.7,19.4 Q174.0,20.0 175.7,20.0 Z"/></g>
  
</svg>
