<svg xmlns="http://www.w3.org/2000/svg" viewBox="0 0 248 30" width="248" height="30" role="img" aria-label="argument-chain-construction">
  <rect x="0.5" y="0.5" width="247" height="29" rx="5" fill="#f4e9d6"/>
  <rect x="0" y="0" width="4" height="30" rx="2" fill="#a8702a"/>
  <g fill="#2a2d34"><path d="M21.0,20.0 Q21.9,20.0 22.3,19.8 Q22.6,19.6 23.3,19.0 L23.4,19.0 L23.5,20.0 L25.6,20.0 L25.6,15.6 Q25.6,13.2 25.0,12.6 Q24.4,12.0 22.3,12.0 Q21.1,12.0 20.5,12.2 Q20.0,12.4 18.9,13.1 L19.8,14.7 Q20.6,14.2 20.9,14.1 Q21.2,14.0 21.9,14.0 Q22.7,14.0 22.9,14.2 Q23.0,14.4 23.1,15.0 Q20.0,15.3 19.3,15.8 Q18.7,16.2 18.7,17.8 Q18.7,18.9 19.1,19.5 Q19.5,20.0 21.0,20.0 Z M21.9,18.1 Q21.4,18.1 21.2,18.0 Q21.0,17.9 21.0,17.4 Q21.0,16.9 21.3,16.7 Q21.5,16.5 23.1,16.3 L23.1,17.5 Q22.7,17.9 22.5,18.0 Q22.4,18.1 21.9,18.1 Z"/><path d="M27.2,20.0 L29.7,20.0 L29.7,15.5 Q30.1,14.6 30.5,14.4 Q30.8,14.2 31.4,14.2 Q31.7,14.2 31.9,14.2 Q32.0,14.2 32.3,14.3 L32.7,12.0 Q32.5,12.1 32.3,12.0 Q32.2,12.0 31.7,12.0 Q30.9,12.0 30.5,12.3 Q30.0,12.5 29.4,13.6 L29.4,13.6 L29.2,12.0 L27.2,12.0 L27.2,20.0 Z"/><path d="M37.3,23.6 Q40.0,23.6 40.9,23.0 Q41.8,22.4 41.8,20.2 Q41.8,18.7 41.2,18.4 Q40.7,18.1 38.7,18.1 L37.4,18.1 Q36.6,18.1 36.4,18.1 Q36.3,18.0 36.3,17.8 Q36.3,17.6 36.3,17.6 Q36.4,17.5 36.5,17.4 Q36.9,17.5 37.0,17.5 Q37.2,17.5 37.4,17.5 Q39.2,17.5 39.9,17.1 Q40.6,16.7 40.6,14.8 Q40.6,14.4 40.6,14.2 Q40.5,14.0 40.4,13.8 L41.6,13.8 L41.6,12.0 L38.7,12.0 Q38.4,12.1 38.1,12.0 Q37.9,12.0 37.4,12.0 Q35.7,12.0 34.9,12.5 Q34.1,13.0 34.1,14.8 Q34.1,15.7 34.4,16.1 Q34.6,16.4 35.2,16.8 L35.2,16.9 Q34.7,17.2 34.5,17.5 Q34.3,17.7 34.3,18.0 Q34.3,18.7 34.5,18.9 Q34.6,19.1 35.0,19.4 L35.0,19.5 Q34.3,19.8 34.1,20.2 Q33.9,20.5 33.9,21.4 Q33.9,23.0 34.7,23.3 Q35.4,23.6 37.3,23.6 Z M37.4,16.0 Q36.9,16.0 36.7,15.8 Q36.4,15.6 36.4,14.8 Q36.4,14.1 36.7,13.9 Q36.9,13.7 37.4,13.7 Q38.0,13.7 38.3,13.9 Q38.5,14.1 38.5,14.8 Q38.5,15.6 38.3,15.8 Q38.0,16.0 37.4,16.0 Z M37.6,22.0 Q36.6,22.0 36.3,21.8 Q36.0,21.6 36.0,20.9 Q36.0,20.5 36.0,20.3 Q36.1,20.2 36.3,19.9 Q36.6,20.0 36.7,20.0 Q36.9,20.0 37.5,20.0 L38.2,20.0 Q39.0,20.0 39.2,20.1 Q39.4,20.1 39.4,20.8 Q39.4,21.5 39.0,21.7 Q38.7,22.0 37.6,22.0 Z"/><path d="M46.0,20.0 Q47.1,20.0 47.5,19.8 Q47.8,19.5 48.5,18.7 L48.6,18.7 L48.7,20.0 L50.8,20.0 L50.8,12.0 L48.3,12.0 L48.3,17.1 Q47.8,17.7 47.7,17.8 Q47.5,17.9 46.9,17.9 Q46.3,17.9 46.2,17.7 Q46.0,17.6 46.0,16.5 L46.0,12.0 L43.5,12.0 L43.5,16.8 Q43.5,18.8 43.9,19.4 Q44.3,20.0 46.0,20.0 Z"/><path d="M52.8,20.0 L55.3,20.0 L55.3,14.8 Q55.8,14.4 56.0,14.2 Q56.2,14.1 56.5,14.1 Q57.2,14.1 57.3,14.3 Q57.5,14.4 57.5,15.5 L57.5,20.0 L60.0,20.0 L60.0,14.8 Q60.5,14.4 60.7,14.2 Q60.9,14.1 61.3,14.1 Q61.9,14.1 62.0,14.3 Q62.2,14.4 62.2,15.5 L62.2,20.0 L64.6,20.0 L64.6,15.2 Q64.6,13.2 64.3,12.6 Q63.9,12.0 62.2,12.0 Q61.1,12.0 60.7,12.3 Q60.3,12.6 59.7,13.3 Q59.3,12.5 58.9,12.2 Q58.6,12.0 57.5,12.0 Q56.4,12.0 56.1,12.3 Q55.7,12.5 55.0,13.2 L55.0,13.2 L54.8,12.0 L52.8,12.0 L52.8,20.0 Z"/><path d="M70.6,20.0 Q71.5,20.0 72.1,19.8 Q72.6,19.7 73.5,19.1 L72.6,17.6 Q72.1,17.9 71.8,18.0 Q71.5,18.1 71.0,18.1 Q69.9,18.1 69.6,17.9 Q69.2,17.7 69.0,16.6 L73.6,16.6 Q73.7,16.5 73.7,16.2 Q73.8,16.0 73.8,15.6 Q73.8,13.7 73.2,12.8 Q72.6,12.0 70.3,12.0 Q68.4,12.0 67.5,12.8 Q66.5,13.6 66.5,15.9 Q66.5,18.5 67.4,19.2 Q68.3,20.0 70.6,20.0 Z M68.9,15.0 Q69.1,14.3 69.4,14.1 Q69.7,13.9 70.4,13.9 Q71.3,13.9 71.5,14.1 Q71.6,14.4 71.6,15.0 L68.9,15.0 Z"/><path d="M75.2,20.0 L77.7,20.0 L77.7,14.8 Q78.2,14.4 78.3,14.3 Q78.5,14.1 79.1,14.1 Q79.7,14.1 79.8,14.3 Q80.0,14.4 80.0,15.5 L80.0,20.0 L82.5,20.0 L82.5,15.2 Q82.5,13.2 82.1,12.6 Q81.7,12.0 80.0,12.0 Q78.9,12.0 78.5,12.3 Q78.1,12.5 77.5,13.2 L77.4,13.2 L77.2,12.0 L75.2,12.0 L75.2,20.0 Z"/><path d="M87.5,20.0 Q88.4,20.0 88.6,19.9 Q88.9,19.8 89.4,19.7 L88.9,17.9 Q88.8,18.0 88.6,18.0 Q88.5,18.1 88.2,18.1 Q87.6,18.1 87.4,17.9 Q87.2,17.7 87.2,16.9 L87.2,14.0 L89.1,14.0 L89.1,12.0 L87.2,12.0 L87.2,9.9 L85.2,9.9 L84.9,12.0 L83.7,12.1 L83.7,14.0 L84.7,14.0 L84.7,16.9 Q84.7,18.7 85.1,19.4 Q85.5,20.0 87.5,20.0 Z"/><path d="M90.3,16.8 L94.3,16.8 L94.3,15.0 L90.3,15.0 L90.3,16.8 Z"/><path d="M99.3,20.0 Q100.2,20.0 100.7,19.9 Q101.2,19.8 102.0,19.1 L101.0,17.5 Q100.6,17.8 100.3,17.9 Q100.1,18.0 99.6,18.0 Q98.6,18.0 98.3,17.6 Q97.9,17.2 97.9,16.0 Q97.9,14.8 98.2,14.4 Q98.6,14.0 99.7,14.0 Q100.0,14.0 100.2,14.1 Q100.3,14.1 100.7,14.4 L101.9,12.9 Q101.3,12.3 100.9,12.2 Q100.5,12.0 99.5,12.0 Q97.3,12.0 96.3,12.8 Q95.3,13.5 95.3,16.0 Q95.3,18.5 96.2,19.2 Q97.1,20.0 99.3,20.0 Z"/><path d="M104.0,20.0 L106.5,20.0 L106.5,14.8 Q107.0,14.4 107.1,14.3 Q107.3,14.1 107.9,14.1 Q108.5,14.1 108.6,14.3 Q108.8,14.4 108.8,15.5 L108.8,20.0 L111.3,20.0 L111.3,15.2 Q111.3,13.2 110.9,12.6 Q110.5,12.0 108.8,12.0 Q107.7,12.0 107.3,12.3 Q106.9,12.5 106.4,13.1 L106.5,11.7 L106.5,9.0 L104.0,9.0 L104.0,20.0 Z"/><path d="M115.2,20.0 Q116.1,20.0 116.5,19.8 Q116.8,19.6 117.5,19.0 L117.6,19.0 L117.7,20.0 L119.8,20.0 L119.8,15.6 Q119.8,13.2 119.2,12.6 Q118.6,12.0 116.5,12.0 Q115.3,12.0 114.7,12.2 Q114.2,12.4 113.1,13.1 L114.0,14.7 Q114.8,14.2 115.1,14.1 Q115.4,14.0 116.1,14.0 Q116.9,14.0 117.1,14.2 Q117.2,14.4 117.3,15.0 Q114.2,15.3 113.5,15.8 Q112.9,16.2 112.9,17.8 Q112.9,18.9 113.3,19.5 Q113.7,20.0 115.2,20.0 Z M116.1,18.1 Q115.6,18.1 115.4,18.0 Q115.2,17.9 115.2,17.4 Q115.2,16.9 115.5,16.7 Q115.7,16.5 117.3,16.3 L117.3,17.5 Q116.9,17.9 116.7,18.0 Q116.6,18.1 116.1,18.1 Z"/><path d="M121.4,20.0 L123.9,20.0 L123.9,12.0 L121.4,12.0 L121.4,20.0 Z M122.7,11.0 Q123.5,11.0 123.8,10.8 Q124.0,10.5 124.0,9.7 Q124.0,9.0 123.8,8.7 Q123.5,8.4 122.7,8.4 Q121.8,8.4 121.5,8.7 Q121.3,9.0 121.3,9.7 Q121.3,10.5 121.5,10.8 Q121.8,11.0 122.7,11.0 Z"/><path d="M126.6,20.0 L129.1,20.0 L129.1,14.8 Q129.6,14.4 129.7,14.3 Q129.9,14.1 130.5,14.1 Q131.1,14.1 131.2,14.3 Q131.4,14.4 131.4,15.5 L131.4,20.0 L133.9,20.0 L133.9,15.2 Q133.9,13.2 133.5,12.6 Q133.1,12.0 131.4,12.0 Q130.3,12.0 129.9,12.3 Q129.5,12.5 128.9,13.2 L128.8,13.2 L128.6,12.0 L126.6,12.0 L126.6,20.0 Z"/><path d="M135.5,16.8 L139.5,16.8 L139.5,15.0 L135.5,15.0 L135.5,16.8 Z"/><path d="M144.5,20.0 Q145.4,20.0 145.9,19.9 Q146.4,19.8 147.2,19.1 L146.2,17.5 Q145.8,17.8 145.5,17.9 Q145.3,18.0 144.8,18.0 Q143.8,18.0 143.5,17.6 Q143.1,17.2 143.1,16.0 Q143.1,14.8 143.4,14.4 Q143.8,14.0 144.9,14.0 Q145.2,14.0 145.4,14.1 Q145.5,14.1 145.9,14.4 L147.1,12.9 Q146.5,12.3 146.1,12.2 Q145.7,12.0 144.7,12.0 Q142.5,12.0 141.5,12.8 Q140.5,13.5 140.5,16.0 Q140.5,18.5 141.4,19.2 Q142.3,20.0 144.5,20.0 Z"/><path d="M152.7,20.0 Q154.7,20.0 155.6,19.2 Q156.6,18.5 156.6,16.0 Q156.6,13.5 155.6,12.8 Q154.7,12.0 152.7,12.0 Q150.6,12.0 149.7,12.8 Q148.7,13.5 148.7,16.0 Q148.7,18.5 149.7,19.2 Q150.6,20.0 152.7,20.0 Z M152.7,18.0 Q151.7,18.0 151.5,17.6 Q151.3,17.2 151.3,16.0 Q151.3,14.8 151.5,14.4 Q151.7,14.0 152.7,14.0 Q153.6,14.0 153.8,14.4 Q154.0,14.8 154.0,16.0 Q154.0,17.2 153.8,17.6 Q153.6,18.0 152.7,18.0 Z"/><path d="M158.4,20.0 L160.9,20.0 L160.9,14.8 Q161.4,14.4 161.5,14.3 Q161.7,14.1 162.3,14.1 Q162.9,14.1 163.0,14.3 Q163.2,14.4 163.2,15.5 L163.2,20.0 L165.7,20.0 L165.7,15.2 Q165.7,13.2 165.3,12.6 Q164.9,12.0 163.2,12.0 Q162.1,12.0 161.7,12.3 Q161.3,12.5 160.6,13.2 L160.6,13.2 L160.4,12.0 L158.4,12.0 L158.4,20.0 Z"/><path d="M170.0,20.0 Q172.1,20.0 172.7,19.4 Q173.3,18.9 173.3,17.5 Q173.3,16.1 172.7,15.9 Q172.2,15.6 171.2,15.2 Q170.4,15.0 170.0,14.9 Q169.7,14.8 169.7,14.4 Q169.7,14.0 169.8,13.9 Q170.0,13.8 170.5,13.8 Q171.1,13.8 171.3,14.0 Q171.6,14.1 172.2,14.5 L173.3,13.0 Q172.6,12.5 172.2,12.3 Q171.7,12.0 170.4,12.0 Q168.6,12.0 168.0,12.5 Q167.4,13.0 167.4,14.5 Q167.4,15.7 167.9,16.0 Q168.4,16.3 169.4,16.6 Q170.2,16.9 170.6,17.0 Q171.0,17.2 171.0,17.6 Q171.0,18.0 170.8,18.1 Q170.7,18.2 170.0,18.2 Q169.4,18.2 169.1,18.0 Q168.8,17.9 168.0,17.4 L166.9,18.9 Q167.7,19.6 168.3,19.8 Q168.9,20.0 170.0,20.0 Z"/><path d="M177.9,20.0 Q178.8,20.0 179.0,19.9 Q179.3,19.8 179.8,19.7 L179.3,17.9 Q179.2,18.0 179.0,18.0 Q178.9,18.1 178.6,18.1 Q178.0,18.1 177.8,17.9 Q177.6,17.7 177.6,16.9 L177.6,14.0 L179.5,14.0 L179.5,12.0 L177.6,12.0 L177.6,9.9 L175.5,9.9 L175.3,12.0 L174.0,12.1 L174.0,14.0 L175.1,14.0 L175.1,16.9 Q175.1,18.7 175.5,19.4 Q175.9,20.0 177.9,20.0 Z"/><path d="M181.0,20.0 L183.5,20.0 L183.5,15.5 Q183.9,14.6 184.3,14.4 Q184.6,14.2 185.2,14.2 Q185.5,14.2 185.7,14.2 Q185.8,14.2 186.1,14.3 L186.5,12.0 Q186.3,12.1 186.1,12.0 Q186.0,12.0 185.5,12.0 Q184.7,12.0 184.3,12.3 Q183.8,12.5 183.2,13.6 L183.2,13.6 L183.0,12.0 L181.0,12.0 L181.0,20.0 Z"/><path d="M190.6,20.0 Q191.7,20.0 192.1,19.8 Q192.4,19.5 193.1,18.7 L193.2,18.7 L193.3,20.0 L195.4,20.0 L195.4,12.0 L192.9,12.0 L192.9,17.1 Q192.4,17.7 192.3,17.8 Q192.1,17.9 191.5,17.9 Q190.9,17.9 190.8,17.7 Q190.6,17.6 190.6,16.5 L190.6,12.0 L188.1,12.0 L188.1,16.8 Q188.1,18.8 188.5,19.4 Q188.9,20.0 190.6,20.0 Z"/><path d="M200.9,20.0 Q201.8,20.0 202.3,19.9 Q202.8,19.8 203.6,19.1 L202.6,17.5 Q202.2,17.8 201.9,17.9 Q201.7,18.0 201.2,18.0 Q200.2,18.0 199.9,17.6 Q199.5,17.2 199.5,16.0 Q199.5,14.8 199.8,14.4 Q200.2,14.0 201.3,14.0 Q201.6,14.0 201.8,14.1 Q201.9,14.1 202.3,14.4 L203.5,12.9 Q202.9,12.3 202.5,12.2 Q202.1,12.0 201.1,12.0 Q198.9,12.0 197.9,12.8 Q196.9,13.5 196.9,16.0 Q196.9,18.5 197.8,19.2 Q198.7,20.0 200.9,20.0 Z"/><path d="M208.7,20.0 Q209.6,20.0 209.8,19.9 Q210.1,19.8 210.6,19.7 L210.1,17.9 Q210.0,18.0 209.8,18.0 Q209.7,18.1 209.4,18.1 Q208.8,18.1 208.6,17.9 Q208.4,17.7 208.4,16.9 L208.4,14.0 L210.3,14.0 L210.3,12.0 L208.4,12.0 L208.4,9.9 L206.3,9.9 L206.1,12.0 L204.8,12.1 L204.8,14.0 L205.9,14.0 L205.9,16.9 Q205.9,18.7 206.3,19.4 Q206.7,20.0 208.7,20.0 Z"/><path d="M211.8,20.0 L214.3,20.0 L214.3,12.0 L211.8,12.0 L211.8,20.0 Z M213.0,11.0 Q213.9,11.0 214.2,10.8 Q214.4,10.5 214.4,9.7 Q214.4,9.0 214.2,8.7 Q213.9,8.4 213.0,8.4 Q212.2,8.4 211.9,8.7 Q211.7,9.0 211.7,9.7 Q211.7,10.5 211.9,10.8 Q212.2,11.0 213.0,11.0 Z"/><path d="M220.5,20.0 Q222.5,20.0 223.4,19.2 Q224.4,18.5 224.4,16.0 Q224.4,13.5 223.4,12.8 Q222.5,12.0 220.5,12.0 Q218.4,12.0 217.5,12.8 Q216.5,13.5 216.5,16.0 Q216.5,18.5 217.5,19.2 Q218.4,20.0 220.5,20.0 Z M220.5,18.0 Q219.5,18.0 219.3,17.6 Q219.1,17.2 219.1,16.0 Q219.1,14.8 219.3,14.4 Q219.5,14.0 220.5,14.0 Q221.4,14.0 221.6,14.4 Q221.8,14.8 221.8,16.0 Q221.8,17.2 221.6,17.6 Q221.4,18.0 220.5,18.0 Z"/><path d="M226.2,20.0 L228.7,20.0 L228.7,14.8 Q229.2,14.4 229.3,14.3 Q229.5,14.1 230.1,14.1 Q230.7,14.1 230.8,14.3 Q231.0,14.4 231.0,15.5 L231.0,20.0 L233.5,20.0 L233.5,15.2 Q233.5,13.2 233.1,12.6 Q232.7,12.0 231.0,12.0 Q229.9,12.0 229.5,12.3 Q229.1,12.5 228.4,13.2 L228.4,13.2 L228.2,12.0 L226.2,12.0 L226.2,20.0 Z"/></g>
  
</svg>
