<svg xmlns="http://www.w3.org/2000/svg" viewBox="0 0 194 30" width="194" height="30" role="img" aria-label="legal-risk-assessment">
  <rect x="0.5" y="0.5" width="193" height="29" rx="5" fill="#f3e0e6"/>
  <rect x="0" y="0" width="4" height="30" rx="2" fill="#9c3a55"/>
  <g fill="#2a2d34"><path d="M21.3,20.0 Q21.8,20.0 22.0,20.0 Q22.2,19.9 22.5,19.8 L22.2,18.0 Q22.1,18.0 22.0,18.0 Q22.0,18.0 21.9,18.0 Q21.7,18.0 21.6,17.9 Q21.5,17.8 21.5,17.3 L21.5,8.6 L19.0,8.6 L19.0,17.2 Q19.0,18.9 19.3,19.4 Q19.6,20.0 21.3,20.0 Z"/><path d="M27.8,20.0 Q28.7,20.0 29.3,19.8 Q29.8,19.7 30.7,19.1 L29.8,17.6 Q29.3,17.9 29.0,18.0 Q28.7,18.1 28.2,18.1 Q27.1,18.1 26.8,17.9 Q26.4,17.7 26.2,16.6 L30.8,16.6 Q30.9,16.5 30.9,16.2 Q30.9,16.0 30.9,15.6 Q30.9,13.7 30.4,12.8 Q29.8,12.0 27.5,12.0 Q25.6,12.0 24.7,12.8 Q23.7,13.6 23.7,15.9 Q23.7,18.5 24.6,19.2 Q25.5,20.0 27.8,20.0 Z M26.1,15.0 Q26.3,14.3 26.6,14.1 Q26.9,13.9 27.6,13.9 Q28.5,13.9 28.7,14.1 Q28.8,14.4 28.8,15.0 L26.1,15.0 Z"/><path d="M35.3,23.6 Q38.0,23.6 38.9,23.0 Q39.8,22.4 39.8,20.2 Q39.8,18.7 39.2,18.4 Q38.7,18.1 36.7,18.1 L35.4,18.1 Q34.6,18.1 34.4,18.1 Q34.3,18.0 34.3,17.8 Q34.3,17.6 34.3,17.6 Q34.4,17.5 34.5,17.4 Q34.9,17.5 35.0,17.5 Q35.2,17.5 35.4,17.5 Q37.2,17.5 37.9,17.1 Q38.6,16.7 38.6,14.8 Q38.6,14.4 38.6,14.2 Q38.5,14.0 38.4,13.8 L39.6,13.8 L39.6,12.0 L36.7,12.0 Q36.4,12.1 36.1,12.0 Q35.9,12.0 35.4,12.0 Q33.7,12.0 32.9,12.5 Q32.1,13.0 32.1,14.8 Q32.1,15.7 32.4,16.1 Q32.6,16.4 33.2,16.8 L33.2,16.9 Q32.7,17.2 32.5,17.5 Q32.3,17.7 32.3,18.0 Q32.3,18.7 32.5,18.9 Q32.6,19.1 33.0,19.4 L33.0,19.5 Q32.3,19.8 32.1,20.2 Q31.9,20.5 31.9,21.4 Q31.9,23.0 32.7,23.3 Q33.4,23.6 35.3,23.6 Z M35.4,16.0 Q34.9,16.0 34.7,15.8 Q34.4,15.6 34.4,14.8 Q34.4,14.1 34.7,13.9 Q34.9,13.7 35.4,13.7 Q36.0,13.7 36.3,13.9 Q36.5,14.1 36.5,14.8 Q36.5,15.6 36.3,15.8 Q36.0,16.0 35.4,16.0 Z M35.6,22.0 Q34.6,22.0 34.3,21.8 Q34.0,21.6 34.0,20.9 Q34.0,20.5 34.0,20.3 Q34.1,20.2 34.3,19.9 Q34.6,20.0 34.7,20.0 Q34.9,20.0 35.5,20.0 L36.2,20.0 Q37.0,20.0 37.2,20.1 Q37.4,20.1 37.4,20.8 Q37.4,21.5 37.0,21.7 Q36.7,22.0 35.6,22.0 Z"/><path d="M43.6,20.0 Q44.5,20.0 44.9,19.8 Q45.2,19.6 45.9,19.0 L46.0,19.0 L46.1,20.0 L48.2,20.0 L48.2,15.6 Q48.2,13.2 47.6,12.6 Q47.0,12.0 44.9,12.0 Q43.7,12.0 43.1,12.2 Q42.6,12.4 41.5,13.1 L42.4,14.7 Q43.2,14.2 43.5,14.1 Q43.8,14.0 44.5,14.0 Q45.3,14.0 45.5,14.2 Q45.6,14.4 45.7,15.0 Q42.6,15.3 41.9,15.8 Q41.3,16.2 41.3,17.8 Q41.3,18.9 41.7,19.5 Q42.1,20.0 43.6,20.0 Z M44.5,18.1 Q44.0,18.1 43.8,18.0 Q43.6,17.9 43.6,17.4 Q43.6,16.9 43.9,16.7 Q44.1,16.5 45.7,16.3 L45.7,17.5 Q45.3,17.9 45.1,18.0 Q45.0,18.1 44.5,18.1 Z"/><path d="M52.1,20.0 Q52.6,20.0 52.8,20.0 Q53.0,19.9 53.3,19.8 L53.0,18.0 Q52.9,18.0 52.8,18.0 Q52.8,18.0 52.7,18.0 Q52.5,18.0 52.4,17.9 Q52.3,17.8 52.3,17.3 L52.3,8.6 L49.8,8.6 L49.8,17.2 Q49.8,18.9 50.1,19.4 Q50.4,20.0 52.1,20.0 Z"/><path d="M54.7,16.8 L58.7,16.8 L58.7,15.0 L54.7,15.0 L54.7,16.8 Z"/><path d="M60.2,20.0 L62.7,20.0 L62.7,15.5 Q63.1,14.6 63.5,14.4 Q63.8,14.2 64.4,14.2 Q64.7,14.2 64.9,14.2 Q65.0,14.2 65.3,14.3 L65.7,12.0 Q65.5,12.1 65.3,12.0 Q65.2,12.0 64.7,12.0 Q63.9,12.0 63.5,12.3 Q63.0,12.5 62.5,13.6 L62.4,13.6 L62.2,12.0 L60.2,12.0 L60.2,20.0 Z"/><path d="M67.4,20.0 L69.9,20.0 L69.9,12.0 L67.4,12.0 L67.4,20.0 Z M68.7,11.0 Q69.5,11.0 69.8,10.8 Q70.0,10.5 70.0,9.7 Q70.0,9.0 69.8,8.7 Q69.5,8.4 68.7,8.4 Q67.8,8.4 67.5,8.7 Q67.3,9.0 67.3,9.7 Q67.3,10.5 67.5,10.8 Q67.8,11.0 68.7,11.0 Z"/><path d="M75.0,20.0 Q77.1,20.0 77.7,19.4 Q78.3,18.9 78.3,17.5 Q78.3,16.1 77.7,15.9 Q77.2,15.6 76.2,15.2 Q75.4,15.0 75.0,14.9 Q74.7,14.8 74.7,14.4 Q74.7,14.0 74.8,13.9 Q75.0,13.8 75.5,13.8 Q76.1,13.8 76.3,14.0 Q76.6,14.1 77.2,14.5 L78.3,13.0 Q77.6,12.5 77.2,12.3 Q76.7,12.0 75.4,12.0 Q73.6,12.0 73.0,12.5 Q72.4,13.0 72.4,14.5 Q72.4,15.7 72.9,16.0 Q73.4,16.3 74.4,16.6 Q75.2,16.9 75.6,17.0 Q76.0,17.2 76.0,17.6 Q76.0,18.0 75.8,18.1 Q75.7,18.2 75.0,18.2 Q74.4,18.2 74.1,18.0 Q73.8,17.9 73.0,17.4 L71.9,18.9 Q72.7,19.6 73.3,19.8 Q73.9,20.0 75.0,20.0 Z"/><path d="M79.8,20.0 L82.3,20.0 L82.3,18.0 L83.2,17.0 L84.9,20.0 L87.6,20.0 L84.6,15.3 L87.4,12.0 L84.7,12.0 L82.3,15.0 L82.3,15.0 L82.3,8.8 L79.8,8.8 L79.8,20.0 Z"/><path d="M88.7,16.8 L92.7,16.8 L92.7,15.0 L88.7,15.0 L88.7,16.8 Z"/><path d="M96.2,20.0 Q97.1,20.0 97.5,19.8 Q97.8,19.6 98.5,19.0 L98.6,19.0 L98.7,20.0 L100.8,20.0 L100.8,15.6 Q100.8,13.2 100.2,12.6 Q99.6,12.0 97.5,12.0 Q96.3,12.0 95.7,12.2 Q95.2,12.4 94.1,13.1 L95.0,14.7 Q95.8,14.2 96.1,14.1 Q96.4,14.0 97.1,14.0 Q97.9,14.0 98.1,14.2 Q98.2,14.4 98.3,15.0 Q95.2,15.3 94.5,15.8 Q93.9,16.2 93.9,17.8 Q93.9,18.9 94.3,19.5 Q94.7,20.0 96.2,20.0 Z M97.1,18.1 Q96.6,18.1 96.4,18.0 Q96.2,17.9 96.2,17.4 Q96.2,16.9 96.5,16.7 Q96.7,16.5 98.3,16.3 L98.3,17.5 Q97.9,17.9 97.7,18.0 Q97.6,18.1 97.1,18.1 Z"/><path d="M104.8,20.0 Q106.9,20.0 107.5,19.4 Q108.1,18.9 108.1,17.5 Q108.1,16.1 107.5,15.9 Q107.0,15.6 106.0,15.2 Q105.2,15.0 104.8,14.9 Q104.5,14.8 104.5,14.4 Q104.5,14.0 104.6,13.9 Q104.8,13.8 105.3,13.8 Q105.9,13.8 106.1,14.0 Q106.4,14.1 107.0,14.5 L108.1,13.0 Q107.4,12.5 107.0,12.3 Q106.5,12.0 105.2,12.0 Q103.4,12.0 102.8,12.5 Q102.2,13.0 102.2,14.5 Q102.2,15.7 102.7,16.0 Q103.2,16.3 104.2,16.6 Q105.0,16.9 105.4,17.0 Q105.8,17.2 105.8,17.6 Q105.8,18.0 105.6,18.1 Q105.5,18.2 104.8,18.2 Q104.2,18.2 103.9,18.0 Q103.6,17.9 102.8,17.4 L101.7,18.9 Q102.5,19.6 103.1,19.8 Q103.7,20.0 104.8,20.0 Z"/><path d="M112.0,20.0 Q114.1,20.0 114.7,19.4 Q115.3,18.9 115.3,17.5 Q115.3,16.1 114.7,15.9 Q114.2,15.6 113.2,15.2 Q112.4,15.0 112.0,14.9 Q111.7,14.8 111.7,14.4 Q111.7,14.0 111.8,13.9 Q112.0,13.8 112.5,13.8 Q113.1,13.8 113.3,14.0 Q113.6,14.1 114.2,14.5 L115.3,13.0 Q114.6,12.5 114.2,12.3 Q113.7,12.0 112.4,12.0 Q110.6,12.0 110.0,12.5 Q109.4,13.0 109.4,14.5 Q109.4,15.7 109.9,16.0 Q110.4,16.3 111.4,16.6 Q112.2,16.9 112.6,17.0 Q113.0,17.2 113.0,17.6 Q113.0,18.0 112.8,18.1 Q112.7,18.2 112.0,18.2 Q111.4,18.2 111.1,18.0 Q110.8,17.9 110.0,17.4 L108.9,18.9 Q109.7,19.6 110.3,19.8 Q110.9,20.0 112.0,20.0 Z"/><path d="M120.4,20.0 Q121.3,20.0 121.9,19.8 Q122.4,19.7 123.3,19.1 L122.4,17.6 Q121.9,17.9 121.6,18.0 Q121.3,18.1 120.8,18.1 Q119.7,18.1 119.4,17.9 Q119.0,17.7 118.8,16.6 L123.4,16.6 Q123.5,16.5 123.5,16.2 Q123.6,16.0 123.6,15.6 Q123.6,13.7 123.0,12.8 Q122.4,12.0 120.1,12.0 Q118.2,12.0 117.3,12.8 Q116.3,13.6 116.3,15.9 Q116.3,18.5 117.2,19.2 Q118.1,20.0 120.4,20.0 Z M118.7,15.0 Q118.9,14.3 119.2,14.1 Q119.5,13.9 120.2,13.9 Q121.1,13.9 121.3,14.1 Q121.4,14.4 121.4,15.0 L118.7,15.0 Z"/><path d="M127.4,20.0 Q129.5,20.0 130.1,19.4 Q130.7,18.9 130.7,17.5 Q130.7,16.1 130.1,15.9 Q129.6,15.6 128.6,15.2 Q127.8,15.0 127.4,14.9 Q127.1,14.8 127.1,14.4 Q127.1,14.0 127.2,13.9 Q127.4,13.8 127.9,13.8 Q128.5,13.8 128.7,14.0 Q129.0,14.1 129.6,14.5 L130.7,13.0 Q130.0,12.5 129.6,12.3 Q129.1,12.0 127.8,12.0 Q126.0,12.0 125.4,12.5 Q124.8,13.0 124.8,14.5 Q124.8,15.7 125.3,16.0 Q125.8,16.3 126.8,16.6 Q127.6,16.9 128.0,17.0 Q128.4,17.2 128.4,17.6 Q128.4,18.0 128.2,18.1 Q128.1,18.2 127.4,18.2 Q126.8,18.2 126.5,18.0 Q126.2,17.9 125.4,17.4 L124.3,18.9 Q125.1,19.6 125.7,19.8 Q126.3,20.0 127.4,20.0 Z"/><path d="M134.6,20.0 Q136.7,20.0 137.3,19.4 Q137.9,18.9 137.9,17.5 Q137.9,16.1 137.3,15.9 Q136.8,15.6 135.8,15.2 Q135.0,15.0 134.6,14.9 Q134.3,14.8 134.3,14.4 Q134.3,14.0 134.4,13.9 Q134.6,13.8 135.1,13.8 Q135.7,13.8 135.9,14.0 Q136.2,14.1 136.8,14.5 L137.9,13.0 Q137.2,12.5 136.8,12.3 Q136.3,12.0 135.0,12.0 Q133.2,12.0 132.6,12.5 Q132.0,13.0 132.0,14.5 Q132.0,15.7 132.5,16.0 Q133.0,16.3 134.0,16.6 Q134.8,16.9 135.2,17.0 Q135.6,17.2 135.6,17.6 Q135.6,18.0 135.4,18.1 Q135.3,18.2 134.6,18.2 Q134.0,18.2 133.7,18.0 Q133.4,17.9 132.6,17.4 L131.5,18.9 Q132.3,19.6 132.9,19.8 Q133.5,20.0 134.6,20.0 Z"/><path d="M139.4,20.0 L141.9,20.0 L141.9,14.8 Q142.4,14.4 142.6,14.2 Q142.8,14.1 143.2,14.1 Q143.8,14.1 143.9,14.3 Q144.1,14.4 144.1,15.5 L144.1,20.0 L146.6,20.0 L146.6,14.8 Q147.1,14.4 147.3,14.2 Q147.5,14.1 147.9,14.1 Q148.5,14.1 148.6,14.3 Q148.8,14.4 148.8,15.5 L148.8,20.0 L151.2,20.0 L151.2,15.2 Q151.2,13.2 150.9,12.6 Q150.5,12.0 148.8,12.0 Q147.7,12.0 147.3,12.3 Q146.9,12.6 146.3,13.3 Q145.9,12.5 145.5,12.2 Q145.2,12.0 144.1,12.0 Q143.0,12.0 142.7,12.3 Q142.3,12.5 141.7,13.2 L141.6,13.2 L141.4,12.0 L139.4,12.0 L139.4,20.0 Z"/><path d="M157.2,20.0 Q158.1,20.0 158.7,19.8 Q159.2,19.7 160.1,19.1 L159.2,17.6 Q158.7,17.9 158.4,18.0 Q158.1,18.1 157.6,18.1 Q156.5,18.1 156.2,17.9 Q155.8,17.7 155.6,16.6 L160.2,16.6 Q160.3,16.5 160.3,16.2 Q160.3,16.0 160.3,15.6 Q160.3,13.7 159.8,12.8 Q159.2,12.0 156.9,12.0 Q155.0,12.0 154.1,12.8 Q153.1,13.6 153.1,15.9 Q153.1,18.5 154.0,19.2 Q154.9,20.0 157.2,20.0 Z M155.5,15.0 Q155.7,14.3 156.0,14.1 Q156.3,13.9 157.0,13.9 Q157.9,13.9 158.1,14.1 Q158.2,14.4 158.2,15.0 L155.5,15.0 Z"/><path d="M161.8,20.0 L164.3,20.0 L164.3,14.8 Q164.8,14.4 164.9,14.3 Q165.1,14.1 165.7,14.1 Q166.3,14.1 166.4,14.3 Q166.6,14.4 166.6,15.5 L166.6,20.0 L169.1,20.0 L169.1,15.2 Q169.1,13.2 168.7,12.6 Q168.3,12.0 166.6,12.0 Q165.5,12.0 165.1,12.3 Q164.7,12.5 164.0,13.2 L164.0,13.2 L163.8,12.0 L161.8,12.0 L161.8,20.0 Z"/><path d="M174.1,20.0 Q175.0,20.0 175.2,19.9 Q175.5,19.8 176.0,19.7 L175.5,17.9 Q175.4,18.0 175.2,18.0 Q175.1,18.1 174.8,18.1 Q174.2,18.1 174.0,17.9 Q173.8,17.7 173.8,16.9 L173.8,14.0 L175.7,14.0 L175.7,12.0 L173.8,12.0 L173.8,9.9 L171.7,9.9 L171.5,12.0 L170.2,12.1 L170.2,14.0 L171.3,14.0 L171.3,16.9 Q171.3,18.7 171.7,19.4 Q172.1,20.0 174.1,20.0 Z"/></g>
  
</svg>
