<svg xmlns="http://www.w3.org/2000/svg" viewBox="0 0 233 30" width="233" height="30" role="img" aria-label="teleological-interpretation">
  <rect x="0.5" y="0.5" width="232" height="29" rx="5" fill="#ece6f3"/>
  <rect x="0" y="0" width="4" height="30" rx="2" fill="#6f5a9c"/>
  <g fill="#2a2d34"><path d="M22.1,20.0 Q23.0,20.0 23.2,19.9 Q23.5,19.8 24.0,19.7 L23.5,17.9 Q23.4,18.0 23.2,18.0 Q23.1,18.1 22.8,18.1 Q22.2,18.1 22.0,17.9 Q21.8,17.7 21.8,16.9 L21.8,14.0 L23.7,14.0 L23.7,12.0 L21.8,12.0 L21.8,9.9 L19.8,9.9 L19.5,12.0 L18.2,12.1 L18.2,14.0 L19.3,14.0 L19.3,16.9 Q19.3,18.7 19.7,19.4 Q20.1,20.0 22.1,20.0 Z"/><path d="M28.8,20.0 Q29.7,20.0 30.3,19.8 Q30.8,19.7 31.7,19.1 L30.8,17.6 Q30.3,17.9 30.0,18.0 Q29.7,18.1 29.2,18.1 Q28.1,18.1 27.8,17.9 Q27.4,17.7 27.2,16.6 L31.8,16.6 Q31.9,16.5 31.9,16.2 Q31.9,16.0 31.9,15.6 Q31.9,13.7 31.4,12.8 Q30.8,12.0 28.5,12.0 Q26.6,12.0 25.7,12.8 Q24.7,13.6 24.7,15.9 Q24.7,18.5 25.6,19.2 Q26.5,20.0 28.8,20.0 Z M27.1,15.0 Q27.3,14.3 27.6,14.1 Q27.9,13.9 28.6,13.9 Q29.5,13.9 29.7,14.1 Q29.8,14.4 29.8,15.0 L27.1,15.0 Z"/><path d="M35.7,20.0 Q36.2,20.0 36.4,20.0 Q36.6,19.9 36.9,19.8 L36.6,18.0 Q36.5,18.0 36.4,18.0 Q36.4,18.0 36.3,18.0 Q36.1,18.0 36.0,17.9 Q35.9,17.8 35.9,17.3 L35.9,8.6 L33.4,8.6 L33.4,17.2 Q33.4,18.9 33.7,19.4 Q34.0,20.0 35.7,20.0 Z"/><path d="M42.2,20.0 Q43.1,20.0 43.7,19.8 Q44.2,19.7 45.1,19.1 L44.2,17.6 Q43.7,17.9 43.4,18.0 Q43.1,18.1 42.6,18.1 Q41.5,18.1 41.2,17.9 Q40.8,17.7 40.6,16.6 L45.2,16.6 Q45.3,16.5 45.3,16.2 Q45.4,16.0 45.4,15.6 Q45.4,13.7 44.8,12.8 Q44.2,12.0 41.9,12.0 Q40.0,12.0 39.1,12.8 Q38.1,13.6 38.1,15.9 Q38.1,18.5 39.0,19.2 Q39.9,20.0 42.2,20.0 Z M40.5,15.0 Q40.7,14.3 41.0,14.1 Q41.3,13.9 42.0,13.9 Q42.9,13.9 43.1,14.1 Q43.2,14.4 43.2,15.0 L40.5,15.0 Z"/><path d="M50.3,20.0 Q52.3,20.0 53.2,19.2 Q54.2,18.5 54.2,16.0 Q54.2,13.5 53.2,12.8 Q52.3,12.0 50.3,12.0 Q48.2,12.0 47.3,12.8 Q46.3,13.5 46.3,16.0 Q46.3,18.5 47.3,19.2 Q48.2,20.0 50.3,20.0 Z M50.3,18.0 Q49.3,18.0 49.1,17.6 Q48.9,17.2 48.9,16.0 Q48.9,14.8 49.1,14.4 Q49.3,14.0 50.3,14.0 Q51.2,14.0 51.4,14.4 Q51.6,14.8 51.6,16.0 Q51.6,17.2 51.4,17.6 Q51.2,18.0 50.3,18.0 Z"/><path d="M58.3,20.0 Q58.8,20.0 59.0,20.0 Q59.2,19.9 59.5,19.8 L59.2,18.0 Q59.1,18.0 59.0,18.0 Q59.0,18.0 58.9,18.0 Q58.7,18.0 58.6,17.9 Q58.5,17.8 58.5,17.3 L58.5,8.6 L56.0,8.6 L56.0,17.2 Q56.0,18.9 56.3,19.4 Q56.6,20.0 58.3,20.0 Z"/><path d="M64.7,20.0 Q66.7,20.0 67.6,19.2 Q68.6,18.5 68.6,16.0 Q68.6,13.5 67.6,12.8 Q66.7,12.0 64.7,12.0 Q62.6,12.0 61.7,12.8 Q60.7,13.5 60.7,16.0 Q60.7,18.5 61.7,19.2 Q62.6,20.0 64.7,20.0 Z M64.7,18.0 Q63.7,18.0 63.5,17.6 Q63.3,17.2 63.3,16.0 Q63.3,14.8 63.5,14.4 Q63.7,14.0 64.7,14.0 Q65.6,14.0 65.8,14.4 Q66.0,14.8 66.0,16.0 Q66.0,17.2 65.8,17.6 Q65.6,18.0 64.7,18.0 Z"/><path d="M73.3,23.6 Q76.0,23.6 76.9,23.0 Q77.8,22.4 77.8,20.2 Q77.8,18.7 77.2,18.4 Q76.7,18.1 74.7,18.1 L73.4,18.1 Q72.6,18.1 72.4,18.1 Q72.3,18.0 72.3,17.8 Q72.3,17.6 72.3,17.6 Q72.4,17.5 72.5,17.4 Q72.9,17.5 73.0,17.5 Q73.2,17.5 73.4,17.5 Q75.2,17.5 75.9,17.1 Q76.6,16.7 76.6,14.8 Q76.6,14.4 76.6,14.2 Q76.5,14.0 76.4,13.8 L77.7,13.8 L77.7,12.0 L74.7,12.0 Q74.4,12.1 74.1,12.0 Q73.9,12.0 73.4,12.0 Q71.7,12.0 70.9,12.5 Q70.1,13.0 70.1,14.8 Q70.1,15.7 70.4,16.1 Q70.6,16.4 71.2,16.8 L71.2,16.9 Q70.7,17.2 70.5,17.5 Q70.3,17.7 70.3,18.0 Q70.3,18.7 70.5,18.9 Q70.6,19.1 71.0,19.4 L71.0,19.5 Q70.3,19.8 70.1,20.2 Q69.9,20.5 69.9,21.4 Q69.9,23.0 70.7,23.3 Q71.4,23.6 73.3,23.6 Z M73.4,16.0 Q72.9,16.0 72.7,15.8 Q72.4,15.6 72.4,14.8 Q72.4,14.1 72.7,13.9 Q72.9,13.7 73.4,13.7 Q74.0,13.7 74.3,13.9 Q74.5,14.1 74.5,14.8 Q74.5,15.6 74.3,15.8 Q74.0,16.0 73.4,16.0 Z M73.7,22.0 Q72.6,22.0 72.3,21.8 Q72.0,21.6 72.0,20.9 Q72.0,20.5 72.0,20.3 Q72.1,20.2 72.3,19.9 Q72.6,20.0 72.7,20.0 Q72.9,20.0 73.5,20.0 L74.2,20.0 Q75.0,20.0 75.2,20.1 Q75.4,20.1 75.4,20.8 Q75.4,21.5 75.0,21.7 Q74.7,22.0 73.7,22.0 Z"/><path d="M79.6,20.0 L82.1,20.0 L82.1,12.0 L79.6,12.0 L79.6,20.0 Z M80.9,11.0 Q81.7,11.0 82.0,10.8 Q82.2,10.5 82.2,9.7 Q82.2,9.0 82.0,8.7 Q81.7,8.4 80.9,8.4 Q80.0,8.4 79.7,8.7 Q79.5,9.0 79.5,9.7 Q79.5,10.5 79.7,10.8 Q80.0,11.0 80.9,11.0 Z"/><path d="M88.3,20.0 Q89.2,20.0 89.7,19.9 Q90.2,19.8 91.0,19.1 L90.0,17.5 Q89.6,17.8 89.3,17.9 Q89.1,18.0 88.6,18.0 Q87.6,18.0 87.3,17.6 Q86.9,17.2 86.9,16.0 Q86.9,14.8 87.2,14.4 Q87.6,14.0 88.7,14.0 Q89.0,14.0 89.2,14.1 Q89.3,14.1 89.7,14.4 L90.9,12.9 Q90.3,12.3 89.9,12.2 Q89.5,12.0 88.5,12.0 Q86.3,12.0 85.3,12.8 Q84.3,13.5 84.3,16.0 Q84.3,18.5 85.2,19.2 Q86.1,20.0 88.3,20.0 Z"/><path d="M95.0,20.0 Q95.9,20.0 96.3,19.8 Q96.6,19.6 97.3,19.0 L97.4,19.0 L97.5,20.0 L99.6,20.0 L99.6,15.6 Q99.6,13.2 99.0,12.6 Q98.4,12.0 96.3,12.0 Q95.1,12.0 94.5,12.2 Q94.0,12.4 92.9,13.1 L93.8,14.7 Q94.6,14.2 94.9,14.1 Q95.2,14.0 95.9,14.0 Q96.7,14.0 96.9,14.2 Q97.0,14.4 97.1,15.0 Q94.0,15.3 93.3,15.8 Q92.7,16.2 92.7,17.8 Q92.7,18.9 93.1,19.5 Q93.5,20.0 95.0,20.0 Z M95.9,18.1 Q95.4,18.1 95.2,18.0 Q95.0,17.9 95.0,17.4 Q95.0,16.9 95.3,16.7 Q95.5,16.5 97.1,16.3 L97.1,17.5 Q96.7,17.9 96.5,18.0 Q96.4,18.1 95.9,18.1 Z"/><path d="M103.5,20.0 Q104.0,20.0 104.2,20.0 Q104.4,19.9 104.7,19.8 L104.4,18.0 Q104.3,18.0 104.2,18.0 Q104.2,18.0 104.1,18.0 Q103.9,18.0 103.8,17.9 Q103.7,17.8 103.7,17.3 L103.7,8.6 L101.2,8.6 L101.2,17.2 Q101.2,18.9 101.5,19.4 Q101.8,20.0 103.5,20.0 Z"/><path d="M106.1,16.8 L110.1,16.8 L110.1,15.0 L106.1,15.0 L106.1,16.8 Z"/><path d="M111.6,20.0 L114.1,20.0 L114.1,12.0 L111.6,12.0 L111.6,20.0 Z M112.9,11.0 Q113.7,11.0 114.0,10.8 Q114.2,10.5 114.2,9.7 Q114.2,9.0 114.0,8.7 Q113.7,8.4 112.9,8.4 Q112.0,8.4 111.7,8.7 Q111.5,9.0 111.5,9.7 Q111.5,10.5 111.7,10.8 Q112.0,11.0 112.9,11.0 Z"/><path d="M116.8,20.0 L119.3,20.0 L119.3,14.8 Q119.8,14.4 119.9,14.3 Q120.1,14.1 120.7,14.1 Q121.3,14.1 121.4,14.3 Q121.6,14.4 121.6,15.5 L121.6,20.0 L124.1,20.0 L124.1,15.2 Q124.1,13.2 123.7,12.6 Q123.3,12.0 121.6,12.0 Q120.5,12.0 120.1,12.3 Q119.7,12.5 119.1,13.2 L119.0,13.2 L118.8,12.0 L116.8,12.0 L116.8,20.0 Z"/><path d="M129.1,20.0 Q130.0,20.0 130.2,19.9 Q130.5,19.8 131.0,19.7 L130.5,17.9 Q130.4,18.0 130.2,18.0 Q130.1,18.1 129.8,18.1 Q129.2,18.1 129.0,17.9 Q128.8,17.7 128.8,16.9 L128.8,14.0 L130.7,14.0 L130.7,12.0 L128.8,12.0 L128.8,9.9 L126.8,9.9 L126.5,12.0 L125.3,12.1 L125.3,14.0 L126.3,14.0 L126.3,16.9 Q126.3,18.7 126.7,19.4 Q127.1,20.0 129.1,20.0 Z"/><path d="M135.8,20.0 Q136.7,20.0 137.3,19.8 Q137.8,19.7 138.7,19.1 L137.8,17.6 Q137.3,17.9 137.0,18.0 Q136.7,18.1 136.2,18.1 Q135.1,18.1 134.8,17.9 Q134.4,17.7 134.2,16.6 L138.8,16.6 Q138.9,16.5 138.9,16.2 Q139.0,16.0 139.0,15.6 Q139.0,13.7 138.4,12.8 Q137.8,12.0 135.5,12.0 Q133.6,12.0 132.7,12.8 Q131.7,13.6 131.7,15.9 Q131.7,18.5 132.6,19.2 Q133.5,20.0 135.8,20.0 Z M134.1,15.0 Q134.3,14.3 134.6,14.1 Q134.9,13.9 135.6,13.9 Q136.5,13.9 136.7,14.1 Q136.8,14.4 136.8,15.0 L134.1,15.0 Z"/><path d="M140.4,20.0 L142.9,20.0 L142.9,15.5 Q143.3,14.6 143.7,14.4 Q144.0,14.2 144.6,14.2 Q144.9,14.2 145.1,14.2 Q145.2,14.2 145.5,14.3 L145.9,12.0 Q145.7,12.1 145.5,12.0 Q145.4,12.0 144.9,12.0 Q144.1,12.0 143.7,12.3 Q143.2,12.5 142.7,13.6 L142.6,13.6 L142.4,12.0 L140.4,12.0 L140.4,20.0 Z"/><path d="M147.6,23.0 L150.1,23.0 L150.1,20.5 L150.0,19.2 Q150.5,19.7 150.9,19.9 Q151.2,20.0 151.9,20.0 Q153.6,20.0 154.4,19.2 Q155.2,18.4 155.2,15.8 Q155.2,13.6 154.6,12.8 Q154.0,12.0 152.1,12.0 Q151.3,12.0 150.9,12.2 Q150.5,12.4 149.8,13.0 L149.8,13.0 L149.6,12.0 L147.6,12.0 L147.6,23.0 Z M151.3,18.0 Q150.9,18.0 150.7,17.9 Q150.5,17.9 150.1,17.5 L150.1,14.7 Q150.5,14.2 150.7,14.1 Q150.9,14.0 151.3,14.0 Q152.2,14.0 152.4,14.3 Q152.6,14.6 152.6,15.9 Q152.6,17.3 152.3,17.7 Q152.0,18.0 151.3,18.0 Z"/><path d="M156.8,20.0 L159.3,20.0 L159.3,15.5 Q159.7,14.6 160.1,14.4 Q160.4,14.2 161.0,14.2 Q161.3,14.2 161.5,14.2 Q161.6,14.2 161.9,14.3 L162.3,12.0 Q162.1,12.1 161.9,12.0 Q161.8,12.0 161.3,12.0 Q160.5,12.0 160.1,12.3 Q159.6,12.5 159.0,13.6 L159.0,13.6 L158.8,12.0 L156.8,12.0 L156.8,20.0 Z"/><path d="M167.6,20.0 Q168.5,20.0 169.1,19.8 Q169.6,19.7 170.5,19.1 L169.6,17.6 Q169.1,17.9 168.8,18.0 Q168.5,18.1 168.0,18.1 Q166.9,18.1 166.6,17.9 Q166.2,17.7 166.0,16.6 L170.6,16.6 Q170.7,16.5 170.7,16.2 Q170.7,16.0 170.7,15.6 Q170.7,13.7 170.2,12.8 Q169.6,12.0 167.3,12.0 Q165.4,12.0 164.5,12.8 Q163.5,13.6 163.5,15.9 Q163.5,18.5 164.4,19.2 Q165.3,20.0 167.6,20.0 Z M165.9,15.0 Q166.1,14.3 166.4,14.1 Q166.7,13.9 167.4,13.9 Q168.3,13.9 168.5,14.1 Q168.6,14.4 168.6,15.0 L165.9,15.0 Z"/><path d="M175.3,20.0 Q176.2,20.0 176.4,19.9 Q176.7,19.8 177.2,19.7 L176.7,17.9 Q176.6,18.0 176.4,18.0 Q176.3,18.1 176.0,18.1 Q175.4,18.1 175.2,17.9 Q175.0,17.7 175.0,16.9 L175.0,14.0 L176.9,14.0 L176.9,12.0 L175.0,12.0 L175.0,9.9 L172.9,9.9 L172.7,12.0 L171.4,12.1 L171.4,14.0 L172.5,14.0 L172.5,16.9 Q172.5,18.7 172.9,19.4 Q173.3,20.0 175.3,20.0 Z"/><path d="M180.4,20.0 Q181.3,20.0 181.7,19.8 Q182.0,19.6 182.7,19.0 L182.8,19.0 L182.9,20.0 L185.0,20.0 L185.0,15.6 Q185.0,13.2 184.4,12.6 Q183.8,12.0 181.7,12.0 Q180.5,12.0 179.9,12.2 Q179.4,12.4 178.3,13.1 L179.2,14.7 Q180.0,14.2 180.3,14.1 Q180.6,14.0 181.3,14.0 Q182.1,14.0 182.3,14.2 Q182.4,14.4 182.5,15.0 Q179.4,15.3 178.7,15.8 Q178.1,16.2 178.1,17.8 Q178.1,18.9 178.5,19.5 Q178.9,20.0 180.4,20.0 Z M181.3,18.1 Q180.8,18.1 180.6,18.0 Q180.4,17.9 180.4,17.4 Q180.4,16.9 180.7,16.7 Q180.9,16.5 182.5,16.3 L182.5,17.5 Q182.1,17.9 181.9,18.0 Q181.8,18.1 181.3,18.1 Z"/><path d="M189.7,20.0 Q190.6,20.0 190.8,19.9 Q191.1,19.8 191.6,19.7 L191.1,17.9 Q191.0,18.0 190.8,18.0 Q190.7,18.1 190.4,18.1 Q189.8,18.1 189.6,17.9 Q189.4,17.7 189.4,16.9 L189.4,14.0 L191.3,14.0 L191.3,12.0 L189.4,12.0 L189.4,9.9 L187.3,9.9 L187.1,12.0 L185.8,12.1 L185.8,14.0 L186.9,14.0 L186.9,16.9 Q186.9,18.7 187.3,19.4 Q187.7,20.0 189.7,20.0 Z"/><path d="M192.8,20.0 L195.3,20.0 L195.3,12.0 L192.8,12.0 L192.8,20.0 Z M194.0,11.0 Q194.9,11.0 195.2,10.8 Q195.4,10.5 195.4,9.7 Q195.4,9.0 195.2,8.7 Q194.9,8.4 194.0,8.4 Q193.2,8.4 192.9,8.7 Q192.7,9.0 192.7,9.7 Q192.7,10.5 192.9,10.8 Q193.2,11.0 194.0,11.0 Z"/><path d="M201.5,20.0 Q203.5,20.0 204.4,19.2 Q205.4,18.5 205.4,16.0 Q205.4,13.5 204.4,12.8 Q203.5,12.0 201.5,12.0 Q199.4,12.0 198.5,12.8 Q197.5,13.5 197.5,16.0 Q197.5,18.5 198.5,19.2 Q199.4,20.0 201.5,20.0 Z M201.5,18.0 Q200.5,18.0 200.3,17.6 Q200.1,17.2 200.1,16.0 Q200.1,14.8 200.3,14.4 Q200.5,14.0 201.5,14.0 Q202.4,14.0 202.6,14.4 Q202.8,14.8 202.8,16.0 Q202.8,17.2 202.6,17.6 Q202.4,18.0 201.5,18.0 Z"/><path d="M207.2,20.0 L209.7,20.0 L209.7,14.8 Q210.2,14.4 210.3,14.3 Q210.5,14.1 211.1,14.1 Q211.7,14.1 211.8,14.3 Q212.0,14.4 212.0,15.5 L212.0,20.0 L214.5,20.0 L214.5,15.2 Q214.5,13.2 214.1,12.6 Q213.7,12.0 212.0,12.0 Q210.9,12.0 210.5,12.3 Q210.1,12.5 209.4,13.2 L209.4,13.2 L209.2,12.0 L207.2,12.0 L207.2,20.0 Z"/></g>
  
</svg>
