<svg xmlns="http://www.w3.org/2000/svg" viewBox="0 0 257 30" width="257" height="30" role="img" aria-label="legal-document-summarization">
  <rect x="0.5" y="0.5" width="256" height="29" rx="5" fill="#e7efdd"/>
  <rect x="0" y="0" width="4" height="30" rx="2" fill="#5a7d3f"/>
  <g fill="#2a2d34"><path d="M21.3,20.0 Q21.8,20.0 22.0,20.0 Q22.2,19.9 22.5,19.8 L22.2,18.0 Q22.1,18.0 22.0,18.0 Q22.0,18.0 21.9,18.0 Q21.7,18.0 21.6,17.9 Q21.5,17.8 21.5,17.3 L21.5,8.6 L19.0,8.6 L19.0,17.2 Q19.0,18.9 19.3,19.4 Q19.6,20.0 21.3,20.0 Z"/><path d="M27.8,20.0 Q28.7,20.0 29.3,19.8 Q29.8,19.7 30.7,19.1 L29.8,17.6 Q29.3,17.9 29.0,18.0 Q28.7,18.1 28.2,18.1 Q27.1,18.1 26.8,17.9 Q26.4,17.7 26.2,16.6 L30.8,16.6 Q30.9,16.5 30.9,16.2 Q30.9,16.0 30.9,15.6 Q30.9,13.7 30.4,12.8 Q29.8,12.0 27.5,12.0 Q25.6,12.0 24.7,12.8 Q23.7,13.6 23.7,15.9 Q23.7,18.5 24.6,19.2 Q25.5,20.0 27.8,20.0 Z M26.1,15.0 Q26.3,14.3 26.6,14.1 Q26.9,13.9 27.6,13.9 Q28.5,13.9 28.7,14.1 Q28.8,14.4 28.8,15.0 L26.1,15.0 Z"/><path d="M35.3,23.6 Q38.0,23.6 38.9,23.0 Q39.8,22.4 39.8,20.2 Q39.8,18.7 39.2,18.4 Q38.7,18.1 36.7,18.1 L35.4,18.1 Q34.6,18.1 34.4,18.1 Q34.3,18.0 34.3,17.8 Q34.3,17.6 34.3,17.6 Q34.4,17.5 34.5,17.4 Q34.9,17.5 35.0,17.5 Q35.2,17.5 35.4,17.5 Q37.2,17.5 37.9,17.1 Q38.6,16.7 38.6,14.8 Q38.6,14.4 38.6,14.2 Q38.5,14.0 38.4,13.8 L39.6,13.8 L39.6,12.0 L36.7,12.0 Q36.4,12.1 36.1,12.0 Q35.9,12.0 35.4,12.0 Q33.7,12.0 32.9,12.5 Q32.1,13.0 32.1,14.8 Q32.1,15.7 32.4,16.1 Q32.6,16.4 33.2,16.8 L33.2,16.9 Q32.7,17.2 32.5,17.5 Q32.3,17.7 32.3,18.0 Q32.3,18.7 32.5,18.9 Q32.6,19.1 33.0,19.4 L33.0,19.5 Q32.3,19.8 32.1,20.2 Q31.9,20.5 31.9,21.4 Q31.9,23.0 32.7,23.3 Q33.4,23.6 35.3,23.6 Z M35.4,16.0 Q34.9,16.0 34.7,15.8 Q34.4,15.6 34.4,14.8 Q34.4,14.1 34.7,13.9 Q34.9,13.7 35.4,13.7 Q36.0,13.7 36.3,13.9 Q36.5,14.1 36.5,14.8 Q36.5,15.6 36.3,15.8 Q36.0,16.0 35.4,16.0 Z M35.6,22.0 Q34.6,22.0 34.3,21.8 Q34.0,21.6 34.0,20.9 Q34.0,20.5 34.0,20.3 Q34.1,20.2 34.3,19.9 Q34.6,20.0 34.7,20.0 Q34.9,20.0 35.5,20.0 L36.2,20.0 Q37.0,20.0 37.2,20.1 Q37.4,20.1 37.4,20.8 Q37.4,21.5 37.0,21.7 Q36.7,22.0 35.6,22.0 Z"/><path d="M43.6,20.0 Q44.5,20.0 44.9,19.8 Q45.2,19.6 45.9,19.0 L46.0,19.0 L46.1,20.0 L48.2,20.0 L48.2,15.6 Q48.2,13.2 47.6,12.6 Q47.0,12.0 44.9,12.0 Q43.7,12.0 43.1,12.2 Q42.6,12.4 41.5,13.1 L42.4,14.7 Q43.2,14.2 43.5,14.1 Q43.8,14.0 44.5,14.0 Q45.3,14.0 45.5,14.2 Q45.6,14.4 45.7,15.0 Q42.6,15.3 41.9,15.8 Q41.3,16.2 41.3,17.8 Q41.3,18.9 41.7,19.5 Q42.1,20.0 43.6,20.0 Z M44.5,18.1 Q44.0,18.1 43.8,18.0 Q43.6,17.9 43.6,17.4 Q43.6,16.9 43.9,16.7 Q44.1,16.5 45.7,16.3 L45.7,17.5 Q45.3,17.9 45.1,18.0 Q45.0,18.1 44.5,18.1 Z"/><path d="M52.1,20.0 Q52.6,20.0 52.8,20.0 Q53.0,19.9 53.3,19.8 L53.0,18.0 Q52.9,18.0 52.8,18.0 Q52.8,18.0 52.7,18.0 Q52.5,18.0 52.4,17.9 Q52.3,17.8 52.3,17.3 L52.3,8.6 L49.8,8.6 L49.8,17.2 Q49.8,18.9 50.1,19.4 Q50.4,20.0 52.1,20.0 Z"/><path d="M54.7,16.8 L58.7,16.8 L58.7,15.0 L54.7,15.0 L54.7,16.8 Z"/><path d="M63.1,20.0 Q63.8,20.0 64.2,19.8 Q64.6,19.6 65.2,19.0 L65.2,19.0 L65.4,20.0 L67.4,20.0 L67.4,9.0 L64.9,9.0 L64.9,11.6 L65.0,12.8 Q64.5,12.3 64.2,12.2 Q64.0,12.0 63.1,12.0 Q61.4,12.0 60.6,12.8 Q59.8,13.6 59.8,16.1 Q59.8,18.4 60.4,19.2 Q61.1,20.0 63.1,20.0 Z M63.7,18.0 Q62.9,18.0 62.6,17.7 Q62.4,17.4 62.4,16.0 Q62.4,14.6 62.7,14.3 Q63.0,14.0 63.7,14.0 Q64.1,14.0 64.3,14.1 Q64.5,14.2 64.9,14.5 L64.9,17.3 Q64.6,17.8 64.4,17.9 Q64.2,18.0 63.7,18.0 Z"/><path d="M72.9,20.0 Q74.9,20.0 75.8,19.2 Q76.8,18.5 76.8,16.0 Q76.8,13.5 75.8,12.8 Q74.9,12.0 72.9,12.0 Q70.8,12.0 69.9,12.8 Q68.9,13.5 68.9,16.0 Q68.9,18.5 69.9,19.2 Q70.8,20.0 72.9,20.0 Z M72.9,18.0 Q71.9,18.0 71.7,17.6 Q71.5,17.2 71.5,16.0 Q71.5,14.8 71.7,14.4 Q71.9,14.0 72.9,14.0 Q73.8,14.0 74.0,14.4 Q74.2,14.8 74.2,16.0 Q74.2,17.2 74.0,17.6 Q73.8,18.0 72.9,18.0 Z"/><path d="M82.1,20.0 Q83.0,20.0 83.5,19.9 Q84.0,19.8 84.8,19.1 L83.8,17.5 Q83.4,17.8 83.1,17.9 Q82.9,18.0 82.4,18.0 Q81.4,18.0 81.1,17.6 Q80.7,17.2 80.7,16.0 Q80.7,14.8 81.0,14.4 Q81.4,14.0 82.5,14.0 Q82.8,14.0 83.0,14.1 Q83.1,14.1 83.5,14.4 L84.7,12.9 Q84.1,12.3 83.7,12.2 Q83.3,12.0 82.3,12.0 Q80.1,12.0 79.1,12.8 Q78.1,13.5 78.1,16.0 Q78.1,18.5 79.0,19.2 Q79.9,20.0 82.1,20.0 Z"/><path d="M89.2,20.0 Q90.3,20.0 90.7,19.8 Q91.0,19.5 91.7,18.7 L91.8,18.7 L91.9,20.0 L94.0,20.0 L94.0,12.0 L91.5,12.0 L91.5,17.1 Q91.1,17.7 90.9,17.8 Q90.7,17.9 90.1,17.9 Q89.5,17.9 89.4,17.7 Q89.2,17.6 89.2,16.5 L89.2,12.0 L86.7,12.0 L86.7,16.8 Q86.7,18.8 87.1,19.4 Q87.5,20.0 89.2,20.0 Z"/><path d="M96.0,20.0 L98.5,20.0 L98.5,14.8 Q99.0,14.4 99.2,14.2 Q99.4,14.1 99.8,14.1 Q100.4,14.1 100.5,14.3 Q100.7,14.4 100.7,15.5 L100.7,20.0 L103.2,20.0 L103.2,14.8 Q103.7,14.4 103.9,14.2 Q104.1,14.1 104.5,14.1 Q105.1,14.1 105.2,14.3 Q105.4,14.4 105.4,15.5 L105.4,20.0 L107.8,20.0 L107.8,15.2 Q107.8,13.2 107.5,12.6 Q107.1,12.0 105.4,12.0 Q104.3,12.0 103.9,12.3 Q103.5,12.6 102.9,13.3 Q102.5,12.5 102.1,12.2 Q101.8,12.0 100.7,12.0 Q99.6,12.0 99.3,12.3 Q98.9,12.5 98.3,13.2 L98.2,13.2 L98.0,12.0 L96.0,12.0 L96.0,20.0 Z"/><path d="M113.8,20.0 Q114.7,20.0 115.3,19.8 Q115.8,19.7 116.7,19.1 L115.8,17.6 Q115.3,17.9 115.0,18.0 Q114.7,18.1 114.2,18.1 Q113.1,18.1 112.8,17.9 Q112.4,17.7 112.2,16.6 L116.8,16.6 Q116.9,16.5 116.9,16.2 Q117.0,16.0 117.0,15.6 Q117.0,13.7 116.4,12.8 Q115.8,12.0 113.5,12.0 Q111.6,12.0 110.7,12.8 Q109.7,13.6 109.7,15.9 Q109.7,18.5 110.6,19.2 Q111.5,20.0 113.8,20.0 Z M112.1,15.0 Q112.3,14.3 112.6,14.1 Q112.9,13.9 113.6,13.9 Q114.5,13.9 114.7,14.1 Q114.8,14.4 114.8,15.0 L112.1,15.0 Z"/><path d="M118.4,20.0 L120.9,20.0 L120.9,14.8 Q121.4,14.4 121.5,14.3 Q121.7,14.1 122.3,14.1 Q122.9,14.1 123.0,14.3 Q123.2,14.4 123.2,15.5 L123.2,20.0 L125.7,20.0 L125.7,15.2 Q125.7,13.2 125.3,12.6 Q124.9,12.0 123.2,12.0 Q122.1,12.0 121.7,12.3 Q121.3,12.5 120.7,13.2 L120.6,13.2 L120.4,12.0 L118.4,12.0 L118.4,20.0 Z"/><path d="M130.7,20.0 Q131.6,20.0 131.8,19.9 Q132.1,19.8 132.6,19.7 L132.1,17.9 Q132.0,18.0 131.8,18.0 Q131.7,18.1 131.4,18.1 Q130.8,18.1 130.6,17.9 Q130.4,17.7 130.4,16.9 L130.4,14.0 L132.3,14.0 L132.3,12.0 L130.4,12.0 L130.4,9.9 L128.4,9.9 L128.1,12.0 L126.9,12.1 L126.9,14.0 L127.9,14.0 L127.9,16.9 Q127.9,18.7 128.3,19.4 Q128.7,20.0 130.7,20.0 Z"/><path d="M133.5,16.8 L137.5,16.8 L137.5,15.0 L133.5,15.0 L133.5,16.8 Z"/><path d="M141.4,20.0 Q143.5,20.0 144.1,19.4 Q144.7,18.9 144.7,17.5 Q144.7,16.1 144.1,15.9 Q143.6,15.6 142.6,15.2 Q141.8,15.0 141.4,14.9 Q141.1,14.8 141.1,14.4 Q141.1,14.0 141.2,13.9 Q141.4,13.8 141.9,13.8 Q142.5,13.8 142.7,14.0 Q143.0,14.1 143.6,14.5 L144.7,13.0 Q144.0,12.5 143.6,12.3 Q143.1,12.0 141.8,12.0 Q140.0,12.0 139.4,12.5 Q138.8,13.0 138.8,14.5 Q138.8,15.7 139.3,16.0 Q139.8,16.3 140.8,16.6 Q141.6,16.9 142.0,17.0 Q142.4,17.2 142.4,17.6 Q142.4,18.0 142.2,18.1 Q142.1,18.2 141.4,18.2 Q140.8,18.2 140.5,18.0 Q140.2,17.9 139.4,17.4 L138.3,18.9 Q139.1,19.6 139.7,19.8 Q140.3,20.0 141.4,20.0 Z"/><path d="M148.6,20.0 Q149.7,20.0 150.1,19.8 Q150.4,19.5 151.1,18.7 L151.2,18.7 L151.3,20.0 L153.4,20.0 L153.4,12.0 L150.9,12.0 L150.9,17.1 Q150.4,17.7 150.3,17.8 Q150.1,17.9 149.5,17.9 Q148.9,17.9 148.8,17.7 Q148.6,17.6 148.6,16.5 L148.6,12.0 L146.1,12.0 L146.1,16.8 Q146.1,18.8 146.5,19.4 Q146.9,20.0 148.6,20.0 Z"/><path d="M155.4,20.0 L157.9,20.0 L157.9,14.8 Q158.4,14.4 158.6,14.2 Q158.8,14.1 159.1,14.1 Q159.8,14.1 159.9,14.3 Q160.1,14.4 160.1,15.5 L160.1,20.0 L162.6,20.0 L162.6,14.8 Q163.1,14.4 163.3,14.2 Q163.5,14.1 163.9,14.1 Q164.5,14.1 164.6,14.3 Q164.8,14.4 164.8,15.5 L164.8,20.0 L167.2,20.0 L167.2,15.2 Q167.2,13.2 166.9,12.6 Q166.5,12.0 164.8,12.0 Q163.7,12.0 163.3,12.3 Q162.9,12.6 162.3,13.3 Q161.9,12.5 161.5,12.2 Q161.2,12.0 160.1,12.0 Q159.0,12.0 158.7,12.3 Q158.3,12.5 157.6,13.2 L157.6,13.2 L157.4,12.0 L155.4,12.0 L155.4,20.0 Z"/><path d="M169.6,20.0 L172.1,20.0 L172.1,14.8 Q172.6,14.4 172.8,14.2 Q173.0,14.1 173.3,14.1 Q174.0,14.1 174.1,14.3 Q174.3,14.4 174.3,15.5 L174.3,20.0 L176.8,20.0 L176.8,14.8 Q177.3,14.4 177.5,14.2 Q177.7,14.1 178.1,14.1 Q178.7,14.1 178.8,14.3 Q179.0,14.4 179.0,15.5 L179.0,20.0 L181.4,20.0 L181.4,15.2 Q181.4,13.2 181.1,12.6 Q180.7,12.0 179.0,12.0 Q177.9,12.0 177.5,12.3 Q177.1,12.6 176.5,13.3 Q176.1,12.5 175.7,12.2 Q175.4,12.0 174.3,12.0 Q173.2,12.0 172.9,12.3 Q172.5,12.5 171.8,13.2 L171.8,13.2 L171.6,12.0 L169.6,12.0 L169.6,20.0 Z"/><path d="M185.8,20.0 Q186.7,20.0 187.1,19.8 Q187.4,19.6 188.1,19.0 L188.2,19.0 L188.3,20.0 L190.4,20.0 L190.4,15.6 Q190.4,13.2 189.8,12.6 Q189.2,12.0 187.1,12.0 Q185.9,12.0 185.3,12.2 Q184.8,12.4 183.7,13.1 L184.6,14.7 Q185.4,14.2 185.7,14.1 Q186.0,14.0 186.7,14.0 Q187.5,14.0 187.7,14.2 Q187.8,14.4 187.9,15.0 Q184.8,15.3 184.1,15.8 Q183.5,16.2 183.5,17.8 Q183.5,18.9 183.9,19.5 Q184.3,20.0 185.8,20.0 Z M186.7,18.1 Q186.2,18.1 186.0,18.0 Q185.8,17.9 185.8,17.4 Q185.8,16.9 186.1,16.7 Q186.3,16.5 187.9,16.3 L187.9,17.5 Q187.5,17.9 187.3,18.0 Q187.2,18.1 186.7,18.1 Z"/><path d="M192.0,20.0 L194.5,20.0 L194.5,15.5 Q194.9,14.6 195.3,14.4 Q195.6,14.2 196.2,14.2 Q196.5,14.2 196.7,14.2 Q196.8,14.2 197.1,14.3 L197.5,12.0 Q197.3,12.1 197.1,12.0 Q197.0,12.0 196.5,12.0 Q195.7,12.0 195.3,12.3 Q194.8,12.5 194.2,13.6 L194.2,13.6 L194.0,12.0 L192.0,12.0 L192.0,20.0 Z"/><path d="M199.2,20.0 L201.7,20.0 L201.7,12.0 L199.2,12.0 L199.2,20.0 Z M200.4,11.0 Q201.3,11.0 201.6,10.8 Q201.8,10.5 201.8,9.7 Q201.8,9.0 201.6,8.7 Q201.3,8.4 200.4,8.4 Q199.6,8.4 199.3,8.7 Q199.1,9.0 199.1,9.7 Q199.1,10.5 199.3,10.8 Q199.6,11.0 200.4,11.0 Z"/><path d="M204.0,20.0 L210.5,20.0 L210.5,18.1 L207.1,18.1 L210.4,13.3 L210.4,12.0 L204.4,12.0 L204.4,14.0 L207.2,14.0 L204.0,18.7 L204.0,20.0 Z"/><path d="M213.6,20.0 Q214.5,20.0 214.9,19.8 Q215.2,19.6 215.9,19.0 L216.0,19.0 L216.1,20.0 L218.2,20.0 L218.2,15.6 Q218.2,13.2 217.6,12.6 Q217.0,12.0 214.9,12.0 Q213.7,12.0 213.1,12.2 Q212.6,12.4 211.5,13.1 L212.4,14.7 Q213.2,14.2 213.5,14.1 Q213.8,14.0 214.5,14.0 Q215.3,14.0 215.5,14.2 Q215.6,14.4 215.7,15.0 Q212.6,15.3 211.9,15.8 Q211.3,16.2 211.3,17.8 Q211.3,18.9 211.7,19.5 Q212.1,20.0 213.6,20.0 Z M214.5,18.1 Q214.0,18.1 213.8,18.0 Q213.6,17.9 213.6,17.4 Q213.6,16.9 213.9,16.7 Q214.1,16.5 215.7,16.3 L215.7,17.5 Q215.3,17.9 215.1,18.0 Q215.0,18.1 214.5,18.1 Z"/><path d="M222.9,20.0 Q223.8,20.0 224.0,19.9 Q224.3,19.8 224.8,19.7 L224.3,17.9 Q224.2,18.0 224.0,18.0 Q223.9,18.1 223.6,18.1 Q223.0,18.1 222.8,17.9 Q222.6,17.7 222.6,16.9 L222.6,14.0 L224.5,14.0 L224.5,12.0 L222.6,12.0 L222.6,9.9 L220.5,9.9 L220.3,12.0 L219.0,12.1 L219.0,14.0 L220.1,14.0 L220.1,16.9 Q220.1,18.7 220.5,19.4 Q220.9,20.0 222.9,20.0 Z"/><path d="M226.0,20.0 L228.5,20.0 L228.5,12.0 L226.0,12.0 L226.0,20.0 Z M227.2,11.0 Q228.1,11.0 228.4,10.8 Q228.6,10.5 228.6,9.7 Q228.6,9.0 228.4,8.7 Q228.1,8.4 227.2,8.4 Q226.4,8.4 226.1,8.7 Q225.9,9.0 225.9,9.7 Q225.9,10.5 226.1,10.8 Q226.4,11.0 227.2,11.0 Z"/><path d="M234.7,20.0 Q236.7,20.0 237.6,19.2 Q238.6,18.5 238.6,16.0 Q238.6,13.5 237.6,12.8 Q236.7,12.0 234.7,12.0 Q232.6,12.0 231.7,12.8 Q230.7,13.5 230.7,16.0 Q230.7,18.5 231.7,19.2 Q232.6,20.0 234.7,20.0 Z M234.7,18.0 Q233.7,18.0 233.5,17.6 Q233.3,17.2 233.3,16.0 Q233.3,14.8 233.5,14.4 Q233.7,14.0 234.7,14.0 Q235.6,14.0 235.8,14.4 Q236.0,14.8 236.0,16.0 Q236.0,17.2 235.8,17.6 Q235.6,18.0 234.7,18.0 Z"/><path d="M240.4,20.0 L242.9,20.0 L242.9,14.8 Q243.4,14.4 243.5,14.3 Q243.7,14.1 244.3,14.1 Q244.9,14.1 245.0,14.3 Q245.2,14.4 245.2,15.5 L245.2,20.0 L247.7,20.0 L247.7,15.2 Q247.7,13.2 247.3,12.6 Q246.9,12.0 245.2,12.0 Q244.1,12.0 243.7,12.3 Q243.3,12.5 242.6,13.2 L242.6,13.2 L242.4,12.0 L240.4,12.0 L240.4,20.0 Z"/></g>
  
</svg>
