<svg xmlns="http://www.w3.org/2000/svg" viewBox="0 0 253 30" width="253" height="30" role="img" aria-label="dispute-and-performance-risk">
  <rect x="0.5" y="0.5" width="252" height="29" rx="5" fill="#f3e0e6"/>
  <rect x="0" y="0" width="4" height="30" rx="2" fill="#9c3a55"/>
  <g fill="#2a2d34"><path d="M21.9,20.0 Q22.6,20.0 23.0,19.8 Q23.4,19.6 24.0,19.0 L24.0,19.0 L24.2,20.0 L26.2,20.0 L26.2,9.0 L23.7,9.0 L23.7,11.6 L23.8,12.8 Q23.3,12.3 23.0,12.2 Q22.8,12.0 21.9,12.0 Q20.2,12.0 19.4,12.8 Q18.6,13.6 18.6,16.1 Q18.6,18.4 19.2,19.2 Q19.9,20.0 21.9,20.0 Z M22.5,18.0 Q21.7,18.0 21.4,17.7 Q21.2,17.4 21.2,16.0 Q21.2,14.6 21.5,14.3 Q21.8,14.0 22.5,14.0 Q22.9,14.0 23.1,14.1 Q23.3,14.2 23.7,14.5 L23.7,17.3 Q23.4,17.8 23.2,17.9 Q23.0,18.0 22.5,18.0 Z"/><path d="M28.2,20.0 L30.7,20.0 L30.7,12.0 L28.2,12.0 L28.2,20.0 Z M29.4,11.0 Q30.3,11.0 30.6,10.8 Q30.8,10.5 30.8,9.7 Q30.8,9.0 30.6,8.7 Q30.3,8.4 29.4,8.4 Q28.6,8.4 28.3,8.7 Q28.1,9.0 28.1,9.7 Q28.1,10.5 28.3,10.8 Q28.6,11.0 29.4,11.0 Z"/><path d="M35.8,20.0 Q37.9,20.0 38.5,19.4 Q39.1,18.9 39.1,17.5 Q39.1,16.1 38.5,15.9 Q38.0,15.6 37.0,15.2 Q36.2,15.0 35.8,14.9 Q35.5,14.8 35.5,14.4 Q35.5,14.0 35.6,13.9 Q35.8,13.8 36.3,13.8 Q36.9,13.8 37.1,14.0 Q37.4,14.1 38.0,14.5 L39.1,13.0 Q38.4,12.5 38.0,12.3 Q37.5,12.0 36.2,12.0 Q34.4,12.0 33.8,12.5 Q33.2,13.0 33.2,14.5 Q33.2,15.7 33.7,16.0 Q34.2,16.3 35.2,16.6 Q36.0,16.9 36.4,17.0 Q36.8,17.2 36.8,17.6 Q36.8,18.0 36.6,18.1 Q36.5,18.2 35.8,18.2 Q35.2,18.2 34.9,18.0 Q34.6,17.9 33.8,17.4 L32.7,18.9 Q33.5,19.6 34.1,19.8 Q34.7,20.0 35.8,20.0 Z"/><path d="M40.6,23.0 L43.1,23.0 L43.1,20.5 L43.0,19.2 Q43.5,19.7 43.9,19.9 Q44.2,20.0 44.9,20.0 Q46.6,20.0 47.4,19.2 Q48.2,18.4 48.2,15.8 Q48.2,13.6 47.6,12.8 Q47.0,12.0 45.1,12.0 Q44.3,12.0 43.9,12.2 Q43.5,12.4 42.9,13.0 L42.8,13.0 L42.6,12.0 L40.6,12.0 L40.6,23.0 Z M44.3,18.0 Q43.9,18.0 43.7,17.9 Q43.5,17.9 43.1,17.5 L43.1,14.7 Q43.5,14.2 43.7,14.1 Q43.9,14.0 44.4,14.0 Q45.2,14.0 45.4,14.3 Q45.6,14.6 45.6,15.9 Q45.6,17.3 45.3,17.7 Q45.0,18.0 44.3,18.0 Z"/><path d="M52.2,20.0 Q53.3,20.0 53.7,19.8 Q54.0,19.5 54.7,18.7 L54.8,18.7 L54.9,20.0 L57.0,20.0 L57.0,12.0 L54.5,12.0 L54.5,17.1 Q54.0,17.7 53.9,17.8 Q53.7,17.9 53.1,17.9 Q52.5,17.9 52.4,17.7 Q52.2,17.6 52.2,16.5 L52.2,12.0 L49.7,12.0 L49.7,16.8 Q49.7,18.8 50.1,19.4 Q50.5,20.0 52.2,20.0 Z"/><path d="M62.1,20.0 Q63.0,20.0 63.2,19.9 Q63.5,19.8 64.0,19.7 L63.5,17.9 Q63.4,18.0 63.2,18.0 Q63.1,18.1 62.8,18.1 Q62.2,18.1 62.0,17.9 Q61.8,17.7 61.8,16.9 L61.8,14.0 L63.7,14.0 L63.7,12.0 L61.8,12.0 L61.8,9.9 L59.8,9.9 L59.5,12.0 L58.2,12.1 L58.2,14.0 L59.3,14.0 L59.3,16.9 Q59.3,18.7 59.7,19.4 Q60.1,20.0 62.1,20.0 Z"/><path d="M68.8,20.0 Q69.7,20.0 70.3,19.8 Q70.8,19.7 71.7,19.1 L70.8,17.6 Q70.3,17.9 70.0,18.0 Q69.7,18.1 69.2,18.1 Q68.1,18.1 67.8,17.9 Q67.4,17.7 67.2,16.6 L71.8,16.6 Q71.9,16.5 71.9,16.2 Q72.0,16.0 72.0,15.6 Q72.0,13.7 71.4,12.8 Q70.8,12.0 68.5,12.0 Q66.6,12.0 65.7,12.8 Q64.7,13.6 64.7,15.9 Q64.7,18.5 65.6,19.2 Q66.5,20.0 68.8,20.0 Z M67.1,15.0 Q67.3,14.3 67.6,14.1 Q67.9,13.9 68.6,13.9 Q69.5,13.9 69.7,14.1 Q69.8,14.4 69.8,15.0 L67.1,15.0 Z"/><path d="M73.1,16.8 L77.1,16.8 L77.1,15.0 L73.1,15.0 L73.1,16.8 Z"/><path d="M80.6,20.0 Q81.5,20.0 81.9,19.8 Q82.2,19.6 82.9,19.0 L83.0,19.0 L83.1,20.0 L85.2,20.0 L85.2,15.6 Q85.2,13.2 84.6,12.6 Q84.0,12.0 81.9,12.0 Q80.7,12.0 80.1,12.2 Q79.6,12.4 78.5,13.1 L79.4,14.7 Q80.2,14.2 80.5,14.1 Q80.8,14.0 81.5,14.0 Q82.3,14.0 82.5,14.2 Q82.6,14.4 82.7,15.0 Q79.6,15.3 78.9,15.8 Q78.3,16.2 78.3,17.8 Q78.3,18.9 78.7,19.5 Q79.1,20.0 80.6,20.0 Z M81.5,18.1 Q81.0,18.1 80.8,18.0 Q80.6,17.9 80.6,17.4 Q80.6,16.9 80.9,16.7 Q81.1,16.5 82.7,16.3 L82.7,17.5 Q82.3,17.9 82.1,18.0 Q82.0,18.1 81.5,18.1 Z"/><path d="M86.8,20.0 L89.3,20.0 L89.3,14.8 Q89.8,14.4 89.9,14.3 Q90.1,14.1 90.7,14.1 Q91.3,14.1 91.4,14.3 Q91.6,14.4 91.6,15.5 L91.6,20.0 L94.1,20.0 L94.1,15.2 Q94.1,13.2 93.7,12.6 Q93.3,12.0 91.6,12.0 Q90.5,12.0 90.1,12.3 Q89.7,12.5 89.1,13.2 L89.0,13.2 L88.8,12.0 L86.8,12.0 L86.8,20.0 Z"/><path d="M98.9,20.0 Q99.6,20.0 100.0,19.8 Q100.4,19.6 101.0,19.0 L101.0,19.0 L101.2,20.0 L103.2,20.0 L103.2,9.0 L100.7,9.0 L100.7,11.6 L100.8,12.8 Q100.3,12.3 100.0,12.2 Q99.8,12.0 98.9,12.0 Q97.2,12.0 96.4,12.8 Q95.6,13.6 95.6,16.1 Q95.6,18.4 96.2,19.2 Q96.9,20.0 98.9,20.0 Z M99.5,18.0 Q98.7,18.0 98.4,17.7 Q98.2,17.4 98.2,16.0 Q98.2,14.6 98.5,14.3 Q98.8,14.0 99.5,14.0 Q99.9,14.0 100.1,14.1 Q100.3,14.2 100.7,14.5 L100.7,17.3 Q100.4,17.8 100.2,17.9 Q100.0,18.0 99.5,18.0 Z"/><path d="M104.9,16.8 L108.9,16.8 L108.9,15.0 L104.9,15.0 L104.9,16.8 Z"/><path d="M110.4,23.0 L112.9,23.0 L112.9,20.5 L112.8,19.2 Q113.3,19.7 113.7,19.9 Q114.0,20.0 114.7,20.0 Q116.4,20.0 117.2,19.2 Q118.0,18.4 118.0,15.8 Q118.0,13.6 117.4,12.8 Q116.8,12.0 114.9,12.0 Q114.1,12.0 113.7,12.2 Q113.3,12.4 112.7,13.0 L112.6,13.0 L112.4,12.0 L110.4,12.0 L110.4,23.0 Z M114.1,18.0 Q113.7,18.0 113.5,17.9 Q113.3,17.9 112.9,17.5 L112.9,14.7 Q113.3,14.2 113.5,14.1 Q113.7,14.0 114.2,14.0 Q115.0,14.0 115.2,14.3 Q115.4,14.6 115.4,15.9 Q115.4,17.3 115.1,17.7 Q114.8,18.0 114.1,18.0 Z"/><path d="M123.2,20.0 Q124.1,20.0 124.7,19.8 Q125.2,19.7 126.1,19.1 L125.2,17.6 Q124.7,17.9 124.4,18.0 Q124.1,18.1 123.6,18.1 Q122.5,18.1 122.2,17.9 Q121.8,17.7 121.6,16.6 L126.2,16.6 Q126.3,16.5 126.3,16.2 Q126.4,16.0 126.4,15.6 Q126.4,13.7 125.8,12.8 Q125.2,12.0 122.9,12.0 Q121.0,12.0 120.1,12.8 Q119.1,13.6 119.1,15.9 Q119.1,18.5 120.0,19.2 Q120.9,20.0 123.2,20.0 Z M121.5,15.0 Q121.7,14.3 122.0,14.1 Q122.3,13.9 123.0,13.9 Q123.9,13.9 124.1,14.1 Q124.2,14.4 124.2,15.0 L121.5,15.0 Z"/><path d="M127.8,20.0 L130.3,20.0 L130.3,15.5 Q130.7,14.6 131.1,14.4 Q131.4,14.2 132.0,14.2 Q132.3,14.2 132.5,14.2 Q132.6,14.2 132.9,14.3 L133.3,12.0 Q133.1,12.1 132.9,12.0 Q132.8,12.0 132.3,12.0 Q131.5,12.0 131.1,12.3 Q130.6,12.5 130.1,13.6 L130.0,13.6 L129.8,12.0 L127.8,12.0 L127.8,20.0 Z"/><path d="M134.4,14.0 L135.4,14.0 L135.4,20.0 L137.9,20.0 L137.9,14.0 L139.3,14.0 L139.3,12.0 L137.9,12.0 L137.9,11.7 Q137.9,11.2 138.1,11.1 Q138.3,11.0 138.8,11.0 Q139.1,11.0 139.2,11.0 Q139.4,11.0 139.6,11.1 L140.1,9.3 Q139.7,9.1 139.4,9.1 Q139.1,9.0 138.4,9.0 Q136.2,9.0 135.8,9.7 Q135.4,10.4 135.4,11.8 L135.4,12.0 L134.4,12.1 L134.4,14.0 Z"/><path d="M144.7,20.0 Q146.7,20.0 147.6,19.2 Q148.6,18.5 148.6,16.0 Q148.6,13.5 147.6,12.8 Q146.7,12.0 144.7,12.0 Q142.6,12.0 141.7,12.8 Q140.7,13.5 140.7,16.0 Q140.7,18.5 141.7,19.2 Q142.6,20.0 144.7,20.0 Z M144.7,18.0 Q143.7,18.0 143.5,17.6 Q143.3,17.2 143.3,16.0 Q143.3,14.8 143.5,14.4 Q143.7,14.0 144.7,14.0 Q145.6,14.0 145.8,14.4 Q146.0,14.8 146.0,16.0 Q146.0,17.2 145.8,17.6 Q145.6,18.0 144.7,18.0 Z"/><path d="M150.4,20.0 L152.9,20.0 L152.9,15.5 Q153.3,14.6 153.7,14.4 Q154.0,14.2 154.6,14.2 Q154.9,14.2 155.1,14.2 Q155.2,14.2 155.5,14.3 L155.9,12.0 Q155.7,12.1 155.5,12.0 Q155.4,12.0 154.9,12.0 Q154.1,12.0 153.7,12.3 Q153.2,12.5 152.7,13.6 L152.6,13.6 L152.4,12.0 L150.4,12.0 L150.4,20.0 Z"/><path d="M157.6,20.0 L160.1,20.0 L160.1,14.8 Q160.6,14.4 160.8,14.2 Q161.0,14.1 161.3,14.1 Q162.0,14.1 162.1,14.3 Q162.3,14.4 162.3,15.5 L162.3,20.0 L164.8,20.0 L164.8,14.8 Q165.3,14.4 165.5,14.2 Q165.7,14.1 166.1,14.1 Q166.7,14.1 166.8,14.3 Q167.0,14.4 167.0,15.5 L167.0,20.0 L169.4,20.0 L169.4,15.2 Q169.4,13.2 169.1,12.6 Q168.7,12.0 167.0,12.0 Q165.9,12.0 165.5,12.3 Q165.1,12.6 164.5,13.3 Q164.1,12.5 163.7,12.2 Q163.4,12.0 162.3,12.0 Q161.2,12.0 160.9,12.3 Q160.5,12.5 159.8,13.2 L159.8,13.2 L159.6,12.0 L157.6,12.0 L157.6,20.0 Z"/><path d="M173.8,20.0 Q174.7,20.0 175.1,19.8 Q175.4,19.6 176.1,19.0 L176.2,19.0 L176.3,20.0 L178.4,20.0 L178.4,15.6 Q178.4,13.2 177.8,12.6 Q177.2,12.0 175.1,12.0 Q173.9,12.0 173.3,12.2 Q172.8,12.4 171.7,13.1 L172.6,14.7 Q173.4,14.2 173.7,14.1 Q174.0,14.0 174.7,14.0 Q175.5,14.0 175.7,14.2 Q175.8,14.4 175.9,15.0 Q172.8,15.3 172.1,15.8 Q171.5,16.2 171.5,17.8 Q171.5,18.9 171.9,19.5 Q172.3,20.0 173.8,20.0 Z M174.7,18.1 Q174.2,18.1 174.0,18.0 Q173.8,17.9 173.8,17.4 Q173.8,16.9 174.1,16.7 Q174.3,16.5 175.9,16.3 L175.9,17.5 Q175.5,17.9 175.3,18.0 Q175.2,18.1 174.7,18.1 Z"/><path d="M180.0,20.0 L182.5,20.0 L182.5,14.8 Q183.0,14.4 183.1,14.3 Q183.3,14.1 183.9,14.1 Q184.5,14.1 184.6,14.3 Q184.8,14.4 184.8,15.5 L184.8,20.0 L187.3,20.0 L187.3,15.2 Q187.3,13.2 186.9,12.6 Q186.5,12.0 184.8,12.0 Q183.7,12.0 183.3,12.3 Q182.9,12.5 182.2,13.2 L182.2,13.2 L182.0,12.0 L180.0,12.0 L180.0,20.0 Z"/><path d="M192.7,20.0 Q193.6,20.0 194.1,19.9 Q194.6,19.8 195.4,19.1 L194.4,17.5 Q194.0,17.8 193.7,17.9 Q193.5,18.0 193.0,18.0 Q192.0,18.0 191.7,17.6 Q191.3,17.2 191.3,16.0 Q191.3,14.8 191.6,14.4 Q192.0,14.0 193.1,14.0 Q193.4,14.0 193.6,14.1 Q193.7,14.1 194.1,14.4 L195.3,12.9 Q194.7,12.3 194.3,12.2 Q193.9,12.0 192.9,12.0 Q190.7,12.0 189.7,12.8 Q188.7,13.5 188.7,16.0 Q188.7,18.5 189.6,19.2 Q190.5,20.0 192.7,20.0 Z"/><path d="M201.0,20.0 Q201.9,20.0 202.5,19.8 Q203.0,19.7 203.9,19.1 L203.0,17.6 Q202.5,17.9 202.2,18.0 Q201.9,18.1 201.4,18.1 Q200.3,18.1 200.0,17.9 Q199.6,17.7 199.4,16.6 L204.0,16.6 Q204.1,16.5 204.1,16.2 Q204.1,16.0 204.1,15.6 Q204.1,13.7 203.6,12.8 Q203.0,12.0 200.7,12.0 Q198.8,12.0 197.9,12.8 Q196.9,13.6 196.9,15.9 Q196.9,18.5 197.8,19.2 Q198.7,20.0 201.0,20.0 Z M199.3,15.0 Q199.5,14.3 199.8,14.1 Q200.1,13.9 200.8,13.9 Q201.7,13.9 201.9,14.1 Q202.0,14.4 202.0,15.0 L199.3,15.0 Z"/><path d="M205.3,16.8 L209.3,16.8 L209.3,15.0 L205.3,15.0 L205.3,16.8 Z"/><path d="M210.8,20.0 L213.3,20.0 L213.3,15.5 Q213.7,14.6 214.1,14.4 Q214.4,14.2 215.0,14.2 Q215.3,14.2 215.5,14.2 Q215.6,14.2 215.9,14.3 L216.3,12.0 Q216.1,12.1 215.9,12.0 Q215.8,12.0 215.3,12.0 Q214.5,12.0 214.1,12.3 Q213.6,12.5 213.0,13.6 L213.0,13.6 L212.8,12.0 L210.8,12.0 L210.8,20.0 Z"/><path d="M218.0,20.0 L220.5,20.0 L220.5,12.0 L218.0,12.0 L218.0,20.0 Z M219.2,11.0 Q220.1,11.0 220.4,10.8 Q220.6,10.5 220.6,9.7 Q220.6,9.0 220.4,8.7 Q220.1,8.4 219.2,8.4 Q218.4,8.4 218.1,8.7 Q217.9,9.0 217.9,9.7 Q217.9,10.5 218.1,10.8 Q218.4,11.0 219.2,11.0 Z"/><path d="M225.6,20.0 Q227.7,20.0 228.3,19.4 Q228.9,18.9 228.9,17.5 Q228.9,16.1 228.3,15.9 Q227.8,15.6 226.8,15.2 Q226.0,15.0 225.6,14.9 Q225.3,14.8 225.3,14.4 Q225.3,14.0 225.4,13.9 Q225.6,13.8 226.1,13.8 Q226.7,13.8 226.9,14.0 Q227.2,14.1 227.8,14.5 L228.9,13.0 Q228.2,12.5 227.8,12.3 Q227.3,12.0 226.0,12.0 Q224.2,12.0 223.6,12.5 Q223.0,13.0 223.0,14.5 Q223.0,15.7 223.5,16.0 Q224.0,16.3 225.0,16.6 Q225.8,16.9 226.2,17.0 Q226.6,17.2 226.6,17.6 Q226.6,18.0 226.4,18.1 Q226.3,18.2 225.6,18.2 Q225.0,18.2 224.7,18.0 Q224.4,17.9 223.6,17.4 L222.5,18.9 Q223.3,19.6 223.9,19.8 Q224.5,20.0 225.6,20.0 Z"/><path d="M230.4,20.0 L232.9,20.0 L232.9,18.0 L233.8,17.0 L235.5,20.0 L238.2,20.0 L235.2,15.3 L238.0,12.0 L235.3,12.0 L232.9,15.0 L232.9,15.0 L232.9,8.8 L230.4,8.8 L230.4,20.0 Z"/></g>
  
</svg>
