<svg xmlns="http://www.w3.org/2000/svg" viewBox="0 0 181 30" width="181" height="30" role="img" aria-label="analogical-reasoning">
  <rect x="0.5" y="0.5" width="180" height="29" rx="5" fill="#f6e3dc"/>
  <rect x="0" y="0" width="4" height="30" rx="2" fill="#b5462f"/>
  <g fill="#2a2d34"><path d="M21.0,20.0 Q21.9,20.0 22.3,19.8 Q22.6,19.6 23.3,19.0 L23.4,19.0 L23.5,20.0 L25.6,20.0 L25.6,15.6 Q25.6,13.2 25.0,12.6 Q24.4,12.0 22.3,12.0 Q21.1,12.0 20.5,12.2 Q20.0,12.4 18.9,13.1 L19.8,14.7 Q20.6,14.2 20.9,14.1 Q21.2,14.0 21.9,14.0 Q22.7,14.0 22.9,14.2 Q23.0,14.4 23.1,15.0 Q20.0,15.3 19.3,15.8 Q18.7,16.2 18.7,17.8 Q18.7,18.9 19.1,19.5 Q19.5,20.0 21.0,20.0 Z M21.9,18.1 Q21.4,18.1 21.2,18.0 Q21.0,17.9 21.0,17.4 Q21.0,16.9 21.3,16.7 Q21.5,16.5 23.1,16.3 L23.1,17.5 Q22.7,17.9 22.5,18.0 Q22.4,18.1 21.9,18.1 Z"/><path d="M27.2,20.0 L29.7,20.0 L29.7,14.8 Q30.2,14.4 30.3,14.3 Q30.5,14.1 31.1,14.1 Q31.7,14.1 31.8,14.3 Q32.0,14.4 32.0,15.5 L32.0,20.0 L34.5,20.0 L34.5,15.2 Q34.5,13.2 34.1,12.6 Q33.7,12.0 32.0,12.0 Q30.9,12.0 30.5,12.3 Q30.1,12.5 29.4,13.2 L29.4,13.2 L29.2,12.0 L27.2,12.0 L27.2,20.0 Z"/><path d="M38.4,20.0 Q39.3,20.0 39.7,19.8 Q40.0,19.6 40.7,19.0 L40.8,19.0 L40.9,20.0 L43.0,20.0 L43.0,15.6 Q43.0,13.2 42.4,12.6 Q41.8,12.0 39.7,12.0 Q38.5,12.0 37.9,12.2 Q37.4,12.4 36.3,13.1 L37.2,14.7 Q38.0,14.2 38.3,14.1 Q38.6,14.0 39.3,14.0 Q40.1,14.0 40.3,14.2 Q40.4,14.4 40.5,15.0 Q37.4,15.3 36.7,15.8 Q36.1,16.2 36.1,17.8 Q36.1,18.9 36.5,19.5 Q36.9,20.0 38.4,20.0 Z M39.3,18.1 Q38.8,18.1 38.6,18.0 Q38.4,17.9 38.4,17.4 Q38.4,16.9 38.7,16.7 Q38.9,16.5 40.5,16.3 L40.5,17.5 Q40.1,17.9 39.9,18.0 Q39.8,18.1 39.3,18.1 Z"/><path d="M46.9,20.0 Q47.4,20.0 47.6,20.0 Q47.8,19.9 48.1,19.8 L47.8,18.0 Q47.7,18.0 47.6,18.0 Q47.6,18.0 47.5,18.0 Q47.3,18.0 47.2,17.9 Q47.1,17.8 47.1,17.3 L47.1,8.6 L44.6,8.6 L44.6,17.2 Q44.6,18.9 44.9,19.4 Q45.2,20.0 46.9,20.0 Z"/><path d="M53.3,20.0 Q55.3,20.0 56.2,19.2 Q57.2,18.5 57.2,16.0 Q57.2,13.5 56.2,12.8 Q55.3,12.0 53.3,12.0 Q51.2,12.0 50.3,12.8 Q49.3,13.5 49.3,16.0 Q49.3,18.5 50.3,19.2 Q51.2,20.0 53.3,20.0 Z M53.3,18.0 Q52.3,18.0 52.1,17.6 Q51.9,17.2 51.9,16.0 Q51.9,14.8 52.1,14.4 Q52.3,14.0 53.3,14.0 Q54.2,14.0 54.4,14.4 Q54.6,14.8 54.6,16.0 Q54.6,17.2 54.4,17.6 Q54.2,18.0 53.3,18.0 Z"/><path d="M61.9,23.6 Q64.6,23.6 65.5,23.0 Q66.4,22.4 66.4,20.2 Q66.4,18.7 65.8,18.4 Q65.3,18.1 63.3,18.1 L62.0,18.1 Q61.2,18.1 61.0,18.1 Q60.9,18.0 60.9,17.8 Q60.9,17.6 60.9,17.6 Q61.0,17.5 61.1,17.4 Q61.5,17.5 61.6,17.5 Q61.8,17.5 62.0,17.5 Q63.8,17.5 64.5,17.1 Q65.2,16.7 65.2,14.8 Q65.2,14.4 65.2,14.2 Q65.1,14.0 65.0,13.8 L66.2,13.8 L66.2,12.0 L63.3,12.0 Q63.0,12.1 62.7,12.0 Q62.5,12.0 62.0,12.0 Q60.3,12.0 59.5,12.5 Q58.7,13.0 58.7,14.8 Q58.7,15.7 59.0,16.1 Q59.2,16.4 59.8,16.8 L59.8,16.9 Q59.3,17.2 59.1,17.5 Q58.9,17.7 58.9,18.0 Q58.9,18.7 59.1,18.9 Q59.2,19.1 59.6,19.4 L59.6,19.5 Q58.9,19.8 58.7,20.2 Q58.5,20.5 58.5,21.4 Q58.5,23.0 59.3,23.3 Q60.0,23.6 61.9,23.6 Z M62.0,16.0 Q61.5,16.0 61.3,15.8 Q61.0,15.6 61.0,14.8 Q61.0,14.1 61.3,13.9 Q61.5,13.7 62.0,13.7 Q62.6,13.7 62.9,13.9 Q63.1,14.1 63.1,14.8 Q63.1,15.6 62.9,15.8 Q62.6,16.0 62.0,16.0 Z M62.2,22.0 Q61.2,22.0 60.9,21.8 Q60.6,21.6 60.6,20.9 Q60.6,20.5 60.6,20.3 Q60.7,20.2 60.9,19.9 Q61.2,20.0 61.3,20.0 Q61.5,20.0 62.1,20.0 L62.8,20.0 Q63.6,20.0 63.8,20.1 Q64.0,20.1 64.0,20.8 Q64.0,21.5 63.6,21.7 Q63.3,22.0 62.2,22.0 Z"/><path d="M68.2,20.0 L70.7,20.0 L70.7,12.0 L68.2,12.0 L68.2,20.0 Z M69.5,11.0 Q70.3,11.0 70.6,10.8 Q70.8,10.5 70.8,9.7 Q70.8,9.0 70.6,8.7 Q70.3,8.4 69.5,8.4 Q68.6,8.4 68.3,8.7 Q68.1,9.0 68.1,9.7 Q68.1,10.5 68.3,10.8 Q68.6,11.0 69.5,11.0 Z"/><path d="M76.9,20.0 Q77.8,20.0 78.3,19.9 Q78.8,19.8 79.6,19.1 L78.6,17.5 Q78.2,17.8 77.9,17.9 Q77.7,18.0 77.2,18.0 Q76.2,18.0 75.9,17.6 Q75.5,17.2 75.5,16.0 Q75.5,14.8 75.8,14.4 Q76.2,14.0 77.3,14.0 Q77.6,14.0 77.8,14.1 Q77.9,14.1 78.3,14.4 L79.5,12.9 Q78.9,12.3 78.5,12.2 Q78.1,12.0 77.1,12.0 Q74.9,12.0 73.9,12.8 Q72.9,13.5 72.9,16.0 Q72.9,18.5 73.8,19.2 Q74.7,20.0 76.9,20.0 Z"/><path d="M83.6,20.0 Q84.5,20.0 84.9,19.8 Q85.2,19.6 85.9,19.0 L86.0,19.0 L86.1,20.0 L88.2,20.0 L88.2,15.6 Q88.2,13.2 87.6,12.6 Q87.0,12.0 84.9,12.0 Q83.7,12.0 83.1,12.2 Q82.6,12.4 81.5,13.1 L82.4,14.7 Q83.2,14.2 83.5,14.1 Q83.8,14.0 84.5,14.0 Q85.3,14.0 85.5,14.2 Q85.6,14.4 85.7,15.0 Q82.6,15.3 81.9,15.8 Q81.3,16.2 81.3,17.8 Q81.3,18.9 81.7,19.5 Q82.1,20.0 83.6,20.0 Z M84.5,18.1 Q84.0,18.1 83.8,18.0 Q83.6,17.9 83.6,17.4 Q83.6,16.9 83.9,16.7 Q84.1,16.5 85.7,16.3 L85.7,17.5 Q85.3,17.9 85.1,18.0 Q85.0,18.1 84.5,18.1 Z"/><path d="M92.1,20.0 Q92.6,20.0 92.8,20.0 Q93.0,19.9 93.3,19.8 L93.0,18.0 Q92.9,18.0 92.8,18.0 Q92.8,18.0 92.7,18.0 Q92.5,18.0 92.4,17.9 Q92.3,17.8 92.3,17.3 L92.3,8.6 L89.8,8.6 L89.8,17.2 Q89.8,18.9 90.1,19.4 Q90.4,20.0 92.1,20.0 Z"/><path d="M94.7,16.8 L98.7,16.8 L98.7,15.0 L94.7,15.0 L94.7,16.8 Z"/><path d="M100.2,20.0 L102.7,20.0 L102.7,15.5 Q103.1,14.6 103.5,14.4 Q103.8,14.2 104.4,14.2 Q104.7,14.2 104.9,14.2 Q105.0,14.2 105.3,14.3 L105.7,12.0 Q105.5,12.1 105.3,12.0 Q105.2,12.0 104.7,12.0 Q103.9,12.0 103.5,12.3 Q103.0,12.5 102.5,13.6 L102.4,13.6 L102.2,12.0 L100.2,12.0 L100.2,20.0 Z"/><path d="M111.0,20.0 Q111.9,20.0 112.5,19.8 Q113.0,19.7 113.9,19.1 L113.0,17.6 Q112.5,17.9 112.2,18.0 Q111.9,18.1 111.4,18.1 Q110.3,18.1 110.0,17.9 Q109.6,17.7 109.4,16.6 L114.0,16.6 Q114.1,16.5 114.1,16.2 Q114.2,16.0 114.2,15.6 Q114.2,13.7 113.6,12.8 Q113.0,12.0 110.7,12.0 Q108.8,12.0 107.9,12.8 Q106.9,13.6 106.9,15.9 Q106.9,18.5 107.8,19.2 Q108.7,20.0 111.0,20.0 Z M109.3,15.0 Q109.5,14.3 109.8,14.1 Q110.1,13.9 110.8,13.9 Q111.7,13.9 111.9,14.1 Q112.0,14.4 112.0,15.0 L109.3,15.0 Z"/><path d="M117.6,20.0 Q118.5,20.0 118.9,19.8 Q119.2,19.6 119.9,19.0 L120.0,19.0 L120.1,20.0 L122.2,20.0 L122.2,15.6 Q122.2,13.2 121.6,12.6 Q121.0,12.0 118.9,12.0 Q117.7,12.0 117.1,12.2 Q116.6,12.4 115.5,13.1 L116.4,14.7 Q117.2,14.2 117.5,14.1 Q117.8,14.0 118.5,14.0 Q119.3,14.0 119.5,14.2 Q119.6,14.4 119.7,15.0 Q116.6,15.3 115.9,15.8 Q115.3,16.2 115.3,17.8 Q115.3,18.9 115.7,19.5 Q116.1,20.0 117.6,20.0 Z M118.5,18.1 Q118.0,18.1 117.8,18.0 Q117.6,17.9 117.6,17.4 Q117.6,16.9 117.9,16.7 Q118.1,16.5 119.7,16.3 L119.7,17.5 Q119.3,17.9 119.1,18.0 Q119.0,18.1 118.5,18.1 Z"/><path d="M126.2,20.0 Q128.3,20.0 128.9,19.4 Q129.5,18.9 129.5,17.5 Q129.5,16.1 128.9,15.9 Q128.4,15.6 127.4,15.2 Q126.6,15.0 126.2,14.9 Q125.9,14.8 125.9,14.4 Q125.9,14.0 126.0,13.9 Q126.2,13.8 126.7,13.8 Q127.3,13.8 127.5,14.0 Q127.8,14.1 128.4,14.5 L129.5,13.0 Q128.8,12.5 128.4,12.3 Q127.9,12.0 126.6,12.0 Q124.8,12.0 124.2,12.5 Q123.6,13.0 123.6,14.5 Q123.6,15.7 124.1,16.0 Q124.6,16.3 125.6,16.6 Q126.4,16.9 126.8,17.0 Q127.2,17.2 127.2,17.6 Q127.2,18.0 127.0,18.1 Q126.9,18.2 126.2,18.2 Q125.6,18.2 125.3,18.0 Q125.0,17.9 124.2,17.4 L123.1,18.9 Q123.9,19.6 124.5,19.8 Q125.1,20.0 126.2,20.0 Z"/><path d="M134.5,20.0 Q136.5,20.0 137.4,19.2 Q138.4,18.5 138.4,16.0 Q138.4,13.5 137.4,12.8 Q136.5,12.0 134.5,12.0 Q132.4,12.0 131.5,12.8 Q130.5,13.5 130.5,16.0 Q130.5,18.5 131.5,19.2 Q132.4,20.0 134.5,20.0 Z M134.5,18.0 Q133.5,18.0 133.3,17.6 Q133.1,17.2 133.1,16.0 Q133.1,14.8 133.3,14.4 Q133.5,14.0 134.5,14.0 Q135.4,14.0 135.6,14.4 Q135.8,14.8 135.8,16.0 Q135.8,17.2 135.6,17.6 Q135.4,18.0 134.5,18.0 Z"/><path d="M140.2,20.0 L142.7,20.0 L142.7,14.8 Q143.2,14.4 143.3,14.3 Q143.5,14.1 144.1,14.1 Q144.7,14.1 144.8,14.3 Q145.0,14.4 145.0,15.5 L145.0,20.0 L147.5,20.0 L147.5,15.2 Q147.5,13.2 147.1,12.6 Q146.7,12.0 145.0,12.0 Q143.9,12.0 143.5,12.3 Q143.1,12.5 142.5,13.2 L142.4,13.2 L142.2,12.0 L140.2,12.0 L140.2,20.0 Z"/><path d="M149.4,20.0 L151.9,20.0 L151.9,12.0 L149.4,12.0 L149.4,20.0 Z M150.7,11.0 Q151.5,11.0 151.8,10.8 Q152.0,10.5 152.0,9.7 Q152.0,9.0 151.8,8.7 Q151.5,8.4 150.7,8.4 Q149.8,8.4 149.5,8.7 Q149.3,9.0 149.3,9.7 Q149.3,10.5 149.5,10.8 Q149.8,11.0 150.7,11.0 Z"/><path d="M154.6,20.0 L157.1,20.0 L157.1,14.8 Q157.6,14.4 157.7,14.3 Q157.9,14.1 158.5,14.1 Q159.1,14.1 159.2,14.3 Q159.4,14.4 159.4,15.5 L159.4,20.0 L161.9,20.0 L161.9,15.2 Q161.9,13.2 161.5,12.6 Q161.1,12.0 159.4,12.0 Q158.3,12.0 157.9,12.3 Q157.5,12.5 156.8,13.2 L156.8,13.2 L156.6,12.0 L154.6,12.0 L154.6,20.0 Z"/><path d="M166.7,23.6 Q169.4,23.6 170.3,23.0 Q171.2,22.4 171.2,20.2 Q171.2,18.7 170.6,18.4 Q170.1,18.1 168.1,18.1 L166.8,18.1 Q166.0,18.1 165.8,18.1 Q165.7,18.0 165.7,17.8 Q165.7,17.6 165.7,17.6 Q165.8,17.5 165.9,17.4 Q166.3,17.5 166.4,17.5 Q166.6,17.5 166.8,17.5 Q168.6,17.5 169.3,17.1 Q170.0,16.7 170.0,14.8 Q170.0,14.4 170.0,14.2 Q169.9,14.0 169.8,13.8 L171.0,13.8 L171.0,12.0 L168.1,12.0 Q167.8,12.1 167.5,12.0 Q167.3,12.0 166.8,12.0 Q165.1,12.0 164.3,12.5 Q163.5,13.0 163.5,14.8 Q163.5,15.7 163.8,16.1 Q164.0,16.4 164.6,16.8 L164.6,16.9 Q164.1,17.2 163.9,17.5 Q163.7,17.7 163.7,18.0 Q163.7,18.7 163.9,18.9 Q164.0,19.1 164.4,19.4 L164.4,19.5 Q163.7,19.8 163.5,20.2 Q163.3,20.5 163.3,21.4 Q163.3,23.0 164.1,23.3 Q164.8,23.6 166.7,23.6 Z M166.8,16.0 Q166.3,16.0 166.1,15.8 Q165.8,15.6 165.8,14.8 Q165.8,14.1 166.1,13.9 Q166.3,13.7 166.8,13.7 Q167.4,13.7 167.7,13.9 Q167.9,14.1 167.9,14.8 Q167.9,15.6 167.7,15.8 Q167.4,16.0 166.8,16.0 Z M167.0,22.0 Q166.0,22.0 165.7,21.8 Q165.4,21.6 165.4,20.9 Q165.4,20.5 165.4,20.3 Q165.5,20.2 165.7,19.9 Q166.0,20.0 166.1,20.0 Q166.3,20.0 166.9,20.0 L167.6,20.0 Q168.4,20.0 168.6,20.1 Q168.8,20.1 168.8,20.8 Q168.8,21.5 168.4,21.7 Q168.1,22.0 167.0,22.0 Z"/></g>
  
</svg>
