<svg xmlns="http://www.w3.org/2000/svg" viewBox="0 0 320 30" width="320" height="30" role="img" aria-label="internal-compliance-risk-identification">
  <rect x="0.5" y="0.5" width="319" height="29" rx="5" fill="#f3e0e6"/>
  <rect x="0" y="0" width="4" height="30" rx="2" fill="#9c3a55"/>
  <g fill="#2a2d34"><path d="M19.0,20.0 L21.5,20.0 L21.5,12.0 L19.0,12.0 L19.0,20.0 Z M20.2,11.0 Q21.1,11.0 21.4,10.8 Q21.6,10.5 21.6,9.7 Q21.6,9.0 21.4,8.7 Q21.1,8.4 20.2,8.4 Q19.4,8.4 19.1,8.7 Q18.9,9.0 18.9,9.7 Q18.9,10.5 19.1,10.8 Q19.4,11.0 20.2,11.0 Z"/><path d="M24.2,20.0 L26.7,20.0 L26.7,14.8 Q27.2,14.4 27.3,14.3 Q27.5,14.1 28.1,14.1 Q28.7,14.1 28.8,14.3 Q29.0,14.4 29.0,15.5 L29.0,20.0 L31.5,20.0 L31.5,15.2 Q31.5,13.2 31.1,12.6 Q30.7,12.0 29.0,12.0 Q27.9,12.0 27.5,12.3 Q27.1,12.5 26.4,13.2 L26.4,13.2 L26.2,12.0 L24.2,12.0 L24.2,20.0 Z"/><path d="M36.5,20.0 Q37.4,20.0 37.6,19.9 Q37.9,19.8 38.4,19.7 L37.9,17.9 Q37.8,18.0 37.6,18.0 Q37.5,18.1 37.2,18.1 Q36.6,18.1 36.4,17.9 Q36.2,17.7 36.2,16.9 L36.2,14.0 L38.1,14.0 L38.1,12.0 L36.2,12.0 L36.2,9.9 L34.1,9.9 L33.9,12.0 L32.6,12.1 L32.6,14.0 L33.7,14.0 L33.7,16.9 Q33.7,18.7 34.1,19.4 Q34.5,20.0 36.5,20.0 Z"/><path d="M43.2,20.0 Q44.1,20.0 44.7,19.8 Q45.2,19.7 46.1,19.1 L45.2,17.6 Q44.7,17.9 44.4,18.0 Q44.1,18.1 43.6,18.1 Q42.5,18.1 42.2,17.9 Q41.8,17.7 41.6,16.6 L46.2,16.6 Q46.3,16.5 46.3,16.2 Q46.4,16.0 46.4,15.6 Q46.4,13.7 45.8,12.8 Q45.2,12.0 42.9,12.0 Q41.0,12.0 40.1,12.8 Q39.1,13.6 39.1,15.9 Q39.1,18.5 40.0,19.2 Q40.9,20.0 43.2,20.0 Z M41.5,15.0 Q41.7,14.3 42.0,14.1 Q42.3,13.9 43.0,13.9 Q43.9,13.9 44.1,14.1 Q44.2,14.4 44.2,15.0 L41.5,15.0 Z"/><path d="M47.8,20.0 L50.3,20.0 L50.3,15.5 Q50.7,14.6 51.1,14.4 Q51.4,14.2 52.0,14.2 Q52.3,14.2 52.5,14.2 Q52.6,14.2 52.9,14.3 L53.3,12.0 Q53.1,12.1 52.9,12.0 Q52.8,12.0 52.3,12.0 Q51.5,12.0 51.1,12.3 Q50.6,12.5 50.0,13.6 L50.0,13.6 L49.8,12.0 L47.8,12.0 L47.8,20.0 Z"/><path d="M55.0,20.0 L57.5,20.0 L57.5,14.8 Q58.0,14.4 58.1,14.3 Q58.3,14.1 58.9,14.1 Q59.5,14.1 59.6,14.3 Q59.8,14.4 59.8,15.5 L59.8,20.0 L62.3,20.0 L62.3,15.2 Q62.3,13.2 61.9,12.6 Q61.5,12.0 59.8,12.0 Q58.7,12.0 58.3,12.3 Q57.9,12.5 57.2,13.2 L57.2,13.2 L57.0,12.0 L55.0,12.0 L55.0,20.0 Z"/><path d="M66.2,20.0 Q67.1,20.0 67.5,19.8 Q67.8,19.6 68.5,19.0 L68.6,19.0 L68.7,20.0 L70.8,20.0 L70.8,15.6 Q70.8,13.2 70.2,12.6 Q69.6,12.0 67.5,12.0 Q66.3,12.0 65.7,12.2 Q65.2,12.4 64.1,13.1 L65.0,14.7 Q65.8,14.2 66.1,14.1 Q66.4,14.0 67.1,14.0 Q67.9,14.0 68.1,14.2 Q68.2,14.4 68.3,15.0 Q65.2,15.3 64.5,15.8 Q63.9,16.2 63.9,17.8 Q63.9,18.9 64.3,19.5 Q64.7,20.0 66.2,20.0 Z M67.1,18.1 Q66.6,18.1 66.4,18.0 Q66.2,17.9 66.2,17.4 Q66.2,16.9 66.5,16.7 Q66.7,16.5 68.3,16.3 L68.3,17.5 Q67.9,17.9 67.7,18.0 Q67.6,18.1 67.1,18.1 Z"/><path d="M74.7,20.0 Q75.2,20.0 75.4,20.0 Q75.6,19.9 75.9,19.8 L75.6,18.0 Q75.5,18.0 75.4,18.0 Q75.4,18.0 75.3,18.0 Q75.1,18.0 75.0,17.9 Q74.9,17.8 74.9,17.3 L74.9,8.6 L72.4,8.6 L72.4,17.2 Q72.4,18.9 72.7,19.4 Q73.0,20.0 74.7,20.0 Z"/><path d="M77.3,16.8 L81.3,16.8 L81.3,15.0 L77.3,15.0 L77.3,16.8 Z"/><path d="M86.3,20.0 Q87.2,20.0 87.7,19.9 Q88.2,19.8 89.0,19.1 L88.0,17.5 Q87.6,17.8 87.3,17.9 Q87.1,18.0 86.6,18.0 Q85.6,18.0 85.3,17.6 Q84.9,17.2 84.9,16.0 Q84.9,14.8 85.2,14.4 Q85.6,14.0 86.7,14.0 Q87.0,14.0 87.2,14.1 Q87.3,14.1 87.7,14.4 L88.9,12.9 Q88.3,12.3 87.9,12.2 Q87.5,12.0 86.5,12.0 Q84.3,12.0 83.3,12.8 Q82.3,13.5 82.3,16.0 Q82.3,18.5 83.2,19.2 Q84.1,20.0 86.3,20.0 Z"/><path d="M94.5,20.0 Q96.5,20.0 97.4,19.2 Q98.4,18.5 98.4,16.0 Q98.4,13.5 97.4,12.8 Q96.5,12.0 94.5,12.0 Q92.4,12.0 91.5,12.8 Q90.5,13.5 90.5,16.0 Q90.5,18.5 91.5,19.2 Q92.4,20.0 94.5,20.0 Z M94.5,18.0 Q93.5,18.0 93.3,17.6 Q93.1,17.2 93.1,16.0 Q93.1,14.8 93.3,14.4 Q93.5,14.0 94.5,14.0 Q95.4,14.0 95.6,14.4 Q95.8,14.8 95.8,16.0 Q95.8,17.2 95.6,17.6 Q95.4,18.0 94.5,18.0 Z"/><path d="M100.2,20.0 L102.7,20.0 L102.7,14.8 Q103.2,14.4 103.4,14.2 Q103.6,14.1 104.0,14.1 Q104.6,14.1 104.7,14.3 Q104.9,14.4 104.9,15.5 L104.9,20.0 L107.4,20.0 L107.4,14.8 Q107.9,14.4 108.1,14.2 Q108.3,14.1 108.7,14.1 Q109.3,14.1 109.4,14.3 Q109.6,14.4 109.6,15.5 L109.6,20.0 L112.0,20.0 L112.0,15.2 Q112.0,13.2 111.7,12.6 Q111.3,12.0 109.6,12.0 Q108.5,12.0 108.1,12.3 Q107.7,12.6 107.1,13.3 Q106.7,12.5 106.3,12.2 Q106.0,12.0 104.9,12.0 Q103.8,12.0 103.5,12.3 Q103.1,12.5 102.5,13.2 L102.4,13.2 L102.2,12.0 L100.2,12.0 L100.2,20.0 Z"/><path d="M114.4,23.0 L116.9,23.0 L116.9,20.5 L116.8,19.2 Q117.3,19.7 117.7,19.9 Q118.0,20.0 118.7,20.0 Q120.4,20.0 121.2,19.2 Q122.0,18.4 122.0,15.8 Q122.0,13.6 121.4,12.8 Q120.8,12.0 118.9,12.0 Q118.1,12.0 117.7,12.2 Q117.3,12.4 116.7,13.0 L116.6,13.0 L116.4,12.0 L114.4,12.0 L114.4,23.0 Z M118.1,18.0 Q117.7,18.0 117.5,17.9 Q117.3,17.9 116.9,17.5 L116.9,14.7 Q117.3,14.2 117.5,14.1 Q117.7,14.0 118.2,14.0 Q119.0,14.0 119.2,14.3 Q119.4,14.6 119.4,15.9 Q119.4,17.3 119.1,17.7 Q118.8,18.0 118.1,18.0 Z"/><path d="M125.9,20.0 Q126.4,20.0 126.6,20.0 Q126.8,19.9 127.1,19.8 L126.8,18.0 Q126.7,18.0 126.6,18.0 Q126.6,18.0 126.5,18.0 Q126.3,18.0 126.2,17.9 Q126.1,17.8 126.1,17.3 L126.1,8.6 L123.6,8.6 L123.6,17.2 Q123.6,18.9 123.9,19.4 Q124.2,20.0 125.9,20.0 Z"/><path d="M128.8,20.0 L131.3,20.0 L131.3,12.0 L128.8,12.0 L128.8,20.0 Z M130.1,11.0 Q130.9,11.0 131.2,10.8 Q131.4,10.5 131.4,9.7 Q131.4,9.0 131.2,8.7 Q130.9,8.4 130.1,8.4 Q129.2,8.4 128.9,8.7 Q128.7,9.0 128.7,9.7 Q128.7,10.5 128.9,10.8 Q129.2,11.0 130.1,11.0 Z"/><path d="M136.0,20.0 Q136.9,20.0 137.3,19.8 Q137.6,19.6 138.3,19.0 L138.4,19.0 L138.5,20.0 L140.6,20.0 L140.6,15.6 Q140.6,13.2 140.0,12.6 Q139.4,12.0 137.3,12.0 Q136.1,12.0 135.5,12.2 Q135.0,12.4 133.9,13.1 L134.8,14.7 Q135.6,14.2 135.9,14.1 Q136.2,14.0 136.9,14.0 Q137.7,14.0 137.9,14.2 Q138.0,14.4 138.1,15.0 Q135.0,15.3 134.3,15.8 Q133.7,16.2 133.7,17.8 Q133.7,18.9 134.1,19.5 Q134.5,20.0 136.0,20.0 Z M136.9,18.1 Q136.4,18.1 136.2,18.0 Q136.0,17.9 136.0,17.4 Q136.0,16.9 136.3,16.7 Q136.5,16.5 138.1,16.3 L138.1,17.5 Q137.7,17.9 137.5,18.0 Q137.4,18.1 136.9,18.1 Z"/><path d="M142.2,20.0 L144.7,20.0 L144.7,14.8 Q145.2,14.4 145.3,14.3 Q145.5,14.1 146.1,14.1 Q146.7,14.1 146.8,14.3 Q147.0,14.4 147.0,15.5 L147.0,20.0 L149.5,20.0 L149.5,15.2 Q149.5,13.2 149.1,12.6 Q148.7,12.0 147.0,12.0 Q145.9,12.0 145.5,12.3 Q145.1,12.5 144.5,13.2 L144.4,13.2 L144.2,12.0 L142.2,12.0 L142.2,20.0 Z"/><path d="M154.9,20.0 Q155.8,20.0 156.3,19.9 Q156.8,19.8 157.6,19.1 L156.6,17.5 Q156.2,17.8 155.9,17.9 Q155.7,18.0 155.2,18.0 Q154.2,18.0 153.9,17.6 Q153.5,17.2 153.5,16.0 Q153.5,14.8 153.8,14.4 Q154.2,14.0 155.3,14.0 Q155.6,14.0 155.8,14.1 Q155.9,14.1 156.3,14.4 L157.5,12.9 Q156.9,12.3 156.5,12.2 Q156.1,12.0 155.1,12.0 Q152.9,12.0 151.9,12.8 Q150.9,13.5 150.9,16.0 Q150.9,18.5 151.8,19.2 Q152.7,20.0 154.9,20.0 Z"/><path d="M163.2,20.0 Q164.1,20.0 164.7,19.8 Q165.2,19.7 166.1,19.1 L165.2,17.6 Q164.7,17.9 164.4,18.0 Q164.1,18.1 163.6,18.1 Q162.5,18.1 162.2,17.9 Q161.8,17.7 161.6,16.6 L166.2,16.6 Q166.3,16.5 166.3,16.2 Q166.3,16.0 166.3,15.6 Q166.3,13.7 165.8,12.8 Q165.2,12.0 162.9,12.0 Q161.0,12.0 160.1,12.8 Q159.1,13.6 159.1,15.9 Q159.1,18.5 160.0,19.2 Q160.9,20.0 163.2,20.0 Z M161.5,15.0 Q161.7,14.3 162.0,14.1 Q162.3,13.9 163.0,13.9 Q163.9,13.9 164.1,14.1 Q164.2,14.4 164.2,15.0 L161.5,15.0 Z"/><path d="M167.5,16.8 L171.5,16.8 L171.5,15.0 L167.5,15.0 L167.5,16.8 Z"/><path d="M173.0,20.0 L175.5,20.0 L175.5,15.5 Q175.9,14.6 176.3,14.4 Q176.6,14.2 177.2,14.2 Q177.5,14.2 177.7,14.2 Q177.8,14.2 178.1,14.3 L178.5,12.0 Q178.3,12.1 178.1,12.0 Q178.0,12.0 177.5,12.0 Q176.7,12.0 176.3,12.3 Q175.8,12.5 175.2,13.6 L175.2,13.6 L175.0,12.0 L173.0,12.0 L173.0,20.0 Z"/><path d="M180.2,20.0 L182.7,20.0 L182.7,12.0 L180.2,12.0 L180.2,20.0 Z M181.4,11.0 Q182.3,11.0 182.6,10.8 Q182.8,10.5 182.8,9.7 Q182.8,9.0 182.6,8.7 Q182.3,8.4 181.4,8.4 Q180.6,8.4 180.3,8.7 Q180.1,9.0 180.1,9.7 Q180.1,10.5 180.3,10.8 Q180.6,11.0 181.4,11.0 Z"/><path d="M187.8,20.0 Q189.9,20.0 190.5,19.4 Q191.1,18.9 191.1,17.5 Q191.1,16.1 190.5,15.9 Q190.0,15.6 189.0,15.2 Q188.2,15.0 187.8,14.9 Q187.5,14.8 187.5,14.4 Q187.5,14.0 187.6,13.9 Q187.8,13.8 188.3,13.8 Q188.9,13.8 189.1,14.0 Q189.4,14.1 190.0,14.5 L191.1,13.0 Q190.4,12.5 190.0,12.3 Q189.5,12.0 188.2,12.0 Q186.4,12.0 185.8,12.5 Q185.2,13.0 185.2,14.5 Q185.2,15.7 185.7,16.0 Q186.2,16.3 187.2,16.6 Q188.0,16.9 188.4,17.0 Q188.8,17.2 188.8,17.6 Q188.8,18.0 188.6,18.1 Q188.5,18.2 187.8,18.2 Q187.2,18.2 186.9,18.0 Q186.6,17.9 185.8,17.4 L184.7,18.9 Q185.5,19.6 186.1,19.8 Q186.7,20.0 187.8,20.0 Z"/><path d="M192.6,20.0 L195.1,20.0 L195.1,18.0 L196.0,17.0 L197.7,20.0 L200.4,20.0 L197.4,15.3 L200.2,12.0 L197.5,12.0 L195.1,15.0 L195.1,15.0 L195.1,8.8 L192.6,8.8 L192.6,20.0 Z"/><path d="M201.5,16.8 L205.5,16.8 L205.5,15.0 L201.5,15.0 L201.5,16.8 Z"/><path d="M207.0,20.0 L209.5,20.0 L209.5,12.0 L207.0,12.0 L207.0,20.0 Z M208.2,11.0 Q209.1,11.0 209.4,10.8 Q209.6,10.5 209.6,9.7 Q209.6,9.0 209.4,8.7 Q209.1,8.4 208.2,8.4 Q207.4,8.4 207.1,8.7 Q206.9,9.0 206.9,9.7 Q206.9,10.5 207.1,10.8 Q207.4,11.0 208.2,11.0 Z"/><path d="M215.1,20.0 Q215.8,20.0 216.2,19.8 Q216.6,19.6 217.2,19.0 L217.2,19.0 L217.4,20.0 L219.4,20.0 L219.4,9.0 L216.9,9.0 L216.9,11.6 L217.0,12.8 Q216.5,12.3 216.2,12.2 Q216.0,12.0 215.1,12.0 Q213.4,12.0 212.6,12.8 Q211.8,13.6 211.8,16.1 Q211.8,18.4 212.4,19.2 Q213.1,20.0 215.1,20.0 Z M215.7,18.0 Q214.9,18.0 214.6,17.7 Q214.4,17.4 214.4,16.0 Q214.4,14.6 214.7,14.3 Q215.0,14.0 215.7,14.0 Q216.1,14.0 216.3,14.1 Q216.5,14.2 216.9,14.5 L216.9,17.3 Q216.6,17.8 216.4,17.9 Q216.2,18.0 215.7,18.0 Z"/><path d="M225.0,20.0 Q225.9,20.0 226.5,19.8 Q227.0,19.7 227.9,19.1 L227.0,17.6 Q226.5,17.9 226.2,18.0 Q225.9,18.1 225.4,18.1 Q224.3,18.1 224.0,17.9 Q223.6,17.7 223.4,16.6 L228.0,16.6 Q228.1,16.5 228.1,16.2 Q228.1,16.0 228.1,15.6 Q228.1,13.7 227.6,12.8 Q227.0,12.0 224.7,12.0 Q222.8,12.0 221.9,12.8 Q220.9,13.6 220.9,15.9 Q220.9,18.5 221.8,19.2 Q222.7,20.0 225.0,20.0 Z M223.3,15.0 Q223.5,14.3 223.8,14.1 Q224.1,13.9 224.8,13.9 Q225.7,13.9 225.9,14.1 Q226.0,14.4 226.0,15.0 L223.3,15.0 Z"/><path d="M229.6,20.0 L232.1,20.0 L232.1,14.8 Q232.6,14.4 232.7,14.3 Q232.9,14.1 233.5,14.1 Q234.1,14.1 234.2,14.3 Q234.4,14.4 234.4,15.5 L234.4,20.0 L236.9,20.0 L236.9,15.2 Q236.9,13.2 236.5,12.6 Q236.1,12.0 234.4,12.0 Q233.3,12.0 232.9,12.3 Q232.5,12.5 231.8,13.2 L231.8,13.2 L231.6,12.0 L229.6,12.0 L229.6,20.0 Z"/><path d="M241.9,20.0 Q242.8,20.0 243.0,19.9 Q243.3,19.8 243.8,19.7 L243.3,17.9 Q243.2,18.0 243.0,18.0 Q242.9,18.1 242.6,18.1 Q242.0,18.1 241.8,17.9 Q241.6,17.7 241.6,16.9 L241.6,14.0 L243.5,14.0 L243.5,12.0 L241.6,12.0 L241.6,9.9 L239.5,9.9 L239.3,12.0 L238.0,12.1 L238.0,14.0 L239.1,14.0 L239.1,16.9 Q239.1,18.7 239.5,19.4 Q239.9,20.0 241.9,20.0 Z"/><path d="M245.0,20.0 L247.5,20.0 L247.5,12.0 L245.0,12.0 L245.0,20.0 Z M246.2,11.0 Q247.1,11.0 247.4,10.8 Q247.6,10.5 247.6,9.7 Q247.6,9.0 247.4,8.7 Q247.1,8.4 246.2,8.4 Q245.4,8.4 245.1,8.7 Q244.9,9.0 244.9,9.7 Q244.9,10.5 245.1,10.8 Q245.4,11.0 246.2,11.0 Z"/><path d="M249.6,14.0 L250.6,14.0 L250.6,20.0 L253.1,20.0 L253.1,14.0 L254.5,14.0 L254.5,12.0 L253.1,12.0 L253.1,11.7 Q253.1,11.2 253.3,11.1 Q253.4,11.0 254.0,11.0 Q254.3,11.0 254.4,11.0 Q254.6,11.0 254.8,11.1 L255.3,9.3 Q254.9,9.1 254.6,9.1 Q254.3,9.0 253.6,9.0 Q251.4,9.0 251.0,9.7 Q250.6,10.4 250.6,11.8 L250.6,12.0 L249.6,12.1 L249.6,14.0 Z"/><path d="M256.4,20.0 L258.9,20.0 L258.9,12.0 L256.4,12.0 L256.4,20.0 Z M257.6,11.0 Q258.5,11.0 258.8,10.8 Q259.0,10.5 259.0,9.7 Q259.0,9.0 258.8,8.7 Q258.5,8.4 257.6,8.4 Q256.8,8.4 256.5,8.7 Q256.3,9.0 256.3,9.7 Q256.3,10.5 256.5,10.8 Q256.8,11.0 257.6,11.0 Z"/><path d="M265.1,20.0 Q266.0,20.0 266.5,19.9 Q267.0,19.8 267.8,19.1 L266.8,17.5 Q266.4,17.8 266.1,17.9 Q265.9,18.0 265.4,18.0 Q264.4,18.0 264.1,17.6 Q263.7,17.2 263.7,16.0 Q263.7,14.8 264.0,14.4 Q264.4,14.0 265.5,14.0 Q265.8,14.0 266.0,14.1 Q266.1,14.1 266.5,14.4 L267.7,12.9 Q267.1,12.3 266.7,12.2 Q266.3,12.0 265.3,12.0 Q263.1,12.0 262.1,12.8 Q261.1,13.5 261.1,16.0 Q261.1,18.5 262.0,19.2 Q262.9,20.0 265.1,20.0 Z"/><path d="M271.8,20.0 Q272.7,20.0 273.1,19.8 Q273.4,19.6 274.1,19.0 L274.2,19.0 L274.3,20.0 L276.4,20.0 L276.4,15.6 Q276.4,13.2 275.8,12.6 Q275.2,12.0 273.1,12.0 Q271.9,12.0 271.3,12.2 Q270.8,12.4 269.7,13.1 L270.6,14.7 Q271.4,14.2 271.7,14.1 Q272.0,14.0 272.7,14.0 Q273.5,14.0 273.7,14.2 Q273.8,14.4 273.9,15.0 Q270.8,15.3 270.1,15.8 Q269.5,16.2 269.5,17.8 Q269.5,18.9 269.9,19.5 Q270.3,20.0 271.8,20.0 Z M272.7,18.1 Q272.2,18.1 272.0,18.0 Q271.8,17.9 271.8,17.4 Q271.8,16.9 272.1,16.7 Q272.3,16.5 273.9,16.3 L273.9,17.5 Q273.5,17.9 273.3,18.0 Q273.2,18.1 272.7,18.1 Z"/><path d="M281.1,20.0 Q282.0,20.0 282.2,19.9 Q282.5,19.8 283.0,19.7 L282.5,17.9 Q282.4,18.0 282.2,18.0 Q282.1,18.1 281.8,18.1 Q281.2,18.1 281.0,17.9 Q280.8,17.7 280.8,16.9 L280.8,14.0 L282.7,14.0 L282.7,12.0 L280.8,12.0 L280.8,9.9 L278.7,9.9 L278.5,12.0 L277.2,12.1 L277.2,14.0 L278.3,14.0 L278.3,16.9 Q278.3,18.7 278.7,19.4 Q279.1,20.0 281.1,20.0 Z"/><path d="M284.2,20.0 L286.7,20.0 L286.7,12.0 L284.2,12.0 L284.2,20.0 Z M285.4,11.0 Q286.3,11.0 286.6,10.8 Q286.8,10.5 286.8,9.7 Q286.8,9.0 286.6,8.7 Q286.3,8.4 285.4,8.4 Q284.6,8.4 284.3,8.7 Q284.1,9.0 284.1,9.7 Q284.1,10.5 284.3,10.8 Q284.6,11.0 285.4,11.0 Z"/><path d="M292.9,20.0 Q294.9,20.0 295.8,19.2 Q296.8,18.5 296.8,16.0 Q296.8,13.5 295.8,12.8 Q294.9,12.0 292.9,12.0 Q290.8,12.0 289.9,12.8 Q288.9,13.5 288.9,16.0 Q288.9,18.5 289.9,19.2 Q290.8,20.0 292.9,20.0 Z M292.9,18.0 Q291.9,18.0 291.7,17.6 Q291.5,17.2 291.5,16.0 Q291.5,14.8 291.7,14.4 Q291.9,14.0 292.9,14.0 Q293.8,14.0 294.0,14.4 Q294.2,14.8 294.2,16.0 Q294.2,17.2 294.0,17.6 Q293.8,18.0 292.9,18.0 Z"/><path d="M298.6,20.0 L301.1,20.0 L301.1,14.8 Q301.6,14.4 301.7,14.3 Q301.9,14.1 302.5,14.1 Q303.1,14.1 303.2,14.3 Q303.4,14.4 303.4,15.5 L303.4,20.0 L305.9,20.0 L305.9,15.2 Q305.9,13.2 305.5,12.6 Q305.1,12.0 303.4,12.0 Q302.3,12.0 301.9,12.3 Q301.5,12.5 300.8,13.2 L300.8,13.2 L300.6,12.0 L298.6,12.0 L298.6,20.0 Z"/></g>
  
</svg>
