<svg xmlns="http://www.w3.org/2000/svg" viewBox="0 0 173 30" width="173" height="30" role="img" aria-label="conflict-resolution">
  <rect x="0.5" y="0.5" width="172" height="29" rx="5" fill="#f6e3dc"/>
  <rect x="0" y="0" width="4" height="30" rx="2" fill="#b5462f"/>
  <g fill="#2a2d34"><path d="M22.5,20.0 Q23.4,20.0 23.9,19.9 Q24.4,19.8 25.2,19.1 L24.2,17.5 Q23.8,17.8 23.5,17.9 Q23.3,18.0 22.8,18.0 Q21.8,18.0 21.5,17.6 Q21.1,17.2 21.1,16.0 Q21.1,14.8 21.4,14.4 Q21.8,14.0 22.9,14.0 Q23.2,14.0 23.4,14.1 Q23.5,14.1 23.9,14.4 L25.1,12.9 Q24.5,12.3 24.1,12.2 Q23.7,12.0 22.7,12.0 Q20.5,12.0 19.5,12.8 Q18.5,13.5 18.5,16.0 Q18.5,18.5 19.4,19.2 Q20.3,20.0 22.5,20.0 Z"/><path d="M30.7,20.0 Q32.7,20.0 33.6,19.2 Q34.6,18.5 34.6,16.0 Q34.6,13.5 33.6,12.8 Q32.7,12.0 30.7,12.0 Q28.6,12.0 27.7,12.8 Q26.7,13.5 26.7,16.0 Q26.7,18.5 27.7,19.2 Q28.6,20.0 30.7,20.0 Z M30.7,18.0 Q29.7,18.0 29.5,17.6 Q29.3,17.2 29.3,16.0 Q29.3,14.8 29.5,14.4 Q29.7,14.0 30.7,14.0 Q31.6,14.0 31.8,14.4 Q32.0,14.8 32.0,16.0 Q32.0,17.2 31.8,17.6 Q31.6,18.0 30.7,18.0 Z"/><path d="M36.4,20.0 L38.9,20.0 L38.9,14.8 Q39.4,14.4 39.5,14.3 Q39.7,14.1 40.3,14.1 Q40.9,14.1 41.0,14.3 Q41.2,14.4 41.2,15.5 L41.2,20.0 L43.7,20.0 L43.7,15.2 Q43.7,13.2 43.3,12.6 Q42.9,12.0 41.2,12.0 Q40.1,12.0 39.7,12.3 Q39.3,12.5 38.6,13.2 L38.6,13.2 L38.4,12.0 L36.4,12.0 L36.4,20.0 Z"/><path d="M45.0,14.0 L46.0,14.0 L46.0,20.0 L48.5,20.0 L48.5,14.0 L49.9,14.0 L49.9,12.0 L48.5,12.0 L48.5,11.7 Q48.5,11.2 48.7,11.1 Q48.8,11.0 49.4,11.0 Q49.7,11.0 49.8,11.0 Q50.0,11.0 50.2,11.1 L50.7,9.3 Q50.3,9.1 50.0,9.1 Q49.7,9.0 49.0,9.0 Q46.8,9.0 46.4,9.7 Q46.0,10.4 46.0,11.8 L46.0,12.0 L45.0,12.1 L45.0,14.0 Z"/><path d="M54.1,20.0 Q54.6,20.0 54.8,20.0 Q55.0,19.9 55.3,19.8 L55.0,18.0 Q54.9,18.0 54.8,18.0 Q54.8,18.0 54.7,18.0 Q54.5,18.0 54.4,17.9 Q54.3,17.8 54.3,17.3 L54.3,8.6 L51.8,8.6 L51.8,17.2 Q51.8,18.9 52.1,19.4 Q52.4,20.0 54.1,20.0 Z"/><path d="M57.0,20.0 L59.5,20.0 L59.5,12.0 L57.0,12.0 L57.0,20.0 Z M58.2,11.0 Q59.1,11.0 59.4,10.8 Q59.6,10.5 59.6,9.7 Q59.6,9.0 59.4,8.7 Q59.1,8.4 58.2,8.4 Q57.4,8.4 57.1,8.7 Q56.9,9.0 56.9,9.7 Q56.9,10.5 57.1,10.8 Q57.4,11.0 58.2,11.0 Z"/><path d="M65.7,20.0 Q66.6,20.0 67.1,19.9 Q67.6,19.8 68.4,19.1 L67.4,17.5 Q67.0,17.8 66.7,17.9 Q66.5,18.0 66.0,18.0 Q65.0,18.0 64.7,17.6 Q64.3,17.2 64.3,16.0 Q64.3,14.8 64.6,14.4 Q65.0,14.0 66.1,14.0 Q66.4,14.0 66.6,14.1 Q66.7,14.1 67.1,14.4 L68.3,12.9 Q67.7,12.3 67.3,12.2 Q66.9,12.0 65.9,12.0 Q63.7,12.0 62.7,12.8 Q61.7,13.5 61.7,16.0 Q61.7,18.5 62.6,19.2 Q63.5,20.0 65.7,20.0 Z"/><path d="M73.5,20.0 Q74.4,20.0 74.6,19.9 Q74.9,19.8 75.4,19.7 L74.9,17.9 Q74.8,18.0 74.6,18.0 Q74.5,18.1 74.2,18.1 Q73.6,18.1 73.4,17.9 Q73.2,17.7 73.2,16.9 L73.2,14.0 L75.1,14.0 L75.1,12.0 L73.2,12.0 L73.2,9.9 L71.2,9.9 L70.9,12.0 L69.7,12.1 L69.7,14.0 L70.7,14.0 L70.7,16.9 Q70.7,18.7 71.1,19.4 Q71.5,20.0 73.5,20.0 Z"/><path d="M76.3,16.8 L80.3,16.8 L80.3,15.0 L76.3,15.0 L76.3,16.8 Z"/><path d="M81.8,20.0 L84.3,20.0 L84.3,15.5 Q84.7,14.6 85.1,14.4 Q85.4,14.2 86.0,14.2 Q86.3,14.2 86.5,14.2 Q86.6,14.2 86.9,14.3 L87.3,12.0 Q87.1,12.1 86.9,12.0 Q86.8,12.0 86.3,12.0 Q85.5,12.0 85.1,12.3 Q84.6,12.5 84.1,13.6 L84.0,13.6 L83.8,12.0 L81.8,12.0 L81.8,20.0 Z"/><path d="M92.6,20.0 Q93.5,20.0 94.1,19.8 Q94.6,19.7 95.5,19.1 L94.6,17.6 Q94.1,17.9 93.8,18.0 Q93.5,18.1 93.0,18.1 Q91.9,18.1 91.6,17.9 Q91.2,17.7 91.0,16.6 L95.6,16.6 Q95.7,16.5 95.7,16.2 Q95.8,16.0 95.8,15.6 Q95.8,13.7 95.2,12.8 Q94.6,12.0 92.3,12.0 Q90.4,12.0 89.5,12.8 Q88.5,13.6 88.5,15.9 Q88.5,18.5 89.4,19.2 Q90.3,20.0 92.6,20.0 Z M90.9,15.0 Q91.1,14.3 91.4,14.1 Q91.7,13.9 92.4,13.9 Q93.3,13.9 93.5,14.1 Q93.6,14.4 93.6,15.0 L90.9,15.0 Z"/><path d="M99.6,20.0 Q101.7,20.0 102.3,19.4 Q102.9,18.9 102.9,17.5 Q102.9,16.1 102.3,15.9 Q101.8,15.6 100.8,15.2 Q100.0,15.0 99.6,14.9 Q99.3,14.8 99.3,14.4 Q99.3,14.0 99.4,13.9 Q99.6,13.8 100.1,13.8 Q100.7,13.8 100.9,14.0 Q101.2,14.1 101.8,14.5 L102.9,13.0 Q102.2,12.5 101.8,12.3 Q101.3,12.0 100.0,12.0 Q98.2,12.0 97.6,12.5 Q97.0,13.0 97.0,14.5 Q97.0,15.7 97.5,16.0 Q98.0,16.3 99.0,16.6 Q99.8,16.9 100.2,17.0 Q100.6,17.2 100.6,17.6 Q100.6,18.0 100.4,18.1 Q100.3,18.2 99.6,18.2 Q99.0,18.2 98.7,18.0 Q98.4,17.9 97.6,17.4 L96.5,18.9 Q97.3,19.6 97.9,19.8 Q98.5,20.0 99.6,20.0 Z"/><path d="M107.9,20.0 Q109.9,20.0 110.8,19.2 Q111.8,18.5 111.8,16.0 Q111.8,13.5 110.8,12.8 Q109.9,12.0 107.9,12.0 Q105.8,12.0 104.9,12.8 Q103.9,13.5 103.9,16.0 Q103.9,18.5 104.9,19.2 Q105.8,20.0 107.9,20.0 Z M107.9,18.0 Q106.9,18.0 106.7,17.6 Q106.5,17.2 106.5,16.0 Q106.5,14.8 106.7,14.4 Q106.9,14.0 107.9,14.0 Q108.8,14.0 109.0,14.4 Q109.2,14.8 109.2,16.0 Q109.2,17.2 109.0,17.6 Q108.8,18.0 107.9,18.0 Z"/><path d="M115.9,20.0 Q116.4,20.0 116.6,20.0 Q116.8,19.9 117.1,19.8 L116.8,18.0 Q116.7,18.0 116.6,18.0 Q116.6,18.0 116.5,18.0 Q116.3,18.0 116.2,17.9 Q116.1,17.8 116.1,17.3 L116.1,8.6 L113.6,8.6 L113.6,17.2 Q113.6,18.9 113.9,19.4 Q114.2,20.0 115.9,20.0 Z"/><path d="M121.2,20.0 Q122.3,20.0 122.7,19.8 Q123.0,19.5 123.7,18.7 L123.8,18.7 L123.9,20.0 L126.0,20.0 L126.0,12.0 L123.5,12.0 L123.5,17.1 Q123.1,17.7 122.9,17.8 Q122.7,17.9 122.1,17.9 Q121.5,17.9 121.4,17.7 Q121.2,17.6 121.2,16.5 L121.2,12.0 L118.7,12.0 L118.7,16.8 Q118.7,18.8 119.1,19.4 Q119.5,20.0 121.2,20.0 Z"/><path d="M131.1,20.0 Q132.0,20.0 132.2,19.9 Q132.5,19.8 133.0,19.7 L132.5,17.9 Q132.4,18.0 132.2,18.0 Q132.1,18.1 131.8,18.1 Q131.2,18.1 131.0,17.9 Q130.8,17.7 130.8,16.9 L130.8,14.0 L132.7,14.0 L132.7,12.0 L130.8,12.0 L130.8,9.9 L128.8,9.9 L128.5,12.0 L127.3,12.1 L127.3,14.0 L128.3,14.0 L128.3,16.9 Q128.3,18.7 128.7,19.4 Q129.1,20.0 131.1,20.0 Z"/><path d="M134.2,20.0 L136.7,20.0 L136.7,12.0 L134.2,12.0 L134.2,20.0 Z M135.5,11.0 Q136.3,11.0 136.6,10.8 Q136.8,10.5 136.8,9.7 Q136.8,9.0 136.6,8.7 Q136.3,8.4 135.5,8.4 Q134.6,8.4 134.3,8.7 Q134.1,9.0 134.1,9.7 Q134.1,10.5 134.3,10.8 Q134.6,11.0 135.5,11.0 Z"/><path d="M142.9,20.0 Q144.9,20.0 145.8,19.2 Q146.8,18.5 146.8,16.0 Q146.8,13.5 145.8,12.8 Q144.9,12.0 142.9,12.0 Q140.8,12.0 139.9,12.8 Q138.9,13.5 138.9,16.0 Q138.9,18.5 139.9,19.2 Q140.8,20.0 142.9,20.0 Z M142.9,18.0 Q141.9,18.0 141.7,17.6 Q141.5,17.2 141.5,16.0 Q141.5,14.8 141.7,14.4 Q141.9,14.0 142.9,14.0 Q143.8,14.0 144.0,14.4 Q144.2,14.8 144.2,16.0 Q144.2,17.2 144.0,17.6 Q143.8,18.0 142.9,18.0 Z"/><path d="M148.6,20.0 L151.1,20.0 L151.1,14.8 Q151.6,14.4 151.7,14.3 Q151.9,14.1 152.5,14.1 Q153.1,14.1 153.2,14.3 Q153.4,14.4 153.4,15.5 L153.4,20.0 L155.9,20.0 L155.9,15.2 Q155.9,13.2 155.5,12.6 Q155.1,12.0 153.4,12.0 Q152.3,12.0 151.9,12.3 Q151.5,12.5 150.8,13.2 L150.8,13.2 L150.6,12.0 L148.6,12.0 L148.6,20.0 Z"/></g>
  
</svg>
