<svg xmlns="http://www.w3.org/2000/svg" viewBox="0 0 200 30" width="200" height="30" role="img" aria-label="judicial-value-judgment">
  <rect x="0.5" y="0.5" width="199" height="29" rx="5" fill="#f3e0e6"/>
  <rect x="0" y="0" width="4" height="30" rx="2" fill="#9c3a55"/>
  <g fill="#2a2d34"><path d="M18.6,23.0 Q20.8,23.0 21.2,22.2 Q21.5,21.5 21.5,19.7 L21.5,12.0 L19.0,12.0 L19.0,19.8 Q19.0,20.7 18.9,20.9 Q18.8,21.1 18.2,21.1 Q18.0,21.1 17.9,21.0 Q17.8,21.0 17.6,21.0 L17.2,22.8 Q17.5,22.9 17.7,23.0 Q17.9,23.0 18.6,23.0 Z M20.3,11.0 Q21.1,11.0 21.4,10.8 Q21.7,10.5 21.7,9.7 Q21.7,9.0 21.4,8.7 Q21.1,8.4 20.3,8.4 Q19.5,8.4 19.2,8.7 Q18.9,9.0 18.9,9.7 Q18.9,10.5 19.2,10.8 Q19.5,11.0 20.3,11.0 Z"/><path d="M26.6,20.0 Q27.7,20.0 28.1,19.8 Q28.4,19.5 29.1,18.7 L29.2,18.7 L29.3,20.0 L31.4,20.0 L31.4,12.0 L28.9,12.0 L28.9,17.1 Q28.4,17.7 28.3,17.8 Q28.1,17.9 27.5,17.9 Q26.9,17.9 26.8,17.7 Q26.6,17.6 26.6,16.5 L26.6,12.0 L24.1,12.0 L24.1,16.8 Q24.1,18.8 24.5,19.4 Q24.9,20.0 26.6,20.0 Z"/><path d="M36.3,20.0 Q37.0,20.0 37.4,19.8 Q37.8,19.6 38.4,19.0 L38.4,19.0 L38.6,20.0 L40.6,20.0 L40.6,9.0 L38.1,9.0 L38.1,11.6 L38.2,12.8 Q37.7,12.3 37.4,12.2 Q37.2,12.0 36.3,12.0 Q34.6,12.0 33.8,12.8 Q33.0,13.6 33.0,16.1 Q33.0,18.4 33.6,19.2 Q34.3,20.0 36.3,20.0 Z M36.9,18.0 Q36.1,18.0 35.8,17.7 Q35.6,17.4 35.6,16.0 Q35.6,14.6 35.9,14.3 Q36.2,14.0 36.9,14.0 Q37.3,14.0 37.5,14.1 Q37.7,14.2 38.1,14.5 L38.1,17.3 Q37.8,17.8 37.6,17.9 Q37.4,18.0 36.9,18.0 Z"/><path d="M42.6,20.0 L45.1,20.0 L45.1,12.0 L42.6,12.0 L42.6,20.0 Z M43.8,11.0 Q44.7,11.0 45.0,10.8 Q45.2,10.5 45.2,9.7 Q45.2,9.0 45.0,8.7 Q44.7,8.4 43.8,8.4 Q43.0,8.4 42.7,8.7 Q42.5,9.0 42.5,9.7 Q42.5,10.5 42.7,10.8 Q43.0,11.0 43.8,11.0 Z"/><path d="M51.3,20.0 Q52.2,20.0 52.7,19.9 Q53.2,19.8 54.0,19.1 L53.0,17.5 Q52.6,17.8 52.3,17.9 Q52.1,18.0 51.6,18.0 Q50.6,18.0 50.3,17.6 Q49.9,17.2 49.9,16.0 Q49.9,14.8 50.2,14.4 Q50.6,14.0 51.7,14.0 Q52.0,14.0 52.2,14.1 Q52.3,14.1 52.7,14.4 L53.9,12.9 Q53.3,12.3 52.9,12.2 Q52.5,12.0 51.5,12.0 Q49.3,12.0 48.3,12.8 Q47.3,13.5 47.3,16.0 Q47.3,18.5 48.2,19.2 Q49.1,20.0 51.3,20.0 Z"/><path d="M56.0,20.0 L58.5,20.0 L58.5,12.0 L56.0,12.0 L56.0,20.0 Z M57.2,11.0 Q58.1,11.0 58.4,10.8 Q58.6,10.5 58.6,9.7 Q58.6,9.0 58.4,8.7 Q58.1,8.4 57.2,8.4 Q56.4,8.4 56.1,8.7 Q55.9,9.0 55.9,9.7 Q55.9,10.5 56.1,10.8 Q56.4,11.0 57.2,11.0 Z"/><path d="M63.2,20.0 Q64.1,20.0 64.5,19.8 Q64.8,19.6 65.5,19.0 L65.6,19.0 L65.7,20.0 L67.8,20.0 L67.8,15.6 Q67.8,13.2 67.2,12.6 Q66.6,12.0 64.5,12.0 Q63.3,12.0 62.7,12.2 Q62.2,12.4 61.1,13.1 L62.0,14.7 Q62.8,14.2 63.1,14.1 Q63.4,14.0 64.1,14.0 Q64.9,14.0 65.1,14.2 Q65.2,14.4 65.3,15.0 Q62.2,15.3 61.5,15.8 Q60.9,16.2 60.9,17.8 Q60.9,18.9 61.3,19.5 Q61.7,20.0 63.2,20.0 Z M64.1,18.1 Q63.6,18.1 63.4,18.0 Q63.2,17.9 63.2,17.4 Q63.2,16.9 63.5,16.7 Q63.7,16.5 65.3,16.3 L65.3,17.5 Q64.9,17.9 64.7,18.0 Q64.6,18.1 64.1,18.1 Z"/><path d="M71.7,20.0 Q72.2,20.0 72.4,20.0 Q72.6,19.9 72.9,19.8 L72.6,18.0 Q72.5,18.0 72.4,18.0 Q72.4,18.0 72.3,18.0 Q72.1,18.0 72.0,17.9 Q71.9,17.8 71.9,17.3 L71.9,8.6 L69.4,8.6 L69.4,17.2 Q69.4,18.9 69.7,19.4 Q70.0,20.0 71.7,20.0 Z"/><path d="M74.3,16.8 L78.3,16.8 L78.3,15.0 L74.3,15.0 L74.3,16.8 Z"/><path d="M81.6,20.0 L84.5,20.0 L87.1,12.0 L84.7,12.0 L83.7,15.7 Q83.5,16.5 83.4,16.9 Q83.3,17.3 83.1,18.2 L83.1,18.2 Q82.8,17.3 82.8,16.9 Q82.7,16.5 82.5,15.7 L81.5,12.0 L79.0,12.0 L81.6,20.0 Z"/><path d="M91.0,20.0 Q91.9,20.0 92.3,19.8 Q92.6,19.6 93.3,19.0 L93.4,19.0 L93.5,20.0 L95.6,20.0 L95.6,15.6 Q95.6,13.2 95.0,12.6 Q94.4,12.0 92.3,12.0 Q91.1,12.0 90.5,12.2 Q90.0,12.4 88.9,13.1 L89.8,14.7 Q90.6,14.2 90.9,14.1 Q91.2,14.0 91.9,14.0 Q92.7,14.0 92.9,14.2 Q93.0,14.4 93.1,15.0 Q90.0,15.3 89.3,15.8 Q88.7,16.2 88.7,17.8 Q88.7,18.9 89.1,19.5 Q89.5,20.0 91.0,20.0 Z M91.9,18.1 Q91.4,18.1 91.2,18.0 Q91.0,17.9 91.0,17.4 Q91.0,16.9 91.3,16.7 Q91.5,16.5 93.1,16.3 L93.1,17.5 Q92.7,17.9 92.5,18.0 Q92.4,18.1 91.9,18.1 Z"/><path d="M99.5,20.0 Q100.0,20.0 100.2,20.0 Q100.4,19.9 100.7,19.8 L100.4,18.0 Q100.3,18.0 100.2,18.0 Q100.2,18.0 100.1,18.0 Q99.9,18.0 99.8,17.9 Q99.7,17.8 99.7,17.3 L99.7,8.6 L97.2,8.6 L97.2,17.2 Q97.2,18.9 97.5,19.4 Q97.8,20.0 99.5,20.0 Z"/><path d="M104.8,20.0 Q105.9,20.0 106.3,19.8 Q106.6,19.5 107.3,18.7 L107.4,18.7 L107.5,20.0 L109.6,20.0 L109.6,12.0 L107.1,12.0 L107.1,17.1 Q106.7,17.7 106.5,17.8 Q106.3,17.9 105.7,17.9 Q105.1,17.9 105.0,17.7 Q104.8,17.6 104.8,16.5 L104.8,12.0 L102.3,12.0 L102.3,16.8 Q102.3,18.8 102.7,19.4 Q103.1,20.0 104.8,20.0 Z"/><path d="M115.2,20.0 Q116.1,20.0 116.7,19.8 Q117.2,19.7 118.1,19.1 L117.2,17.6 Q116.7,17.9 116.4,18.0 Q116.1,18.1 115.6,18.1 Q114.5,18.1 114.2,17.9 Q113.8,17.7 113.6,16.6 L118.2,16.6 Q118.3,16.5 118.3,16.2 Q118.4,16.0 118.4,15.6 Q118.4,13.7 117.8,12.8 Q117.2,12.0 114.9,12.0 Q113.0,12.0 112.1,12.8 Q111.1,13.6 111.1,15.9 Q111.1,18.5 112.0,19.2 Q112.9,20.0 115.2,20.0 Z M113.5,15.0 Q113.7,14.3 114.0,14.1 Q114.3,13.9 115.0,13.9 Q115.9,13.9 116.1,14.1 Q116.2,14.4 116.2,15.0 L113.5,15.0 Z"/><path d="M119.5,16.8 L123.5,16.8 L123.5,15.0 L119.5,15.0 L119.5,16.8 Z"/><path d="M124.6,23.0 Q126.8,23.0 127.2,22.2 Q127.5,21.5 127.5,19.7 L127.5,12.0 L125.0,12.0 L125.0,19.8 Q125.0,20.7 124.9,20.9 Q124.8,21.1 124.2,21.1 Q124.0,21.1 123.9,21.0 Q123.8,21.0 123.6,21.0 L123.2,22.8 Q123.5,22.9 123.7,23.0 Q123.9,23.0 124.6,23.0 Z M126.3,11.0 Q127.1,11.0 127.4,10.8 Q127.7,10.5 127.7,9.7 Q127.7,9.0 127.4,8.7 Q127.1,8.4 126.3,8.4 Q125.5,8.4 125.2,8.7 Q124.9,9.0 124.9,9.7 Q124.9,10.5 125.2,10.8 Q125.5,11.0 126.3,11.0 Z"/><path d="M132.6,20.0 Q133.7,20.0 134.1,19.8 Q134.4,19.5 135.1,18.7 L135.2,18.7 L135.3,20.0 L137.4,20.0 L137.4,12.0 L134.9,12.0 L134.9,17.1 Q134.5,17.7 134.3,17.8 Q134.1,17.9 133.5,17.9 Q132.9,17.9 132.8,17.7 Q132.6,17.6 132.6,16.5 L132.6,12.0 L130.1,12.0 L130.1,16.8 Q130.1,18.8 130.5,19.4 Q130.9,20.0 132.6,20.0 Z"/><path d="M142.3,20.0 Q143.0,20.0 143.4,19.8 Q143.8,19.6 144.4,19.0 L144.4,19.0 L144.6,20.0 L146.6,20.0 L146.6,9.0 L144.1,9.0 L144.1,11.6 L144.2,12.8 Q143.7,12.3 143.4,12.2 Q143.2,12.0 142.3,12.0 Q140.6,12.0 139.8,12.8 Q139.0,13.6 139.0,16.1 Q139.0,18.4 139.6,19.2 Q140.3,20.0 142.3,20.0 Z M142.9,18.0 Q142.1,18.0 141.8,17.7 Q141.6,17.4 141.6,16.0 Q141.6,14.6 141.9,14.3 Q142.2,14.0 142.9,14.0 Q143.3,14.0 143.5,14.1 Q143.7,14.2 144.1,14.5 L144.1,17.3 Q143.8,17.8 143.6,17.9 Q143.4,18.0 142.9,18.0 Z"/><path d="M151.5,23.6 Q154.2,23.6 155.1,23.0 Q156.0,22.4 156.0,20.2 Q156.0,18.7 155.4,18.4 Q154.9,18.1 152.9,18.1 L151.6,18.1 Q150.8,18.1 150.6,18.1 Q150.5,18.0 150.5,17.8 Q150.5,17.6 150.5,17.6 Q150.6,17.5 150.7,17.4 Q151.1,17.5 151.2,17.5 Q151.4,17.5 151.6,17.5 Q153.4,17.5 154.1,17.1 Q154.8,16.7 154.8,14.8 Q154.8,14.4 154.8,14.2 Q154.7,14.0 154.6,13.8 L155.8,13.8 L155.8,12.0 L152.9,12.0 Q152.6,12.1 152.3,12.0 Q152.1,12.0 151.6,12.0 Q149.9,12.0 149.1,12.5 Q148.3,13.0 148.3,14.8 Q148.3,15.7 148.6,16.1 Q148.8,16.4 149.4,16.8 L149.4,16.9 Q148.9,17.2 148.7,17.5 Q148.5,17.7 148.5,18.0 Q148.5,18.7 148.7,18.9 Q148.8,19.1 149.2,19.4 L149.2,19.5 Q148.5,19.8 148.3,20.2 Q148.1,20.5 148.1,21.4 Q148.1,23.0 148.9,23.3 Q149.6,23.6 151.5,23.6 Z M151.6,16.0 Q151.1,16.0 150.9,15.8 Q150.6,15.6 150.6,14.8 Q150.6,14.1 150.9,13.9 Q151.1,13.7 151.6,13.7 Q152.2,13.7 152.5,13.9 Q152.7,14.1 152.7,14.8 Q152.7,15.6 152.5,15.8 Q152.2,16.0 151.6,16.0 Z M151.8,22.0 Q150.8,22.0 150.5,21.8 Q150.2,21.6 150.2,20.9 Q150.2,20.5 150.2,20.3 Q150.3,20.2 150.5,19.9 Q150.8,20.0 150.9,20.0 Q151.1,20.0 151.7,20.0 L152.4,20.0 Q153.2,20.0 153.4,20.1 Q153.6,20.1 153.6,20.8 Q153.6,21.5 153.2,21.7 Q152.9,22.0 151.8,22.0 Z"/><path d="M157.8,20.0 L160.3,20.0 L160.3,14.8 Q160.8,14.4 161.0,14.2 Q161.2,14.1 161.5,14.1 Q162.2,14.1 162.3,14.3 Q162.5,14.4 162.5,15.5 L162.5,20.0 L165.0,20.0 L165.0,14.8 Q165.5,14.4 165.7,14.2 Q165.9,14.1 166.3,14.1 Q166.9,14.1 167.0,14.3 Q167.2,14.4 167.2,15.5 L167.2,20.0 L169.6,20.0 L169.6,15.2 Q169.6,13.2 169.3,12.6 Q168.9,12.0 167.2,12.0 Q166.1,12.0 165.7,12.3 Q165.3,12.6 164.7,13.3 Q164.3,12.5 163.9,12.2 Q163.6,12.0 162.5,12.0 Q161.4,12.0 161.1,12.3 Q160.7,12.5 160.0,13.2 L160.0,13.2 L159.8,12.0 L157.8,12.0 L157.8,20.0 Z"/><path d="M175.6,20.0 Q176.5,20.0 177.1,19.8 Q177.6,19.7 178.5,19.1 L177.6,17.6 Q177.1,17.9 176.8,18.0 Q176.5,18.1 176.0,18.1 Q174.9,18.1 174.6,17.9 Q174.2,17.7 174.0,16.6 L178.6,16.6 Q178.7,16.5 178.7,16.2 Q178.7,16.0 178.7,15.6 Q178.7,13.7 178.2,12.8 Q177.6,12.0 175.3,12.0 Q173.4,12.0 172.5,12.8 Q171.5,13.6 171.5,15.9 Q171.5,18.5 172.4,19.2 Q173.3,20.0 175.6,20.0 Z M173.9,15.0 Q174.1,14.3 174.4,14.1 Q174.7,13.9 175.4,13.9 Q176.3,13.9 176.5,14.1 Q176.6,14.4 176.6,15.0 L173.9,15.0 Z"/><path d="M180.2,20.0 L182.7,20.0 L182.7,14.8 Q183.2,14.4 183.3,14.3 Q183.5,14.1 184.1,14.1 Q184.7,14.1 184.8,14.3 Q185.0,14.4 185.0,15.5 L185.0,20.0 L187.5,20.0 L187.5,15.2 Q187.5,13.2 187.1,12.6 Q186.7,12.0 185.0,12.0 Q183.9,12.0 183.5,12.3 Q183.1,12.5 182.4,13.2 L182.4,13.2 L182.2,12.0 L180.2,12.0 L180.2,20.0 Z"/><path d="M192.5,20.0 Q193.4,20.0 193.6,19.9 Q193.9,19.8 194.4,19.7 L193.9,17.9 Q193.8,18.0 193.6,18.0 Q193.5,18.1 193.2,18.1 Q192.6,18.1 192.4,17.9 Q192.2,17.7 192.2,16.9 L192.2,14.0 L194.1,14.0 L194.1,12.0 L192.2,12.0 L192.2,9.9 L190.1,9.9 L189.9,12.0 L188.6,12.1 L188.6,14.0 L189.7,14.0 L189.7,16.9 Q189.7,18.7 190.1,19.4 Q190.5,20.0 192.5,20.0 Z"/></g>
  
</svg>
