<svg xmlns="http://www.w3.org/2000/svg" viewBox="0 0 244 30" width="244" height="30" role="img" aria-label="legal-judgment-prediction">
  <rect x="0.5" y="0.5" width="243" height="29" rx="5" fill="#f3e0e6"/>
  <rect x="0" y="0" width="4" height="30" rx="2" fill="#9c3a55"/>
  <g fill="#2a2d34"><path d="M21.3,20.0 Q21.8,20.0 22.0,20.0 Q22.2,19.9 22.5,19.8 L22.2,18.0 Q22.1,18.0 22.0,18.0 Q22.0,18.0 21.9,18.0 Q21.7,18.0 21.6,17.9 Q21.5,17.8 21.5,17.3 L21.5,8.6 L19.0,8.6 L19.0,17.2 Q19.0,18.9 19.3,19.4 Q19.6,20.0 21.3,20.0 Z"/><path d="M27.8,20.0 Q28.7,20.0 29.3,19.8 Q29.8,19.7 30.7,19.1 L29.8,17.6 Q29.3,17.9 29.0,18.0 Q28.7,18.1 28.2,18.1 Q27.1,18.1 26.8,17.9 Q26.4,17.7 26.2,16.6 L30.8,16.6 Q30.9,16.5 30.9,16.2 Q30.9,16.0 30.9,15.6 Q30.9,13.7 30.4,12.8 Q29.8,12.0 27.5,12.0 Q25.6,12.0 24.7,12.8 Q23.7,13.6 23.7,15.9 Q23.7,18.5 24.6,19.2 Q25.5,20.0 27.8,20.0 Z M26.1,15.0 Q26.3,14.3 26.6,14.1 Q26.9,13.9 27.6,13.9 Q28.5,13.9 28.7,14.1 Q28.8,14.4 28.8,15.0 L26.1,15.0 Z"/><path d="M35.3,23.6 Q38.0,23.6 38.9,23.0 Q39.8,22.4 39.8,20.2 Q39.8,18.7 39.2,18.4 Q38.7,18.1 36.7,18.1 L35.4,18.1 Q34.6,18.1 34.4,18.1 Q34.3,18.0 34.3,17.8 Q34.3,17.6 34.3,17.6 Q34.4,17.5 34.5,17.4 Q34.9,17.5 35.0,17.5 Q35.2,17.5 35.4,17.5 Q37.2,17.5 37.9,17.1 Q38.6,16.7 38.6,14.8 Q38.6,14.4 38.6,14.2 Q38.5,14.0 38.4,13.8 L39.6,13.8 L39.6,12.0 L36.7,12.0 Q36.4,12.1 36.1,12.0 Q35.9,12.0 35.4,12.0 Q33.7,12.0 32.9,12.5 Q32.1,13.0 32.1,14.8 Q32.1,15.7 32.4,16.1 Q32.6,16.4 33.2,16.8 L33.2,16.9 Q32.7,17.2 32.5,17.5 Q32.3,17.7 32.3,18.0 Q32.3,18.7 32.5,18.9 Q32.6,19.1 33.0,19.4 L33.0,19.5 Q32.3,19.8 32.1,20.2 Q31.9,20.5 31.9,21.4 Q31.9,23.0 32.7,23.3 Q33.4,23.6 35.3,23.6 Z M35.4,16.0 Q34.9,16.0 34.7,15.8 Q34.4,15.6 34.4,14.8 Q34.4,14.1 34.7,13.9 Q34.9,13.7 35.4,13.7 Q36.0,13.7 36.3,13.9 Q36.5,14.1 36.5,14.8 Q36.5,15.6 36.3,15.8 Q36.0,16.0 35.4,16.0 Z M35.6,22.0 Q34.6,22.0 34.3,21.8 Q34.0,21.6 34.0,20.9 Q34.0,20.5 34.0,20.3 Q34.1,20.2 34.3,19.9 Q34.6,20.0 34.7,20.0 Q34.9,20.0 35.5,20.0 L36.2,20.0 Q37.0,20.0 37.2,20.1 Q37.4,20.1 37.4,20.8 Q37.4,21.5 37.0,21.7 Q36.7,22.0 35.6,22.0 Z"/><path d="M43.6,20.0 Q44.5,20.0 44.9,19.8 Q45.2,19.6 45.9,19.0 L46.0,19.0 L46.1,20.0 L48.2,20.0 L48.2,15.6 Q48.2,13.2 47.6,12.6 Q47.0,12.0 44.9,12.0 Q43.7,12.0 43.1,12.2 Q42.6,12.4 41.5,13.1 L42.4,14.7 Q43.2,14.2 43.5,14.1 Q43.8,14.0 44.5,14.0 Q45.3,14.0 45.5,14.2 Q45.6,14.4 45.7,15.0 Q42.6,15.3 41.9,15.8 Q41.3,16.2 41.3,17.8 Q41.3,18.9 41.7,19.5 Q42.1,20.0 43.6,20.0 Z M44.5,18.1 Q44.0,18.1 43.8,18.0 Q43.6,17.9 43.6,17.4 Q43.6,16.9 43.9,16.7 Q44.1,16.5 45.7,16.3 L45.7,17.5 Q45.3,17.9 45.1,18.0 Q45.0,18.1 44.5,18.1 Z"/><path d="M52.1,20.0 Q52.6,20.0 52.8,20.0 Q53.0,19.9 53.3,19.8 L53.0,18.0 Q52.9,18.0 52.8,18.0 Q52.8,18.0 52.7,18.0 Q52.5,18.0 52.4,17.9 Q52.3,17.8 52.3,17.3 L52.3,8.6 L49.8,8.6 L49.8,17.2 Q49.8,18.9 50.1,19.4 Q50.4,20.0 52.1,20.0 Z"/><path d="M54.7,16.8 L58.7,16.8 L58.7,15.0 L54.7,15.0 L54.7,16.8 Z"/><path d="M59.8,23.0 Q62.0,23.0 62.4,22.2 Q62.7,21.5 62.7,19.7 L62.7,12.0 L60.2,12.0 L60.2,19.8 Q60.2,20.7 60.1,20.9 Q60.0,21.1 59.4,21.1 Q59.2,21.1 59.1,21.0 Q59.0,21.0 58.8,21.0 L58.4,22.8 Q58.7,22.9 58.9,23.0 Q59.1,23.0 59.8,23.0 Z M61.5,11.0 Q62.3,11.0 62.6,10.8 Q62.9,10.5 62.9,9.7 Q62.9,9.0 62.6,8.7 Q62.3,8.4 61.5,8.4 Q60.7,8.4 60.4,8.7 Q60.1,9.0 60.1,9.7 Q60.1,10.5 60.4,10.8 Q60.7,11.0 61.5,11.0 Z"/><path d="M67.8,20.0 Q68.9,20.0 69.3,19.8 Q69.6,19.5 70.3,18.7 L70.4,18.7 L70.5,20.0 L72.6,20.0 L72.6,12.0 L70.1,12.0 L70.1,17.1 Q69.7,17.7 69.5,17.8 Q69.3,17.9 68.7,17.9 Q68.1,17.9 68.0,17.7 Q67.8,17.6 67.8,16.5 L67.8,12.0 L65.3,12.0 L65.3,16.8 Q65.3,18.8 65.7,19.4 Q66.1,20.0 67.8,20.0 Z"/><path d="M77.5,20.0 Q78.2,20.0 78.6,19.8 Q79.0,19.6 79.6,19.0 L79.6,19.0 L79.8,20.0 L81.8,20.0 L81.8,9.0 L79.3,9.0 L79.3,11.6 L79.4,12.8 Q78.9,12.3 78.6,12.2 Q78.4,12.0 77.5,12.0 Q75.8,12.0 75.0,12.8 Q74.2,13.6 74.2,16.1 Q74.2,18.4 74.8,19.2 Q75.5,20.0 77.5,20.0 Z M78.1,18.0 Q77.3,18.0 77.0,17.7 Q76.8,17.4 76.8,16.0 Q76.8,14.6 77.1,14.3 Q77.4,14.0 78.1,14.0 Q78.5,14.0 78.7,14.1 Q78.9,14.2 79.3,14.5 L79.3,17.3 Q79.0,17.8 78.8,17.9 Q78.6,18.0 78.1,18.0 Z"/><path d="M86.7,23.6 Q89.4,23.6 90.3,23.0 Q91.2,22.4 91.2,20.2 Q91.2,18.7 90.6,18.4 Q90.1,18.1 88.1,18.1 L86.8,18.1 Q86.0,18.1 85.8,18.1 Q85.7,18.0 85.7,17.8 Q85.7,17.6 85.7,17.6 Q85.8,17.5 85.9,17.4 Q86.3,17.5 86.4,17.5 Q86.6,17.5 86.8,17.5 Q88.6,17.5 89.3,17.1 Q90.0,16.7 90.0,14.8 Q90.0,14.4 90.0,14.2 Q89.9,14.0 89.8,13.8 L91.1,13.8 L91.1,12.0 L88.1,12.0 Q87.8,12.1 87.5,12.0 Q87.3,12.0 86.8,12.0 Q85.1,12.0 84.3,12.5 Q83.5,13.0 83.5,14.8 Q83.5,15.7 83.8,16.1 Q84.0,16.4 84.6,16.8 L84.6,16.9 Q84.1,17.2 83.9,17.5 Q83.7,17.7 83.7,18.0 Q83.7,18.7 83.9,18.9 Q84.0,19.1 84.4,19.4 L84.4,19.5 Q83.7,19.8 83.5,20.2 Q83.3,20.5 83.3,21.4 Q83.3,23.0 84.1,23.3 Q84.8,23.6 86.7,23.6 Z M86.8,16.0 Q86.3,16.0 86.1,15.8 Q85.8,15.6 85.8,14.8 Q85.8,14.1 86.1,13.9 Q86.3,13.7 86.8,13.7 Q87.4,13.7 87.7,13.9 Q87.9,14.1 87.9,14.8 Q87.9,15.6 87.7,15.8 Q87.4,16.0 86.8,16.0 Z M87.1,22.0 Q86.0,22.0 85.7,21.8 Q85.4,21.6 85.4,20.9 Q85.4,20.5 85.4,20.3 Q85.5,20.2 85.7,19.9 Q86.0,20.0 86.1,20.0 Q86.3,20.0 86.9,20.0 L87.6,20.0 Q88.4,20.0 88.6,20.1 Q88.8,20.1 88.8,20.8 Q88.8,21.5 88.4,21.7 Q88.1,22.0 87.1,22.0 Z"/><path d="M93.0,20.0 L95.5,20.0 L95.5,14.8 Q96.0,14.4 96.2,14.2 Q96.4,14.1 96.8,14.1 Q97.4,14.1 97.5,14.3 Q97.7,14.4 97.7,15.5 L97.7,20.0 L100.2,20.0 L100.2,14.8 Q100.7,14.4 100.9,14.2 Q101.1,14.1 101.5,14.1 Q102.1,14.1 102.2,14.3 Q102.4,14.4 102.4,15.5 L102.4,20.0 L104.8,20.0 L104.8,15.2 Q104.8,13.2 104.5,12.6 Q104.1,12.0 102.4,12.0 Q101.3,12.0 100.9,12.3 Q100.5,12.6 99.9,13.3 Q99.5,12.5 99.1,12.2 Q98.8,12.0 97.7,12.0 Q96.6,12.0 96.3,12.3 Q95.9,12.5 95.3,13.2 L95.2,13.2 L95.0,12.0 L93.0,12.0 L93.0,20.0 Z"/><path d="M110.8,20.0 Q111.7,20.0 112.3,19.8 Q112.8,19.7 113.7,19.1 L112.8,17.6 Q112.3,17.9 112.0,18.0 Q111.7,18.1 111.2,18.1 Q110.1,18.1 109.8,17.9 Q109.4,17.7 109.2,16.6 L113.8,16.6 Q113.9,16.5 113.9,16.2 Q114.0,16.0 114.0,15.6 Q114.0,13.7 113.4,12.8 Q112.8,12.0 110.5,12.0 Q108.6,12.0 107.7,12.8 Q106.7,13.6 106.7,15.9 Q106.7,18.5 107.6,19.2 Q108.5,20.0 110.8,20.0 Z M109.1,15.0 Q109.3,14.3 109.6,14.1 Q109.9,13.9 110.6,13.9 Q111.5,13.9 111.7,14.1 Q111.8,14.4 111.8,15.0 L109.1,15.0 Z"/><path d="M115.4,20.0 L117.9,20.0 L117.9,14.8 Q118.4,14.4 118.5,14.3 Q118.7,14.1 119.3,14.1 Q119.9,14.1 120.0,14.3 Q120.2,14.4 120.2,15.5 L120.2,20.0 L122.7,20.0 L122.7,15.2 Q122.7,13.2 122.3,12.6 Q121.9,12.0 120.2,12.0 Q119.1,12.0 118.7,12.3 Q118.3,12.5 117.7,13.2 L117.6,13.2 L117.4,12.0 L115.4,12.0 L115.4,20.0 Z"/><path d="M127.7,20.0 Q128.6,20.0 128.8,19.9 Q129.1,19.8 129.6,19.7 L129.1,17.9 Q129.0,18.0 128.8,18.0 Q128.7,18.1 128.4,18.1 Q127.8,18.1 127.6,17.9 Q127.4,17.7 127.4,16.9 L127.4,14.0 L129.3,14.0 L129.3,12.0 L127.4,12.0 L127.4,9.9 L125.4,9.9 L125.1,12.0 L123.9,12.1 L123.9,14.0 L124.9,14.0 L124.9,16.9 Q124.9,18.7 125.3,19.4 Q125.7,20.0 127.7,20.0 Z"/><path d="M130.5,16.8 L134.5,16.8 L134.5,15.0 L130.5,15.0 L130.5,16.8 Z"/><path d="M136.0,23.0 L138.5,23.0 L138.5,20.5 L138.4,19.2 Q138.9,19.7 139.3,19.9 Q139.6,20.0 140.3,20.0 Q142.0,20.0 142.8,19.2 Q143.6,18.4 143.6,15.8 Q143.6,13.6 143.0,12.8 Q142.4,12.0 140.5,12.0 Q139.7,12.0 139.3,12.2 Q138.9,12.4 138.2,13.0 L138.2,13.0 L138.0,12.0 L136.0,12.0 L136.0,23.0 Z M139.7,18.0 Q139.3,18.0 139.1,17.9 Q138.9,17.9 138.5,17.5 L138.5,14.7 Q138.9,14.2 139.1,14.1 Q139.3,14.0 139.8,14.0 Q140.6,14.0 140.8,14.3 Q141.0,14.6 141.0,15.9 Q141.0,17.3 140.7,17.7 Q140.4,18.0 139.7,18.0 Z"/><path d="M145.2,20.0 L147.7,20.0 L147.7,15.5 Q148.1,14.6 148.5,14.4 Q148.8,14.2 149.4,14.2 Q149.7,14.2 149.9,14.2 Q150.0,14.2 150.3,14.3 L150.7,12.0 Q150.5,12.1 150.3,12.0 Q150.2,12.0 149.7,12.0 Q148.9,12.0 148.5,12.3 Q148.0,12.5 147.4,13.6 L147.4,13.6 L147.2,12.0 L145.2,12.0 L145.2,20.0 Z"/><path d="M156.0,20.0 Q156.9,20.0 157.5,19.8 Q158.0,19.7 158.9,19.1 L158.0,17.6 Q157.5,17.9 157.2,18.0 Q156.9,18.1 156.4,18.1 Q155.3,18.1 155.0,17.9 Q154.6,17.7 154.4,16.6 L159.0,16.6 Q159.1,16.5 159.1,16.2 Q159.1,16.0 159.1,15.6 Q159.1,13.7 158.6,12.8 Q158.0,12.0 155.7,12.0 Q153.8,12.0 152.9,12.8 Q151.9,13.6 151.9,15.9 Q151.9,18.5 152.8,19.2 Q153.7,20.0 156.0,20.0 Z M154.3,15.0 Q154.5,14.3 154.8,14.1 Q155.1,13.9 155.8,13.9 Q156.7,13.9 156.9,14.1 Q157.0,14.4 157.0,15.0 L154.3,15.0 Z"/><path d="M163.5,20.0 Q164.2,20.0 164.6,19.8 Q165.0,19.6 165.6,19.0 L165.6,19.0 L165.8,20.0 L167.8,20.0 L167.8,9.0 L165.3,9.0 L165.3,11.6 L165.4,12.8 Q164.9,12.3 164.6,12.2 Q164.4,12.0 163.5,12.0 Q161.8,12.0 161.0,12.8 Q160.2,13.6 160.2,16.1 Q160.2,18.4 160.8,19.2 Q161.5,20.0 163.5,20.0 Z M164.1,18.0 Q163.3,18.0 163.0,17.7 Q162.8,17.4 162.8,16.0 Q162.8,14.6 163.1,14.3 Q163.4,14.0 164.1,14.0 Q164.5,14.0 164.7,14.1 Q164.9,14.2 165.3,14.5 L165.3,17.3 Q165.0,17.8 164.8,17.9 Q164.6,18.0 164.1,18.0 Z"/><path d="M169.8,20.0 L172.3,20.0 L172.3,12.0 L169.8,12.0 L169.8,20.0 Z M171.0,11.0 Q171.9,11.0 172.2,10.8 Q172.4,10.5 172.4,9.7 Q172.4,9.0 172.2,8.7 Q171.9,8.4 171.0,8.4 Q170.2,8.4 169.9,8.7 Q169.7,9.0 169.7,9.7 Q169.7,10.5 169.9,10.8 Q170.2,11.0 171.0,11.0 Z"/><path d="M178.5,20.0 Q179.4,20.0 179.9,19.9 Q180.4,19.8 181.2,19.1 L180.2,17.5 Q179.8,17.8 179.5,17.9 Q179.3,18.0 178.8,18.0 Q177.8,18.0 177.5,17.6 Q177.1,17.2 177.1,16.0 Q177.1,14.8 177.4,14.4 Q177.8,14.0 178.9,14.0 Q179.2,14.0 179.4,14.1 Q179.5,14.1 179.9,14.4 L181.1,12.9 Q180.5,12.3 180.1,12.2 Q179.7,12.0 178.7,12.0 Q176.5,12.0 175.5,12.8 Q174.5,13.5 174.5,16.0 Q174.5,18.5 175.4,19.2 Q176.3,20.0 178.5,20.0 Z"/><path d="M186.3,20.0 Q187.2,20.0 187.4,19.9 Q187.7,19.8 188.2,19.7 L187.7,17.9 Q187.6,18.0 187.4,18.0 Q187.3,18.1 187.0,18.1 Q186.4,18.1 186.2,17.9 Q186.0,17.7 186.0,16.9 L186.0,14.0 L187.9,14.0 L187.9,12.0 L186.0,12.0 L186.0,9.9 L183.9,9.9 L183.7,12.0 L182.4,12.1 L182.4,14.0 L183.5,14.0 L183.5,16.9 Q183.5,18.7 183.9,19.4 Q184.3,20.0 186.3,20.0 Z"/><path d="M189.4,20.0 L191.9,20.0 L191.9,12.0 L189.4,12.0 L189.4,20.0 Z M190.6,11.0 Q191.5,11.0 191.8,10.8 Q192.0,10.5 192.0,9.7 Q192.0,9.0 191.8,8.7 Q191.5,8.4 190.6,8.4 Q189.8,8.4 189.5,8.7 Q189.3,9.0 189.3,9.7 Q189.3,10.5 189.5,10.8 Q189.8,11.0 190.6,11.0 Z"/><path d="M198.1,20.0 Q200.1,20.0 201.0,19.2 Q202.0,18.5 202.0,16.0 Q202.0,13.5 201.0,12.8 Q200.1,12.0 198.1,12.0 Q196.0,12.0 195.1,12.8 Q194.1,13.5 194.1,16.0 Q194.1,18.5 195.1,19.2 Q196.0,20.0 198.1,20.0 Z M198.1,18.0 Q197.1,18.0 196.9,17.6 Q196.7,17.2 196.7,16.0 Q196.7,14.8 196.9,14.4 Q197.1,14.0 198.1,14.0 Q199.0,14.0 199.2,14.4 Q199.4,14.8 199.4,16.0 Q199.4,17.2 199.2,17.6 Q199.0,18.0 198.1,18.0 Z"/><path d="M203.8,20.0 L206.3,20.0 L206.3,14.8 Q206.8,14.4 206.9,14.3 Q207.1,14.1 207.7,14.1 Q208.3,14.1 208.4,14.3 Q208.6,14.4 208.6,15.5 L208.6,20.0 L211.1,20.0 L211.1,15.2 Q211.1,13.2 210.7,12.6 Q210.3,12.0 208.6,12.0 Q207.5,12.0 207.1,12.3 Q206.7,12.5 206.0,13.2 L206.0,13.2 L205.8,12.0 L203.8,12.0 L203.8,20.0 Z"/></g>
  <path d="M228 9.5 L230.475 15 L228 20.5 L225.525 15 Z" fill="#9c3a55"/><path d="M222.5 15 L228 12.525 L233.5 15 L228 17.475 Z" fill="#9c3a55"/>
</svg>
