<svg xmlns="http://www.w3.org/2000/svg" viewBox="0 0 238 30" width="238" height="30" role="img" aria-label="dispute-issue-identification">
  <rect x="0.5" y="0.5" width="237" height="29" rx="5" fill="#e1efe9"/>
  <rect x="0" y="0" width="4" height="30" rx="2" fill="#3f7d6e"/>
  <g fill="#2a2d34"><path d="M21.9,20.0 Q22.6,20.0 23.0,19.8 Q23.4,19.6 24.0,19.0 L24.0,19.0 L24.2,20.0 L26.2,20.0 L26.2,9.0 L23.7,9.0 L23.7,11.6 L23.8,12.8 Q23.3,12.3 23.0,12.2 Q22.8,12.0 21.9,12.0 Q20.2,12.0 19.4,12.8 Q18.6,13.6 18.6,16.1 Q18.6,18.4 19.2,19.2 Q19.9,20.0 21.9,20.0 Z M22.5,18.0 Q21.7,18.0 21.4,17.7 Q21.2,17.4 21.2,16.0 Q21.2,14.6 21.5,14.3 Q21.8,14.0 22.5,14.0 Q22.9,14.0 23.1,14.1 Q23.3,14.2 23.7,14.5 L23.7,17.3 Q23.4,17.8 23.2,17.9 Q23.0,18.0 22.5,18.0 Z"/><path d="M28.2,20.0 L30.7,20.0 L30.7,12.0 L28.2,12.0 L28.2,20.0 Z M29.4,11.0 Q30.3,11.0 30.6,10.8 Q30.8,10.5 30.8,9.7 Q30.8,9.0 30.6,8.7 Q30.3,8.4 29.4,8.4 Q28.6,8.4 28.3,8.7 Q28.1,9.0 28.1,9.7 Q28.1,10.5 28.3,10.8 Q28.6,11.0 29.4,11.0 Z"/><path d="M35.8,20.0 Q37.9,20.0 38.5,19.4 Q39.1,18.9 39.1,17.5 Q39.1,16.1 38.5,15.9 Q38.0,15.6 37.0,15.2 Q36.2,15.0 35.8,14.9 Q35.5,14.8 35.5,14.4 Q35.5,14.0 35.6,13.9 Q35.8,13.8 36.3,13.8 Q36.9,13.8 37.1,14.0 Q37.4,14.1 38.0,14.5 L39.1,13.0 Q38.4,12.5 38.0,12.3 Q37.5,12.0 36.2,12.0 Q34.4,12.0 33.8,12.5 Q33.2,13.0 33.2,14.5 Q33.2,15.7 33.7,16.0 Q34.2,16.3 35.2,16.6 Q36.0,16.9 36.4,17.0 Q36.8,17.2 36.8,17.6 Q36.8,18.0 36.6,18.1 Q36.5,18.2 35.8,18.2 Q35.2,18.2 34.9,18.0 Q34.6,17.9 33.8,17.4 L32.7,18.9 Q33.5,19.6 34.1,19.8 Q34.7,20.0 35.8,20.0 Z"/><path d="M40.6,23.0 L43.1,23.0 L43.1,20.5 L43.0,19.2 Q43.5,19.7 43.9,19.9 Q44.2,20.0 44.9,20.0 Q46.6,20.0 47.4,19.2 Q48.2,18.4 48.2,15.8 Q48.2,13.6 47.6,12.8 Q47.0,12.0 45.1,12.0 Q44.3,12.0 43.9,12.2 Q43.5,12.4 42.9,13.0 L42.8,13.0 L42.6,12.0 L40.6,12.0 L40.6,23.0 Z M44.3,18.0 Q43.9,18.0 43.7,17.9 Q43.5,17.9 43.1,17.5 L43.1,14.7 Q43.5,14.2 43.7,14.1 Q43.9,14.0 44.4,14.0 Q45.2,14.0 45.4,14.3 Q45.6,14.6 45.6,15.9 Q45.6,17.3 45.3,17.7 Q45.0,18.0 44.3,18.0 Z"/><path d="M52.2,20.0 Q53.3,20.0 53.7,19.8 Q54.0,19.5 54.7,18.7 L54.8,18.7 L54.9,20.0 L57.0,20.0 L57.0,12.0 L54.5,12.0 L54.5,17.1 Q54.0,17.7 53.9,17.8 Q53.7,17.9 53.1,17.9 Q52.5,17.9 52.4,17.7 Q52.2,17.6 52.2,16.5 L52.2,12.0 L49.7,12.0 L49.7,16.8 Q49.7,18.8 50.1,19.4 Q50.5,20.0 52.2,20.0 Z"/><path d="M62.1,20.0 Q63.0,20.0 63.2,19.9 Q63.5,19.8 64.0,19.7 L63.5,17.9 Q63.4,18.0 63.2,18.0 Q63.1,18.1 62.8,18.1 Q62.2,18.1 62.0,17.9 Q61.8,17.7 61.8,16.9 L61.8,14.0 L63.7,14.0 L63.7,12.0 L61.8,12.0 L61.8,9.9 L59.8,9.9 L59.5,12.0 L58.2,12.1 L58.2,14.0 L59.3,14.0 L59.3,16.9 Q59.3,18.7 59.7,19.4 Q60.1,20.0 62.1,20.0 Z"/><path d="M68.8,20.0 Q69.7,20.0 70.3,19.8 Q70.8,19.7 71.7,19.1 L70.8,17.6 Q70.3,17.9 70.0,18.0 Q69.7,18.1 69.2,18.1 Q68.1,18.1 67.8,17.9 Q67.4,17.7 67.2,16.6 L71.8,16.6 Q71.9,16.5 71.9,16.2 Q72.0,16.0 72.0,15.6 Q72.0,13.7 71.4,12.8 Q70.8,12.0 68.5,12.0 Q66.6,12.0 65.7,12.8 Q64.7,13.6 64.7,15.9 Q64.7,18.5 65.6,19.2 Q66.5,20.0 68.8,20.0 Z M67.1,15.0 Q67.3,14.3 67.6,14.1 Q67.9,13.9 68.6,13.9 Q69.5,13.9 69.7,14.1 Q69.8,14.4 69.8,15.0 L67.1,15.0 Z"/><path d="M73.1,16.8 L77.1,16.8 L77.1,15.0 L73.1,15.0 L73.1,16.8 Z"/><path d="M78.6,20.0 L81.1,20.0 L81.1,12.0 L78.6,12.0 L78.6,20.0 Z M79.9,11.0 Q80.7,11.0 81.0,10.8 Q81.2,10.5 81.2,9.7 Q81.2,9.0 81.0,8.7 Q80.7,8.4 79.9,8.4 Q79.0,8.4 78.7,8.7 Q78.5,9.0 78.5,9.7 Q78.5,10.5 78.7,10.8 Q79.0,11.0 79.9,11.0 Z"/><path d="M86.2,20.0 Q88.3,20.0 88.9,19.4 Q89.5,18.9 89.5,17.5 Q89.5,16.1 88.9,15.9 Q88.4,15.6 87.4,15.2 Q86.6,15.0 86.2,14.9 Q85.9,14.8 85.9,14.4 Q85.9,14.0 86.0,13.9 Q86.2,13.8 86.7,13.8 Q87.3,13.8 87.5,14.0 Q87.8,14.1 88.4,14.5 L89.5,13.0 Q88.8,12.5 88.4,12.3 Q87.9,12.0 86.6,12.0 Q84.8,12.0 84.2,12.5 Q83.6,13.0 83.6,14.5 Q83.6,15.7 84.1,16.0 Q84.6,16.3 85.6,16.6 Q86.4,16.9 86.8,17.0 Q87.2,17.2 87.2,17.6 Q87.2,18.0 87.0,18.1 Q86.9,18.2 86.2,18.2 Q85.6,18.2 85.3,18.0 Q85.0,17.9 84.2,17.4 L83.1,18.9 Q83.9,19.6 84.5,19.8 Q85.1,20.0 86.2,20.0 Z"/><path d="M93.4,20.0 Q95.5,20.0 96.1,19.4 Q96.7,18.9 96.7,17.5 Q96.7,16.1 96.1,15.9 Q95.6,15.6 94.6,15.2 Q93.8,15.0 93.4,14.9 Q93.1,14.8 93.1,14.4 Q93.1,14.0 93.2,13.9 Q93.4,13.8 93.9,13.8 Q94.5,13.8 94.7,14.0 Q95.0,14.1 95.6,14.5 L96.7,13.0 Q96.0,12.5 95.6,12.3 Q95.1,12.0 93.8,12.0 Q92.0,12.0 91.4,12.5 Q90.8,13.0 90.8,14.5 Q90.8,15.7 91.3,16.0 Q91.8,16.3 92.8,16.6 Q93.6,16.9 94.0,17.0 Q94.4,17.2 94.4,17.6 Q94.4,18.0 94.2,18.1 Q94.1,18.2 93.4,18.2 Q92.8,18.2 92.5,18.0 Q92.2,17.9 91.4,17.4 L90.3,18.9 Q91.1,19.6 91.7,19.8 Q92.3,20.0 93.4,20.0 Z"/><path d="M100.6,20.0 Q101.7,20.0 102.1,19.8 Q102.4,19.5 103.1,18.7 L103.2,18.7 L103.3,20.0 L105.4,20.0 L105.4,12.0 L102.9,12.0 L102.9,17.1 Q102.5,17.7 102.3,17.8 Q102.1,17.9 101.5,17.9 Q100.9,17.9 100.8,17.7 Q100.6,17.6 100.6,16.5 L100.6,12.0 L98.1,12.0 L98.1,16.8 Q98.1,18.8 98.5,19.4 Q98.9,20.0 100.6,20.0 Z"/><path d="M111.0,20.0 Q111.9,20.0 112.5,19.8 Q113.0,19.7 113.9,19.1 L113.0,17.6 Q112.5,17.9 112.2,18.0 Q111.9,18.1 111.4,18.1 Q110.3,18.1 110.0,17.9 Q109.6,17.7 109.4,16.6 L114.0,16.6 Q114.1,16.5 114.1,16.2 Q114.2,16.0 114.2,15.6 Q114.2,13.7 113.6,12.8 Q113.0,12.0 110.7,12.0 Q108.8,12.0 107.9,12.8 Q106.9,13.6 106.9,15.9 Q106.9,18.5 107.8,19.2 Q108.7,20.0 111.0,20.0 Z M109.3,15.0 Q109.5,14.3 109.8,14.1 Q110.1,13.9 110.8,13.9 Q111.7,13.9 111.9,14.1 Q112.0,14.4 112.0,15.0 L109.3,15.0 Z"/><path d="M115.3,16.8 L119.3,16.8 L119.3,15.0 L115.3,15.0 L115.3,16.8 Z"/><path d="M120.8,20.0 L123.3,20.0 L123.3,12.0 L120.8,12.0 L120.8,20.0 Z M122.1,11.0 Q122.9,11.0 123.2,10.8 Q123.4,10.5 123.4,9.7 Q123.4,9.0 123.2,8.7 Q122.9,8.4 122.1,8.4 Q121.2,8.4 120.9,8.7 Q120.7,9.0 120.7,9.7 Q120.7,10.5 120.9,10.8 Q121.2,11.0 122.1,11.0 Z"/><path d="M128.9,20.0 Q129.6,20.0 130.0,19.8 Q130.4,19.6 131.0,19.0 L131.0,19.0 L131.2,20.0 L133.2,20.0 L133.2,9.0 L130.7,9.0 L130.7,11.6 L130.8,12.8 Q130.3,12.3 130.0,12.2 Q129.8,12.0 128.9,12.0 Q127.2,12.0 126.4,12.8 Q125.6,13.6 125.6,16.1 Q125.6,18.4 126.2,19.2 Q126.9,20.0 128.9,20.0 Z M129.5,18.0 Q128.7,18.0 128.4,17.7 Q128.2,17.4 128.2,16.0 Q128.2,14.6 128.5,14.3 Q128.8,14.0 129.5,14.0 Q129.9,14.0 130.1,14.1 Q130.3,14.2 130.7,14.5 L130.7,17.3 Q130.4,17.8 130.2,17.9 Q130.0,18.0 129.5,18.0 Z"/><path d="M138.8,20.0 Q139.7,20.0 140.3,19.8 Q140.8,19.7 141.7,19.1 L140.8,17.6 Q140.3,17.9 140.0,18.0 Q139.7,18.1 139.2,18.1 Q138.1,18.1 137.8,17.9 Q137.4,17.7 137.2,16.6 L141.8,16.6 Q141.9,16.5 141.9,16.2 Q142.0,16.0 142.0,15.6 Q142.0,13.7 141.4,12.8 Q140.8,12.0 138.5,12.0 Q136.6,12.0 135.7,12.8 Q134.7,13.6 134.7,15.9 Q134.7,18.5 135.6,19.2 Q136.5,20.0 138.8,20.0 Z M137.1,15.0 Q137.3,14.3 137.6,14.1 Q137.9,13.9 138.6,13.9 Q139.5,13.9 139.7,14.1 Q139.8,14.4 139.8,15.0 L137.1,15.0 Z"/><path d="M143.4,20.0 L145.9,20.0 L145.9,14.8 Q146.4,14.4 146.5,14.3 Q146.7,14.1 147.3,14.1 Q147.9,14.1 148.0,14.3 Q148.2,14.4 148.2,15.5 L148.2,20.0 L150.7,20.0 L150.7,15.2 Q150.7,13.2 150.3,12.6 Q149.9,12.0 148.2,12.0 Q147.1,12.0 146.7,12.3 Q146.3,12.5 145.7,13.2 L145.6,13.2 L145.4,12.0 L143.4,12.0 L143.4,20.0 Z"/><path d="M155.7,20.0 Q156.6,20.0 156.8,19.9 Q157.1,19.8 157.6,19.7 L157.1,17.9 Q157.0,18.0 156.8,18.0 Q156.7,18.1 156.4,18.1 Q155.8,18.1 155.6,17.9 Q155.4,17.7 155.4,16.9 L155.4,14.0 L157.3,14.0 L157.3,12.0 L155.4,12.0 L155.4,9.9 L153.3,9.9 L153.1,12.0 L151.8,12.1 L151.8,14.0 L152.9,14.0 L152.9,16.9 Q152.9,18.7 153.3,19.4 Q153.7,20.0 155.7,20.0 Z"/><path d="M158.8,20.0 L161.3,20.0 L161.3,12.0 L158.8,12.0 L158.8,20.0 Z M160.0,11.0 Q160.9,11.0 161.2,10.8 Q161.4,10.5 161.4,9.7 Q161.4,9.0 161.2,8.7 Q160.9,8.4 160.0,8.4 Q159.2,8.4 158.9,8.7 Q158.7,9.0 158.7,9.7 Q158.7,10.5 158.9,10.8 Q159.2,11.0 160.0,11.0 Z"/><path d="M163.4,14.0 L164.4,14.0 L164.4,20.0 L166.9,20.0 L166.9,14.0 L168.3,14.0 L168.3,12.0 L166.9,12.0 L166.9,11.7 Q166.9,11.2 167.1,11.1 Q167.2,11.0 167.8,11.0 Q168.1,11.0 168.2,11.0 Q168.4,11.0 168.6,11.1 L169.1,9.3 Q168.7,9.1 168.4,9.1 Q168.1,9.0 167.4,9.0 Q165.2,9.0 164.8,9.7 Q164.4,10.4 164.4,11.8 L164.4,12.0 L163.4,12.1 L163.4,14.0 Z"/><path d="M170.2,20.0 L172.7,20.0 L172.7,12.0 L170.2,12.0 L170.2,20.0 Z M171.4,11.0 Q172.3,11.0 172.6,10.8 Q172.8,10.5 172.8,9.7 Q172.8,9.0 172.6,8.7 Q172.3,8.4 171.4,8.4 Q170.6,8.4 170.3,8.7 Q170.1,9.0 170.1,9.7 Q170.1,10.5 170.3,10.8 Q170.6,11.0 171.4,11.0 Z"/><path d="M178.9,20.0 Q179.8,20.0 180.3,19.9 Q180.8,19.8 181.6,19.1 L180.6,17.5 Q180.2,17.8 179.9,17.9 Q179.7,18.0 179.2,18.0 Q178.2,18.0 177.9,17.6 Q177.5,17.2 177.5,16.0 Q177.5,14.8 177.8,14.4 Q178.2,14.0 179.3,14.0 Q179.6,14.0 179.8,14.1 Q179.9,14.1 180.3,14.4 L181.5,12.9 Q180.9,12.3 180.5,12.2 Q180.1,12.0 179.1,12.0 Q176.9,12.0 175.9,12.8 Q174.9,13.5 174.9,16.0 Q174.9,18.5 175.8,19.2 Q176.7,20.0 178.9,20.0 Z"/><path d="M185.6,20.0 Q186.5,20.0 186.9,19.8 Q187.2,19.6 187.9,19.0 L188.0,19.0 L188.1,20.0 L190.2,20.0 L190.2,15.6 Q190.2,13.2 189.6,12.6 Q189.0,12.0 186.9,12.0 Q185.7,12.0 185.1,12.2 Q184.6,12.4 183.5,13.1 L184.4,14.7 Q185.2,14.2 185.5,14.1 Q185.8,14.0 186.5,14.0 Q187.3,14.0 187.5,14.2 Q187.6,14.4 187.7,15.0 Q184.6,15.3 183.9,15.8 Q183.3,16.2 183.3,17.8 Q183.3,18.9 183.7,19.5 Q184.1,20.0 185.6,20.0 Z M186.5,18.1 Q186.0,18.1 185.8,18.0 Q185.6,17.9 185.6,17.4 Q185.6,16.9 185.9,16.7 Q186.1,16.5 187.7,16.3 L187.7,17.5 Q187.3,17.9 187.1,18.0 Q187.0,18.1 186.5,18.1 Z"/><path d="M194.9,20.0 Q195.8,20.0 196.0,19.9 Q196.3,19.8 196.8,19.7 L196.3,17.9 Q196.2,18.0 196.0,18.0 Q195.9,18.1 195.6,18.1 Q195.0,18.1 194.8,17.9 Q194.6,17.7 194.6,16.9 L194.6,14.0 L196.5,14.0 L196.5,12.0 L194.6,12.0 L194.6,9.9 L192.5,9.9 L192.3,12.0 L191.0,12.1 L191.0,14.0 L192.1,14.0 L192.1,16.9 Q192.1,18.7 192.5,19.4 Q192.9,20.0 194.9,20.0 Z"/><path d="M198.0,20.0 L200.5,20.0 L200.5,12.0 L198.0,12.0 L198.0,20.0 Z M199.2,11.0 Q200.1,11.0 200.4,10.8 Q200.6,10.5 200.6,9.7 Q200.6,9.0 200.4,8.7 Q200.1,8.4 199.2,8.4 Q198.4,8.4 198.1,8.7 Q197.9,9.0 197.9,9.7 Q197.9,10.5 198.1,10.8 Q198.4,11.0 199.2,11.0 Z"/><path d="M206.7,20.0 Q208.7,20.0 209.6,19.2 Q210.6,18.5 210.6,16.0 Q210.6,13.5 209.6,12.8 Q208.7,12.0 206.7,12.0 Q204.6,12.0 203.7,12.8 Q202.7,13.5 202.7,16.0 Q202.7,18.5 203.7,19.2 Q204.6,20.0 206.7,20.0 Z M206.7,18.0 Q205.7,18.0 205.5,17.6 Q205.3,17.2 205.3,16.0 Q205.3,14.8 205.5,14.4 Q205.7,14.0 206.7,14.0 Q207.6,14.0 207.8,14.4 Q208.0,14.8 208.0,16.0 Q208.0,17.2 207.8,17.6 Q207.6,18.0 206.7,18.0 Z"/><path d="M212.4,20.0 L214.9,20.0 L214.9,14.8 Q215.4,14.4 215.5,14.3 Q215.7,14.1 216.3,14.1 Q216.9,14.1 217.0,14.3 Q217.2,14.4 217.2,15.5 L217.2,20.0 L219.7,20.0 L219.7,15.2 Q219.7,13.2 219.3,12.6 Q218.9,12.0 217.2,12.0 Q216.1,12.0 215.7,12.3 Q215.3,12.5 214.6,13.2 L214.6,13.2 L214.4,12.0 L212.4,12.0 L212.4,20.0 Z"/></g>
  
</svg>
