<svg xmlns="http://www.w3.org/2000/svg" viewBox="0 0 219 30" width="219" height="30" role="img" aria-label="formal-legal-consequence">
  <rect x="0.5" y="0.5" width="218" height="29" rx="5" fill="#f6e3dc"/>
  <rect x="0" y="0" width="4" height="30" rx="2" fill="#b5462f"/>
  <g fill="#2a2d34"><path d="M18.4,14.0 L19.4,14.0 L19.4,20.0 L21.9,20.0 L21.9,14.0 L23.3,14.0 L23.3,12.0 L21.9,12.0 L21.9,11.7 Q21.9,11.2 22.1,11.1 Q22.2,11.0 22.8,11.0 Q23.1,11.0 23.2,11.0 Q23.4,11.0 23.6,11.1 L24.1,9.3 Q23.7,9.1 23.4,9.1 Q23.1,9.0 22.4,9.0 Q20.2,9.0 19.8,9.7 Q19.4,10.4 19.4,11.8 L19.4,12.0 L18.4,12.1 L18.4,14.0 Z"/><path d="M28.7,20.0 Q30.7,20.0 31.6,19.2 Q32.6,18.5 32.6,16.0 Q32.6,13.5 31.6,12.8 Q30.7,12.0 28.7,12.0 Q26.6,12.0 25.7,12.8 Q24.7,13.5 24.7,16.0 Q24.7,18.5 25.7,19.2 Q26.6,20.0 28.7,20.0 Z M28.7,18.0 Q27.7,18.0 27.5,17.6 Q27.3,17.2 27.3,16.0 Q27.3,14.8 27.5,14.4 Q27.7,14.0 28.7,14.0 Q29.6,14.0 29.8,14.4 Q30.0,14.8 30.0,16.0 Q30.0,17.2 29.8,17.6 Q29.6,18.0 28.7,18.0 Z"/><path d="M34.4,20.0 L36.9,20.0 L36.9,15.5 Q37.3,14.6 37.7,14.4 Q38.0,14.2 38.6,14.2 Q38.9,14.2 39.1,14.2 Q39.2,14.2 39.5,14.3 L39.9,12.0 Q39.7,12.1 39.5,12.0 Q39.4,12.0 38.9,12.0 Q38.1,12.0 37.7,12.3 Q37.2,12.5 36.6,13.6 L36.6,13.6 L36.4,12.0 L34.4,12.0 L34.4,20.0 Z"/><path d="M41.6,20.0 L44.1,20.0 L44.1,14.8 Q44.6,14.4 44.8,14.2 Q45.0,14.1 45.4,14.1 Q46.0,14.1 46.1,14.3 Q46.3,14.4 46.3,15.5 L46.3,20.0 L48.8,20.0 L48.8,14.8 Q49.3,14.4 49.5,14.2 Q49.7,14.1 50.1,14.1 Q50.7,14.1 50.8,14.3 Q51.0,14.4 51.0,15.5 L51.0,20.0 L53.4,20.0 L53.4,15.2 Q53.4,13.2 53.1,12.6 Q52.7,12.0 51.0,12.0 Q49.9,12.0 49.5,12.3 Q49.1,12.6 48.5,13.3 Q48.1,12.5 47.7,12.2 Q47.4,12.0 46.3,12.0 Q45.2,12.0 44.9,12.3 Q44.5,12.5 43.9,13.2 L43.8,13.2 L43.6,12.0 L41.6,12.0 L41.6,20.0 Z"/><path d="M57.8,20.0 Q58.7,20.0 59.1,19.8 Q59.4,19.6 60.1,19.0 L60.2,19.0 L60.3,20.0 L62.4,20.0 L62.4,15.6 Q62.4,13.2 61.8,12.6 Q61.2,12.0 59.1,12.0 Q57.9,12.0 57.3,12.2 Q56.8,12.4 55.7,13.1 L56.6,14.7 Q57.4,14.2 57.7,14.1 Q58.0,14.0 58.7,14.0 Q59.5,14.0 59.7,14.2 Q59.8,14.4 59.9,15.0 Q56.8,15.3 56.1,15.8 Q55.5,16.2 55.5,17.8 Q55.5,18.9 55.9,19.5 Q56.3,20.0 57.8,20.0 Z M58.7,18.1 Q58.2,18.1 58.0,18.0 Q57.8,17.9 57.8,17.4 Q57.8,16.9 58.1,16.7 Q58.3,16.5 59.9,16.3 L59.9,17.5 Q59.5,17.9 59.3,18.0 Q59.2,18.1 58.7,18.1 Z"/><path d="M66.3,20.0 Q66.8,20.0 67.0,20.0 Q67.2,19.9 67.5,19.8 L67.2,18.0 Q67.1,18.0 67.0,18.0 Q67.0,18.0 66.9,18.0 Q66.7,18.0 66.6,17.9 Q66.5,17.8 66.5,17.3 L66.5,8.6 L64.0,8.6 L64.0,17.2 Q64.0,18.9 64.3,19.4 Q64.6,20.0 66.3,20.0 Z"/><path d="M68.9,16.8 L72.9,16.8 L72.9,15.0 L68.9,15.0 L68.9,16.8 Z"/><path d="M76.7,20.0 Q77.2,20.0 77.4,20.0 Q77.6,19.9 77.9,19.8 L77.6,18.0 Q77.5,18.0 77.4,18.0 Q77.4,18.0 77.3,18.0 Q77.1,18.0 77.0,17.9 Q76.9,17.8 76.9,17.3 L76.9,8.6 L74.4,8.6 L74.4,17.2 Q74.4,18.9 74.7,19.4 Q75.0,20.0 76.7,20.0 Z"/><path d="M83.2,20.0 Q84.1,20.0 84.7,19.8 Q85.2,19.7 86.1,19.1 L85.2,17.6 Q84.7,17.9 84.4,18.0 Q84.1,18.1 83.6,18.1 Q82.5,18.1 82.2,17.9 Q81.8,17.7 81.6,16.6 L86.2,16.6 Q86.3,16.5 86.3,16.2 Q86.4,16.0 86.4,15.6 Q86.4,13.7 85.8,12.8 Q85.2,12.0 82.9,12.0 Q81.0,12.0 80.1,12.8 Q79.1,13.6 79.1,15.9 Q79.1,18.5 80.0,19.2 Q80.9,20.0 83.2,20.0 Z M81.5,15.0 Q81.7,14.3 82.0,14.1 Q82.3,13.9 83.0,13.9 Q83.9,13.9 84.1,14.1 Q84.2,14.4 84.2,15.0 L81.5,15.0 Z"/><path d="M90.7,23.6 Q93.4,23.6 94.3,23.0 Q95.2,22.4 95.2,20.2 Q95.2,18.7 94.6,18.4 Q94.1,18.1 92.1,18.1 L90.8,18.1 Q90.0,18.1 89.8,18.1 Q89.7,18.0 89.7,17.8 Q89.7,17.6 89.7,17.6 Q89.8,17.5 89.9,17.4 Q90.3,17.5 90.4,17.5 Q90.6,17.5 90.8,17.5 Q92.6,17.5 93.3,17.1 Q94.0,16.7 94.0,14.8 Q94.0,14.4 94.0,14.2 Q93.9,14.0 93.8,13.8 L95.1,13.8 L95.1,12.0 L92.1,12.0 Q91.8,12.1 91.5,12.0 Q91.3,12.0 90.8,12.0 Q89.1,12.0 88.3,12.5 Q87.5,13.0 87.5,14.8 Q87.5,15.7 87.8,16.1 Q88.0,16.4 88.6,16.8 L88.6,16.9 Q88.1,17.2 87.9,17.5 Q87.7,17.7 87.7,18.0 Q87.7,18.7 87.9,18.9 Q88.0,19.1 88.4,19.4 L88.4,19.5 Q87.7,19.8 87.5,20.2 Q87.3,20.5 87.3,21.4 Q87.3,23.0 88.1,23.3 Q88.8,23.6 90.7,23.6 Z M90.8,16.0 Q90.3,16.0 90.1,15.8 Q89.8,15.6 89.8,14.8 Q89.8,14.1 90.1,13.9 Q90.3,13.7 90.8,13.7 Q91.4,13.7 91.7,13.9 Q91.9,14.1 91.9,14.8 Q91.9,15.6 91.7,15.8 Q91.4,16.0 90.8,16.0 Z M91.1,22.0 Q90.0,22.0 89.7,21.8 Q89.4,21.6 89.4,20.9 Q89.4,20.5 89.4,20.3 Q89.5,20.2 89.7,19.9 Q90.0,20.0 90.1,20.0 Q90.3,20.0 90.9,20.0 L91.6,20.0 Q92.4,20.0 92.6,20.1 Q92.8,20.1 92.8,20.8 Q92.8,21.5 92.4,21.7 Q92.1,22.0 91.1,22.0 Z"/><path d="M99.0,20.0 Q99.9,20.0 100.3,19.8 Q100.6,19.6 101.3,19.0 L101.4,19.0 L101.5,20.0 L103.6,20.0 L103.6,15.6 Q103.6,13.2 103.0,12.6 Q102.4,12.0 100.3,12.0 Q99.1,12.0 98.5,12.2 Q98.0,12.4 96.9,13.1 L97.8,14.7 Q98.6,14.2 98.9,14.1 Q99.2,14.0 99.9,14.0 Q100.7,14.0 100.9,14.2 Q101.0,14.4 101.1,15.0 Q98.0,15.3 97.3,15.8 Q96.7,16.2 96.7,17.8 Q96.7,18.9 97.1,19.5 Q97.5,20.0 99.0,20.0 Z M99.9,18.1 Q99.4,18.1 99.2,18.0 Q99.0,17.9 99.0,17.4 Q99.0,16.9 99.3,16.7 Q99.5,16.5 101.1,16.3 L101.1,17.5 Q100.7,17.9 100.5,18.0 Q100.4,18.1 99.9,18.1 Z"/><path d="M107.5,20.0 Q108.0,20.0 108.2,20.0 Q108.4,19.9 108.7,19.8 L108.4,18.0 Q108.3,18.0 108.2,18.0 Q108.2,18.0 108.1,18.0 Q107.9,18.0 107.8,17.9 Q107.7,17.8 107.7,17.3 L107.7,8.6 L105.2,8.6 L105.2,17.2 Q105.2,18.9 105.5,19.4 Q105.8,20.0 107.5,20.0 Z"/><path d="M110.1,16.8 L114.1,16.8 L114.1,15.0 L110.1,15.0 L110.1,16.8 Z"/><path d="M119.1,20.0 Q120.0,20.0 120.5,19.9 Q121.0,19.8 121.8,19.1 L120.8,17.5 Q120.4,17.8 120.1,17.9 Q119.9,18.0 119.4,18.0 Q118.4,18.0 118.1,17.6 Q117.7,17.2 117.7,16.0 Q117.7,14.8 118.0,14.4 Q118.4,14.0 119.5,14.0 Q119.8,14.0 120.0,14.1 Q120.1,14.1 120.5,14.4 L121.7,12.9 Q121.1,12.3 120.7,12.2 Q120.3,12.0 119.3,12.0 Q117.1,12.0 116.1,12.8 Q115.1,13.5 115.1,16.0 Q115.1,18.5 116.0,19.2 Q116.9,20.0 119.1,20.0 Z"/><path d="M127.3,20.0 Q129.3,20.0 130.2,19.2 Q131.2,18.5 131.2,16.0 Q131.2,13.5 130.2,12.8 Q129.3,12.0 127.3,12.0 Q125.2,12.0 124.3,12.8 Q123.3,13.5 123.3,16.0 Q123.3,18.5 124.3,19.2 Q125.2,20.0 127.3,20.0 Z M127.3,18.0 Q126.3,18.0 126.1,17.6 Q125.9,17.2 125.9,16.0 Q125.9,14.8 126.1,14.4 Q126.3,14.0 127.3,14.0 Q128.2,14.0 128.4,14.4 Q128.6,14.8 128.6,16.0 Q128.6,17.2 128.4,17.6 Q128.2,18.0 127.3,18.0 Z"/><path d="M133.0,20.0 L135.5,20.0 L135.5,14.8 Q136.0,14.4 136.1,14.3 Q136.3,14.1 136.9,14.1 Q137.5,14.1 137.6,14.3 Q137.8,14.4 137.8,15.5 L137.8,20.0 L140.3,20.0 L140.3,15.2 Q140.3,13.2 139.9,12.6 Q139.5,12.0 137.8,12.0 Q136.7,12.0 136.3,12.3 Q135.9,12.5 135.3,13.2 L135.2,13.2 L135.0,12.0 L133.0,12.0 L133.0,20.0 Z"/><path d="M144.6,20.0 Q146.7,20.0 147.3,19.4 Q147.9,18.9 147.9,17.5 Q147.9,16.1 147.3,15.9 Q146.8,15.6 145.8,15.2 Q145.0,15.0 144.6,14.9 Q144.3,14.8 144.3,14.4 Q144.3,14.0 144.4,13.9 Q144.6,13.8 145.1,13.8 Q145.7,13.8 145.9,14.0 Q146.2,14.1 146.8,14.5 L147.9,13.0 Q147.2,12.5 146.8,12.3 Q146.3,12.0 145.0,12.0 Q143.2,12.0 142.6,12.5 Q142.0,13.0 142.0,14.5 Q142.0,15.7 142.5,16.0 Q143.0,16.3 144.0,16.6 Q144.8,16.9 145.2,17.0 Q145.6,17.2 145.6,17.6 Q145.6,18.0 145.4,18.1 Q145.3,18.2 144.6,18.2 Q144.0,18.2 143.7,18.0 Q143.4,17.9 142.6,17.4 L141.5,18.9 Q142.3,19.6 142.9,19.8 Q143.5,20.0 144.6,20.0 Z"/><path d="M153.0,20.0 Q153.9,20.0 154.5,19.8 Q155.0,19.7 155.9,19.1 L155.0,17.6 Q154.5,17.9 154.2,18.0 Q153.9,18.1 153.4,18.1 Q152.3,18.1 152.0,17.9 Q151.6,17.7 151.4,16.6 L156.0,16.6 Q156.1,16.5 156.1,16.2 Q156.2,16.0 156.2,15.6 Q156.2,13.7 155.6,12.8 Q155.0,12.0 152.7,12.0 Q150.8,12.0 149.9,12.8 Q148.9,13.6 148.9,15.9 Q148.9,18.5 149.8,19.2 Q150.7,20.0 153.0,20.0 Z M151.3,15.0 Q151.5,14.3 151.8,14.1 Q152.1,13.9 152.8,13.9 Q153.7,13.9 153.9,14.1 Q154.0,14.4 154.0,15.0 L151.3,15.0 Z"/><path d="M162.3,23.0 L164.8,23.0 L164.8,12.0 L162.9,12.0 L162.7,13.0 L162.6,13.0 Q162.0,12.3 161.7,12.1 Q161.3,12.0 160.5,12.0 Q158.8,12.0 158.0,12.8 Q157.2,13.6 157.2,16.0 Q157.2,18.4 157.8,19.2 Q158.5,20.0 160.5,20.0 Q161.1,20.0 161.5,19.8 Q161.9,19.7 162.4,19.2 L162.3,20.4 L162.3,23.0 Z M161.1,18.0 Q160.3,18.0 160.0,17.7 Q159.8,17.4 159.8,16.0 Q159.8,14.6 160.1,14.3 Q160.4,14.0 161.1,14.0 Q161.5,14.0 161.7,14.1 Q161.9,14.2 162.3,14.5 L162.3,17.3 Q162.0,17.8 161.8,17.9 Q161.6,18.0 161.1,18.0 Z"/><path d="M169.2,20.0 Q170.3,20.0 170.7,19.8 Q171.0,19.5 171.7,18.7 L171.8,18.7 L171.9,20.0 L174.0,20.0 L174.0,12.0 L171.5,12.0 L171.5,17.1 Q171.0,17.7 170.9,17.8 Q170.7,17.9 170.1,17.9 Q169.5,17.9 169.4,17.7 Q169.2,17.6 169.2,16.5 L169.2,12.0 L166.7,12.0 L166.7,16.8 Q166.7,18.8 167.1,19.4 Q167.5,20.0 169.2,20.0 Z"/><path d="M179.6,20.0 Q180.5,20.0 181.1,19.8 Q181.6,19.7 182.5,19.1 L181.6,17.6 Q181.1,17.9 180.8,18.0 Q180.5,18.1 180.0,18.1 Q178.9,18.1 178.6,17.9 Q178.2,17.7 178.0,16.6 L182.6,16.6 Q182.7,16.5 182.7,16.2 Q182.7,16.0 182.7,15.6 Q182.7,13.7 182.2,12.8 Q181.6,12.0 179.3,12.0 Q177.4,12.0 176.5,12.8 Q175.5,13.6 175.5,15.9 Q175.5,18.5 176.4,19.2 Q177.3,20.0 179.6,20.0 Z M177.9,15.0 Q178.1,14.3 178.4,14.1 Q178.7,13.9 179.4,13.9 Q180.3,13.9 180.5,14.1 Q180.6,14.4 180.6,15.0 L177.9,15.0 Z"/><path d="M184.2,20.0 L186.7,20.0 L186.7,14.8 Q187.2,14.4 187.3,14.3 Q187.5,14.1 188.1,14.1 Q188.7,14.1 188.8,14.3 Q189.0,14.4 189.0,15.5 L189.0,20.0 L191.5,20.0 L191.5,15.2 Q191.5,13.2 191.1,12.6 Q190.7,12.0 189.0,12.0 Q187.9,12.0 187.5,12.3 Q187.1,12.5 186.4,13.2 L186.4,13.2 L186.2,12.0 L184.2,12.0 L184.2,20.0 Z"/><path d="M196.9,20.0 Q197.8,20.0 198.3,19.9 Q198.8,19.8 199.6,19.1 L198.6,17.5 Q198.2,17.8 197.9,17.9 Q197.7,18.0 197.2,18.0 Q196.2,18.0 195.9,17.6 Q195.5,17.2 195.5,16.0 Q195.5,14.8 195.8,14.4 Q196.2,14.0 197.3,14.0 Q197.6,14.0 197.8,14.1 Q197.9,14.1 198.3,14.4 L199.5,12.9 Q198.9,12.3 198.5,12.2 Q198.1,12.0 197.1,12.0 Q194.9,12.0 193.9,12.8 Q192.9,13.5 192.9,16.0 Q192.9,18.5 193.8,19.2 Q194.7,20.0 196.9,20.0 Z"/><path d="M205.2,20.0 Q206.1,20.0 206.7,19.8 Q207.2,19.7 208.1,19.1 L207.2,17.6 Q206.7,17.9 206.4,18.0 Q206.1,18.1 205.6,18.1 Q204.5,18.1 204.2,17.9 Q203.8,17.7 203.6,16.6 L208.2,16.6 Q208.3,16.5 208.3,16.2 Q208.3,16.0 208.3,15.6 Q208.3,13.7 207.8,12.8 Q207.2,12.0 204.9,12.0 Q203.0,12.0 202.1,12.8 Q201.1,13.6 201.1,15.9 Q201.1,18.5 202.0,19.2 Q202.9,20.0 205.2,20.0 Z M203.5,15.0 Q203.7,14.3 204.0,14.1 Q204.3,13.9 205.0,13.9 Q205.9,13.9 206.1,14.1 Q206.2,14.4 206.2,15.0 L203.5,15.0 Z"/></g>
  
</svg>
