<svg xmlns="http://www.w3.org/2000/svg" viewBox="0 0 246 30" width="246" height="30" role="img" aria-label="strategic-risk-prioritization">
  <rect x="0.5" y="0.5" width="245" height="29" rx="5" fill="#f4e9d6"/>
  <rect x="0" y="0" width="4" height="30" rx="2" fill="#a8702a"/>
  <g fill="#2a2d34"><path d="M21.4,20.0 Q23.5,20.0 24.1,19.4 Q24.7,18.9 24.7,17.5 Q24.7,16.1 24.1,15.9 Q23.6,15.6 22.6,15.2 Q21.8,15.0 21.4,14.9 Q21.1,14.8 21.1,14.4 Q21.1,14.0 21.2,13.9 Q21.4,13.8 21.9,13.8 Q22.5,13.8 22.7,14.0 Q23.0,14.1 23.6,14.5 L24.7,13.0 Q24.0,12.5 23.6,12.3 Q23.1,12.0 21.8,12.0 Q20.0,12.0 19.4,12.5 Q18.8,13.0 18.8,14.5 Q18.8,15.7 19.3,16.0 Q19.8,16.3 20.8,16.6 Q21.6,16.9 22.0,17.0 Q22.4,17.2 22.4,17.6 Q22.4,18.0 22.2,18.1 Q22.1,18.2 21.4,18.2 Q20.8,18.2 20.5,18.0 Q20.2,17.9 19.4,17.4 L18.3,18.9 Q19.1,19.6 19.7,19.8 Q20.3,20.0 21.4,20.0 Z"/><path d="M29.3,20.0 Q30.2,20.0 30.4,19.9 Q30.7,19.8 31.2,19.7 L30.7,17.9 Q30.6,18.0 30.4,18.0 Q30.3,18.1 30.0,18.1 Q29.4,18.1 29.2,17.9 Q29.0,17.7 29.0,16.9 L29.0,14.0 L30.9,14.0 L30.9,12.0 L29.0,12.0 L29.0,9.9 L26.9,9.9 L26.7,12.0 L25.4,12.1 L25.4,14.0 L26.5,14.0 L26.5,16.9 Q26.5,18.7 26.9,19.4 Q27.3,20.0 29.3,20.0 Z"/><path d="M32.4,20.0 L34.9,20.0 L34.9,15.5 Q35.3,14.6 35.7,14.4 Q36.0,14.2 36.6,14.2 Q36.9,14.2 37.1,14.2 Q37.2,14.2 37.5,14.3 L37.9,12.0 Q37.7,12.1 37.5,12.0 Q37.4,12.0 36.9,12.0 Q36.1,12.0 35.7,12.3 Q35.2,12.5 34.6,13.6 L34.6,13.6 L34.4,12.0 L32.4,12.0 L32.4,20.0 Z"/><path d="M41.6,20.0 Q42.5,20.0 42.9,19.8 Q43.2,19.6 43.9,19.0 L44.0,19.0 L44.1,20.0 L46.2,20.0 L46.2,15.6 Q46.2,13.2 45.6,12.6 Q45.0,12.0 42.9,12.0 Q41.7,12.0 41.1,12.2 Q40.6,12.4 39.5,13.1 L40.4,14.7 Q41.2,14.2 41.5,14.1 Q41.8,14.0 42.5,14.0 Q43.3,14.0 43.5,14.2 Q43.6,14.4 43.7,15.0 Q40.6,15.3 39.9,15.8 Q39.3,16.2 39.3,17.8 Q39.3,18.9 39.7,19.5 Q40.1,20.0 41.6,20.0 Z M42.5,18.1 Q42.0,18.1 41.8,18.0 Q41.6,17.9 41.6,17.4 Q41.6,16.9 41.9,16.7 Q42.1,16.5 43.7,16.3 L43.7,17.5 Q43.3,17.9 43.1,18.0 Q43.0,18.1 42.5,18.1 Z"/><path d="M50.9,20.0 Q51.8,20.0 52.0,19.9 Q52.3,19.8 52.8,19.7 L52.3,17.9 Q52.2,18.0 52.0,18.0 Q51.9,18.1 51.6,18.1 Q51.0,18.1 50.8,17.9 Q50.6,17.7 50.6,16.9 L50.6,14.0 L52.5,14.0 L52.5,12.0 L50.6,12.0 L50.6,9.9 L48.5,9.9 L48.3,12.0 L47.0,12.1 L47.0,14.0 L48.1,14.0 L48.1,16.9 Q48.1,18.7 48.5,19.4 Q48.9,20.0 50.9,20.0 Z"/><path d="M57.6,20.0 Q58.5,20.0 59.1,19.8 Q59.6,19.7 60.5,19.1 L59.6,17.6 Q59.1,17.9 58.8,18.0 Q58.5,18.1 58.0,18.1 Q56.9,18.1 56.6,17.9 Q56.2,17.7 56.0,16.6 L60.6,16.6 Q60.7,16.5 60.7,16.2 Q60.8,16.0 60.8,15.6 Q60.8,13.7 60.2,12.8 Q59.6,12.0 57.3,12.0 Q55.4,12.0 54.5,12.8 Q53.5,13.6 53.5,15.9 Q53.5,18.5 54.4,19.2 Q55.3,20.0 57.6,20.0 Z M55.9,15.0 Q56.1,14.3 56.4,14.1 Q56.7,13.9 57.4,13.9 Q58.3,13.9 58.5,14.1 Q58.6,14.4 58.6,15.0 L55.9,15.0 Z"/><path d="M65.1,23.6 Q67.8,23.6 68.7,23.0 Q69.6,22.4 69.6,20.2 Q69.6,18.7 69.0,18.4 Q68.5,18.1 66.5,18.1 L65.2,18.1 Q64.4,18.1 64.2,18.1 Q64.1,18.0 64.1,17.8 Q64.1,17.6 64.1,17.6 Q64.2,17.5 64.3,17.4 Q64.7,17.5 64.8,17.5 Q65.0,17.5 65.2,17.5 Q67.0,17.5 67.7,17.1 Q68.4,16.7 68.4,14.8 Q68.4,14.4 68.4,14.2 Q68.3,14.0 68.2,13.8 L69.5,13.8 L69.5,12.0 L66.5,12.0 Q66.2,12.1 65.9,12.0 Q65.7,12.0 65.2,12.0 Q63.5,12.0 62.7,12.5 Q61.9,13.0 61.9,14.8 Q61.9,15.7 62.2,16.1 Q62.4,16.4 63.0,16.8 L63.0,16.9 Q62.5,17.2 62.3,17.5 Q62.1,17.7 62.1,18.0 Q62.1,18.7 62.3,18.9 Q62.4,19.1 62.8,19.4 L62.8,19.5 Q62.1,19.8 61.9,20.2 Q61.7,20.5 61.7,21.4 Q61.7,23.0 62.5,23.3 Q63.2,23.6 65.1,23.6 Z M65.2,16.0 Q64.7,16.0 64.5,15.8 Q64.2,15.6 64.2,14.8 Q64.2,14.1 64.5,13.9 Q64.7,13.7 65.2,13.7 Q65.8,13.7 66.1,13.9 Q66.3,14.1 66.3,14.8 Q66.3,15.6 66.1,15.8 Q65.8,16.0 65.2,16.0 Z M65.5,22.0 Q64.4,22.0 64.1,21.8 Q63.8,21.6 63.8,20.9 Q63.8,20.5 63.8,20.3 Q63.9,20.2 64.1,19.9 Q64.4,20.0 64.5,20.0 Q64.7,20.0 65.3,20.0 L66.0,20.0 Q66.8,20.0 67.0,20.1 Q67.2,20.1 67.2,20.8 Q67.2,21.5 66.8,21.7 Q66.5,22.0 65.5,22.0 Z"/><path d="M71.4,20.0 L73.9,20.0 L73.9,12.0 L71.4,12.0 L71.4,20.0 Z M72.7,11.0 Q73.5,11.0 73.8,10.8 Q74.0,10.5 74.0,9.7 Q74.0,9.0 73.8,8.7 Q73.5,8.4 72.7,8.4 Q71.8,8.4 71.5,8.7 Q71.3,9.0 71.3,9.7 Q71.3,10.5 71.5,10.8 Q71.8,11.0 72.7,11.0 Z"/><path d="M80.1,20.0 Q81.0,20.0 81.5,19.9 Q82.0,19.8 82.8,19.1 L81.8,17.5 Q81.4,17.8 81.1,17.9 Q80.9,18.0 80.4,18.0 Q79.4,18.0 79.1,17.6 Q78.7,17.2 78.7,16.0 Q78.7,14.8 79.0,14.4 Q79.4,14.0 80.5,14.0 Q80.8,14.0 81.0,14.1 Q81.1,14.1 81.5,14.4 L82.7,12.9 Q82.1,12.3 81.7,12.2 Q81.3,12.0 80.3,12.0 Q78.1,12.0 77.1,12.8 Q76.1,13.5 76.1,16.0 Q76.1,18.5 77.0,19.2 Q77.9,20.0 80.1,20.0 Z"/><path d="M84.5,16.8 L88.5,16.8 L88.5,15.0 L84.5,15.0 L84.5,16.8 Z"/><path d="M90.0,20.0 L92.5,20.0 L92.5,15.5 Q92.9,14.6 93.3,14.4 Q93.6,14.2 94.2,14.2 Q94.5,14.2 94.7,14.2 Q94.8,14.2 95.1,14.3 L95.5,12.0 Q95.3,12.1 95.1,12.0 Q95.0,12.0 94.5,12.0 Q93.7,12.0 93.3,12.3 Q92.8,12.5 92.3,13.6 L92.2,13.6 L92.0,12.0 L90.0,12.0 L90.0,20.0 Z"/><path d="M97.2,20.0 L99.7,20.0 L99.7,12.0 L97.2,12.0 L97.2,20.0 Z M98.5,11.0 Q99.3,11.0 99.6,10.8 Q99.8,10.5 99.8,9.7 Q99.8,9.0 99.6,8.7 Q99.3,8.4 98.5,8.4 Q97.6,8.4 97.3,8.7 Q97.1,9.0 97.1,9.7 Q97.1,10.5 97.3,10.8 Q97.6,11.0 98.5,11.0 Z"/><path d="M104.8,20.0 Q106.9,20.0 107.5,19.4 Q108.1,18.9 108.1,17.5 Q108.1,16.1 107.5,15.9 Q107.0,15.6 106.0,15.2 Q105.2,15.0 104.8,14.9 Q104.5,14.8 104.5,14.4 Q104.5,14.0 104.6,13.9 Q104.8,13.8 105.3,13.8 Q105.9,13.8 106.1,14.0 Q106.4,14.1 107.0,14.5 L108.1,13.0 Q107.4,12.5 107.0,12.3 Q106.5,12.0 105.2,12.0 Q103.4,12.0 102.8,12.5 Q102.2,13.0 102.2,14.5 Q102.2,15.7 102.7,16.0 Q103.2,16.3 104.2,16.6 Q105.0,16.9 105.4,17.0 Q105.8,17.2 105.8,17.6 Q105.8,18.0 105.6,18.1 Q105.5,18.2 104.8,18.2 Q104.2,18.2 103.9,18.0 Q103.6,17.9 102.8,17.4 L101.7,18.9 Q102.5,19.6 103.1,19.8 Q103.7,20.0 104.8,20.0 Z"/><path d="M109.6,20.0 L112.1,20.0 L112.1,18.0 L113.0,17.0 L114.7,20.0 L117.4,20.0 L114.4,15.3 L117.2,12.0 L114.5,12.0 L112.1,15.0 L112.1,15.0 L112.1,8.8 L109.6,8.8 L109.6,20.0 Z"/><path d="M118.5,16.8 L122.5,16.8 L122.5,15.0 L118.5,15.0 L118.5,16.8 Z"/><path d="M124.0,23.0 L126.5,23.0 L126.5,20.5 L126.4,19.2 Q126.9,19.7 127.3,19.9 Q127.6,20.0 128.3,20.0 Q130.0,20.0 130.8,19.2 Q131.6,18.4 131.6,15.8 Q131.6,13.6 131.0,12.8 Q130.4,12.0 128.5,12.0 Q127.7,12.0 127.3,12.2 Q126.9,12.4 126.3,13.0 L126.2,13.0 L126.0,12.0 L124.0,12.0 L124.0,23.0 Z M127.7,18.0 Q127.3,18.0 127.1,17.9 Q126.9,17.9 126.5,17.5 L126.5,14.7 Q126.9,14.2 127.1,14.1 Q127.3,14.0 127.8,14.0 Q128.6,14.0 128.8,14.3 Q129.0,14.6 129.0,15.9 Q129.0,17.3 128.7,17.7 Q128.4,18.0 127.7,18.0 Z"/><path d="M133.2,20.0 L135.7,20.0 L135.7,15.5 Q136.1,14.6 136.5,14.4 Q136.8,14.2 137.4,14.2 Q137.7,14.2 137.9,14.2 Q138.0,14.2 138.3,14.3 L138.7,12.0 Q138.5,12.1 138.3,12.0 Q138.2,12.0 137.7,12.0 Q136.9,12.0 136.5,12.3 Q136.0,12.5 135.5,13.6 L135.4,13.6 L135.2,12.0 L133.2,12.0 L133.2,20.0 Z"/><path d="M140.4,20.0 L142.9,20.0 L142.9,12.0 L140.4,12.0 L140.4,20.0 Z M141.7,11.0 Q142.5,11.0 142.8,10.8 Q143.0,10.5 143.0,9.7 Q143.0,9.0 142.8,8.7 Q142.5,8.4 141.7,8.4 Q140.8,8.4 140.5,8.7 Q140.3,9.0 140.3,9.7 Q140.3,10.5 140.5,10.8 Q140.8,11.0 141.7,11.0 Z"/><path d="M149.1,20.0 Q151.1,20.0 152.0,19.2 Q153.0,18.5 153.0,16.0 Q153.0,13.5 152.0,12.8 Q151.1,12.0 149.1,12.0 Q147.0,12.0 146.1,12.8 Q145.1,13.5 145.1,16.0 Q145.1,18.5 146.1,19.2 Q147.0,20.0 149.1,20.0 Z M149.1,18.0 Q148.1,18.0 147.9,17.6 Q147.7,17.2 147.7,16.0 Q147.7,14.8 147.9,14.4 Q148.1,14.0 149.1,14.0 Q150.0,14.0 150.2,14.4 Q150.4,14.8 150.4,16.0 Q150.4,17.2 150.2,17.6 Q150.0,18.0 149.1,18.0 Z"/><path d="M154.8,20.0 L157.3,20.0 L157.3,15.5 Q157.7,14.6 158.1,14.4 Q158.4,14.2 159.0,14.2 Q159.3,14.2 159.5,14.2 Q159.6,14.2 159.9,14.3 L160.3,12.0 Q160.1,12.1 159.9,12.0 Q159.8,12.0 159.3,12.0 Q158.5,12.0 158.1,12.3 Q157.6,12.5 157.0,13.6 L157.0,13.6 L156.8,12.0 L154.8,12.0 L154.8,20.0 Z"/><path d="M162.0,20.0 L164.5,20.0 L164.5,12.0 L162.0,12.0 L162.0,20.0 Z M163.2,11.0 Q164.1,11.0 164.4,10.8 Q164.6,10.5 164.6,9.7 Q164.6,9.0 164.4,8.7 Q164.1,8.4 163.2,8.4 Q162.4,8.4 162.1,8.7 Q161.9,9.0 161.9,9.7 Q161.9,10.5 162.1,10.8 Q162.4,11.0 163.2,11.0 Z"/><path d="M170.3,20.0 Q171.2,20.0 171.4,19.9 Q171.7,19.8 172.2,19.7 L171.7,17.9 Q171.6,18.0 171.4,18.0 Q171.3,18.1 171.0,18.1 Q170.4,18.1 170.2,17.9 Q170.0,17.7 170.0,16.9 L170.0,14.0 L171.9,14.0 L171.9,12.0 L170.0,12.0 L170.0,9.9 L167.9,9.9 L167.7,12.0 L166.4,12.1 L166.4,14.0 L167.5,14.0 L167.5,16.9 Q167.5,18.7 167.9,19.4 Q168.3,20.0 170.3,20.0 Z"/><path d="M173.4,20.0 L175.9,20.0 L175.9,12.0 L173.4,12.0 L173.4,20.0 Z M174.6,11.0 Q175.5,11.0 175.8,10.8 Q176.0,10.5 176.0,9.7 Q176.0,9.0 175.8,8.7 Q175.5,8.4 174.6,8.4 Q173.8,8.4 173.5,8.7 Q173.3,9.0 173.3,9.7 Q173.3,10.5 173.5,10.8 Q173.8,11.0 174.6,11.0 Z"/><path d="M178.2,20.0 L184.7,20.0 L184.7,18.1 L181.3,18.1 L184.6,13.3 L184.6,12.0 L178.6,12.0 L178.6,14.0 L181.4,14.0 L178.2,18.7 L178.2,20.0 Z"/><path d="M187.8,20.0 Q188.7,20.0 189.1,19.8 Q189.4,19.6 190.1,19.0 L190.2,19.0 L190.3,20.0 L192.4,20.0 L192.4,15.6 Q192.4,13.2 191.8,12.6 Q191.2,12.0 189.1,12.0 Q187.9,12.0 187.3,12.2 Q186.8,12.4 185.7,13.1 L186.6,14.7 Q187.4,14.2 187.7,14.1 Q188.0,14.0 188.7,14.0 Q189.5,14.0 189.7,14.2 Q189.8,14.4 189.9,15.0 Q186.8,15.3 186.1,15.8 Q185.5,16.2 185.5,17.8 Q185.5,18.9 185.9,19.5 Q186.3,20.0 187.8,20.0 Z M188.7,18.1 Q188.2,18.1 188.0,18.0 Q187.8,17.9 187.8,17.4 Q187.8,16.9 188.1,16.7 Q188.3,16.5 189.9,16.3 L189.9,17.5 Q189.5,17.9 189.3,18.0 Q189.2,18.1 188.7,18.1 Z"/><path d="M197.1,20.0 Q198.0,20.0 198.2,19.9 Q198.5,19.8 199.0,19.7 L198.5,17.9 Q198.4,18.0 198.2,18.0 Q198.1,18.1 197.8,18.1 Q197.2,18.1 197.0,17.9 Q196.8,17.7 196.8,16.9 L196.8,14.0 L198.7,14.0 L198.7,12.0 L196.8,12.0 L196.8,9.9 L194.7,9.9 L194.5,12.0 L193.2,12.1 L193.2,14.0 L194.3,14.0 L194.3,16.9 Q194.3,18.7 194.7,19.4 Q195.1,20.0 197.1,20.0 Z"/><path d="M200.2,20.0 L202.7,20.0 L202.7,12.0 L200.2,12.0 L200.2,20.0 Z M201.4,11.0 Q202.3,11.0 202.6,10.8 Q202.8,10.5 202.8,9.7 Q202.8,9.0 202.6,8.7 Q202.3,8.4 201.4,8.4 Q200.6,8.4 200.3,8.7 Q200.1,9.0 200.1,9.7 Q200.1,10.5 200.3,10.8 Q200.6,11.0 201.4,11.0 Z"/><path d="M208.9,20.0 Q210.9,20.0 211.8,19.2 Q212.8,18.5 212.8,16.0 Q212.8,13.5 211.8,12.8 Q210.9,12.0 208.9,12.0 Q206.8,12.0 205.9,12.8 Q204.9,13.5 204.9,16.0 Q204.9,18.5 205.9,19.2 Q206.8,20.0 208.9,20.0 Z M208.9,18.0 Q207.9,18.0 207.7,17.6 Q207.5,17.2 207.5,16.0 Q207.5,14.8 207.7,14.4 Q207.9,14.0 208.9,14.0 Q209.8,14.0 210.0,14.4 Q210.2,14.8 210.2,16.0 Q210.2,17.2 210.0,17.6 Q209.8,18.0 208.9,18.0 Z"/><path d="M214.6,20.0 L217.1,20.0 L217.1,14.8 Q217.6,14.4 217.7,14.3 Q217.9,14.1 218.5,14.1 Q219.1,14.1 219.2,14.3 Q219.4,14.4 219.4,15.5 L219.4,20.0 L221.9,20.0 L221.9,15.2 Q221.9,13.2 221.5,12.6 Q221.1,12.0 219.4,12.0 Q218.3,12.0 217.9,12.3 Q217.5,12.5 216.8,13.2 L216.8,13.2 L216.6,12.0 L214.6,12.0 L214.6,20.0 Z"/></g>
  
</svg>
